<?xml version="1.0" encoding="utf-8"?>
<!-- Generator: Adobe Illustrator 19.1.0, SVG Export Plug-In . SVG Version: 6.00 Build 0)  -->
<svg version="1.1" id="mid-info-r" xmlns="http://www.w3.org/2000/svg" xmlns:xlink="http://www.w3.org/1999/xlink" x="0px" y="0px"
	 width="244.7px" height="69.8px" viewBox="-489 362.2 244.7 69.8" enable-background="new -489 362.2 244.7 69.8"
	 xml:space="preserve">
<path fill="#B17F60" d="M-247.3,367.6h-238.8c-1.6,0-2.9,1.4-2.9,3v58.5c0,1.6,1.3,2.9,2.9,2.9h238.8c1.6,0,2.9-1.3,2.9-2.9v-58.5
	C-244.3,369-245.7,367.6-247.3,367.6z"/>
<path fill="#344B62" d="M-252.2,362.2h-231.5c-1.6,0-2.9,1.3-2.9,2.9v58.6c0,1.6,1.3,2.9,2.9,2.9h231.5c1.6,0,2.9-1.3,2.9-2.9v-58.6
	C-249.3,363.5-250.6,362.2-252.2,362.2L-252.2,362.2z"/>
</svg>
