<?xml version="1.0" encoding="utf-8"?>
<!-- Generator: Adobe Illustrator 19.1.0, SVG Export Plug-In . SVG Version: 6.00 Build 0)  -->
<svg version="1.1" id="mid-info" xmlns="http://www.w3.org/2000/svg" xmlns:xlink="http://www.w3.org/1999/xlink" x="0px" y="0px"
	 width="438.8px" height="59.3px" viewBox="-392 367.7 438.8 59.3" enable-background="new -392 367.7 438.8 59.3"
	 xml:space="preserve">
<path fill="#C95145" d="M-172,374.9h-207.9c-1.4,0-2.6,1.1-2.6,2.4v47.2c0,1.3,1.2,2.4,2.6,2.4H-172c1.4,0,2.6-1.1,2.6-2.4v-47.2
	C-169.4,375.9-170.5,374.9-172,374.9z"/>
<path fill="#B17F60" d="M44.2,374.9h-225.4c-1.4,0-2.6,1.2-2.6,2.6v46.9c0,1.4,1.2,2.6,2.6,2.6H44.2c1.4,0,2.6-1.2,2.6-2.6v-47
	C46.8,376.1,45.6,375,44.2,374.9z"/>
<path fill="#B17F60" d="M-183.8,406.9h36.9V427h-36.9V406.9z"/>
<path fill="#344B62" d="M34.6,367.7h-423.1c-1.9,0-3.5,1.6-3.5,3.5v45c0,1.9,1.6,3.5,3.5,3.5H34.6c1.9,0,3.5-1.6,3.5-3.5v-45
	C38.2,369.3,36.6,367.7,34.6,367.7z"/>
</svg>
