<svg xmlns="http://www.w3.org/2000/svg" id="Layer_1" viewBox="0 0 285.1 218.1">
  <style>
    .st0{fill:#90684D;} .st1{fill:#C95145;} .st2{fill:#344B62;} .st3{fill:none;} .st4{fill:#FCD4BB;} .st5{fill:#1A2C3E;} .st6{fill:#B17F60;} .st7{fill:#F26F5B;} .st8{fill:#231F20;}
  </style>
  <path d="M281.2 6.8H122.3c-2.1 0-3.8 1.7-3.8 3.8v203.7c0 2.1 1.7 3.8 3.8 3.8h158.9c2.1 0 3.8-1.7 3.8-3.8V10.6c.1-2.1-1.6-3.8-3.8-3.8z" class="st0"/>
  <path d="M134.5 6.7H10.7c-1.9 0-3.4 1.5-3.4 3.4v204.6c0 1.9 1.5 3.4 3.4 3.4h123.8c1.9 0 3.4-1.5 3.4-3.4V10.1c-.1-1.9-1.6-3.4-3.4-3.4z" class="st1"/>
  <path d="M97.5 193.6h40.4v24.5H97.5z" class="st1"/>
  <path d="M270.8 0H4.9C2.2 0 0 2.2 0 4.9v201.5c0 2.7 2.2 4.9 4.9 4.9h265.9c2.7 0 4.9-2.2 4.9-4.9V4.9c0-2.7-2.2-4.9-4.9-4.9z" class="st2"/>
  <path d="M7.7 24.6h116.6v64.1H7.7z" class="st3"/>
  <path d="M26 32.2l-2.4-6.3c0 .5.1 1.1.1 1.8v4.5h-.8V25h1.2l2.3 5.9 2.3-5.9H30v7.1h-.8v-4.6c0-.5 0-1.1.1-1.7l-2.4 6.3H26z" class="st4"/>
  <path d="M36.4 29.5c0 .9-.2 1.6-.7 2-.4.5-1 .7-1.8.7-.5 0-.9-.1-1.3-.3s-.7-.5-.9-1-.3-.9-.3-1.5c0-.9.2-1.6.7-2 .4-.5 1-.7 1.8-.7.7 0 1.3.2 1.8.7s.7 1.2.7 2.1zm-4.1 0c0 .7.1 1.2.4 1.6s.7.5 1.2.5.9-.2 1.2-.5c.3-.4.4-.9.4-1.6 0-.7-.1-1.2-.4-1.5-.3-.4-.7-.5-1.2-.5s-.9.2-1.2.5-.4.8-.4 1.5z" class="st4"/>
  <path d="M40.3 26.7c.2 0 .5 0 .6.1l-.1.8c-.2 0-.4-.1-.6-.1-.4 0-.8.2-1.1.5s-.5.8-.5 1.3v2.9h-.8v-5.4h.7l.1 1c.2-.3.4-.6.7-.8s.6-.3 1-.3z" class="st4"/>
  <path d="M44.2 32.3c-.8 0-1.4-.2-1.9-.7s-.7-1.2-.7-2c0-.9.2-1.5.6-2.1s1-.8 1.7-.8 1.2.2 1.6.7c.4.4.6 1 .6 1.7v.5h-3.7c0 .6.2 1.1.5 1.4s.7.5 1.3.5c.6 0 1.1-.1 1.7-.4v.7c-.3.1-.6.2-.8.3-.3.1-.6.2-.9.2zm-.2-4.9c-.4 0-.8.1-1 .4s-.4.7-.5 1.2h2.8c0-.5-.1-.9-.3-1.2-.3-.3-.6-.4-1-.4z" class="st4"/>
  <path d="M51.9 31.6h.4c.1 0 .2 0 .3-.1v.6c-.1 0-.2.1-.4.1h-.5c-1 0-1.6-.5-1.6-1.6v-3.2h-.8V27l.8-.3.3-1.1h.6v1.2h1.6v.6H51v3.1c0 .3.1.6.2.7s.4.4.7.4z" class="st4"/>
  <path d="M57.3 32.2v-3.5c0-.4-.1-.8-.3-1s-.5-.3-.9-.3c-.6 0-1 .2-1.2.5s-.4.8-.4 1.5v2.8h-.8v-7.6h.8v3c.2-.3.4-.5.7-.6.3-.1.6-.2 1-.2.7 0 1.1.2 1.5.5.3.3.5.8.5 1.5v3.5h-.9z" class="st4"/>
  <path d="M63.1 32.2l-.2-.8c-.3.3-.5.6-.8.7-.3.1-.6.2-1 .2-.5 0-.9-.1-1.2-.4s-.5-.7-.5-1.2c0-1.1.9-1.6 2.6-1.7h.9v-.3c0-.4-.1-.7-.3-.9-.2-.2-.5-.3-.9-.3s-1 .1-1.5.4l-.2-.7c.3-.1.6-.3.9-.3s.6-.1.9-.1c.6 0 1.1.1 1.4.4s.5.7.5 1.4v3.7h-.6zm-1.8-.6c.5 0 .9-.1 1.2-.4s.4-.7.4-1.2v-.5h-.8c-.6 0-1.1.1-1.4.3-.3.2-.4.5-.4.8 0 .3.1.5.3.7s.3.3.7.3z" class="st4"/>
  <path d="M69 32.2v-3.5c0-.4-.1-.8-.3-1s-.5-.3-.9-.3c-.6 0-1 .2-1.2.5s-.4.8-.4 1.5v2.8h-.8v-5.4h.6l.1.7c.2-.3.4-.5.7-.6.3-.1.6-.2 1-.2.6 0 1.1.2 1.5.5.3.3.5.8.5 1.5v3.5H69z" class="st4"/>
  <path d="M76.7 32.2h-.8v-6.3l-.2.2s-.5.4-1.2 1l-.4-.6L76 25h.7v7.2z" class="st4"/>
  <path d="M79.5 29.1c0-1.4.3-2.5.8-3.1.5-.7 1.4-1 2.4-1 .4 0 .7 0 .9.1v.7c-.3-.1-.5-.1-.9-.1-.8 0-1.3.2-1.8.7-.4.5-.6 1.2-.7 2.2h.1c.4-.6.9-.8 1.7-.8.6 0 1.1.2 1.5.6s.6.9.6 1.6c0 .7-.2 1.3-.6 1.8-.4.4-1 .6-1.6.6-.7 0-1.3-.3-1.8-.8-.4-.7-.6-1.5-.6-2.5zm2.4 2.5c.5 0 .8-.1 1.1-.4.3-.3.4-.7.4-1.3 0-.5-.1-.8-.4-1.1s-.6-.4-1.1-.4c-.3 0-.6.1-.8.2s-.4.3-.6.5-.2.4-.2.7c0 .3.1.6.2.9s.3.5.6.7.5.2.8.2z" class="st4"/>
  <path d="M89.9 28.6c0 1.2-.2 2.2-.6 2.8s-1 .9-1.8.9-1.4-.3-1.8-.9c-.4-.6-.6-1.5-.6-2.7 0-1.2.2-2.2.6-2.8s1-.9 1.8-.9 1.4.3 1.8.9.6 1.5.6 2.7zm-3.9 0c0 1 .1 1.8.4 2.3.2.5.6.7 1.2.7.5 0 .9-.2 1.2-.7.2-.5.4-1.2.4-2.3s-.1-1.8-.4-2.3c-.2-.5-.6-.7-1.2-.7-.5 0-.9.2-1.2.7-.3.5-.4 1.2-.4 2.3z" class="st4"/>
  <path d="M92.1 31l.1.1c-.1.3-.2.7-.4 1.1-.2.4-.3.8-.5 1.2h-.6c.1-.3.2-.8.3-1.3s.2-.9.2-1.2h.9z" class="st4"/>
  <path d="M98.1 28.6c0 1.2-.2 2.2-.6 2.8s-1 .9-1.8.9-1.4-.3-1.8-.9c-.4-.6-.6-1.5-.6-2.7 0-1.2.2-2.2.6-2.8s1-.9 1.8-.9 1.4.3 1.8.9.6 1.5.6 2.7zm-3.9 0c0 1 .1 1.8.4 2.3.2.5.6.7 1.2.7.5 0 .9-.2 1.2-.7.2-.5.4-1.2.4-2.3s-.1-1.8-.4-2.3c-.2-.5-.6-.7-1.2-.7-.5 0-.9.2-1.2.7-.3.5-.4 1.2-.4 2.3z" class="st4"/>
  <path d="M103.8 28.6c0 1.2-.2 2.2-.6 2.8s-1 .9-1.8.9-1.4-.3-1.8-.9c-.4-.6-.6-1.5-.6-2.7 0-1.2.2-2.2.6-2.8s1-.9 1.8-.9 1.4.3 1.8.9.6 1.5.6 2.7zm-3.9 0c0 1 .1 1.8.4 2.3.2.5.6.7 1.2.7.5 0 .9-.2 1.2-.7.2-.5.4-1.2.4-2.3s-.1-1.8-.4-2.3c-.2-.5-.6-.7-1.2-.7-.5 0-.9.2-1.2.7-.3.5-.4 1.2-.4 2.3z" class="st4"/>
  <path d="M109.5 28.6c0 1.2-.2 2.2-.6 2.8s-1 .9-1.8.9-1.4-.3-1.8-.9c-.4-.6-.6-1.5-.6-2.7 0-1.2.2-2.2.6-2.8s1-.9 1.8-.9 1.4.3 1.8.9.6 1.5.6 2.7zm-3.9 0c0 1 .1 1.8.4 2.3.2.5.6.7 1.2.7.5 0 .9-.2 1.2-.7.2-.5.4-1.2.4-2.3s-.1-1.8-.4-2.3c-.2-.5-.6-.7-1.2-.7-.5 0-.9.2-1.2.7-.3.5-.4 1.2-.4 2.3z" class="st4"/>
  <path d="M13.8 44.2l-.9-2.3H10l-.9 2.3h-.7l2.8-7.2h.7l2.8 7.2h-.9zm-1.1-3.1l-.8-2.2c-.1-.3-.2-.6-.3-1-.1.3-.2.7-.3 1l-.8 2.2h2.2z" class="st4"/>
  <path d="M22.4 44.2v-3.5c0-.4-.1-.7-.3-1-.2-.2-.5-.3-.8-.3-.5 0-.9.1-1.1.4s-.4.7-.4 1.3v3H19v-3.5c0-.4-.1-.7-.3-1-.2-.2-.5-.3-.9-.3-.5 0-.9.2-1.1.5-.2.3-.4.8-.4 1.5v2.8h-.8v-5.4h.7l.1.7c.2-.3.4-.5.6-.6s.6-.2.9-.2c.8 0 1.4.3 1.6.9.2-.3.4-.5.7-.7s.6-.2 1-.2c.6 0 1.1.2 1.4.5.3.3.5.8.5 1.5v3.5h-.6z" class="st4"/>
  <path d="M27.1 44.3c-.8 0-1.4-.2-1.9-.7s-.7-1.2-.7-2c0-.9.2-1.5.6-2.1s1-.8 1.7-.8 1.2.2 1.6.7c.4.4.6 1 .6 1.7v.5h-3.7c0 .6.2 1.1.5 1.4s.7.5 1.3.5c.6 0 1.1-.1 1.7-.4v.7c-.3.1-.6.2-.8.3-.2.1-.5.2-.9.2zm-.2-4.9c-.4 0-.8.1-1 .4s-.4.7-.5 1.2h2.8c0-.5-.1-.9-.3-1.2-.3-.3-.6-.4-1-.4z" class="st4"/>
  <path d="M32.9 38.7c.2 0 .5 0 .6.1l-.1.8c-.2 0-.4-.1-.6-.1-.4 0-.8.2-1.1.5s-.5.8-.5 1.3v2.9h-.8v-5.4h.7l.1 1c.2-.3.4-.6.7-.8s.7-.3 1-.3z" class="st4"/>
  <path d="M34.5 37.4c0-.2 0-.3.1-.4.1-.1.2-.1.3-.1.1 0 .2 0 .3.1s.1.2.1.4 0 .3-.1.4c-.1.1-.2.1-.3.1-.1 0-.3 0-.3-.1-.1-.1-.1-.3-.1-.4zm.8 6.8h-.8v-5.4h.8v5.4z" class="st4"/>
  <path d="M39.2 44.3c-.8 0-1.4-.2-1.8-.7-.4-.5-.6-1.2-.6-2 0-.9.2-1.6.6-2.1s1-.7 1.8-.7c.3 0 .5 0 .8.1s.5.1.6.2l-.2.7c-.2-.1-.4-.1-.6-.2-.2 0-.4-.1-.6-.1-1.1 0-1.6.7-1.6 2.1 0 .7.1 1.2.4 1.5s.7.5 1.2.5c.4 0 .9-.1 1.4-.3v.7c-.4.2-.9.3-1.4.3z" class="st4"/>
  <path d="M45.1 44.2l-.1-.8c-.3.3-.5.6-.8.7-.3.1-.6.2-1 .2-.5 0-.9-.1-1.2-.4s-.5-.7-.5-1.2c0-1.1.9-1.6 2.6-1.7h.9v-.3c0-.4-.1-.7-.3-.9-.2-.2-.5-.3-.9-.3s-1 .1-1.5.4l-.3-.7c.3-.1.6-.3.9-.3s.6-.1.9-.1c.6 0 1.1.1 1.4.4s.5.7.5 1.4v3.7h-.6zm-1.8-.6c.5 0 .9-.1 1.2-.4s.4-.7.4-1.2v-.5h-.8c-.6 0-1.1.1-1.4.3-.3.2-.4.5-.4.8 0 .3.1.5.3.7s.4.3.7.3z" class="st4"/>
  <path d="M51.1 44.2v-3.5c0-.4-.1-.8-.3-1s-.5-.3-.9-.3c-.6 0-1 .2-1.2.5s-.4.8-.4 1.5v2.8h-.8v-5.4h.5l.1.7c.2-.3.4-.5.7-.6.3-.1.6-.2 1-.2.6 0 1.1.2 1.5.5.3.3.5.8.5 1.5v3.5h-.7z" class="st4"/>
  <path d="M57 42.7c0 .5-.2.9-.6 1.2s-.9.4-1.6.4c-.7 0-1.3-.1-1.7-.3v-.8c.3.1.5.2.8.3s.6.1.9.1c.4 0 .7-.1 1-.2.2-.1.3-.3.3-.6 0-.2-.1-.4-.3-.5-.2-.1-.5-.3-1.1-.5-.5-.2-.9-.3-1.1-.5-.2-.1-.4-.3-.5-.5s-.2-.4-.2-.6c0-.4.2-.8.5-1 .4-.3.8-.4 1.5-.4.6 0 1.1.1 1.7.4l-.3.7c-.5-.2-1-.3-1.5-.3-.4 0-.7.1-.9.2s.1.1.1.3c0 .1 0 .3.1.4s.2.2.4.3.5.2.9.4c.6.2 1.1.5 1.3.7s.3.4.3.8z" class="st4"/>
  <path d="M62.6 43.6h.4c.1 0 .2 0 .3-.1v.6c-.1 0-.2.1-.4.1h-.5c-1 0-1.6-.5-1.6-1.6v-3.2H60V39l.8-.3.3-1.1h.5v1.2h1.6v.6h-1.6v3.1c0 .3.1.6.2.7s.6.4.8.4z" class="st4"/>
  <path d="M69 41.5c0 .9-.2 1.6-.7 2-.4.5-1 .7-1.8.7-.5 0-.9-.1-1.3-.3s-.7-.5-.9-1-.3-.9-.3-1.5c0-.9.2-1.6.7-2 .4-.5 1-.7 1.8-.7.7 0 1.3.2 1.8.7s.7 1.2.7 2.1zm-4 0c0 .7.1 1.2.4 1.6s.7.5 1.2.5.9-.2 1.2-.5c.3-.4.4-.9.4-1.6 0-.7-.1-1.2-.4-1.5-.3-.4-.7-.5-1.2-.5s-.9.2-1.2.5-.4.8-.4 1.5z" class="st4"/>
  <path d="M75.1 41.5c0 .9-.2 1.6-.7 2-.4.5-1 .7-1.8.7-.5 0-.9-.1-1.3-.3s-.7-.5-.9-1-.3-.9-.3-1.5c0-.9.2-1.6.7-2 .4-.5 1-.7 1.8-.7.7 0 1.3.2 1.8.7s.7 1.2.7 2.1zm-4.1 0c0 .7.1 1.2.4 1.6s.7.5 1.2.5.9-.2 1.2-.5c.3-.4.4-.9.4-1.6 0-.7-.1-1.2-.4-1.5-.3-.4-.7-.5-1.2-.5s-.9.2-1.2.5-.4.8-.4 1.5z" class="st4"/>
  <path d="M77.3 41.4c.1-.2.4-.5.6-.8l1.7-1.8h1l-2.2 2.3 2.3 3.1h-1l-1.9-2.5-.6.5v2h-.8v-7.6h.8v4c.1.2.1.4.1.8z" class="st4"/>
  <path d="M87.6 44.2l-.2-.8c-.3.3-.5.6-.8.7-.3.1-.6.2-1 .2-.5 0-.9-.1-1.2-.4s-.4-.7-.4-1.2c0-1.1.9-1.6 2.6-1.7h.9v-.3c0-.4-.1-.7-.3-.9-.2-.2-.5-.3-.9-.3s-1 .1-1.5.4l-.2-.6c.3-.1.6-.3.9-.3s.6-.1.9-.1c.6 0 1.1.1 1.4.4s.5.7.5 1.4v3.7h-.7zm-1.8-.6c.5 0 .9-.1 1.2-.4s.4-.7.4-1.2v-.5h-.8c-.6 0-1.1.1-1.4.3-.3.2-.4.5-.4.8 0 .3.1.5.3.7s.4.3.7.3z" class="st4"/>
  <path d="M96 42.7c0 .5-.2.9-.6 1.2s-.9.4-1.6.4c-.7 0-1.3-.1-1.7-.3v-.8c.3.1.5.2.8.3s.6.1.9.1c.4 0 .7-.1 1-.2.2-.1.3-.3.3-.6 0-.2-.1-.4-.3-.5-.2-.1-.5-.3-1.1-.5-.5-.2-.9-.3-1.1-.5-.2-.1-.4-.3-.5-.5s-.2-.4-.2-.6c0-.4.2-.8.5-1 .4-.3.8-.4 1.5-.4.6 0 1.1.1 1.7.4l-.3.7c-.5-.2-1-.3-1.5-.3-.4 0-.7.1-.9.2s-.3.3-.3.5c0 .1 0 .3.1.4s.2.2.4.3.5.2.9.4c.6.2 1.1.5 1.3.7s.7.2.7.6z" class="st4"/>
  <path d="M99.8 44.3c-.3 0-.7-.1-1-.2-.3-.1-.5-.3-.7-.6H98c0 .3.1.6.1.9v2.2h-.8v-7.8h.7l.1.7c.2-.3.5-.5.7-.6s.6-.2 1-.2c.7 0 1.3.2 1.6.7s.6 1.2.6 2c0 .9-.2 1.6-.6 2-.4.6-.9.9-1.6.9zm-.1-4.9c-.5 0-.9.2-1.2.5s-.4.8-.4 1.4v.2c0 .8.1 1.3.4 1.6.3.3.7.5 1.2.5s.8-.2 1.1-.6.4-.9.4-1.5c0-.7-.1-1.2-.4-1.5-.3-.4-.7-.6-1.1-.6z" class="st4"/>
  <path d="M105.7 44.3c-.8 0-1.4-.2-1.9-.7s-.7-1.2-.7-2c0-.9.2-1.5.6-2.1s1-.8 1.7-.8 1.2.2 1.6.7c.4.4.6 1 .6 1.7v.5H104c0 .6.2 1.1.5 1.4s.7.5 1.3.5c.6 0 1.1-.1 1.7-.4v.7c-.3.1-.6.2-.8.3-.4.1-.7.2-1 .2zm-.2-4.9c-.4 0-.8.1-1 .4s-.5.7-.5 1.2h2.8c0-.5-.1-.9-.3-1.2-.3-.3-.6-.4-1-.4z" class="st4"/>
  <path d="M111.2 44.3c-.8 0-1.4-.2-1.8-.7-.4-.5-.6-1.2-.6-2 0-.9.2-1.6.6-2.1s1-.7 1.8-.7c.3 0 .5 0 .8.1s.5.1.6.2l-.2.7c-.2-.1-.4-.1-.6-.2-.2 0-.4-.1-.6-.1-1.1 0-1.6.7-1.6 2.1 0 .7.1 1.2.4 1.5s.7.5 1.2.5c.4 0 .9-.1 1.4-.3v.7c-.4.2-.9.3-1.4.3z" class="st4"/>
  <path d="M113.7 37.4c0-.2 0-.3.1-.4.1-.1.2-.1.3-.1.1 0 .2 0 .3.1s.1.2.1.4 0 .3-.1.4c-.1.1-.2.1-.3.1-.1 0-.3 0-.3-.1s-.1-.3-.1-.4zm.9 6.8h-.8v-5.4h.8v5.4z" class="st4"/>
  <path d="M119.6 44.2l-.2-.8c-.3.3-.5.6-.8.7-.3.1-.6.2-1 .2-.5 0-.9-.1-1.2-.4s-.5-.7-.5-1.2c0-1.1.9-1.6 2.6-1.7h.9v-.3c0-.4-.1-.7-.3-.9-.2-.2-.5-.3-.9-.3s-1 .1-1.5.4l-.2-.6c.3-.1.6-.3.9-.3s.6-.1.9-.1c.6 0 1.1.1 1.4.4s.5.7.5 1.4v3.7h-.6zm-1.8-.6c.5 0 .9-.1 1.2-.4s.4-.7.4-1.2v-.5h-.8c-.6 0-1.1.1-1.4.3-.3.2-.4.5-.4.8 0 .3.1.5.3.7s.4.3.7.3z" class="st4"/>
  <path d="M122.7 44.2h-.8v-7.6h.8v7.6z" class="st4"/>
  <path d="M15.4 50.7c.7 0 1.2.2 1.6.7.4.5.6 1.2.6 2s-.2 1.6-.6 2c-.4.5-.9.7-1.6.7-.3 0-.7-.1-1-.2-.3-.1-.5-.3-.7-.6h-.1l-.2.7h-.6v-7.6h.8v2.9c.5-.3 1.1-.6 1.8-.6zm-.1.7c-.6 0-1 .2-1.2.5-.2.3-.4.9-.4 1.6s.1 1.3.4 1.6c.3.3.7.5 1.2.5s.9-.2 1.1-.5c.2-.4.4-.9.4-1.6 0-.7-.1-1.2-.4-1.6s-.6-.5-1.1-.5z" class="st4"/>
  <path d="M21.5 50.7c.2 0 .5 0 .6.1l-.1.7c-.2 0-.4-.1-.6-.1-.4 0-.8.2-1.1.5s-.5.8-.5 1.3v2.9H19v-5.4h.7l.1 1c.2-.3.4-.6.7-.8s.6-.2 1-.2z" class="st4"/>
  <path d="M26.4 56.2l-.2-.8c-.3.3-.5.6-.8.7-.3.1-.6.2-1 .2-.5 0-.9-.1-1.2-.4s-.5-.7-.5-1.2c0-1.1.9-1.6 2.6-1.7h.9v-.3c0-.4-.1-.7-.3-.9-.2-.2-.5-.3-.9-.3s-1 .1-1.5.4l-.2-.6c.3-.1.6-.3.9-.3s.6-.1.9-.1c.6 0 1.1.1 1.4.4s.5.7.5 1.4v3.7h-.6zm-1.8-.6c.5 0 .9-.1 1.2-.4s.4-.7.4-1.2v-.5h-.8c-.6 0-1.1.1-1.4.3-.3.2-.4.5-.4.8 0 .3.1.5.3.7s.4.3.7.3z" class="st4"/>
  <path d="M28.6 49.4c0-.2 0-.3.1-.4.1-.1.2-.1.3-.1.1 0 .2 0 .3.1s.1.2.1.4 0 .3-.1.4c-.1.1-.2.1-.3.1-.1 0-.3 0-.3-.1s-.1-.3-.1-.4zm.9 6.8h-.8v-5.4h.8v5.4z" class="st4"/>
  <path d="M34.9 56.2v-3.5c0-.4-.1-.8-.3-1s-.5-.3-.9-.3c-.6 0-1 .2-1.2.5s-.5.8-.5 1.5v2.8h-.8v-5.4h.7l.1.7c.2-.3.4-.5.7-.6.3-.1.6-.2 1-.2.6 0 1.1.2 1.5.5.3.3.5.8.5 1.5v3.5h-.8z" class="st4"/>
  <path d="M41.7 55.6h.4c.1 0 .2 0 .3-.1v.6c-.1 0-.2.1-.4.1h-.5c-1 0-1.6-.5-1.6-1.6v-3.2h-.8V51l.8-.3.3-1.1h.5v1.2h1.6v.6h-1.6v3.1c0 .3.1.6.2.7s.5.4.8.4z" class="st4"/>
  <path d="M45.7 56.3c-.8 0-1.4-.2-1.9-.7s-.7-1.2-.7-2c0-.9.2-1.5.6-2.1s1-.8 1.7-.8 1.2.2 1.6.7c.4.4.6 1 .6 1.7v.5H44c0 .6.2 1.1.5 1.4s.7.5 1.3.5c.6 0 1.1-.1 1.7-.4v.7c-.3.1-.6.2-.8.3-.3.1-.6.2-1 .2zm-.2-4.9c-.4 0-.8.1-1 .4s-.4.7-.5 1.2h2.8c0-.5-.1-.9-.3-1.2-.2-.3-.6-.4-1-.4z" class="st4"/>
  <path d="M52.5 54.7c0 .5-.2.9-.6 1.2s-.9.4-1.6.4c-.7 0-1.3-.1-1.7-.3v-.8c.3.1.5.2.8.3s.6.1.9.1c.4 0 .7-.1 1-.2.2-.1.3-.3.3-.6 0-.2-.1-.4-.3-.5-.2-.1-.5-.3-1.1-.5-.5-.2-.9-.3-1.1-.5-.2-.1-.4-.3-.5-.5s-.2-.4-.2-.6c0-.4.2-.8.5-1 .4-.3.8-.4 1.5-.4.6 0 1.1.1 1.7.4l-.3.7c-.5-.2-1-.3-1.5-.3-.4 0-.7.1-.9.2s-.3.3-.3.5c0 .1 0 .3.1.4s.2.2.4.3.5.2.9.4c.6.2 1.1.5 1.3.7s.7.2.7.6z" class="st4"/>
  <path d="M55.6 55.6h.4c.1 0 .2 0 .3-.1v.6c-.1 0-.2.1-.4.1h-.5c-1 0-1.6-.5-1.6-1.6v-3.2H53V51l.8-.3.3-1.1h.5v1.2h1.6v.6h-1.6v3.1c0 .3.1.6.2.7s.5.4.8.4z" class="st4"/>
  <path d="M61.7 55.6h.4c.1 0 .2 0 .3-.1v.6c-.1 0-.2.1-.4.1h-.5c-1 0-1.6-.5-1.6-1.6v-3.2h-.8V51l.8-.3.3-1.1h.5v1.2h1.6v.6h-1.6v3.1c0 .3.1.6.2.7s.6.4.8.4z" class="st4"/>
  <path d="M68.1 53.5c0 .9-.2 1.6-.7 2-.4.5-1 .7-1.8.7-.5 0-.9-.1-1.3-.3s-.7-.5-.9-1-.3-.9-.3-1.5c0-.9.2-1.6.7-2 .4-.5 1-.7 1.8-.7.7 0 1.3.2 1.8.7s.7 1.2.7 2.1zm-4 0c0 .7.1 1.2.4 1.6s.7.5 1.2.5.9-.2 1.2-.5c.3-.4.4-.9.4-1.6 0-.7-.1-1.2-.4-1.5-.3-.4-.7-.5-1.2-.5s-.9.2-1.2.5-.4.8-.4 1.5z" class="st4"/>
  <path d="M75.8 55.4c-.4.5-1 .8-1.7.8s-1.2-.2-1.6-.7-.6-1.2-.6-2 .2-1.6.6-2.1.9-.7 1.6-.7c.7 0 1.3.3 1.7.8h.1v-3h.8v7.6H76l-.2-.7zm-1.6.2c.6 0 1-.2 1.2-.5.2-.3.4-.8.4-1.5v-.2c0-.8-.1-1.3-.4-1.6-.3-.3-.7-.5-1.2-.5s-.8.2-1.1.6c-.3.4-.4.9-.4 1.6 0 .7.1 1.2.4 1.5s.6.6 1.1.6z" class="st4"/>
  <path d="M80.5 56.3c-.8 0-1.4-.2-1.9-.7s-.7-1.2-.7-2c0-.9.2-1.5.6-2.1s1-.8 1.7-.8 1.2.2 1.6.7c.4.4.6 1 .6 1.7v.5h-3.7c0 .6.2 1.1.5 1.4s.7.5 1.3.5c.6 0 1.1-.1 1.7-.4v.7c-.3.1-.6.2-.8.3-.2.1-.5.2-.9.2zm-.2-4.9c-.4 0-.8.1-1 .4s-.4.7-.5 1.2h2.8c0-.5-.1-.9-.3-1.2-.2-.3-.5-.4-1-.4z" class="st4"/>
  <path d="M85.6 55.6h.4c.1 0 .2 0 .3-.1v.6c-.1 0-.2.1-.4.1h-.5c-1 0-1.6-.5-1.6-1.6v-3.2H83V51l.8-.3.3-1.1h.5v1.2h1.6v.6h-1.6v3.1c0 .3.1.6.2.7s.6.4.8.4z" class="st4"/>
  <path d="M89.7 56.3c-.8 0-1.4-.2-1.9-.7s-.7-1.2-.7-2c0-.9.2-1.5.6-2.1s1-.8 1.7-.8 1.2.2 1.6.7c.4.4.6 1 .6 1.7v.5H88c0 .6.2 1.1.5 1.4s.7.5 1.3.5c.6 0 1.1-.1 1.7-.4v.7c-.3.1-.6.2-.8.3-.3.1-.7.2-1 .2zm-.2-4.9c-.4 0-.8.1-1 .4s-.5.7-.5 1.2h2.8c0-.5-.1-.9-.3-1.2-.3-.3-.6-.4-1-.4z" class="st4"/>
  <path d="M95.5 50.7c.2 0 .5 0 .6.1l-.1.7c-.2 0-.4-.1-.6-.1-.4 0-.8.2-1.1.5s-.5.8-.5 1.3v2.9H93v-5.4h.7l.1 1c.2-.3.4-.6.7-.8s.6-.2 1-.2z" class="st4"/>
  <path d="M103.9 56.2v-3.5c0-.4-.1-.7-.3-1-.2-.2-.5-.3-.8-.3-.5 0-.9.1-1.1.4s-.4.7-.4 1.3v3h-.8v-3.5c0-.4-.1-.7-.3-1-.2-.2-.5-.3-.9-.3-.5 0-.9.2-1.1.5-.2.3-.4.8-.4 1.5v2.8H97v-5.4h.7l.1.7c.2-.3.4-.5.6-.6s.6-.2.9-.2c.8 0 1.4.3 1.6.9.2-.3.4-.5.7-.7s.6-.2 1-.2c.6 0 1.1.2 1.4.5.3.3.5.8.5 1.5v3.5h-.6z" class="st4"/>
  <path d="M106.4 49.4c0-.2 0-.3.1-.4.1-.1.2-.1.3-.1.1 0 .2 0 .3.1s.1.2.1.4 0 .3-.1.4c-.1.1-.2.1-.3.1-.1 0-.3 0-.3-.1-.1-.1-.1-.3-.1-.4zm.8 6.8h-.8v-5.4h.8v5.4z" class="st4"/>
  <path d="M112.6 56.2v-3.5c0-.4-.1-.8-.3-1s-.5-.3-.9-.3c-.6 0-1 .2-1.2.5s-.4.8-.4 1.5v2.8h-.8v-5.4h.7l.1.7c.2-.3.4-.5.7-.6.3-.1.6-.2 1-.2.6 0 1.1.2 1.5.5.3.3.5.8.5 1.5v3.5h-.9z" class="st4"/>
  <path d="M117.3 56.3c-.8 0-1.4-.2-1.9-.7s-.7-1.2-.7-2c0-.9.2-1.5.6-2.1s1-.8 1.7-.8 1.2.2 1.6.7c.4.4.6 1 .6 1.7v.5h-3.7c0 .6.2 1.1.5 1.4s.7.5 1.3.5c.6 0 1.1-.1 1.7-.4v.7c-.3.1-.6.2-.8.3-.2.1-.5.2-.9.2zm-.2-4.9c-.4 0-.8.1-1 .4s-.4.7-.5 1.2h2.8c0-.5-.1-.9-.3-1.2-.2-.3-.5-.4-1-.4z" class="st4"/>
  <path d="M14.6 68.2l-1-3.1c-.1-.2-.2-.6-.3-1.3-.1.6-.2 1-.3 1.3l-1 3.1h-.9l-1.5-5.4h.8c.3 1.3.6 2.4.8 3.1s.3 1.2.3 1.4c0-.2.1-.4.2-.7.1-.3.1-.5.2-.7l1-3.1h.9l1 3.1c.2.6.3 1 .4 1.4 0-.1 0-.3.1-.5s.4-1.6 1-3.9h.7l-1.5 5.4h-.9z" class="st4"/>
  <path d="M21.6 68.2v-3.5c0-.4-.1-.8-.3-1s-.5-.3-.9-.3c-.6 0-1 .2-1.2.5s-.4.8-.4 1.5v2.8H18v-7.6h.8v3c.2-.3.4-.5.7-.6.3-.1.6-.2 1-.2.7 0 1.1.2 1.5.5.3.3.5.8.5 1.5v3.5h-.9z" class="st4"/>
  <path d="M27.4 68.2l-.2-.8c-.3.3-.5.6-.8.7-.3.1-.6.2-1 .2-.5 0-.9-.1-1.2-.4s-.5-.7-.5-1.2c0-1.1.9-1.6 2.6-1.7h.9v-.3c0-.4-.1-.7-.3-.9-.2-.2-.5-.3-.9-.3s-1 .1-1.5.4l-.2-.6c.3-.1.6-.3.9-.3s.6-.1.9-.1c.6 0 1.1.1 1.4.4s.5.7.5 1.4v3.7h-.6zm-1.8-.6c.5 0 .9-.1 1.2-.4s.4-.7.4-1.2v-.5h-.8c-.6 0-1.1.1-1.4.3-.3.2-.4.5-.4.8 0 .3.1.5.3.7s.4.3.7.3z" class="st4"/>
  <path d="M31.4 67.6h.4c.1 0 .2 0 .3-.1v.6c-.1 0-.2.1-.4.1h-.5c-1 0-1.6-.5-1.6-1.6v-3.2H29V63l.8-.3.3-1.1h.5v1.2h1.6v.6h-1.6v3.1c0 .3.1.6.2.7s.3.4.6.4z" class="st4"/>
  <path d="M38.3 68.3c-.3 0-.7-.1-1-.2-.3-.1-.5-.3-.7-.6h-.1c0 .3.1.6.1.9v2.2h-.8v-7.8h.7l.1.7c.2-.3.5-.5.7-.6s.6-.2 1-.2c.7 0 1.3.2 1.6.7s.6 1.2.6 2c0 .9-.2 1.6-.6 2-.4.6-.9.9-1.6.9zm-.1-4.9c-.5 0-.9.2-1.2.5s-.4.8-.4 1.4v.2c0 .8.1 1.3.4 1.6.3.3.7.5 1.2.5s.8-.2 1.1-.6.4-.9.4-1.5c0-.7-.1-1.2-.4-1.5-.3-.4-.7-.6-1.1-.6z" class="st4"/>
  <path d="M45.2 68.2l-.2-.8c-.3.3-.5.6-.8.7-.3.1-.6.2-1 .2-.5 0-.9-.1-1.2-.4s-.5-.7-.5-1.2c0-1.1.9-1.6 2.6-1.7h.9v-.3c0-.4-.1-.7-.3-.9-.2-.2-.5-.3-.9-.3s-1 .1-1.5.4l-.2-.6c.3-.1.6-.3.9-.3s.6-.1.9-.1c.6 0 1.1.1 1.4.4s.5.7.5 1.4v3.7h-.6zm-1.8-.6c.5 0 .9-.1 1.2-.4s.4-.7.4-1.2v-.5h-.8c-.6 0-1.1.1-1.4.3-.3.2-.4.5-.4.8 0 .3.1.5.3.7s.4.3.7.3z" class="st4"/>
  <path d="M49.9 62.7c.2 0 .5 0 .6.1l-.1.8c-.2 0-.4-.1-.6-.1-.4 0-.8.2-1.1.5s-.5.8-.5 1.3v2.9h-.8v-5.4h.7l.1 1c.2-.3.4-.6.7-.8s.7-.3 1-.3z" class="st4"/>
  <path d="M53.3 67.6h.4c.1 0 .2 0 .3-.1v.6c-.1 0-.2.1-.4.1h-.5c-1 0-1.6-.5-1.6-1.6v-3.2h-.8V63l.8-.3.3-1.1h.5v1.2H54v.6h-1.6v3.1c0 .3.1.6.2.7s.4.4.7.4z" class="st4"/>
  <path d="M58.6 66.7c0 .5-.2.9-.6 1.2s-.9.4-1.6.4c-.7 0-1.3-.1-1.7-.3v-.8c.3.1.5.2.8.3s.6.1.9.1c.4 0 .7-.1 1-.2.2-.1.3-.3.3-.6 0-.2-.1-.4-.3-.5-.2-.1-.5-.3-1.1-.5-.5-.2-.9-.3-1.1-.5-.2-.1-.4-.3-.5-.5s-.2-.4-.2-.6c0-.4.2-.8.5-1 .4-.3.8-.4 1.5-.4.6 0 1.1.1 1.7.4l-.3.7c-.5-.2-1-.3-1.5-.3-.4 0-.7.1-.9.2s-.3.3-.3.5c0 .1 0 .3.1.4s.2.2.4.3.5.2.9.4c.6.2 1.1.5 1.3.7s.7.2.7.6z" class="st4"/>
  <path d="M67.1 65.5c0 .9-.2 1.6-.7 2-.4.5-1 .7-1.8.7-.5 0-.9-.1-1.3-.3s-.7-.5-.9-1-.3-.9-.3-1.5c0-.9.2-1.6.7-2 .4-.5 1-.7 1.8-.7.7 0 1.3.2 1.8.7s.7 1.2.7 2.1zm-4.1 0c0 .7.1 1.2.4 1.6s.7.5 1.2.5.9-.2 1.2-.5c.3-.4.4-.9.4-1.6 0-.7-.1-1.2-.4-1.5-.3-.4-.7-.5-1.2-.5s-.9.2-1.2.5-.4.8-.4 1.5z" class="st4"/>
  <path d="M70.9 63.4h-1.4v4.7h-.8v-4.7h-1V63l1-.3v-.3c0-1.3.6-2 1.7-2 .3 0 .6.1 1 .2l-.2.6c-.3-.1-.6-.2-.8-.2-.3 0-.5.1-.7.3-.1.2-.2.5-.2 1v.3h1.4v.8z" class="st4"/>
  <path d="M76.2 67.6h.4c.1 0 .2 0 .3-.1v.6c-.1 0-.2.1-.4.1H76c-1 0-1.6-.5-1.6-1.6v-3.2h-.8V63l.8-.3.3-1.1h.5v1.2h1.6v.6h-1.6v3.1c0 .3.1.6.2.7s.6.4.8.4z" class="st4"/>
  <path d="M81.7 68.2v-3.5c0-.4-.1-.8-.3-1s-.5-.3-.9-.3c-.6 0-1 .2-1.2.5s-.4.8-.4 1.5v2.8H78v-7.6h.8v3c.2-.3.4-.5.7-.6.3-.1.6-.2 1-.2.7 0 1.1.2 1.5.5.3.3.5.8.5 1.5v3.5h-.8z" class="st4"/>
  <path d="M86.4 68.3c-.8 0-1.4-.2-1.9-.7s-.7-1.2-.7-2c0-.9.2-1.5.6-2.1s1-.8 1.7-.8 1.2.2 1.6.7c.4.4.6 1 .6 1.7v.5h-3.7c0 .6.2 1.1.5 1.4s.7.5 1.3.5c.6 0 1.1-.1 1.7-.4v.7c-.3.1-.6.2-.8.3-.2.1-.5.2-.9.2zm-.2-4.9c-.4 0-.8.1-1 .4s-.4.7-.5 1.2h2.8c0-.5-.1-.9-.3-1.2-.2-.3-.6-.4-1-.4z" class="st4"/>
  <path d="M89.7 61.4c0-.2 0-.3.1-.4.1-.1.2-.1.3-.1.1 0 .2 0 .3.1s.1.2.1.4 0 .3-.1.4c-.1.1-.2.1-.3.1-.1 0-.3 0-.3-.1s-.1-.3-.1-.4zm.9 6.8h-.8v-5.4h.8v5.4z" class="st4"/>
  <path d="M94.7 62.7c.2 0 .5 0 .6.1l-.1.8c-.2 0-.4-.1-.6-.1-.4 0-.8.2-1.1.5s-.5.8-.5 1.3v2.9h-.8v-5.4h.8l.1 1c.2-.3.4-.6.7-.8s.6-.3.9-.3z" class="st4"/>
  <path d="M101.5 62.7c.7 0 1.2.2 1.6.7.4.5.6 1.2.6 2s-.2 1.6-.6 2c-.4.5-.9.7-1.6.7-.3 0-.7-.1-1-.2-.3-.1-.5-.3-.7-.6h-.1l-.2.7H99v-7.6h.8v2.9c.4-.3.9-.6 1.7-.6zm-.1.7c-.6 0-1 .2-1.2.5-.2.3-.4.9-.4 1.6s.1 1.3.4 1.6c.3.3.7.5 1.2.5s.9-.2 1.1-.5c.2-.4.4-.9.4-1.6 0-.7-.1-1.2-.4-1.6s-.6-.5-1.1-.5z" class="st4"/>
  <path d="M107.6 62.7c.2 0 .5 0 .6.1l-.1.8c-.2 0-.4-.1-.6-.1-.4 0-.8.2-1.1.5s-.5.8-.5 1.3v2.9h-.8v-5.4h.7l.1 1c.2-.3.4-.6.7-.8s.6-.3 1-.3z" class="st4"/>
  <path d="M112.5 68.2l-.2-.8c-.3.3-.5.6-.8.7-.3.1-.6.2-1 .2-.5 0-.9-.1-1.2-.4s-.5-.7-.5-1.2c0-1.1.9-1.6 2.6-1.7h.9v-.3c0-.4-.1-.7-.3-.9-.2-.2-.5-.3-.9-.3s-1 .1-1.5.4l-.2-.6c.3-.1.6-.3.9-.3s.6-.1.9-.1c.6 0 1.1.1 1.4.4s.5.7.5 1.4v3.7h-.6zm-1.8-.6c.5 0 .9-.1 1.2-.4s.4-.7.4-1.2v-.5h-.8c-.6 0-1.1.1-1.4.3-.3.2-.4.5-.4.8 0 .3.1.5.3.7s.3.3.7.3z" class="st4"/>
  <path d="M114.7 61.4c0-.2 0-.3.1-.4.1-.1.2-.1.3-.1.1 0 .2 0 .3.1s.1.2.1.4 0 .3-.1.4c-.1.1-.2.1-.3.1-.1 0-.3 0-.3-.1-.1-.1-.1-.3-.1-.4zm.9 6.8h-.8v-5.4h.8v5.4z" class="st4"/>
  <path d="M120.9 68.2v-3.5c0-.4-.1-.8-.3-1s-.5-.3-.9-.3c-.6 0-1 .2-1.2.5s-.4.8-.4 1.5v2.8h-.8v-5.4h.7l.1.7c.2-.3.4-.5.7-.6.3-.1.6-.2 1-.2.6 0 1.1.2 1.5.5.3.3.5.8.5 1.5v3.5h-.9z" class="st4"/>
  <path d="M47.5 79.6h.4c.1 0 .2 0 .3-.1v.6c-.1 0-.2.1-.4.1h-.5c-1 0-1.6-.5-1.6-1.6v-3.2h-.8V75l.8-.3.3-1.1h.5v1.2h1.6v.6h-1.6v3.1c0 .3.1.6.2.7s.5.4.8.4z" class="st4"/>
  <path d="M53 80.2v-3.5c0-.4-.1-.8-.3-1s-.5-.3-.9-.3c-.6 0-1 .2-1.2.5s-.4.8-.4 1.5v2.8h-.8v-7.6h.8v3c.2-.3.4-.5.7-.6.3-.1.6-.2 1-.2.7 0 1.1.2 1.5.5.3.3.5.8.5 1.5v3.5H53z" class="st4"/>
  <path d="M57.7 80.3c-.8 0-1.4-.2-1.9-.7s-.7-1.2-.7-2c0-.9.2-1.5.6-2.1s1-.8 1.7-.8 1.2.2 1.6.7c.4.4.6 1 .6 1.7v.5H56c0 .6.2 1.1.5 1.4s.7.5 1.3.5c.6 0 1.1-.1 1.7-.4v.7c-.3.1-.6.2-.8.3-.3.1-.6.2-1 .2zm-.2-4.9c-.4 0-.8.1-1 .4s-.5.7-.5 1.2h2.8c0-.5-.1-.9-.3-1.2-.3-.3-.6-.4-1-.4z" class="st4"/>
  <path d="M60.2 74.8h.9l1.2 3.1c.3.7.4 1.2.5 1.5 0-.2.1-.5.3-.9.1-.4.6-1.6 1.3-3.7h.9L63 80.9c-.2.6-.5 1-.8 1.3-.3.3-.7.4-1.1.4-.2 0-.5 0-.7-.1v-.6c.2 0 .4.1.6.1.6 0 1-.3 1.2-.9l.3-.8-2.3-5.5z" class="st4"/>
  <path d="M69.4 74.8v3.5c0 .4.1.8.3 1s.5.3.9.3c.6 0 1-.2 1.2-.5s.4-.8.4-1.5v-2.8h.8v5.4h-.7l-.1-.7c-.2.3-.4.5-.7.6s-.6.2-1 .2c-.7 0-1.1-.2-1.5-.5s-.5-.8-.5-1.5v-3.5h.9z" class="st4"/>
  <path d="M78.3 78.7c0 .5-.2.9-.6 1.2s-.9.4-1.6.4c-.7 0-1.3-.1-1.7-.3v-.8c.3.1.5.2.8.3s.6.1.9.1c.4 0 .7-.1 1-.2.2-.1.3-.3.3-.6 0-.2-.1-.4-.3-.5-.2-.1-.5-.3-1.1-.5-.5-.2-.9-.3-1.1-.5-.2-.1-.4-.3-.5-.5s-.2-.4-.2-.6c0-.4.2-.8.5-1 .4-.3.8-.4 1.5-.4.6 0 1.1.1 1.7.4l-.3.7c-.5-.2-1-.3-1.5-.3-.4 0-.7.1-.9.2s-.3.3-.3.5c0 .1 0 .3.1.4s.2.2.4.3.5.2.9.4c.6.2 1.1.5 1.3.7s.7.2.7.6z" class="st4"/>
  <path d="M81.8 80.3c-.8 0-1.4-.2-1.9-.7s-.7-1.2-.7-2c0-.9.2-1.5.6-2.1s1-.8 1.7-.8 1.2.2 1.6.7c.4.4.6 1 .6 1.7v.5H80c0 .6.2 1.1.5 1.4s.7.5 1.3.5c.6 0 1.1-.1 1.7-.4v.7c-.3.1-.6.2-.8.3-.2.1-.5.2-.9.2zm-.2-4.9c-.4 0-.8.1-1 .4s-.4.7-.5 1.2h2.8c0-.5-.1-.9-.3-1.2-.2-.3-.6-.4-1-.4z" class="st4"/>
  <path d="M85.1 79.6c0-.2 0-.4.1-.5.1-.1.2-.2.4-.2s.3.1.4.2c.1.1.2.3.2.5s-.1.4-.2.5-.3.2-.4.2c-.2 0-.3-.1-.4-.2-.1-.1-.1-.2-.1-.5z" class="st4"/>
  <path d="M148.5 24.6h116.6v44.2H148.5z" class="st3"/>
  <path d="M153.8 32.2h-.8v-6.4h-2.3V25h5.4v.7h-2.3v6.5z" class="st4"/>
  <path d="M160.7 32.2v-3.5c0-.4-.1-.8-.3-1s-.5-.3-.9-.3c-.6 0-1 .2-1.2.5s-.4.8-.4 1.5v2.8h-.9v-7.6h.8v3c.2-.3.4-.5.7-.6.3-.1.6-.2 1-.2.7 0 1.1.2 1.5.5.3.3.5.8.5 1.5v3.5h-.8z" class="st4"/>
  <path d="M165.4 32.3c-.8 0-1.4-.2-1.9-.7s-.7-1.2-.7-2c0-.9.2-1.5.6-2.1s1-.8 1.7-.8 1.2.2 1.6.7c.4.4.6 1 .6 1.7v.5h-3.7c0 .6.2 1.1.5 1.4s.7.5 1.3.5c.6 0 1.1-.1 1.7-.4v.7c-.3.1-.6.2-.8.3-.2.1-.5.2-.9.2zm-.2-4.9c-.4 0-.8.1-1 .4s-.4.7-.5 1.2h2.8c0-.5-.1-.9-.3-1.2-.3-.3-.6-.4-1-.4z" class="st4"/>
  <path d="M174.8 30.7c0 .5-.2.9-.6 1.2s-.9.4-1.6.4c-.7 0-1.3-.1-1.7-.3v-.8c.3.1.5.2.8.3s.6.1.9.1c.4 0 .7-.1 1-.2.2-.1.3-.3.3-.6 0-.2-.1-.4-.3-.5-.2-.1-.5-.3-1.1-.5-.5-.2-.9-.3-1.1-.5-.2-.1-.4-.3-.5-.5s-.2-.4-.2-.6c0-.4.2-.8.5-1 .4-.3.8-.4 1.5-.4.6 0 1.1.1 1.7.4l-.3.7c-.5-.2-1-.3-1.5-.3-.4 0-.7.1-.9.2s-.3.3-.3.5c0 .1 0 .3.1.4s.2.2.4.3.5.2.9.4c.6.2 1.1.5 1.3.7s.7.2.7.6z" class="st4"/>
  <path d="M179.4 32.2l-.2-.8c-.3.3-.5.6-.8.7-.3.1-.6.2-1 .2-.5 0-.9-.1-1.2-.4s-.5-.7-.5-1.2c0-1.1.9-1.6 2.6-1.7h.9v-.3c0-.4-.1-.7-.3-.9-.2-.2-.5-.3-.9-.3s-1 .1-1.5.4l-.2-.6c.3-.1.6-.3.9-.3s.6-.1.9-.1c.6 0 1.1.1 1.4.4s.5.7.5 1.4v3.7h-.6zm-1.8-.6c.5 0 .9-.1 1.2-.4s.4-.7.4-1.2v-.5h-.8c-.6 0-1.1.1-1.4.3-.3.2-.4.5-.4.8 0 .3.1.5.3.7s.4.3.7.3z" class="st4"/>
  <path d="M188.5 32.2v-3.5c0-.4-.1-.7-.3-1-.2-.2-.5-.3-.8-.3-.5 0-.9.1-1.1.4s-.4.7-.4 1.3v3h-.8v-3.5c0-.4-.1-.7-.3-1-.2-.2-.5-.3-.9-.3-.5 0-.9.2-1.1.5-.2.3-.4.8-.4 1.5v2.8h-.8v-5.4h.7l.1.7c.2-.3.4-.5.6-.6s.6-.2.9-.2c.8 0 1.4.3 1.6.9.2-.3.4-.5.7-.7s.6-.2 1-.2c.6 0 1.1.2 1.4.5.3.3.5.8.5 1.5v3.5h-.6z" class="st4"/>
  <path d="M193.3 32.3c-.8 0-1.4-.2-1.9-.7s-.7-1.2-.7-2c0-.9.2-1.5.6-2.1s1-.8 1.7-.8 1.2.2 1.6.7c.4.4.6 1 .6 1.7v.5h-3.7c0 .6.2 1.1.5 1.4s.7.5 1.3.5c.6 0 1.1-.1 1.7-.4v.7c-.3.1-.6.2-.8.3-.3.1-.6.2-.9.2zm-.3-4.9c-.4 0-.8.1-1 .4s-.4.7-.5 1.2h2.8c0-.5-.1-.9-.3-1.2-.2-.3-.5-.4-1-.4z" class="st4"/>
  <path d="M200.9 31.6h.4c.1 0 .2 0 .3-.1v.6c-.1 0-.2.1-.4.1h-.5c-1 0-1.6-.5-1.6-1.6v-3.2h-.8V27l.8-.3.3-1.1h.5v1.2h1.6v.6h-1.6v3.1c0 .3.1.6.2.7s.6.4.8.4z" class="st4"/>
  <path d="M205 32.3c-.8 0-1.4-.2-1.9-.7s-.7-1.2-.7-2c0-.9.2-1.5.6-2.1s1-.8 1.7-.8 1.2.2 1.6.7c.4.4.6 1 .6 1.7v.5h-3.7c0 .6.2 1.1.5 1.4s.7.5 1.3.5c.6 0 1.1-.1 1.7-.4v.7c-.3.1-.6.2-.8.3-.2.1-.5.2-.9.2zm-.2-4.9c-.4 0-.8.1-1 .4s-.4.7-.5 1.2h2.8c0-.5-.1-.9-.3-1.2-.3-.3-.6-.4-1-.4z" class="st4"/>
  <path d="M211.8 30.7c0 .5-.2.9-.6 1.2s-.9.4-1.6.4c-.7 0-1.3-.1-1.7-.3v-.8c.3.1.5.2.8.3s.6.1.9.1c.4 0 .7-.1 1-.2.2-.1.3-.3.3-.6 0-.2-.1-.4-.3-.5-.2-.1-.5-.3-1.1-.5-.5-.2-.9-.3-1.1-.5-.2-.1-.4-.3-.5-.5s-.2-.4-.2-.6c0-.4.2-.8.5-1 .4-.3.8-.4 1.5-.4.6 0 1.1.1 1.7.4l-.3.7c-.5-.2-1-.3-1.5-.3-.4 0-.7.1-.9.2s-.3.3-.3.5c0 .1 0 .3.1.4s.2.2.4.3.5.2.9.4c.6.2 1.1.5 1.3.7s.7.2.7.6z" class="st4"/>
  <path d="M214.8 31.6h.4c.1 0 .2 0 .3-.1v.6c-.1 0-.2.1-.4.1h-.5c-1 0-1.6-.5-1.6-1.6v-3.2h-.8V27l.8-.3.3-1.1h.5v1.2h1.6v.6H214v3.1c0 .3.1.6.2.7s.4.4.6.4z" class="st4"/>
  <path d="M223.6 32.2l-1-3.1c-.1-.2-.2-.6-.3-1.3-.1.6-.2 1-.3 1.3l-1 3.1h-1l-1.5-5.4h.8c.3 1.3.6 2.4.8 3.1s.3 1.2.3 1.4c0-.2.1-.4.2-.7.1-.3.1-.5.2-.7l1-3.1h.9l1 3.1c.2.6.3 1 .4 1.4 0-.1 0-.3.1-.5s.4-1.6 1-3.9h.8l-1.5 5.4h-.9z" class="st4"/>
  <path d="M230.3 32.2l-.2-.8c-.3.3-.5.6-.8.7-.3.1-.6.2-1 .2-.5 0-.9-.1-1.2-.4s-.5-.7-.5-1.2c0-1.1.9-1.6 2.6-1.7h.9v-.3c0-.4-.1-.7-.3-.9-.2-.2-.5-.3-.9-.3s-1 .1-1.5.4l-.2-.6c.3-.1.6-.3.9-.3s.6-.1.9-.1c.6 0 1.1.1 1.4.4s.5.7.5 1.4v3.7h-.6zm-1.8-.6c.5 0 .9-.1 1.2-.4s.4-.7.4-1.2v-.5h-.8c-.6 0-1.1.1-1.4.3-.3.2-.4.5-.4.8 0 .3.1.5.3.7s.4.3.7.3z" class="st4"/>
  <path d="M236 30.7c0 .5-.2.9-.6 1.2s-.9.4-1.6.4c-.7 0-1.3-.1-1.7-.3v-.8c.3.1.5.2.8.3s.6.1.9.1c.4 0 .7-.1 1-.2.2-.1.3-.3.3-.6 0-.2-.1-.4-.3-.5-.2-.1-.5-.3-1.1-.5-.5-.2-.9-.3-1.1-.5-.2-.1-.4-.3-.5-.5s-.2-.4-.2-.6c0-.4.2-.8.5-1 .4-.3.8-.4 1.5-.4.6 0 1.1.1 1.7.4l-.3.7c-.5-.2-1-.3-1.5-.3-.4 0-.7.1-.9.2s-.3.3-.3.5c0 .1 0 .3.1.4s.2.2.4.3.5.2.9.4c.6.2 1.1.5 1.3.7s.7.2.7.6z" class="st4"/>
  <path d="M243.6 31.4c-.4.5-1 .8-1.7.8s-1.2-.2-1.6-.7-.6-1.2-.6-2 .2-1.6.6-2.1.9-.7 1.6-.7c.7 0 1.3.3 1.7.8h.1v-3h.8v7.6h-.7l-.2-.7zm-1.6.2c.6 0 1-.2 1.2-.5.2-.3.4-.8.4-1.5v-.2c0-.8-.1-1.3-.4-1.6-.3-.3-.7-.5-1.2-.5s-.8.2-1.1.6c-.3.4-.4.9-.4 1.6 0 .7.1 1.2.4 1.5s.6.6 1.1.6z" class="st4"/>
  <path d="M250.7 29.5c0 .9-.2 1.6-.7 2-.4.5-1 .7-1.8.7-.5 0-.9-.1-1.3-.3s-.7-.5-.9-1-.3-.9-.3-1.5c0-.9.2-1.6.7-2 .4-.5 1-.7 1.8-.7.7 0 1.3.2 1.8.7s.7 1.2.7 2.1zm-4.1 0c0 .7.1 1.2.4 1.6s.7.5 1.2.5.9-.2 1.2-.5c.3-.4.4-.9.4-1.6 0-.7-.1-1.2-.4-1.5-.3-.4-.7-.5-1.2-.5s-.9.2-1.2.5-.4.8-.4 1.5z" class="st4"/>
  <path d="M255.8 32.2v-3.5c0-.4-.1-.8-.3-1s-.5-.3-.9-.3c-.6 0-1 .2-1.2.5s-.4.8-.4 1.5v2.8h-.8v-5.4h.7l.1.7c.2-.3.4-.5.7-.6.3-.1.6-.2 1-.2.6 0 1.1.2 1.5.5.3.3.5.8.5 1.5v3.5h-.9z" class="st4"/>
  <path d="M260.5 32.3c-.8 0-1.4-.2-1.9-.7s-.7-1.2-.7-2c0-.9.2-1.5.6-2.1s1-.8 1.7-.8 1.2.2 1.6.7c.4.4.6 1 .6 1.7v.5h-3.7c0 .6.2 1.1.5 1.4s.7.5 1.3.5c.6 0 1.1-.1 1.7-.4v.7c-.3.1-.6.2-.8.3-.2.1-.5.2-.9.2zm-.2-4.9c-.4 0-.8.1-1 .4s-.4.7-.5 1.2h2.8c0-.5-.1-.9-.3-1.2-.3-.3-.6-.4-1-.4z" class="st4"/>
  <path d="M154.9 37.4c0-.2 0-.3.1-.4.1-.1.2-.1.3-.1.1 0 .2 0 .3.1s.1.2.1.4 0 .3-.1.4c-.1.1-.2.1-.3.1-.1 0-.3 0-.3-.1-.1-.1-.1-.3-.1-.4zm.9 6.8h-.8v-5.4h.8v5.4z" class="st4"/>
  <path d="M161.2 44.2v-3.5c0-.4-.1-.8-.3-1s-.5-.3-.9-.3c-.6 0-1 .2-1.2.5s-.4.8-.4 1.5v2.8h-.8v-5.4h.7l.1.7c.2-.3.4-.5.7-.6.3-.1.6-.2 1-.2.6 0 1.1.2 1.5.5.3.3.5.8.5 1.5v3.5h-.9z" class="st4"/>
  <path d="M169.5 40.4h2.4v3.5l-1.2.3s-.8.1-1.4.1c-1.1 0-1.9-.3-2.5-1-.6-.6-.9-1.5-.9-2.7 0-.7.1-1.4.4-2 .3-.6.7-1 1.3-1.3.6-.3 1.2-.4 2-.4s1.5.1 2.1.4l-.3.7c-.6-.3-1.3-.4-1.9-.4-.9 0-1.5.3-2 .8s-.7 1.2-.7 2.2c0 1 .2 1.7.7 2.2s1.2.7 2.1.7c.5 0 1-.1 1.5-.2v-2.2h-1.6v-.7z" class="st4"/>
  <path d="M175.8 44.3c-.8 0-1.4-.2-1.9-.7s-.7-1.2-.7-2c0-.9.2-1.5.6-2.1s1-.8 1.7-.8 1.2.2 1.6.7c.4.4.6 1 .6 1.7v.5H174c0 .6.2 1.1.5 1.4s.7.5 1.3.5c.6 0 1.1-.1 1.7-.4v.7c-.3.1-.6.2-.8.3-.3.1-.6.2-.9.2zm-.2-4.9c-.4 0-.8.1-1 .4s-.4.7-.5 1.2h2.8c0-.5-.1-.9-.3-1.2-.3-.3-.6-.4-1-.4z" class="st4"/>
  <path d="M181.6 38.7c.2 0 .5 0 .6.1l-.1.8c-.2 0-.4-.1-.6-.1-.4 0-.8.2-1.1.5s-.5.8-.5 1.3v2.9h-.8v-5.4h.7l.1 1c.2-.3.4-.6.7-.8s.6-.3 1-.3z" class="st4"/>
  <path d="M190 44.2v-3.5c0-.4-.1-.7-.3-1-.2-.2-.5-.3-.8-.3-.5 0-.9.1-1.1.4s-.4.7-.4 1.3v3h-.8v-3.5c0-.4-.1-.7-.3-1-.2-.2-.5-.3-.9-.3-.5 0-.9.2-1.1.5-.2.3-.4.8-.4 1.5v2.8h-.8v-5.4h.7l.1.7c.2-.3.4-.5.6-.6s.6-.2.9-.2c.8 0 1.4.3 1.6.9.2-.3.4-.5.7-.7s.6-.2 1-.2c.6 0 1.1.2 1.4.5.3.3.5.8.5 1.5v3.5h-.6z" class="st4"/>
  <path d="M195.8 44.2l-.2-.8c-.3.3-.5.6-.8.7-.3.1-.6.2-1 .2-.5 0-.9-.1-1.2-.4s-.5-.7-.5-1.2c0-1.1.9-1.6 2.6-1.7h.9v-.3c0-.4-.1-.7-.3-.9-.2-.2-.5-.3-.9-.3s-1 .1-1.5.4l-.2-.6c.3-.1.6-.3.9-.3s.6-.1.9-.1c.6 0 1.1.1 1.4.4s.5.7.5 1.4v3.7h-.6zm-1.8-.6c.5 0 .9-.1 1.2-.4s.4-.7.4-1.2v-.5h-.8c-.6 0-1.1.1-1.4.3-.3.2-.4.5-.4.8 0 .3.1.5.3.7s.3.3.7.3z" class="st4"/>
  <path d="M201.7 44.2v-3.5c0-.4-.1-.8-.3-1s-.5-.3-.9-.3c-.6 0-1 .2-1.2.5s-.4.8-.4 1.5v2.8h-.8v-5.4h.7l.1.7c.2-.3.4-.5.7-.6.3-.1.6-.2 1-.2.6 0 1.1.2 1.5.5.3.3.5.8.5 1.5v3.5h-.9z" class="st4"/>
  <path d="M203.4 38.8h.9l1.2 3.1c.3.7.4 1.2.5 1.5 0-.2.1-.5.3-.9.1-.4.6-1.6 1.3-3.7h.9l-2.3 6.1c-.2.6-.5 1-.8 1.3-.3.3-.7.4-1.1.4-.2 0-.5 0-.7-.1v-.6c.2 0 .4.1.6.1.6 0 1-.3 1.2-.9l.3-.8-2.3-5.5z" class="st4"/>
  <path d="M210.1 43l.1.1c-.1.3-.2.7-.4 1.1-.2.4-.3.8-.5 1.2h-.6c.1-.3.2-.8.3-1.3s.2-.9.2-1.2h.9z" class="st4"/>
  <path d="M217.6 44.2l-.2-.8c-.3.3-.5.6-.8.7-.3.1-.6.2-1 .2-.5 0-.9-.1-1.2-.4s-.5-.7-.5-1.2c0-1.1.9-1.6 2.6-1.7h.9v-.3c0-.4-.1-.7-.3-.9-.2-.2-.5-.3-.9-.3s-1 .1-1.5.4l-.2-.6c.3-.1.6-.3.9-.3s.6-.1.9-.1c.6 0 1.1.1 1.4.4s.5.7.5 1.4v3.7h-.6zm-1.8-.6c.5 0 .9-.1 1.2-.4s.4-.7.4-1.2v-.5h-.8c-.6 0-1.1.1-1.4.3-.3.2-.4.5-.4.8 0 .3.1.5.3.7s.3.3.7.3z" class="st4"/>
  <path d="M223.5 44.2v-3.5c0-.4-.1-.8-.3-1s-.5-.3-.9-.3c-.6 0-1 .2-1.2.5s-.4.8-.4 1.5v2.8h-.8v-5.4h.7l.1.7c.2-.3.4-.5.7-.6.3-.1.6-.2 1-.2.6 0 1.1.2 1.5.5.3.3.5.8.5 1.5v3.5h-.9z" class="st4"/>
  <path d="M229.6 43.4c-.4.5-1 .8-1.7.8s-1.2-.2-1.6-.7-.6-1.2-.6-2 .2-1.6.6-2.1.9-.7 1.6-.7c.7 0 1.3.3 1.7.8h.1v-3h.8v7.6h-.7l-.2-.7zm-1.6.2c.6 0 1-.2 1.2-.5.2-.3.4-.8.4-1.5v-.2c0-.8-.1-1.3-.4-1.6-.3-.3-.7-.5-1.2-.5s-.8.2-1.1.6c-.3.4-.4.9-.4 1.6 0 .7.1 1.2.4 1.5s.6.6 1.1.6z" class="st4"/>
  <path d="M236.4 43.6h.4c.1 0 .2 0 .3-.1v.6c-.1 0-.2.1-.4.1h-.5c-1 0-1.6-.5-1.6-1.6v-3.2h-.6V39l.8-.3.3-1.1h.5v1.2h1.6v.6h-1.6v3.1c0 .3.1.6.2.7s.4.4.6.4z" class="st4"/>
  <path d="M241.9 44.2v-3.5c0-.4-.1-.8-.3-1s-.5-.3-.9-.3c-.6 0-1 .2-1.2.5s-.4.8-.4 1.5v2.8h-.8v-7.6h.8v3c.2-.3.4-.5.7-.6.3-.1.6-.2 1-.2.7 0 1.1.2 1.5.5.3.3.5.8.5 1.5v3.5h-.9z" class="st4"/>
  <path d="M246.6 44.3c-.8 0-1.4-.2-1.9-.7s-.7-1.2-.7-2c0-.9.2-1.5.6-2.1s1-.8 1.7-.8 1.2.2 1.6.7c.4.4.6 1 .6 1.7v.5h-3.7c0 .6.2 1.1.5 1.4s.7.5 1.3.5c.6 0 1.1-.1 1.7-.4v.7c-.3.1-.6.2-.8.3-.2.1-.5.2-.9.2zm-.2-4.9c-.4 0-.8.1-1 .4s-.4.7-.5 1.2h2.8c0-.5-.1-.9-.3-1.2-.2-.3-.6-.4-1-.4z" class="st4"/>
  <path d="M253.4 42.7c0 .5-.2.9-.6 1.2s-.9.4-1.6.4c-.7 0-1.3-.1-1.7-.3v-.8c.3.1.5.2.8.3s.6.1.9.1c.4 0 .7-.1 1-.2.2-.1.3-.3.3-.6 0-.2-.1-.4-.3-.5-.2-.1-.5-.3-1.1-.5-.5-.2-.9-.3-1.1-.5-.2-.1-.4-.3-.5-.5s-.2-.4-.2-.6c0-.4.2-.8.5-1 .4-.3.8-.4 1.5-.4.6 0 1.1.1 1.7.4l-.3.7c-.5-.2-1-.3-1.5-.3-.4 0-.7.1-.9.2s-.3.3-.3.5c0 .1 0 .3.1.4s.2.2.4.3.5.2.9.4c.6.2 1.1.5 1.3.7s.7.2.7.6z" class="st4"/>
  <path d="M257 44.3c-.8 0-1.4-.2-1.9-.7s-.7-1.2-.7-2c0-.9.2-1.5.6-2.1s1-.8 1.7-.8 1.2.2 1.6.7c.4.4.6 1 .6 1.7v.5h-3.7c0 .6.2 1.1.5 1.4.3.3.7.5 1.3.5.6 0 1.1-.1 1.7-.4v.7c-.3.1-.6.2-.8.3-.2.1-.5.2-.9.2zm-.2-4.9c-.4 0-.8.1-1 .4-.3.3-.4.7-.5 1.2h2.8c0-.5-.1-.9-.3-1.2-.2-.3-.6-.4-1-.4z" class="st4"/>
  <path d="M176.1 56.2l-.2-.8c-.3.3-.5.6-.8.7-.3.1-.6.2-1 .2-.5 0-.9-.1-1.2-.4s-.5-.7-.5-1.2c0-1.1.9-1.6 2.6-1.7h.9v-.3c0-.4-.1-.7-.3-.9-.2-.2-.5-.3-.9-.3s-1 .1-1.5.4l-.2-.6c.3-.1.6-.3.9-.3s.6-.1.9-.1c.6 0 1.1.1 1.4.4s.5.7.5 1.4v3.7h-.6zm-1.9-.6c.5 0 .9-.1 1.2-.4s.4-.7.4-1.2v-.5h-.8c-.6 0-1.1.1-1.4.3-.3.2-.4.5-.4.8 0 .3.1.5.3.7s.4.3.7.3z" class="st4"/>
  <path d="M180.8 50.7c.2 0 .5 0 .6.1l-.1.8c-.2 0-.4-.1-.6-.1-.4 0-.8.2-1.1.5s-.5.8-.5 1.3v2.9h-.8v-5.4h.7l.1 1c.2-.3.4-.6.7-.8s.6-.3 1-.3z" class="st4"/>
  <path d="M184.7 56.3c-.8 0-1.4-.2-1.9-.7s-.7-1.2-.7-2c0-.9.2-1.5.6-2.1s1-.8 1.7-.8 1.2.2 1.6.7c.4.4.6 1 .6 1.7v.5h-3.7c0 .6.2 1.1.5 1.4s.7.5 1.3.5c.6 0 1.1-.1 1.7-.4v.7c-.3.1-.6.2-.8.3-.3.1-.6.2-.9.2zm-.3-4.9c-.4 0-.8.1-1 .4s-.4.7-.4 1.2h2.8c0-.5-.1-.9-.3-1.2-.3-.3-.6-.4-1.1-.4z" class="st4"/>
  <path d="M192.3 55.6h.4c.1 0 .2 0 .3-.1v.6c-.1 0-.2.1-.4.1h-.5c-1 0-1.6-.5-1.6-1.6v-3.2h-.8V51l.8-.3.3-1.1h.5v1.2h1.6v.6h-1.6v3.1c0 .3.1.6.2.7s.6.4.8.4z" class="st4"/>
  <path d="M197.8 56.2v-3.5c0-.4-.1-.8-.3-1s-.5-.3-.9-.3c-.6 0-1 .2-1.2.5s-.4.8-.4 1.5v2.8h-.8v-7.6h.8v3c.2-.3.4-.5.7-.6.3-.1.6-.2 1-.2.7 0 1.1.2 1.5.5.3.3.5.8.5 1.5v3.5h-.9z" class="st4"/>
  <path d="M202.5 56.3c-.8 0-1.4-.2-1.9-.7s-.7-1.2-.7-2c0-.9.2-1.5.6-2.1s1-.8 1.7-.8 1.2.2 1.6.7c.4.4.6 1 .6 1.7v.5h-3.7c0 .6.2 1.1.5 1.4s.7.5 1.3.5c.6 0 1.1-.1 1.7-.4v.7c-.3.1-.6.2-.8.3-.2.1-.5.2-.9.2zm-.2-4.9c-.4 0-.8.1-1 .4s-.4.7-.5 1.2h2.8c0-.5-.1-.9-.3-1.2-.2-.3-.6-.4-1-.4z" class="st4"/>
  <path d="M210.9 50.7c.2 0 .5 0 .6.1l-.1.8c-.2 0-.4-.1-.6-.1-.4 0-.8.2-1.1.5s-.5.8-.5 1.3v2.9h-.8v-5.4h.7l.1 1c.2-.3.4-.6.7-.8s.7-.3 1-.3z" class="st4"/>
  <path d="M214.8 56.3c-.8 0-1.4-.2-1.9-.7s-.7-1.2-.7-2c0-.9.2-1.5.6-2.1s1-.8 1.7-.8 1.2.2 1.6.7c.4.4.6 1 .6 1.7v.5H213c0 .6.2 1.1.5 1.4s.7.5 1.3.5c.6 0 1.1-.1 1.7-.4v.7c-.3.1-.6.2-.8.3-.2.1-.5.2-.9.2zm-.2-4.9c-.4 0-.8.1-1 .4s-.4.7-.5 1.2h2.8c0-.5-.1-.9-.3-1.2-.2-.3-.6-.4-1-.4z" class="st4"/>
  <path d="M221.6 54.7c0 .5-.2.9-.6 1.2s-.9.4-1.6.4c-.7 0-1.3-.1-1.7-.3v-.8c.3.1.5.2.8.3s.6.1.9.1c.4 0 .7-.1 1-.2.2-.1.3-.3.3-.6 0-.2-.1-.4-.3-.5-.2-.1-.5-.3-1.1-.5-.5-.2-.9-.3-1.1-.5-.2-.1-.4-.3-.5-.5s-.2-.4-.2-.6c0-.4.2-.8.5-1 .4-.3.8-.4 1.5-.4.6 0 1.1.1 1.7.4l-.3.7c-.5-.2-1-.3-1.5-.3-.4 0-.7.1-.9.2s-.3.3-.3.5c0 .1 0 .3.1.4s.2.2.4.3.5.2.9.4c.6.2 1.1.5 1.3.7s.7.2.7.6z" class="st4"/>
  <path d="M223.7 50.8v3.5c0 .4.1.8.3 1s.5.3.9.3c.6 0 1-.2 1.2-.5s.4-.8.4-1.5v-2.8h.8v5.4h-.7l-.1-.7c-.2.3-.4.5-.7.6s-.6.2-1 .2c-.7 0-1.1-.2-1.5-.5s-.5-.8-.5-1.5v-3.5h.9z" class="st4"/>
  <path d="M229.9 56.2h-.8v-7.6h.8v7.6z" class="st4"/>
  <path d="M233.3 55.6h.4c.1 0 .2 0 .3-.1v.6c-.1 0-.2.1-.4.1h-.5c-1 0-1.6-.5-1.6-1.6v-3.2h-.8V51l.8-.3.3-1.1h.5v1.2h1.6v.6h-1.6v3.1c0 .3.1.6.2.7s.6.4.8.4z" class="st4"/>
  <path d="M238.6 54.7c0 .5-.2.9-.6 1.2s-.9.4-1.6.4c-.7 0-1.3-.1-1.7-.3v-.8c.3.1.5.2.8.3s.6.1.9.1c.4 0 .7-.1 1-.2.2-.1.3-.3.3-.6 0-.2-.1-.4-.3-.5-.2-.1-.5-.3-1.1-.5-.5-.2-.9-.3-1.1-.5-.2-.1-.4-.3-.5-.5s-.2-.4-.2-.6c0-.4.2-.8.5-1 .4-.3.8-.4 1.5-.4.6 0 1.1.1 1.7.4l-.3.7c-.5-.2-1-.3-1.5-.3-.4 0-.7.1-.9.2s-.3.3-.3.5c0 .1 0 .3.1.4s.2.2.4.3.5.2.9.4c.6.2 1.1.5 1.3.7s.7.2.7.6z" class="st4"/>
  <path d="M239.8 55.6c0-.2 0-.4.1-.5.1-.1.2-.2.4-.2s.3.1.4.2c.1.1.2.3.2.5s-.1.4-.2.5-.3.2-.4.2c-.2 0-.3-.1-.4-.2 0-.1-.1-.2-.1-.5z" class="st4"/>
  <path d="M113.6 169.9v2.8l-6.7-1.3z" class="st5"/>
  <path d="M22.7 164.3v2.8l4.8-.7z" class="st5"/>
  <path d="M72 144.9l41.5 27.9s-16.1 14.5-42.1 13.1c-26-1.3-42.1-10.7-48.8-18.8L72 144.9z" class="st5"/>
  <path d="M72 142l41.5 27.9S97.4 184.4 71.4 183c-26-1.3-42.1-10.7-48.8-18.8L72 142z" class="st5"/>
  <path d="M69.2 138.8l.2-41.5s-33.3.3-49.7 19.7-4.5 37.8-4.5 37.8 3 4.8 4.7 6.2l49.3-22.2z" class="st5"/>
  <path d="M69.2 136.3l.2-41.5s-33.3.3-49.7 19.7-4.5 37.8-4.5 37.8 3 4.8 4.7 6.2l49.3-22.2z" class="st5"/>
  <path d="M73.2 139.3l.2-41.5s27.7.7 42.3 13.5 18.3 23.7 15.2 36.5c-3.2 12.8-15 19.8-15 19.8l-42.7-28.3z" class="st5"/>
  <path d="M73.2 136.3l.2-41.5c0-.4 14 1.7 15 1.9 6.4 1.3 12.7 3.3 18.6 6.2 8.9 4.4 16.8 11.3 21.2 20.2 7.4 15 2.2 33-12.3 41.6l-42.7-28.4z" class="st5"/>
  <path d="M208.9 97.5v42.6l-52.3 20.6s-18.9-22 4-46c0-.1 17.2-17.5 48.3-17.2z" class="st5"/>
  <path d="M208.9 94.6v42.6l-52.3 20.6s-18.9-22 4-46c0 0 17.2-17.5 48.3-17.2z" class="st5"/>
  <path d="M238.7 178.7l-25.7-38V98s40 .3 54.9 25.2c14.8 24.9-3.2 48-29.2 55.5z" class="st5"/>
  <path d="M238.7 175.2l-25.7-38V94.6s40 .3 54.9 25.2c14.8 24.8-3.2 48-29.2 55.4z" class="st5"/>
  <path d="M210.9 145.8l24.3 37.2s-45.7 16.9-76.6-17.1l52.3-20.1z" class="st5"/>
  <path d="M235.2 182.9v-3.1l-5.5-.4z" class="st5"/>
  <path d="M158.6 162.6v3.2l7.2-.2z" class="st5"/>
  <path d="M210.9 142.6l24.3 37.2s-45.7 16.9-76.6-17.1l52.3-20.1z" class="st5"/>
  <path d="M110.2 166.1v2.8l-6.7-1.3z" class="st6"/>
  <path d="M19.3 160.5v2.8l4.7-.7z" class="st6"/>
  <path d="M68.6 141.1l41.5 27.9S94 183.5 68 182.1c-26-1.3-42.1-10.7-48.8-18.8l49.4-22.2z" class="st6"/>
  <path d="M68.6 138.2l41.5 27.9S94 180.6 68 179.2s-42-10.7-48.7-18.7l49.3-22.3z" class="st4"/>
  <path d="M65.8 135l.2-41.5s-33.3.3-49.7 19.7-4.5 37.8-4.5 37.8 3 4.8 4.7 6.2L65.8 135z" class="st1"/>
  <path d="M65.8 132.5L66 91s-33.3.3-49.7 19.7-4.5 37.8-4.5 37.8 3 4.8 4.7 6.2l49.3-22.2z" class="st7"/>
  <path d="M69.8 135.5L70 94s27.7.7 42.3 13.5 18.3 23.7 15.2 36.5c-3.2 12.8-15 19.8-15 19.8l-42.7-28.3z" class="st0"/>
  <path d="M69.8 132.5L70 91c0-.4 14 1.7 15 1.9 6.4 1.3 12.7 3.3 18.6 6.2 8.9 4.4 16.8 11.3 21.2 20.2 7.4 15 2.2 33-12.3 41.6l-42.7-28.4z" class="st6"/>
  <path d="M30.1 18.4l-1.5-3.7h-4.7l-1.4 3.7h-1.4l4.7-11.8H27l4.6 11.8h-1.5zm-1.9-5l-1.4-3.6c-.2-.5-.4-1-.5-1.7-.1.5-.3 1.1-.5 1.7l-1.4 3.6h3.8z" class="st7"/>
  <path d="M38.3 18.4L34.3 8h-.1c.1.8.1 1.8.1 2.9v7.5H33V6.6h2.1l3.7 9.7h.2l3.8-9.7h2v11.8h-1.4v-7.6c0-.9 0-1.8.1-2.8h-.1l-4 10.4h-1.1z" class="st7"/>
  <path d="M54.6 18.4H48V6.6h6.6v1.2h-5.2v3.8h4.9v1.2h-4.9v4.3h5.2v1.3z" class="st7"/>
  <path d="M58.6 13.5v4.9h-1.4V6.6h3.2c1.4 0 2.5.3 3.2.8s1 1.4 1 2.5c0 1.6-.8 2.6-2.4 3.2l3.2 5.3h-1.6L61 13.5h-2.4zm0-1.2h1.9c1 0 1.7-.2 2.1-.6.5-.4.7-1 .7-1.7 0-.8-.2-1.3-.7-1.7-.5-.3-1.2-.5-2.2-.5h-1.8v4.5z" class="st7"/>
  <path d="M67.4 18.4V6.6h1.4v11.8h-1.4z" class="st7"/>
  <path d="M77 7.7c-1.3 0-2.3.4-3.1 1.3-.7.9-1.1 2-1.1 3.5s.4 2.7 1.1 3.6c.7.8 1.8 1.3 3.1 1.3.8 0 1.8-.1 2.8-.4v1.2c-.8.3-1.8.5-3 .5-1.7 0-3.1-.5-4-1.6-.9-1.1-1.4-2.5-1.4-4.5 0-1.2.2-2.3.7-3.2.5-.9 1.1-1.6 2-2.1.9-.5 1.9-.7 3-.7 1.2 0 2.3.2 3.2.7l-.6 1.2c-.9-.6-1.8-.8-2.7-.8z" class="st7"/>
  <path d="M89.8 18.4l-1.5-3.7h-4.7l-1.4 3.7h-1.4l4.7-11.8h1.2l4.6 11.8h-1.5zm-1.9-5l-1.4-3.6c-.2-.5-.4-1-.5-1.7-.1.5-.3 1.1-.5 1.7l-1.4 3.6h3.8z" class="st7"/>
  <path d="M102 18.4h-1.6L94 8.5c.1 1.2.1 2.2.1 3.2v6.7h-1.3V6.6h1.5l6.4 9.8h.1c0-.1 0-.6-.1-1.4 0-.8-.1-1.3 0-1.7V6.6h1.3v11.8z" class="st7"/>
  <path d="M111.9 15.2c0 1-.4 1.8-1.1 2.4-.8.6-1.8.9-3.1.9-1.4 0-2.5-.2-3.2-.5v-1.3c.5.2 1 .4 1.6.5.6.1 1.1.2 1.7.2.9 0 1.6-.2 2.1-.5s.7-.8.7-1.4c0-.4-.1-.7-.2-1-.2-.3-.4-.5-.8-.7-.4-.2-1-.5-1.8-.7-1.1-.4-1.9-.9-2.3-1.4-.5-.5-.7-1.2-.7-2.1 0-.9.3-1.6 1-2.2.7-.5 1.6-.8 2.7-.8 1.2 0 2.2.2 3.2.6l-.4 1.2c-1-.4-1.9-.6-2.8-.6-.7 0-1.3.2-1.7.5s-.8.6-.8 1.1c0 .4.1.7.2 1 .2.3.4.5.8.7.4.2.9.5 1.6.7 1.2.4 2.1.9 2.5 1.4s.8 1.2.8 2z" class="st7"/>
  <path d="M172.7 12.2h4v5.7c-.6.2-1.3.3-1.9.5-.6.1-1.4.2-2.2.2-1.8 0-3.2-.5-4.2-1.6s-1.5-2.5-1.5-4.5c0-1.2.2-2.3.7-3.2s1.2-1.6 2.1-2.1c.9-.5 2-.7 3.2-.7 1.3 0 2.4.2 3.5.7l-.4 1.1c-1.1-.5-2.1-.7-3.1-.7-1.4 0-2.6.4-3.4 1.3-.8.9-1.2 2-1.2 3.6s.4 2.8 1.2 3.6c.8.8 1.9 1.2 3.4 1.2.8 0 1.6-.1 2.4-.3v-3.6h-2.6v-1.2z" class="st7"/>
  <path d="M186.1 18.4h-6.6V6.6h6.6v1.2h-5.2v3.8h4.9v1.2h-4.9v4.3h5.2v1.3z" class="st7"/>
  <path d="M190.1 13.5v4.9h-1.4V6.6h3.2c1.4 0 2.5.3 3.2.8s1 1.4 1 2.5c0 1.6-.8 2.6-2.4 3.2l3.2 5.3h-1.6l-2.9-4.9h-2.3zm0-1.2h1.9c1 0 1.7-.2 2.1-.6.5-.4.7-1 .7-1.7 0-.8-.2-1.3-.7-1.7-.5-.3-1.2-.5-2.2-.5h-1.8v4.5z" class="st7"/>
  <path d="M204.1 18.4l-4-10.4h-.1c.1.8.1 1.8.1 2.9v7.5h-1.3V6.6h2.1l3.7 9.7h.1l3.8-9.7h2v11.8h-1.4v-7.6c0-.9 0-1.8.1-2.8h-.1l-4 10.4h-1z" class="st7"/>
  <path d="M221.2 18.4l-1.5-3.7H215l-1.4 3.7h-1.4l4.7-11.8h1.2l4.6 11.8h-1.5zm-1.9-5l-1.4-3.6c-.2-.5-.4-1-.5-1.7-.1.5-.3 1.1-.5 1.7l-1.4 3.6h3.8z" class="st7"/>
  <path d="M233.4 18.4h-1.6l-6.4-9.9h-.1c.1 1.2.1 2.2.1 3.2v6.7h-1.3V6.6h1.5l6.4 9.8h.1c0-.1 0-.6-.1-1.4 0-.8-.1-1.3 0-1.7V6.6h1.3v11.8z" class="st7"/>
  <path d="M243.3 15.2c0 1-.4 1.8-1.1 2.4-.8.6-1.8.9-3.1.9-1.4 0-2.5-.2-3.2-.5v-1.3c.5.2 1 .4 1.6.5.6.1 1.1.2 1.7.2.9 0 1.6-.2 2.1-.5s.7-.8.7-1.4c0-.4-.1-.7-.2-1-.2-.3-.4-.5-.8-.7-.4-.2-1-.5-1.8-.7-1.1-.4-1.9-.9-2.3-1.4-.5-.5-.7-1.2-.7-2.1 0-.9.3-1.6 1-2.2.7-.5 1.6-.8 2.7-.8 1.2 0 2.2.2 3.2.6l-.4 1.2c-1-.4-1.9-.6-2.8-.6-.7 0-1.3.2-1.7.5s-.6.7-.6 1.3c0 .4.1.7.2 1 .2.3.4.5.8.7.4.2.9.5 1.6.7 1.2.4 2.1.9 2.5 1.4s.6 1 .6 1.8z" class="st7"/>
  <path d="M205.5 93.7v42.6l-52.3 20.6s-18.9-22 4-46c0-.1 17.2-17.5 48.3-17.2z" class="st6"/>
  <path d="M205.5 90.8v42.6L153.2 154s-18.9-22 4-46c0 0 17.2-17.4 48.3-17.2z" class="st4"/>
  <path d="M92.5 114.1c0 .7-.2 1.2-.6 1.7-.4.4-.9.7-1.6.9v.1c.9.1 1.5.4 1.9.8s.6 1 .6 1.7c0 1-.4 1.8-1.1 2.4-.7.5-1.7.8-3 .8-.6 0-1.1 0-1.6-.1s-.9-.2-1.4-.5v-1.2c.5.2 1 .4 1.5.5.5.1 1 .2 1.5.2 1.9 0 2.8-.7 2.8-2.2 0-1.3-1-1.9-3.1-1.9h-1.1v-1h1.1c.8 0 1.5-.2 2-.6.5-.4.7-.9.7-1.5 0-.5-.2-.9-.5-1.2-.4-.3-.8-.4-1.5-.4-.5 0-.9.1-1.3.2s-.9.4-1.4.7l-.6-.8c.4-.3.9-.6 1.5-.8.6-.2 1.2-.3 1.8-.3 1 0 1.8.2 2.4.7.7.3 1 .9 1 1.8z" class="st0"/>
  <path d="M95.8 122.3l4.4-9.6h-5.8v-1.1h7.1v1l-4.4 9.7h-1.3z" class="st0"/>
  <path d="M107.4 114.7c0 1.1-.2 2-.6 2.5-.4.6-.9.9-1.6.9-.7 0-1.2-.3-1.6-.9-.4-.6-.6-1.4-.6-2.5s.2-1.9.5-2.5c.4-.6.9-.8 1.6-.8.7 0 1.3.3 1.6.9s.7 1.4.7 2.4zm-3.3 0c0 .8.1 1.5.3 1.9s.5.6.9.6c.8 0 1.2-.8 1.2-2.5s-.4-2.5-1.2-2.5c-.4 0-.7.2-.9.6s-.3 1.1-.3 1.9zm7.9-3.2l-5.9 10.7H105l5.9-10.7h1.1zm1.9 7.5c0 1.1-.2 1.9-.6 2.5-.4.6-.9.9-1.6.9-.7 0-1.2-.3-1.6-.9-.4-.6-.6-1.4-.6-2.5s.2-1.9.5-2.5c.4-.6.9-.8 1.6-.8.7 0 1.2.3 1.6.9.5.5.7 1.3.7 2.4zm-3.4 0c0 .8.1 1.5.3 1.9.2.4.5.6.9.6s.7-.2.9-.6c.2-.4.3-1 .3-1.9 0-.8-.1-1.5-.3-1.9-.2-.4-.5-.6-.9-.6s-.7.2-.9.6c-.2.5-.3 1.1-.3 1.9z" class="st0"/>
  <path d="M85.3 135.3v-10.7h1.2v9.6h4.7v1.1h-5.9z" class="st0"/>
  <path d="M99 135.3h-6v-10.7h6v1.1h-4.7v3.4h4.4v1.1h-4.4v3.9H99v1.2z" class="st0"/>
  <path d="M102.6 135.3h-1.2v-10.7h6v1.1h-4.7v3.9h4.4v1.1h-4.4v4.6z" class="st0"/>
  <path d="M112.4 135.3h-1.2v-9.6h-3.4v-1.1h8v1.1h-3.4v9.6z" class="st0"/>
  <path d="M235.3 174.9l-25.7-38V94.3s40 .3 54.9 25.2c14.8 24.8-3.2 47.9-29.2 55.4z" class="st0"/>
  <path d="M235.3 171.4l-25.7-38V90.8s40 .3 54.9 25.2c14.8 24.9-3.2 48-29.2 55.4z" class="st6"/>
  <path d="M234.2 124.8h-1.6v2.5h-1.2v-2.5h-5.2v-1.1l5.1-7.2h1.3v7.2h1.6v1.1zm-2.8-1.1v-3.6c0-.7 0-1.5.1-2.4h-.1c-.2.5-.5.9-.7 1.2l-3.3 4.8h4z" class="st0"/>
  <path d="M241.8 119.1c0 .7-.2 1.2-.6 1.7-.4.4-.9.7-1.6.9v.1c.9.1 1.5.4 1.9.8s.6 1 .6 1.7c0 1-.4 1.8-1.1 2.4-.7.5-1.7.8-3 .8-.6 0-1.1 0-1.6-.1s-.9-.2-1.4-.5v-1.2c.5.2 1 .4 1.5.5.5.1 1 .2 1.5.2 1.9 0 2.8-.7 2.8-2.2 0-1.3-1-1.9-3.1-1.9h-1.1v-1h1.1c.8 0 1.5-.2 2-.6.5-.4.7-.9.7-1.5 0-.5-.2-.9-.5-1.2-.4-.3-.8-.4-1.5-.4-.5 0-.9.1-1.3.2s-.9.4-1.4.7l-.6-.8c.4-.3.9-.6 1.5-.8.6-.2 1.2-.3 1.8-.3 1 0 1.8.2 2.4.7.8.3 1 1 1 1.8z" class="st0"/>
  <path d="M248.2 119.8c0 1.1-.2 2-.6 2.5-.4.6-.9.9-1.6.9-.7 0-1.2-.3-1.6-.9-.4-.6-.6-1.4-.6-2.5s.2-1.9.5-2.5c.4-.6.9-.8 1.6-.8.7 0 1.3.3 1.6.9s.7 1.3.7 2.4zm-3.4 0c0 .8.1 1.5.3 1.9s.5.6.9.6c.8 0 1.2-.8 1.2-2.5s-.4-2.5-1.2-2.5c-.4 0-.7.2-.9.6s-.3 1.1-.3 1.9zm7.9-3.2l-5.9 10.7h-1.1l5.9-10.7h1.1zm1.9 7.5c0 1.1-.2 1.9-.6 2.5-.4.6-.9.9-1.6.9-.7 0-1.2-.3-1.6-.9-.4-.6-.6-1.4-.6-2.5s.2-1.9.5-2.5c.4-.6.9-.8 1.6-.8.7 0 1.2.3 1.6.9.5.5.7 1.3.7 2.4zm-3.3 0c0 .8.1 1.5.3 1.9.2.4.5.6.9.6s.7-.2.9-.6c.2-.4.3-1 .3-1.9 0-.8-.1-1.5-.3-1.9-.2-.4-.5-.6-.9-.6s-.7.2-.9.6c-.2.4-.3 1-.3 1.9z" class="st0"/>
  <path d="M226 140.3v-10.7h1.2v9.6h4.7v1.1H226z" class="st0"/>
  <path d="M239.8 140.3h-6v-10.7h6v1.1h-4.7v3.4h4.4v1.1h-4.4v3.9h4.7v1.2z" class="st0"/>
  <path d="M243.4 140.3h-1.2v-10.7h6v1.1h-4.7v3.9h4.4v1.1h-4.4v4.6z" class="st0"/>
  <path d="M253.2 140.3H252v-9.6h-3.4v-1.1h8v1.1h-3.4v9.6z" class="st0"/>
  <path d="M207.5 142l24.3 37.2s-45.7 16.9-76.6-17.1l52.3-20.1z" class="st1"/>
  <path d="M231.8 179.2V176l-5.5-.3z" class="st1"/>
  <path d="M155.2 158.9v3.1l7.2-.1z" class="st1"/>
  <path d="M207.5 138.9l24.3 37.2S186.1 193 155.2 159l52.3-20.1z" class="st7"/>
  <path d="M233.3 124h-1.6v2.5h-1.2V124h-5.2v-1.1l5.1-7.2h1.3v7.2h1.6v1.1zm-2.8-1.2v-3.6c0-.7 0-1.5.1-2.4h-.1c-.2.5-.5.9-.7 1.2l-3.3 4.8h4z" class="st8"/>
  <path d="M241 118.2c0 .7-.2 1.2-.6 1.7-.4.4-.9.7-1.6.9v.1c.9.1 1.5.4 1.9.8s.6 1 .6 1.7c0 1-.4 1.8-1.1 2.4-.7.5-1.7.8-3 .8-.6 0-1.1 0-1.6-.1s-.9-.2-1.4-.5v-1.2c.5.2 1 .4 1.5.5.5.1 1 .2 1.5.2 1.9 0 2.8-.7 2.8-2.2 0-1.3-1-1.9-3.1-1.9h-1.1v-1h1.1c.8 0 1.5-.2 2-.6.5-.4.7-.9.7-1.5 0-.5-.2-.9-.5-1.2-.4-.3-.8-.4-1.5-.4-.5 0-.9.1-1.3.2s-.9.4-1.4.7l-.6-.8c.4-.3.9-.6 1.5-.8.6-.2 1.2-.3 1.8-.3 1 0 1.8.2 2.4.7.7.3 1 1 1 1.8z" class="st8"/>
  <path d="M247.3 118.9c0 1.1-.2 2-.6 2.5-.4.6-.9.9-1.6.9-.7 0-1.2-.3-1.6-.9-.4-.6-.6-1.4-.6-2.5s.2-1.9.5-2.5c.4-.6.9-.8 1.6-.8.7 0 1.3.3 1.6.9s.7 1.3.7 2.4zm-3.4 0c0 .8.1 1.5.3 1.9s.5.6.9.6c.8 0 1.2-.8 1.2-2.5s-.4-2.5-1.2-2.5c-.4 0-.7.2-.9.6s-.3 1.1-.3 1.9zm7.9-3.2l-5.9 10.7h-1.1l5.9-10.7h1.1zm1.9 7.5c0 1.1-.2 1.9-.6 2.5-.4.6-.9.9-1.6.9-.7 0-1.2-.3-1.6-.9-.4-.6-.6-1.4-.6-2.5s.2-1.9.5-2.5c.4-.6.9-.8 1.6-.8.7 0 1.2.3 1.6.9.5.5.7 1.3.7 2.4zm-3.3 0c0 .8.1 1.5.3 1.9.2.4.5.6.9.6s.7-.2.9-.6c.2-.4.3-1 .3-1.9 0-.8-.1-1.5-.3-1.9-.2-.4-.5-.6-.9-.6s-.7.2-.9.6c-.2.4-.3 1.1-.3 1.9z" class="st8"/>
  <path d="M225.1 139.4v-10.7h1.2v9.6h4.7v1.1h-5.9z" class="st8"/>
  <path d="M238.9 139.4h-6v-10.7h6v1.1h-4.7v3.4h4.4v1.1h-4.4v3.9h4.7v1.2z" class="st8"/>
  <path d="M242.5 139.4h-1.2v-10.7h6v1.1h-4.7v3.9h4.4v1.1h-4.4v4.6z" class="st8"/>
  <path d="M252.3 139.4h-1.2v-9.6h-3.4v-1.1h8v1.1h-3.4v9.6z" class="st8"/>
  <path d="M191.7 159.4h-7v-1l2.8-2.8c.9-.9 1.4-1.5 1.7-1.9.3-.4.5-.7.6-1.1.1-.4.2-.7.2-1.1 0-.6-.2-1-.5-1.4-.3-.3-.8-.5-1.4-.5-.4 0-.9.1-1.3.2s-.8.4-1.3.8l-.6-.8c1-.8 2.1-1.2 3.2-1.2 1 0 1.8.3 2.4.8.6.5.9 1.2.9 2.1 0 .7-.2 1.4-.6 2s-1.1 1.5-2.1 2.5l-2.3 2.3v.1h5.5v1z" class="st1"/>
  <path d="M200.8 157h-1.6v2.5H198V157h-5.2v-1.1l5.1-7.2h1.3v7.2h1.6v1.1zm-2.8-1.1v-3.6c0-.7 0-1.5.1-2.4h-.1c-.2.5-.5.9-.7 1.2l-3.3 4.8h4z" class="st1"/>
  <path d="M206.2 151.9c0 1.1-.2 2-.6 2.5-.4.6-.9.9-1.6.9-.7 0-1.2-.3-1.6-.9-.4-.6-.6-1.4-.6-2.5s.2-1.9.5-2.5c.4-.6.9-.8 1.6-.8.7 0 1.3.3 1.6.9s.7 1.4.7 2.4zm-3.3 0c0 .8.1 1.5.3 1.9s.5.6.9.6c.8 0 1.2-.8 1.2-2.5s-.4-2.5-1.2-2.5c-.4 0-.7.2-.9.6s-.3 1.1-.3 1.9zm7.9-3.2l-5.9 10.7h-1.1l5.9-10.7h1.1zm1.9 7.5c0 1.1-.2 1.9-.6 2.5-.4.6-.9.9-1.6.9-.7 0-1.2-.3-1.6-.9-.4-.6-.6-1.4-.6-2.5s.2-1.9.5-2.5c.4-.6.9-.8 1.6-.8.7 0 1.2.3 1.6.9.5.5.7 1.3.7 2.4zm-3.4 0c0 .8.1 1.5.3 1.9.2.4.5.6.9.6s.7-.2.9-.6c.2-.4.3-1 .3-1.9 0-.8-.1-1.5-.3-1.9-.2-.4-.5-.6-.9-.6s-.7.2-.9.6c-.2.5-.3 1.1-.3 1.9z" class="st1"/>
  <path d="M179.5 168v4.5h-1.2v-10.7h2.9c1.3 0 2.3.3 2.9.8.6.5.9 1.3.9 2.3 0 1.4-.7 2.4-2.2 2.9l2.9 4.8h-1.5l-2.6-4.5h-2.1zm0-1.1h1.7c.9 0 1.5-.2 1.9-.5.4-.3.6-.9.6-1.6 0-.7-.2-1.2-.6-1.5-.4-.3-1.1-.5-2-.5h-1.6v4.1z" class="st1"/>
  <path d="M187.6 172.4v-10.7h1.2v10.7h-1.2z" class="st1"/>
  <path d="M196.4 166.8h3.6v5.2c-.6.2-1.1.3-1.7.4-.6.1-1.3.1-2 .1-1.6 0-2.9-.5-3.8-1.4-.9-1-1.4-2.3-1.4-4.1 0-1.1.2-2.1.7-2.9.4-.8 1.1-1.5 1.9-1.9.8-.4 1.8-.7 3-.7 1.1 0 2.2.2 3.2.6l-.5 1.1c-1-.4-1.9-.6-2.8-.6-1.3 0-2.3.4-3.1 1.2s-1.1 1.9-1.1 3.2c0 1.4.4 2.5 1.1 3.3.7.7 1.7 1.1 3.1 1.1.7 0 1.5-.1 2.2-.3v-3.3h-2.4v-1z" class="st1"/>
  <path d="M210.8 172.4h-1.2v-5H204v5h-1.2v-10.7h1.2v4.6h5.6v-4.6h1.2v10.7z" class="st1"/>
  <path d="M217 172.4h-1.2v-9.6h-3.4v-1.1h8v1.1H217v9.6z" class="st1"/>
  <path d="M175 110.4c0 .7-.2 1.2-.6 1.7-.4.4-.9.7-1.6.9v.1c.9.1 1.5.4 1.9.8s.6 1 .6 1.7c0 1-.4 1.8-1.1 2.4-.7.5-1.7.8-3 .8-.6 0-1.1 0-1.6-.1s-.9-.2-1.4-.5V117c.5.2 1 .4 1.5.5.5.1 1 .2 1.5.2 1.9 0 2.8-.7 2.8-2.2 0-1.3-1-1.9-3.1-1.9h-.9v-1h1.1c.8 0 1.5-.2 2-.6.5-.4.7-.9.7-1.5 0-.5-.2-.9-.5-1.2-.4-.3-.8-.4-1.5-.4-.5 0-.9.1-1.3.2s-.9.4-1.4.7l-.6-.8c.4-.3.9-.6 1.5-.8.6-.2 1.2-.3 1.8-.3 1 0 1.8.2 2.4.7.6.3.8 1 .8 1.8z" class="st6"/>
  <path d="M183.6 110.4c0 .7-.2 1.2-.6 1.7-.4.4-.9.7-1.6.9v.1c.9.1 1.5.4 1.9.8s.6 1 .6 1.7c0 1-.4 1.8-1.1 2.4-.7.5-1.7.8-3 .8-.6 0-1.1 0-1.6-.1s-.9-.2-1.4-.5V117c.5.2 1 .4 1.5.5.5.1 1 .2 1.5.2 1.9 0 2.8-.7 2.8-2.2 0-1.3-1-1.9-3.1-1.9h-1.1v-1h1.1c.8 0 1.5-.2 2-.6.5-.4.7-.9.7-1.5 0-.5-.2-.9-.5-1.2-.4-.3-.8-.4-1.5-.4-.5 0-.9.1-1.3.2s-.9.4-1.4.7l-.6-.8c.4-.3.9-.6 1.5-.8.6-.2 1.2-.3 1.8-.3 1 0 1.8.2 2.4.7.7.3 1 1 1 1.8z" class="st6"/>
  <path d="M190 111.1c0 1.1-.2 2-.6 2.5-.4.6-.9.9-1.6.9-.7 0-1.2-.3-1.6-.9-.4-.6-.6-1.4-.6-2.5s.2-1.9.5-2.5c.4-.6.9-.8 1.6-.8.7 0 1.3.3 1.6.9s.7 1.3.7 2.4zm-3.4 0c0 .8.1 1.5.3 1.9s.5.6.9.6c.8 0 1.2-.8 1.2-2.5s-.4-2.5-1.2-2.5c-.4 0-.7.2-.9.6s-.3 1.1-.3 1.9zm7.9-3.2l-5.9 10.7h-1.1l5.9-10.7h1.1zm1.9 7.5c0 1.1-.2 1.9-.6 2.5-.4.6-.9.9-1.6.9-.7 0-1.2-.3-1.6-.9-.4-.6-.6-1.4-.6-2.5s.2-1.9.5-2.5c.4-.6.9-.8 1.6-.8.7 0 1.2.3 1.6.9.5.5.7 1.3.7 2.4zm-3.4 0c0 .8.1 1.5.3 1.9.2.4.5.6.9.6s.7-.2.9-.6c.2-.4.3-1 .3-1.9 0-.8-.1-1.5-.3-1.9-.2-.4-.5-.6-.9-.6s-.7.2-.9.6c-.2.4-.3 1-.3 1.9z" class="st6"/>
  <path d="M163.5 120.9h3c1.4 0 2.4.2 3.1.6.6.4 1 1.1 1 2 0 .6-.2 1.2-.5 1.6-.4.4-.9.7-1.5.8v.1c1.6.3 2.4 1.1 2.4 2.6 0 1-.3 1.7-1 2.2-.6.5-1.6.8-2.7.8h-3.7v-10.7zm1.3 4.6h2.1c.9 0 1.5-.1 1.9-.4.4-.3.6-.7.6-1.4 0-.6-.2-1-.6-1.3-.4-.3-1.1-.4-2.1-.4h-1.8v3.5zm0 1v4h2.2c.9 0 1.5-.2 2-.5.4-.3.7-.9.7-1.6 0-.7-.2-1.2-.7-1.5-.4-.3-1.1-.5-2-.5h-2.2z" class="st6"/>
  <path d="M182.5 126.2c0 1.7-.4 3.1-1.3 4-.9 1-2.1 1.5-3.6 1.5-1.6 0-2.8-.5-3.7-1.4-.9-1-1.3-2.3-1.3-4.1 0-1.7.4-3.1 1.3-4.1.9-1 2.1-1.4 3.7-1.4 1.5 0 2.7.5 3.6 1.5.9 1 1.3 2.3 1.3 4zm-8.5 0c0 1.5.3 2.6.9 3.3.6.8 1.5 1.1 2.7 1.1 1.2 0 2.1-.4 2.7-1.1s.9-1.8.9-3.3c0-1.4-.3-2.5-.9-3.3-.6-.7-1.5-1.1-2.7-1.1-1.2 0-2.1.4-2.7 1.1-.6.8-.9 1.9-.9 3.3z" class="st6"/>
  <path d="M188.2 131.6H187V122h-3.4v-1.1h8v1.1h-3.4v9.6z" class="st6"/>
  <path d="M201.3 131.6h-1.2v-5h-5.6v5h-1.2v-10.7h1.2v4.6h5.6v-4.6h1.2v10.7z" class="st6"/>
  <path d="M190.8 158.5h-7v-1l2.8-2.8c.9-.9 1.4-1.5 1.7-1.9.3-.4.5-.7.6-1.1.1-.4.2-.7.2-1.1 0-.6-.2-1-.5-1.4-.3-.3-.8-.5-1.4-.5-.4 0-.9.1-1.3.2s-.8.4-1.3.8l-.6-.8c1-.8 2.1-1.2 3.2-1.2 1 0 1.8.3 2.4.8.6.5.9 1.2.9 2.1 0 .7-.2 1.4-.6 2s-1.1 1.5-2.1 2.5l-2.3 2.3v.1h5.5v1z" class="st8"/>
  <path d="M199.9 156.1h-1.6v2.5h-1.2v-2.5h-5.2V155l5.1-7.2h1.3v7.2h1.6v1.1zm-2.8-1.1v-3.6c0-.7 0-1.5.1-2.4h-.1c-.2.5-.5.9-.7 1.2l-3.3 4.8h4z" class="st8"/>
  <path d="M205.3 151c0 1.1-.2 2-.6 2.5-.4.6-.9.9-1.6.9-.7 0-1.2-.3-1.6-.9-.4-.6-.6-1.4-.6-2.5s.2-1.9.5-2.5c.4-.6.9-.8 1.6-.8.7 0 1.3.3 1.6.9s.7 1.4.7 2.4zm-3.3 0c0 .8.1 1.5.3 1.9s.5.6.9.6c.8 0 1.2-.8 1.2-2.5s-.4-2.5-1.2-2.5c-.4 0-.7.2-.9.6s-.3 1.1-.3 1.9zm7.9-3.2l-5.9 10.7h-1.1l5.9-10.7h1.1zm1.9 7.5c0 1.1-.2 1.9-.6 2.5-.4.6-.9.9-1.6.9-.7 0-1.2-.3-1.6-.9-.4-.6-.6-1.4-.6-2.5s.2-1.9.5-2.5c.4-.6.9-.8 1.6-.8.7 0 1.2.3 1.6.9.5.5.7 1.3.7 2.4zm-3.4 0c0 .8.1 1.5.3 1.9.2.4.5.6.9.6s.7-.2.9-.6c.2-.4.3-1 .3-1.9 0-.8-.1-1.5-.3-1.9-.2-.4-.5-.6-.9-.6s-.7.2-.9.6c-.2.5-.3 1.1-.3 1.9z" class="st8"/>
  <path d="M178.6 167.1v4.5h-1.2v-10.7h2.9c1.3 0 2.3.3 2.9.8.6.5.9 1.3.9 2.3 0 1.4-.7 2.4-2.2 2.9l2.9 4.8h-1.5l-2.6-4.5h-2.1zm0-1.1h1.7c.9 0 1.5-.2 1.9-.5.4-.3.6-.9.6-1.6 0-.7-.2-1.2-.6-1.5-.4-.3-1.1-.5-2-.5h-1.6v4.1z" class="st8"/>
  <path d="M186.7 171.5v-10.7h1.2v10.7h-1.2z" class="st8"/>
  <path d="M195.6 165.9h3.6v5.2c-.6.2-1.1.3-1.7.4-.6.1-1.3.1-2 .1-1.6 0-2.9-.5-3.8-1.4-.9-1-1.4-2.3-1.4-4.1 0-1.1.2-2.1.7-2.9.4-.8 1.1-1.5 1.9-1.9.8-.4 1.8-.7 3-.7 1.1 0 2.2.2 3.2.6l-.5 1.1c-1-.4-1.9-.6-2.8-.6-1.3 0-2.3.4-3.1 1.2s-1.1 1.9-1.1 3.2c0 1.4.4 2.5 1.1 3.3.7.7 1.7 1.1 3.1 1.1.7 0 1.5-.1 2.2-.3V167h-2.4v-1.1z" class="st8"/>
  <path d="M209.9 171.5h-1.2v-5H203v5h-1.2v-10.7h1.2v4.6h5.6v-4.6h1.2v10.7z" class="st8"/>
  <path d="M216.1 171.5h-1.2v-9.6h-3.4v-1.1h8v1.1h-3.4v9.6z" class="st8"/>
  <path d="M60.8 159.3h-7v-1l2.8-2.8c.9-.9 1.4-1.5 1.7-1.9.3-.4.5-.7.6-1.1.1-.4.2-.7.2-1.1 0-.6-.2-1-.5-1.4-.3-.3-.8-.5-1.4-.5-.4 0-.9.1-1.3.2s-.8.4-1.3.8l-.6-.8c1-.8 2.1-1.2 3.2-1.2 1 0 1.8.3 2.4.8.6.5.9 1.2.9 2.1 0 .7-.2 1.4-.6 2s-1.1 1.5-2.1 2.5l-2.3 2.3v.1H61v1z" class="st6"/>
  <path d="M69.3 153.2c0 4.2-1.6 6.3-4.9 6.3-.6 0-1 0-1.3-.1v-1c.4.1.8.2 1.3.2 1.2 0 2.1-.4 2.7-1.1.6-.7.9-1.8 1-3.3H68c-.3.4-.6.7-1.1.9-.4.2-.9.3-1.5.3-.9 0-1.7-.3-2.3-.8s-.8-1.4-.8-2.4c0-1.1.3-2 .9-2.6.6-.6 1.4-1 2.5-1 .7 0 1.4.2 1.9.6.5.4 1 .9 1.3 1.6.3.5.4 1.4.4 2.4zm-3.6-3.7c-.7 0-1.2.2-1.6.7-.4.5-.6 1.1-.6 1.9 0 .7.2 1.3.5 1.7.4.4.9.6 1.6.6.4 0 .9-.1 1.2-.3.4-.2.7-.4.9-.7.2-.3.3-.6.3-1 0-.5-.1-1-.3-1.4s-.5-.8-.8-1c-.3-.4-.7-.5-1.2-.5z" class="st6"/>
  <path d="M75.3 151.8c0 1.1-.2 2-.6 2.5-.4.6-.9.9-1.6.9-.7 0-1.2-.3-1.6-.9-.4-.6-.6-1.4-.6-2.5s.2-1.9.5-2.5c.4-.6.9-.8 1.6-.8.7 0 1.3.3 1.6.9s.7 1.3.7 2.4zm-3.4 0c0 .8.1 1.5.3 1.9s.5.6.9.6c.8 0 1.2-.8 1.2-2.5s-.4-2.5-1.2-2.5c-.4 0-.7.2-.9.6s-.3 1.1-.3 1.9zm7.9-3.2l-5.9 10.7h-1.1l5.9-10.7h1.1zm1.9 7.5c0 1.1-.2 1.9-.6 2.5-.4.6-.9.9-1.6.9-.7 0-1.2-.3-1.6-.9-.4-.6-.6-1.4-.6-2.5s.2-1.9.5-2.5c.4-.6.9-.8 1.6-.8.7 0 1.2.3 1.6.9.5.5.7 1.3.7 2.4zm-3.3 0c0 .8.1 1.5.3 1.9.2.4.5.6.9.6s.7-.2.9-.6c.2-.4.3-1 .3-1.9 0-.8-.1-1.5-.3-1.9-.2-.4-.5-.6-.9-.6s-.7.2-.9.6c-.2.4-.3 1-.3 1.9z" class="st6"/>
  <path d="M48.6 167.8v4.5h-1.2v-10.7h2.9c1.3 0 2.3.3 2.9.8.6.5.9 1.3.9 2.3 0 1.4-.7 2.4-2.2 2.9l2.9 4.8h-1.5l-2.6-4.5h-2.1zm0-1h1.7c.9 0 1.5-.2 1.9-.5.4-.3.6-.9.6-1.6 0-.7-.2-1.2-.6-1.5-.4-.3-1.1-.5-2-.5h-1.6v4.1z" class="st6"/>
  <path d="M56.6 172.3v-10.7h1.2v10.7h-1.2z" class="st6"/>
  <path d="M65.5 166.7h3.6v5.2c-.6.2-1.1.3-1.7.4-.6.1-1.3.1-2 .1-1.6 0-2.9-.5-3.8-1.4-.9-1-1.4-2.3-1.4-4.1 0-1.1.2-2.1.7-2.9.4-.8 1.1-1.5 1.9-1.9.8-.4 1.8-.7 3-.7 1.1 0 2.2.2 3.2.6l-.5 1.1c-1-.4-1.9-.6-2.8-.6-1.3 0-2.3.4-3.1 1.2s-1.1 1.9-1.1 3.2c0 1.4.4 2.5 1.1 3.3.7.7 1.7 1.1 3.1 1.1.7 0 1.5-.1 2.2-.3v-3.3h-2.4v-1z" class="st6"/>
  <path d="M79.8 172.3h-1.2v-5H73v5h-1.2v-10.7H73v4.6h5.6v-4.6h1.2v10.7z" class="st6"/>
  <path d="M86.1 172.3h-1.2v-9.6h-3.4v-1.1h8v1.1h-3.4v9.6z" class="st6"/>
  <path d="M174.2 109.5c0 .7-.2 1.2-.6 1.7-.4.4-.9.7-1.6.9v.1c.9.1 1.5.4 1.9.8s.6 1 .6 1.7c0 1-.4 1.8-1.1 2.4-.7.5-1.7.8-3 .8-.6 0-1.1 0-1.6-.1s-.9-.2-1.4-.5v-1.2c.5.2 1 .4 1.5.5.5.1 1 .2 1.5.2 1.9 0 2.8-.7 2.8-2.2 0-1.3-1-1.9-3.1-1.9H169v-1h1.1c.8 0 1.5-.2 2-.6.5-.4.7-.9.7-1.5 0-.5-.2-.9-.5-1.2-.4-.3-.8-.4-1.5-.4-.5 0-.9.1-1.3.2s-.9.4-1.4.7l-.6-.8c.4-.3.9-.6 1.5-.8.6-.2 1.2-.3 1.8-.3 1 0 1.8.2 2.4.7.7.3 1 1 1 1.8z" class="st8"/>
  <path d="M182.7 109.5c0 .7-.2 1.2-.6 1.7-.4.4-.9.7-1.6.9v.1c.9.1 1.5.4 1.9.8s.6 1 .6 1.7c0 1-.4 1.8-1.1 2.4-.7.5-1.7.8-3 .8-.6 0-1.1 0-1.6-.1s-.9-.2-1.4-.5v-1.2c.5.2 1 .4 1.5.5.5.1 1 .2 1.5.2 1.9 0 2.8-.7 2.8-2.2 0-1.3-1-1.9-3.1-1.9h-1.1v-1h1.1c.8 0 1.5-.2 2-.6.5-.4.7-.9.7-1.5 0-.5-.2-.9-.5-1.2-.4-.3-.8-.4-1.5-.4-.5 0-.9.1-1.3.2s-.9.4-1.4.7l-.6-.8c.4-.3.9-.6 1.5-.8.6-.2 1.2-.3 1.8-.3 1 0 1.8.2 2.4.7.7.3 1 1 1 1.8z" class="st8"/>
  <path d="M189.1 110.2c0 1.1-.2 2-.6 2.5-.4.6-.9.9-1.6.9-.7 0-1.2-.3-1.6-.9-.4-.6-.6-1.4-.6-2.5s.2-1.9.5-2.5c.4-.6.9-.8 1.6-.8.7 0 1.3.3 1.6.9s.7 1.3.7 2.4zm-3.4 0c0 .8.1 1.5.3 1.9s.5.6.9.6c.8 0 1.2-.8 1.2-2.5s-.4-2.5-1.2-2.5c-.4 0-.7.2-.9.6s-.3 1.1-.3 1.9zm7.9-3.2l-5.9 10.7h-1.1l5.9-10.7h1.1zm1.9 7.5c0 1.1-.2 1.9-.6 2.5-.4.6-.9.9-1.6.9-.7 0-1.2-.3-1.6-.9-.4-.6-.6-1.4-.6-2.5s.2-1.9.5-2.5c.4-.6.9-.8 1.6-.8.7 0 1.2.3 1.6.9.5.5.7 1.3.7 2.4zm-3.3 0c0 .8.1 1.5.3 1.9.2.4.5.6.9.6s.7-.2.9-.6c.2-.4.3-1 .3-1.9 0-.8-.1-1.5-.3-1.9-.2-.4-.5-.6-.9-.6s-.7.2-.9.6c-.3.4-.3 1.1-.3 1.9z" class="st8"/>
  <path d="M162.6 120h3c1.4 0 2.4.2 3.1.6.6.4 1 1.1 1 2 0 .6-.2 1.2-.5 1.6-.4.4-.9.7-1.5.8v.1c1.6.3 2.4 1.1 2.4 2.6 0 1-.3 1.7-1 2.2-.6.5-1.6.8-2.7.8h-3.7V120zm1.3 4.6h2.1c.9 0 1.5-.1 1.9-.4.4-.3.6-.7.6-1.4 0-.6-.2-1-.6-1.3-.4-.3-1.1-.4-2.1-.4H164v3.5zm0 1v4h2.2c.9 0 1.5-.2 2-.5.4-.3.7-.9.7-1.6 0-.7-.2-1.2-.7-1.5-.4-.3-1.1-.5-2-.5h-2.2z" class="st8"/>
  <path d="M181.6 125.3c0 1.7-.4 3.1-1.3 4-.9 1-2.1 1.5-3.6 1.5-1.6 0-2.8-.5-3.7-1.4-.9-1-1.3-2.3-1.3-4.1 0-1.7.4-3.1 1.3-4.1.9-1 2.1-1.4 3.7-1.4 1.5 0 2.7.5 3.6 1.5.9 1 1.3 2.3 1.3 4zm-8.5 0c0 1.5.3 2.6.9 3.3.6.8 1.5 1.1 2.7 1.1 1.2 0 2.1-.4 2.7-1.1s.9-1.8.9-3.3c0-1.4-.3-2.5-.9-3.3-.6-.7-1.5-1.1-2.7-1.1-1.2 0-2.1.4-2.7 1.1-.6.8-.9 1.9-.9 3.3z" class="st8"/>
  <path d="M187.3 130.7h-1.2v-9.6h-3.4V120h8v1.1h-3.4v9.6z" class="st8"/>
  <path d="M200.5 130.7h-1.2v-5h-5.6v5h-1.2V120h1.2v4.6h5.6V120h1.2v10.7z" class="st8"/>
  <path d="M91.6 113.2c0 .7-.2 1.2-.6 1.7-.4.4-.9.7-1.6.9v.1c.9.1 1.5.4 1.9.8s.6 1 .6 1.7c0 1-.4 1.8-1.1 2.4-.7.5-1.7.8-3 .8-.6 0-1.1 0-1.6-.1s-.9-.2-1.4-.5v-1.2c.5.2 1 .4 1.5.5.5.1 1 .2 1.5.2 1.9 0 2.8-.7 2.8-2.2 0-1.3-1-1.9-3.1-1.9h-1.1v-1h1.1c.8 0 1.5-.2 2-.6.5-.4.7-.9.7-1.5 0-.5-.2-.9-.5-1.2-.4-.3-.8-.4-1.5-.4-.5 0-.9.1-1.3.2s-.9.4-1.4.7l-.6-.8c.4-.3.9-.6 1.5-.8.6-.2 1.2-.3 1.8-.3 1 0 1.8.2 2.4.7.7.3 1 .9 1 1.8z" class="st8"/>
  <path d="M94.9 121.4l4.4-9.6h-5.8v-1.1h7.1v1l-4.4 9.7h-1.3z" class="st8"/>
  <path d="M106.5 113.8c0 1.1-.2 2-.6 2.5-.4.6-.9.9-1.6.9-.7 0-1.2-.3-1.6-.9-.4-.6-.6-1.4-.6-2.5s.2-1.9.5-2.5c.4-.6.9-.8 1.6-.8.7 0 1.3.3 1.6.9s.7 1.4.7 2.4zm-3.3 0c0 .8.1 1.5.3 1.9s.5.6.9.6c.8 0 1.2-.8 1.2-2.5s-.4-2.5-1.2-2.5c-.4 0-.7.2-.9.6s-.3 1.1-.3 1.9zm7.9-3.1l-5.9 10.7h-1.1l5.9-10.7h1.1zm1.9 7.4c0 1.1-.2 1.9-.6 2.5-.4.6-.9.9-1.6.9-.7 0-1.2-.3-1.6-.9-.4-.6-.6-1.4-.6-2.5s.2-1.9.5-2.5c.4-.6.9-.8 1.6-.8.7 0 1.2.3 1.6.9.5.5.7 1.4.7 2.4zm-3.4 0c0 .8.1 1.5.3 1.9.2.4.5.6.9.6s.7-.2.9-.6c.2-.4.3-1 .3-1.9 0-.8-.1-1.5-.3-1.9-.2-.4-.5-.6-.9-.6s-.7.2-.9.6c-.2.5-.3 1.1-.3 1.9z" class="st8"/>
  <path d="M84.4 134.4v-10.7h1.2v9.6h4.7v1.1h-5.9z" class="st8"/>
  <path d="M98.1 134.4h-6v-10.7h6v1.1h-4.7v3.4h4.4v1.1h-4.4v3.9h4.7v1.2z" class="st8"/>
  <path d="M101.7 134.4h-1.2v-10.7h6v1.1h-4.7v3.9h4.4v1.1h-4.4v4.6z" class="st8"/>
  <path d="M111.5 134.4h-1.2v-9.6h-3.4v-1.1h8v1.1h-3.4v9.6z" class="st8"/>
  <path d="M59.9 158.4h-7v-1l2.8-2.8c.9-.9 1.4-1.5 1.7-1.9.3-.4.5-.7.6-1.1.1-.4.2-.7.2-1.1 0-.6-.2-1-.5-1.4-.3-.3-.8-.5-1.4-.5-.4 0-.9.1-1.3.2s-.8.4-1.3.8l-.6-.8c1-.8 2.1-1.2 3.2-1.2 1 0 1.8.3 2.4.8.6.5.9 1.2.9 2.1 0 .7-.2 1.4-.6 2s-1.1 1.5-2.1 2.5l-2.3 2.3v.1h5.5v1z" class="st8"/>
  <path d="M68.5 152.3c0 4.2-1.6 6.3-4.9 6.3-.6 0-1 0-1.3-.1v-1c.4.1.8.2 1.3.2 1.2 0 2.1-.4 2.7-1.1.6-.7.9-1.8 1-3.3h-.1c-.3.4-.6.7-1.1.9-.4.2-.9.3-1.5.3-.9 0-1.7-.3-2.3-.8s-.8-1.4-.8-2.4c0-1.1.3-2 .9-2.6.6-.6 1.4-1 2.5-1 .7 0 1.4.2 1.9.6.5.4 1 .9 1.3 1.6.2.6.4 1.4.4 2.4zm-3.7-3.7c-.7 0-1.2.2-1.6.7-.4.5-.6 1.1-.6 1.9 0 .7.2 1.3.5 1.7.4.4.9.6 1.6.6.4 0 .9-.1 1.2-.3.4-.2.7-.4.9-.7.2-.3.3-.6.3-1 0-.5-.1-1-.3-1.4s-.5-.8-.8-1c-.3-.4-.7-.5-1.2-.5z" class="st8"/>
  <path d="M74.4 150.9c0 1.1-.2 2-.6 2.5-.4.6-.9.9-1.6.9-.7 0-1.2-.3-1.6-.9-.4-.6-.6-1.4-.6-2.5s.2-1.9.5-2.5c.4-.6.9-.8 1.6-.8.7 0 1.3.3 1.6.9s.7 1.3.7 2.4zm-3.4 0c0 .8.1 1.5.3 1.9s.5.6.9.6c.8 0 1.2-.8 1.2-2.5s-.4-2.5-1.2-2.5c-.4 0-.7.2-.9.6s-.3 1.1-.3 1.9zm7.9-3.2L73 158.4h-1.1l5.9-10.7h1.1zm1.9 7.5c0 1.1-.2 1.9-.6 2.5-.4.6-.9.9-1.6.9-.7 0-1.2-.3-1.6-.9-.4-.6-.6-1.4-.6-2.5s.2-1.9.5-2.5c.4-.6.9-.8 1.6-.8.7 0 1.2.3 1.6.9.5.5.7 1.3.7 2.4zm-3.3 0c0 .8.1 1.5.3 1.9.2.4.5.6.9.6s.7-.2.9-.6c.2-.4.3-1 .3-1.9 0-.8-.1-1.5-.3-1.9-.2-.4-.5-.6-.9-.6s-.7.2-.9.6c-.2.4-.3 1.1-.3 1.9z" class="st8"/>
  <path d="M47.7 167v4.5h-1.2v-10.7h2.9c1.3 0 2.3.3 2.9.8.6.5.9 1.3.9 2.3 0 1.4-.7 2.4-2.2 2.9l2.9 4.8h-1.5l-2.6-4.5h-2.1zm0-1.1h1.7c.9 0 1.5-.2 1.9-.5.4-.3.6-.9.6-1.6 0-.7-.2-1.2-.6-1.5-.4-.3-1.1-.5-2-.5h-1.6v4.1z" class="st8"/>
  <path d="M55.7 171.4v-10.7H57v10.7h-1.3z" class="st8"/>
  <path d="M64.6 165.8h3.6v5.2c-.6.2-1.1.3-1.7.4-.6.1-1.3.1-2 .1-1.6 0-2.9-.5-3.8-1.4-.9-1-1.4-2.3-1.4-4.1 0-1.1.2-2.1.7-2.9.4-.8 1.1-1.5 1.9-1.9.8-.4 1.8-.7 3-.7 1.1 0 2.2.2 3.2.6l-.5 1.1c-1-.4-1.9-.6-2.8-.6-1.3 0-2.3.4-3.1 1.2s-1.1 1.9-1.1 3.2c0 1.4.4 2.5 1.1 3.3.7.7 1.7 1.1 3.1 1.1.7 0 1.5-.1 2.2-.3v-3.3h-2.4v-1z" class="st8"/>
  <path d="M79 171.4h-1.2v-5h-5.6v5H71v-10.7h1.2v4.6h5.6v-4.6H79v10.7z" class="st8"/>
  <path d="M85.2 171.4H84v-9.6h-3.4v-1.1h8v1.1h-3.4v9.6z" class="st8"/>
  <path d="M34.3 112.6c0 .7-.2 1.2-.6 1.7-.4.4-.9.7-1.6.9v.1c.9.1 1.5.4 1.9.8s.6 1 .6 1.7c0 1-.4 1.8-1.1 2.4-.7.5-1.7.8-3 .8-.6 0-1.1 0-1.6-.1s-.9-.2-1.4-.5v-1.2c.5.2 1 .4 1.5.5.5.1 1 .2 1.5.2 1.9 0 2.8-.7 2.8-2.2 0-1.3-1-1.9-3.1-1.9h-1.1v-1h1.1c.8 0 1.5-.2 2-.6.5-.4.7-.9.7-1.5 0-.5-.2-.9-.5-1.2-.4-.3-.8-.4-1.5-.4-.5 0-.9.1-1.3.2s-.9.4-1.4.7l-.6-.8c.4-.3.9-.6 1.5-.8.6-.2 1.2-.3 1.8-.3 1 0 1.8.2 2.4.7.7.3 1 .9 1 1.8z" class="st1"/>
  <path d="M43.8 118.3h-1.6v2.5H41v-2.5h-5.2v-1.1l5.1-7.2h1.3v7.2h1.6v1.1zm-2.8-1.1v-3.6c0-.7 0-1.5.1-2.4H41c-.2.5-.5.9-.7 1.2l-3.3 4.8h4z" class="st1"/>
  <path d="M49.2 113.2c0 1.1-.2 2-.6 2.5-.4.6-.9.9-1.6.9-.7 0-1.2-.3-1.6-.9-.4-.6-.6-1.4-.6-2.5s.2-1.9.5-2.5c.4-.6.9-.8 1.6-.8.7 0 1.3.3 1.6.9s.7 1.4.7 2.4zm-3.4 0c0 .8.1 1.5.3 1.9s.5.6.9.6c.8 0 1.2-.8 1.2-2.5s-.4-2.5-1.2-2.5c-.4 0-.7.2-.9.6s-.3 1.1-.3 1.9zm7.9-3.2l-5.9 10.7h-1.1l5.9-10.7h1.1zm1.9 7.5c0 1.1-.2 1.9-.6 2.5-.4.6-.9.9-1.6.9-.7 0-1.2-.3-1.6-.9-.4-.6-.6-1.4-.6-2.5s.2-1.9.5-2.5c.4-.6.9-.8 1.6-.8.7 0 1.2.3 1.6.9.5.5.7 1.3.7 2.4zm-3.3 0c0 .8.1 1.5.3 1.9.2.4.5.6.9.6s.7-.2.9-.6c.2-.4.3-1 .3-1.9 0-.8-.1-1.5-.3-1.9-.2-.4-.5-.6-.9-.6s-.7.2-.9.6c-.2.5-.3 1.1-.3 1.9z" class="st1"/>
  <path d="M22.7 123h3c1.4 0 2.4.2 3.1.6.6.4 1 1.1 1 2 0 .6-.2 1.2-.5 1.6-.4.4-.9.7-1.5.8v.1c1.6.3 2.4 1.1 2.4 2.6 0 1-.3 1.7-1 2.2-.6.5-1.6.8-2.7.8h-3.7V123zm1.3 4.6h2c.9 0 1.5-.1 1.9-.4.4-.3.6-.7.6-1.4 0-.6-.2-1-.6-1.3-.4-.3-1.1-.4-2.1-.4H24v3.5zm0 1.1v4h2.2c.9 0 1.5-.2 2-.5.4-.3.7-.9.7-1.6 0-.7-.2-1.2-.7-1.5-.4-.3-1.1-.5-2-.5H24z" class="st1"/>
  <path d="M41.8 128.4c0 1.7-.4 3.1-1.3 4-.9 1-2.1 1.5-3.6 1.5-1.6 0-2.8-.5-3.7-1.4-.9-1-1.3-2.3-1.3-4.1 0-1.7.4-3.1 1.3-4.1.9-1 2.1-1.4 3.7-1.4 1.5 0 2.7.5 3.6 1.5.8.9 1.3 2.3 1.3 4zm-8.6 0c0 1.5.3 2.6.9 3.3.6.8 1.5 1.1 2.7 1.1 1.2 0 2.1-.4 2.7-1.1s.9-1.8.9-3.3c0-1.4-.3-2.5-.9-3.3-.6-.7-1.5-1.1-2.7-1.1-1.2 0-2.1.4-2.7 1.1-.6.8-.9 1.8-.9 3.3z" class="st1"/>
  <path d="M47.4 133.7h-1.2v-9.6h-3.4V123h8v1.1h-3.4v9.6z" class="st1"/>
  <path d="M60.6 133.7h-1.2v-5h-5.6v5h-1.2V123h1.2v4.6h5.6V123h1.2v10.7z" class="st1"/>
  <path d="M33.4 111.7c0 .7-.2 1.2-.6 1.7-.4.4-.9.7-1.6.9v.1c.9.1 1.5.4 1.9.8s.6 1 .6 1.7c0 1-.4 1.8-1.1 2.4-.7.5-1.7.8-3 .8-.6 0-1.1 0-1.6-.1s-.9-.2-1.4-.5v-1.2c.5.2 1 .4 1.5.5.5.1 1 .2 1.5.2 1.9 0 2.8-.7 2.8-2.2 0-1.3-1-1.9-3.1-1.9h-1.1v-1h1.1c.8 0 1.5-.2 2-.6.5-.4.7-.9.7-1.5 0-.5-.2-.9-.5-1.2-.4-.3-.8-.4-1.5-.4-.5 0-.9.1-1.3.2s-.9.4-1.4.7l-.6-.8c.4-.3.9-.6 1.5-.8.6-.2 1.2-.3 1.8-.3 1 0 1.8.2 2.4.7.7.3 1 .9 1 1.8z" class="st8"/>
  <path d="M42.9 117.4h-1.6v2.5h-1.2v-2.5h-5.2v-1.1l5.1-7.2h1.3v7.2h1.6v1.1zm-2.8-1.1v-3.6c0-.7 0-1.5.1-2.4h-.1c-.2.5-.5.9-.7 1.2l-3.3 4.8h4z" class="st8"/>
  <path d="M48.3 112.3c0 1.1-.2 2-.6 2.5-.4.6-.9.9-1.6.9-.7 0-1.2-.3-1.6-.9-.4-.6-.6-1.4-.6-2.5s.2-1.9.5-2.5c.4-.6.9-.8 1.6-.8.7 0 1.3.3 1.6.9s.7 1.4.7 2.4zm-3.4 0c0 .8.1 1.5.3 1.9s.5.6.9.6c.8 0 1.2-.8 1.2-2.5s-.4-2.5-1.2-2.5c-.4 0-.7.2-.9.6s-.3 1.1-.3 1.9zm8-3.2L47 119.8h-1.1l5.9-10.7h1.1zm1.8 7.5c0 1.1-.2 1.9-.6 2.5-.4.6-.9.9-1.6.9-.7 0-1.2-.3-1.6-.9-.4-.6-.6-1.4-.6-2.5s.2-1.9.5-2.5c.4-.6.9-.8 1.6-.8.7 0 1.2.3 1.6.9.6.5.7 1.3.7 2.4zm-3.3 0c0 .8.1 1.5.3 1.9.2.4.5.6.9.6s.7-.2.9-.6c.2-.4.3-1 .3-1.9 0-.8-.1-1.5-.3-1.9-.2-.4-.5-.6-.9-.6s-.7.2-.9.6c-.2.5-.3 1.1-.3 1.9z" class="st8"/>
  <path d="M21.9 122.1h3c1.4 0 2.4.2 3.1.6.6.4 1 1.1 1 2 0 .6-.2 1.2-.5 1.6-.4.4-.9.7-1.5.8v.1c1.6.3 2.4 1.1 2.4 2.6 0 1-.3 1.7-1 2.2-.6.5-1.6.8-2.7.8H22v-10.7zm1.2 4.6h2.1c.9 0 1.5-.1 1.9-.4.4-.3.6-.7.6-1.4 0-.6-.2-1-.6-1.3-.4-.3-1.1-.4-2.1-.4h-1.8v3.5zm0 1.1v4h2.2c.9 0 1.5-.2 2-.5.4-.3.7-.9.7-1.6 0-.7-.2-1.2-.7-1.5-.4-.3-1.1-.5-2-.5h-2.2z" class="st8"/>
  <path d="M40.9 127.5c0 1.7-.4 3.1-1.3 4-.9 1-2.1 1.5-3.6 1.5-1.6 0-2.8-.5-3.7-1.4-.9-1-1.3-2.3-1.3-4.1 0-1.7.4-3.1 1.3-4.1.9-1 2.1-1.4 3.7-1.4 1.5 0 2.7.5 3.6 1.5.8.9 1.3 2.3 1.3 4zm-8.6 0c0 1.5.3 2.6.9 3.3.6.8 1.5 1.1 2.7 1.1 1.2 0 2.1-.4 2.7-1.1s.9-1.8.9-3.3c0-1.4-.3-2.5-.9-3.3-.6-.7-1.5-1.1-2.7-1.1-1.2 0-2.1.4-2.7 1.1-.6.8-.9 1.9-.9 3.3z" class="st8"/>
  <path d="M46.6 132.9h-1.2v-9.6H42v-1.1h8v1.1h-3.4v9.6z" class="st8"/>
  <path d="M59.7 132.9h-1.2v-5h-5.6v5h-1.2v-10.7h1.2v4.6h5.6v-4.6h1.2v10.7z" class="st8"/>
</svg>
