<?xml version="1.0" encoding="utf-8"?>
<!-- Generator: Adobe Illustrator 19.1.0, SVG Export Plug-In . SVG Version: 6.00 Build 0)  -->
<svg version="1.1" id="charts" xmlns="http://www.w3.org/2000/svg" xmlns:xlink="http://www.w3.org/1999/xlink" x="0px" y="0px"
	 width="265.6px" height="96.5px" viewBox="-600.8 433.8 265.6 96.5" enable-background="new -600.8 433.8 265.6 96.5"
	 xml:space="preserve">
<path fill="#1A2C3E" d="M-494.8,512.9v2.8l-6.7-1.3L-494.8,512.9z"/>
<path fill="#1A2C3E" d="M-585.7,507.3v2.8l4.8-0.7L-585.7,507.3z"/>
<path fill="#1A2C3E" d="M-536.4,487.9l41.5,27.9c0,0-16.1,14.5-42.1,13.1c-26-1.3-42.1-10.7-48.8-18.8L-536.4,487.9z"/>
<path fill="#1A2C3E" d="M-536.4,485.1l41.5,27.9c0,0-16.1,14.5-42.1,13.1c-26-1.3-42.1-10.7-48.8-18.8L-536.4,485.1z"/>
<path fill="#1A2C3E" d="M-539.2,481.9l0.2-41.5c0,0-33.3,0.3-49.7,19.7c-16.4,19.4-4.5,37.8-4.5,37.8s3,4.8,4.7,6.2L-539.2,481.9z"
	/>
<path fill="#1A2C3E" d="M-539.2,479.3l0.2-41.5c0,0-33.3,0.3-49.7,19.7c-16.4,19.4-4.5,37.8-4.5,37.8s3,4.8,4.7,6.2L-539.2,479.3z"
	/>
<path fill="#1A2C3E" d="M-535.2,482.3l0.2-41.5c0,0,27.7,0.7,42.3,13.5s18.3,23.7,15.2,36.5c-3.2,12.8-15,19.8-15,19.8L-535.2,482.3
	z"/>
<path fill="#1A2C3E" d="M-535.2,479.3l0.2-41.5c0-0.4,14,1.7,15,1.9c6.4,1.3,12.7,3.3,18.6,6.2c8.9,4.4,16.8,11.3,21.2,20.2
	c7.4,15,2.2,33-12.3,41.6L-535.2,479.3L-535.2,479.3z"/>
<path fill="#1A2C3E" d="M-399.5,440.6v42.6l-52.3,20.6c0,0-18.9-22,4-46C-447.8,457.7-430.6,440.3-399.5,440.6L-399.5,440.6z"/>
<path fill="#1A2C3E" d="M-399.5,437.7v42.6l-52.3,20.6c0,0-18.9-22,4-46C-447.8,454.9-430.6,437.4-399.5,437.7z"/>
<path fill="#1A2C3E" d="M-369.7,521.8l-25.7-38v-42.7c0,0,40,0.3,54.9,25.2C-325.7,491.2-343.7,514.3-369.7,521.8z"/>
<path fill="#1A2C3E" d="M-369.7,518.3l-25.7-38v-42.6c0,0,40,0.3,54.9,25.2C-325.7,487.7-343.7,510.9-369.7,518.3L-369.7,518.3z"/>
<path fill="#1A2C3E" d="M-397.5,488.9l24.3,37.2c0,0-45.7,16.9-76.6-17.1L-397.5,488.9L-397.5,488.9z"/>
<path fill="#1A2C3E" d="M-373.2,525.9v-3.1l-5.5-0.4L-373.2,525.9z"/>
<path fill="#1A2C3E" d="M-449.8,505.7v3.2l7.2-0.2L-449.8,505.7z"/>
<path fill="#1A2C3E" d="M-397.5,485.7l24.3,37.2c0,0-45.7,16.9-76.6-17.1L-397.5,485.7L-397.5,485.7z"/>
<path fill="#B17F60" d="M-498.2,509.2v2.8l-6.7-1.3L-498.2,509.2z"/>
<path fill="#B17F60" d="M-589.1,503.6v2.8l4.7-0.7L-589.1,503.6z"/>
<path fill="#B17F60" d="M-539.8,484.2l41.5,27.9c0,0-16.1,14.5-42.1,13.1c-26-1.3-42.1-10.7-48.8-18.8L-539.8,484.2z"/>
<path fill="#FCD4BB" d="M-539.8,481.3l41.5,27.9c0,0-16.1,14.5-42.1,13.1s-42-10.7-48.7-18.7L-539.8,481.3z"/>
<path fill="#C95145" d="M-542.6,478.1l0.2-41.5c0,0-33.3,0.3-49.7,19.7c-16.4,19.4-4.5,37.8-4.5,37.8s3,4.8,4.7,6.2L-542.6,478.1z"
	/>
<path fill="#F26F5B" d="M-542.6,475.6l0.2-41.5c0,0-33.3,0.3-49.7,19.7c-16.4,19.4-4.5,37.8-4.5,37.8s3,4.8,4.7,6.2L-542.6,475.6z"
	/>
<path fill="#90684D" d="M-538.6,478.6l0.2-41.5c0,0,27.7,0.7,42.3,13.5s18.3,23.7,15.2,36.5c-3.2,12.8-15,19.8-15,19.8L-538.6,478.6
	z"/>
<path fill="#B17F60" d="M-538.6,475.6l0.2-41.5c0-0.4,14,1.7,15,1.9c6.4,1.3,12.7,3.3,18.6,6.2c8.9,4.4,16.8,11.3,21.2,20.2
	c7.4,15,2.2,33-12.3,41.6L-538.6,475.6z"/>
<path fill="#B17F60" d="M-402.9,436.8v42.6l-52.3,20.6c0,0-18.9-22,4-46C-451.2,453.9-434,436.5-402.9,436.8z"/>
<path fill="#FCD4BB" d="M-402.9,433.9v42.6l-52.3,20.6c0,0-18.9-22,4-46C-451.2,451.1-434,433.7-402.9,433.9z"/>
<path fill="#90684D" d="M-515.9,457.2c0,0.7-0.2,1.2-0.6,1.7c-0.4,0.4-0.9,0.7-1.6,0.9v0.1c0.9,0.1,1.5,0.4,1.9,0.8
	c0.4,0.4,0.6,1,0.6,1.7c0,1-0.4,1.8-1.1,2.4c-0.7,0.5-1.7,0.8-3,0.8c-0.6,0-1.1,0-1.6-0.1s-0.9-0.2-1.4-0.5v-1.2
	c0.5,0.2,1,0.4,1.5,0.5s1,0.2,1.5,0.2c1.9,0,2.8-0.7,2.8-2.2c0-1.3-1-1.9-3.1-1.9h-1.1v-1h1.1c0.8,0,1.5-0.2,2-0.6s0.7-0.9,0.7-1.5
	c0-0.5-0.2-0.9-0.5-1.2c-0.4-0.3-0.8-0.4-1.5-0.4c-0.5,0-0.9,0.1-1.3,0.2c-0.4,0.1-0.9,0.4-1.4,0.7l-0.6-0.8
	c0.4-0.3,0.9-0.6,1.5-0.8c0.6-0.2,1.2-0.3,1.8-0.3c1,0,1.8,0.2,2.4,0.7C-516.2,455.7-515.9,456.3-515.9,457.2z"/>
<path fill="#90684D" d="M-512.6,465.3l4.4-9.6h-5.8v-1.1h7.1v1l-4.4,9.7H-512.6L-512.6,465.3z"/>
<path fill="#90684D" d="M-501,457.8c0,1.1-0.2,2-0.6,2.5c-0.4,0.6-0.9,0.9-1.6,0.9s-1.2-0.3-1.6-0.9s-0.6-1.4-0.6-2.5
	s0.2-1.9,0.5-2.5c0.4-0.6,0.9-0.8,1.6-0.8s1.3,0.3,1.6,0.9C-501.4,456-501,456.8-501,457.8z M-504.3,457.8c0,0.8,0.1,1.5,0.3,1.9
	s0.5,0.6,0.9,0.6c0.8,0,1.2-0.8,1.2-2.5s-0.4-2.5-1.2-2.5c-0.4,0-0.7,0.2-0.9,0.6S-504.3,457-504.3,457.8z M-496.4,454.6l-5.9,10.7
	h-1.1l5.9-10.7H-496.4z M-494.5,462.1c0,1.1-0.2,1.9-0.6,2.5s-0.9,0.9-1.6,0.9s-1.2-0.3-1.6-0.9s-0.6-1.4-0.6-2.5s0.2-1.9,0.5-2.5
	c0.4-0.6,0.9-0.8,1.6-0.8s1.2,0.3,1.6,0.9C-494.7,460.2-494.5,460.9-494.5,462.1z M-497.9,462.1c0,0.8,0.1,1.5,0.3,1.9
	s0.5,0.6,0.9,0.6s0.7-0.2,0.9-0.6c0.2-0.4,0.3-1,0.3-1.9c0-0.8-0.1-1.5-0.3-1.9s-0.5-0.6-0.9-0.6s-0.7,0.2-0.9,0.6
	C-497.8,460.7-497.9,461.3-497.9,462.1z"/>
<path fill="#90684D" d="M-523.1,478.3v-10.7h1.2v9.6h4.7v1.1H-523.1L-523.1,478.3z"/>
<path fill="#90684D" d="M-509.4,478.3h-6v-10.7h6v1.1h-4.7v3.4h4.4v1.1h-4.4v3.9h4.7V478.3z"/>
<path fill="#90684D" d="M-505.8,478.3h-1.2v-10.7h6v1.1h-4.7v3.9h4.4v1.1h-4.4L-505.8,478.3L-505.8,478.3z"/>
<path fill="#90684D" d="M-496,478.3h-1.2v-9.6h-3.4v-1.1h8v1.1h-3.4V478.3L-496,478.3z"/>
<path fill="#90684D" d="M-373.1,517.9l-25.7-38v-42.6c0,0,40,0.3,54.9,25.2C-329.1,487.3-347.1,510.4-373.1,517.9z"/>
<path fill="#B17F60" d="M-373.1,514.4l-25.7-38v-42.6c0,0,40,0.3,54.9,25.2C-329.1,483.9-347.1,507.1-373.1,514.4z"/>
<path fill="#90684D" d="M-374.2,467.9h-1.6v2.5h-1.2v-2.5h-5.2v-1.1l5.1-7.2h1.3v7.2h1.6L-374.2,467.9L-374.2,467.9z M-377,466.8
	v-3.6c0-0.7,0-1.5,0.1-2.4h-0.1c-0.2,0.5-0.5,0.9-0.7,1.2l-3.3,4.8H-377z"/>
<path fill="#90684D" d="M-366.6,462.2c0,0.7-0.2,1.2-0.6,1.7c-0.4,0.4-0.9,0.7-1.6,0.9v0.1c0.9,0.1,1.5,0.4,1.9,0.8s0.6,1,0.6,1.7
	c0,1-0.4,1.8-1.1,2.4c-0.7,0.5-1.7,0.8-3,0.8c-0.6,0-1.1,0-1.6-0.1s-0.9-0.2-1.4-0.5v-1.2c0.5,0.2,1,0.4,1.5,0.5s1,0.2,1.5,0.2
	c1.9,0,2.8-0.7,2.8-2.2c0-1.3-1-1.9-3.1-1.9h-1.1v-1h1.1c0.8,0,1.5-0.2,2-0.6s0.7-0.9,0.7-1.5c0-0.5-0.2-0.9-0.5-1.2
	c-0.4-0.3-0.8-0.4-1.5-0.4c-0.5,0-0.9,0.1-1.3,0.2c-0.4,0.1-0.9,0.4-1.4,0.7l-0.6-0.8c0.4-0.3,0.9-0.6,1.5-0.8s1.2-0.3,1.8-0.3
	c1,0,1.8,0.2,2.4,0.7C-366.8,460.7-366.6,461.3-366.6,462.2L-366.6,462.2z"/>
<path fill="#90684D" d="M-360.2,462.9c0,1.1-0.2,2-0.6,2.5c-0.4,0.6-0.9,0.9-1.6,0.9s-1.2-0.3-1.6-0.9c-0.4-0.6-0.6-1.4-0.6-2.5
	s0.2-1.9,0.5-2.5c0.4-0.6,0.9-0.8,1.6-0.8s1.3,0.3,1.6,0.9C-360.6,461.1-360.2,461.8-360.2,462.9L-360.2,462.9z M-363.6,462.9
	c0,0.8,0.1,1.5,0.3,1.9c0.2,0.4,0.5,0.6,0.9,0.6c0.8,0,1.2-0.8,1.2-2.5s-0.4-2.5-1.2-2.5c-0.4,0-0.7,0.2-0.9,0.6
	C-363.5,461.4-363.6,462.1-363.6,462.9z M-355.7,459.7l-5.9,10.7h-1.1l5.9-10.7H-355.7z M-353.8,467.2c0,1.1-0.2,1.9-0.6,2.5
	c-0.4,0.6-0.9,0.9-1.6,0.9s-1.2-0.3-1.6-0.9c-0.4-0.6-0.6-1.4-0.6-2.5s0.2-1.9,0.5-2.5c0.4-0.6,0.9-0.8,1.6-0.8s1.2,0.3,1.6,0.9
	C-354,465.3-353.8,466.1-353.8,467.2L-353.8,467.2z M-357.1,467.2c0,0.8,0.1,1.5,0.3,1.9c0.2,0.4,0.5,0.6,0.9,0.6s0.7-0.2,0.9-0.6
	c0.2-0.4,0.3-1,0.3-1.9c0-0.8-0.1-1.5-0.3-1.9c-0.2-0.4-0.5-0.6-0.9-0.6s-0.7,0.2-0.9,0.6C-357,465.7-357.1,466.3-357.1,467.2z"/>
<path fill="#90684D" d="M-382.4,483.3v-10.7h1.2v9.6h4.7v1.1H-382.4L-382.4,483.3z"/>
<path fill="#90684D" d="M-368.6,483.3h-6v-10.7h6v1.1h-4.7v3.4h4.4v1.1h-4.4v3.9h4.7V483.3z"/>
<path fill="#90684D" d="M-365,483.3h-1.2v-10.7h6v1.1h-4.7v3.9h4.4v1.1h-4.4L-365,483.3L-365,483.3L-365,483.3z"/>
<path fill="#90684D" d="M-355.2,483.3h-1.2v-9.6h-3.4v-1.1h8v1.1h-3.4L-355.2,483.3L-355.2,483.3z"/>
<path fill="#C95145" d="M-400.9,485.1l24.3,37.2c0,0-45.7,16.9-76.6-17.1L-400.9,485.1L-400.9,485.1z"/>
<path fill="#C95145" d="M-376.6,522.3v-3.2l-5.5-0.3L-376.6,522.3z"/>
<path fill="#C95145" d="M-453.2,501.9v3.1l7.2-0.1L-453.2,501.9z"/>
<path fill="#F26F5B" d="M-400.9,481.9l24.3,37.2c0,0-45.7,16.9-76.6-17.1L-400.9,481.9z"/>
<path fill="#231F20" d="M-375.1,467.1h-1.6v2.5h-1.2v-2.5h-5.2V466l5.1-7.2h1.3v7.2h1.6L-375.1,467.1L-375.1,467.1z M-377.9,465.9
	v-3.6c0-0.7,0-1.5,0.1-2.4h-0.1c-0.2,0.5-0.5,0.9-0.7,1.2l-3.3,4.8H-377.9z"/>
<path fill="#231F20" d="M-367.4,461.3c0,0.7-0.2,1.2-0.6,1.7c-0.4,0.4-0.9,0.7-1.6,0.9v0.1c0.9,0.1,1.5,0.4,1.9,0.8s0.6,1,0.6,1.7
	c0,1-0.4,1.8-1.1,2.4c-0.7,0.5-1.7,0.8-3,0.8c-0.6,0-1.1,0-1.6-0.1s-0.9-0.2-1.4-0.5v-1.2c0.5,0.2,1,0.4,1.5,0.5s1,0.2,1.5,0.2
	c1.9,0,2.8-0.7,2.8-2.2c0-1.3-1-1.9-3.1-1.9h-1.1v-1h1.1c0.8,0,1.5-0.2,2-0.6s0.7-0.9,0.7-1.5c0-0.5-0.2-0.9-0.5-1.2
	c-0.4-0.3-0.8-0.4-1.5-0.4c-0.5,0-0.9,0.1-1.3,0.2c-0.4,0.1-0.9,0.4-1.4,0.7l-0.6-0.8c0.4-0.3,0.9-0.6,1.5-0.8s1.2-0.3,1.8-0.3
	c1,0,1.8,0.2,2.4,0.7C-367.7,459.8-367.4,460.4-367.4,461.3L-367.4,461.3z"/>
<path fill="#231F20" d="M-361.1,461.9c0,1.1-0.2,2-0.6,2.5c-0.4,0.6-0.9,0.9-1.6,0.9s-1.2-0.3-1.6-0.9c-0.4-0.6-0.6-1.4-0.6-2.5
	s0.2-1.9,0.5-2.5c0.4-0.6,0.9-0.8,1.6-0.8s1.3,0.3,1.6,0.9C-361.5,460.1-361.1,460.9-361.1,461.9L-361.1,461.9z M-364.5,461.9
	c0,0.8,0.1,1.5,0.3,1.9c0.2,0.4,0.5,0.6,0.9,0.6c0.8,0,1.2-0.8,1.2-2.5s-0.4-2.5-1.2-2.5c-0.4,0-0.7,0.2-0.9,0.6
	C-364.4,460.4-364.5,461.2-364.5,461.9z M-356.6,458.8l-5.9,10.7h-1.1l5.9-10.7H-356.6z M-354.7,466.3c0,1.1-0.2,1.9-0.6,2.5
	c-0.4,0.6-0.9,0.9-1.6,0.9s-1.2-0.3-1.6-0.9c-0.4-0.6-0.6-1.4-0.6-2.5s0.2-1.9,0.5-2.5c0.4-0.6,0.9-0.8,1.6-0.8s1.2,0.3,1.6,0.9
	C-354.9,464.3-354.7,465.2-354.7,466.3L-354.7,466.3z M-358,466.3c0,0.8,0.1,1.5,0.3,1.9c0.2,0.4,0.5,0.6,0.9,0.6s0.7-0.2,0.9-0.6
	c0.2-0.4,0.3-1,0.3-1.9c0-0.8-0.1-1.5-0.3-1.9c-0.2-0.4-0.5-0.6-0.9-0.6s-0.7,0.2-0.9,0.6C-357.9,464.8-358,465.4-358,466.3z"/>
<path fill="#231F20" d="M-383.3,482.4v-10.7h1.2v9.6h4.7v1.1H-383.3L-383.3,482.4z"/>
<path fill="#231F20" d="M-369.5,482.4h-6v-10.7h6v1.1h-4.7v3.4h4.4v1.1h-4.4v3.9h4.7V482.4z"/>
<path fill="#231F20" d="M-365.9,482.4h-1.2v-10.7h6v1.1h-4.7v3.9h4.4v1.1h-4.4L-365.9,482.4L-365.9,482.4z"/>
<path fill="#231F20" d="M-356.1,482.4h-1.2v-9.6h-3.4v-1.1h8v1.1h-3.4L-356.1,482.4L-356.1,482.4z"/>
<path fill="#C95145" d="M-416.7,502.4h-7v-1l2.8-2.8c0.9-0.9,1.4-1.5,1.7-1.9s0.5-0.7,0.6-1.1s0.2-0.7,0.2-1.1c0-0.6-0.2-1-0.5-1.4
	c-0.3-0.3-0.8-0.5-1.4-0.5c-0.4,0-0.9,0.1-1.3,0.2s-0.8,0.4-1.3,0.8l-0.6-0.8c1-0.8,2.1-1.2,3.2-1.2c1,0,1.8,0.3,2.4,0.8
	s0.9,1.2,0.9,2.1c0,0.7-0.2,1.4-0.6,2s-1.1,1.5-2.1,2.5l-2.3,2.3v0.1h5.5v1H-416.7L-416.7,502.4z"/>
<path fill="#C95145" d="M-407.6,500.1h-1.6v2.5h-1.2v-2.5h-5.2V499l5.1-7.2h1.3v7.2h1.6L-407.6,500.1L-407.6,500.1z M-410.4,498.9
	v-3.6c0-0.7,0-1.5,0.1-2.4h-0.1c-0.2,0.5-0.5,0.9-0.7,1.2l-3.3,4.8H-410.4z"/>
<path fill="#C95145" d="M-402.2,494.9c0,1.1-0.2,2-0.6,2.5c-0.4,0.6-0.9,0.9-1.6,0.9s-1.2-0.3-1.6-0.9s-0.6-1.4-0.6-2.5
	s0.2-1.9,0.5-2.5c0.4-0.6,0.9-0.8,1.6-0.8s1.3,0.3,1.6,0.9C-402.6,493.2-402.2,493.9-402.2,494.9L-402.2,494.9z M-405.5,494.9
	c0,0.8,0.1,1.5,0.3,1.9s0.5,0.6,0.9,0.6c0.8,0,1.2-0.8,1.2-2.5s-0.4-2.5-1.2-2.5c-0.4,0-0.7,0.2-0.9,0.6S-405.5,494.2-405.5,494.9z
	 M-397.6,491.8l-5.9,10.7h-1.1l5.9-10.7H-397.6z M-395.7,499.3c0,1.1-0.2,1.9-0.6,2.5c-0.4,0.6-0.9,0.9-1.6,0.9s-1.2-0.3-1.6-0.9
	s-0.6-1.4-0.6-2.5s0.2-1.9,0.5-2.5c0.4-0.6,0.9-0.8,1.6-0.8s1.2,0.3,1.6,0.9C-395.9,497.3-395.7,498.2-395.7,499.3L-395.7,499.3z
	 M-399.1,499.3c0,0.8,0.1,1.5,0.3,1.9s0.5,0.6,0.9,0.6s0.7-0.2,0.9-0.6s0.3-1,0.3-1.9c0-0.8-0.1-1.5-0.3-1.9s-0.5-0.6-0.9-0.6
	s-0.7,0.2-0.9,0.6C-399,497.9-399.1,498.4-399.1,499.3z"/>
<path fill="#C95145" d="M-428.9,511.1v4.5h-1.2v-10.7h2.9c1.3,0,2.3,0.3,2.9,0.8s0.9,1.3,0.9,2.3c0,1.4-0.7,2.4-2.2,2.9l2.9,4.8
	h-1.5l-2.6-4.5L-428.9,511.1L-428.9,511.1z M-428.9,509.9h1.7c0.9,0,1.5-0.2,1.9-0.5s0.6-0.9,0.6-1.6s-0.2-1.2-0.6-1.5
	s-1.1-0.5-2-0.5h-1.6V509.9L-428.9,509.9z"/>
<path fill="#C95145" d="M-420.8,515.4v-10.7h1.2v10.7H-420.8z"/>
<path fill="#C95145" d="M-412,509.9h3.6v5.2c-0.6,0.2-1.1,0.3-1.7,0.4s-1.3,0.1-2,0.1c-1.6,0-2.9-0.5-3.8-1.4
	c-0.9-1-1.4-2.3-1.4-4.1c0-1.1,0.2-2.1,0.7-2.9c0.4-0.8,1.1-1.5,1.9-1.9s1.8-0.7,3-0.7c1.1,0,2.2,0.2,3.2,0.6l-0.5,1.1
	c-1-0.4-1.9-0.6-2.8-0.6c-1.3,0-2.3,0.4-3.1,1.2s-1.1,1.9-1.1,3.2c0,1.4,0.4,2.5,1.1,3.3c0.7,0.7,1.7,1.1,3.1,1.1
	c0.7,0,1.5-0.1,2.2-0.3V511h-2.4L-412,509.9L-412,509.9z"/>
<path fill="#C95145" d="M-397.6,515.4h-1.2v-5h-5.6v5h-1.2v-10.7h1.2v4.6h5.6v-4.6h1.2V515.4z"/>
<path fill="#C95145" d="M-391.4,515.4h-1.2v-9.6h-3.4v-1.1h8v1.1h-3.4V515.4L-391.4,515.4z"/>
<path fill="#B17F60" d="M-433.4,453.5c0,0.7-0.2,1.2-0.6,1.7c-0.4,0.4-0.9,0.7-1.6,0.9v0.1c0.9,0.1,1.5,0.4,1.9,0.8s0.6,1,0.6,1.7
	c0,1-0.4,1.8-1.1,2.4c-0.7,0.5-1.7,0.8-3,0.8c-0.6,0-1.1,0-1.6-0.1s-0.9-0.2-1.4-0.5v-1.2c0.5,0.2,1,0.4,1.5,0.5s1,0.2,1.5,0.2
	c1.9,0,2.8-0.7,2.8-2.2c0-1.3-1-1.9-3.1-1.9h-0.9v-1h1.1c0.8,0,1.5-0.2,2-0.6s0.7-0.9,0.7-1.5c0-0.5-0.2-0.9-0.5-1.2
	c-0.4-0.3-0.8-0.4-1.5-0.4c-0.5,0-0.9,0.1-1.3,0.2s-0.9,0.4-1.4,0.7l-0.6-0.8c0.4-0.3,0.9-0.6,1.5-0.8s1.2-0.3,1.8-0.3
	c1,0,1.8,0.2,2.4,0.7C-433.6,452-433.4,452.7-433.4,453.5L-433.4,453.5z"/>
<path fill="#B17F60" d="M-424.8,453.5c0,0.7-0.2,1.2-0.6,1.7c-0.4,0.4-0.9,0.7-1.6,0.9v0.1c0.9,0.1,1.5,0.4,1.9,0.8s0.6,1,0.6,1.7
	c0,1-0.4,1.8-1.1,2.4c-0.7,0.5-1.7,0.8-3,0.8c-0.6,0-1.1,0-1.6-0.1s-0.9-0.2-1.4-0.5v-1.2c0.5,0.2,1,0.4,1.5,0.5s1,0.2,1.5,0.2
	c1.9,0,2.8-0.7,2.8-2.2c0-1.3-1-1.9-3.1-1.9h-1.1v-1h1.1c0.8,0,1.5-0.2,2-0.6s0.7-0.9,0.7-1.5c0-0.5-0.2-0.9-0.5-1.2
	c-0.4-0.3-0.8-0.4-1.5-0.4c-0.5,0-0.9,0.1-1.3,0.2s-0.9,0.4-1.4,0.7l-0.6-0.8c0.4-0.3,0.9-0.6,1.5-0.8s1.2-0.3,1.8-0.3
	c1,0,1.8,0.2,2.4,0.7C-425.1,452-424.8,452.7-424.8,453.5L-424.8,453.5z"/>
<path fill="#B17F60" d="M-418.4,454.2c0,1.1-0.2,2-0.6,2.5c-0.4,0.6-0.9,0.9-1.6,0.9s-1.2-0.3-1.6-0.9s-0.6-1.4-0.6-2.5
	s0.2-1.9,0.5-2.5c0.4-0.6,0.9-0.8,1.6-0.8s1.3,0.3,1.6,0.9S-418.4,453.1-418.4,454.2L-418.4,454.2z M-421.8,454.2
	c0,0.8,0.1,1.5,0.3,1.9s0.5,0.6,0.9,0.6c0.8,0,1.2-0.8,1.2-2.5s-0.4-2.5-1.2-2.5c-0.4,0-0.7,0.2-0.9,0.6S-421.8,453.4-421.8,454.2z
	 M-413.9,451l-5.9,10.7h-1.1l5.9-10.7H-413.9L-413.9,451z M-412,458.4c0,1.1-0.2,1.9-0.6,2.5s-0.9,0.9-1.6,0.9s-1.2-0.3-1.6-0.9
	s-0.6-1.4-0.6-2.5s0.2-1.9,0.5-2.5c0.4-0.6,0.9-0.8,1.6-0.8s1.2,0.3,1.6,0.9C-412.2,456.6-412,457.4-412,458.4L-412,458.4z
	 M-415.4,458.4c0,0.8,0.1,1.5,0.3,1.9s0.5,0.6,0.9,0.6s0.7-0.2,0.9-0.6c0.2-0.4,0.3-1,0.3-1.9c0-0.8-0.1-1.5-0.3-1.9
	s-0.5-0.6-0.9-0.6s-0.7,0.2-0.9,0.6C-415.3,457-415.4,457.6-415.4,458.4z"/>
<path fill="#B17F60" d="M-444.9,463.9h3c1.4,0,2.4,0.2,3.1,0.6c0.6,0.4,1,1.1,1,2c0,0.6-0.2,1.2-0.5,1.6c-0.4,0.4-0.9,0.7-1.5,0.8
	v0.1c1.6,0.3,2.4,1.1,2.4,2.6c0,1-0.3,1.7-1,2.2c-0.6,0.5-1.6,0.8-2.7,0.8h-3.7L-444.9,463.9L-444.9,463.9z M-443.6,468.6h2.1
	c0.9,0,1.5-0.1,1.9-0.4s0.6-0.7,0.6-1.4c0-0.6-0.2-1-0.6-1.3s-1.1-0.4-2.1-0.4h-1.8L-443.6,468.6L-443.6,468.6L-443.6,468.6z
	 M-443.6,469.6v4h2.2c0.9,0,1.5-0.2,2-0.5c0.4-0.3,0.7-0.9,0.7-1.6s-0.2-1.2-0.7-1.5c-0.4-0.3-1.1-0.5-2-0.5L-443.6,469.6
	L-443.6,469.6z"/>
<path fill="#B17F60" d="M-425.9,469.3c0,1.7-0.4,3.1-1.3,4c-0.9,1-2.1,1.5-3.6,1.5c-1.6,0-2.8-0.5-3.7-1.4c-0.9-1-1.3-2.3-1.3-4.1
	c0-1.7,0.4-3.1,1.3-4.1s2.1-1.4,3.7-1.4c1.5,0,2.7,0.5,3.6,1.5S-425.9,467.6-425.9,469.3z M-434.4,469.3c0,1.5,0.3,2.6,0.9,3.3
	c0.6,0.8,1.5,1.1,2.7,1.1s2.1-0.4,2.7-1.1s0.9-1.8,0.9-3.3c0-1.4-0.3-2.5-0.9-3.3c-0.6-0.7-1.5-1.1-2.7-1.1s-2.1,0.4-2.7,1.1
	C-434.1,466.8-434.4,467.9-434.4,469.3z"/>
<path fill="#B17F60" d="M-420.2,474.7h-1.2v-9.6h-3.4V464h8v1.1h-3.4V474.7L-420.2,474.7z"/>
<path fill="#B17F60" d="M-407.1,474.7h-1.2v-5h-5.6v5h-1.2V464h1.2v4.6h5.6V464h1.2V474.7z"/>
<path fill="#231F20" d="M-417.6,501.6h-7v-1l2.8-2.8c0.9-0.9,1.4-1.5,1.7-1.9s0.5-0.7,0.6-1.1s0.2-0.7,0.2-1.1c0-0.6-0.2-1-0.5-1.4
	c-0.3-0.3-0.8-0.5-1.4-0.5c-0.4,0-0.9,0.1-1.3,0.2s-0.8,0.4-1.3,0.8l-0.6-0.8c1-0.8,2.1-1.2,3.2-1.2c1,0,1.8,0.3,2.4,0.8
	s0.9,1.2,0.9,2.1c0,0.7-0.2,1.4-0.6,2s-1.1,1.5-2.1,2.5l-2.3,2.3v0.1h5.5v1H-417.6L-417.6,501.6z"/>
<path fill="#231F20" d="M-408.5,499.2h-1.6v2.5h-1.2v-2.5h-5.2v-1.1l5.1-7.2h1.3v7.2h1.6L-408.5,499.2L-408.5,499.2z M-411.3,498.1
	v-3.6c0-0.7,0-1.5,0.1-2.4h-0.1c-0.2,0.5-0.5,0.9-0.7,1.2l-3.3,4.8H-411.3z"/>
<path fill="#231F20" d="M-403.1,494.1c0,1.1-0.2,2-0.6,2.5c-0.4,0.6-0.9,0.9-1.6,0.9s-1.2-0.3-1.6-0.9s-0.6-1.4-0.6-2.5
	s0.2-1.9,0.5-2.5c0.4-0.6,0.9-0.8,1.6-0.8s1.3,0.3,1.6,0.9S-403.1,493.1-403.1,494.1L-403.1,494.1z M-406.4,494.1
	c0,0.8,0.1,1.5,0.3,1.9s0.5,0.6,0.9,0.6c0.8,0,1.2-0.8,1.2-2.5s-0.4-2.5-1.2-2.5c-0.4,0-0.7,0.2-0.9,0.6S-406.4,493.3-406.4,494.1z
	 M-398.5,490.9l-5.9,10.7h-1.1l5.9-10.7H-398.5z M-396.6,498.3c0,1.1-0.2,1.9-0.6,2.5s-0.9,0.9-1.6,0.9s-1.2-0.3-1.6-0.9
	s-0.6-1.4-0.6-2.5s0.2-1.9,0.5-2.5c0.4-0.6,0.9-0.8,1.6-0.8s1.2,0.3,1.6,0.9C-396.8,496.4-396.6,497.3-396.6,498.3L-396.6,498.3z
	 M-400,498.3c0,0.8,0.1,1.5,0.3,1.9s0.5,0.6,0.9,0.6s0.7-0.2,0.9-0.6c0.2-0.4,0.3-1,0.3-1.9c0-0.8-0.1-1.5-0.3-1.9s-0.5-0.6-0.9-0.6
	s-0.7,0.2-0.9,0.6C-399.9,496.9-400,497.6-400,498.3z"/>
<path fill="#231F20" d="M-429.8,510.2v4.5h-1.2V504h2.9c1.3,0,2.3,0.3,2.9,0.8s0.9,1.3,0.9,2.3c0,1.4-0.7,2.4-2.2,2.9l2.9,4.8h-1.5
	l-2.6-4.5L-429.8,510.2L-429.8,510.2z M-429.8,509.1h1.7c0.9,0,1.5-0.2,1.9-0.5s0.6-0.9,0.6-1.6s-0.2-1.2-0.6-1.5s-1.1-0.5-2-0.5
	h-1.6V509.1L-429.8,509.1z"/>
<path fill="#231F20" d="M-421.7,514.6v-10.7h1.2v10.7H-421.7z"/>
<path fill="#231F20" d="M-412.8,508.9h3.6v5.2c-0.6,0.2-1.1,0.3-1.7,0.4s-1.3,0.1-2,0.1c-1.6,0-2.9-0.5-3.8-1.4
	c-0.9-1-1.4-2.3-1.4-4.1c0-1.1,0.2-2.1,0.7-2.9c0.4-0.8,1.1-1.5,1.9-1.9s1.8-0.7,3-0.7c1.1,0,2.2,0.2,3.2,0.6l-0.5,1.1
	c-1-0.4-1.9-0.6-2.8-0.6c-1.3,0-2.3,0.4-3.1,1.2s-1.1,1.9-1.1,3.2c0,1.4,0.4,2.5,1.1,3.3c0.7,0.7,1.7,1.1,3.1,1.1
	c0.7,0,1.5-0.1,2.2-0.3v-3.1h-2.4L-412.8,508.9L-412.8,508.9z"/>
<path fill="#231F20" d="M-398.5,514.6h-1.2v-5h-5.7v5h-1.2v-10.7h1.2v4.6h5.6v-4.6h1.2L-398.5,514.6L-398.5,514.6z"/>
<path fill="#231F20" d="M-392.3,514.6h-1.2V505h-3.4v-1.1h8v1.1h-3.4V514.6L-392.3,514.6z"/>
<path fill="#B17F60" d="M-547.6,502.3h-7v-1l2.8-2.8c0.9-0.9,1.4-1.5,1.7-1.9c0.3-0.4,0.5-0.7,0.6-1.1c0.1-0.4,0.2-0.7,0.2-1.1
	c0-0.6-0.2-1-0.5-1.4c-0.3-0.3-0.8-0.5-1.4-0.5c-0.4,0-0.9,0.1-1.3,0.2c-0.4,0.1-0.8,0.4-1.3,0.8l-0.6-0.8c1-0.8,2.1-1.2,3.2-1.2
	c1,0,1.8,0.3,2.4,0.8c0.6,0.5,0.9,1.2,0.9,2.1c0,0.7-0.2,1.4-0.6,2c-0.4,0.6-1.1,1.5-2.1,2.5l-2.3,2.3v0.1h5.5v1H-547.6
	L-547.6,502.3z"/>
<path fill="#B17F60" d="M-539.1,496.3c0,4.2-1.6,6.3-4.9,6.3c-0.6,0-1,0-1.3-0.1v-1c0.4,0.1,0.8,0.2,1.3,0.2c1.2,0,2.1-0.4,2.7-1.1
	c0.6-0.7,0.9-1.8,1-3.3h-0.1c-0.3,0.4-0.6,0.7-1.1,0.9c-0.4,0.2-0.9,0.3-1.5,0.3c-0.9,0-1.7-0.3-2.3-0.8s-0.8-1.4-0.8-2.4
	c0-1.1,0.3-2,0.9-2.6c0.6-0.6,1.4-1,2.5-1c0.7,0,1.4,0.2,1.9,0.6s1,0.9,1.3,1.6C-539.2,494.3-539.1,495.3-539.1,496.3L-539.1,496.3z
	 M-542.7,492.6c-0.7,0-1.2,0.2-1.6,0.7c-0.4,0.5-0.6,1.1-0.6,1.9c0,0.7,0.2,1.3,0.5,1.7c0.4,0.4,0.9,0.6,1.6,0.6
	c0.4,0,0.9-0.1,1.2-0.3c0.4-0.2,0.7-0.4,0.9-0.7c0.2-0.3,0.3-0.6,0.3-1c0-0.5-0.1-1-0.3-1.4c-0.2-0.4-0.5-0.8-0.8-1
	C-541.8,492.7-542.2,492.6-542.7,492.6z"/>
<path fill="#B17F60" d="M-533.1,494.9c0,1.1-0.2,2-0.6,2.5c-0.4,0.6-0.9,0.9-1.6,0.9s-1.2-0.3-1.6-0.9c-0.4-0.6-0.6-1.4-0.6-2.5
	s0.2-1.9,0.5-2.5c0.4-0.6,0.9-0.8,1.6-0.8s1.3,0.3,1.6,0.9C-533.5,493.1-533.1,493.8-533.1,494.9L-533.1,494.9z M-536.5,494.9
	c0,0.8,0.1,1.5,0.3,1.9c0.2,0.4,0.5,0.6,0.9,0.6c0.8,0,1.2-0.8,1.2-2.5s-0.4-2.5-1.2-2.5c-0.4,0-0.7,0.2-0.9,0.6
	C-536.4,493.3-536.5,494.1-536.5,494.9z M-528.6,491.7l-5.9,10.7h-1.1l5.9-10.7H-528.6z M-526.7,499.2c0,1.1-0.2,1.9-0.6,2.5
	c-0.4,0.6-0.9,0.9-1.6,0.9s-1.2-0.3-1.6-0.9c-0.4-0.6-0.6-1.4-0.6-2.5s0.2-1.9,0.5-2.5c0.4-0.6,0.9-0.8,1.6-0.8s1.2,0.3,1.6,0.9
	C-526.9,497.3-526.7,498.1-526.7,499.2L-526.7,499.2z M-530,499.2c0,0.8,0.1,1.5,0.3,1.9c0.2,0.4,0.5,0.6,0.9,0.6
	c0.4,0,0.7-0.2,0.9-0.6c0.2-0.4,0.3-1,0.3-1.9c0-0.8-0.1-1.5-0.3-1.9c-0.2-0.4-0.5-0.6-0.9-0.6c-0.4,0-0.7,0.2-0.9,0.6
	C-529.9,497.7-530,498.3-530,499.2z"/>
<path fill="#B17F60" d="M-559.8,510.9v4.5h-1.2v-10.7h2.9c1.3,0,2.3,0.3,2.9,0.8c0.6,0.5,0.9,1.3,0.9,2.3c0,1.4-0.7,2.4-2.2,2.9
	l2.9,4.8h-1.5l-2.6-4.5L-559.8,510.9L-559.8,510.9z M-559.8,509.9h1.7c0.9,0,1.5-0.2,1.9-0.5c0.4-0.3,0.6-0.9,0.6-1.6
	s-0.2-1.2-0.6-1.5c-0.4-0.3-1.1-0.5-2-0.5h-1.6V509.9L-559.8,509.9z"/>
<path fill="#B17F60" d="M-551.8,515.3v-10.7h1.2v10.7H-551.8z"/>
<path fill="#B17F60" d="M-542.9,509.8h3.6v5.2c-0.6,0.2-1.1,0.3-1.7,0.4c-0.6,0.1-1.3,0.1-2,0.1c-1.6,0-2.9-0.5-3.8-1.4
	c-0.9-1-1.4-2.3-1.4-4.1c0-1.1,0.2-2.1,0.7-2.9c0.4-0.8,1.1-1.5,1.9-1.9s1.8-0.7,3-0.7c1.1,0,2.2,0.2,3.2,0.6l-0.5,1.1
	c-1-0.4-1.9-0.6-2.8-0.6c-1.3,0-2.3,0.4-3.1,1.2c-0.8,0.8-1.1,1.9-1.1,3.2c0,1.4,0.4,2.5,1.1,3.3c0.7,0.7,1.7,1.1,3.1,1.1
	c0.7,0,1.5-0.1,2.2-0.3v-3.3h-2.4L-542.9,509.8L-542.9,509.8z"/>
<path fill="#B17F60" d="M-528.6,515.3h-1.2v-5h-5.6v5h-1.2v-10.7h1.2v4.6h5.6v-4.6h1.2V515.3z"/>
<path fill="#B17F60" d="M-522.3,515.3h-1.2v-9.6h-3.4v-1.1h8v1.1h-3.4V515.3L-522.3,515.3z"/>
<path fill="#231F20" d="M-434.2,452.6c0,0.7-0.2,1.2-0.6,1.7c-0.4,0.4-0.9,0.7-1.6,0.9v0.1c0.9,0.1,1.5,0.4,1.9,0.8s0.6,1,0.6,1.7
	c0,1-0.4,1.8-1.1,2.4c-0.7,0.5-1.7,0.8-3,0.8c-0.6,0-1.1,0-1.6-0.1s-0.9-0.2-1.4-0.5v-1.2c0.5,0.2,1,0.4,1.5,0.5s1,0.2,1.5,0.2
	c1.9,0,2.8-0.7,2.8-2.2c0-1.3-1-1.9-3.1-1.9h-1.1v-1h1.1c0.8,0,1.5-0.2,2-0.6s0.7-0.9,0.7-1.5c0-0.5-0.2-0.9-0.5-1.2
	c-0.4-0.3-0.8-0.4-1.5-0.4c-0.5,0-0.9,0.1-1.3,0.2s-0.9,0.4-1.4,0.7l-0.6-0.8c0.4-0.3,0.9-0.6,1.5-0.8s1.2-0.3,1.8-0.3
	c1,0,1.8,0.2,2.4,0.7C-434.5,451.1-434.2,451.8-434.2,452.6z"/>
<path fill="#231F20" d="M-425.7,452.6c0,0.7-0.2,1.2-0.6,1.7c-0.4,0.4-0.9,0.7-1.6,0.9v0.1c0.9,0.1,1.5,0.4,1.9,0.8s0.6,1,0.6,1.7
	c0,1-0.4,1.8-1.1,2.4c-0.7,0.5-1.7,0.8-3,0.8c-0.6,0-1.1,0-1.6-0.1s-0.9-0.2-1.4-0.5v-1.2c0.5,0.2,1,0.4,1.5,0.5s1,0.2,1.5,0.2
	c1.9,0,2.8-0.7,2.8-2.2c0-1.3-1-1.9-3.1-1.9h-1.1v-1h1.1c0.8,0,1.5-0.2,2-0.6s0.7-0.9,0.7-1.5c0-0.5-0.2-0.9-0.5-1.2
	c-0.4-0.3-0.8-0.4-1.5-0.4c-0.5,0-0.9,0.1-1.3,0.2s-0.9,0.4-1.4,0.7l-0.6-0.8c0.4-0.3,0.9-0.6,1.5-0.8s1.2-0.3,1.8-0.3
	c1,0,1.8,0.2,2.4,0.7C-426,451.1-425.7,451.8-425.7,452.6L-425.7,452.6z"/>
<path fill="#231F20" d="M-419.3,453.3c0,1.1-0.2,2-0.6,2.5c-0.4,0.6-0.9,0.9-1.6,0.9s-1.2-0.3-1.6-0.9s-0.6-1.4-0.6-2.5
	s0.2-1.9,0.5-2.5c0.4-0.6,0.9-0.8,1.6-0.8s1.3,0.3,1.6,0.9C-419.7,451.5-419.3,452.2-419.3,453.3L-419.3,453.3z M-422.7,453.3
	c0,0.8,0.1,1.5,0.3,1.9s0.5,0.6,0.9,0.6c0.8,0,1.2-0.8,1.2-2.5s-0.4-2.5-1.2-2.5c-0.4,0-0.7,0.2-0.9,0.6
	C-422.6,451.8-422.7,452.5-422.7,453.3z M-414.8,450.1l-5.9,10.7h-1.1l5.9-10.7H-414.8z M-412.9,457.6c0,1.1-0.2,1.9-0.6,2.5
	s-0.9,0.9-1.6,0.9s-1.2-0.3-1.6-0.9s-0.6-1.4-0.6-2.5s0.2-1.9,0.5-2.5c0.4-0.6,0.9-0.8,1.6-0.8s1.2,0.3,1.6,0.9
	C-413.1,455.7-412.9,456.5-412.9,457.6L-412.9,457.6z M-416.2,457.6c0,0.8,0.1,1.5,0.3,1.9s0.5,0.6,0.9,0.6s0.7-0.2,0.9-0.6
	c0.2-0.4,0.3-1,0.3-1.9c0-0.8-0.1-1.5-0.3-1.9s-0.5-0.6-0.9-0.6s-0.7,0.2-0.9,0.6C-416.2,456.1-416.2,456.8-416.2,457.6z"/>
<path fill="#231F20" d="M-445.8,463.1h3c1.4,0,2.4,0.2,3.1,0.6c0.6,0.4,1,1.1,1,2c0,0.6-0.2,1.2-0.5,1.6c-0.4,0.4-0.9,0.7-1.5,0.8
	v0.1c1.6,0.3,2.4,1.1,2.4,2.6c0,1-0.3,1.7-1,2.2c-0.6,0.5-1.6,0.8-2.7,0.8h-3.7L-445.8,463.1L-445.8,463.1z M-444.5,467.7h2.1
	c0.9,0,1.5-0.1,1.9-0.4s0.6-0.7,0.6-1.4c0-0.6-0.2-1-0.6-1.3s-1.1-0.4-2.1-0.4h-1.8L-444.5,467.7L-444.5,467.7z M-444.5,468.7v4h2.2
	c0.9,0,1.5-0.2,2-0.5c0.4-0.3,0.7-0.9,0.7-1.6s-0.2-1.2-0.7-1.5c-0.4-0.3-1.1-0.5-2-0.5L-444.5,468.7L-444.5,468.7z"/>
<path fill="#231F20" d="M-426.8,468.3c0,1.7-0.4,3.1-1.3,4c-0.9,1-2.1,1.5-3.6,1.5c-1.6,0-2.8-0.5-3.7-1.4c-0.9-1-1.3-2.3-1.3-4.1
	c0-1.7,0.4-3.1,1.3-4.1s2.1-1.4,3.7-1.4c1.5,0,2.7,0.5,3.6,1.5S-426.8,466.7-426.8,468.3z M-435.3,468.3c0,1.5,0.3,2.6,0.9,3.3
	c0.6,0.8,1.5,1.1,2.7,1.1s2.1-0.4,2.7-1.1s0.9-1.8,0.9-3.3c0-1.4-0.3-2.5-0.9-3.3c-0.6-0.7-1.5-1.1-2.7-1.1s-2.1,0.4-2.7,1.1
	C-435,465.9-435.3,466.9-435.3,468.3z"/>
<path fill="#231F20" d="M-421.1,473.8h-1.2v-9.6h-3.4v-1.1h8v1.1h-3.4V473.8L-421.1,473.8z"/>
<path fill="#231F20" d="M-407.9,473.8h-1.2v-5h-5.6v5h-1.2v-10.7h1.2v4.6h5.6v-4.6h1.2V473.8z"/>
<path fill="#231F20" d="M-516.8,456.3c0,0.7-0.2,1.2-0.6,1.7c-0.4,0.4-0.9,0.7-1.6,0.9v0.1c0.9,0.1,1.5,0.4,1.9,0.8
	c0.4,0.4,0.6,1,0.6,1.7c0,1-0.4,1.8-1.1,2.4c-0.7,0.5-1.7,0.8-3,0.8c-0.6,0-1.1,0-1.6-0.1s-0.9-0.2-1.4-0.5v-1.2
	c0.5,0.2,1,0.4,1.5,0.5s1,0.2,1.5,0.2c1.9,0,2.8-0.7,2.8-2.2c0-1.3-1-1.9-3.1-1.9h-1.1v-1h1.1c0.8,0,1.5-0.2,2-0.6s0.7-0.9,0.7-1.5
	c0-0.5-0.2-0.9-0.5-1.2c-0.4-0.3-0.8-0.4-1.5-0.4c-0.5,0-0.9,0.1-1.3,0.2c-0.4,0.1-0.9,0.4-1.4,0.7l-0.6-0.8
	c0.4-0.3,0.9-0.6,1.5-0.8c0.6-0.2,1.2-0.3,1.8-0.3c1,0,1.8,0.2,2.4,0.7C-517.1,454.8-516.8,455.4-516.8,456.3z"/>
<path fill="#231F20" d="M-513.5,464.4l4.4-9.6h-5.8v-1.1h7.1v1l-4.4,9.7H-513.5L-513.5,464.4z"/>
<path fill="#231F20" d="M-501.9,456.9c0,1.1-0.2,2-0.6,2.5c-0.4,0.6-0.9,0.9-1.6,0.9s-1.2-0.3-1.6-0.9s-0.6-1.4-0.6-2.5
	s0.2-1.9,0.5-2.5c0.4-0.6,0.9-0.8,1.6-0.8s1.3,0.3,1.6,0.9S-501.9,455.9-501.9,456.9z M-505.2,456.9c0,0.8,0.1,1.5,0.3,1.9
	s0.5,0.6,0.9,0.6c0.8,0,1.2-0.8,1.2-2.5s-0.4-2.5-1.2-2.5c-0.4,0-0.7,0.2-0.9,0.6C-505.1,455.4-505.2,456.1-505.2,456.9z
	 M-497.3,453.8l-5.9,10.7h-1.1l5.9-10.7H-497.3z M-495.4,461.2c0,1.1-0.2,1.9-0.6,2.5s-0.9,0.9-1.6,0.9s-1.2-0.3-1.6-0.9
	s-0.6-1.4-0.6-2.5s0.2-1.9,0.5-2.5c0.4-0.6,0.9-0.8,1.6-0.8s1.2,0.3,1.6,0.9C-495.6,459.3-495.4,460.2-495.4,461.2z M-498.8,461.2
	c0,0.8,0.1,1.5,0.3,1.9s0.5,0.6,0.9,0.6s0.7-0.2,0.9-0.6c0.2-0.4,0.3-1,0.3-1.9c0-0.8-0.1-1.5-0.3-1.9s-0.5-0.6-0.9-0.6
	s-0.7,0.2-0.9,0.6C-498.7,459.8-498.8,460.3-498.8,461.2z"/>
<path fill="#231F20" d="M-524,477.4v-10.7h1.2v9.6h4.7v1.1H-524L-524,477.4z"/>
<path fill="#231F20" d="M-510.3,477.4h-6v-10.7h6v1.1h-4.7v3.4h4.4v1.1h-4.4v3.9h4.7V477.4z"/>
<path fill="#231F20" d="M-506.7,477.4h-1.2v-10.7h6v1.1h-4.7v3.9h4.4v1.1h-4.4L-506.7,477.4L-506.7,477.4z"/>
<path fill="#231F20" d="M-496.9,477.4h-1.2v-9.6h-3.4v-1.1h8v1.1h-3.4V477.4L-496.9,477.4z"/>
<path fill="#231F20" d="M-548.5,501.4h-7v-1l2.8-2.8c0.9-0.9,1.4-1.5,1.7-1.9c0.3-0.4,0.5-0.7,0.6-1.1c0.1-0.4,0.2-0.7,0.2-1.1
	c0-0.6-0.2-1-0.5-1.4c-0.3-0.3-0.8-0.5-1.4-0.5c-0.4,0-0.9,0.1-1.3,0.2c-0.4,0.1-0.8,0.4-1.3,0.8l-0.6-0.8c1-0.8,2.1-1.2,3.2-1.2
	c1,0,1.8,0.3,2.4,0.8c0.6,0.5,0.9,1.2,0.9,2.1c0,0.7-0.2,1.4-0.6,2c-0.4,0.6-1.1,1.5-2.1,2.5l-2.3,2.3v0.1h5.5v1H-548.5
	L-548.5,501.4z"/>
<path fill="#231F20" d="M-539.9,495.3c0,4.2-1.6,6.3-4.9,6.3c-0.6,0-1,0-1.3-0.1v-1c0.4,0.1,0.8,0.2,1.3,0.2c1.2,0,2.1-0.4,2.7-1.1
	c0.6-0.7,0.9-1.8,1-3.3h-0.1c-0.3,0.4-0.6,0.7-1.1,0.9c-0.4,0.2-0.9,0.3-1.5,0.3c-0.9,0-1.7-0.3-2.3-0.8s-0.8-1.4-0.8-2.4
	c0-1.1,0.3-2,0.9-2.6c0.6-0.6,1.4-1,2.5-1c0.7,0,1.4,0.2,1.9,0.6s1,0.9,1.3,1.6C-540.1,493.6-539.9,494.3-539.9,495.3L-539.9,495.3z
	 M-543.6,491.7c-0.7,0-1.2,0.2-1.6,0.7c-0.4,0.5-0.6,1.1-0.6,1.9c0,0.7,0.2,1.3,0.5,1.7c0.4,0.4,0.9,0.6,1.6,0.6
	c0.4,0,0.9-0.1,1.2-0.3c0.4-0.2,0.7-0.4,0.9-0.7c0.2-0.3,0.3-0.6,0.3-1c0-0.5-0.1-1-0.3-1.4c-0.2-0.4-0.5-0.8-0.8-1
	C-542.7,491.8-543.1,491.7-543.6,491.7z"/>
<path fill="#231F20" d="M-534,493.9c0,1.1-0.2,2-0.6,2.5c-0.4,0.6-0.9,0.9-1.6,0.9s-1.2-0.3-1.6-0.9c-0.4-0.6-0.6-1.4-0.6-2.5
	s0.2-1.9,0.5-2.5c0.4-0.6,0.9-0.8,1.6-0.8s1.3,0.3,1.6,0.9C-534.4,492.2-534,492.9-534,493.9L-534,493.9z M-537.4,493.9
	c0,0.8,0.1,1.5,0.3,1.9c0.2,0.4,0.5,0.6,0.9,0.6c0.8,0,1.2-0.8,1.2-2.5s-0.4-2.5-1.2-2.5c-0.4,0-0.7,0.2-0.9,0.6
	C-537.3,492.4-537.4,493.2-537.4,493.9z M-529.5,490.8l-5.9,10.7h-1.1l5.9-10.7H-529.5z M-527.6,498.3c0,1.1-0.2,1.9-0.6,2.5
	c-0.4,0.6-0.9,0.9-1.6,0.9s-1.2-0.3-1.6-0.9c-0.4-0.6-0.6-1.4-0.6-2.5s0.2-1.9,0.5-2.5c0.4-0.6,0.9-0.8,1.6-0.8s1.2,0.3,1.6,0.9
	C-527.8,496.3-527.6,497.2-527.6,498.3L-527.6,498.3z M-530.9,498.3c0,0.8,0.1,1.5,0.3,1.9c0.2,0.4,0.5,0.6,0.9,0.6
	c0.4,0,0.7-0.2,0.9-0.6c0.2-0.4,0.3-1,0.3-1.9c0-0.8-0.1-1.5-0.3-1.9c-0.2-0.4-0.5-0.6-0.9-0.6c-0.4,0-0.7,0.2-0.9,0.6
	C-530.8,496.8-530.9,497.4-530.9,498.3z"/>
<path fill="#231F20" d="M-560.7,510.1v4.5h-1.2v-10.7h2.9c1.3,0,2.3,0.3,2.9,0.8c0.6,0.5,0.9,1.3,0.9,2.3c0,1.4-0.7,2.4-2.2,2.9
	l2.9,4.8h-1.5l-2.6-4.5L-560.7,510.1L-560.7,510.1L-560.7,510.1z M-560.7,508.9h1.7c0.9,0,1.5-0.2,1.9-0.5c0.4-0.3,0.6-0.9,0.6-1.6
	s-0.2-1.2-0.6-1.5c-0.4-0.3-1.1-0.5-2-0.5h-1.6C-560.7,504.9-560.7,508.9-560.7,508.9z"/>
<path fill="#231F20" d="M-552.7,514.4v-10.7h1.3v10.7H-552.7z"/>
<path fill="#231F20" d="M-543.8,508.9h3.6v5.2c-0.6,0.2-1.1,0.3-1.7,0.4c-0.6,0.1-1.3,0.1-2,0.1c-1.6,0-2.9-0.5-3.8-1.4
	c-0.9-1-1.4-2.3-1.4-4.1c0-1.1,0.2-2.1,0.7-2.9c0.4-0.8,1.1-1.5,1.9-1.9s1.8-0.7,3-0.7c1.1,0,2.2,0.2,3.2,0.6l-0.5,1.1
	c-1-0.4-1.9-0.6-2.8-0.6c-1.3,0-2.3,0.4-3.1,1.2c-0.8,0.8-1.1,1.9-1.1,3.2c0,1.4,0.4,2.5,1.1,3.3c0.7,0.7,1.7,1.1,3.1,1.1
	c0.7,0,1.5-0.1,2.2-0.3V510h-2.4L-543.8,508.9L-543.8,508.9z"/>
<path fill="#231F20" d="M-529.4,514.4h-1.2v-5h-5.6v5h-1.2v-10.7h1.2v4.6h5.6v-4.6h1.2V514.4z"/>
<path fill="#231F20" d="M-523.2,514.4h-1.2v-9.6h-3.4v-1.1h8v1.1h-3.4V514.4L-523.2,514.4z"/>
<path fill="#C95145" d="M-574.1,455.7c0,0.7-0.2,1.2-0.6,1.7c-0.4,0.4-0.9,0.7-1.6,0.9v0.1c0.9,0.1,1.5,0.4,1.9,0.8
	c0.4,0.4,0.6,1,0.6,1.7c0,1-0.4,1.8-1.1,2.4c-0.7,0.5-1.7,0.8-3,0.8c-0.6,0-1.1,0-1.6-0.1s-0.9-0.2-1.4-0.5v-1.2
	c0.5,0.2,1,0.4,1.5,0.5s1,0.2,1.5,0.2c1.9,0,2.8-0.7,2.8-2.2c0-1.3-1-1.9-3.1-1.9h-1.1v-1h1.1c0.8,0,1.5-0.2,2-0.6s0.7-0.9,0.7-1.5
	c0-0.5-0.2-0.9-0.5-1.2c-0.4-0.3-0.8-0.4-1.5-0.4c-0.5,0-0.9,0.1-1.3,0.2c-0.4,0.1-0.9,0.4-1.4,0.7l-0.6-0.8
	c0.4-0.3,0.9-0.6,1.5-0.8c0.6-0.2,1.2-0.3,1.8-0.3c1,0,1.8,0.2,2.4,0.7C-574.4,454.2-574.1,454.8-574.1,455.7z"/>
<path fill="#C95145" d="M-564.6,461.3h-1.6v2.5h-1.2v-2.5h-5.2v-1.1l5.1-7.2h1.3v7.2h1.6C-564.6,460.3-564.6,461.3-564.6,461.3z
	 M-567.4,460.3v-3.6c0-0.7,0-1.5,0.1-2.4h-0.1c-0.2,0.5-0.5,0.9-0.7,1.2l-3.3,4.8H-567.4z"/>
<path fill="#C95145" d="M-559.2,456.3c0,1.1-0.2,2-0.6,2.5c-0.4,0.6-0.9,0.9-1.6,0.9s-1.2-0.3-1.6-0.9c-0.4-0.6-0.6-1.4-0.6-2.5
	s0.2-1.9,0.5-2.5c0.4-0.6,0.9-0.8,1.6-0.8s1.3,0.3,1.6,0.9C-559.6,454.5-559.2,455.3-559.2,456.3z M-562.6,456.3
	c0,0.8,0.1,1.5,0.3,1.9c0.2,0.4,0.5,0.6,0.9,0.6c0.8,0,1.2-0.8,1.2-2.5s-0.4-2.5-1.2-2.5c-0.4,0-0.7,0.2-0.9,0.6
	C-562.5,454.8-562.6,455.5-562.6,456.3z M-554.7,453.1l-5.9,10.7h-1.1l5.9-10.7H-554.7z M-552.8,460.6c0,1.1-0.2,1.9-0.6,2.5
	c-0.4,0.6-0.9,0.9-1.6,0.9s-1.2-0.3-1.6-0.9c-0.4-0.6-0.6-1.4-0.6-2.5s0.2-1.9,0.5-2.5c0.4-0.6,0.9-0.8,1.6-0.8s1.2,0.3,1.6,0.9
	C-553,458.7-552.8,459.4-552.8,460.6z M-556.1,460.6c0,0.8,0.1,1.5,0.3,1.9c0.2,0.4,0.5,0.6,0.9,0.6c0.4,0,0.7-0.2,0.9-0.6
	s0.3-1,0.3-1.9c0-0.8-0.1-1.5-0.3-1.9c-0.2-0.4-0.5-0.6-0.9-0.6c-0.4,0-0.7,0.2-0.9,0.6C-556,459.2-556.1,459.8-556.1,460.6z"/>
<path fill="#C95145" d="M-585.7,466.1h3c1.4,0,2.4,0.2,3.1,0.6c0.6,0.4,1,1.1,1,2c0,0.6-0.2,1.2-0.5,1.6c-0.4,0.4-0.9,0.7-1.5,0.8
	v0.1c1.6,0.3,2.4,1.1,2.4,2.6c0,1-0.3,1.7-1,2.2c-0.6,0.5-1.6,0.8-2.7,0.8h-3.7L-585.7,466.1L-585.7,466.1z M-584.4,470.7h2
	c0.9,0,1.5-0.1,1.9-0.4c0.4-0.3,0.6-0.7,0.6-1.4c0-0.6-0.2-1-0.6-1.3c-0.4-0.3-1.1-0.4-2.1-0.4h-1.8
	C-584.4,467.2-584.4,470.7-584.4,470.7z M-584.4,471.8v4h2.2c0.9,0,1.5-0.2,2-0.5c0.4-0.3,0.7-0.9,0.7-1.6s-0.2-1.2-0.7-1.5
	c-0.4-0.3-1.1-0.5-2-0.5L-584.4,471.8L-584.4,471.8z"/>
<path fill="#C95145" d="M-566.6,471.4c0,1.7-0.4,3.1-1.3,4c-0.9,1-2.1,1.5-3.6,1.5c-1.6,0-2.8-0.5-3.7-1.4c-0.9-1-1.3-2.3-1.3-4.1
	c0-1.7,0.4-3.1,1.3-4.1c0.9-1,2.1-1.4,3.7-1.4c1.5,0,2.7,0.5,3.6,1.5C-567.1,468.3-566.6,469.8-566.6,471.4z M-575.2,471.4
	c0,1.5,0.3,2.6,0.9,3.3c0.6,0.8,1.5,1.1,2.7,1.1s2.1-0.4,2.7-1.1c0.6-0.7,0.9-1.8,0.9-3.3c0-1.4-0.3-2.5-0.9-3.3
	c-0.6-0.7-1.5-1.1-2.7-1.1s-2.1,0.4-2.7,1.1C-574.9,468.9-575.2,469.9-575.2,471.4z"/>
<path fill="#C95145" d="M-561,476.8h-1.2v-9.6h-3.4v-1.1h8v1.1h-3.4V476.8L-561,476.8z"/>
<path fill="#C95145" d="M-547.8,476.8h-1.2v-5h-5.6v5h-1.2v-10.7h1.2v4.6h5.6v-4.6h1.2V476.8L-547.8,476.8z"/>
<path fill="#231F20" d="M-575,454.8c0,0.7-0.2,1.2-0.6,1.7c-0.4,0.4-0.9,0.7-1.6,0.9v0.1c0.9,0.1,1.5,0.4,1.9,0.8
	c0.4,0.4,0.6,1,0.6,1.7c0,1-0.4,1.8-1.1,2.4c-0.7,0.5-1.7,0.8-3,0.8c-0.6,0-1.1,0-1.6-0.1s-0.9-0.2-1.4-0.5v-1.2
	c0.5,0.2,1,0.4,1.5,0.5s1,0.2,1.5,0.2c1.9,0,2.8-0.7,2.8-2.2c0-1.3-1-1.9-3.1-1.9h-1.1v-1h1.1c0.8,0,1.5-0.2,2-0.6s0.7-0.9,0.7-1.5
	c0-0.5-0.2-0.9-0.5-1.2c-0.4-0.3-0.8-0.4-1.5-0.4c-0.5,0-0.9,0.1-1.3,0.2c-0.4,0.1-0.9,0.4-1.4,0.7l-0.6-0.8
	c0.4-0.3,0.9-0.6,1.5-0.8c0.6-0.2,1.2-0.3,1.8-0.3c1,0,1.8,0.2,2.4,0.7C-575.3,453.3-575,453.9-575,454.8z"/>
<path fill="#231F20" d="M-565.5,460.4h-1.6v2.5h-1.2v-2.5h-5.2v-1.1l5.1-7.2h1.3v7.2h1.6C-565.5,459.3-565.5,460.4-565.5,460.4z
	 M-568.3,459.3v-3.6c0-0.7,0-1.5,0.1-2.4h-0.1c-0.2,0.5-0.5,0.9-0.7,1.2l-3.3,4.8H-568.3z"/>
<path fill="#231F20" d="M-560.1,455.4c0,1.1-0.2,2-0.6,2.5c-0.4,0.6-0.9,0.9-1.6,0.9s-1.2-0.3-1.6-0.9c-0.4-0.6-0.6-1.4-0.6-2.5
	s0.2-1.9,0.5-2.5c0.4-0.6,0.9-0.8,1.6-0.8s1.3,0.3,1.6,0.9C-560.5,453.6-560.1,454.4-560.1,455.4z M-563.5,455.4
	c0,0.8,0.1,1.5,0.3,1.9c0.2,0.4,0.5,0.6,0.9,0.6c0.8,0,1.2-0.8,1.2-2.5s-0.4-2.5-1.2-2.5c-0.4,0-0.7,0.2-0.9,0.6
	C-563.4,453.9-563.5,454.6-563.5,455.4z M-555.5,452.2l-5.9,10.7h-1.1l5.9-10.7H-555.5L-555.5,452.2z M-553.7,459.7
	c0,1.1-0.2,1.9-0.6,2.5c-0.4,0.6-0.9,0.9-1.6,0.9s-1.2-0.3-1.6-0.9c-0.4-0.6-0.6-1.4-0.6-2.5s0.2-1.9,0.5-2.5
	c0.4-0.6,0.9-0.8,1.6-0.8s1.2,0.3,1.6,0.9C-553.8,457.8-553.7,458.6-553.7,459.7z M-557,459.7c0,0.8,0.1,1.5,0.3,1.9
	c0.2,0.4,0.5,0.6,0.9,0.6c0.4,0,0.7-0.2,0.9-0.6c0.2-0.4,0.3-1,0.3-1.9c0-0.8-0.1-1.5-0.3-1.9s-0.5-0.6-0.9-0.6
	c-0.4,0-0.7,0.2-0.9,0.6C-556.9,458.3-557,458.9-557,459.7z"/>
<path fill="#231F20" d="M-586.5,465.2h3c1.4,0,2.4,0.2,3.1,0.6c0.6,0.4,1,1.1,1,2c0,0.6-0.2,1.2-0.5,1.6c-0.4,0.4-0.9,0.7-1.5,0.8
	v0.1c1.6,0.3,2.4,1.1,2.4,2.6c0,1-0.3,1.7-1,2.2c-0.6,0.5-1.6,0.8-2.7,0.8h-3.7L-586.5,465.2L-586.5,465.2z M-585.3,469.8h2.1
	c0.9,0,1.5-0.1,1.9-0.4c0.4-0.3,0.6-0.7,0.6-1.4c0-0.6-0.2-1-0.6-1.3c-0.4-0.3-1.1-0.4-2.1-0.4h-1.8L-585.3,469.8L-585.3,469.8
	L-585.3,469.8z M-585.3,470.9v4h2.2c0.9,0,1.5-0.2,2-0.5c0.4-0.3,0.7-0.9,0.7-1.6s-0.2-1.2-0.7-1.5c-0.4-0.3-1.1-0.5-2-0.5
	L-585.3,470.9L-585.3,470.9z"/>
<path fill="#231F20" d="M-567.5,470.6c0,1.7-0.4,3.1-1.3,4c-0.9,1-2.1,1.5-3.6,1.5c-1.6,0-2.8-0.5-3.7-1.4c-0.9-1-1.3-2.3-1.3-4.1
	c0-1.7,0.4-3.1,1.3-4.1c0.9-1,2.1-1.4,3.7-1.4c1.5,0,2.7,0.5,3.6,1.5C-568,467.4-567.5,468.9-567.5,470.6z M-576.1,470.6
	c0,1.5,0.3,2.6,0.9,3.3c0.6,0.8,1.5,1.1,2.7,1.1s2.1-0.4,2.7-1.1c0.6-0.7,0.9-1.8,0.9-3.3c0-1.4-0.3-2.5-0.9-3.3
	c-0.6-0.7-1.5-1.1-2.7-1.1s-2.1,0.4-2.7,1.1C-575.8,468.1-576.1,469.2-576.1,470.6z"/>
<path fill="#231F20" d="M-561.8,475.9h-1.2v-9.6h-3.4v-1.1h8v1.1h-3.4V475.9L-561.8,475.9z"/>
<path fill="#231F20" d="M-548.7,475.9h-1.2v-5h-5.6v5h-1.2v-10.7h1.2v4.6h5.6v-4.6h1.2V475.9z"/>
</svg>
