<?xml version="1.0" encoding="utf-8"?>
<!-- Generator: Adobe Illustrator 19.1.0, SVG Export Plug-In . SVG Version: 6.00 Build 0)  -->
<svg version="1.1" id="Layer_1" xmlns="http://www.w3.org/2000/svg" xmlns:xlink="http://www.w3.org/1999/xlink" x="0px" y="0px"
	 width="285.1px" height="218.1px" viewBox="0 0 285.1 218.1" style="enable-background:new 0 0 285.1 218.1;" xml:space="preserve"
	>
<style type="text/css">
	.st0{fill:#90684D;}
	.st1{fill:#C95145;}
	.st2{fill:#344B62;}
	.st3{fill:none;}
	.st4{fill:#FCD4BB;}
	.st5{fill:#1A2C3E;}
	.st6{fill:#B17F60;}
	.st7{fill:#F26F5B;}
	.st8{fill:#231F20;}
</style>
<path class="st0" d="M281.2,6.8H122.3c-2.1,0-3.8,1.7-3.8,3.8v203.7c0,2.1,1.7,3.8,3.8,3.8h158.9c2.1,0,3.8-1.7,3.8-3.8V10.6
	C285.1,8.5,283.4,6.8,281.2,6.8z"/>
<path class="st1" d="M134.5,6.7H10.7c-1.9,0-3.4,1.5-3.4,3.4v204.6c0,1.9,1.5,3.4,3.4,3.4h123.8c1.9,0,3.4-1.5,3.4-3.4V10.1
	C137.8,8.2,136.3,6.7,134.5,6.7z"/>
<rect x="97.5" y="193.6" class="st1" width="40.4" height="24.5"/>
<path class="st2" d="M270.8,0H4.9C2.2,0,0,2.2,0,4.9v201.5c0,2.7,2.2,4.9,4.9,4.9h265.9c2.7,0,4.9-2.2,4.9-4.9V4.9
	C275.7,2.2,273.5,0,270.8,0z"/>
<g>
	<rect x="7.7" y="24.6" class="st3" width="116.6" height="64.1"/>
	<path class="st4" d="M26,32.2l-2.4-6.3h0c0,0.5,0.1,1.1,0.1,1.8v4.5h-0.8V25h1.2l2.3,5.9h0l2.3-5.9H30v7.1h-0.8v-4.6
		c0-0.5,0-1.1,0.1-1.7h0l-2.4,6.3H26z"/>
	<path class="st4" d="M36.4,29.5c0,0.9-0.2,1.6-0.7,2c-0.4,0.5-1,0.7-1.8,0.7c-0.5,0-0.9-0.1-1.3-0.3s-0.7-0.5-0.9-1
		s-0.3-0.9-0.3-1.5c0-0.9,0.2-1.6,0.7-2c0.4-0.5,1-0.7,1.8-0.7c0.7,0,1.3,0.2,1.8,0.7S36.4,28.6,36.4,29.5z M32.3,29.5
		c0,0.7,0.1,1.2,0.4,1.6s0.7,0.5,1.2,0.5s0.9-0.2,1.2-0.5c0.3-0.4,0.4-0.9,0.4-1.6c0-0.7-0.1-1.2-0.4-1.5c-0.3-0.4-0.7-0.5-1.2-0.5
		c-0.5,0-0.9,0.2-1.2,0.5S32.3,28.8,32.3,29.5z"/>
	<path class="st4" d="M40.3,26.7c0.2,0,0.5,0,0.6,0.1l-0.1,0.8c-0.2,0-0.4-0.1-0.6-0.1c-0.4,0-0.8,0.2-1.1,0.5s-0.5,0.8-0.5,1.3v2.9
		h-0.8v-5.4h0.7l0.1,1h0c0.2-0.3,0.4-0.6,0.7-0.8S39.9,26.7,40.3,26.7z"/>
	<path class="st4" d="M44.2,32.3c-0.8,0-1.4-0.2-1.9-0.7s-0.7-1.2-0.7-2c0-0.9,0.2-1.5,0.6-2.1s1-0.8,1.7-0.8c0.7,0,1.2,0.2,1.6,0.7
		c0.4,0.4,0.6,1,0.6,1.7v0.5h-3.7c0,0.6,0.2,1.1,0.5,1.4s0.7,0.5,1.3,0.5c0.6,0,1.1-0.1,1.7-0.4v0.7c-0.3,0.1-0.6,0.2-0.8,0.3
		C44.8,32.2,44.5,32.3,44.2,32.3z M44,27.4c-0.4,0-0.8,0.1-1,0.4s-0.4,0.7-0.5,1.2h2.8c0-0.5-0.1-0.9-0.3-1.2
		C44.7,27.5,44.4,27.4,44,27.4z"/>
	<path class="st4" d="M51.9,31.6c0.1,0,0.3,0,0.4,0c0.1,0,0.2,0,0.3-0.1v0.6c-0.1,0-0.2,0.1-0.4,0.1c-0.2,0-0.3,0-0.5,0
		c-1,0-1.6-0.5-1.6-1.6v-3.2h-0.8V27l0.8-0.3l0.3-1.1H51v1.2h1.6v0.6H51v3.1c0,0.3,0.1,0.6,0.2,0.7S51.6,31.6,51.9,31.6z"/>
	<path class="st4" d="M57.3,32.2v-3.5c0-0.4-0.1-0.8-0.3-1s-0.5-0.3-0.9-0.3c-0.6,0-1,0.2-1.2,0.5s-0.4,0.8-0.4,1.5v2.8h-0.8v-7.6
		h0.8v2.3c0,0.3,0,0.5,0,0.7h0c0.2-0.3,0.4-0.5,0.7-0.6c0.3-0.1,0.6-0.2,1-0.2c0.7,0,1.1,0.2,1.5,0.5c0.3,0.3,0.5,0.8,0.5,1.5v3.5
		H57.3z"/>
	<path class="st4" d="M63.1,32.2l-0.2-0.8h0c-0.3,0.3-0.5,0.6-0.8,0.7c-0.3,0.1-0.6,0.2-1,0.2c-0.5,0-0.9-0.1-1.2-0.4
		s-0.5-0.7-0.5-1.2c0-1.1,0.9-1.6,2.6-1.7l0.9,0v-0.3c0-0.4-0.1-0.7-0.3-0.9c-0.2-0.2-0.5-0.3-0.9-0.3c-0.4,0-1,0.1-1.5,0.4L60,27.2
		c0.3-0.1,0.6-0.3,0.9-0.3s0.6-0.1,0.9-0.1c0.6,0,1.1,0.1,1.4,0.4s0.5,0.7,0.5,1.4v3.7H63.1z M61.3,31.6c0.5,0,0.9-0.1,1.2-0.4
		s0.4-0.7,0.4-1.2v-0.5l-0.8,0c-0.6,0-1.1,0.1-1.4,0.3c-0.3,0.2-0.4,0.5-0.4,0.8c0,0.3,0.1,0.5,0.3,0.7S60.9,31.6,61.3,31.6z"/>
	<path class="st4" d="M69,32.2v-3.5c0-0.4-0.1-0.8-0.3-1s-0.5-0.3-0.9-0.3c-0.6,0-1,0.2-1.2,0.5s-0.4,0.8-0.4,1.5v2.8h-0.8v-5.4H66
		l0.1,0.7h0c0.2-0.3,0.4-0.5,0.7-0.6c0.3-0.1,0.6-0.2,1-0.2c0.6,0,1.1,0.2,1.5,0.5c0.3,0.3,0.5,0.8,0.5,1.5v3.5H69z"/>
	<path class="st4" d="M76.7,32.2h-0.8v-5.1c0-0.4,0-0.8,0-1.2c-0.1,0.1-0.1,0.1-0.2,0.2s-0.5,0.4-1.2,1l-0.4-0.6L76,25h0.7V32.2z"/>
	<path class="st4" d="M79.5,29.1c0-1.4,0.3-2.5,0.8-3.1c0.5-0.7,1.4-1,2.4-1c0.4,0,0.7,0,0.9,0.1v0.7c-0.3-0.1-0.5-0.1-0.9-0.1
		c-0.8,0-1.3,0.2-1.8,0.7c-0.4,0.5-0.6,1.2-0.7,2.2h0.1c0.4-0.6,0.9-0.8,1.7-0.8c0.6,0,1.1,0.2,1.5,0.6s0.6,0.9,0.6,1.6
		c0,0.7-0.2,1.3-0.6,1.8c-0.4,0.4-1,0.6-1.6,0.6c-0.7,0-1.3-0.3-1.8-0.8C79.7,30.9,79.5,30.1,79.5,29.1z M81.9,31.6
		c0.5,0,0.8-0.1,1.1-0.4c0.3-0.3,0.4-0.7,0.4-1.3c0-0.5-0.1-0.8-0.4-1.1s-0.6-0.4-1.1-0.4c-0.3,0-0.6,0.1-0.8,0.2s-0.4,0.3-0.6,0.5
		s-0.2,0.4-0.2,0.7c0,0.3,0.1,0.6,0.2,0.9s0.3,0.5,0.6,0.7S81.6,31.6,81.9,31.6z"/>
	<path class="st4" d="M89.9,28.6c0,1.2-0.2,2.2-0.6,2.8s-1,0.9-1.8,0.9c-0.8,0-1.4-0.3-1.8-0.9c-0.4-0.6-0.6-1.5-0.6-2.7
		c0-1.2,0.2-2.2,0.6-2.8s1-0.9,1.8-0.9c0.8,0,1.4,0.3,1.8,0.9S89.9,27.4,89.9,28.6z M86,28.6c0,1,0.1,1.8,0.4,2.3
		c0.2,0.5,0.6,0.7,1.2,0.7c0.5,0,0.9-0.2,1.2-0.7c0.2-0.5,0.4-1.2,0.4-2.3s-0.1-1.8-0.4-2.3c-0.2-0.5-0.6-0.7-1.2-0.7
		c-0.5,0-0.9,0.2-1.2,0.7C86.1,26.8,86,27.5,86,28.6z"/>
	<path class="st4" d="M92.1,31l0.1,0.1c-0.1,0.3-0.2,0.7-0.4,1.1c-0.2,0.4-0.3,0.8-0.5,1.2h-0.6c0.1-0.3,0.2-0.8,0.3-1.3
		s0.2-0.9,0.2-1.2H92.1z"/>
	<path class="st4" d="M98.1,28.6c0,1.2-0.2,2.2-0.6,2.8s-1,0.9-1.8,0.9c-0.8,0-1.4-0.3-1.8-0.9c-0.4-0.6-0.6-1.5-0.6-2.7
		c0-1.2,0.2-2.2,0.6-2.8s1-0.9,1.8-0.9c0.8,0,1.4,0.3,1.8,0.9S98.1,27.4,98.1,28.6z M94.2,28.6c0,1,0.1,1.8,0.4,2.3
		c0.2,0.5,0.6,0.7,1.2,0.7c0.5,0,0.9-0.2,1.2-0.7c0.2-0.5,0.4-1.2,0.4-2.3s-0.1-1.8-0.4-2.3c-0.2-0.5-0.6-0.7-1.2-0.7
		c-0.5,0-0.9,0.2-1.2,0.7C94.3,26.8,94.2,27.5,94.2,28.6z"/>
	<path class="st4" d="M103.8,28.6c0,1.2-0.2,2.2-0.6,2.8s-1,0.9-1.8,0.9c-0.8,0-1.4-0.3-1.8-0.9c-0.4-0.6-0.6-1.5-0.6-2.7
		c0-1.2,0.2-2.2,0.6-2.8s1-0.9,1.8-0.9c0.8,0,1.4,0.3,1.8,0.9S103.8,27.4,103.8,28.6z M99.9,28.6c0,1,0.1,1.8,0.4,2.3
		c0.2,0.5,0.6,0.7,1.2,0.7c0.5,0,0.9-0.2,1.2-0.7c0.2-0.5,0.4-1.2,0.4-2.3s-0.1-1.8-0.4-2.3c-0.2-0.5-0.6-0.7-1.2-0.7
		c-0.5,0-0.9,0.2-1.2,0.7C100,26.8,99.9,27.5,99.9,28.6z"/>
	<path class="st4" d="M109.5,28.6c0,1.2-0.2,2.2-0.6,2.8s-1,0.9-1.8,0.9c-0.8,0-1.4-0.3-1.8-0.9c-0.4-0.6-0.6-1.5-0.6-2.7
		c0-1.2,0.2-2.2,0.6-2.8s1-0.9,1.8-0.9c0.8,0,1.4,0.3,1.8,0.9S109.5,27.4,109.5,28.6z M105.6,28.6c0,1,0.1,1.8,0.4,2.3
		c0.2,0.5,0.6,0.7,1.2,0.7c0.5,0,0.9-0.2,1.2-0.7c0.2-0.5,0.4-1.2,0.4-2.3s-0.1-1.8-0.4-2.3c-0.2-0.5-0.6-0.7-1.2-0.7
		c-0.5,0-0.9,0.2-1.2,0.7C105.7,26.8,105.6,27.5,105.6,28.6z"/>
	<path class="st4" d="M13.8,44.2l-0.9-2.3h-2.9l-0.9,2.3H8.4l2.8-7.2h0.7l2.8,7.2H13.8z M12.7,41.1l-0.8-2.2c-0.1-0.3-0.2-0.6-0.3-1
		c-0.1,0.3-0.2,0.7-0.3,1l-0.8,2.2H12.7z"/>
	<path class="st4" d="M22.4,44.2v-3.5c0-0.4-0.1-0.7-0.3-1c-0.2-0.2-0.5-0.3-0.8-0.3c-0.5,0-0.9,0.1-1.1,0.4s-0.4,0.7-0.4,1.3v3H19
		v-3.5c0-0.4-0.1-0.7-0.3-1c-0.2-0.2-0.5-0.3-0.9-0.3c-0.5,0-0.9,0.2-1.1,0.5c-0.2,0.3-0.4,0.8-0.4,1.5v2.8h-0.8v-5.4h0.7l0.1,0.7h0
		c0.2-0.3,0.4-0.5,0.6-0.6s0.6-0.2,0.9-0.2c0.8,0,1.4,0.3,1.6,0.9h0c0.2-0.3,0.4-0.5,0.7-0.7s0.6-0.2,1-0.2c0.6,0,1.1,0.2,1.4,0.5
		c0.3,0.3,0.5,0.8,0.5,1.5v3.5H22.4z"/>
	<path class="st4" d="M27.1,44.3c-0.8,0-1.4-0.2-1.9-0.7s-0.7-1.2-0.7-2c0-0.9,0.2-1.5,0.6-2.1s1-0.8,1.7-0.8c0.7,0,1.2,0.2,1.6,0.7
		c0.4,0.4,0.6,1,0.6,1.7v0.5h-3.7c0,0.6,0.2,1.1,0.5,1.4s0.7,0.5,1.3,0.5c0.6,0,1.1-0.1,1.7-0.4v0.7c-0.3,0.1-0.6,0.2-0.8,0.3
		C27.8,44.2,27.5,44.3,27.1,44.3z M26.9,39.4c-0.4,0-0.8,0.1-1,0.4s-0.4,0.7-0.5,1.2h2.8c0-0.5-0.1-0.9-0.3-1.2
		C27.6,39.5,27.3,39.4,26.9,39.4z"/>
	<path class="st4" d="M32.9,38.7c0.2,0,0.5,0,0.6,0.1l-0.1,0.8c-0.2,0-0.4-0.1-0.6-0.1c-0.4,0-0.8,0.2-1.1,0.5s-0.5,0.8-0.5,1.3v2.9
		h-0.8v-5.4h0.7l0.1,1h0c0.2-0.3,0.4-0.6,0.7-0.8S32.6,38.7,32.9,38.7z"/>
	<path class="st4" d="M34.5,37.4c0-0.2,0-0.3,0.1-0.4c0.1-0.1,0.2-0.1,0.3-0.1c0.1,0,0.2,0,0.3,0.1s0.1,0.2,0.1,0.4s0,0.3-0.1,0.4
		c-0.1,0.1-0.2,0.1-0.3,0.1c-0.1,0-0.3,0-0.3-0.1C34.5,37.7,34.5,37.5,34.5,37.4z M35.3,44.2h-0.8v-5.4h0.8V44.2z"/>
	<path class="st4" d="M39.2,44.3c-0.8,0-1.4-0.2-1.8-0.7c-0.4-0.5-0.6-1.2-0.6-2c0-0.9,0.2-1.6,0.6-2.1s1-0.7,1.8-0.7
		c0.3,0,0.5,0,0.8,0.1s0.5,0.1,0.6,0.2l-0.2,0.7c-0.2-0.1-0.4-0.1-0.6-0.2c-0.2,0-0.4-0.1-0.6-0.1c-1.1,0-1.6,0.7-1.6,2.1
		c0,0.7,0.1,1.2,0.4,1.5s0.7,0.5,1.2,0.5c0.4,0,0.9-0.1,1.4-0.3V44C40.2,44.2,39.7,44.3,39.2,44.3z"/>
	<path class="st4" d="M45.1,44.2L45,43.4h0c-0.3,0.3-0.5,0.6-0.8,0.7c-0.3,0.1-0.6,0.2-1,0.2c-0.5,0-0.9-0.1-1.2-0.4
		s-0.5-0.7-0.5-1.2c0-1.1,0.9-1.6,2.6-1.7l0.9,0v-0.3c0-0.4-0.1-0.7-0.3-0.9c-0.2-0.2-0.5-0.3-0.9-0.3c-0.4,0-1,0.1-1.5,0.4L42,39.2
		c0.3-0.1,0.6-0.3,0.9-0.3s0.6-0.1,0.9-0.1c0.6,0,1.1,0.1,1.4,0.4s0.5,0.7,0.5,1.4v3.7H45.1z M43.3,43.6c0.5,0,0.9-0.1,1.2-0.4
		s0.4-0.7,0.4-1.2v-0.5l-0.8,0c-0.6,0-1.1,0.1-1.4,0.3c-0.3,0.2-0.4,0.5-0.4,0.8c0,0.3,0.1,0.5,0.3,0.7S43,43.6,43.3,43.6z"/>
	<path class="st4" d="M51.1,44.2v-3.5c0-0.4-0.1-0.8-0.3-1s-0.5-0.3-0.9-0.3c-0.6,0-1,0.2-1.2,0.5s-0.4,0.8-0.4,1.5v2.8h-0.8v-5.4
		H48l0.1,0.7h0c0.2-0.3,0.4-0.5,0.7-0.6c0.3-0.1,0.6-0.2,1-0.2c0.6,0,1.1,0.2,1.5,0.5c0.3,0.3,0.5,0.8,0.5,1.5v3.5H51.1z"/>
	<path class="st4" d="M57,42.7c0,0.5-0.2,0.9-0.6,1.2s-0.9,0.4-1.6,0.4c-0.7,0-1.3-0.1-1.7-0.3v-0.8c0.3,0.1,0.5,0.2,0.8,0.3
		s0.6,0.1,0.9,0.1c0.4,0,0.7-0.1,1-0.2c0.2-0.1,0.3-0.3,0.3-0.6c0-0.2-0.1-0.4-0.3-0.5c-0.2-0.1-0.5-0.3-1.1-0.5
		c-0.5-0.2-0.9-0.3-1.1-0.5c-0.2-0.1-0.4-0.3-0.5-0.5s-0.2-0.4-0.2-0.6c0-0.4,0.2-0.8,0.5-1c0.4-0.3,0.8-0.4,1.5-0.4
		c0.6,0,1.1,0.1,1.7,0.4l-0.3,0.7c-0.5-0.2-1-0.3-1.5-0.3c-0.4,0-0.7,0.1-0.9,0.2S54,39.9,54,40.1c0,0.1,0,0.3,0.1,0.4
		s0.2,0.2,0.4,0.3s0.5,0.2,0.9,0.4c0.6,0.2,1.1,0.5,1.3,0.7S57,42.3,57,42.7z"/>
	<path class="st4" d="M62.6,43.6c0.1,0,0.3,0,0.4,0c0.1,0,0.2,0,0.3-0.1v0.6c-0.1,0-0.2,0.1-0.4,0.1c-0.2,0-0.3,0-0.5,0
		c-1,0-1.6-0.5-1.6-1.6v-3.2h-0.8V39l0.8-0.3l0.3-1.1h0.5v1.2h1.6v0.6h-1.6v3.1c0,0.3,0.1,0.6,0.2,0.7S62.4,43.6,62.6,43.6z"/>
	<path class="st4" d="M69,41.5c0,0.9-0.2,1.6-0.7,2c-0.4,0.5-1,0.7-1.8,0.7c-0.5,0-0.9-0.1-1.3-0.3s-0.7-0.5-0.9-1s-0.3-0.9-0.3-1.5
		c0-0.9,0.2-1.6,0.7-2c0.4-0.5,1-0.7,1.8-0.7c0.7,0,1.3,0.2,1.8,0.7S69,40.6,69,41.5z M65,41.5c0,0.7,0.1,1.2,0.4,1.6
		s0.7,0.5,1.2,0.5s0.9-0.2,1.2-0.5c0.3-0.4,0.4-0.9,0.4-1.6c0-0.7-0.1-1.2-0.4-1.5c-0.3-0.4-0.7-0.5-1.2-0.5c-0.5,0-0.9,0.2-1.2,0.5
		S65,40.8,65,41.5z"/>
	<path class="st4" d="M75.1,41.5c0,0.9-0.2,1.6-0.7,2c-0.4,0.5-1,0.7-1.8,0.7c-0.5,0-0.9-0.1-1.3-0.3s-0.7-0.5-0.9-1
		s-0.3-0.9-0.3-1.5c0-0.9,0.2-1.6,0.7-2c0.4-0.5,1-0.7,1.8-0.7c0.7,0,1.3,0.2,1.8,0.7S75.1,40.6,75.1,41.5z M71,41.5
		c0,0.7,0.1,1.2,0.4,1.6s0.7,0.5,1.2,0.5s0.9-0.2,1.2-0.5c0.3-0.4,0.4-0.9,0.4-1.6c0-0.7-0.1-1.2-0.4-1.5c-0.3-0.4-0.7-0.5-1.2-0.5
		c-0.5,0-0.9,0.2-1.2,0.5S71,40.8,71,41.5z"/>
	<path class="st4" d="M77.3,41.4c0.1-0.2,0.4-0.5,0.6-0.8l1.7-1.8h1l-2.2,2.3l2.3,3.1h-1l-1.9-2.5l-0.6,0.5v2h-0.8v-7.6h0.8v4
		C77.3,40.8,77.3,41,77.3,41.4L77.3,41.4z"/>
	<path class="st4" d="M87.6,44.2l-0.2-0.8h0c-0.3,0.3-0.5,0.6-0.8,0.7c-0.3,0.1-0.6,0.2-1,0.2c-0.5,0-0.9-0.1-1.2-0.4
		S84,43.2,84,42.7c0-1.1,0.9-1.6,2.6-1.7l0.9,0v-0.3c0-0.4-0.1-0.7-0.3-0.9c-0.2-0.2-0.5-0.3-0.9-0.3c-0.4,0-1,0.1-1.5,0.4l-0.2-0.6
		c0.3-0.1,0.6-0.3,0.9-0.3s0.6-0.1,0.9-0.1c0.6,0,1.1,0.1,1.4,0.4s0.5,0.7,0.5,1.4v3.7H87.6z M85.8,43.6c0.5,0,0.9-0.1,1.2-0.4
		s0.4-0.7,0.4-1.2v-0.5l-0.8,0c-0.6,0-1.1,0.1-1.4,0.3c-0.3,0.2-0.4,0.5-0.4,0.8c0,0.3,0.1,0.5,0.3,0.7S85.5,43.6,85.8,43.6z"/>
	<path class="st4" d="M96,42.7c0,0.5-0.2,0.9-0.6,1.2s-0.9,0.4-1.6,0.4c-0.7,0-1.3-0.1-1.7-0.3v-0.8c0.3,0.1,0.5,0.2,0.8,0.3
		s0.6,0.1,0.9,0.1c0.4,0,0.7-0.1,1-0.2c0.2-0.1,0.3-0.3,0.3-0.6c0-0.2-0.1-0.4-0.3-0.5c-0.2-0.1-0.5-0.3-1.1-0.5
		c-0.5-0.2-0.9-0.3-1.1-0.5c-0.2-0.1-0.4-0.3-0.5-0.5s-0.2-0.4-0.2-0.6c0-0.4,0.2-0.8,0.5-1c0.4-0.3,0.8-0.4,1.5-0.4
		c0.6,0,1.1,0.1,1.7,0.4l-0.3,0.7c-0.5-0.2-1-0.3-1.5-0.3c-0.4,0-0.7,0.1-0.9,0.2s-0.3,0.3-0.3,0.5c0,0.1,0,0.3,0.1,0.4
		s0.2,0.2,0.4,0.3s0.5,0.2,0.9,0.4c0.6,0.2,1.1,0.5,1.3,0.7S96,42.3,96,42.7z"/>
	<path class="st4" d="M99.8,44.3c-0.3,0-0.7-0.1-1-0.2c-0.3-0.1-0.5-0.3-0.7-0.6H98c0,0.3,0.1,0.6,0.1,0.9v2.2h-0.8v-7.8h0.7
		l0.1,0.7h0c0.2-0.3,0.5-0.5,0.7-0.6s0.6-0.2,1-0.2c0.7,0,1.3,0.2,1.6,0.7s0.6,1.2,0.6,2c0,0.9-0.2,1.6-0.6,2
		C101,44,100.5,44.3,99.8,44.3z M99.7,39.4c-0.5,0-0.9,0.2-1.2,0.5s-0.4,0.8-0.4,1.4v0.2c0,0.8,0.1,1.3,0.4,1.6
		c0.3,0.3,0.7,0.5,1.2,0.5c0.5,0,0.8-0.2,1.1-0.6s0.4-0.9,0.4-1.5c0-0.7-0.1-1.2-0.4-1.5C100.5,39.6,100.1,39.4,99.7,39.4z"/>
	<path class="st4" d="M105.7,44.3c-0.8,0-1.4-0.2-1.9-0.7s-0.7-1.2-0.7-2c0-0.9,0.2-1.5,0.6-2.1s1-0.8,1.7-0.8
		c0.7,0,1.2,0.2,1.6,0.7c0.4,0.4,0.6,1,0.6,1.7v0.5H104c0,0.6,0.2,1.1,0.5,1.4s0.7,0.5,1.3,0.5c0.6,0,1.1-0.1,1.7-0.4v0.7
		c-0.3,0.1-0.6,0.2-0.8,0.3C106.3,44.2,106,44.3,105.7,44.3z M105.5,39.4c-0.4,0-0.8,0.1-1,0.4S104,40.5,104,41h2.8
		c0-0.5-0.1-0.9-0.3-1.2C106.2,39.5,105.9,39.4,105.5,39.4z"/>
	<path class="st4" d="M111.2,44.3c-0.8,0-1.4-0.2-1.8-0.7c-0.4-0.5-0.6-1.2-0.6-2c0-0.9,0.2-1.6,0.6-2.1s1-0.7,1.8-0.7
		c0.3,0,0.5,0,0.8,0.1s0.5,0.1,0.6,0.2l-0.2,0.7c-0.2-0.1-0.4-0.1-0.6-0.2c-0.2,0-0.4-0.1-0.6-0.1c-1.1,0-1.6,0.7-1.6,2.1
		c0,0.7,0.1,1.2,0.4,1.5s0.7,0.5,1.2,0.5c0.4,0,0.9-0.1,1.4-0.3V44C112.2,44.2,111.7,44.3,111.2,44.3z"/>
	<path class="st4" d="M113.7,37.4c0-0.2,0-0.3,0.1-0.4c0.1-0.1,0.2-0.1,0.3-0.1c0.1,0,0.2,0,0.3,0.1s0.1,0.2,0.1,0.4s0,0.3-0.1,0.4
		c-0.1,0.1-0.2,0.1-0.3,0.1c-0.1,0-0.3,0-0.3-0.1C113.8,37.7,113.7,37.5,113.7,37.4z M114.6,44.2h-0.8v-5.4h0.8V44.2z"/>
	<path class="st4" d="M119.6,44.2l-0.2-0.8h0c-0.3,0.3-0.5,0.6-0.8,0.7c-0.3,0.1-0.6,0.2-1,0.2c-0.5,0-0.9-0.1-1.2-0.4
		s-0.5-0.7-0.5-1.2c0-1.1,0.9-1.6,2.6-1.7l0.9,0v-0.3c0-0.4-0.1-0.7-0.3-0.9c-0.2-0.2-0.5-0.3-0.9-0.3c-0.4,0-1,0.1-1.5,0.4
		l-0.2-0.6c0.3-0.1,0.6-0.3,0.9-0.3s0.6-0.1,0.9-0.1c0.6,0,1.1,0.1,1.4,0.4s0.5,0.7,0.5,1.4v3.7H119.6z M117.8,43.6
		c0.5,0,0.9-0.1,1.2-0.4s0.4-0.7,0.4-1.2v-0.5l-0.8,0c-0.6,0-1.1,0.1-1.4,0.3c-0.3,0.2-0.4,0.5-0.4,0.8c0,0.3,0.1,0.5,0.3,0.7
		S117.5,43.6,117.8,43.6z"/>
	<path class="st4" d="M122.7,44.2h-0.8v-7.6h0.8V44.2z"/>
	<path class="st4" d="M15.4,50.7c0.7,0,1.2,0.2,1.6,0.7c0.4,0.5,0.6,1.2,0.6,2s-0.2,1.6-0.6,2c-0.4,0.5-0.9,0.7-1.6,0.7
		c-0.3,0-0.7-0.1-1-0.2c-0.3-0.1-0.5-0.3-0.7-0.6h-0.1l-0.2,0.7h-0.6v-7.6h0.8v1.8c0,0.4,0,0.8,0,1.1h0C14.1,51,14.7,50.7,15.4,50.7
		z M15.3,51.4c-0.6,0-1,0.2-1.2,0.5c-0.2,0.3-0.4,0.9-0.4,1.6s0.1,1.3,0.4,1.6c0.3,0.3,0.7,0.5,1.2,0.5c0.5,0,0.9-0.2,1.1-0.5
		c0.2-0.4,0.4-0.9,0.4-1.6c0-0.7-0.1-1.2-0.4-1.6S15.8,51.4,15.3,51.4z"/>
	<path class="st4" d="M21.5,50.7c0.2,0,0.5,0,0.6,0.1L22,51.5c-0.2,0-0.4-0.1-0.6-0.1c-0.4,0-0.8,0.2-1.1,0.5s-0.5,0.8-0.5,1.3v2.9
		H19v-5.4h0.7l0.1,1h0c0.2-0.3,0.4-0.6,0.7-0.8S21.1,50.7,21.5,50.7z"/>
	<path class="st4" d="M26.4,56.2l-0.2-0.8h0c-0.3,0.3-0.5,0.6-0.8,0.7c-0.3,0.1-0.6,0.2-1,0.2c-0.5,0-0.9-0.1-1.2-0.4
		s-0.5-0.7-0.5-1.2c0-1.1,0.9-1.6,2.6-1.7l0.9,0v-0.3c0-0.4-0.1-0.7-0.3-0.9c-0.2-0.2-0.5-0.3-0.9-0.3c-0.4,0-1,0.1-1.5,0.4
		l-0.2-0.6c0.3-0.1,0.6-0.3,0.9-0.3s0.6-0.1,0.9-0.1c0.6,0,1.1,0.1,1.4,0.4s0.5,0.7,0.5,1.4v3.7H26.4z M24.6,55.6
		c0.5,0,0.9-0.1,1.2-0.4s0.4-0.7,0.4-1.2v-0.5l-0.8,0c-0.6,0-1.1,0.1-1.4,0.3c-0.3,0.2-0.4,0.5-0.4,0.8c0,0.3,0.1,0.5,0.3,0.7
		S24.3,55.6,24.6,55.6z"/>
	<path class="st4" d="M28.6,49.4c0-0.2,0-0.3,0.1-0.4c0.1-0.1,0.2-0.1,0.3-0.1c0.1,0,0.2,0,0.3,0.1s0.1,0.2,0.1,0.4s0,0.3-0.1,0.4
		c-0.1,0.1-0.2,0.1-0.3,0.1c-0.1,0-0.3,0-0.3-0.1C28.7,49.7,28.6,49.5,28.6,49.4z M29.5,56.2h-0.8v-5.4h0.8V56.2z"/>
	<path class="st4" d="M34.9,56.2v-3.5c0-0.4-0.1-0.8-0.3-1s-0.5-0.3-0.9-0.3c-0.6,0-1,0.2-1.2,0.5S32,52.7,32,53.4v2.8h-0.8v-5.4
		h0.7l0.1,0.7h0c0.2-0.3,0.4-0.5,0.7-0.6c0.3-0.1,0.6-0.2,1-0.2c0.6,0,1.1,0.2,1.5,0.5c0.3,0.3,0.5,0.8,0.5,1.5v3.5H34.9z"/>
	<path class="st4" d="M41.7,55.6c0.1,0,0.3,0,0.4,0c0.1,0,0.2,0,0.3-0.1v0.6c-0.1,0-0.2,0.1-0.4,0.1c-0.2,0-0.3,0-0.5,0
		c-1,0-1.6-0.5-1.6-1.6v-3.2h-0.8V51l0.8-0.3l0.3-1.1h0.5v1.2h1.6v0.6h-1.6v3.1c0,0.3,0.1,0.6,0.2,0.7S41.4,55.6,41.7,55.6z"/>
	<path class="st4" d="M45.7,56.3c-0.8,0-1.4-0.2-1.9-0.7s-0.7-1.2-0.7-2c0-0.9,0.2-1.5,0.6-2.1s1-0.8,1.7-0.8c0.7,0,1.2,0.2,1.6,0.7
		c0.4,0.4,0.6,1,0.6,1.7v0.5H44c0,0.6,0.2,1.1,0.5,1.4s0.7,0.5,1.3,0.5c0.6,0,1.1-0.1,1.7-0.4v0.7c-0.3,0.1-0.6,0.2-0.8,0.3
		C46.4,56.2,46.1,56.3,45.7,56.3z M45.5,51.4c-0.4,0-0.8,0.1-1,0.4S44.1,52.5,44,53h2.8c0-0.5-0.1-0.9-0.3-1.2
		C46.3,51.5,45.9,51.4,45.5,51.4z"/>
	<path class="st4" d="M52.5,54.7c0,0.5-0.2,0.9-0.6,1.2s-0.9,0.4-1.6,0.4c-0.7,0-1.3-0.1-1.7-0.3v-0.8c0.3,0.1,0.5,0.2,0.8,0.3
		s0.6,0.1,0.9,0.1c0.4,0,0.7-0.1,1-0.2c0.2-0.1,0.3-0.3,0.3-0.6c0-0.2-0.1-0.4-0.3-0.5c-0.2-0.1-0.5-0.3-1.1-0.5
		c-0.5-0.2-0.9-0.3-1.1-0.5c-0.2-0.1-0.4-0.3-0.5-0.5s-0.2-0.4-0.2-0.6c0-0.4,0.2-0.8,0.5-1c0.4-0.3,0.8-0.4,1.5-0.4
		c0.6,0,1.1,0.1,1.7,0.4l-0.3,0.7c-0.5-0.2-1-0.3-1.5-0.3c-0.4,0-0.7,0.1-0.9,0.2s-0.3,0.3-0.3,0.5c0,0.1,0,0.3,0.1,0.4
		s0.2,0.2,0.4,0.3s0.5,0.2,0.9,0.4c0.6,0.2,1.1,0.5,1.3,0.7S52.5,54.3,52.5,54.7z"/>
	<path class="st4" d="M55.6,55.6c0.1,0,0.3,0,0.4,0c0.1,0,0.2,0,0.3-0.1v0.6c-0.1,0-0.2,0.1-0.4,0.1c-0.2,0-0.3,0-0.5,0
		c-1,0-1.6-0.5-1.6-1.6v-3.2h-0.8V51l0.8-0.3l0.3-1.1h0.5v1.2h1.6v0.6h-1.6v3.1c0,0.3,0.1,0.6,0.2,0.7S55.3,55.6,55.6,55.6z"/>
	<path class="st4" d="M61.7,55.6c0.1,0,0.3,0,0.4,0c0.1,0,0.2,0,0.3-0.1v0.6c-0.1,0-0.2,0.1-0.4,0.1c-0.2,0-0.3,0-0.5,0
		c-1,0-1.6-0.5-1.6-1.6v-3.2h-0.8V51l0.8-0.3l0.3-1.1h0.5v1.2h1.6v0.6h-1.6v3.1c0,0.3,0.1,0.6,0.2,0.7S61.5,55.6,61.7,55.6z"/>
	<path class="st4" d="M68.1,53.5c0,0.9-0.2,1.6-0.7,2c-0.4,0.5-1,0.7-1.8,0.7c-0.5,0-0.9-0.1-1.3-0.3s-0.7-0.5-0.9-1
		s-0.3-0.9-0.3-1.5c0-0.9,0.2-1.6,0.7-2c0.4-0.5,1-0.7,1.8-0.7c0.7,0,1.3,0.2,1.8,0.7S68.1,52.6,68.1,53.5z M64.1,53.5
		c0,0.7,0.1,1.2,0.4,1.6s0.7,0.5,1.2,0.5s0.9-0.2,1.2-0.5c0.3-0.4,0.4-0.9,0.4-1.6c0-0.7-0.1-1.2-0.4-1.5c-0.3-0.4-0.7-0.5-1.2-0.5
		c-0.5,0-0.9,0.2-1.2,0.5S64.1,52.8,64.1,53.5z"/>
	<path class="st4" d="M75.8,55.4L75.8,55.4c-0.4,0.5-1,0.8-1.7,0.8c-0.7,0-1.2-0.2-1.6-0.7s-0.6-1.2-0.6-2s0.2-1.6,0.6-2.1
		s0.9-0.7,1.6-0.7c0.7,0,1.3,0.3,1.7,0.8h0.1l0-0.4l0-0.4v-2.2h0.8v7.6h-0.7L75.8,55.4z M74.2,55.6c0.6,0,1-0.2,1.2-0.5
		c0.2-0.3,0.4-0.8,0.4-1.5v-0.2c0-0.8-0.1-1.3-0.4-1.6c-0.3-0.3-0.7-0.5-1.2-0.5c-0.5,0-0.8,0.2-1.1,0.6c-0.3,0.4-0.4,0.9-0.4,1.6
		c0,0.7,0.1,1.2,0.4,1.5S73.7,55.6,74.2,55.6z"/>
	<path class="st4" d="M80.5,56.3c-0.8,0-1.4-0.2-1.9-0.7s-0.7-1.2-0.7-2c0-0.9,0.2-1.5,0.6-2.1s1-0.8,1.7-0.8c0.7,0,1.2,0.2,1.6,0.7
		c0.4,0.4,0.6,1,0.6,1.7v0.5h-3.7c0,0.6,0.2,1.1,0.5,1.4s0.7,0.5,1.3,0.5c0.6,0,1.1-0.1,1.7-0.4v0.7c-0.3,0.1-0.6,0.2-0.8,0.3
		C81.2,56.2,80.9,56.3,80.5,56.3z M80.3,51.4c-0.4,0-0.8,0.1-1,0.4s-0.4,0.7-0.5,1.2h2.8c0-0.5-0.1-0.9-0.3-1.2
		C81.1,51.5,80.8,51.4,80.3,51.4z"/>
	<path class="st4" d="M85.6,55.6c0.1,0,0.3,0,0.4,0c0.1,0,0.2,0,0.3-0.1v0.6c-0.1,0-0.2,0.1-0.4,0.1c-0.2,0-0.3,0-0.5,0
		c-1,0-1.6-0.5-1.6-1.6v-3.2h-0.8V51l0.8-0.3l0.3-1.1h0.5v1.2h1.6v0.6h-1.6v3.1c0,0.3,0.1,0.6,0.2,0.7S85.4,55.6,85.6,55.6z"/>
	<path class="st4" d="M89.7,56.3c-0.8,0-1.4-0.2-1.9-0.7s-0.7-1.2-0.7-2c0-0.9,0.2-1.5,0.6-2.1s1-0.8,1.7-0.8c0.7,0,1.2,0.2,1.6,0.7
		c0.4,0.4,0.6,1,0.6,1.7v0.5H88c0,0.6,0.2,1.1,0.5,1.4s0.7,0.5,1.3,0.5c0.6,0,1.1-0.1,1.7-0.4v0.7c-0.3,0.1-0.6,0.2-0.8,0.3
		C90.4,56.2,90,56.3,89.7,56.3z M89.5,51.4c-0.4,0-0.8,0.1-1,0.4S88,52.5,88,53h2.8c0-0.5-0.1-0.9-0.3-1.2
		C90.2,51.5,89.9,51.4,89.5,51.4z"/>
	<path class="st4" d="M95.5,50.7c0.2,0,0.5,0,0.6,0.1L96,51.5c-0.2,0-0.4-0.1-0.6-0.1c-0.4,0-0.8,0.2-1.1,0.5s-0.5,0.8-0.5,1.3v2.9
		H93v-5.4h0.7l0.1,1h0c0.2-0.3,0.4-0.6,0.7-0.8S95.1,50.7,95.5,50.7z"/>
	<path class="st4" d="M103.9,56.2v-3.5c0-0.4-0.1-0.7-0.3-1c-0.2-0.2-0.5-0.3-0.8-0.3c-0.5,0-0.9,0.1-1.1,0.4s-0.4,0.7-0.4,1.3v3
		h-0.8v-3.5c0-0.4-0.1-0.7-0.3-1c-0.2-0.2-0.5-0.3-0.9-0.3c-0.5,0-0.9,0.2-1.1,0.5c-0.2,0.3-0.4,0.8-0.4,1.5v2.8h-0.8v-5.4h0.7
		l0.1,0.7h0c0.2-0.3,0.4-0.5,0.6-0.6s0.6-0.2,0.9-0.2c0.8,0,1.4,0.3,1.6,0.9h0c0.2-0.3,0.4-0.5,0.7-0.7s0.6-0.2,1-0.2
		c0.6,0,1.1,0.2,1.4,0.5c0.3,0.3,0.5,0.8,0.5,1.5v3.5H103.9z"/>
	<path class="st4" d="M106.4,49.4c0-0.2,0-0.3,0.1-0.4c0.1-0.1,0.2-0.1,0.3-0.1c0.1,0,0.2,0,0.3,0.1s0.1,0.2,0.1,0.4s0,0.3-0.1,0.4
		c-0.1,0.1-0.2,0.1-0.3,0.1c-0.1,0-0.3,0-0.3-0.1C106.4,49.7,106.4,49.5,106.4,49.4z M107.2,56.2h-0.8v-5.4h0.8V56.2z"/>
	<path class="st4" d="M112.6,56.2v-3.5c0-0.4-0.1-0.8-0.3-1s-0.5-0.3-0.9-0.3c-0.6,0-1,0.2-1.2,0.5s-0.4,0.8-0.4,1.5v2.8H109v-5.4
		h0.7l0.1,0.7h0c0.2-0.3,0.4-0.5,0.7-0.6c0.3-0.1,0.6-0.2,1-0.2c0.6,0,1.1,0.2,1.5,0.5c0.3,0.3,0.5,0.8,0.5,1.5v3.5H112.6z"/>
	<path class="st4" d="M117.3,56.3c-0.8,0-1.4-0.2-1.9-0.7s-0.7-1.2-0.7-2c0-0.9,0.2-1.5,0.6-2.1s1-0.8,1.7-0.8
		c0.7,0,1.2,0.2,1.6,0.7c0.4,0.4,0.6,1,0.6,1.7v0.5h-3.7c0,0.6,0.2,1.1,0.5,1.4s0.7,0.5,1.3,0.5c0.6,0,1.1-0.1,1.7-0.4v0.7
		c-0.3,0.1-0.6,0.2-0.8,0.3C118,56.2,117.7,56.3,117.3,56.3z M117.1,51.4c-0.4,0-0.8,0.1-1,0.4s-0.4,0.7-0.5,1.2h2.8
		c0-0.5-0.1-0.9-0.3-1.2C117.9,51.5,117.6,51.4,117.1,51.4z"/>
	<path class="st4" d="M14.6,68.2l-1-3.1c-0.1-0.2-0.2-0.6-0.3-1.3h0c-0.1,0.6-0.2,1-0.3,1.3l-1,3.1h-0.9l-1.5-5.4h0.8
		c0.3,1.3,0.6,2.4,0.8,3.1s0.3,1.2,0.3,1.4h0c0-0.2,0.1-0.4,0.2-0.7c0.1-0.3,0.1-0.5,0.2-0.7l1-3.1h0.9l1,3.1c0.2,0.6,0.3,1,0.4,1.4
		h0c0-0.1,0-0.3,0.1-0.5s0.4-1.6,1-3.9H17l-1.5,5.4H14.6z"/>
	<path class="st4" d="M21.6,68.2v-3.5c0-0.4-0.1-0.8-0.3-1s-0.5-0.3-0.9-0.3c-0.6,0-1,0.2-1.2,0.5s-0.4,0.8-0.4,1.5v2.8H18v-7.6h0.8
		v2.3c0,0.3,0,0.5,0,0.7h0c0.2-0.3,0.4-0.5,0.7-0.6c0.3-0.1,0.6-0.2,1-0.2c0.7,0,1.1,0.2,1.5,0.5c0.3,0.3,0.5,0.8,0.5,1.5v3.5H21.6z
		"/>
	<path class="st4" d="M27.4,68.2l-0.2-0.8h0c-0.3,0.3-0.5,0.6-0.8,0.7c-0.3,0.1-0.6,0.2-1,0.2c-0.5,0-0.9-0.1-1.2-0.4
		s-0.5-0.7-0.5-1.2c0-1.1,0.9-1.6,2.6-1.7l0.9,0v-0.3c0-0.4-0.1-0.7-0.3-0.9c-0.2-0.2-0.5-0.3-0.9-0.3c-0.4,0-1,0.1-1.5,0.4
		l-0.2-0.6c0.3-0.1,0.6-0.3,0.9-0.3s0.6-0.1,0.9-0.1c0.6,0,1.1,0.1,1.4,0.4s0.5,0.7,0.5,1.4v3.7H27.4z M25.6,67.6
		c0.5,0,0.9-0.1,1.2-0.4s0.4-0.7,0.4-1.2v-0.5l-0.8,0c-0.6,0-1.1,0.1-1.4,0.3c-0.3,0.2-0.4,0.5-0.4,0.8c0,0.3,0.1,0.5,0.3,0.7
		S25.3,67.6,25.6,67.6z"/>
	<path class="st4" d="M31.4,67.6c0.1,0,0.3,0,0.4,0c0.1,0,0.2,0,0.3-0.1v0.6c-0.1,0-0.2,0.1-0.4,0.1c-0.2,0-0.3,0-0.5,0
		c-1,0-1.6-0.5-1.6-1.6v-3.2H29V63l0.8-0.3l0.3-1.1h0.5v1.2h1.6v0.6h-1.6v3.1c0,0.3,0.1,0.6,0.2,0.7S31.1,67.6,31.4,67.6z"/>
	<path class="st4" d="M38.3,68.3c-0.3,0-0.7-0.1-1-0.2c-0.3-0.1-0.5-0.3-0.7-0.6h-0.1c0,0.3,0.1,0.6,0.1,0.9v2.2h-0.8v-7.8h0.7
		l0.1,0.7h0c0.2-0.3,0.5-0.5,0.7-0.6s0.6-0.2,1-0.2c0.7,0,1.3,0.2,1.6,0.7s0.6,1.2,0.6,2c0,0.9-0.2,1.6-0.6,2
		C39.5,68,39,68.3,38.3,68.3z M38.2,63.4c-0.5,0-0.9,0.2-1.2,0.5s-0.4,0.8-0.4,1.4v0.2c0,0.8,0.1,1.3,0.4,1.6
		c0.3,0.3,0.7,0.5,1.2,0.5c0.5,0,0.8-0.2,1.1-0.6s0.4-0.9,0.4-1.5c0-0.7-0.1-1.2-0.4-1.5C39,63.6,38.6,63.4,38.2,63.4z"/>
	<path class="st4" d="M45.2,68.2l-0.2-0.8h0c-0.3,0.3-0.5,0.6-0.8,0.7c-0.3,0.1-0.6,0.2-1,0.2c-0.5,0-0.9-0.1-1.2-0.4
		s-0.5-0.7-0.5-1.2c0-1.1,0.9-1.6,2.6-1.7l0.9,0v-0.3c0-0.4-0.1-0.7-0.3-0.9c-0.2-0.2-0.5-0.3-0.9-0.3c-0.4,0-1,0.1-1.5,0.4
		l-0.2-0.6c0.3-0.1,0.6-0.3,0.9-0.3s0.6-0.1,0.9-0.1c0.6,0,1.1,0.1,1.4,0.4s0.5,0.7,0.5,1.4v3.7H45.2z M43.4,67.6
		c0.5,0,0.9-0.1,1.2-0.4S45,66.5,45,66v-0.5l-0.8,0c-0.6,0-1.1,0.1-1.4,0.3c-0.3,0.2-0.4,0.5-0.4,0.8c0,0.3,0.1,0.5,0.3,0.7
		S43.1,67.6,43.4,67.6z"/>
	<path class="st4" d="M49.9,62.7c0.2,0,0.5,0,0.6,0.1l-0.1,0.8c-0.2,0-0.4-0.1-0.6-0.1c-0.4,0-0.8,0.2-1.1,0.5s-0.5,0.8-0.5,1.3v2.9
		h-0.8v-5.4h0.7l0.1,1h0c0.2-0.3,0.4-0.6,0.7-0.8S49.6,62.7,49.9,62.7z"/>
	<path class="st4" d="M53.3,67.6c0.1,0,0.3,0,0.4,0c0.1,0,0.2,0,0.3-0.1v0.6c-0.1,0-0.2,0.1-0.4,0.1c-0.2,0-0.3,0-0.5,0
		c-1,0-1.6-0.5-1.6-1.6v-3.2h-0.8V63l0.8-0.3l0.3-1.1h0.5v1.2H54v0.6h-1.6v3.1c0,0.3,0.1,0.6,0.2,0.7S53,67.6,53.3,67.6z"/>
	<path class="st4" d="M58.6,66.7c0,0.5-0.2,0.9-0.6,1.2s-0.9,0.4-1.6,0.4c-0.7,0-1.3-0.1-1.7-0.3v-0.8c0.3,0.1,0.5,0.2,0.8,0.3
		s0.6,0.1,0.9,0.1c0.4,0,0.7-0.1,1-0.2c0.2-0.1,0.3-0.3,0.3-0.6c0-0.2-0.1-0.4-0.3-0.5c-0.2-0.1-0.5-0.3-1.1-0.5
		c-0.5-0.2-0.9-0.3-1.1-0.5c-0.2-0.1-0.4-0.3-0.5-0.5s-0.2-0.4-0.2-0.6c0-0.4,0.2-0.8,0.5-1c0.4-0.3,0.8-0.4,1.5-0.4
		c0.6,0,1.1,0.1,1.7,0.4l-0.3,0.7c-0.5-0.2-1-0.3-1.5-0.3c-0.4,0-0.7,0.1-0.9,0.2s-0.3,0.3-0.3,0.5c0,0.1,0,0.3,0.1,0.4
		s0.2,0.2,0.4,0.3s0.5,0.2,0.9,0.4c0.6,0.2,1.1,0.5,1.3,0.7S58.6,66.3,58.6,66.7z"/>
	<path class="st4" d="M67.1,65.5c0,0.9-0.2,1.6-0.7,2c-0.4,0.5-1,0.7-1.8,0.7c-0.5,0-0.9-0.1-1.3-0.3s-0.7-0.5-0.9-1
		s-0.3-0.9-0.3-1.5c0-0.9,0.2-1.6,0.7-2c0.4-0.5,1-0.7,1.8-0.7c0.7,0,1.3,0.2,1.8,0.7S67.1,64.6,67.1,65.5z M63,65.5
		c0,0.7,0.1,1.2,0.4,1.6s0.7,0.5,1.2,0.5s0.9-0.2,1.2-0.5c0.3-0.4,0.4-0.9,0.4-1.6c0-0.7-0.1-1.2-0.4-1.5c-0.3-0.4-0.7-0.5-1.2-0.5
		c-0.5,0-0.9,0.2-1.2,0.5S63,64.8,63,65.5z"/>
	<path class="st4" d="M70.9,63.4h-1.4v4.7h-0.8v-4.7h-1v-0.4l1-0.3v-0.3c0-1.3,0.6-2,1.7-2c0.3,0,0.6,0.1,1,0.2l-0.2,0.6
		c-0.3-0.1-0.6-0.2-0.8-0.2c-0.3,0-0.5,0.1-0.7,0.3c-0.1,0.2-0.2,0.5-0.2,1v0.3h1.4V63.4z"/>
	<path class="st4" d="M76.2,67.6c0.1,0,0.3,0,0.4,0c0.1,0,0.2,0,0.3-0.1v0.6c-0.1,0-0.2,0.1-0.4,0.1c-0.2,0-0.3,0-0.5,0
		c-1,0-1.6-0.5-1.6-1.6v-3.2h-0.8V63l0.8-0.3l0.3-1.1h0.5v1.2h1.6v0.6h-1.6v3.1c0,0.3,0.1,0.6,0.2,0.7S76,67.6,76.2,67.6z"/>
	<path class="st4" d="M81.7,68.2v-3.5c0-0.4-0.1-0.8-0.3-1s-0.5-0.3-0.9-0.3c-0.6,0-1,0.2-1.2,0.5s-0.4,0.8-0.4,1.5v2.8H78v-7.6h0.8
		v2.3c0,0.3,0,0.5,0,0.7h0c0.2-0.3,0.4-0.5,0.7-0.6c0.3-0.1,0.6-0.2,1-0.2c0.7,0,1.1,0.2,1.5,0.5c0.3,0.3,0.5,0.8,0.5,1.5v3.5H81.7z
		"/>
	<path class="st4" d="M86.4,68.3c-0.8,0-1.4-0.2-1.9-0.7s-0.7-1.2-0.7-2c0-0.9,0.2-1.5,0.6-2.1s1-0.8,1.7-0.8c0.7,0,1.2,0.2,1.6,0.7
		c0.4,0.4,0.6,1,0.6,1.7v0.5h-3.7c0,0.6,0.2,1.1,0.5,1.4s0.7,0.5,1.3,0.5c0.6,0,1.1-0.1,1.7-0.4v0.7c-0.3,0.1-0.6,0.2-0.8,0.3
		C87.1,68.2,86.8,68.3,86.4,68.3z M86.2,63.4c-0.4,0-0.8,0.1-1,0.4s-0.4,0.7-0.5,1.2h2.8c0-0.5-0.1-0.9-0.3-1.2
		C87,63.5,86.6,63.4,86.2,63.4z"/>
	<path class="st4" d="M89.7,61.4c0-0.2,0-0.3,0.1-0.4c0.1-0.1,0.2-0.1,0.3-0.1c0.1,0,0.2,0,0.3,0.1s0.1,0.2,0.1,0.4s0,0.3-0.1,0.4
		c-0.1,0.1-0.2,0.1-0.3,0.1c-0.1,0-0.3,0-0.3-0.1C89.8,61.7,89.7,61.5,89.7,61.4z M90.6,68.2h-0.8v-5.4h0.8V68.2z"/>
	<path class="st4" d="M94.7,62.7c0.2,0,0.5,0,0.6,0.1l-0.1,0.8c-0.2,0-0.4-0.1-0.6-0.1c-0.4,0-0.8,0.2-1.1,0.5s-0.5,0.8-0.5,1.3v2.9
		h-0.8v-5.4H93l0.1,1h0c0.2-0.3,0.4-0.6,0.7-0.8S94.4,62.7,94.7,62.7z"/>
	<path class="st4" d="M101.5,62.7c0.7,0,1.2,0.2,1.6,0.7c0.4,0.5,0.6,1.2,0.6,2s-0.2,1.6-0.6,2c-0.4,0.5-0.9,0.7-1.6,0.7
		c-0.3,0-0.7-0.1-1-0.2c-0.3-0.1-0.5-0.3-0.7-0.6h-0.1l-0.2,0.7H99v-7.6h0.8v1.8c0,0.4,0,0.8,0,1.1h0
		C100.2,63,100.7,62.7,101.5,62.7z M101.4,63.4c-0.6,0-1,0.2-1.2,0.5c-0.2,0.3-0.4,0.9-0.4,1.6s0.1,1.3,0.4,1.6
		c0.3,0.3,0.7,0.5,1.2,0.5c0.5,0,0.9-0.2,1.1-0.5c0.2-0.4,0.4-0.9,0.4-1.6c0-0.7-0.1-1.2-0.4-1.6S101.9,63.4,101.4,63.4z"/>
	<path class="st4" d="M107.6,62.7c0.2,0,0.5,0,0.6,0.1l-0.1,0.8c-0.2,0-0.4-0.1-0.6-0.1c-0.4,0-0.8,0.2-1.1,0.5s-0.5,0.8-0.5,1.3
		v2.9h-0.8v-5.4h0.7l0.1,1h0c0.2-0.3,0.4-0.6,0.7-0.8S107.2,62.7,107.6,62.7z"/>
	<path class="st4" d="M112.5,68.2l-0.2-0.8h0c-0.3,0.3-0.5,0.6-0.8,0.7c-0.3,0.1-0.6,0.2-1,0.2c-0.5,0-0.9-0.1-1.2-0.4
		s-0.5-0.7-0.5-1.2c0-1.1,0.9-1.6,2.6-1.7l0.9,0v-0.3c0-0.4-0.1-0.7-0.3-0.9c-0.2-0.2-0.5-0.3-0.9-0.3c-0.4,0-1,0.1-1.5,0.4
		l-0.2-0.6c0.3-0.1,0.6-0.3,0.9-0.3s0.6-0.1,0.9-0.1c0.6,0,1.1,0.1,1.4,0.4s0.5,0.7,0.5,1.4v3.7H112.5z M110.7,67.6
		c0.5,0,0.9-0.1,1.2-0.4s0.4-0.7,0.4-1.2v-0.5l-0.8,0c-0.6,0-1.1,0.1-1.4,0.3c-0.3,0.2-0.4,0.5-0.4,0.8c0,0.3,0.1,0.5,0.3,0.7
		S110.3,67.6,110.7,67.6z"/>
	<path class="st4" d="M114.7,61.4c0-0.2,0-0.3,0.1-0.4c0.1-0.1,0.2-0.1,0.3-0.1c0.1,0,0.2,0,0.3,0.1s0.1,0.2,0.1,0.4s0,0.3-0.1,0.4
		c-0.1,0.1-0.2,0.1-0.3,0.1c-0.1,0-0.3,0-0.3-0.1C114.7,61.7,114.7,61.5,114.7,61.4z M115.6,68.2h-0.8v-5.4h0.8V68.2z"/>
	<path class="st4" d="M120.9,68.2v-3.5c0-0.4-0.1-0.8-0.3-1s-0.5-0.3-0.9-0.3c-0.6,0-1,0.2-1.2,0.5s-0.4,0.8-0.4,1.5v2.8h-0.8v-5.4
		h0.7l0.1,0.7h0c0.2-0.3,0.4-0.5,0.7-0.6c0.3-0.1,0.6-0.2,1-0.2c0.6,0,1.1,0.2,1.5,0.5c0.3,0.3,0.5,0.8,0.5,1.5v3.5H120.9z"/>
	<path class="st4" d="M47.5,79.6c0.1,0,0.3,0,0.4,0c0.1,0,0.2,0,0.3-0.1v0.6c-0.1,0-0.2,0.1-0.4,0.1c-0.2,0-0.3,0-0.5,0
		c-1,0-1.6-0.5-1.6-1.6v-3.2h-0.8V75l0.8-0.3l0.3-1.1h0.5v1.2h1.6v0.6h-1.6v3.1c0,0.3,0.1,0.6,0.2,0.7S47.2,79.6,47.5,79.6z"/>
	<path class="st4" d="M53,80.2v-3.5c0-0.4-0.1-0.8-0.3-1s-0.5-0.3-0.9-0.3c-0.6,0-1,0.2-1.2,0.5s-0.4,0.8-0.4,1.5v2.8h-0.8v-7.6h0.8
		v2.3c0,0.3,0,0.5,0,0.7h0c0.2-0.3,0.4-0.5,0.7-0.6c0.3-0.1,0.6-0.2,1-0.2c0.7,0,1.1,0.2,1.5,0.5c0.3,0.3,0.5,0.8,0.5,1.5v3.5H53z"
		/>
	<path class="st4" d="M57.7,80.3c-0.8,0-1.4-0.2-1.9-0.7s-0.7-1.2-0.7-2c0-0.9,0.2-1.5,0.6-2.1s1-0.8,1.7-0.8c0.7,0,1.2,0.2,1.6,0.7
		c0.4,0.4,0.6,1,0.6,1.7v0.5H56c0,0.6,0.2,1.1,0.5,1.4s0.7,0.5,1.3,0.5c0.6,0,1.1-0.1,1.7-0.4v0.7c-0.3,0.1-0.6,0.2-0.8,0.3
		C58.4,80.2,58.1,80.3,57.7,80.3z M57.5,75.4c-0.4,0-0.8,0.1-1,0.4S56,76.5,56,77h2.8c0-0.5-0.1-0.9-0.3-1.2
		C58.2,75.5,57.9,75.4,57.5,75.4z"/>
	<path class="st4" d="M60.2,74.8h0.9l1.2,3.1c0.3,0.7,0.4,1.2,0.5,1.5h0c0-0.2,0.1-0.5,0.3-0.9c0.1-0.4,0.6-1.6,1.3-3.7h0.9
		l-2.3,6.1c-0.2,0.6-0.5,1-0.8,1.3c-0.3,0.3-0.7,0.4-1.1,0.4c-0.2,0-0.5,0-0.7-0.1v-0.6c0.2,0,0.4,0.1,0.6,0.1c0.6,0,1-0.3,1.2-0.9
		l0.3-0.8L60.2,74.8z"/>
	<path class="st4" d="M69.4,74.8v3.5c0,0.4,0.1,0.8,0.3,1s0.5,0.3,0.9,0.3c0.6,0,1-0.2,1.2-0.5s0.4-0.8,0.4-1.5v-2.8h0.8v5.4h-0.7
		l-0.1-0.7h0c-0.2,0.3-0.4,0.5-0.7,0.6s-0.6,0.2-1,0.2c-0.7,0-1.1-0.2-1.5-0.5s-0.5-0.8-0.5-1.5v-3.5H69.4z"/>
	<path class="st4" d="M78.3,78.7c0,0.5-0.2,0.9-0.6,1.2s-0.9,0.4-1.6,0.4c-0.7,0-1.3-0.1-1.7-0.3v-0.8c0.3,0.1,0.5,0.2,0.8,0.3
		s0.6,0.1,0.9,0.1c0.4,0,0.7-0.1,1-0.2c0.2-0.1,0.3-0.3,0.3-0.6c0-0.2-0.1-0.4-0.3-0.5c-0.2-0.1-0.5-0.3-1.1-0.5
		c-0.5-0.2-0.9-0.3-1.1-0.5c-0.2-0.1-0.4-0.3-0.5-0.5s-0.2-0.4-0.2-0.6c0-0.4,0.2-0.8,0.5-1c0.4-0.3,0.8-0.4,1.5-0.4
		c0.6,0,1.1,0.1,1.7,0.4l-0.3,0.7c-0.5-0.2-1-0.3-1.5-0.3c-0.4,0-0.7,0.1-0.9,0.2s-0.3,0.3-0.3,0.5c0,0.1,0,0.3,0.1,0.4
		s0.2,0.2,0.4,0.3s0.5,0.2,0.9,0.4c0.6,0.2,1.1,0.5,1.3,0.7S78.3,78.3,78.3,78.7z"/>
	<path class="st4" d="M81.8,80.3c-0.8,0-1.4-0.2-1.9-0.7s-0.7-1.2-0.7-2c0-0.9,0.2-1.5,0.6-2.1s1-0.8,1.7-0.8c0.7,0,1.2,0.2,1.6,0.7
		c0.4,0.4,0.6,1,0.6,1.7v0.5h-3.7c0,0.6,0.2,1.1,0.5,1.4s0.7,0.5,1.3,0.5c0.6,0,1.1-0.1,1.7-0.4v0.7c-0.3,0.1-0.6,0.2-0.8,0.3
		C82.5,80.2,82.2,80.3,81.8,80.3z M81.6,75.4c-0.4,0-0.8,0.1-1,0.4s-0.4,0.7-0.5,1.2h2.8c0-0.5-0.1-0.9-0.3-1.2
		C82.4,75.5,82,75.4,81.6,75.4z"/>
	<path class="st4" d="M85.1,79.6c0-0.2,0-0.4,0.1-0.5c0.1-0.1,0.2-0.2,0.4-0.2c0.2,0,0.3,0.1,0.4,0.2c0.1,0.1,0.2,0.3,0.2,0.5
		c0,0.2-0.1,0.4-0.2,0.5s-0.3,0.2-0.4,0.2c-0.2,0-0.3-0.1-0.4-0.2C85.1,80,85.1,79.9,85.1,79.6z"/>
</g>
<g>
	<rect x="148.5" y="24.6" class="st3" width="116.6" height="44.2"/>
	<path class="st4" d="M153.8,32.2H153v-6.4h-2.3V25h5.4v0.7h-2.3V32.2z"/>
	<path class="st4" d="M160.7,32.2v-3.5c0-0.4-0.1-0.8-0.3-1s-0.5-0.3-0.9-0.3c-0.6,0-1,0.2-1.2,0.5s-0.4,0.8-0.4,1.5v2.8H157v-7.6
		h0.8v2.3c0,0.3,0,0.5,0,0.7h0c0.2-0.3,0.4-0.5,0.7-0.6c0.3-0.1,0.6-0.2,1-0.2c0.7,0,1.1,0.2,1.5,0.5c0.3,0.3,0.5,0.8,0.5,1.5v3.5
		H160.7z"/>
	<path class="st4" d="M165.4,32.3c-0.8,0-1.4-0.2-1.9-0.7s-0.7-1.2-0.7-2c0-0.9,0.2-1.5,0.6-2.1s1-0.8,1.7-0.8
		c0.7,0,1.2,0.2,1.6,0.7c0.4,0.4,0.6,1,0.6,1.7v0.5h-3.7c0,0.6,0.2,1.1,0.5,1.4s0.7,0.5,1.3,0.5c0.6,0,1.1-0.1,1.7-0.4v0.7
		c-0.3,0.1-0.6,0.2-0.8,0.3C166.1,32.2,165.8,32.3,165.4,32.3z M165.2,27.4c-0.4,0-0.8,0.1-1,0.4s-0.4,0.7-0.5,1.2h2.8
		c0-0.5-0.1-0.9-0.3-1.2C165.9,27.5,165.6,27.4,165.2,27.4z"/>
	<path class="st4" d="M174.8,30.7c0,0.5-0.2,0.9-0.6,1.2s-0.9,0.4-1.6,0.4c-0.7,0-1.3-0.1-1.7-0.3v-0.8c0.3,0.1,0.5,0.2,0.8,0.3
		s0.6,0.1,0.9,0.1c0.4,0,0.7-0.1,1-0.2c0.2-0.1,0.3-0.3,0.3-0.6c0-0.2-0.1-0.4-0.3-0.5c-0.2-0.1-0.5-0.3-1.1-0.5
		c-0.5-0.2-0.9-0.3-1.1-0.5c-0.2-0.1-0.4-0.3-0.5-0.5s-0.2-0.4-0.2-0.6c0-0.4,0.2-0.8,0.5-1c0.4-0.3,0.8-0.4,1.5-0.4
		c0.6,0,1.1,0.1,1.7,0.4l-0.3,0.7c-0.5-0.2-1-0.3-1.5-0.3c-0.4,0-0.7,0.1-0.9,0.2s-0.3,0.3-0.3,0.5c0,0.1,0,0.3,0.1,0.4
		s0.2,0.2,0.4,0.3s0.5,0.2,0.9,0.4c0.6,0.2,1.1,0.5,1.3,0.7S174.8,30.3,174.8,30.7z"/>
	<path class="st4" d="M179.4,32.2l-0.2-0.8h0c-0.3,0.3-0.5,0.6-0.8,0.7c-0.3,0.1-0.6,0.2-1,0.2c-0.5,0-0.9-0.1-1.2-0.4
		s-0.5-0.7-0.5-1.2c0-1.1,0.9-1.6,2.6-1.7l0.9,0v-0.3c0-0.4-0.1-0.7-0.3-0.9c-0.2-0.2-0.5-0.3-0.9-0.3c-0.4,0-1,0.1-1.5,0.4
		l-0.2-0.6c0.3-0.1,0.6-0.3,0.9-0.3s0.6-0.1,0.9-0.1c0.6,0,1.1,0.1,1.4,0.4s0.5,0.7,0.5,1.4v3.7H179.4z M177.6,31.6
		c0.5,0,0.9-0.1,1.2-0.4s0.4-0.7,0.4-1.2v-0.5l-0.8,0c-0.6,0-1.1,0.1-1.4,0.3c-0.3,0.2-0.4,0.5-0.4,0.8c0,0.3,0.1,0.5,0.3,0.7
		S177.3,31.6,177.6,31.6z"/>
	<path class="st4" d="M188.5,32.2v-3.5c0-0.4-0.1-0.7-0.3-1c-0.2-0.2-0.5-0.3-0.8-0.3c-0.5,0-0.9,0.1-1.1,0.4s-0.4,0.7-0.4,1.3v3
		h-0.8v-3.5c0-0.4-0.1-0.7-0.3-1c-0.2-0.2-0.5-0.3-0.9-0.3c-0.5,0-0.9,0.2-1.1,0.5c-0.2,0.3-0.4,0.8-0.4,1.5v2.8h-0.8v-5.4h0.7
		l0.1,0.7h0c0.2-0.3,0.4-0.5,0.6-0.6s0.6-0.2,0.9-0.2c0.8,0,1.4,0.3,1.6,0.9h0c0.2-0.3,0.4-0.5,0.7-0.7s0.6-0.2,1-0.2
		c0.6,0,1.1,0.2,1.4,0.5c0.3,0.3,0.5,0.8,0.5,1.5v3.5H188.5z"/>
	<path class="st4" d="M193.3,32.3c-0.8,0-1.4-0.2-1.9-0.7s-0.7-1.2-0.7-2c0-0.9,0.2-1.5,0.6-2.1s1-0.8,1.7-0.8
		c0.7,0,1.2,0.2,1.6,0.7c0.4,0.4,0.6,1,0.6,1.7v0.5h-3.7c0,0.6,0.2,1.1,0.5,1.4s0.7,0.5,1.3,0.5c0.6,0,1.1-0.1,1.7-0.4v0.7
		c-0.3,0.1-0.6,0.2-0.8,0.3C193.9,32.2,193.6,32.3,193.3,32.3z M193,27.4c-0.4,0-0.8,0.1-1,0.4s-0.4,0.7-0.5,1.2h2.8
		c0-0.5-0.1-0.9-0.3-1.2C193.8,27.5,193.5,27.4,193,27.4z"/>
	<path class="st4" d="M200.9,31.6c0.1,0,0.3,0,0.4,0c0.1,0,0.2,0,0.3-0.1v0.6c-0.1,0-0.2,0.1-0.4,0.1c-0.2,0-0.3,0-0.5,0
		c-1,0-1.6-0.5-1.6-1.6v-3.2h-0.8V27l0.8-0.3l0.3-1.1h0.5v1.2h1.6v0.6h-1.6v3.1c0,0.3,0.1,0.6,0.2,0.7S200.7,31.6,200.9,31.6z"/>
	<path class="st4" d="M205,32.3c-0.8,0-1.4-0.2-1.9-0.7s-0.7-1.2-0.7-2c0-0.9,0.2-1.5,0.6-2.1s1-0.8,1.7-0.8c0.7,0,1.2,0.2,1.6,0.7
		c0.4,0.4,0.6,1,0.6,1.7v0.5h-3.7c0,0.6,0.2,1.1,0.5,1.4s0.7,0.5,1.3,0.5c0.6,0,1.1-0.1,1.7-0.4v0.7c-0.3,0.1-0.6,0.2-0.8,0.3
		C205.7,32.2,205.4,32.3,205,32.3z M204.8,27.4c-0.4,0-0.8,0.1-1,0.4s-0.4,0.7-0.5,1.2h2.8c0-0.5-0.1-0.9-0.3-1.2
		C205.5,27.5,205.2,27.4,204.8,27.4z"/>
	<path class="st4" d="M211.8,30.7c0,0.5-0.2,0.9-0.6,1.2s-0.9,0.4-1.6,0.4c-0.7,0-1.3-0.1-1.7-0.3v-0.8c0.3,0.1,0.5,0.2,0.8,0.3
		s0.6,0.1,0.9,0.1c0.4,0,0.7-0.1,1-0.2c0.2-0.1,0.3-0.3,0.3-0.6c0-0.2-0.1-0.4-0.3-0.5c-0.2-0.1-0.5-0.3-1.1-0.5
		c-0.5-0.2-0.9-0.3-1.1-0.5c-0.2-0.1-0.4-0.3-0.5-0.5s-0.2-0.4-0.2-0.6c0-0.4,0.2-0.8,0.5-1c0.4-0.3,0.8-0.4,1.5-0.4
		c0.6,0,1.1,0.1,1.7,0.4l-0.3,0.7c-0.5-0.2-1-0.3-1.5-0.3c-0.4,0-0.7,0.1-0.9,0.2s-0.3,0.3-0.3,0.5c0,0.1,0,0.3,0.1,0.4
		s0.2,0.2,0.4,0.3s0.5,0.2,0.9,0.4c0.6,0.2,1.1,0.5,1.3,0.7S211.8,30.3,211.8,30.7z"/>
	<path class="st4" d="M214.8,31.6c0.1,0,0.3,0,0.4,0c0.1,0,0.2,0,0.3-0.1v0.6c-0.1,0-0.2,0.1-0.4,0.1c-0.2,0-0.3,0-0.5,0
		c-1,0-1.6-0.5-1.6-1.6v-3.2h-0.8V27l0.8-0.3l0.3-1.1h0.5v1.2h1.6v0.6H214v3.1c0,0.3,0.1,0.6,0.2,0.7S214.6,31.6,214.8,31.6z"/>
	<path class="st4" d="M223.6,32.2l-1-3.1c-0.1-0.2-0.2-0.6-0.3-1.3h0c-0.1,0.6-0.2,1-0.3,1.3l-1,3.1H220l-1.5-5.4h0.8
		c0.3,1.3,0.6,2.4,0.8,3.1s0.3,1.2,0.3,1.4h0c0-0.2,0.1-0.4,0.2-0.7c0.1-0.3,0.1-0.5,0.2-0.7l1-3.1h0.9l1,3.1c0.2,0.6,0.3,1,0.4,1.4
		h0c0-0.1,0-0.3,0.1-0.5s0.4-1.6,1-3.9h0.8l-1.5,5.4H223.6z"/>
	<path class="st4" d="M230.3,32.2l-0.2-0.8h0c-0.3,0.3-0.5,0.6-0.8,0.7c-0.3,0.1-0.6,0.2-1,0.2c-0.5,0-0.9-0.1-1.2-0.4
		s-0.5-0.7-0.5-1.2c0-1.1,0.9-1.6,2.6-1.7l0.9,0v-0.3c0-0.4-0.1-0.7-0.3-0.9c-0.2-0.2-0.5-0.3-0.9-0.3c-0.4,0-1,0.1-1.5,0.4
		l-0.2-0.6c0.3-0.1,0.6-0.3,0.9-0.3s0.6-0.1,0.9-0.1c0.6,0,1.1,0.1,1.4,0.4s0.5,0.7,0.5,1.4v3.7H230.3z M228.5,31.6
		c0.5,0,0.9-0.1,1.2-0.4s0.4-0.7,0.4-1.2v-0.5l-0.8,0c-0.6,0-1.1,0.1-1.4,0.3c-0.3,0.2-0.4,0.5-0.4,0.8c0,0.3,0.1,0.5,0.3,0.7
		S228.2,31.6,228.5,31.6z"/>
	<path class="st4" d="M236,30.7c0,0.5-0.2,0.9-0.6,1.2s-0.9,0.4-1.6,0.4c-0.7,0-1.3-0.1-1.7-0.3v-0.8c0.3,0.1,0.5,0.2,0.8,0.3
		s0.6,0.1,0.9,0.1c0.4,0,0.7-0.1,1-0.2c0.2-0.1,0.3-0.3,0.3-0.6c0-0.2-0.1-0.4-0.3-0.5c-0.2-0.1-0.5-0.3-1.1-0.5
		c-0.5-0.2-0.9-0.3-1.1-0.5c-0.2-0.1-0.4-0.3-0.5-0.5s-0.2-0.4-0.2-0.6c0-0.4,0.2-0.8,0.5-1c0.4-0.3,0.8-0.4,1.5-0.4
		c0.6,0,1.1,0.1,1.7,0.4l-0.3,0.7c-0.5-0.2-1-0.3-1.5-0.3c-0.4,0-0.7,0.1-0.9,0.2s-0.3,0.3-0.3,0.5c0,0.1,0,0.3,0.1,0.4
		s0.2,0.2,0.4,0.3s0.5,0.2,0.9,0.4c0.6,0.2,1.1,0.5,1.3,0.7S236,30.3,236,30.7z"/>
	<path class="st4" d="M243.6,31.4L243.6,31.4c-0.4,0.5-1,0.8-1.7,0.8c-0.7,0-1.2-0.2-1.6-0.7s-0.6-1.2-0.6-2s0.2-1.6,0.6-2.1
		s0.9-0.7,1.6-0.7c0.7,0,1.3,0.3,1.7,0.8h0.1l0-0.4l0-0.4v-2.2h0.8v7.6h-0.7L243.6,31.4z M242,31.6c0.6,0,1-0.2,1.2-0.5
		c0.2-0.3,0.4-0.8,0.4-1.5v-0.2c0-0.8-0.1-1.3-0.4-1.6c-0.3-0.3-0.7-0.5-1.2-0.5c-0.5,0-0.8,0.2-1.1,0.6c-0.3,0.4-0.4,0.9-0.4,1.6
		c0,0.7,0.1,1.2,0.4,1.5S241.5,31.6,242,31.6z"/>
	<path class="st4" d="M250.7,29.5c0,0.9-0.2,1.6-0.7,2c-0.4,0.5-1,0.7-1.8,0.7c-0.5,0-0.9-0.1-1.3-0.3s-0.7-0.5-0.9-1
		s-0.3-0.9-0.3-1.5c0-0.9,0.2-1.6,0.7-2c0.4-0.5,1-0.7,1.8-0.7c0.7,0,1.3,0.2,1.8,0.7S250.7,28.6,250.7,29.5z M246.6,29.5
		c0,0.7,0.1,1.2,0.4,1.6s0.7,0.5,1.2,0.5s0.9-0.2,1.2-0.5c0.3-0.4,0.4-0.9,0.4-1.6c0-0.7-0.1-1.2-0.4-1.5c-0.3-0.4-0.7-0.5-1.2-0.5
		c-0.5,0-0.9,0.2-1.2,0.5S246.6,28.8,246.6,29.5z"/>
	<path class="st4" d="M255.8,32.2v-3.5c0-0.4-0.1-0.8-0.3-1s-0.5-0.3-0.9-0.3c-0.6,0-1,0.2-1.2,0.5s-0.4,0.8-0.4,1.5v2.8h-0.8v-5.4
		h0.7l0.1,0.7h0c0.2-0.3,0.4-0.5,0.7-0.6c0.3-0.1,0.6-0.2,1-0.2c0.6,0,1.1,0.2,1.5,0.5c0.3,0.3,0.5,0.8,0.5,1.5v3.5H255.8z"/>
	<path class="st4" d="M260.5,32.3c-0.8,0-1.4-0.2-1.9-0.7s-0.7-1.2-0.7-2c0-0.9,0.2-1.5,0.6-2.1s1-0.8,1.7-0.8
		c0.7,0,1.2,0.2,1.6,0.7c0.4,0.4,0.6,1,0.6,1.7v0.5h-3.7c0,0.6,0.2,1.1,0.5,1.4s0.7,0.5,1.3,0.5c0.6,0,1.1-0.1,1.7-0.4v0.7
		c-0.3,0.1-0.6,0.2-0.8,0.3C261.2,32.2,260.9,32.3,260.5,32.3z M260.3,27.4c-0.4,0-0.8,0.1-1,0.4s-0.4,0.7-0.5,1.2h2.8
		c0-0.5-0.1-0.9-0.3-1.2C261,27.5,260.7,27.4,260.3,27.4z"/>
	<path class="st4" d="M154.9,37.4c0-0.2,0-0.3,0.1-0.4c0.1-0.1,0.2-0.1,0.3-0.1c0.1,0,0.2,0,0.3,0.1s0.1,0.2,0.1,0.4s0,0.3-0.1,0.4
		c-0.1,0.1-0.2,0.1-0.3,0.1c-0.1,0-0.3,0-0.3-0.1C154.9,37.7,154.9,37.5,154.9,37.4z M155.8,44.2H155v-5.4h0.8V44.2z"/>
	<path class="st4" d="M161.2,44.2v-3.5c0-0.4-0.1-0.8-0.3-1s-0.5-0.3-0.9-0.3c-0.6,0-1,0.2-1.2,0.5s-0.4,0.8-0.4,1.5v2.8h-0.8v-5.4
		h0.7l0.1,0.7h0c0.2-0.3,0.4-0.5,0.7-0.6c0.3-0.1,0.6-0.2,1-0.2c0.6,0,1.1,0.2,1.5,0.5c0.3,0.3,0.5,0.8,0.5,1.5v3.5H161.2z"/>
	<path class="st4" d="M169.5,40.4h2.4v3.5c-0.4,0.1-0.8,0.2-1.2,0.3s-0.8,0.1-1.4,0.1c-1.1,0-1.9-0.3-2.5-1
		c-0.6-0.6-0.9-1.5-0.9-2.7c0-0.7,0.1-1.4,0.4-2c0.3-0.6,0.7-1,1.3-1.3c0.6-0.3,1.2-0.4,2-0.4c0.8,0,1.5,0.1,2.1,0.4l-0.3,0.7
		c-0.6-0.3-1.3-0.4-1.9-0.4c-0.9,0-1.5,0.3-2,0.8s-0.7,1.2-0.7,2.2c0,1,0.2,1.7,0.7,2.2s1.2,0.7,2.1,0.7c0.5,0,1-0.1,1.5-0.2v-2.2
		h-1.6V40.4z"/>
	<path class="st4" d="M175.8,44.3c-0.8,0-1.4-0.2-1.9-0.7s-0.7-1.2-0.7-2c0-0.9,0.2-1.5,0.6-2.1s1-0.8,1.7-0.8
		c0.7,0,1.2,0.2,1.6,0.7c0.4,0.4,0.6,1,0.6,1.7v0.5h-3.7c0,0.6,0.2,1.1,0.5,1.4s0.7,0.5,1.3,0.5c0.6,0,1.1-0.1,1.7-0.4v0.7
		c-0.3,0.1-0.6,0.2-0.8,0.3C176.4,44.2,176.1,44.3,175.8,44.3z M175.6,39.4c-0.4,0-0.8,0.1-1,0.4s-0.4,0.7-0.5,1.2h2.8
		c0-0.5-0.1-0.9-0.3-1.2C176.3,39.5,176,39.4,175.6,39.4z"/>
	<path class="st4" d="M181.6,38.7c0.2,0,0.5,0,0.6,0.1l-0.1,0.8c-0.2,0-0.4-0.1-0.6-0.1c-0.4,0-0.8,0.2-1.1,0.5s-0.5,0.8-0.5,1.3
		v2.9h-0.8v-5.4h0.7l0.1,1h0c0.2-0.3,0.4-0.6,0.7-0.8S181.2,38.7,181.6,38.7z"/>
	<path class="st4" d="M190,44.2v-3.5c0-0.4-0.1-0.7-0.3-1c-0.2-0.2-0.5-0.3-0.8-0.3c-0.5,0-0.9,0.1-1.1,0.4s-0.4,0.7-0.4,1.3v3h-0.8
		v-3.5c0-0.4-0.1-0.7-0.3-1c-0.2-0.2-0.5-0.3-0.9-0.3c-0.5,0-0.9,0.2-1.1,0.5c-0.2,0.3-0.4,0.8-0.4,1.5v2.8h-0.8v-5.4h0.7l0.1,0.7h0
		c0.2-0.3,0.4-0.5,0.6-0.6s0.6-0.2,0.9-0.2c0.8,0,1.4,0.3,1.6,0.9h0c0.2-0.3,0.4-0.5,0.7-0.7s0.6-0.2,1-0.2c0.6,0,1.1,0.2,1.4,0.5
		c0.3,0.3,0.5,0.8,0.5,1.5v3.5H190z"/>
	<path class="st4" d="M195.8,44.2l-0.2-0.8h0c-0.3,0.3-0.5,0.6-0.8,0.7c-0.3,0.1-0.6,0.2-1,0.2c-0.5,0-0.9-0.1-1.2-0.4
		s-0.5-0.7-0.5-1.2c0-1.1,0.9-1.6,2.6-1.7l0.9,0v-0.3c0-0.4-0.1-0.7-0.3-0.9c-0.2-0.2-0.5-0.3-0.9-0.3c-0.4,0-1,0.1-1.5,0.4
		l-0.2-0.6c0.3-0.1,0.6-0.3,0.9-0.3s0.6-0.1,0.9-0.1c0.6,0,1.1,0.1,1.4,0.4s0.5,0.7,0.5,1.4v3.7H195.8z M194,43.6
		c0.5,0,0.9-0.1,1.2-0.4s0.4-0.7,0.4-1.2v-0.5l-0.8,0c-0.6,0-1.1,0.1-1.4,0.3c-0.3,0.2-0.4,0.5-0.4,0.8c0,0.3,0.1,0.5,0.3,0.7
		S193.6,43.6,194,43.6z"/>
	<path class="st4" d="M201.7,44.2v-3.5c0-0.4-0.1-0.8-0.3-1s-0.5-0.3-0.9-0.3c-0.6,0-1,0.2-1.2,0.5s-0.4,0.8-0.4,1.5v2.8h-0.8v-5.4
		h0.7l0.1,0.7h0c0.2-0.3,0.4-0.5,0.7-0.6c0.3-0.1,0.6-0.2,1-0.2c0.6,0,1.1,0.2,1.5,0.5c0.3,0.3,0.5,0.8,0.5,1.5v3.5H201.7z"/>
	<path class="st4" d="M203.4,38.8h0.9l1.2,3.1c0.3,0.7,0.4,1.2,0.5,1.5h0c0-0.2,0.1-0.5,0.3-0.9c0.1-0.4,0.6-1.6,1.3-3.7h0.9
		l-2.3,6.1c-0.2,0.6-0.5,1-0.8,1.3c-0.3,0.3-0.7,0.4-1.1,0.4c-0.2,0-0.5,0-0.7-0.1v-0.6c0.2,0,0.4,0.1,0.6,0.1c0.6,0,1-0.3,1.2-0.9
		l0.3-0.8L203.4,38.8z"/>
	<path class="st4" d="M210.1,43l0.1,0.1c-0.1,0.3-0.2,0.7-0.4,1.1c-0.2,0.4-0.3,0.8-0.5,1.2h-0.6c0.1-0.3,0.2-0.8,0.3-1.3
		s0.2-0.9,0.2-1.2H210.1z"/>
	<path class="st4" d="M217.6,44.2l-0.2-0.8h0c-0.3,0.3-0.5,0.6-0.8,0.7c-0.3,0.1-0.6,0.2-1,0.2c-0.5,0-0.9-0.1-1.2-0.4
		s-0.5-0.7-0.5-1.2c0-1.1,0.9-1.6,2.6-1.7l0.9,0v-0.3c0-0.4-0.1-0.7-0.3-0.9c-0.2-0.2-0.5-0.3-0.9-0.3c-0.4,0-1,0.1-1.5,0.4
		l-0.2-0.6c0.3-0.1,0.6-0.3,0.9-0.3s0.6-0.1,0.9-0.1c0.6,0,1.1,0.1,1.4,0.4s0.5,0.7,0.5,1.4v3.7H217.6z M215.8,43.6
		c0.5,0,0.9-0.1,1.2-0.4s0.4-0.7,0.4-1.2v-0.5l-0.8,0c-0.6,0-1.1,0.1-1.4,0.3c-0.3,0.2-0.4,0.5-0.4,0.8c0,0.3,0.1,0.5,0.3,0.7
		S215.4,43.6,215.8,43.6z"/>
	<path class="st4" d="M223.5,44.2v-3.5c0-0.4-0.1-0.8-0.3-1s-0.5-0.3-0.9-0.3c-0.6,0-1,0.2-1.2,0.5s-0.4,0.8-0.4,1.5v2.8h-0.8v-5.4
		h0.7l0.1,0.7h0c0.2-0.3,0.4-0.5,0.7-0.6c0.3-0.1,0.6-0.2,1-0.2c0.6,0,1.1,0.2,1.5,0.5c0.3,0.3,0.5,0.8,0.5,1.5v3.5H223.5z"/>
	<path class="st4" d="M229.6,43.4L229.6,43.4c-0.4,0.5-1,0.8-1.7,0.8c-0.7,0-1.2-0.2-1.6-0.7s-0.6-1.2-0.6-2s0.2-1.6,0.6-2.1
		s0.9-0.7,1.6-0.7c0.7,0,1.3,0.3,1.7,0.8h0.1l0-0.4l0-0.4v-2.2h0.8v7.6h-0.7L229.6,43.4z M228,43.6c0.6,0,1-0.2,1.2-0.5
		c0.2-0.3,0.4-0.8,0.4-1.5v-0.2c0-0.8-0.1-1.3-0.4-1.6c-0.3-0.3-0.7-0.5-1.2-0.5c-0.5,0-0.8,0.2-1.1,0.6c-0.3,0.4-0.4,0.9-0.4,1.6
		c0,0.7,0.1,1.2,0.4,1.5S227.5,43.6,228,43.6z"/>
	<path class="st4" d="M236.4,43.6c0.1,0,0.3,0,0.4,0c0.1,0,0.2,0,0.3-0.1v0.6c-0.1,0-0.2,0.1-0.4,0.1c-0.2,0-0.3,0-0.5,0
		c-1,0-1.6-0.5-1.6-1.6v-3.2H234V39l0.8-0.3l0.3-1.1h0.5v1.2h1.6v0.6h-1.6v3.1c0,0.3,0.1,0.6,0.2,0.7S236.2,43.6,236.4,43.6z"/>
	<path class="st4" d="M241.9,44.2v-3.5c0-0.4-0.1-0.8-0.3-1s-0.5-0.3-0.9-0.3c-0.6,0-1,0.2-1.2,0.5s-0.4,0.8-0.4,1.5v2.8h-0.8v-7.6
		h0.8v2.3c0,0.3,0,0.5,0,0.7h0c0.2-0.3,0.4-0.5,0.7-0.6c0.3-0.1,0.6-0.2,1-0.2c0.7,0,1.1,0.2,1.5,0.5c0.3,0.3,0.5,0.8,0.5,1.5v3.5
		H241.9z"/>
	<path class="st4" d="M246.6,44.3c-0.8,0-1.4-0.2-1.9-0.7s-0.7-1.2-0.7-2c0-0.9,0.2-1.5,0.6-2.1s1-0.8,1.7-0.8
		c0.7,0,1.2,0.2,1.6,0.7c0.4,0.4,0.6,1,0.6,1.7v0.5h-3.7c0,0.6,0.2,1.1,0.5,1.4s0.7,0.5,1.3,0.5c0.6,0,1.1-0.1,1.7-0.4v0.7
		c-0.3,0.1-0.6,0.2-0.8,0.3C247.3,44.2,247,44.3,246.6,44.3z M246.4,39.4c-0.4,0-0.8,0.1-1,0.4s-0.4,0.7-0.5,1.2h2.8
		c0-0.5-0.1-0.9-0.3-1.2C247.2,39.5,246.8,39.4,246.4,39.4z"/>
	<path class="st4" d="M253.4,42.7c0,0.5-0.2,0.9-0.6,1.2s-0.9,0.4-1.6,0.4c-0.7,0-1.3-0.1-1.7-0.3v-0.8c0.3,0.1,0.5,0.2,0.8,0.3
		s0.6,0.1,0.9,0.1c0.4,0,0.7-0.1,1-0.2c0.2-0.1,0.3-0.3,0.3-0.6c0-0.2-0.1-0.4-0.3-0.5c-0.2-0.1-0.5-0.3-1.1-0.5
		c-0.5-0.2-0.9-0.3-1.1-0.5c-0.2-0.1-0.4-0.3-0.5-0.5s-0.2-0.4-0.2-0.6c0-0.4,0.2-0.8,0.5-1c0.4-0.3,0.8-0.4,1.5-0.4
		c0.6,0,1.1,0.1,1.7,0.4l-0.3,0.7c-0.5-0.2-1-0.3-1.5-0.3c-0.4,0-0.7,0.1-0.9,0.2s-0.3,0.3-0.3,0.5c0,0.1,0,0.3,0.1,0.4
		s0.2,0.2,0.4,0.3s0.5,0.2,0.9,0.4c0.6,0.2,1.1,0.5,1.3,0.7S253.4,42.3,253.4,42.7z"/>
	<path class="st4" d="M257,44.3c-0.8,0-1.4-0.2-1.9-0.7s-0.7-1.2-0.7-2c0-0.9,0.2-1.5,0.6-2.1s1-0.8,1.7-0.8c0.7,0,1.2,0.2,1.6,0.7
		c0.4,0.4,0.6,1,0.6,1.7v0.5h-3.7c0,0.6,0.2,1.1,0.5,1.4c0.3,0.3,0.7,0.5,1.3,0.5c0.6,0,1.1-0.1,1.7-0.4v0.7
		c-0.3,0.1-0.6,0.2-0.8,0.3C257.7,44.2,257.4,44.3,257,44.3z M256.8,39.4c-0.4,0-0.8,0.1-1,0.4c-0.3,0.3-0.4,0.7-0.5,1.2h2.8
		c0-0.5-0.1-0.9-0.3-1.2C257.6,39.5,257.2,39.4,256.8,39.4z"/>
	<path class="st4" d="M176.1,56.2l-0.2-0.8h0c-0.3,0.3-0.5,0.6-0.8,0.7c-0.3,0.1-0.6,0.2-1,0.2c-0.5,0-0.9-0.1-1.2-0.4
		s-0.5-0.7-0.5-1.2c0-1.1,0.9-1.6,2.6-1.7l0.9,0v-0.3c0-0.4-0.1-0.7-0.3-0.9c-0.2-0.2-0.5-0.3-0.9-0.3c-0.4,0-1,0.1-1.5,0.4
		l-0.2-0.6c0.3-0.1,0.6-0.3,0.9-0.3s0.6-0.1,0.9-0.1c0.6,0,1.1,0.1,1.4,0.4s0.5,0.7,0.5,1.4v3.7H176.1z M174.2,55.6
		c0.5,0,0.9-0.1,1.2-0.4s0.4-0.7,0.4-1.2v-0.5l-0.8,0c-0.6,0-1.1,0.1-1.4,0.3c-0.3,0.2-0.4,0.5-0.4,0.8c0,0.3,0.1,0.5,0.3,0.7
		S173.9,55.6,174.2,55.6z"/>
	<path class="st4" d="M180.8,50.7c0.2,0,0.5,0,0.6,0.1l-0.1,0.8c-0.2,0-0.4-0.1-0.6-0.1c-0.4,0-0.8,0.2-1.1,0.5s-0.5,0.8-0.5,1.3
		v2.9h-0.8v-5.4h0.7l0.1,1h0c0.2-0.3,0.4-0.6,0.7-0.8S180.4,50.7,180.8,50.7z"/>
	<path class="st4" d="M184.7,56.3c-0.8,0-1.4-0.2-1.9-0.7s-0.7-1.2-0.7-2c0-0.9,0.2-1.5,0.6-2.1s1-0.8,1.7-0.8
		c0.7,0,1.2,0.2,1.6,0.7c0.4,0.4,0.6,1,0.6,1.7v0.5h-3.7c0,0.6,0.2,1.1,0.5,1.4s0.7,0.5,1.3,0.5c0.6,0,1.1-0.1,1.7-0.4v0.7
		c-0.3,0.1-0.6,0.2-0.8,0.3C185.3,56.2,185,56.3,184.7,56.3z M184.4,51.4c-0.4,0-0.8,0.1-1,0.4S183,52.5,183,53h2.8
		c0-0.5-0.1-0.9-0.3-1.2C185.2,51.5,184.9,51.4,184.4,51.4z"/>
	<path class="st4" d="M192.3,55.6c0.1,0,0.3,0,0.4,0c0.1,0,0.2,0,0.3-0.1v0.6c-0.1,0-0.2,0.1-0.4,0.1c-0.2,0-0.3,0-0.5,0
		c-1,0-1.6-0.5-1.6-1.6v-3.2h-0.8V51l0.8-0.3l0.3-1.1h0.5v1.2h1.6v0.6h-1.6v3.1c0,0.3,0.1,0.6,0.2,0.7S192.1,55.6,192.3,55.6z"/>
	<path class="st4" d="M197.8,56.2v-3.5c0-0.4-0.1-0.8-0.3-1s-0.5-0.3-0.9-0.3c-0.6,0-1,0.2-1.2,0.5s-0.4,0.8-0.4,1.5v2.8h-0.8v-7.6
		h0.8v2.3c0,0.3,0,0.5,0,0.7h0c0.2-0.3,0.4-0.5,0.7-0.6c0.3-0.1,0.6-0.2,1-0.2c0.7,0,1.1,0.2,1.5,0.5c0.3,0.3,0.5,0.8,0.5,1.5v3.5
		H197.8z"/>
	<path class="st4" d="M202.5,56.3c-0.8,0-1.4-0.2-1.9-0.7s-0.7-1.2-0.7-2c0-0.9,0.2-1.5,0.6-2.1s1-0.8,1.7-0.8
		c0.7,0,1.2,0.2,1.6,0.7c0.4,0.4,0.6,1,0.6,1.7v0.5h-3.7c0,0.6,0.2,1.1,0.5,1.4s0.7,0.5,1.3,0.5c0.6,0,1.1-0.1,1.7-0.4v0.7
		c-0.3,0.1-0.6,0.2-0.8,0.3C203.2,56.2,202.9,56.3,202.5,56.3z M202.3,51.4c-0.4,0-0.8,0.1-1,0.4s-0.4,0.7-0.5,1.2h2.8
		c0-0.5-0.1-0.9-0.3-1.2C203.1,51.5,202.7,51.4,202.3,51.4z"/>
	<path class="st4" d="M210.9,50.7c0.2,0,0.5,0,0.6,0.1l-0.1,0.8c-0.2,0-0.4-0.1-0.6-0.1c-0.4,0-0.8,0.2-1.1,0.5s-0.5,0.8-0.5,1.3
		v2.9h-0.8v-5.4h0.7l0.1,1h0c0.2-0.3,0.4-0.6,0.7-0.8S210.6,50.7,210.9,50.7z"/>
	<path class="st4" d="M214.8,56.3c-0.8,0-1.4-0.2-1.9-0.7s-0.7-1.2-0.7-2c0-0.9,0.2-1.5,0.6-2.1s1-0.8,1.7-0.8
		c0.7,0,1.2,0.2,1.6,0.7c0.4,0.4,0.6,1,0.6,1.7v0.5h-3.7c0,0.6,0.2,1.1,0.5,1.4s0.7,0.5,1.3,0.5c0.6,0,1.1-0.1,1.7-0.4v0.7
		c-0.3,0.1-0.6,0.2-0.8,0.3C215.5,56.2,215.2,56.3,214.8,56.3z M214.6,51.4c-0.4,0-0.8,0.1-1,0.4s-0.4,0.7-0.5,1.2h2.8
		c0-0.5-0.1-0.9-0.3-1.2C215.4,51.5,215,51.4,214.6,51.4z"/>
	<path class="st4" d="M221.6,54.7c0,0.5-0.2,0.9-0.6,1.2s-0.9,0.4-1.6,0.4c-0.7,0-1.3-0.1-1.7-0.3v-0.8c0.3,0.1,0.5,0.2,0.8,0.3
		s0.6,0.1,0.9,0.1c0.4,0,0.7-0.1,1-0.2c0.2-0.1,0.3-0.3,0.3-0.6c0-0.2-0.1-0.4-0.3-0.5c-0.2-0.1-0.5-0.3-1.1-0.5
		c-0.5-0.2-0.9-0.3-1.1-0.5c-0.2-0.1-0.4-0.3-0.5-0.5s-0.2-0.4-0.2-0.6c0-0.4,0.2-0.8,0.5-1c0.4-0.3,0.8-0.4,1.5-0.4
		c0.6,0,1.1,0.1,1.7,0.4l-0.3,0.7c-0.5-0.2-1-0.3-1.5-0.3c-0.4,0-0.7,0.1-0.9,0.2s-0.3,0.3-0.3,0.5c0,0.1,0,0.3,0.1,0.4
		s0.2,0.2,0.4,0.3s0.5,0.2,0.9,0.4c0.6,0.2,1.1,0.5,1.3,0.7S221.6,54.3,221.6,54.7z"/>
	<path class="st4" d="M223.7,50.8v3.5c0,0.4,0.1,0.8,0.3,1s0.5,0.3,0.9,0.3c0.6,0,1-0.2,1.2-0.5s0.4-0.8,0.4-1.5v-2.8h0.8v5.4h-0.7
		l-0.1-0.7h0c-0.2,0.3-0.4,0.5-0.7,0.6s-0.6,0.2-1,0.2c-0.7,0-1.1-0.2-1.5-0.5s-0.5-0.8-0.5-1.5v-3.5H223.7z"/>
	<path class="st4" d="M229.9,56.2h-0.8v-7.6h0.8V56.2z"/>
	<path class="st4" d="M233.3,55.6c0.1,0,0.3,0,0.4,0c0.1,0,0.2,0,0.3-0.1v0.6c-0.1,0-0.2,0.1-0.4,0.1c-0.2,0-0.3,0-0.5,0
		c-1,0-1.6-0.5-1.6-1.6v-3.2h-0.8V51l0.8-0.3l0.3-1.1h0.5v1.2h1.6v0.6h-1.6v3.1c0,0.3,0.1,0.6,0.2,0.7S233.1,55.6,233.3,55.6z"/>
	<path class="st4" d="M238.6,54.7c0,0.5-0.2,0.9-0.6,1.2s-0.9,0.4-1.6,0.4c-0.7,0-1.3-0.1-1.7-0.3v-0.8c0.3,0.1,0.5,0.2,0.8,0.3
		s0.6,0.1,0.9,0.1c0.4,0,0.7-0.1,1-0.2c0.2-0.1,0.3-0.3,0.3-0.6c0-0.2-0.1-0.4-0.3-0.5c-0.2-0.1-0.5-0.3-1.1-0.5
		c-0.5-0.2-0.9-0.3-1.1-0.5c-0.2-0.1-0.4-0.3-0.5-0.5s-0.2-0.4-0.2-0.6c0-0.4,0.2-0.8,0.5-1c0.4-0.3,0.8-0.4,1.5-0.4
		c0.6,0,1.1,0.1,1.7,0.4l-0.3,0.7c-0.5-0.2-1-0.3-1.5-0.3c-0.4,0-0.7,0.1-0.9,0.2s-0.3,0.3-0.3,0.5c0,0.1,0,0.3,0.1,0.4
		s0.2,0.2,0.4,0.3s0.5,0.2,0.9,0.4c0.6,0.2,1.1,0.5,1.3,0.7S238.6,54.3,238.6,54.7z"/>
	<path class="st4" d="M239.8,55.6c0-0.2,0-0.4,0.1-0.5c0.1-0.1,0.2-0.2,0.4-0.2c0.2,0,0.3,0.1,0.4,0.2c0.1,0.1,0.2,0.3,0.2,0.5
		c0,0.2-0.1,0.4-0.2,0.5s-0.3,0.2-0.4,0.2c-0.2,0-0.3-0.1-0.4-0.2C239.9,56,239.8,55.9,239.8,55.6z"/>
</g>
<g>
	<polygon class="st5" points="113.6,169.9 113.6,172.7 106.9,171.4 	"/>
	<g>
		<polygon class="st5" points="22.7,164.3 22.7,167.1 27.5,166.4 		"/>
		<path class="st5" d="M72,144.9l41.5,27.9c0,0-16.1,14.5-42.1,13.1c-26-1.3-42.1-10.7-48.8-18.8L72,144.9z"/>
	</g>
	<path class="st5" d="M72,142l41.5,27.9c0,0-16.1,14.5-42.1,13.1c-26-1.3-42.1-10.7-48.8-18.8L72,142z"/>
</g>
<g>
	<g>
		<path class="st5" d="M69.2,138.8l0.2-41.5c0,0-33.3,0.3-49.7,19.7s-4.5,37.8-4.5,37.8s3,4.8,4.7,6.2L69.2,138.8z"/>
	</g>
	<path class="st5" d="M69.2,136.3l0.2-41.5c0,0-33.3,0.3-49.7,19.7s-4.5,37.8-4.5,37.8s3,4.8,4.7,6.2L69.2,136.3z"/>
</g>
<g>
	<path class="st5" d="M73.2,139.3l0.2-41.5c0,0,27.7,0.7,42.3,13.5s18.3,23.7,15.2,36.5c-3.2,12.8-15,19.8-15,19.8L73.2,139.3z"/>
	<path class="st5" d="M73.2,136.3c0,0,0.2-41.4,0.2-41.5c0-0.4,14,1.7,15,1.9c6.4,1.3,12.7,3.3,18.6,6.2
		c8.9,4.4,16.8,11.3,21.2,20.2c7.4,15,2.2,33-12.3,41.6L73.2,136.3z"/>
</g>
<g>
	<path class="st5" d="M208.9,97.5v42.6l-52.3,20.6c0,0-18.9-22,4-46C160.6,114.6,177.8,97.2,208.9,97.5z"/>
	<path class="st5" d="M208.9,94.6v42.6l-52.3,20.6c0,0-18.9-22,4-46C160.6,111.8,177.8,94.3,208.9,94.6z"/>
</g>
<g>
	<path class="st5" d="M238.7,178.7l-25.7-38V98c0,0,40,0.3,54.9,25.2C282.7,148.1,264.7,171.2,238.7,178.7z"/>
	<path class="st5" d="M238.7,175.2l-25.7-38V94.6c0,0,40,0.3,54.9,25.2C282.7,144.6,264.7,167.8,238.7,175.2z"/>
</g>
<g>
	<path class="st5" d="M210.9,145.8l24.3,37.2c0,0-45.7,16.9-76.6-17.1L210.9,145.8z"/>
	<polygon class="st5" points="235.2,182.9 235.2,179.8 229.7,179.4 	"/>
	<polygon class="st5" points="158.6,162.6 158.6,165.8 165.8,165.6 	"/>
	<path class="st5" d="M210.9,142.6l24.3,37.2c0,0-45.7,16.9-76.6-17.1L210.9,142.6z"/>
</g>
<g>
	<polygon class="st6" points="110.2,166.1 110.2,168.9 103.5,167.6 	"/>
	<g>
		<polygon class="st6" points="19.3,160.5 19.3,163.3 24,162.6 		"/>
		<path class="st6" d="M68.6,141.1l41.5,27.9c0,0-16.1,14.5-42.1,13.1c-26-1.3-42.1-10.7-48.8-18.8L68.6,141.1z"/>
	</g>
	<path class="st4" d="M68.6,138.2l41.5,27.9c0,0-16.1,14.5-42.1,13.1S26,168.5,19.3,160.5L68.6,138.2z"/>
</g>
<g>
	<g>
		<path class="st1" d="M65.8,135l0.2-41.5c0,0-33.3,0.3-49.7,19.7S11.8,151,11.8,151s3,4.8,4.7,6.2L65.8,135z"/>
	</g>
	<path class="st7" d="M65.8,132.5l0.2-41.5c0,0-33.3,0.3-49.7,19.7s-4.5,37.8-4.5,37.8s3,4.8,4.7,6.2L65.8,132.5z"/>
</g>
<g>
	<path class="st0" d="M69.8,135.5l0.2-41.5c0,0,27.7,0.7,42.3,13.5s18.3,23.7,15.2,36.5c-3.2,12.8-15,19.8-15,19.8L69.8,135.5z"/>
	<path class="st6" d="M69.8,132.5c0,0,0.2-41.4,0.2-41.5c0-0.4,14,1.7,15,1.9c6.4,1.3,12.7,3.3,18.6,6.2
		c8.9,4.4,16.8,11.3,21.2,20.2c7.4,15,2.2,33-12.3,41.6L69.8,132.5z"/>
</g>
<g>
	<path class="st7" d="M30.1,18.4l-1.5-3.7h-4.7l-1.4,3.7h-1.4l4.7-11.8h1.2l4.6,11.8H30.1z M28.2,13.4l-1.4-3.6
		c-0.2-0.5-0.4-1-0.5-1.7c-0.1,0.5-0.3,1.1-0.5,1.7l-1.4,3.6H28.2z"/>
	<path class="st7" d="M38.3,18.4l-4-10.4h-0.1c0.1,0.8,0.1,1.8,0.1,2.9v7.5h-1.3V6.6h2.1l3.7,9.7H39l3.8-9.7h2v11.8h-1.4v-7.6
		c0-0.9,0-1.8,0.1-2.8h-0.1l-4,10.4H38.3z"/>
	<path class="st7" d="M54.6,18.4H48V6.6h6.6v1.2h-5.2v3.8h4.9v1.2h-4.9v4.3h5.2V18.4z"/>
	<path class="st7" d="M58.6,13.5v4.9h-1.4V6.6h3.2c1.4,0,2.5,0.3,3.2,0.8s1,1.4,1,2.5c0,1.6-0.8,2.6-2.4,3.2l3.2,5.3h-1.6L61,13.5
		H58.6z M58.6,12.3h1.9c1,0,1.7-0.2,2.1-0.6c0.5-0.4,0.7-1,0.7-1.7c0-0.8-0.2-1.3-0.7-1.7c-0.5-0.3-1.2-0.5-2.2-0.5h-1.8V12.3z"/>
	<path class="st7" d="M67.4,18.4V6.6h1.4v11.8H67.4z"/>
	<path class="st7" d="M77,7.7c-1.3,0-2.3,0.4-3.1,1.3c-0.7,0.9-1.1,2-1.1,3.5c0,1.5,0.4,2.7,1.1,3.6c0.7,0.8,1.8,1.3,3.1,1.3
		c0.8,0,1.8-0.1,2.8-0.4v1.2c-0.8,0.3-1.8,0.5-3,0.5c-1.7,0-3.1-0.5-4-1.6c-0.9-1.1-1.4-2.5-1.4-4.5c0-1.2,0.2-2.3,0.7-3.2
		c0.5-0.9,1.1-1.6,2-2.1c0.9-0.5,1.9-0.7,3-0.7c1.2,0,2.3,0.2,3.2,0.7l-0.6,1.2C78.8,7.9,77.9,7.7,77,7.7z"/>
	<path class="st7" d="M89.8,18.4l-1.5-3.7h-4.7l-1.4,3.7h-1.4l4.7-11.8h1.2l4.6,11.8H89.8z M87.9,13.4l-1.4-3.6
		c-0.2-0.5-0.4-1-0.5-1.7c-0.1,0.5-0.3,1.1-0.5,1.7l-1.4,3.6H87.9z"/>
	<path class="st7" d="M102,18.4h-1.6L94,8.5H94c0.1,1.2,0.1,2.2,0.1,3.2v6.7h-1.3V6.6h1.5l6.4,9.8h0.1c0-0.1,0-0.6-0.1-1.4
		c0-0.8-0.1-1.3,0-1.7V6.6h1.3V18.4z"/>
	<path class="st7" d="M111.9,15.2c0,1-0.4,1.8-1.1,2.4c-0.8,0.6-1.8,0.9-3.1,0.9c-1.4,0-2.5-0.2-3.2-0.5v-1.3c0.5,0.2,1,0.4,1.6,0.5
		c0.6,0.1,1.1,0.2,1.7,0.2c0.9,0,1.6-0.2,2.1-0.5c0.5-0.3,0.7-0.8,0.7-1.4c0-0.4-0.1-0.7-0.2-1c-0.2-0.3-0.4-0.5-0.8-0.7
		c-0.4-0.2-1-0.5-1.8-0.7c-1.1-0.4-1.9-0.9-2.3-1.4c-0.5-0.5-0.7-1.2-0.7-2.1c0-0.9,0.3-1.6,1-2.2c0.7-0.5,1.6-0.8,2.7-0.8
		c1.2,0,2.2,0.2,3.2,0.6l-0.4,1.2c-1-0.4-1.9-0.6-2.8-0.6c-0.7,0-1.3,0.2-1.7,0.5S106,8.9,106,9.4c0,0.4,0.1,0.7,0.2,1
		c0.2,0.3,0.4,0.5,0.8,0.7c0.4,0.2,0.9,0.5,1.6,0.7c1.2,0.4,2.1,0.9,2.5,1.4S111.9,14.4,111.9,15.2z"/>
</g>
<g>
	<path class="st7" d="M172.7,12.2h4v5.7c-0.6,0.2-1.3,0.3-1.9,0.5c-0.6,0.1-1.4,0.2-2.2,0.2c-1.8,0-3.2-0.5-4.2-1.6
		s-1.5-2.5-1.5-4.5c0-1.2,0.2-2.3,0.7-3.2s1.2-1.6,2.1-2.1c0.9-0.5,2-0.7,3.2-0.7c1.3,0,2.4,0.2,3.5,0.7L176,8.3
		c-1.1-0.5-2.1-0.7-3.1-0.7c-1.4,0-2.6,0.4-3.4,1.3c-0.8,0.9-1.2,2-1.2,3.6c0,1.6,0.4,2.8,1.2,3.6c0.8,0.8,1.9,1.2,3.4,1.2
		c0.8,0,1.6-0.1,2.4-0.3v-3.6h-2.6V12.2z"/>
	<path class="st7" d="M186.1,18.4h-6.6V6.6h6.6v1.2h-5.2v3.8h4.9v1.2h-4.9v4.3h5.2V18.4z"/>
	<path class="st7" d="M190.1,13.5v4.9h-1.4V6.6h3.2c1.4,0,2.5,0.3,3.2,0.8s1,1.4,1,2.5c0,1.6-0.8,2.6-2.4,3.2l3.2,5.3h-1.6l-2.9-4.9
		H190.1z M190.1,12.3h1.9c1,0,1.7-0.2,2.1-0.6c0.5-0.4,0.7-1,0.7-1.7c0-0.8-0.2-1.3-0.7-1.7c-0.5-0.3-1.2-0.5-2.2-0.5h-1.8V12.3z"/>
	<path class="st7" d="M204.1,18.4l-4-10.4H200c0.1,0.8,0.1,1.8,0.1,2.9v7.5h-1.3V6.6h2.1l3.7,9.7h0.1l3.8-9.7h2v11.8h-1.4v-7.6
		c0-0.9,0-1.8,0.1-2.8h-0.1l-4,10.4H204.1z"/>
	<path class="st7" d="M221.2,18.4l-1.5-3.7H215l-1.4,3.7h-1.4l4.7-11.8h1.2l4.6,11.8H221.2z M219.3,13.4l-1.4-3.6
		c-0.2-0.5-0.4-1-0.5-1.7c-0.1,0.5-0.3,1.1-0.5,1.7l-1.4,3.6H219.3z"/>
	<path class="st7" d="M233.4,18.4h-1.6l-6.4-9.9h-0.1c0.1,1.2,0.1,2.2,0.1,3.2v6.7h-1.3V6.6h1.5l6.4,9.8h0.1c0-0.1,0-0.6-0.1-1.4
		c0-0.8-0.1-1.3,0-1.7V6.6h1.3V18.4z"/>
	<path class="st7" d="M243.3,15.2c0,1-0.4,1.8-1.1,2.4c-0.8,0.6-1.8,0.9-3.1,0.9c-1.4,0-2.5-0.2-3.2-0.5v-1.3c0.5,0.2,1,0.4,1.6,0.5
		c0.6,0.1,1.1,0.2,1.7,0.2c0.9,0,1.6-0.2,2.1-0.5c0.5-0.3,0.7-0.8,0.7-1.4c0-0.4-0.1-0.7-0.2-1c-0.2-0.3-0.4-0.5-0.8-0.7
		c-0.4-0.2-1-0.5-1.8-0.7c-1.1-0.4-1.9-0.9-2.3-1.4c-0.5-0.5-0.7-1.2-0.7-2.1c0-0.9,0.3-1.6,1-2.2c0.7-0.5,1.6-0.8,2.7-0.8
		c1.2,0,2.2,0.2,3.2,0.6l-0.4,1.2c-1-0.4-1.9-0.6-2.8-0.6c-0.7,0-1.3,0.2-1.7,0.5s-0.6,0.7-0.6,1.3c0,0.4,0.1,0.7,0.2,1
		c0.2,0.3,0.4,0.5,0.8,0.7c0.4,0.2,0.9,0.5,1.6,0.7c1.2,0.4,2.1,0.9,2.5,1.4S243.3,14.4,243.3,15.2z"/>
</g>
<g>
	<path class="st6" d="M205.5,93.7v42.6l-52.3,20.6c0,0-18.9-22,4-46C157.2,110.8,174.4,93.4,205.5,93.7z"/>
	<path class="st4" d="M205.5,90.8v42.6L153.2,154c0,0-18.9-22,4-46C157.2,108,174.4,90.6,205.5,90.8z"/>
</g>
<g>
	<path class="st0" d="M92.5,114.1c0,0.7-0.2,1.2-0.6,1.7c-0.4,0.4-0.9,0.7-1.6,0.9v0.1c0.9,0.1,1.5,0.4,1.9,0.8s0.6,1,0.6,1.7
		c0,1-0.4,1.8-1.1,2.4c-0.7,0.5-1.7,0.8-3,0.8c-0.6,0-1.1,0-1.6-0.1c-0.5-0.1-0.9-0.2-1.4-0.5v-1.2c0.5,0.2,1,0.4,1.5,0.5
		c0.5,0.1,1,0.2,1.5,0.2c1.9,0,2.8-0.7,2.8-2.2c0-1.3-1-1.9-3.1-1.9h-1.1v-1h1.1c0.8,0,1.5-0.2,2-0.6c0.5-0.4,0.7-0.9,0.7-1.5
		c0-0.5-0.2-0.9-0.5-1.2c-0.4-0.3-0.8-0.4-1.5-0.4c-0.5,0-0.9,0.1-1.3,0.2s-0.9,0.4-1.4,0.7l-0.6-0.8c0.4-0.3,0.9-0.6,1.5-0.8
		c0.6-0.2,1.2-0.3,1.8-0.3c1,0,1.8,0.2,2.4,0.7C92.2,112.6,92.5,113.2,92.5,114.1z"/>
	<path class="st0" d="M95.8,122.3l4.4-9.6h-5.8v-1.1h7.1v1l-4.4,9.7H95.8z"/>
	<path class="st0" d="M107.4,114.7c0,1.1-0.2,2-0.6,2.5c-0.4,0.6-0.9,0.9-1.6,0.9c-0.7,0-1.2-0.3-1.6-0.9c-0.4-0.6-0.6-1.4-0.6-2.5
		c0-1.1,0.2-1.9,0.5-2.5c0.4-0.6,0.9-0.8,1.6-0.8c0.7,0,1.3,0.3,1.6,0.9S107.4,113.7,107.4,114.7z M104.1,114.7
		c0,0.8,0.1,1.5,0.3,1.9s0.5,0.6,0.9,0.6c0.8,0,1.2-0.8,1.2-2.5c0-1.7-0.4-2.5-1.2-2.5c-0.4,0-0.7,0.2-0.9,0.6
		S104.1,113.9,104.1,114.7z M112,111.5l-5.9,10.7H105l5.9-10.7H112z M113.9,119c0,1.1-0.2,1.9-0.6,2.5c-0.4,0.6-0.9,0.9-1.6,0.9
		c-0.7,0-1.2-0.3-1.6-0.9c-0.4-0.6-0.6-1.4-0.6-2.5c0-1.1,0.2-1.9,0.5-2.5c0.4-0.6,0.9-0.8,1.6-0.8c0.7,0,1.2,0.3,1.6,0.9
		C113.7,117.1,113.9,117.9,113.9,119z M110.5,119c0,0.8,0.1,1.5,0.3,1.9c0.2,0.4,0.5,0.6,0.9,0.6s0.7-0.2,0.9-0.6
		c0.2-0.4,0.3-1,0.3-1.9c0-0.8-0.1-1.5-0.3-1.9c-0.2-0.4-0.5-0.6-0.9-0.6s-0.7,0.2-0.9,0.6C110.6,117.6,110.5,118.2,110.5,119z"/>
	<path class="st0" d="M85.3,135.3v-10.7h1.2v9.6h4.7v1.1H85.3z"/>
	<path class="st0" d="M99,135.3h-6v-10.7h6v1.1h-4.7v3.4h4.4v1.1h-4.4v3.9H99V135.3z"/>
	<path class="st0" d="M102.6,135.3h-1.2v-10.7h6v1.1h-4.7v3.9h4.4v1.1h-4.4V135.3z"/>
	<path class="st0" d="M112.4,135.3h-1.2v-9.6h-3.4v-1.1h8v1.1h-3.4V135.3z"/>
</g>
<g>
	<path class="st0" d="M235.3,174.9l-25.7-38V94.3c0,0,40,0.3,54.9,25.2C279.3,144.3,261.3,167.4,235.3,174.9z"/>
	<path class="st6" d="M235.3,171.4l-25.7-38V90.8c0,0,40,0.3,54.9,25.2C279.3,140.9,261.3,164,235.3,171.4z"/>
</g>
<g>
	<path class="st0" d="M234.2,124.8h-1.6v2.5h-1.2v-2.5h-5.2v-1.1l5.1-7.2h1.3v7.2h1.6V124.8z M231.4,123.7v-3.6c0-0.7,0-1.5,0.1-2.4
		h-0.1c-0.2,0.5-0.5,0.9-0.7,1.2l-3.3,4.8H231.4z"/>
	<path class="st0" d="M241.8,119.1c0,0.7-0.2,1.2-0.6,1.7c-0.4,0.4-0.9,0.7-1.6,0.9v0.1c0.9,0.1,1.5,0.4,1.9,0.8s0.6,1,0.6,1.7
		c0,1-0.4,1.8-1.1,2.4c-0.7,0.5-1.7,0.8-3,0.8c-0.6,0-1.1,0-1.6-0.1c-0.5-0.1-0.9-0.2-1.4-0.5v-1.2c0.5,0.2,1,0.4,1.5,0.5
		c0.5,0.1,1,0.2,1.5,0.2c1.9,0,2.8-0.7,2.8-2.2c0-1.3-1-1.9-3.1-1.9h-1.1v-1h1.1c0.8,0,1.5-0.2,2-0.6c0.5-0.4,0.7-0.9,0.7-1.5
		c0-0.5-0.2-0.9-0.5-1.2c-0.4-0.3-0.8-0.4-1.5-0.4c-0.5,0-0.9,0.1-1.3,0.2s-0.9,0.4-1.4,0.7l-0.6-0.8c0.4-0.3,0.9-0.6,1.5-0.8
		c0.6-0.2,1.2-0.3,1.8-0.3c1,0,1.8,0.2,2.4,0.7C241.6,117.6,241.8,118.3,241.8,119.1z"/>
	<path class="st0" d="M248.2,119.8c0,1.1-0.2,2-0.6,2.5c-0.4,0.6-0.9,0.9-1.6,0.9c-0.7,0-1.2-0.3-1.6-0.9c-0.4-0.6-0.6-1.4-0.6-2.5
		c0-1.1,0.2-1.9,0.5-2.5c0.4-0.6,0.9-0.8,1.6-0.8c0.7,0,1.3,0.3,1.6,0.9S248.2,118.7,248.2,119.8z M244.8,119.8
		c0,0.8,0.1,1.5,0.3,1.9s0.5,0.6,0.9,0.6c0.8,0,1.2-0.8,1.2-2.5c0-1.7-0.4-2.5-1.2-2.5c-0.4,0-0.7,0.2-0.9,0.6
		S244.8,119,244.8,119.8z M252.7,116.6l-5.9,10.7h-1.1l5.9-10.7H252.7z M254.6,124.1c0,1.1-0.2,1.9-0.6,2.5
		c-0.4,0.6-0.9,0.9-1.6,0.9c-0.7,0-1.2-0.3-1.6-0.9c-0.4-0.6-0.6-1.4-0.6-2.5c0-1.1,0.2-1.9,0.5-2.5c0.4-0.6,0.9-0.8,1.6-0.8
		c0.7,0,1.2,0.3,1.6,0.9C254.4,122.2,254.6,123,254.6,124.1z M251.3,124.1c0,0.8,0.1,1.5,0.3,1.9c0.2,0.4,0.5,0.6,0.9,0.6
		s0.7-0.2,0.9-0.6c0.2-0.4,0.3-1,0.3-1.9c0-0.8-0.1-1.5-0.3-1.9c-0.2-0.4-0.5-0.6-0.9-0.6s-0.7,0.2-0.9,0.6
		C251.4,122.6,251.3,123.2,251.3,124.1z"/>
	<path class="st0" d="M226,140.3v-10.7h1.2v9.6h4.7v1.1H226z"/>
	<path class="st0" d="M239.8,140.3h-6v-10.7h6v1.1h-4.7v3.4h4.4v1.1h-4.4v3.9h4.7V140.3z"/>
	<path class="st0" d="M243.4,140.3h-1.2v-10.7h6v1.1h-4.7v3.9h4.4v1.1h-4.4V140.3z"/>
	<path class="st0" d="M253.2,140.3H252v-9.6h-3.4v-1.1h8v1.1h-3.4V140.3z"/>
</g>
<g>
	<path class="st1" d="M207.5,142l24.3,37.2c0,0-45.7,16.9-76.6-17.1L207.5,142z"/>
	<polygon class="st1" points="231.8,179.2 231.8,176 226.3,175.7 	"/>
	<polygon class="st1" points="155.2,158.9 155.2,162 162.4,161.9 	"/>
	<path class="st7" d="M207.5,138.9l24.3,37.2c0,0-45.7,16.9-76.6-17.1L207.5,138.9z"/>
</g>
<g>
	<path class="st8" d="M233.3,124h-1.6v2.5h-1.2V124h-5.2v-1.1l5.1-7.2h1.3v7.2h1.6V124z M230.5,122.8v-3.6c0-0.7,0-1.5,0.1-2.4h-0.1
		c-0.2,0.5-0.5,0.9-0.7,1.2l-3.3,4.8H230.5z"/>
	<path class="st8" d="M241,118.2c0,0.7-0.2,1.2-0.6,1.7c-0.4,0.4-0.9,0.7-1.6,0.9v0.1c0.9,0.1,1.5,0.4,1.9,0.8s0.6,1,0.6,1.7
		c0,1-0.4,1.8-1.1,2.4c-0.7,0.5-1.7,0.8-3,0.8c-0.6,0-1.1,0-1.6-0.1c-0.5-0.1-0.9-0.2-1.4-0.5v-1.2c0.5,0.2,1,0.4,1.5,0.5
		c0.5,0.1,1,0.2,1.5,0.2c1.9,0,2.8-0.7,2.8-2.2c0-1.3-1-1.9-3.1-1.9h-1.1v-1h1.1c0.8,0,1.5-0.2,2-0.6c0.5-0.4,0.7-0.9,0.7-1.5
		c0-0.5-0.2-0.9-0.5-1.2c-0.4-0.3-0.8-0.4-1.5-0.4c-0.5,0-0.9,0.1-1.3,0.2s-0.9,0.4-1.4,0.7l-0.6-0.8c0.4-0.3,0.9-0.6,1.5-0.8
		c0.6-0.2,1.2-0.3,1.8-0.3c1,0,1.8,0.2,2.4,0.7C240.7,116.7,241,117.4,241,118.2z"/>
	<path class="st8" d="M247.3,118.9c0,1.1-0.2,2-0.6,2.5c-0.4,0.6-0.9,0.9-1.6,0.9c-0.7,0-1.2-0.3-1.6-0.9c-0.4-0.6-0.6-1.4-0.6-2.5
		c0-1.1,0.2-1.9,0.5-2.5c0.4-0.6,0.9-0.8,1.6-0.8c0.7,0,1.3,0.3,1.6,0.9S247.3,117.8,247.3,118.9z M243.9,118.9
		c0,0.8,0.1,1.5,0.3,1.9s0.5,0.6,0.9,0.6c0.8,0,1.2-0.8,1.2-2.5c0-1.7-0.4-2.5-1.2-2.5c-0.4,0-0.7,0.2-0.9,0.6
		S243.9,118.1,243.9,118.9z M251.8,115.7l-5.9,10.7h-1.1l5.9-10.7H251.8z M253.7,123.2c0,1.1-0.2,1.9-0.6,2.5
		c-0.4,0.6-0.9,0.9-1.6,0.9c-0.7,0-1.2-0.3-1.6-0.9c-0.4-0.6-0.6-1.4-0.6-2.5c0-1.1,0.2-1.9,0.5-2.5c0.4-0.6,0.9-0.8,1.6-0.8
		c0.7,0,1.2,0.3,1.6,0.9C253.5,121.3,253.7,122.1,253.7,123.2z M250.4,123.2c0,0.8,0.1,1.5,0.3,1.9c0.2,0.4,0.5,0.6,0.9,0.6
		s0.7-0.2,0.9-0.6c0.2-0.4,0.3-1,0.3-1.9c0-0.8-0.1-1.5-0.3-1.9c-0.2-0.4-0.5-0.6-0.9-0.6s-0.7,0.2-0.9,0.6
		C250.5,121.7,250.4,122.4,250.4,123.2z"/>
	<path class="st8" d="M225.1,139.4v-10.7h1.2v9.6h4.7v1.1H225.1z"/>
	<path class="st8" d="M238.9,139.4h-6v-10.7h6v1.1h-4.7v3.4h4.4v1.1h-4.4v3.9h4.7V139.4z"/>
	<path class="st8" d="M242.5,139.4h-1.2v-10.7h6v1.1h-4.7v3.9h4.4v1.1h-4.4V139.4z"/>
	<path class="st8" d="M252.3,139.4h-1.2v-9.6h-3.4v-1.1h8v1.1h-3.4V139.4z"/>
</g>
<g>
	<path class="st1" d="M191.7,159.4h-7v-1l2.8-2.8c0.9-0.9,1.4-1.5,1.7-1.9c0.3-0.4,0.5-0.7,0.6-1.1c0.1-0.4,0.2-0.7,0.2-1.1
		c0-0.6-0.2-1-0.5-1.4c-0.3-0.3-0.8-0.5-1.4-0.5c-0.4,0-0.9,0.1-1.3,0.2c-0.4,0.1-0.8,0.4-1.3,0.8l-0.6-0.8c1-0.8,2.1-1.2,3.2-1.2
		c1,0,1.8,0.3,2.4,0.8c0.6,0.5,0.9,1.2,0.9,2.1c0,0.7-0.2,1.4-0.6,2s-1.1,1.5-2.1,2.5l-2.3,2.3v0.1h5.5V159.4z"/>
	<path class="st1" d="M200.8,157h-1.6v2.5H198V157h-5.2v-1.1l5.1-7.2h1.3v7.2h1.6V157z M198,155.9v-3.6c0-0.7,0-1.5,0.1-2.4H198
		c-0.2,0.5-0.5,0.9-0.7,1.2l-3.3,4.8H198z"/>
	<path class="st1" d="M206.2,151.9c0,1.1-0.2,2-0.6,2.5c-0.4,0.6-0.9,0.9-1.6,0.9c-0.7,0-1.2-0.3-1.6-0.9c-0.4-0.6-0.6-1.4-0.6-2.5
		c0-1.1,0.2-1.9,0.5-2.5c0.4-0.6,0.9-0.8,1.6-0.8c0.7,0,1.3,0.3,1.6,0.9S206.2,150.9,206.2,151.9z M202.9,151.9
		c0,0.8,0.1,1.5,0.3,1.9s0.5,0.6,0.9,0.6c0.8,0,1.2-0.8,1.2-2.5c0-1.7-0.4-2.5-1.2-2.5c-0.4,0-0.7,0.2-0.9,0.6
		S202.9,151.1,202.9,151.9z M210.8,148.7l-5.9,10.7h-1.1l5.9-10.7H210.8z M212.7,156.2c0,1.1-0.2,1.9-0.6,2.5
		c-0.4,0.6-0.9,0.9-1.6,0.9c-0.7,0-1.2-0.3-1.6-0.9c-0.4-0.6-0.6-1.4-0.6-2.5c0-1.1,0.2-1.9,0.5-2.5c0.4-0.6,0.9-0.8,1.6-0.8
		c0.7,0,1.2,0.3,1.6,0.9C212.5,154.3,212.7,155.1,212.7,156.2z M209.3,156.2c0,0.8,0.1,1.5,0.3,1.9c0.2,0.4,0.5,0.6,0.9,0.6
		s0.7-0.2,0.9-0.6c0.2-0.4,0.3-1,0.3-1.9c0-0.8-0.1-1.5-0.3-1.9c-0.2-0.4-0.5-0.6-0.9-0.6s-0.7,0.2-0.9,0.6
		C209.4,154.8,209.3,155.4,209.3,156.2z"/>
	<path class="st1" d="M179.5,168v4.5h-1.2v-10.7h2.9c1.3,0,2.3,0.3,2.9,0.8c0.6,0.5,0.9,1.3,0.9,2.3c0,1.4-0.7,2.4-2.2,2.9l2.9,4.8
		h-1.5l-2.6-4.5H179.5z M179.5,166.9h1.7c0.9,0,1.5-0.2,1.9-0.5c0.4-0.3,0.6-0.9,0.6-1.6c0-0.7-0.2-1.2-0.6-1.5
		c-0.4-0.3-1.1-0.5-2-0.5h-1.6V166.9z"/>
	<path class="st1" d="M187.6,172.4v-10.7h1.2v10.7H187.6z"/>
	<path class="st1" d="M196.4,166.8h3.6v5.2c-0.6,0.2-1.1,0.3-1.7,0.4c-0.6,0.1-1.3,0.1-2,0.1c-1.6,0-2.9-0.5-3.8-1.4
		c-0.9-1-1.4-2.3-1.4-4.1c0-1.1,0.2-2.1,0.7-2.9c0.4-0.8,1.1-1.5,1.9-1.9c0.8-0.4,1.8-0.7,3-0.7c1.1,0,2.2,0.2,3.2,0.6l-0.5,1.1
		c-1-0.4-1.9-0.6-2.8-0.6c-1.3,0-2.3,0.4-3.1,1.2s-1.1,1.9-1.1,3.2c0,1.4,0.4,2.5,1.1,3.3c0.7,0.7,1.7,1.1,3.1,1.1
		c0.7,0,1.5-0.1,2.2-0.3v-3.3h-2.4V166.8z"/>
	<path class="st1" d="M210.8,172.4h-1.2v-5h-5.6v5h-1.2v-10.7h1.2v4.6h5.6v-4.6h1.2V172.4z"/>
	<path class="st1" d="M217,172.4h-1.2v-9.6h-3.4v-1.1h8v1.1H217V172.4z"/>
</g>
<g>
	<path class="st6" d="M175,110.4c0,0.7-0.2,1.2-0.6,1.7c-0.4,0.4-0.9,0.7-1.6,0.9v0.1c0.9,0.1,1.5,0.4,1.9,0.8s0.6,1,0.6,1.7
		c0,1-0.4,1.8-1.1,2.4c-0.7,0.5-1.7,0.8-3,0.8c-0.6,0-1.1,0-1.6-0.1c-0.5-0.1-0.9-0.2-1.4-0.5V117c0.5,0.2,1,0.4,1.5,0.5
		c0.5,0.1,1,0.2,1.5,0.2c1.9,0,2.8-0.7,2.8-2.2c0-1.3-1-1.9-3.1-1.9H170v-1h1.1c0.8,0,1.5-0.2,2-0.6c0.5-0.4,0.7-0.9,0.7-1.5
		c0-0.5-0.2-0.9-0.5-1.2c-0.4-0.3-0.8-0.4-1.5-0.4c-0.5,0-0.9,0.1-1.3,0.2s-0.9,0.4-1.4,0.7l-0.6-0.8c0.4-0.3,0.9-0.6,1.5-0.8
		c0.6-0.2,1.2-0.3,1.8-0.3c1,0,1.8,0.2,2.4,0.7C174.8,108.9,175,109.6,175,110.4z"/>
	<path class="st6" d="M183.6,110.4c0,0.7-0.2,1.2-0.6,1.7c-0.4,0.4-0.9,0.7-1.6,0.9v0.1c0.9,0.1,1.5,0.4,1.9,0.8s0.6,1,0.6,1.7
		c0,1-0.4,1.8-1.1,2.4c-0.7,0.5-1.7,0.8-3,0.8c-0.6,0-1.1,0-1.6-0.1c-0.5-0.1-0.9-0.2-1.4-0.5V117c0.5,0.2,1,0.4,1.5,0.5
		c0.5,0.1,1,0.2,1.5,0.2c1.9,0,2.8-0.7,2.8-2.2c0-1.3-1-1.9-3.1-1.9h-1.1v-1h1.1c0.8,0,1.5-0.2,2-0.6c0.5-0.4,0.7-0.9,0.7-1.5
		c0-0.5-0.2-0.9-0.5-1.2c-0.4-0.3-0.8-0.4-1.5-0.4c-0.5,0-0.9,0.1-1.3,0.2s-0.9,0.4-1.4,0.7l-0.6-0.8c0.4-0.3,0.9-0.6,1.5-0.8
		c0.6-0.2,1.2-0.3,1.8-0.3c1,0,1.8,0.2,2.4,0.7C183.3,108.9,183.6,109.6,183.6,110.4z"/>
	<path class="st6" d="M190,111.1c0,1.1-0.2,2-0.6,2.5c-0.4,0.6-0.9,0.9-1.6,0.9c-0.7,0-1.2-0.3-1.6-0.9c-0.4-0.6-0.6-1.4-0.6-2.5
		c0-1.1,0.2-1.9,0.5-2.5c0.4-0.6,0.9-0.8,1.6-0.8c0.7,0,1.3,0.3,1.6,0.9S190,110,190,111.1z M186.6,111.1c0,0.8,0.1,1.5,0.3,1.9
		s0.5,0.6,0.9,0.6c0.8,0,1.2-0.8,1.2-2.5c0-1.7-0.4-2.5-1.2-2.5c-0.4,0-0.7,0.2-0.9,0.6S186.6,110.3,186.6,111.1z M194.5,107.9
		l-5.9,10.7h-1.1l5.9-10.7H194.5z M196.4,115.4c0,1.1-0.2,1.9-0.6,2.5c-0.4,0.6-0.9,0.9-1.6,0.9c-0.7,0-1.2-0.3-1.6-0.9
		c-0.4-0.6-0.6-1.4-0.6-2.5c0-1.1,0.2-1.9,0.5-2.5c0.4-0.6,0.9-0.8,1.6-0.8c0.7,0,1.2,0.3,1.6,0.9
		C196.2,113.5,196.4,114.3,196.4,115.4z M193,115.4c0,0.8,0.1,1.5,0.3,1.9c0.2,0.4,0.5,0.6,0.9,0.6s0.7-0.2,0.9-0.6
		c0.2-0.4,0.3-1,0.3-1.9c0-0.8-0.1-1.5-0.3-1.9c-0.2-0.4-0.5-0.6-0.9-0.6s-0.7,0.2-0.9,0.6C193.1,113.9,193,114.5,193,115.4z"/>
	<path class="st6" d="M163.5,120.9h3c1.4,0,2.4,0.2,3.1,0.6c0.6,0.4,1,1.1,1,2c0,0.6-0.2,1.2-0.5,1.6c-0.4,0.4-0.9,0.7-1.5,0.8v0.1
		c1.6,0.3,2.4,1.1,2.4,2.6c0,1-0.3,1.7-1,2.2c-0.6,0.5-1.6,0.8-2.7,0.8h-3.7V120.9z M164.8,125.5h2.1c0.9,0,1.5-0.1,1.9-0.4
		c0.4-0.3,0.6-0.7,0.6-1.4c0-0.6-0.2-1-0.6-1.3c-0.4-0.3-1.1-0.4-2.1-0.4h-1.8V125.5z M164.8,126.5v4h2.2c0.9,0,1.5-0.2,2-0.5
		c0.4-0.3,0.7-0.9,0.7-1.6c0-0.7-0.2-1.2-0.7-1.5c-0.4-0.3-1.1-0.5-2-0.5H164.8z"/>
	<path class="st6" d="M182.5,126.2c0,1.7-0.4,3.1-1.3,4c-0.9,1-2.1,1.5-3.6,1.5c-1.6,0-2.8-0.5-3.7-1.4c-0.9-1-1.3-2.3-1.3-4.1
		c0-1.7,0.4-3.1,1.3-4.1c0.9-1,2.1-1.4,3.7-1.4c1.5,0,2.7,0.5,3.6,1.5C182.1,123.2,182.5,124.5,182.5,126.2z M174,126.2
		c0,1.5,0.3,2.6,0.9,3.3c0.6,0.8,1.5,1.1,2.7,1.1c1.2,0,2.1-0.4,2.7-1.1s0.9-1.8,0.9-3.3c0-1.4-0.3-2.5-0.9-3.3
		c-0.6-0.7-1.5-1.1-2.7-1.1c-1.2,0-2.1,0.4-2.7,1.1C174.3,123.7,174,124.8,174,126.2z"/>
	<path class="st6" d="M188.2,131.6H187V122h-3.4v-1.1h8v1.1h-3.4V131.6z"/>
	<path class="st6" d="M201.3,131.6h-1.2v-5h-5.6v5h-1.2v-10.7h1.2v4.6h5.6v-4.6h1.2V131.6z"/>
</g>
<g>
	<path class="st8" d="M190.8,158.5h-7v-1l2.8-2.8c0.9-0.9,1.4-1.5,1.7-1.9c0.3-0.4,0.5-0.7,0.6-1.1c0.1-0.4,0.2-0.7,0.2-1.1
		c0-0.6-0.2-1-0.5-1.4c-0.3-0.3-0.8-0.5-1.4-0.5c-0.4,0-0.9,0.1-1.3,0.2c-0.4,0.1-0.8,0.4-1.3,0.8l-0.6-0.8c1-0.8,2.1-1.2,3.2-1.2
		c1,0,1.8,0.3,2.4,0.8c0.6,0.5,0.9,1.2,0.9,2.1c0,0.7-0.2,1.4-0.6,2s-1.1,1.5-2.1,2.5l-2.3,2.3v0.1h5.5V158.5z"/>
	<path class="st8" d="M199.9,156.1h-1.6v2.5h-1.2v-2.5h-5.2V155l5.1-7.2h1.3v7.2h1.6V156.1z M197.1,155v-3.6c0-0.7,0-1.5,0.1-2.4
		h-0.1c-0.2,0.5-0.5,0.9-0.7,1.2l-3.3,4.8H197.1z"/>
	<path class="st8" d="M205.3,151c0,1.1-0.2,2-0.6,2.5c-0.4,0.6-0.9,0.9-1.6,0.9c-0.7,0-1.2-0.3-1.6-0.9c-0.4-0.6-0.6-1.4-0.6-2.5
		c0-1.1,0.2-1.9,0.5-2.5c0.4-0.6,0.9-0.8,1.6-0.8c0.7,0,1.3,0.3,1.6,0.9S205.3,150,205.3,151z M202,151c0,0.8,0.1,1.5,0.3,1.9
		s0.5,0.6,0.9,0.6c0.8,0,1.2-0.8,1.2-2.5c0-1.7-0.4-2.5-1.2-2.5c-0.4,0-0.7,0.2-0.9,0.6S202,150.2,202,151z M209.9,147.8l-5.9,10.7
		h-1.1l5.9-10.7H209.9z M211.8,155.3c0,1.1-0.2,1.9-0.6,2.5c-0.4,0.6-0.9,0.9-1.6,0.9c-0.7,0-1.2-0.3-1.6-0.9
		c-0.4-0.6-0.6-1.4-0.6-2.5c0-1.1,0.2-1.9,0.5-2.5c0.4-0.6,0.9-0.8,1.6-0.8c0.7,0,1.2,0.3,1.6,0.9
		C211.6,153.4,211.8,154.2,211.8,155.3z M208.4,155.3c0,0.8,0.1,1.5,0.3,1.9c0.2,0.4,0.5,0.6,0.9,0.6s0.7-0.2,0.9-0.6
		c0.2-0.4,0.3-1,0.3-1.9c0-0.8-0.1-1.5-0.3-1.9c-0.2-0.4-0.5-0.6-0.9-0.6s-0.7,0.2-0.9,0.6C208.5,153.9,208.4,154.5,208.4,155.3z"/>
	<path class="st8" d="M178.6,167.1v4.5h-1.2v-10.7h2.9c1.3,0,2.3,0.3,2.9,0.8c0.6,0.5,0.9,1.3,0.9,2.3c0,1.4-0.7,2.4-2.2,2.9
		l2.9,4.8h-1.5l-2.6-4.5H178.6z M178.6,166h1.7c0.9,0,1.5-0.2,1.9-0.5c0.4-0.3,0.6-0.9,0.6-1.6c0-0.7-0.2-1.2-0.6-1.5
		c-0.4-0.3-1.1-0.5-2-0.5h-1.6V166z"/>
	<path class="st8" d="M186.7,171.5v-10.7h1.2v10.7H186.7z"/>
	<path class="st8" d="M195.6,165.9h3.6v5.2c-0.6,0.2-1.1,0.3-1.7,0.4c-0.6,0.1-1.3,0.1-2,0.1c-1.6,0-2.9-0.5-3.8-1.4
		c-0.9-1-1.4-2.3-1.4-4.1c0-1.1,0.2-2.1,0.7-2.9c0.4-0.8,1.1-1.5,1.9-1.9c0.8-0.4,1.8-0.7,3-0.7c1.1,0,2.2,0.2,3.2,0.6l-0.5,1.1
		c-1-0.4-1.9-0.6-2.8-0.6c-1.3,0-2.3,0.4-3.1,1.2s-1.1,1.9-1.1,3.2c0,1.4,0.4,2.5,1.1,3.3c0.7,0.7,1.7,1.1,3.1,1.1
		c0.7,0,1.5-0.1,2.2-0.3V167h-2.4V165.9z"/>
	<path class="st8" d="M209.9,171.5h-1.2v-5H203v5h-1.2v-10.7h1.2v4.6h5.6v-4.6h1.2V171.5z"/>
	<path class="st8" d="M216.1,171.5h-1.2v-9.6h-3.4v-1.1h8v1.1h-3.4V171.5z"/>
</g>
<g>
	<path class="st6" d="M60.8,159.3h-7v-1l2.8-2.8c0.9-0.9,1.4-1.5,1.7-1.9c0.3-0.4,0.5-0.7,0.6-1.1c0.1-0.4,0.2-0.7,0.2-1.1
		c0-0.6-0.2-1-0.5-1.4c-0.3-0.3-0.8-0.5-1.4-0.5c-0.4,0-0.9,0.1-1.3,0.2c-0.4,0.1-0.8,0.4-1.3,0.8l-0.6-0.8c1-0.8,2.1-1.2,3.2-1.2
		c1,0,1.8,0.3,2.4,0.8c0.6,0.5,0.9,1.2,0.9,2.1c0,0.7-0.2,1.4-0.6,2s-1.1,1.5-2.1,2.5l-2.3,2.3v0.1h5.5V159.3z"/>
	<path class="st6" d="M69.3,153.2c0,4.2-1.6,6.3-4.9,6.3c-0.6,0-1,0-1.3-0.1v-1c0.4,0.1,0.8,0.2,1.3,0.2c1.2,0,2.1-0.4,2.7-1.1
		c0.6-0.7,0.9-1.8,1-3.3H68c-0.3,0.4-0.6,0.7-1.1,0.9c-0.4,0.2-0.9,0.3-1.5,0.3c-0.9,0-1.7-0.3-2.3-0.8s-0.8-1.4-0.8-2.4
		c0-1.1,0.3-2,0.9-2.6c0.6-0.6,1.4-1,2.5-1c0.7,0,1.4,0.2,1.9,0.6c0.5,0.4,1,0.9,1.3,1.6C69.2,151.3,69.3,152.2,69.3,153.2z
		 M65.7,149.5c-0.7,0-1.2,0.2-1.6,0.7c-0.4,0.5-0.6,1.1-0.6,1.9c0,0.7,0.2,1.3,0.5,1.7c0.4,0.4,0.9,0.6,1.6,0.6
		c0.4,0,0.9-0.1,1.2-0.3c0.4-0.2,0.7-0.4,0.9-0.7c0.2-0.3,0.3-0.6,0.3-1c0-0.5-0.1-1-0.3-1.4s-0.5-0.8-0.8-1
		C66.6,149.6,66.2,149.5,65.7,149.5z"/>
	<path class="st6" d="M75.3,151.8c0,1.1-0.2,2-0.6,2.5c-0.4,0.6-0.9,0.9-1.6,0.9c-0.7,0-1.2-0.3-1.6-0.9c-0.4-0.6-0.6-1.4-0.6-2.5
		c0-1.1,0.2-1.9,0.5-2.5c0.4-0.6,0.9-0.8,1.6-0.8c0.7,0,1.3,0.3,1.6,0.9S75.3,150.7,75.3,151.8z M71.9,151.8c0,0.8,0.1,1.5,0.3,1.9
		s0.5,0.6,0.9,0.6c0.8,0,1.2-0.8,1.2-2.5c0-1.7-0.4-2.5-1.2-2.5c-0.4,0-0.7,0.2-0.9,0.6S71.9,151,71.9,151.8z M79.8,148.6l-5.9,10.7
		h-1.1l5.9-10.7H79.8z M81.7,156.1c0,1.1-0.2,1.9-0.6,2.5c-0.4,0.6-0.9,0.9-1.6,0.9c-0.7,0-1.2-0.3-1.6-0.9
		c-0.4-0.6-0.6-1.4-0.6-2.5c0-1.1,0.2-1.9,0.5-2.5c0.4-0.6,0.9-0.8,1.6-0.8c0.7,0,1.2,0.3,1.6,0.9C81.5,154.2,81.7,155,81.7,156.1z
		 M78.4,156.1c0,0.8,0.1,1.5,0.3,1.9c0.2,0.4,0.5,0.6,0.9,0.6s0.7-0.2,0.9-0.6c0.2-0.4,0.3-1,0.3-1.9c0-0.8-0.1-1.5-0.3-1.9
		c-0.2-0.4-0.5-0.6-0.9-0.6s-0.7,0.2-0.9,0.6C78.5,154.6,78.4,155.2,78.4,156.1z"/>
	<path class="st6" d="M48.6,167.8v4.5h-1.2v-10.7h2.9c1.3,0,2.3,0.3,2.9,0.8c0.6,0.5,0.9,1.3,0.9,2.3c0,1.4-0.7,2.4-2.2,2.9l2.9,4.8
		h-1.5l-2.6-4.5H48.6z M48.6,166.8h1.7c0.9,0,1.5-0.2,1.9-0.5c0.4-0.3,0.6-0.9,0.6-1.6c0-0.7-0.2-1.2-0.6-1.5
		c-0.4-0.3-1.1-0.5-2-0.5h-1.6V166.8z"/>
	<path class="st6" d="M56.6,172.3v-10.7h1.2v10.7H56.6z"/>
	<path class="st6" d="M65.5,166.7h3.6v5.2c-0.6,0.2-1.1,0.3-1.7,0.4c-0.6,0.1-1.3,0.1-2,0.1c-1.6,0-2.9-0.5-3.8-1.4
		c-0.9-1-1.4-2.3-1.4-4.1c0-1.1,0.2-2.1,0.7-2.9c0.4-0.8,1.1-1.5,1.9-1.9c0.8-0.4,1.8-0.7,3-0.7c1.1,0,2.2,0.2,3.2,0.6l-0.5,1.1
		c-1-0.4-1.9-0.6-2.8-0.6c-1.3,0-2.3,0.4-3.1,1.2s-1.1,1.9-1.1,3.2c0,1.4,0.4,2.5,1.1,3.3c0.7,0.7,1.7,1.1,3.1,1.1
		c0.7,0,1.5-0.1,2.2-0.3v-3.3h-2.4V166.7z"/>
	<path class="st6" d="M79.8,172.3h-1.2v-5H73v5h-1.2v-10.7H73v4.6h5.6v-4.6h1.2V172.3z"/>
	<path class="st6" d="M86.1,172.3h-1.2v-9.6h-3.4v-1.1h8v1.1h-3.4V172.3z"/>
</g>
<g>
	<path class="st8" d="M174.2,109.5c0,0.7-0.2,1.2-0.6,1.7c-0.4,0.4-0.9,0.7-1.6,0.9v0.1c0.9,0.1,1.5,0.4,1.9,0.8s0.6,1,0.6,1.7
		c0,1-0.4,1.8-1.1,2.4c-0.7,0.5-1.7,0.8-3,0.8c-0.6,0-1.1,0-1.6-0.1c-0.5-0.1-0.9-0.2-1.4-0.5v-1.2c0.5,0.2,1,0.4,1.5,0.5
		c0.5,0.1,1,0.2,1.5,0.2c1.9,0,2.8-0.7,2.8-2.2c0-1.3-1-1.9-3.1-1.9h-1.1v-1h1.1c0.8,0,1.5-0.2,2-0.6c0.5-0.4,0.7-0.9,0.7-1.5
		c0-0.5-0.2-0.9-0.5-1.2c-0.4-0.3-0.8-0.4-1.5-0.4c-0.5,0-0.9,0.1-1.3,0.2s-0.9,0.4-1.4,0.7l-0.6-0.8c0.4-0.3,0.9-0.6,1.5-0.8
		c0.6-0.2,1.2-0.3,1.8-0.3c1,0,1.8,0.2,2.4,0.7C173.9,108,174.2,108.7,174.2,109.5z"/>
	<path class="st8" d="M182.7,109.5c0,0.7-0.2,1.2-0.6,1.7c-0.4,0.4-0.9,0.7-1.6,0.9v0.1c0.9,0.1,1.5,0.4,1.9,0.8s0.6,1,0.6,1.7
		c0,1-0.4,1.8-1.1,2.4c-0.7,0.5-1.7,0.8-3,0.8c-0.6,0-1.1,0-1.6-0.1c-0.5-0.1-0.9-0.2-1.4-0.5v-1.2c0.5,0.2,1,0.4,1.5,0.5
		c0.5,0.1,1,0.2,1.5,0.2c1.9,0,2.8-0.7,2.8-2.2c0-1.3-1-1.9-3.1-1.9h-1.1v-1h1.1c0.8,0,1.5-0.2,2-0.6c0.5-0.4,0.7-0.9,0.7-1.5
		c0-0.5-0.2-0.9-0.5-1.2c-0.4-0.3-0.8-0.4-1.5-0.4c-0.5,0-0.9,0.1-1.3,0.2s-0.9,0.4-1.4,0.7l-0.6-0.8c0.4-0.3,0.9-0.6,1.5-0.8
		c0.6-0.2,1.2-0.3,1.8-0.3c1,0,1.8,0.2,2.4,0.7C182.4,108,182.7,108.7,182.7,109.5z"/>
	<path class="st8" d="M189.1,110.2c0,1.1-0.2,2-0.6,2.5c-0.4,0.6-0.9,0.9-1.6,0.9c-0.7,0-1.2-0.3-1.6-0.9c-0.4-0.6-0.6-1.4-0.6-2.5
		c0-1.1,0.2-1.9,0.5-2.5c0.4-0.6,0.9-0.8,1.6-0.8c0.7,0,1.3,0.3,1.6,0.9S189.1,109.1,189.1,110.2z M185.7,110.2
		c0,0.8,0.1,1.5,0.3,1.9s0.5,0.6,0.9,0.6c0.8,0,1.2-0.8,1.2-2.5c0-1.7-0.4-2.5-1.2-2.5c-0.4,0-0.7,0.2-0.9,0.6
		S185.7,109.4,185.7,110.2z M193.6,107l-5.9,10.7h-1.1l5.9-10.7H193.6z M195.5,114.5c0,1.1-0.2,1.9-0.6,2.5
		c-0.4,0.6-0.9,0.9-1.6,0.9c-0.7,0-1.2-0.3-1.6-0.9c-0.4-0.6-0.6-1.4-0.6-2.5c0-1.1,0.2-1.9,0.5-2.5c0.4-0.6,0.9-0.8,1.6-0.8
		c0.7,0,1.2,0.3,1.6,0.9C195.3,112.6,195.5,113.4,195.5,114.5z M192.2,114.5c0,0.8,0.1,1.5,0.3,1.9c0.2,0.4,0.5,0.6,0.9,0.6
		s0.7-0.2,0.9-0.6c0.2-0.4,0.3-1,0.3-1.9c0-0.8-0.1-1.5-0.3-1.9c-0.2-0.4-0.5-0.6-0.9-0.6s-0.7,0.2-0.9,0.6
		C192.2,113,192.2,113.7,192.2,114.5z"/>
	<path class="st8" d="M162.6,120h3c1.4,0,2.4,0.2,3.1,0.6c0.6,0.4,1,1.1,1,2c0,0.6-0.2,1.2-0.5,1.6c-0.4,0.4-0.9,0.7-1.5,0.8v0.1
		c1.6,0.3,2.4,1.1,2.4,2.6c0,1-0.3,1.7-1,2.2c-0.6,0.5-1.6,0.8-2.7,0.8h-3.7V120z M163.9,124.6h2.1c0.9,0,1.5-0.1,1.9-0.4
		c0.4-0.3,0.6-0.7,0.6-1.4c0-0.6-0.2-1-0.6-1.3c-0.4-0.3-1.1-0.4-2.1-0.4h-1.8V124.6z M163.9,125.6v4h2.2c0.9,0,1.5-0.2,2-0.5
		c0.4-0.3,0.7-0.9,0.7-1.6c0-0.7-0.2-1.2-0.7-1.5c-0.4-0.3-1.1-0.5-2-0.5H163.9z"/>
	<path class="st8" d="M181.6,125.3c0,1.7-0.4,3.1-1.3,4c-0.9,1-2.1,1.5-3.6,1.5c-1.6,0-2.8-0.5-3.7-1.4c-0.9-1-1.3-2.3-1.3-4.1
		c0-1.7,0.4-3.1,1.3-4.1c0.9-1,2.1-1.4,3.7-1.4c1.5,0,2.7,0.5,3.6,1.5C181.2,122.3,181.6,123.6,181.6,125.3z M173.1,125.3
		c0,1.5,0.3,2.6,0.9,3.3c0.6,0.8,1.5,1.1,2.7,1.1c1.2,0,2.1-0.4,2.7-1.1s0.9-1.8,0.9-3.3c0-1.4-0.3-2.5-0.9-3.3
		c-0.6-0.7-1.5-1.1-2.7-1.1c-1.2,0-2.1,0.4-2.7,1.1C173.4,122.8,173.1,123.9,173.1,125.3z"/>
	<path class="st8" d="M187.3,130.7h-1.2v-9.6h-3.4V120h8v1.1h-3.4V130.7z"/>
	<path class="st8" d="M200.5,130.7h-1.2v-5h-5.6v5h-1.2V120h1.2v4.6h5.6V120h1.2V130.7z"/>
</g>
<g>
	<path class="st8" d="M91.6,113.2c0,0.7-0.2,1.2-0.6,1.7c-0.4,0.4-0.9,0.7-1.6,0.9v0.1c0.9,0.1,1.5,0.4,1.9,0.8s0.6,1,0.6,1.7
		c0,1-0.4,1.8-1.1,2.4c-0.7,0.5-1.7,0.8-3,0.8c-0.6,0-1.1,0-1.6-0.1c-0.5-0.1-0.9-0.2-1.4-0.5v-1.2c0.5,0.2,1,0.4,1.5,0.5
		c0.5,0.1,1,0.2,1.5,0.2c1.9,0,2.8-0.7,2.8-2.2c0-1.3-1-1.9-3.1-1.9h-1.1v-1h1.1c0.8,0,1.5-0.2,2-0.6c0.5-0.4,0.7-0.9,0.7-1.5
		c0-0.5-0.2-0.9-0.5-1.2c-0.4-0.3-0.8-0.4-1.5-0.4c-0.5,0-0.9,0.1-1.3,0.2s-0.9,0.4-1.4,0.7l-0.6-0.8c0.4-0.3,0.9-0.6,1.5-0.8
		c0.6-0.2,1.2-0.3,1.8-0.3c1,0,1.8,0.2,2.4,0.7C91.3,111.7,91.6,112.3,91.6,113.2z"/>
	<path class="st8" d="M94.9,121.4l4.4-9.6h-5.8v-1.1h7.1v1l-4.4,9.7H94.9z"/>
	<path class="st8" d="M106.5,113.8c0,1.1-0.2,2-0.6,2.5c-0.4,0.6-0.9,0.9-1.6,0.9c-0.7,0-1.2-0.3-1.6-0.9c-0.4-0.6-0.6-1.4-0.6-2.5
		c0-1.1,0.2-1.9,0.5-2.5c0.4-0.6,0.9-0.8,1.6-0.8c0.7,0,1.3,0.3,1.6,0.9S106.5,112.8,106.5,113.8z M103.2,113.8
		c0,0.8,0.1,1.5,0.3,1.9s0.5,0.6,0.9,0.6c0.8,0,1.2-0.8,1.2-2.5c0-1.7-0.4-2.5-1.2-2.5c-0.4,0-0.7,0.2-0.9,0.6
		S103.2,113,103.2,113.8z M111.1,110.7l-5.9,10.7h-1.1l5.9-10.7H111.1z M113,118.1c0,1.1-0.2,1.9-0.6,2.5c-0.4,0.6-0.9,0.9-1.6,0.9
		c-0.7,0-1.2-0.3-1.6-0.9c-0.4-0.6-0.6-1.4-0.6-2.5c0-1.1,0.2-1.9,0.5-2.5c0.4-0.6,0.9-0.8,1.6-0.8c0.7,0,1.2,0.3,1.6,0.9
		C112.8,116.2,113,117.1,113,118.1z M109.6,118.1c0,0.8,0.1,1.5,0.3,1.9c0.2,0.4,0.5,0.6,0.9,0.6s0.7-0.2,0.9-0.6
		c0.2-0.4,0.3-1,0.3-1.9c0-0.8-0.1-1.5-0.3-1.9c-0.2-0.4-0.5-0.6-0.9-0.6s-0.7,0.2-0.9,0.6C109.7,116.7,109.6,117.3,109.6,118.1z"/>
	<path class="st8" d="M84.4,134.4v-10.7h1.2v9.6h4.7v1.1H84.4z"/>
	<path class="st8" d="M98.1,134.4h-6v-10.7h6v1.1h-4.7v3.4h4.4v1.1h-4.4v3.9h4.7V134.4z"/>
	<path class="st8" d="M101.7,134.4h-1.2v-10.7h6v1.1h-4.7v3.9h4.4v1.1h-4.4V134.4z"/>
	<path class="st8" d="M111.5,134.4h-1.2v-9.6h-3.4v-1.1h8v1.1h-3.4V134.4z"/>
</g>
<g>
	<path class="st8" d="M59.9,158.4h-7v-1l2.8-2.8c0.9-0.9,1.4-1.5,1.7-1.9c0.3-0.4,0.5-0.7,0.6-1.1c0.1-0.4,0.2-0.7,0.2-1.1
		c0-0.6-0.2-1-0.5-1.4c-0.3-0.3-0.8-0.5-1.4-0.5c-0.4,0-0.9,0.1-1.3,0.2c-0.4,0.1-0.8,0.4-1.3,0.8l-0.6-0.8c1-0.8,2.1-1.2,3.2-1.2
		c1,0,1.8,0.3,2.4,0.8c0.6,0.5,0.9,1.2,0.9,2.1c0,0.7-0.2,1.4-0.6,2s-1.1,1.5-2.1,2.5l-2.3,2.3v0.1h5.5V158.4z"/>
	<path class="st8" d="M68.5,152.3c0,4.2-1.6,6.3-4.9,6.3c-0.6,0-1,0-1.3-0.1v-1c0.4,0.1,0.8,0.2,1.3,0.2c1.2,0,2.1-0.4,2.7-1.1
		c0.6-0.7,0.9-1.8,1-3.3h-0.1c-0.3,0.4-0.6,0.7-1.1,0.9c-0.4,0.2-0.9,0.3-1.5,0.3c-0.9,0-1.7-0.3-2.3-0.8s-0.8-1.4-0.8-2.4
		c0-1.1,0.3-2,0.9-2.6c0.6-0.6,1.4-1,2.5-1c0.7,0,1.4,0.2,1.9,0.6c0.5,0.4,1,0.9,1.3,1.6C68.3,150.5,68.5,151.3,68.5,152.3z
		 M64.8,148.6c-0.7,0-1.2,0.2-1.6,0.7c-0.4,0.5-0.6,1.1-0.6,1.9c0,0.7,0.2,1.3,0.5,1.7c0.4,0.4,0.9,0.6,1.6,0.6
		c0.4,0,0.9-0.1,1.2-0.3c0.4-0.2,0.7-0.4,0.9-0.7c0.2-0.3,0.3-0.6,0.3-1c0-0.5-0.1-1-0.3-1.4s-0.5-0.8-0.8-1
		C65.7,148.7,65.3,148.6,64.8,148.6z"/>
	<path class="st8" d="M74.4,150.9c0,1.1-0.2,2-0.6,2.5c-0.4,0.6-0.9,0.9-1.6,0.9c-0.7,0-1.2-0.3-1.6-0.9c-0.4-0.6-0.6-1.4-0.6-2.5
		c0-1.1,0.2-1.9,0.5-2.5c0.4-0.6,0.9-0.8,1.6-0.8c0.7,0,1.3,0.3,1.6,0.9S74.4,149.8,74.4,150.9z M71,150.9c0,0.8,0.1,1.5,0.3,1.9
		s0.5,0.6,0.9,0.6c0.8,0,1.2-0.8,1.2-2.5c0-1.7-0.4-2.5-1.2-2.5c-0.4,0-0.7,0.2-0.9,0.6S71,150.1,71,150.9z M78.9,147.7L73,158.4
		h-1.1l5.9-10.7H78.9z M80.8,155.2c0,1.1-0.2,1.9-0.6,2.5c-0.4,0.6-0.9,0.9-1.6,0.9c-0.7,0-1.2-0.3-1.6-0.9
		c-0.4-0.6-0.6-1.4-0.6-2.5c0-1.1,0.2-1.9,0.5-2.5c0.4-0.6,0.9-0.8,1.6-0.8c0.7,0,1.2,0.3,1.6,0.9C80.6,153.3,80.8,154.1,80.8,155.2
		z M77.5,155.2c0,0.8,0.1,1.5,0.3,1.9c0.2,0.4,0.5,0.6,0.9,0.6s0.7-0.2,0.9-0.6c0.2-0.4,0.3-1,0.3-1.9c0-0.8-0.1-1.5-0.3-1.9
		c-0.2-0.4-0.5-0.6-0.9-0.6s-0.7,0.2-0.9,0.6C77.6,153.7,77.5,154.4,77.5,155.2z"/>
	<path class="st8" d="M47.7,167v4.5h-1.2v-10.7h2.9c1.3,0,2.3,0.3,2.9,0.8c0.6,0.5,0.9,1.3,0.9,2.3c0,1.4-0.7,2.4-2.2,2.9l2.9,4.8
		h-1.5l-2.6-4.5H47.7z M47.7,165.9h1.7c0.9,0,1.5-0.2,1.9-0.5c0.4-0.3,0.6-0.9,0.6-1.6c0-0.7-0.2-1.2-0.6-1.5
		c-0.4-0.3-1.1-0.5-2-0.5h-1.6V165.9z"/>
	<path class="st8" d="M55.7,171.4v-10.7H57v10.7H55.7z"/>
	<path class="st8" d="M64.6,165.8h3.6v5.2c-0.6,0.2-1.1,0.3-1.7,0.4c-0.6,0.1-1.3,0.1-2,0.1c-1.6,0-2.9-0.5-3.8-1.4
		c-0.9-1-1.4-2.3-1.4-4.1c0-1.1,0.2-2.1,0.7-2.9c0.4-0.8,1.1-1.5,1.9-1.9c0.8-0.4,1.8-0.7,3-0.7c1.1,0,2.2,0.2,3.2,0.6l-0.5,1.1
		c-1-0.4-1.9-0.6-2.8-0.6c-1.3,0-2.3,0.4-3.1,1.2s-1.1,1.9-1.1,3.2c0,1.4,0.4,2.5,1.1,3.3c0.7,0.7,1.7,1.1,3.1,1.1
		c0.7,0,1.5-0.1,2.2-0.3v-3.3h-2.4V165.8z"/>
	<path class="st8" d="M79,171.4h-1.2v-5h-5.6v5h-1.2v-10.7h1.2v4.6h5.6v-4.6H79V171.4z"/>
	<path class="st8" d="M85.2,171.4h-1.2v-9.6h-3.4v-1.1h8v1.1h-3.4V171.4z"/>
</g>
<g>
	<path class="st1" d="M34.3,112.6c0,0.7-0.2,1.2-0.6,1.7c-0.4,0.4-0.9,0.7-1.6,0.9v0.1c0.9,0.1,1.5,0.4,1.9,0.8s0.6,1,0.6,1.7
		c0,1-0.4,1.8-1.1,2.4c-0.7,0.5-1.7,0.8-3,0.8c-0.6,0-1.1,0-1.6-0.1c-0.5-0.1-0.9-0.2-1.4-0.5v-1.2c0.5,0.2,1,0.4,1.5,0.5
		c0.5,0.1,1,0.2,1.5,0.2c1.9,0,2.8-0.7,2.8-2.2c0-1.3-1-1.9-3.1-1.9h-1.1v-1h1.1c0.8,0,1.5-0.2,2-0.6c0.5-0.4,0.7-0.9,0.7-1.5
		c0-0.5-0.2-0.9-0.5-1.2c-0.4-0.3-0.8-0.4-1.5-0.4c-0.5,0-0.9,0.1-1.3,0.2s-0.9,0.4-1.4,0.7l-0.6-0.8c0.4-0.3,0.9-0.6,1.5-0.8
		c0.6-0.2,1.2-0.3,1.8-0.3c1,0,1.8,0.2,2.4,0.7C34,111.1,34.3,111.7,34.3,112.6z"/>
	<path class="st1" d="M43.8,118.3h-1.6v2.5H41v-2.5h-5.2v-1.1l5.1-7.2h1.3v7.2h1.6V118.3z M41,117.2v-3.6c0-0.7,0-1.5,0.1-2.4H41
		c-0.2,0.5-0.5,0.9-0.7,1.2l-3.3,4.8H41z"/>
	<path class="st1" d="M49.2,113.2c0,1.1-0.2,2-0.6,2.5c-0.4,0.6-0.9,0.9-1.6,0.9c-0.7,0-1.2-0.3-1.6-0.9c-0.4-0.6-0.6-1.4-0.6-2.5
		c0-1.1,0.2-1.9,0.5-2.5c0.4-0.6,0.9-0.8,1.6-0.8c0.7,0,1.3,0.3,1.6,0.9S49.2,112.2,49.2,113.2z M45.8,113.2c0,0.8,0.1,1.5,0.3,1.9
		s0.5,0.6,0.9,0.6c0.8,0,1.2-0.8,1.2-2.5c0-1.7-0.4-2.5-1.2-2.5c-0.4,0-0.7,0.2-0.9,0.6S45.8,112.4,45.8,113.2z M53.7,110l-5.9,10.7
		h-1.1l5.9-10.7H53.7z M55.6,117.5c0,1.1-0.2,1.9-0.6,2.5c-0.4,0.6-0.9,0.9-1.6,0.9c-0.7,0-1.2-0.3-1.6-0.9
		c-0.4-0.6-0.6-1.4-0.6-2.5c0-1.1,0.2-1.9,0.5-2.5c0.4-0.6,0.9-0.8,1.6-0.8c0.7,0,1.2,0.3,1.6,0.9C55.4,115.6,55.6,116.4,55.6,117.5
		z M52.3,117.5c0,0.8,0.1,1.5,0.3,1.9c0.2,0.4,0.5,0.6,0.9,0.6s0.7-0.2,0.9-0.6c0.2-0.4,0.3-1,0.3-1.9c0-0.8-0.1-1.5-0.3-1.9
		c-0.2-0.4-0.5-0.6-0.9-0.6s-0.7,0.2-0.9,0.6C52.4,116.1,52.3,116.7,52.3,117.5z"/>
	<path class="st1" d="M22.7,123h3c1.4,0,2.4,0.2,3.1,0.6c0.6,0.4,1,1.1,1,2c0,0.6-0.2,1.2-0.5,1.6c-0.4,0.4-0.9,0.7-1.5,0.8v0.1
		c1.6,0.3,2.4,1.1,2.4,2.6c0,1-0.3,1.7-1,2.2c-0.6,0.5-1.6,0.8-2.7,0.8h-3.7V123z M24,127.6H26c0.9,0,1.5-0.1,1.9-0.4
		c0.4-0.3,0.6-0.7,0.6-1.4c0-0.6-0.2-1-0.6-1.3c-0.4-0.3-1.1-0.4-2.1-0.4H24V127.6z M24,128.7v4h2.2c0.9,0,1.5-0.2,2-0.5
		c0.4-0.3,0.7-0.9,0.7-1.6c0-0.7-0.2-1.2-0.7-1.5c-0.4-0.3-1.1-0.5-2-0.5H24z"/>
	<path class="st1" d="M41.8,128.4c0,1.7-0.4,3.1-1.3,4c-0.9,1-2.1,1.5-3.6,1.5c-1.6,0-2.8-0.5-3.7-1.4c-0.9-1-1.3-2.3-1.3-4.1
		c0-1.7,0.4-3.1,1.3-4.1c0.9-1,2.1-1.4,3.7-1.4c1.5,0,2.7,0.5,3.6,1.5C41.3,125.3,41.8,126.7,41.8,128.4z M33.2,128.4
		c0,1.5,0.3,2.6,0.9,3.3c0.6,0.8,1.5,1.1,2.7,1.1c1.2,0,2.1-0.4,2.7-1.1s0.9-1.8,0.9-3.3c0-1.4-0.3-2.5-0.9-3.3
		c-0.6-0.7-1.5-1.1-2.7-1.1c-1.2,0-2.1,0.4-2.7,1.1C33.5,125.9,33.2,126.9,33.2,128.4z"/>
	<path class="st1" d="M47.4,133.7h-1.2v-9.6h-3.4V123h8v1.1h-3.4V133.7z"/>
	<path class="st1" d="M60.6,133.7h-1.2v-5h-5.6v5h-1.2V123h1.2v4.6h5.6V123h1.2V133.7z"/>
</g>
<g>
	<path class="st8" d="M33.4,111.7c0,0.7-0.2,1.2-0.6,1.7c-0.4,0.4-0.9,0.7-1.6,0.9v0.1c0.9,0.1,1.5,0.4,1.9,0.8s0.6,1,0.6,1.7
		c0,1-0.4,1.8-1.1,2.4c-0.7,0.5-1.7,0.8-3,0.8c-0.6,0-1.1,0-1.6-0.1c-0.5-0.1-0.9-0.2-1.4-0.5v-1.2c0.5,0.2,1,0.4,1.5,0.5
		c0.5,0.1,1,0.2,1.5,0.2c1.9,0,2.8-0.7,2.8-2.2c0-1.3-1-1.9-3.1-1.9h-1.1v-1h1.1c0.8,0,1.5-0.2,2-0.6c0.5-0.4,0.7-0.9,0.7-1.5
		c0-0.5-0.2-0.9-0.5-1.2c-0.4-0.3-0.8-0.4-1.5-0.4c-0.5,0-0.9,0.1-1.3,0.2s-0.9,0.4-1.4,0.7l-0.6-0.8c0.4-0.3,0.9-0.6,1.5-0.8
		c0.6-0.2,1.2-0.3,1.8-0.3c1,0,1.8,0.2,2.4,0.7C33.1,110.2,33.4,110.8,33.4,111.7z"/>
	<path class="st8" d="M42.9,117.4h-1.6v2.5h-1.2v-2.5h-5.2v-1.1l5.1-7.2h1.3v7.2h1.6V117.4z M40.1,116.3v-3.6c0-0.7,0-1.5,0.1-2.4
		h-0.1c-0.2,0.5-0.5,0.9-0.7,1.2l-3.3,4.8H40.1z"/>
	<path class="st8" d="M48.3,112.3c0,1.1-0.2,2-0.6,2.5c-0.4,0.6-0.9,0.9-1.6,0.9c-0.7,0-1.2-0.3-1.6-0.9c-0.4-0.6-0.6-1.4-0.6-2.5
		c0-1.1,0.2-1.9,0.5-2.5c0.4-0.6,0.9-0.8,1.6-0.8c0.7,0,1.3,0.3,1.6,0.9S48.3,111.3,48.3,112.3z M44.9,112.3c0,0.8,0.1,1.5,0.3,1.9
		s0.5,0.6,0.9,0.6c0.8,0,1.2-0.8,1.2-2.5c0-1.7-0.4-2.5-1.2-2.5c-0.4,0-0.7,0.2-0.9,0.6S44.9,111.5,44.9,112.3z M52.9,109.1
		l-5.9,10.7h-1.1l5.9-10.7H52.9z M54.7,116.6c0,1.1-0.2,1.9-0.6,2.5c-0.4,0.6-0.9,0.9-1.6,0.9c-0.7,0-1.2-0.3-1.6-0.9
		c-0.4-0.6-0.6-1.4-0.6-2.5c0-1.1,0.2-1.9,0.5-2.5c0.4-0.6,0.9-0.8,1.6-0.8c0.7,0,1.2,0.3,1.6,0.9C54.6,114.7,54.7,115.5,54.7,116.6
		z M51.4,116.6c0,0.8,0.1,1.5,0.3,1.9c0.2,0.4,0.5,0.6,0.9,0.6s0.7-0.2,0.9-0.6c0.2-0.4,0.3-1,0.3-1.9c0-0.8-0.1-1.5-0.3-1.9
		c-0.2-0.4-0.5-0.6-0.9-0.6s-0.7,0.2-0.9,0.6C51.5,115.2,51.4,115.8,51.4,116.6z"/>
	<path class="st8" d="M21.9,122.1h3c1.4,0,2.4,0.2,3.1,0.6c0.6,0.4,1,1.1,1,2c0,0.6-0.2,1.2-0.5,1.6c-0.4,0.4-0.9,0.7-1.5,0.8v0.1
		c1.6,0.3,2.4,1.1,2.4,2.6c0,1-0.3,1.7-1,2.2c-0.6,0.5-1.6,0.8-2.7,0.8h-3.7V122.1z M23.1,126.7h2.1c0.9,0,1.5-0.1,1.9-0.4
		c0.4-0.3,0.6-0.7,0.6-1.4c0-0.6-0.2-1-0.6-1.3c-0.4-0.3-1.1-0.4-2.1-0.4h-1.8V126.7z M23.1,127.8v4h2.2c0.9,0,1.5-0.2,2-0.5
		c0.4-0.3,0.7-0.9,0.7-1.6c0-0.7-0.2-1.2-0.7-1.5c-0.4-0.3-1.1-0.5-2-0.5H23.1z"/>
	<path class="st8" d="M40.9,127.5c0,1.7-0.4,3.1-1.3,4c-0.9,1-2.1,1.5-3.6,1.5c-1.6,0-2.8-0.5-3.7-1.4c-0.9-1-1.3-2.3-1.3-4.1
		c0-1.7,0.4-3.1,1.3-4.1c0.9-1,2.1-1.4,3.7-1.4c1.5,0,2.7,0.5,3.6,1.5C40.4,124.4,40.9,125.8,40.9,127.5z M32.3,127.5
		c0,1.5,0.3,2.6,0.9,3.3c0.6,0.8,1.5,1.1,2.7,1.1c1.2,0,2.1-0.4,2.7-1.1s0.9-1.8,0.9-3.3c0-1.4-0.3-2.5-0.9-3.3
		c-0.6-0.7-1.5-1.1-2.7-1.1c-1.2,0-2.1,0.4-2.7,1.1C32.6,125,32.3,126.1,32.3,127.5z"/>
	<path class="st8" d="M46.6,132.9h-1.2v-9.6h-3.4v-1.1h8v1.1h-3.4V132.9z"/>
	<path class="st8" d="M59.7,132.9h-1.2v-5h-5.6v5h-1.2v-10.7h1.2v4.6h5.6v-4.6h1.2V132.9z"/>
</g>
<g>
</g>
<g>
</g>
<g>
</g>
<g>
</g>
<g>
</g>
<g>
</g>
</svg>
