<svg xmlns="http://www.w3.org/2000/svg" id="Layer_1" viewBox="0 0 130.3 239.4">
  <style>
    .st0{fill:#C95145;} .st1{fill:#344B62;} .st2{fill:none;} .st3{fill:#FCD4BB;}
  </style>
  <path d="M127.8 8.1H6.9c-1.4 0-2.6 1.2-2.6 2.6V101c0 1.4 1.2 2.6 2.6 2.6h120.9c1.4 0 2.6-1.2 2.6-2.6V10.6c-.1-1.4-1.2-2.5-2.6-2.5z" class="st0"/>
  <path d="M123.9 0H2.6C1.2 0 0 1.2 0 2.6v90.3c0 1.4 1.2 2.6 2.6 2.6h121.3c1.4 0 2.6-1.2 2.6-2.6V2.6c0-1.4-1.2-2.6-2.6-2.6z" class="st1"/>
  <path d="M9.5 7.8h108.2v97.9H9.5z" class="st2"/>
  <path d="M10.7 16.9V8.4h1V16h3.8v.9h-4.8z" class="st3"/>
  <path d="M19.5 17.1c-.9 0-1.7-.3-2.2-.9s-.8-1.4-.8-2.4.3-1.9.8-2.5 1.2-.9 2.1-.9c.8 0 1.4.3 1.9.8s.7 1.2.7 2.1v.6h-4.4c0 .8.2 1.3.6 1.7s.9.6 1.5.6c.7 0 1.4-.1 2.1-.4v.9c-.3.1-.7.3-1 .3s-.9.1-1.3.1zm-.3-5.9c-.5 0-.9.2-1.2.5s-.5.8-.5 1.4h3.4c0-.6-.1-1.1-.4-1.4s-.8-.5-1.3-.5z" class="st3"/>
  <path d="M26.4 11.3h-1.6V17h-1v-5.7h-1.1v-.4l1.1-.4v-.4c0-1.6.7-2.4 2.1-2.4.3 0 .7.1 1.2.2l-.3.8c-.4-.1-.7-.2-1-.2-.4 0-.6.1-.8.4s-.3.6-.3 1.2v.4h1.6v.8z" class="st3"/>
  <path d="M29.6 16.3h.5s.3-.1.4-.1v.7c-.1 0-.3.1-.5.1h-.6c-1.2 0-1.9-.7-1.9-2v-3.8h-.9v-.5l.9-.4L28 9h.6v1.5h1.9v.8h-1.9v3.8c0 .4.1.7.3.9s.4.3.7.3z" class="st3"/>
  <path d="M39.3 16.9v-4.2c0-.5-.1-.9-.4-1.2s-.6-.4-1.1-.4c-.7 0-1.2.2-1.5.6s-.5 1-.5 1.8v3.4h-1V7.8h1v3.6h.1c.2-.3.5-.6.8-.7s.8-.3 1.2-.3c.8 0 1.4.2 1.8.6s.6 1 .6 1.8V17h-1z" class="st3"/>
  <path d="M46.2 16.9L46 16c-.3.4-.6.7-1 .8s-.7.2-1.2.2c-.6 0-1.1-.2-1.5-.5s-.5-.8-.5-1.4c0-1.3 1-2 3.1-2H46v-.4c0-.5-.1-.9-.3-1.1s-.6-.4-1-.4c-.5 0-1.1.2-1.8.5l-.4-.7c.3-.2.7-.3 1-.4s.8-.1 1.1-.1c.8 0 1.3.2 1.7.5s.6.9.6 1.6V17h-.7zm-2.2-.6c.6 0 1.1-.2 1.4-.5s.6-.8.6-1.4v-.6h-1c-.8 0-1.3.1-1.7.4s-.5.5-.5 1c0 .4.1.6.3.8s.5.3.9.3z" class="st3"/>
  <path d="M53.3 16.9v-4.2c0-.5-.1-.9-.4-1.2s-.6-.4-1.1-.4c-.7 0-1.2.2-1.5.5s-.5 1-.5 1.8v3.4h-1v-6.4h.8l.2.9c.2-.3.5-.6.8-.7s.8-.3 1.2-.3c.8 0 1.4.2 1.7.6s.6 1 .6 1.8v4.2h-.8z" class="st3"/>
  <path d="M60.7 16.1c-.5.7-1.2 1-2.1 1-.8 0-1.5-.3-2-.9s-.6-1.4-.6-2.5.2-1.9.7-2.5 1.1-.9 2-.9c.9 0 1.5.3 2 .9h.1V7.8h1v9.1H61l-.3-.8zm-2 .1c.7 0 1.1-.2 1.4-.5s.4-.9.4-1.7v-.2c0-.9-.2-1.6-.5-1.9s-.8-.6-1.5-.6c-.6 0-1 .2-1.3.7s-.2 1-.2 1.8.2 1.4.5 1.9.7.5 1.2.5z" class="st3"/>
  <path d="M66.4 17.1c-.9 0-1.7-.3-2.2-.9-.5-.6-.8-1.4-.8-2.4s.3-1.9.8-2.5c.5-.6 1.2-.9 2.1-.9.8 0 1.4.3 1.9.8s.7 1.2.7 2.1v.6h-4.4c0 .8.2 1.3.6 1.7s.9.6 1.5.6c.7 0 1.4-.1 2.1-.4v.9c-.3.1-.7.3-1 .3s-.9.1-1.3.1zm-.3-5.9c-.5 0-.9.2-1.2.5s-.5.8-.5 1.4h3.4c0-.6-.1-1.1-.4-1.4s-.8-.5-1.3-.5z" class="st3"/>
  <path d="M74.8 16.1c-.5.7-1.2 1-2.1 1-.8 0-1.5-.3-2-.9s-.7-1.4-.7-2.5.2-1.9.7-2.5 1.1-.9 2-.9c.9 0 1.5.3 2 .9h.1V7.8h1v9.1H75l-.2-.8zm-2 .1c.7 0 1.1-.2 1.4-.5s.4-.9.4-1.7v-.2c0-.9-.2-1.6-.5-1.9s-.8-.6-1.5-.6c-.6 0-1 .2-1.3.7s-.3 1-.3 1.8.2 1.4.5 1.9.7.5 1.3.5z" class="st3"/>
  <path d="M13.5 31.5c-.4 0-.8-.1-1.1-.2s-.6-.4-.9-.7h-.1c0 .4.1.7.1 1.1v2.6h-1V25h.8l.1.9c.2-.4.5-.6.9-.8s.7-.2 1.1-.2c.9 0 1.5.3 2 .9s.7 1.4.7 2.4c0 1.1-.2 1.9-.7 2.5s-1.1.8-1.9.8zm-.1-5.9c-.7 0-1.1.2-1.4.5s-.4.9-.5 1.7v.2c0 .9.2 1.5.5 1.9s.8.6 1.4.6c.6 0 1-.2 1.3-.7s.5-1.1.5-1.9c0-.8-.2-1.4-.5-1.8s-.8-.5-1.3-.5z" class="st3"/>
  <path d="M20.6 31.5c-.9 0-1.7-.3-2.2-.9s-.8-1.4-.8-2.4.3-1.9.8-2.5 1.2-.9 2.1-.9c.8 0 1.4.3 1.9.8s.7 1.2.7 2.1v.6h-4.4c0 .8.2 1.3.6 1.7s.9.6 1.5.6c.7 0 1.4-.1 2.1-.4v.8c-.3.1-.7.3-1 .3s-.9.2-1.3.2zm-.3-5.9c-.5 0-.9.2-1.2.5s-.5.8-.5 1.4H22c0-.6-.1-1.1-.4-1.4s-.8-.5-1.3-.5z" class="st3"/>
  <path d="M30.2 28.1c0 1-.3 1.9-.8 2.5s-1.3.9-2.2.9c-.6 0-1.1-.1-1.5-.4s-.8-.7-1-1.2-.4-1.1-.4-1.8c0-1 .3-1.9.8-2.4s1.2-.9 2.2-.9c.9 0 1.6.3 2.1.9s.8 1.4.8 2.4zm-4.9 0c0 .8.2 1.4.5 1.9s.8.6 1.4.6 1.1-.2 1.5-.6.5-1.1.5-1.9c0-.8-.2-1.4-.5-1.9s-.8-.6-1.5-.6c-.6 0-1.1.2-1.4.6s-.5 1.1-.5 1.9z" class="st3"/>
  <path d="M34.8 31.5c-.4 0-.8-.1-1.1-.2s-.6-.4-.9-.7h-.1c0 .4.1.7.1 1.1v2.6h-1V25h.8l.1.9c.2-.4.5-.6.9-.8s.7-.2 1.1-.2c.9 0 1.5.3 2 .9s.7 1.4.7 2.4c0 1.1-.2 1.9-.7 2.5s-1 .8-1.9.8zm-.1-5.9c-.7 0-1.1.2-1.4.5s-.4.9-.5 1.7v.2c0 .9.2 1.5.5 1.9s.8.6 1.4.6c.6 0 1-.2 1.3-.7s.5-1.1.5-1.9c0-.8-.2-1.4-.5-1.8s-.7-.5-1.3-.5z" class="st3"/>
  <path d="M40.2 31.3h-1v-9.1h1v9.1z" class="st3"/>
  <path d="M45 31.5c-.9 0-1.7-.3-2.2-.9s-.8-1.4-.8-2.4.3-1.9.8-2.5 1.2-.9 2.1-.9c.8 0 1.4.3 1.9.8s.7 1.2.7 2.1v.6h-4.4c0 .8.2 1.3.6 1.7s.9.6 1.5.6c.7 0 1.4-.1 2.1-.4v.8c-.3.1-.7.3-1 .3s-.9.2-1.3.2zm-.3-5.9c-.5 0-.9.2-1.2.5s-.5.8-.5 1.4h3.4c0-.6-.1-1.1-.4-1.4s-.8-.5-1.3-.5z" class="st3"/>
  <path d="M57.6 28.1c0 1-.3 1.9-.8 2.5s-1.3.9-2.2.9c-.6 0-1.1-.1-1.5-.4s-.8-.7-1-1.2-.4-1.1-.4-1.8c0-1 .3-1.9.8-2.4s1.2-.9 2.2-.9c.9 0 1.6.3 2.1.9s.8 1.4.8 2.4zm-4.9 0c0 .8.2 1.4.5 1.9s.8.6 1.4.6 1.1-.2 1.5-.6.5-1.1.5-1.9c0-.8-.2-1.4-.5-1.9s-.8-.6-1.5-.6c-.6 0-1.1.2-1.4.6s-.5 1.1-.5 1.9z" class="st3"/>
  <path d="M62.2 25.7h-1.6v5.7h-1v-5.7h-1.1v-.4l1.1-.4v-.4c0-1.6.7-2.4 2.1-2.4.3 0 .7.1 1.2.2l-.3.8c-.4-.1-.7-.2-1-.2-.4 0-.6.1-.8.4s-.3.6-.3 1.2v.4h1.6v.8z" class="st3"/>
  <path d="M65.5 30.7h.5s.3-.1.4-.1v.7c-.1.1-.3.1-.5.1h-.6c-1.2 0-1.9-.7-1.9-2v-3.8h-.9v-.5l.9-.4.4-1.4h.6v1.5h1.9v.8h-1.9v3.8c0 .4.1.7.3.9s.5.4.8.4z" class="st3"/>
  <path d="M70.4 31.5c-.9 0-1.7-.3-2.2-.9s-.8-1.4-.8-2.4.3-1.9.8-2.5 1.2-.9 2.1-.9c.8 0 1.4.3 1.9.8s.7 1.2.7 2.1v.6h-4.4c0 .8.2 1.3.6 1.7s.9.6 1.5.6c.7 0 1.4-.1 2.1-.4v.8c-.3.1-.7.3-1 .3s-.9.2-1.3.2zm-.3-5.9c-.5 0-.9.2-1.2.5s-.5.8-.5 1.4h3.4c0-.6-.1-1.1-.4-1.4s-.8-.5-1.3-.5z" class="st3"/>
  <path d="M78.8 31.3v-4.2c0-.5-.1-.9-.4-1.2s-.6-.4-1.1-.4c-.7 0-1.2.2-1.5.5s-.5 1-.5 1.8v3.4h-1v-6.4h.8l.2.9c.2-.3.5-.6.8-.7s.8-.3 1.2-.3c.8 0 1.4.2 1.7.6s.6 1 .6 1.8v4.2h-.8z" class="st3"/>
  <path d="M87.8 25.7h-1.6v5.7h-1v-5.7H84v-.4l1.1-.4v-.4c0-1.6.7-2.4 2.1-2.4.3 0 .7.1 1.2.2l-.3.8c-.4-.1-.7-.2-1-.2-.4 0-.6.1-.8.4s-.3.6-.3 1.2v.4h1.6v.8zm1-2.5c0-.2.1-.4.2-.5s.2-.2.4-.2.3.1.4.2.2.3.2.5-.1.4-.2.5-.2.2-.4.2-.3-.1-.4-.2-.2-.3-.2-.5zm1.1 8.1h-1v-6.4h1v6.4z" class="st3"/>
  <path d="M96.4 31.3v-4.2c0-.5-.1-.9-.4-1.2s-.6-.4-1.1-.4c-.7 0-1.2.2-1.5.5s-.5 1-.5 1.8v3.4h-1v-6.4h.8l.2.9c.2-.3.5-.6.8-.7s.8-.3 1.2-.3c.8 0 1.4.2 1.7.6s.6 1 .6 1.8v4.2h-.8z" class="st3"/>
  <path d="M103.7 30.5c-.5.7-1.2 1-2.1 1-.8 0-1.5-.3-2-.9s-.6-1.4-.6-2.5.2-1.9.7-2.5 1.1-.9 2-.9c.9 0 1.5.3 2 .9h.1V22h1v9.1h-.8l-.3-.6zm-1.9.1c.7 0 1.1-.2 1.4-.5s.4-.9.4-1.7v-.2c0-.9-.2-1.6-.5-1.9s-.8-.6-1.5-.6c-.6 0-1 .2-1.3.7s-.5 1.1-.5 1.9c0 .8.2 1.4.5 1.9s.9.4 1.5.4z" class="st3"/>
  <path d="M109.7 23.2c0-.2.1-.4.2-.5s.2-.2.4-.2.3.1.4.2.2.3.2.5-.1.4-.2.5-.2.2-.4.2-.3-.1-.4-.2-.2-.3-.2-.5zm1.1 8.1h-1v-6.4h1v6.4z" class="st3"/>
  <path d="M114.9 30.7h.5s.3-.1.4-.1v.7c-.1.1-.3.1-.5.1h-.6c-1.2 0-1.9-.7-1.9-2v-3.8h-.8v-.5l.9-.4.4-1.4h.6v1.5h1.9v.8h-1.9v3.8c0 .4.1.7.3.9s.4.4.7.4z" class="st3"/>
  <path d="M13.1 45.9c-.9 0-1.6-.3-2.2-.9s-.8-1.4-.8-2.4c0-1.1.3-1.9.8-2.5s1.3-.9 2.2-.9c.3 0 .6 0 .9.1s.6.1.7.2l-.3.8c-.2-.1-.4-.2-.7-.2s-.5-.1-.7-.1c-1.3 0-2 .8-2 2.5 0 .8.2 1.4.5 1.8s.8.6 1.4.6c.5 0 1.1-.1 1.6-.3v.9c-.2.2-.8.4-1.4.4z" class="st3"/>
  <path d="M20.6 45.7v-4.2c0-.5-.1-.9-.4-1.2s-.5-.3-1-.3c-.7 0-1.2.2-1.5.6s-.5 1-.5 1.8v3.4h-1v-9.1h1v3.6h.1c.2-.3.5-.6.8-.7s.8-.3 1.2-.3c.8 0 1.4.2 1.8.6s.6 1 .6 1.8v4.2h-1.1z" class="st3"/>
  <path d="M27.6 45.7l-.2-.9c-.3.4-.6.7-1 .8s-.7.2-1.2.2c-.6 0-1.1-.2-1.5-.5s-.5-.8-.5-1.4c0-1.3 1-2 3.1-2h1.1v-.4c0-.5-.1-.9-.3-1.1s-.7-.4-1.1-.4c-.5 0-1.1.2-1.8.5l-.3-.7c.3-.2.7-.3 1-.4s.8-.1 1.1-.1c.8 0 1.3.2 1.7.5s.6.9.6 1.6v4.4h-.7zm-2.2-.6c.6 0 1.1-.2 1.4-.5s.5-.8.5-1.4v-.6h-1c-.8 0-1.3.1-1.7.4s-.5.5-.5 1c0 .4.1.6.3.8s.6.3 1 .3z" class="st3"/>
  <path d="M31.3 45.7h-1v-9.1h1v9.1z" class="st3"/>
  <path d="M34.3 45.7h-1v-9.1h1v9.1z" class="st3"/>
  <path d="M39.1 45.9c-.9 0-1.7-.3-2.2-.9s-.9-1.4-.9-2.4.3-1.9.8-2.5 1.2-.9 2.1-.9c.8 0 1.4.3 1.9.8s.7 1.2.7 2.1v.6H37c0 .8.2 1.3.6 1.7s.9.6 1.5.6c.7 0 1.4-.1 2.1-.4v.9c-.3.1-.7.3-1 .3s-.7.1-1.1.1zm-.3-5.9c-.5 0-.9.2-1.2.5s-.5.8-.5 1.4h3.4c0-.6-.1-1.1-.4-1.4s-.8-.5-1.3-.5z" class="st3"/>
  <path d="M47.5 45.7v-4.2c0-.5-.1-.9-.4-1.2s-.6-.3-1.1-.3c-.7 0-1.2.2-1.5.5s-.5 1-.5 1.8v3.4h-1v-6.4h.8l.2.9c.2-.3.5-.6.8-.7s.8-.3 1.2-.3c.8 0 1.4.2 1.7.6s.6 1 .6 1.8v4.2h-.8z" class="st3"/>
  <path d="M55.7 39.3v.6l-1.2.1c.1.1.2.3.3.5s.1.5.1.7c0 .6-.2 1.1-.6 1.5s-1 .6-1.8.6H52c-.4.2-.6.5-.6.8 0 .2.1.3.2.4s.4.1.7.1h1.1c.7 0 1.2.1 1.6.4s.6.7.6 1.3c0 .7-.3 1.3-.9 1.6s-1.4.6-2.5.6c-.8 0-1.5-.2-1.9-.5s-.7-.8-.7-1.3c0-.4.1-.7.4-1s.6-.5 1.1-.6c-.2-.1-.3-.2-.4-.3s-.2-.3-.2-.5.1-.4.2-.6.3-.3.6-.5c-.3-.1-.6-.4-.8-.7s-.3-.7-.3-1.1c0-.7.2-1.2.6-1.6s1-.6 1.8-.6c.3 0 .6 0 .9.1h2.2zm-5.1 7.5c0 .3.1.6.4.8s.7.3 1.3.3c.8 0 1.4-.1 1.8-.4s.6-.6.6-1c0-.3-.1-.6-.3-.7s-.6-.2-1.2-.2H52c-.4 0-.8.1-1 .3s-.4.5-.4.9zm.5-5.4c0 .4.1.8.4 1s.6.3 1.1.3c.9 0 1.4-.5 1.4-1.4 0-1-.5-1.4-1.4-1.4-.5 0-.8.1-1.1.4s-.4.6-.4 1.1z" class="st3"/>
  <path d="M56.9 37.6c0-.2.1-.4.2-.5s.2-.2.4-.2.3.1.4.2.2.3.2.5-.1.4-.2.5-.2.2-.4.2-.3-.1-.4-.2-.2-.3-.2-.5zm1.1 8.1h-1v-6.4h1v6.4z" class="st3"/>
  <path d="M64.4 45.7v-4.2c0-.5-.1-.9-.4-1.2-.1-.1-.5-.3-1-.3-.7 0-1.2.2-1.5.5s-.5 1-.5 1.8v3.4h-1v-6.4h.8l.2.9c.2-.3.5-.6.8-.7s.8-.3 1.2-.3c.8 0 1.4.2 1.7.6s.6 1 .6 1.8v4.2h-.9z" class="st3"/>
  <path d="M72.7 39.3v.6l-1.2.1c.1.1.2.3.3.5s.1.5.1.7c0 .6-.2 1.1-.6 1.5s-1 .6-1.8.6H69c-.4.2-.6.5-.6.8 0 .2.1.3.2.4s.4.1.7.1h1.1c.7 0 1.2.1 1.6.4s.6.7.6 1.3c0 .7-.3 1.3-.9 1.6s-1.4.6-2.5.6c-.8 0-1.5-.2-1.9-.5s-.7-.8-.7-1.3c0-.4.1-.7.4-1s.6-.5 1.1-.6c-.2-.1-.3-.2-.4-.3s-.2-.3-.2-.5.1-.4.2-.6.3-.3.6-.5c-.3-.1-.6-.4-.8-.7s-.3-.7-.3-1.1c0-.7.2-1.2.6-1.6s1-.6 1.8-.6c.3 0 .6 0 .9.1h2.2zm-5.1 7.5c0 .3.1.6.4.8s.7.3 1.3.3c.8 0 1.4-.1 1.8-.4s.6-.6.6-1c0-.3-.1-.6-.3-.7s-.6-.2-1.2-.2H69c-.4 0-.8.1-1 .3s-.4.5-.4.9zm.5-5.4c0 .4.1.8.4 1s.6.3 1.1.3c.9 0 1.4-.5 1.4-1.4 0-1-.5-1.4-1.4-1.4-.5 0-.8.1-1.1.4s-.4.6-.4 1.1z" class="st3"/>
  <path d="M79.2 45.1h.5s.3-.1.4-.1v.7c-.1.1-.3.1-.5.1H79c-1.2 0-1.9-.7-1.9-2V40h-.9v-.5l.9-.4.4-1.4h.6v1.5H80v.8h-1.9v3.8c0 .4.1.7.3.9s.5.4.8.4z" class="st3"/>
  <path d="M86.9 42.5c0 1-.3 1.9-.8 2.5s-1.3.9-2.2.9c-.6 0-1.1-.1-1.5-.4s-.8-.7-1-1.2-.4-1.1-.4-1.8c0-1 .3-1.9.8-2.4s1.2-.9 2.2-.9c.9 0 1.6.3 2.1.9s.8 1.4.8 2.4zm-4.9 0c0 .8.2 1.4.5 1.9s.8.6 1.4.6 1.1-.2 1.5-.6.5-1.1.5-1.9c0-.8-.2-1.4-.5-1.9s-.8-.6-1.5-.6c-.6 0-1.1.2-1.4.6s-.5 1.1-.5 1.9z" class="st3"/>
  <path d="M92.7 45.7h-1v-9.1h1v9.1z" class="st3"/>
  <path d="M94.7 37.6c0-.2.1-.4.2-.5s.2-.2.4-.2.3.1.4.2.2.3.2.5-.1.4-.2.5-.2.2-.4.2-.3-.1-.4-.2-.2-.3-.2-.5zm1 8.1h-1v-6.4h1v6.4z" class="st3"/>
  <path d="M99.2 45.7l-2.4-6.4h1l1.4 3.8c.3.9.5 1.5.6 1.7 0-.2.2-.6.4-1.3s.7-2.1 1.5-4.3h1l-2.4 6.4h-1.1z" class="st3"/>
  <path d="M106.5 45.9c-.9 0-1.7-.3-2.2-.9s-.8-1.4-.8-2.4.3-1.9.8-2.5 1.2-.9 2.1-.9c.8 0 1.4.3 1.9.8s.7 1.2.7 2.1v.6h-4.4c0 .8.2 1.3.6 1.7s.9.6 1.5.6c.7 0 1.4-.1 2.1-.4v.9c-.3.1-.7.3-1 .3s-.9.1-1.3.1zm-.3-5.9c-.5 0-.9.2-1.2.5s-.5.8-.5 1.4h3.4c0-.6-.1-1.1-.4-1.4s-.7-.5-1.3-.5z" class="st3"/>
  <path d="M10.4 52c0-.2.1-.4.2-.5s.2-.2.4-.2.3.1.4.2.2.3.2.5-.1.4-.2.5-.2.2-.4.2-.3-.1-.4-.2-.2-.3-.2-.5zm1.1 8.1h-1v-6.4h1v6.4z" class="st3"/>
  <path d="M18 60.1V56c0-.5-.1-.9-.4-1.2s-.6-.4-1.1-.4c-.7 0-1.2.2-1.5.5s-.5 1-.5 1.8v3.4h-1v-6.4h.8l.2.9c.2-.3.5-.6.8-.7s.8-.3 1.2-.3c.8 0 1.4.2 1.7.6s.6 1 .6 1.8v4.2H18z" class="st3"/>
  <path d="M28 60.1l-.2-.9c-.3.4-.6.7-1 .8s-.7.2-1.2.2c-.6 0-1.1-.2-1.5-.5s-.5-.8-.5-1.4c0-1.3 1-2 3.1-2h1.1v-.4c0-.5-.1-.9-.3-1.1s-.6-.4-1-.4c-.5 0-1.1.2-1.8.5l-.3-.7c.3-.2.7-.3 1-.4s.8-.1 1.1-.1c.8 0 1.3.2 1.7.5s.6.9.6 1.6v4.4H28zm-2.2-.6c.6 0 1.1-.2 1.4-.5s.5-.8.5-1.4V57h-1c-.8 0-1.3.1-1.7.4s-.5.5-.5 1c0 .4.1.6.3.8s.6.3 1 .3z" class="st3"/>
  <path d="M39.1 60.1l-1.2-3.8c-.1-.2-.2-.8-.4-1.6-.2.7-.3 1.2-.4 1.6l-1.2 3.8h-1.1L33 53.7h1c.4 1.6.7 2.8.9 3.7s.3 1.4.4 1.7c0-.2.1-.5.2-.9s.2-.6.2-.8l1.2-3.7H38l1.1 3.7c.2.7.4 1.2.4 1.7 0-.1.1-.4.1-.7s.5-1.9 1.2-4.7h1L40 60.1h-.9z" class="st3"/>
  <path d="M48.7 56.9c0 1-.3 1.9-.8 2.5s-1.3.9-2.2.9c-.6 0-1.1-.1-1.5-.4s-.8-.7-1-1.2-.4-1.1-.4-1.8c0-1 .3-1.9.8-2.4s1.2-.9 2.2-.9c.9 0 1.6.3 2.1.9s.8 1.4.8 2.4zm-4.9 0c0 .8.2 1.4.5 1.9s.8.6 1.4.6 1.1-.2 1.5-.6.5-1.1.5-1.9c0-.8-.2-1.4-.5-1.9s-.8-.6-1.5-.6c-.6 0-1.1.2-1.4.6s-.5 1.1-.5 1.9z" class="st3"/>
  <path d="M53.3 53.6c.3 0 .5 0 .8.1l-.1.9c-.3-.1-.5-.1-.7-.1-.5 0-1 .2-1.3.6s-.6.9-.6 1.6v3.4h-1v-6.4h.8l.1 1.2c.2-.4.5-.7.9-1s.7-.3 1.1-.3z" class="st3"/>
  <path d="M56.3 60.1h-1V51h1v9.1z" class="st3"/>
  <path d="M62.7 59.3c-.5.7-1.2 1-2.1 1-.8 0-1.5-.3-2-.9S58 58 58 56.9s.2-1.9.7-2.5 1.1-.9 2-.9c.9 0 1.5.3 2 .9h.1V51h1v9.1H63l-.3-.8zm-1.9.1c.7 0 1.1-.2 1.4-.5s.4-.9.4-1.7V57c0-.9-.2-1.6-.5-1.9s-.8-.6-1.5-.6c-.6 0-1 .2-1.3.7s-.3 1-.3 1.8.2 1.4.5 1.9.7.5 1.3.5z" class="st3"/>
  <path d="M77 60.1V56c0-.5-.1-.9-.3-1.2s-.6-.4-1-.4c-.6 0-1.1.2-1.3.5s-.4.9-.4 1.6v3.6h-1V56c0-.5-.1-.9-.3-1.2s-.6-.4-1-.4c-.6 0-1.1.2-1.3.5s-.4 1-.4 1.8v3.4h-1v-6.4h.8l.2.9c.2-.3.4-.6.8-.7s.7-.3 1.1-.3c1 0 1.7.4 2 1.1.2-.3.5-.6.8-.8s.8-.3 1.2-.3c.7 0 1.3.2 1.6.6s.5 1 .5 1.8v4.2h-1z" class="st3"/>
  <path d="M82.7 60.3c-.9 0-1.7-.3-2.2-.9s-.9-1.4-.9-2.4.3-1.9.8-2.5 1.2-.9 2.1-.9c.8 0 1.4.3 1.9.8s.7 1.2.7 2.1v.6h-4.4c0 .8.2 1.3.6 1.7s.9.6 1.5.6c.7 0 1.4-.1 2.1-.4v.9c-.3.1-.7.3-1 .3s-.8.1-1.2.1zm-.3-5.9c-.5 0-.9.2-1.2.5s-.5.8-.5 1.4H84c0-.6-.1-1.1-.4-1.4s-.7-.5-1.2-.5z" class="st3"/>
  <path d="M90.7 60.1l-.2-.9c-.3.4-.6.7-1 .8s-.7.2-1.2.2c-.6 0-1.1-.2-1.5-.5s-.5-.8-.5-1.4c0-1.3 1-2 3.1-2h1.1v-.4c0-.5-.1-.9-.3-1.1s-.6-.4-1-.4c-.5 0-1.1.2-1.8.5l-.4-.7c.3-.2.7-.3 1-.4s.8-.1 1.1-.1c.8 0 1.3.2 1.7.5s.6.9.6 1.6v4.4h-.7zm-2.2-.6c.6 0 1.1-.2 1.4-.5s.5-.8.5-1.4V57h-1c-.8 0-1.3.1-1.7.4s-.5.5-.5 1c0 .4.1.6.3.8s.6.3 1 .3z" class="st3"/>
  <path d="M97.8 60.1V56c0-.5-.1-.9-.4-1.2s-.6-.4-1.1-.4c-.7 0-1.2.2-1.5.5s-.5 1-.5 1.8v3.4h-1v-6.4h.8l.2.9c.2-.3.5-.6.8-.7s.8-.3 1.2-.3c.8 0 1.4.2 1.7.6s.6 1 .6 1.8v4.2h-.8z" class="st3"/>
  <path d="M102.8 59.5h.5s.3-.1.4-.1v.7c-.1.1-.3.1-.5.1h-.6c-1.2 0-1.9-.7-1.9-2v-3.8h-.9V54l.9-.4.4-1.4h.6v1.5h1.9v.8h-1.9v3.8c0 .4.1.7.3.9s.5.3.8.3z" class="st3"/>
  <path d="M13.4 68.9h-1.6v5.7h-1v-5.7H9.7v-.4l1.1-.4v-.4c0-1.6.7-2.4 2.1-2.4.3 0 .7.1 1.2.2l-.3.8c-.4-.1-.7-.2-1-.2-.4 0-.6.1-.8.4s-.3.6-.3 1.2v.4h1.6v.8z" class="st3"/>
  <path d="M20.1 71.3c0 1-.3 1.9-.8 2.5s-1.3.9-2.2.9c-.6 0-1.1-.1-1.5-.4s-.8-.7-1-1.2-.4-1.1-.4-1.8c0-1 .3-1.9.8-2.4s1.2-.9 2.2-.9c.9 0 1.6.3 2.1.9s.8 1.4.8 2.4zm-4.9 0c0 .8.2 1.4.5 1.9s.8.6 1.4.6 1.1-.2 1.5-.6.5-1.1.5-1.9c0-.8-.2-1.4-.5-1.9s-.8-.6-1.5-.6c-.6 0-1.1.2-1.4.6s-.5 1.1-.5 1.9z" class="st3"/>
  <path d="M24.8 68c.3 0 .5 0 .8.1l-.2.9c-.3-.1-.5-.1-.7-.1-.5 0-1 .2-1.3.6s-.6.9-.6 1.6v3.4h-1v-6.4h.8l.1 1.2c.2-.4.5-.7.9-1s.8-.3 1.2-.3z" class="st3"/>
  <path d="M32.8 68c.3 0 .5 0 .8.1l-.2.9c-.3-.1-.5-.1-.7-.1-.5 0-1 .2-1.3.6s-.6.9-.6 1.6v3.4h-1v-6.4h.8l.1 1.2c.2-.4.5-.7.9-1s.8-.3 1.2-.3z" class="st3"/>
  <path d="M34.7 66.4c0-.2.1-.4.2-.5s.2-.2.4-.2.3.1.4.2.2.3.2.5-.1.4-.2.5-.3.1-.5.1-.3-.1-.4-.2-.1-.2-.1-.4zm1 8.1h-1v-6.4h1v6.4z" class="st3"/>
  <path d="M43 68.1v.6l-1.2.1c.1.1.2.3.3.5s.1.5.1.7c0 .6-.2 1.1-.6 1.5s-1 .6-1.8.6h-.5c-.4.2-.6.5-.6.8 0 .2.1.3.2.4s.4.1.7.1h1.1c.7 0 1.2.1 1.6.4s.6.7.6 1.3c0 .7-.3 1.3-.9 1.6s-1.4.6-2.5.6c-.8 0-1.5-.2-1.9-.5s-.6-.6-.6-1.2c0-.4.1-.7.4-1s.6-.5 1.1-.6c-.2-.1-.3-.2-.4-.3s-.2-.3-.2-.5.1-.4.2-.6.3-.3.6-.5c-.3-.1-.6-.4-.8-.7s-.3-.7-.3-1.1c0-.7.2-1.2.6-1.6s1-.6 1.8-.6c.3 0 .6 0 .9.1H43zm-5.1 7.5c0 .3.1.6.4.8s.7.3 1.3.3c.8 0 1.4-.1 1.8-.4s.6-.6.6-1c0-.3-.1-.6-.3-.7s-.6-.2-1.2-.2h-1.2c-.4 0-.8.1-1 .3s-.4.5-.4.9zm.6-5.4c0 .4.1.8.4 1s.6.3 1.1.3c.9 0 1.4-.5 1.4-1.4 0-1-.5-1.4-1.4-1.4-.5 0-.8.1-1.1.4s-.4.6-.4 1.1z" class="st3"/>
  <path d="M48.8 74.5v-4.2c0-.5-.1-.9-.4-1.2s-.6-.4-1.1-.4c-.7 0-1.2.2-1.5.6s-.5 1-.5 1.8v3.4h-1v-9.1h1V69h.1c.2-.3.5-.6.8-.7s.8-.3 1.2-.3c.8 0 1.4.2 1.8.6s.6 1 .6 1.8v4.2h-1z" class="st3"/>
  <path d="M53.8 73.9h.5s.3-.1.4-.1v.7c-.1.1-.3.1-.5.1h-.6c-1.2 0-1.9-.7-1.9-2v-3.8h-.9v-.5l.9-.4.4-1.4h.6V68h1.9v.8h-1.9v3.8c0 .4.1.7.3.9s.5.4.8.4z" class="st3"/>
  <path d="M63.5 74.5v-4.2c0-.5-.1-.9-.4-1.2s-.6-.4-1.1-.4c-.7 0-1.2.2-1.5.6s-.5 1-.5 1.8v3.4h-1v-9.1h1V69h.1c.2-.3.5-.6.8-.7s.8-.3 1.2-.3c.8 0 1.4.2 1.8.6.4.4.6 1 .6 1.8v4.2h-1z" class="st3"/>
  <path d="M70.4 74.5l-.2-.9c-.3.4-.6.7-1 .8s-.7.2-1.2.2c-.6 0-1.1-.2-1.5-.5s-.5-.7-.5-1.3c0-1.3 1-2 3.1-2h1.1v-.4c0-.5-.1-.9-.3-1.1s-.6-.4-1-.4c-.5 0-1.1.2-1.8.5l-.3-.7c.3-.2.7-.3 1-.4s.8-.1 1.1-.1c.8 0 1.3.2 1.7.5s.6.9.6 1.6v4.4h-.8zm-2.2-.6c.6 0 1.1-.2 1.4-.5s.5-.8.5-1.4v-.6h-1c-.8 0-1.3.1-1.7.4s-.5.5-.5 1c0 .4.1.6.3.8s.6.3 1 .3z" class="st3"/>
  <path d="M77.5 74.5v-4.2c0-.5-.1-.9-.4-1.2s-.6-.4-1.1-.4c-.7 0-1.2.2-1.5.5s-.5 1-.5 1.8v3.4h-1V68h.8l.2.9c.2-.3.5-.6.8-.7s.8-.3 1.2-.3c.8 0 1.4.2 1.7.6s.6 1 .6 1.8v4.2h-.8z" class="st3"/>
  <path d="M84.9 73.7c-.5.7-1.2 1-2.1 1-.8 0-1.5-.3-2-.9s-.7-1.4-.7-2.4.2-1.9.7-2.5 1.1-.9 2-.9c.9 0 1.5.3 2 .9h.1v-3.6h1v9.1H85l-.1-.7zm-2 .1c.7 0 1.1-.2 1.4-.5s.4-.9.4-1.7v-.2c0-.9-.2-1.6-.5-1.9s-.8-.6-1.5-.6c-.6 0-1 .2-1.3.7s-.5 1.1-.5 1.9c0 .8.2 1.4.5 1.9s.9.4 1.5.4z" class="st3"/>
  <path d="M90.6 74.7c-.9 0-1.7-.3-2.2-.9s-.8-1.4-.8-2.4.3-1.9.8-2.5 1.2-.9 2.1-.9c.8 0 1.4.3 1.9.8s.7 1.2.7 2.1v.6h-4.4c0 .8.2 1.3.6 1.7s.9.6 1.5.6c.7 0 1.4-.1 2.1-.4v.9c-.3.1-.7.3-1 .3s-.9.1-1.3.1zm-.3-5.9c-.5 0-.9.2-1.2.5s-.5.8-.5 1.4H92c0-.6-.1-1.1-.4-1.4s-.8-.5-1.3-.5z" class="st3"/>
  <path d="M97.5 68c.3 0 .5 0 .8.1l-.2.9c-.3-.1-.5-.1-.7-.1-.5 0-1 .2-1.3.6s-.6.9-.6 1.6v3.4h-1v-6.4h.8l.1 1.2c.2-.4.5-.7.9-1s.8-.3 1.2-.3z" class="st3"/>
  <path d="M103.6 72.8c0 .6-.2 1.1-.7 1.4s-1.1.5-1.9.5c-.9 0-1.5-.1-2-.4v-.9c.3.2.6.3 1 .4s.7.1 1 .1c.5 0 .9-.1 1.2-.2s.4-.4.4-.7c0-.2-.1-.5-.3-.6s-.6-.4-1.3-.6c-.6-.2-1-.4-1.3-.6s-.4-.4-.6-.6-.2-.5-.2-.8c0-.5.2-.9.6-1.2s1-.5 1.8-.5c.7 0 1.4.1 2 .4l-.3.8c-.6-.3-1.2-.4-1.8-.4-.5 0-.8.1-1 .2s-.4.3-.4.6c0 .2 0 .3.1.4s.2.2.4.3.6.3 1.1.5c.8.3 1.3.6 1.5.8s.7.7.7 1.1z" class="st3"/>
  <path d="M105.1 73.9c0-.3.1-.5.2-.6s.3-.2.5-.2.4.1.5.2.2.3.2.6-.1.4-.2.6-.3.2-.5.2-.4-.1-.5-.2-.2-.3-.2-.6z" class="st3"/>
  <path d="M127.5 126.5H7.1c-1.5 0-2.8 1.3-2.8 2.8v107.3c0 1.5 1.3 2.8 2.8 2.8h120.4c1.5 0 2.8-1.3 2.8-2.8V129.3c0-1.6-1.2-2.8-2.8-2.8z" class="st0"/>
  <path d="M123.7 117H2.8c-1.5 0-2.8 1.3-2.8 2.8v107.3c0 1.5 1.3 2.8 2.8 2.8h120.9c1.5 0 2.8-1.3 2.8-2.8V119.8c0-1.6-1.3-2.8-2.8-2.8z" class="st1"/>
  <path d="M9.5 123.8h108.2v97.9H9.5z" class="st2"/>
  <path d="M16.1 132.9l-1.1-2.7h-3.4l-1.1 2.7h-1l3.4-8.6h.8l3.4 8.6h-1zm-1.4-3.6l-1-2.7c-.1-.3-.3-.7-.4-1.2-.1.4-.2.8-.4 1.2l-1 2.7h2.8z" class="st3"/>
  <path d="M29.4 132.9v-4.2c0-.5-.1-.9-.3-1.2s-.6-.4-1-.4c-.6 0-1.1.2-1.3.5s-.4.9-.4 1.6v3.6h-1v-4.2c0-.5-.1-.9-.3-1.2s-.6-.4-1-.4c-.6 0-1.1.2-1.3.5s-.4 1-.4 1.8v3.4h-1v-6.4h.6l.2.9c.2-.3.4-.6.8-.7s.7-.3 1.1-.3c1 0 1.7.4 2 1.1.2-.3.5-.6.8-.8s.8-.3 1.2-.3c.7 0 1.3.2 1.6.6s.5 1 .5 1.8v4.2h-.8z" class="st3"/>
  <path d="M36.3 132.9l-.2-.9c-.3.4-.6.7-1 .8s-.7.2-1.1.2c-.6 0-1.1-.2-1.5-.5s-.5-.8-.5-1.4c0-1.3 1-2 3.1-2h1.1v-.4c0-.5-.1-.9-.3-1.1s-.6-.4-1-.4c-.5 0-1.1.2-1.8.5l-.3-.7c.3-.2.7-.3 1-.4s.8-.1 1.1-.1c.8 0 1.3.2 1.7.5s.6.9.6 1.6v4.4h-.9zm-2.1-.7c.6 0 1.1-.2 1.4-.5s.5-.8.5-1.4v-.6h-1c-.8 0-1.3.1-1.7.4s-.5.5-.5 1c0 .4.1.6.3.8s.6.3 1 .3z" class="st3"/>
  <path d="M38.3 135.8c-.4 0-.7 0-.9-.1v-.8c.3.1.5.1.8.1.3 0 .5-.1.7-.2s.2-.4.2-.8v-7.5h1v7.4c-.1 1.2-.6 1.9-1.8 1.9zm.7-11.1c0-.2.1-.4.2-.5s.2-.2.4-.2.3.1.4.2.2.3.2.5-.1.4-.2.5-.2.2-.4.2-.3-.1-.4-.2-.2-.2-.2-.5z" class="st3"/>
  <path d="M47.7 129.7c0 1-.3 1.9-.8 2.5s-1.3.9-2.2.9c-.6 0-1.1-.1-1.5-.4s-.8-.7-1-1.2-.4-1.1-.4-1.8c0-1 .3-1.9.8-2.4s1.2-.9 2.2-.9c.9 0 1.6.3 2.1.9s.8 1.4.8 2.4zm-4.9 0c0 .8.2 1.4.5 1.9s.8.6 1.4.6 1.1-.2 1.5-.6.5-1.1.5-1.9c0-.8-.2-1.4-.5-1.9s-.8-.6-1.5-.6c-.6 0-1.1.2-1.4.6s-.5 1-.5 1.9z" class="st3"/>
  <path d="M52.3 126.4c.3 0 .5 0 .8.1l-.1.9c-.3-.1-.5-.1-.7-.1-.5 0-1 .2-1.3.6s-.6.9-.6 1.6v3.4h-1v-6.4h.8l.1 1.2c.2-.4.5-.7.9-1s.7-.3 1.1-.3z" class="st3"/>
  <path d="M54.2 124.7c0-.2.1-.4.2-.5s.2-.2.4-.2.3.1.4.2.2.3.2.5-.1.4-.2.5-.2.2-.4.2-.3-.1-.4-.2-.2-.2-.2-.5zm1 8.2h-1v-6.4h1v6.4z" class="st3"/>
  <path d="M59.4 132.2h.5s.3-.1.4-.1v.7c-.1.1-.3.1-.5.1h-.6c-1.2 0-1.9-.7-1.9-2v-3.8h-.9v-.5l.9-.4.4-1.4h.6v1.5h1.9v.8h-1.9v3.8c0 .4.1.7.3.9s.4.4.8.4z" class="st3"/>
  <path d="M60.5 126.5h1l1.4 3.7c.3.8.5 1.4.6 1.8.1-.2.2-.5.3-1 .2-.5.7-2 1.6-4.5h1l-2.8 7.3c-.3.7-.6 1.2-1 1.5s-.8.5-1.3.5c-.3 0-.6 0-.9-.1v-.8c.2 0 .5.1.7.1.7 0 1.1-.4 1.4-1.1l.4-.9-2.4-6.5z" class="st3"/>
  <path d="M76.2 129.7c0 1-.3 1.9-.8 2.5s-1.3.9-2.2.9c-.6 0-1.1-.1-1.5-.4s-.8-.7-1-1.2-.4-1.1-.4-1.8c0-1 .3-1.9.8-2.4s1.2-.9 2.2-.9c.9 0 1.6.3 2.1.9s.8 1.4.8 2.4zm-4.9 0c0 .8.2 1.4.5 1.9s.8.6 1.4.6 1.1-.2 1.5-.6.5-1.1.5-1.9c0-.8-.2-1.4-.5-1.9s-.8-.6-1.5-.6c-.6 0-1.1.2-1.4.6s-.5 1-.5 1.9z" class="st3"/>
  <path d="M80.8 127.2h-1.6v5.7h-1v-5.7h-1.1v-.4l1.1-.4v-.4c0-1.6.7-2.4 2.1-2.4.3 0 .7.1 1.2.2l-.3.8c-.4-.1-.7-.2-1-.2-.4 0-.6.1-.8.4s-.3.6-.3 1.2v.4h1.6v.8z" class="st3"/>
  <path d="M86.1 132.9h-1v-9.1h1v9.1z" class="st3"/>
  <path d="M90.9 133c-.9 0-1.7-.3-2.2-.9s-.8-1.4-.8-2.4.3-1.9.8-2.5 1.2-.9 2.1-.9c.8 0 1.4.3 1.9.8s.7 1.2.7 2.1v.6H89c0 .8.2 1.3.6 1.7s.9.6 1.5.6c.7 0 1.4-.1 2.1-.4v.9c-.3.1-.7.3-1 .3s-.9.1-1.3.1zm-.3-5.8c-.5 0-.9.2-1.2.5s-.5.8-.5 1.4h3.4c0-.6-.1-1.1-.4-1.4s-.8-.5-1.3-.5z" class="st3"/>
  <path d="M97.8 127.2h-1.6v5.7h-1v-5.7H94v-.4l1.1-.4v-.4c0-1.6.7-2.4 2.1-2.4.3 0 .7.1 1.2.2l-.3.8c-.4-.1-.7-.2-1-.2-.4 0-.6.1-.8.4s-.3.6-.3 1.2v.4h1.6v.8z" class="st3"/>
  <path d="M101 132.2h.5s.3-.1.4-.1v.7c-.1.1-.3.1-.5.1h-.6c-1.2 0-1.9-.7-1.9-2v-3.8H98v-.5l.9-.4.4-1.4h.6v1.5h1.9v.8H100v3.8c0 .4.1.7.3.9s.4.4.7.4z" class="st3"/>
  <path d="M14.9 147.3v-4.2c0-.5-.1-.9-.4-1.2s-.6-.4-1.1-.4c-.7 0-1.2.2-1.5.6s-.5 1-.5 1.8v3.4h-1v-9.1h1v3.6h.1c.2-.3.5-.6.8-.7s.8-.3 1.2-.3c.8 0 1.4.2 1.8.6s.6 1 .6 1.8v4.2h-1z" class="st3"/>
  <path d="M21.8 147.3l-.2-.9c-.3.4-.6.7-1 .8s-.7.2-1.2.2c-.6 0-1.1-.2-1.5-.5s-.5-.8-.5-1.4c0-1.3 1-2 3.1-2h1.1v-.5c0-.5-.1-.9-.3-1.1s-.6-.4-1-.4c-.5 0-1.1.2-1.8.5l-.3-.7c.3-.2.7-.3 1-.4s.8-.1 1.1-.1c.8 0 1.3.2 1.7.5s.6.9.6 1.6v4.4h-.8zm-2.2-.7c.6 0 1.1-.2 1.4-.5s.5-.8.5-1.4v-.6h-1c-.8 0-1.3.1-1.7.4s-.5.5-.5 1c0 .4.1.6.3.8s.7.3 1 .3z" class="st3"/>
  <path d="M29 147.3v-4.2c0-.5-.1-.9-.4-1.2s-.6-.4-1.1-.4c-.7 0-1.2.2-1.5.5s-.5 1-.5 1.8v3.4h-1v-6.4h.8l.2.9c.2-.3.5-.6.8-.7s.8-.3 1.2-.3c.8 0 1.4.2 1.7.6s.6 1 .6 1.8v4.2H29z" class="st3"/>
  <path d="M36.3 146.4c-.5.7-1.2 1-2.1 1-.8 0-1.5-.3-2-.9s-.7-1.4-.7-2.4.2-1.9.7-2.5 1.1-.9 2-.9c.9 0 1.5.3 2 .9h.1V138h1v9.1h-.8l-.2-.7zm-1.9.2c.7 0 1.1-.2 1.4-.5s.4-.9.4-1.7v-.2c0-.9-.2-1.6-.5-1.9s-.8-.6-1.5-.6c-.6 0-1 .2-1.3.7s-.5 1.1-.5 1.9c0 .8.2 1.4.5 1.9s.9.4 1.5.4z" class="st3"/>
  <path d="M42 147.4c-.9 0-1.7-.3-2.2-.9s-.8-1.4-.8-2.4.3-1.9.8-2.5 1.2-.9 2.1-.9c.8 0 1.4.3 1.9.8s.7 1.2.7 2.1v.6h-4.4c0 .8.2 1.3.6 1.7s.9.6 1.5.6c.7 0 1.4-.1 2.1-.4v.9c-.3.1-.7.3-1 .3s-.9.1-1.3.1zm-.3-5.8c-.5 0-.9.2-1.2.5s-.5.8-.5 1.4h3.4c0-.6-.1-1.1-.4-1.4s-.8-.5-1.3-.5z" class="st3"/>
  <path d="M48.9 140.8c.3 0 .5 0 .8.1l-.1.9c-.3-.1-.5-.1-.7-.1-.5 0-1 .2-1.3.6s-.6.9-.6 1.6v3.4h-1v-6.4h.8l.1 1.2c.2-.4.5-.7.9-1s.7-.3 1.1-.3z" class="st3"/>
  <path d="M55.1 145.5c0 .6-.2 1.1-.7 1.4s-1.1.5-1.9.5c-.9 0-1.5-.1-2-.4v-.9c.3.2.6.3 1 .4s.7.1 1 .1c.5 0 .9-.1 1.2-.2s.4-.4.4-.7c0-.2-.1-.5-.3-.6s-.6-.4-1.3-.6c-.6-.2-1-.4-1.3-.6s-.4-.4-.6-.6-.2-.5-.2-.8c0-.5.2-.9.6-1.2s1-.5 1.8-.5c.7 0 1.4.1 2 .4l-.3.8c-.6-.3-1.2-.4-1.8-.4-.5 0-.8.1-1 .2s-.4.3-.4.6c0 .2 0 .3.1.4s.2.2.4.3.6.3 1.1.5c.8.3 1.3.6 1.5.8s.7.7.7 1.1z" class="st3"/>
  <path d="M63.7 147.3l-.2-.9c-.3.4-.6.7-1 .8s-.7.2-1.2.2c-.6 0-1.1-.2-1.5-.5s-.5-.8-.5-1.4c0-1.3 1-2 3.1-2h1.1v-.5c0-.5-.1-.9-.3-1.1s-.6-.4-1-.4c-.5 0-1.1.2-1.8.5l-.3-.7c.3-.2.7-.3 1-.4s.8-.1 1.1-.1c.8 0 1.3.2 1.7.5.4.3.6.9.6 1.6v4.4h-.8zm-2.2-.7c.6 0 1.1-.2 1.4-.5s.5-.8.5-1.4v-.6h-1c-.8 0-1.3.1-1.7.4s-.5.5-.5 1c0 .4.1.6.3.8s.6.3 1 .3z" class="st3"/>
  <path d="M67.4 147.3h-1v-9.1h1v9.1z" class="st3"/>
  <path d="M73.6 145.5c0 .6-.2 1.1-.7 1.4s-1.1.5-1.9.5c-.9 0-1.5-.1-2-.4v-.9c.3.2.6.3 1 .4s.7.1 1 .1c.5 0 .9-.1 1.2-.2s.4-.4.4-.7c0-.2-.1-.5-.3-.6s-.6-.4-1.3-.6c-.6-.2-1-.4-1.3-.6s-.4-.4-.6-.6-.2-.5-.2-.8c0-.5.2-.9.6-1.2s1-.5 1.8-.5c.7 0 1.4.1 2 .4l-.3.8c-.6-.3-1.2-.4-1.8-.4-.5 0-.8.1-1 .2s-.4.3-.4.6c0 .2 0 .3.1.4s.2.2.4.3.6.3 1.1.5c.8.3 1.3.6 1.5.8s.7.7.7 1.1z" class="st3"/>
  <path d="M80.7 144.1c0 1-.3 1.9-.8 2.5s-1.3.9-2.2.9c-.6 0-1.1-.1-1.5-.4s-.8-.7-1-1.2-.4-1.1-.4-1.8c0-1 .3-1.9.8-2.4s1.2-.9 2.2-.9c.9 0 1.6.3 2.1.9s.8 1.4.8 2.4zm-4.9 0c0 .8.2 1.4.5 1.9s.8.6 1.4.6 1.1-.2 1.5-.6.5-1.1.5-1.9c0-.8-.2-1.4-.5-1.9s-.8-.6-1.5-.6c-.6 0-1.1.2-1.4.6s-.5 1-.5 1.9z" class="st3"/>
  <path d="M88.1 147.4c-.9 0-1.6-.3-2.2-.9s-.8-1.4-.8-2.4c0-1.1.3-1.9.8-2.5s1.3-.9 2.2-.9c.3 0 .6 0 .9.1s.6.1.7.2l-.3.8c-.2-.1-.4-.2-.7-.2s-.5-.1-.7-.1c-1.3 0-2 .8-2 2.5 0 .8.2 1.4.5 1.8s.8.6 1.4.6c.5 0 1.1-.1 1.6-.3v.9c-.2.3-.7.4-1.4.4z" class="st3"/>
  <path d="M96.8 144.1c0 1-.3 1.9-.8 2.5s-1.3.9-2.2.9c-.6 0-1.1-.1-1.5-.4s-.8-.7-1-1.2-.4-1.1-.4-1.8c0-1 .3-1.9.8-2.4s1.2-.9 2.2-.9c.9 0 1.6.3 2.1.9s.8 1.4.8 2.4zm-4.9 0c0 .8.2 1.4.5 1.9s.8.6 1.4.6 1.1-.2 1.5-.6.5-1.1.5-1.9c0-.8-.2-1.4-.5-1.9s-.8-.6-1.5-.6c-.6 0-1.1.2-1.4.6s-.5 1-.5 1.9z" class="st3"/>
  <path d="M102.9 147.3v-4.2c0-.5-.1-.9-.4-1.2s-.6-.4-1.1-.4c-.7 0-1.2.2-1.5.5s-.5 1-.5 1.8v3.4h-1v-6.4h.8l.2.9c.2-.3.5-.6.8-.7s.8-.3 1.2-.3c.8 0 1.4.2 1.7.6s.6 1 .6 1.8v4.2h-.8z" class="st3"/>
  <path d="M105.3 144.5v-.9h2.9v.9h-2.9z" class="st3"/>
  <path d="M14.7 159.9c0 .6-.2 1.1-.7 1.4s-1.1.5-1.9.5c-.9 0-1.5-.1-2-.4v-.9c.3.2.6.3 1 .4s.7.1 1 .1c.5 0 .9-.1 1.2-.2s.4-.4.4-.7c0-.2-.1-.5-.3-.6s-.6-.4-1.3-.6c-.6-.2-1-.4-1.3-.6s-.4-.4-.6-.6-.2-.5-.2-.8c0-.5.2-.9.6-1.2s1-.5 1.8-.5c.7 0 1.4.1 2 .4l-.3.8c-.6-.3-1.2-.4-1.8-.4-.5 0-.8.1-1 .2s-.4.3-.4.6c0 .2 0 .3.1.4s.2.2.4.3.6.3 1.1.5c.8.3 1.3.6 1.5.8s.7.7.7 1.1z" class="st3"/>
  <path d="M16.2 153.5c0-.2.1-.4.2-.5s.2-.2.4-.2.3.1.4.2.2.3.2.5-.1.4-.2.5-.2.2-.4.2-.3-.1-.4-.2-.2-.3-.2-.5zm1 8.2h-1v-6.4h1v6.4z" class="st3"/>
  <path d="M23.7 160.8c-.5.7-1.2 1-2.1 1-.8 0-1.5-.3-2-.9s-.7-1.4-.7-2.4.2-1.9.7-2.5 1.1-.9 2-.9c.9 0 1.5.3 2 .9h.1v-3.6h1v9.1h-.8l-.2-.7zm-2 .2c.7 0 1.1-.2 1.4-.5s.4-.9.4-1.7v-.2c0-.9-.2-1.6-.5-1.9s-.8-.6-1.5-.6c-.6 0-1 .2-1.3.7s-.5 1.1-.5 1.9c0 .8.2 1.4.5 1.9s.9.4 1.5.4z" class="st3"/>
  <path d="M29.4 161.8c-.9 0-1.7-.3-2.2-.9s-.8-1.4-.8-2.4.3-1.9.8-2.5 1.2-.9 2.1-.9c.8 0 1.4.3 1.9.8s.7 1.2.7 2.1v.6h-4.4c0 .8.2 1.3.6 1.7s.9.6 1.5.6c.7 0 1.4-.1 2.1-.4v.9c-.3.1-.7.3-1 .3s-.9.1-1.3.1zm-.3-5.8c-.5 0-.9.2-1.2.5s-.5.8-.5 1.4h3.4c0-.6-.1-1.1-.4-1.4s-.8-.5-1.3-.5z" class="st3"/>
  <path d="M36.3 155.2c.3 0 .5 0 .8.1l-.1.9c-.3-.1-.5-.1-.7-.1-.5 0-1 .2-1.3.6s-.6.9-.6 1.6v3.4h-1v-6.4h.8l.1 1.2c.2-.4.5-.7.9-1s.7-.3 1.1-.3z" class="st3"/>
  <path d="M41 161.8c-.9 0-1.7-.3-2.2-.9s-.8-1.4-.8-2.4.3-1.9.8-2.5 1.2-.9 2.1-.9c.8 0 1.4.3 1.9.8s.7 1.2.7 2.1v.6h-4.4c0 .8.2 1.3.6 1.7s.9.6 1.5.6c.7 0 1.4-.1 2.1-.4v.9c-.3.1-.7.3-1 .3s-.9.1-1.3.1zm-.3-5.8c-.5 0-.9.2-1.2.5s-.5.8-.5 1.4h3.4c0-.6-.1-1.1-.4-1.4s-.8-.5-1.3-.5z" class="st3"/>
  <path d="M49.4 160.8c-.5.7-1.2 1-2.1 1-.8 0-1.5-.3-2-.9s-.7-1.4-.7-2.4.2-1.9.7-2.5 1.1-.9 2-.9c.9 0 1.5.3 2 .9h.1v-3.6h1v9.1h-.8l-.2-.7zm-2 .2c.7 0 1.1-.2 1.4-.5s.4-.9.4-1.7v-.2c0-.9-.2-1.6-.5-1.9s-.8-.6-1.5-.6c-.6 0-1 .2-1.3.7s-.5 1.1-.5 1.9c0 .8.2 1.4.5 1.9s.9.4 1.5.4z" class="st3"/>
  <path d="M57.5 161h.5s.3-.1.4-.1v.7c-.1.1-.3.1-.5.1h-.6c-1.2 0-1.9-.7-1.9-2V156h-.9v-.5l.9-.4.4-1.4h.6v1.5h1.9v.8h-1.9v3.8c0 .4.1.7.3.9s.5.3.8.3z" class="st3"/>
  <path d="M64.1 161.7v-4.2c0-.5-.1-.9-.4-1.2s-.6-.4-1.1-.4c-.7 0-1.2.2-1.5.6s-.5 1-.5 1.8v3.4h-1v-9.1h1v3.6h.1c.2-.3.5-.6.8-.7s.8-.3 1.2-.3c.8 0 1.4.2 1.8.6s.6 1 .6 1.8v4.2h-1z" class="st3"/>
  <path d="M69.8 161.8c-.9 0-1.7-.3-2.2-.9s-.8-1.4-.8-2.4.3-1.9.8-2.5 1.2-.9 2.1-.9c.8 0 1.4.3 1.9.8s.7 1.2.7 2.1v.6h-4.4c0 .8.2 1.3.6 1.7s.9.6 1.5.6c.7 0 1.4-.1 2.1-.4v.9c-.3.1-.7.3-1 .3s-.9.1-1.3.1zm-.3-5.8c-.5 0-.9.2-1.2.5s-.5.8-.5 1.4h3.4c0-.6-.1-1.1-.4-1.4s-.8-.5-1.3-.5z" class="st3"/>
  <path d="M82 161.7v-4.2c0-.5-.1-.9-.3-1.2s-.6-.4-1-.4c-.6 0-1.1.2-1.3.5s-.4.9-.4 1.6v3.6h-1v-4.2c0-.5-.1-.9-.3-1.2s-.6-.4-1-.4c-.6 0-1.1.2-1.3.5s-.4 1-.4 1.8v3.4h-1v-6.4h.8l.2.9c.2-.3.4-.6.8-.7s.7-.3 1.1-.3c1 0 1.7.4 2 1.1.2-.3.5-.6.8-.8s.8-.3 1.2-.3c.7 0 1.3.2 1.6.6s.5 1 .5 1.8v4.2h-1z" class="st3"/>
  <path d="M84.4 158.9v-.9h2.9v.9h-2.9z" class="st3"/>
  <path d="M14.7 174.3c0 .6-.2 1.1-.7 1.4s-1.1.5-1.9.5c-.9 0-1.5-.1-2-.4v-.9c.3.2.6.3 1 .4s.7.1 1 .1c.5 0 .9-.1 1.2-.2s.4-.4.4-.7c0-.2-.1-.5-.3-.6s-.6-.4-1.3-.6c-.6-.2-1-.4-1.3-.6s-.4-.4-.6-.6-.2-.5-.2-.8c0-.5.2-.9.6-1.2s1-.5 1.8-.5c.7 0 1.4.1 2 .4l-.3.8c-.6-.3-1.2-.4-1.8-.4-.5 0-.8.1-1 .2s-.4.3-.4.6c0 .2 0 .3.1.4s.2.2.4.3.6.3 1.1.5c.8.3 1.3.6 1.5.8s.7.7.7 1.1z" class="st3"/>
  <path d="M19 176.2c-.9 0-1.7-.3-2.2-.9s-.8-1.4-.8-2.4.3-1.9.8-2.5 1.2-.9 2.1-.9c.8 0 1.4.3 1.9.8s.7 1.2.7 2.1v.6h-4.4c0 .8.2 1.3.6 1.7s.9.6 1.5.6c.7 0 1.4-.1 2.1-.4v.9c-.3.1-.7.3-1 .3s-.9.1-1.3.1zm-.3-5.8c-.5 0-.9.2-1.2.5s-.5.8-.5 1.4h3.4c0-.6-.1-1.1-.4-1.4s-.8-.5-1.3-.5z" class="st3"/>
  <path d="M24 176.1h-1V167h1v9.1z" class="st3"/>
  <path d="M27.4 176.1l-2.4-6.4h1l1.4 3.8c.3.9.5 1.5.6 1.7 0-.2.2-.6.4-1.3s.7-2.1 1.5-4.3h1l-2.4 6.4h-1.1z" class="st3"/>
  <path d="M34.7 176.2c-.9 0-1.7-.3-2.2-.9s-.8-1.4-.8-2.4.3-1.9.8-2.5 1.2-.9 2.1-.9c.8 0 1.4.3 1.9.8s.7 1.2.7 2.1v.6h-4.4c0 .8.2 1.3.6 1.7s.9.6 1.5.6c.7 0 1.4-.1 2.1-.4v.9c-.3.1-.7.3-1 .3s-.8.1-1.3.1zm-.2-5.8c-.5 0-.9.2-1.2.5s-.5.8-.5 1.4h3.4c0-.6-.1-1.1-.4-1.4s-.8-.5-1.3-.5z" class="st3"/>
  <path d="M42.9 174.3c0 .6-.2 1.1-.7 1.4s-1.1.5-1.9.5c-.9 0-1.5-.1-2-.4v-.9c.3.2.6.3 1 .4s.7.1 1 .1c.5 0 .9-.1 1.2-.2s.4-.4.4-.7c0-.2-.1-.5-.3-.6s-.6-.4-1.3-.6c-.6-.2-1-.4-1.3-.6s-.4-.4-.6-.6-.2-.5-.2-.8c0-.5.2-.9.6-1.2s1-.5 1.8-.5c.7 0 1.4.1 2 .4l-.3.8c-.6-.3-1.2-.4-1.8-.4-.5 0-.8.1-1 .2s-.4.3-.4.6c0 .2 0 .3.1.4s.2.2.4.3.6.3 1.1.5c.8.3 1.3.6 1.5.8s.7.7.7 1.1z" class="st3"/>
  <path d="M55.8 176.1v-4.2c0-.5-.1-.9-.3-1.2s-.6-.4-1-.4c-.6 0-1.1.2-1.3.5s-.4.9-.4 1.6v3.6h-1v-4.2c0-.5-.1-.9-.3-1.2s-.6-.4-1-.4c-.6 0-1.1.2-1.3.5s-.4 1-.4 1.8v3.4h-1v-6.4h.8l.2.9c.2-.3.4-.6.8-.7s.7-.3 1.1-.3c1 0 1.7.4 2 1.1.2-.3.5-.6.8-.8s.8-.3 1.2-.3c.7 0 1.3.2 1.6.6s.5 1 .5 1.8v4.2h-1z" class="st3"/>
  <path d="M64.3 172.9c0 1-.3 1.9-.8 2.5-.5.6-1.3.9-2.2.9-.6 0-1.1-.1-1.5-.4s-.8-.7-1-1.2-.4-1.1-.4-1.8c0-1 .3-1.9.8-2.4s1.2-.9 2.2-.9c.9 0 1.6.3 2.1.9.5.5.8 1.4.8 2.4zm-4.9 0c0 .8.2 1.4.5 1.9s.8.6 1.4.6 1.1-.2 1.5-.6.5-1.1.5-1.9c0-.8-.2-1.4-.5-1.9s-.8-.6-1.5-.6c-.6 0-1.1.2-1.4.6s-.5 1-.5 1.9z" class="st3"/>
  <path d="M68.9 169.6c.3 0 .5 0 .8.1l-.1.9c-.3-.1-.5-.1-.7-.1-.5 0-1 .2-1.3.6s-.6.9-.6 1.5v3.4h-1v-6.4h.8l.1 1.2c.2-.4.5-.7.9-1s.7-.2 1.1-.2z" class="st3"/>
  <path d="M73.6 176.2c-.9 0-1.7-.3-2.2-.9s-.8-1.4-.8-2.4.3-1.9.8-2.5 1.2-.9 2.1-.9c.8 0 1.4.3 1.9.8s.7 1.2.7 2.1v.6h-4.4c0 .8.2 1.3.6 1.7s.9.6 1.5.6c.7 0 1.4-.1 2.1-.4v.9c-.3.1-.7.3-1 .3s-.8.1-1.3.1zm-.2-5.8c-.5 0-.9.2-1.2.5s-.5.8-.5 1.4h3.4c0-.6-.1-1.1-.4-1.4s-.8-.5-1.3-.5z" class="st3"/>
  <path d="M80.7 167.9c0-.2.1-.4.2-.5s.2-.2.4-.2.3.1.4.2.2.3.2.5-.1.4-.2.5-.2.2-.4.2-.3-.1-.4-.2-.2-.3-.2-.5zm1 8.2h-1v-6.4h1v6.4z" class="st3"/>
  <path d="M88.2 176.1v-4.2c0-.5-.1-.9-.4-1.2s-.6-.4-1.1-.4c-.7 0-1.2.2-1.5.5s-.5 1-.5 1.8v3.4h-1v-6.4h.8l.2.9c.2-.3.5-.6.8-.7s.8-.3 1.2-.3c.8 0 1.4.2 1.7.6s.6 1 .6 1.8v4.2h-.8z" class="st3"/>
  <path d="M93.2 175.4h.5s.3-.1.4-.1v.7c-.1.1-.3.1-.5.1H93c-1.2 0-1.9-.7-1.9-2v-3.8h-.9v-.3l.9-.4.4-1.4h.6v1.5H94v.8h-1.9v3.8c0 .4.1.7.3.9s.5.2.8.2z" class="st3"/>
  <path d="M98.1 176.2c-.9 0-1.7-.3-2.2-.9s-.9-1.3-.9-2.4c0-1 .3-1.9.8-2.5s1.2-.9 2.1-.9c.8 0 1.4.3 1.9.8s.7 1.2.7 2.1v.6H96c0 .8.2 1.3.6 1.7s.9.6 1.5.6c.7 0 1.4-.1 2.1-.4v.9c-.3.1-.7.3-1 .3s-.7.1-1.1.1zm-.3-5.8c-.5 0-.9.2-1.2.5s-.5.8-.5 1.4h3.4c0-.6-.1-1.1-.4-1.4s-.7-.5-1.3-.5z" class="st3"/>
  <path d="M103.1 176.1h-1V167h1v9.1z" class="st3"/>
  <path d="M106.1 176.1h-1V167h1v9.1z" class="st3"/>
  <path d="M108.1 167.9c0-.2.1-.4.2-.5s.2-.2.4-.2.3.1.4.2.2.3.2.5-.1.4-.2.5-.2.2-.4.2-.3-.1-.4-.2-.2-.3-.2-.5zm1.1 8.2h-1v-6.4h1v6.4z" class="st3"/>
  <path d="M110.7 173.3v-.9h2.9v.9h-2.9z" class="st3"/>
  <path d="M15.8 184.1v.6l-1.2.1c.1.1.2.3.3.5s.1.5.1.7c0 .6-.2 1.1-.6 1.5s-1 .6-1.8.6h-.5c-.4.2-.6.5-.6.8 0 .2.1.3.2.4s.4.1.7.1h1.1c.7 0 1.2.1 1.6.4s.6.7.6 1.3c0 .7-.3 1.3-.9 1.6s-1.4.6-2.5.6c-.8 0-1.5-.2-1.9-.5s-.7-.8-.7-1.3c0-.4.1-.7.4-1s.6-.5 1.1-.6c-.2-.1-.3-.2-.4-.3s-.2-.3-.2-.5.1-.4.2-.6.3-.3.6-.5c-.3-.1-.6-.4-.8-.7s-.3-.7-.3-1.1c0-.7.2-1.2.6-1.6s1-.6 1.8-.6c.3 0 .6 0 .9.1h2.2zm-5.1 7.5c0 .3.1.6.4.8s.7.3 1.3.3c.8 0 1.4-.1 1.8-.4s.6-.6.6-1c0-.3-.1-.6-.3-.7s-.6-.2-1.2-.2h-1.2c-.4 0-.8.1-1 .3s-.4.5-.4.9zm.5-5.5c0 .4.1.8.4 1s.6.3 1.1.3c.9 0 1.4-.5 1.4-1.4 0-1-.5-1.4-1.4-1.4-.5 0-.8.1-1.1.4s-.4.6-.4 1.1z" class="st3"/>
  <path d="M19.8 190.6c-.9 0-1.7-.3-2.2-.9s-.8-1.4-.8-2.4.3-1.9.8-2.5 1.2-.9 2.1-.9c.8 0 1.4.3 1.9.8s.7 1.2.7 2.1v.6h-4.4c0 .8.2 1.3.6 1.7s.9.6 1.5.6c.7 0 1.4-.1 2.1-.4v.9c-.3.1-.7.3-1 .3s-.9.1-1.3.1zm-.3-5.8c-.5 0-.9.2-1.2.5s-.5.8-.5 1.4h3.4c0-.6-.1-1.1-.4-1.4s-.7-.5-1.3-.5z" class="st3"/>
  <path d="M28.2 190.5v-4.2c0-.5-.1-.9-.4-1.2s-.6-.4-1.1-.4c-.7 0-1.2.2-1.5.5s-.5 1-.5 1.8v3.4h-1V184h.8l.2.9c.2-.3.5-.6.8-.7s.8-.3 1.2-.3c.8 0 1.4.2 1.7.6s.6 1 .6 1.8v4.2h-.8z" class="st3"/>
  <path d="M33.3 189.8h.5s.3-.1.4-.1v.7c-.1.1-.3.1-.5.1h-.6c-1.2 0-1.9-.7-1.9-2v-3.8h-.9v-.5l.9-.4.4-1.4h.6v1.5h1.9v.8h-1.9v3.8c0 .4.1.7.3.9s.5.4.8.4z" class="st3"/>
  <path d="M42.5 190.5l-.2-.9c-.3.4-.6.7-1 .8s-.7.2-1.2.2c-.6 0-1.1-.2-1.5-.5s-.5-.8-.5-1.4c0-1.3 1-2 3.1-2h1.1v-.4c0-.5-.1-.9-.3-1.1s-.6-.4-1-.4c-.5 0-1.1.2-1.8.5l-.3-.7c.3-.2.7-.3 1-.4s.8-.1 1.1-.1c.8 0 1.3.2 1.7.5s.6.9.6 1.6v4.4h-.8zm-2.2-.7c.6 0 1.1-.2 1.4-.5s.5-.8.5-1.4v-.6h-1c-.8 0-1.3.1-1.7.4s-.5.5-.5 1c0 .4.1.6.3.8s.6.3 1 .3z" class="st3"/>
  <path d="M49.6 190.5v-4.2c0-.5-.1-.9-.4-1.2s-.6-.4-1.1-.4c-.7 0-1.2.2-1.5.5s-.5 1-.5 1.8v3.4h-1V184h.9l.2.9c.2-.3.5-.6.8-.7s.8-.3 1.2-.3c.8 0 1.4.2 1.7.6s.6 1 .6 1.8v4.2h-.9z" class="st3"/>
  <path d="M57 189.6c-.5.7-1.2 1-2.1 1-.8 0-1.5-.3-2-.9s-.7-1.4-.7-2.4.2-1.9.7-2.5 1.1-.9 2-.9c.9 0 1.5.3 2 .9h.1v-3.6h1v9.1h-.8l-.2-.7zm-2 .2c.7 0 1.1-.2 1.4-.5s.4-.9.4-1.7v-.2c0-.9-.2-1.6-.5-1.9s-.8-.6-1.5-.6c-.6 0-1 .2-1.3.7s-.5 1.1-.5 1.9c0 .8.2 1.4.5 1.9s.9.4 1.5.4z" class="st3"/>
  <path d="M71.2 190.5v-4.2c0-.5-.1-.9-.3-1.2s-.6-.4-1-.4c-.6 0-1.1.2-1.3.5s-.4.9-.4 1.6v3.6h-1v-4.2c0-.5-.1-.9-.3-1.2s-.6-.4-1-.4c-.6 0-1.1.2-1.3.5s-.4 1-.4 1.8v3.4h-1v-6.4h.8v1.1c.2-.3.4-.6.8-.7s.7-.3 1.1-.3c1 0 1.7.4 2 1.1.2-.3.5-.6.8-.8s.8-.3 1.2-.3c.7 0 1.3.2 1.6.6s.5 1 .5 1.8v4.2h-.8z" class="st3"/>
  <path d="M79.8 187.3c0 1-.3 1.9-.8 2.5s-1.3.9-2.2.9c-.6 0-1.1-.1-1.5-.4s-.8-.7-1-1.2-.4-1.1-.4-1.8c0-1 .3-1.9.8-2.4s1.2-.9 2.2-.9c.9 0 1.6.3 2.1.9s.8 1.4.8 2.4zm-4.9 0c0 .8.2 1.4.5 1.9s.8.6 1.4.6 1.1-.2 1.5-.6.5-1.1.5-1.9c0-.8-.2-1.4-.5-1.9s-.8-.6-1.5-.6c-.6 0-1.1.2-1.4.6s-.5 1-.5 1.9z" class="st3"/>
  <path d="M84.4 184c.3 0 .5 0 .8.1l-.1.9c-.3-.1-.5-.1-.7-.1-.5 0-1 .2-1.3.6s-.6.9-.6 1.6v3.4h-1v-6.4h.8l.1 1.2c.2-.4.5-.7.9-1s.7-.3 1.1-.3z" class="st3"/>
  <path d="M89.1 190.6c-.9 0-1.7-.3-2.2-.9s-.8-1.4-.8-2.4.3-1.9.8-2.5 1.2-.9 2.1-.9c.8 0 1.4.3 1.9.8s.7 1.2.7 2.1v.6H87c0 .8.2 1.3.6 1.7s.9.6 1.5.6c.7 0 1.4-.1 2.1-.4v.9c-.3.1-.7.3-1 .3s-.7.1-1.1.1zm-.3-5.8c-.5 0-.9.2-1.2.5s-.5.8-.5 1.4h3.4c0-.6-.1-1.1-.4-1.4s-.8-.5-1.3-.5z" class="st3"/>
  <path d="M13.1 205c-.9 0-1.6-.3-2.2-.9s-.8-1.4-.8-2.4c0-1.1.3-1.9.8-2.5s1.3-.9 2.2-.9c.3 0 .6 0 .9.1s.6.1.7.2l-.3.8c-.2-.1-.4-.2-.7-.2s-.5-.1-.7-.1c-1.3 0-2 .8-2 2.5 0 .8.2 1.4.5 1.8s.8.6 1.4.6c.5 0 1.1-.1 1.6-.3v.9c-.2.3-.8.4-1.4.4z" class="st3"/>
  <path d="M19.2 198.4c.3 0 .5 0 .8.1l-.1.9c-.3-.1-.5-.1-.7-.1-.5 0-1 .2-1.3.6s-.6.9-.6 1.6v3.4h-1v-6.4h.7l.1 1.2c.2-.4.5-.7.9-1s.8-.3 1.2-.3z" class="st3"/>
  <path d="M23.8 205c-.9 0-1.7-.3-2.2-.9s-.8-1.4-.8-2.4.3-1.9.8-2.5 1.2-.9 2.1-.9c.8 0 1.4.3 1.9.8s.7 1.2.7 2.1v.6h-4.4c0 .8.2 1.3.6 1.7s.9.6 1.5.6c.7 0 1.4-.1 2.1-.4v.9c-.3.1-.7.3-1 .3s-.8.1-1.3.1zm-.2-5.8c-.5 0-.9.2-1.2.5s-.5.8-.5 1.4h3.4c0-.6-.1-1.1-.4-1.4s-.8-.5-1.3-.5z" class="st3"/>
  <path d="M31.8 204.9l-.2-.9c-.3.4-.6.7-1 .8s-.7.2-1.2.2c-.6 0-1.1-.2-1.5-.5s-.5-.8-.5-1.4c0-1.3 1-2 3.1-2h1.1v-.4c0-.5-.1-.9-.3-1.1s-.6-.4-1-.4c-.5 0-1.1.2-1.8.5l-.3-.7c.3-.2.7-.3 1-.4s.8-.1 1.1-.1c.8 0 1.3.2 1.7.5s.6.9.6 1.6v4.4h-.8zm-2.2-.7c.6 0 1.1-.2 1.4-.5s.5-.8.5-1.4v-.6h-1c-.8 0-1.3.1-1.7.4s-.5.5-.5 1c0 .4.1.6.3.8s.6.3 1 .3z" class="st3"/>
  <path d="M36.6 204.2h.5s.3-.1.4-.1v.7c-.1.1-.3.1-.5.1h-.6c-1.2 0-1.9-.7-1.9-2v-3.8h-.9v-.5l.9-.4.5-1.2h.6v1.5h1.9v.8h-1.9v3.8c0 .4.1.7.3.9s.4.2.7.2z" class="st3"/>
  <path d="M38.7 196.7c0-.2.1-.4.2-.5s.2-.2.4-.2.3.1.4.2.2.3.2.5-.1.4-.2.5-.2.2-.4.2-.3-.1-.4-.2-.2-.2-.2-.5zm1.1 8.2h-1v-6.4h1v6.4z" class="st3"/>
  <path d="M43.2 204.9l-2.4-6.4h1l1.4 3.8c.3.9.5 1.5.6 1.7 0-.2.2-.6.4-1.3s.7-2.1 1.5-4.3h1l-2.4 6.4h-1.1z" class="st3"/>
  <path d="M50.5 205c-.9 0-1.7-.3-2.2-.9s-.8-1.4-.8-2.4.3-1.9.8-2.5 1.2-.9 2.1-.9c.8 0 1.4.3 1.9.8s.7 1.2.7 2.1v.6h-4.4c0 .8.2 1.3.6 1.7s.9.6 1.5.6c.7 0 1.4-.1 2.1-.4v.9c-.3.1-.7.3-1 .3s-.8.1-1.3.1zm-.2-5.8c-.5 0-.9.2-1.2.5s-.5.8-.5 1.4H52c0-.6-.1-1.1-.4-1.4s-.8-.5-1.3-.5z" class="st3"/>
  <path d="M59.8 204.2h.5s.3-.1.4-.1v.7c-.1.1-.3.1-.5.1h-.6c-1.2 0-1.9-.7-1.9-2v-3.8h-.9v-.5l.9-.4.4-1.4h.6v1.5h1.9v.8h-1.9v3.8c0 .4.1.7.3.9s.4.4.8.4z" class="st3"/>
  <path d="M66.3 204.9v-4.2c0-.5-.1-.9-.4-1.2s-.6-.4-1.1-.4c-.7 0-1.2.2-1.5.6s-.5 1-.5 1.8v3.4h-1v-9.1h1v3.6h.1c.2-.3.5-.6.8-.7.4-.2.8-.3 1.2-.3.8 0 1.4.2 1.8.6s.6 1 .6 1.8v4.2h-1z" class="st3"/>
  <path d="M73.2 204.9l-.2-.9c-.3.4-.6.7-1 .8s-.7.2-1.2.2c-.6 0-1.1-.2-1.5-.5s-.5-.8-.5-1.4c0-1.3 1-2 3.1-2H73v-.4c0-.5-.1-.9-.3-1.1s-.6-.4-1-.4c-.5 0-1.1.2-1.8.5l-.3-.7c.3-.2.7-.3 1-.4s.8-.1 1.1-.1c.8 0 1.3.2 1.7.5s.6.9.6 1.6v4.4h-.8zm-2.2-.7c.6 0 1.1-.2 1.4-.5s.5-.8.5-1.4v-.6h-1c-.8 0-1.3.1-1.7.4s-.5.5-.5 1c0 .4.1.6.3.8s.6.3 1 .3z" class="st3"/>
  <path d="M80.3 204.9v-4.2c0-.5-.1-.9-.4-1.2s-.6-.4-1.1-.4c-.7 0-1.2.2-1.5.5s-.5 1-.5 1.8v3.4h-1v-6.4h.8l.2.9c.2-.3.5-.6.8-.7s.8-.3 1.2-.3c.8 0 1.4.2 1.7.6s.6 1 .6 1.8v4.2h-.8z" class="st3"/>
  <path d="M14.5 219.3l-.2-.9c-.3.4-.6.7-1 .8s-.7.2-1.2.2c-.6 0-1.1-.2-1.5-.5s-.5-.8-.5-1.4c0-1.3 1-2 3.1-2h1.1v-.5c0-.5-.1-.9-.3-1.1s-.6-.4-1-.4c-.5 0-1.1.2-1.8.5l-.3-.7c.3-.2.7-.3 1-.4s.8-.1 1.1-.1c.8 0 1.3.2 1.7.5s.6.9.6 1.6v4.4h-.8zm-2.2-.7c.6 0 1.1-.2 1.4-.5s.5-.8.5-1.4v-.6h-1c-.8 0-1.3.1-1.7.4s-.5.5-.5 1c0 .4.1.6.3.8s.6.3 1 .3z" class="st3"/>
  <path d="M18.6 219.3l-2.4-6.4h1l1.4 3.8c.3.9.5 1.5.6 1.7 0-.2.2-.6.4-1.3s.7-2.1 1.5-4.3h1l-2.4 6.4h-1.1z" class="st3"/>
  <path d="M25.9 219.4c-.9 0-1.7-.3-2.2-.9s-.8-1.4-.8-2.4.3-1.9.8-2.5 1.2-.9 2.1-.9c.8 0 1.4.3 1.9.8s.7 1.2.7 2.1v.6H24c0 .8.2 1.3.6 1.7s.9.6 1.5.6c.7 0 1.4-.1 2.1-.4v.9c-.3.1-.7.3-1 .3s-.8.1-1.3.1zm-.2-5.8c-.5 0-.9.2-1.2.5s-.5.8-.5 1.4h3.4c0-.6-.1-1.1-.4-1.4s-.8-.5-1.3-.5z" class="st3"/>
  <path d="M32.9 212.8c.3 0 .5 0 .8.1l-.1.9c-.3-.1-.5-.1-.7-.1-.5 0-1 .2-1.3.6s-.6.9-.6 1.6v3.4h-1v-6.4h.8l.1 1.2c.2-.4.5-.7.9-1s.7-.3 1.1-.3z" class="st3"/>
  <path d="M38.8 219.3l-.2-.9c-.3.4-.6.7-1 .8s-.7.2-1.2.2c-.6 0-1.1-.2-1.5-.5s-.5-.8-.5-1.4c0-1.3 1-2 3.1-2h1.1v-.5c0-.5-.1-.9-.3-1.1s-.6-.4-1-.4c-.5 0-1.1.2-1.8.5l-.3-.7c.3-.2.7-.3 1-.4s.8-.1 1.1-.1c.8 0 1.3.2 1.7.5s.6.9.6 1.6v4.4h-.8zm-2.2-.7c.6 0 1.1-.2 1.4-.5s.5-.8.5-1.4v-.6h-1c-.8 0-1.3.1-1.7.4s-.5.5-.5 1c0 .4.1.6.3.8s.6.3 1 .3z" class="st3"/>
  <path d="M46.8 212.9v.6l-1.2.1c.1.1.2.3.3.5s.1.5.1.7c0 .6-.2 1.1-.6 1.5s-1 .6-1.8.6h-.5c-.4.2-.6.5-.6.8 0 .2.1.3.2.4s.4.1.7.1h1.1c.7 0 1.2.1 1.6.4s.6.7.6 1.3c0 .7-.3 1.3-.9 1.6s-1.4.6-2.5.6c-.8 0-1.5-.2-1.9-.5s-.7-.8-.7-1.3c0-.4.1-.7.4-1s.6-.5 1.1-.6c-.2-.1-.3-.2-.4-.3s-.2-.3-.2-.5.1-.4.2-.6.3-.3.6-.5c-.3-.1-.6-.4-.8-.7s-.3-.7-.3-1.1c0-.7.2-1.2.6-1.6s1-.6 1.8-.6c.3 0 .6 0 .9.1h2.2zm-5.1 7.5c0 .3.1.6.4.8s.7.3 1.3.3c.8 0 1.4-.1 1.8-.4s.6-.6.6-1c0-.3-.1-.6-.3-.7s-.6-.2-1.2-.2h-1.2c-.4 0-.8.1-1 .3s-.4.5-.4.9zm.5-5.5c0 .4.1.8.4 1s.6.3 1.1.3c.9 0 1.4-.5 1.4-1.4 0-1-.5-1.4-1.4-1.4-.5 0-.8.1-1.1.4s-.4.6-.4 1.1z" class="st3"/>
  <path d="M50.8 219.4c-.9 0-1.7-.3-2.2-.9s-.8-1.4-.8-2.4.3-1.9.8-2.5 1.2-.9 2.1-.9c.8 0 1.4.3 1.9.8s.7 1.2.7 2.1v.6h-4.4c0 .8.2 1.3.6 1.7s.9.6 1.5.6c.7 0 1.4-.1 2.1-.4v.9c-.3.1-.7.3-1 .3s-.9.1-1.3.1zm-.3-5.8c-.5 0-.9.2-1.2.5s-.5.8-.5 1.4h3.4c0-.6-.1-1.1-.4-1.4s-.8-.5-1.3-.5z" class="st3"/>
</svg>
