<?xml version="1.0" encoding="utf-8"?>
<!-- Generator: Adobe Illustrator 19.1.0, SVG Export Plug-In . SVG Version: 6.00 Build 0)  -->
<svg version="1.1" id="head-info-r" xmlns="http://www.w3.org/2000/svg" xmlns:xlink="http://www.w3.org/1999/xlink" x="0px"
	 y="0px" width="137.2px" height="239.2px" viewBox="-542 277.8 137.2 239.2" enable-background="new -542 277.8 137.2 239.2"
	 xml:space="preserve">
<path fill="#B17F60" d="M-407.4,285.9h-123.9c-1.4,0-2.6,1.2-2.6,2.6v90.2c0,1.4,1.2,2.6,2.6,2.6h123.8c1.4,0,2.6-1.2,2.6-2.6v-90.2
	C-404.8,287-406,285.9-407.4,285.9z"/>
<path fill="#344B62" d="M-417.5,277.8h-121.9c-1.4,0-2.6,1.2-2.6,2.6v90.2c0,1.4,1.2,2.6,2.6,2.6h121.9c1.4,0,2.6-1.2,2.6-2.6v-90.2
	C-414.9,279-416,277.8-417.5,277.8z"/>
<path fill="#B17F60" d="M-407.7,404.3H-531c-1.6,0-2.8,1.3-2.8,2.8v107.1c0,1.6,1.3,2.8,2.8,2.8h123.4c1.6,0,2.8-1.3,2.8-2.8V407.1
	C-404.8,405.5-406.1,404.3-407.7,404.3z"/>
<path fill="#344B62" d="M-417.7,394.8h-121.5c-1.6,0-2.8,1.3-2.8,2.8v107.1c0,1.6,1.3,2.8,2.8,2.8h121.4c1.6,0,2.8-1.3,2.8-2.8
	V397.6C-414.9,396-416.2,394.8-417.7,394.8z"/>
</svg>
