<?xml version="1.0" encoding="utf-8"?>
<!-- Generator: Adobe Illustrator 19.1.0, SVG Export Plug-In . SVG Version: 6.00 Build 0)  -->
<svg version="1.1" id="header" xmlns="http://www.w3.org/2000/svg" xmlns:xlink="http://www.w3.org/1999/xlink" x="0px" y="0px"
	 width="493.1px" height="115.8px" viewBox="-314 211.5 493.1 115.8" enable-background="new -314 211.5 493.1 115.8"
	 xml:space="preserve">
<path fill="#1A2C3E" d="M-212.3,317.9c-2.9,2.9-6.3,4.2-7.7,4.8c-6.7,3.1-12.2,2.6-19.3,2.6h-0.2l-20.9,1.7h-0.3l-27.4-1h-0.3
	l-13.1,0.9c-1.7,0.1-3.1-1.4-2.8-3.1l1-5.5c0-0.2,0.1-0.4,0-0.7l-1.5-23.7v-0.3l1.6-27.6v-0.3l-1.6-22.6v-0.4l1.2-12.5v-0.5l-0.9-8
	c-0.2-1.7,1.2-3.1,2.9-2.9l11,1l26.4,1.1h0.4l19.1-2c3.5-0.4,7.1,0,10.4,1.1c0.9,0.3,1.7,0.5,2.6,0.7c6.4,0.9,14.4,2.1,19,6.8
	c0.1,0.1,0.2,0.2,0.2,0.3c0.9,1.2,1.5,3.7,3,6.8c1.8,3.7,4,7.3,4,11.5c0,3.5-1.1,13.8-9.8,20.8c-1,0.7-2.1,1.4-3.6,2.2
	c-1.7,0.9-1.9,3.2-0.4,4.4c0.2,0.2,0.5,0.3,0.8,0.4c3.2,1.1,6.5,2.4,9,4.9c6.6,6.9,3.7,14.5,3.7,18S-204.3,310.3-212.3,317.9
	L-212.3,317.9z M-240.2,287.8c-3.1-5.1-8.3-5.3-9.7-5.3l-9.2,1.1l-8.9-1.1c-1.5,0-2.6,1.2-2.6,2.6l1.4,7.9l-1.4,8
	c0,1.5,1.2,2.6,2.6,2.6l8-1l10.9,1c3.8,0,6.9,0.8,9.4-2.7c1.7-2.5,2.3-6.5,2.3-7.7C-237.4,292.1-238.8,290.1-240.2,287.8
	L-240.2,287.8z M-241.1,244.9c-2.6-4.2-8.5-3.5-9.7-3.5l-8.3,0.8l-8.7-0.8c-1.5,0-3.3,0.5-3.3,1.9l0.4,1.3c-1.9,4-1.8,8.6,0.3,12.5
	c0,1.5,1.2,2.6,2.6,2.6l10.5-0.8l5.8,0.8c3.7,0,5.9-0.6,8.1-4.3c1.2-1.8,0.3-3.6,0.3-4.5C-243.2,248.1-240.5,245.8-241.1,244.9z"/>
<path fill="#1A2C3E" d="M-242.9,252.6c0,0,0.8,2.3,3.7,3c2.9,0.7,8.3,1,10,0.7s2.9-0.7,2.9-0.7s2.7,3.2-2.9,3
	c-5.7-0.2-10.2-1.5-13.3-0.7s-4.6,1.2-4.6,1.2S-242.9,257.1-242.9,252.6z"/>
<path fill="#1A2C3E" d="M-241.2,245.8c0,0,3-4.4,5.7-5.7s3.6-4.8,2.5-5.9s-3.3-1.4-3.7-4.8s0.4,5-1.3,7.1s-11.2,4.8-11.2,4.8
	S-241.3,242.1-241.2,245.8z"/>
<path fill="#1A2C3E" d="M-210.9,231.4c0,0-2.8,17-10.5,21.4c0,0,7.6-3.9,9.4-9.9s3.7-5.7,3.7-5.7S-210,233.1-210.9,231.4
	L-210.9,231.4z"/>
<path fill="#1A2C3E" d="M-232.1,220.6c0,0-3.4,0.6-4.4,4.2c0,0,0.2-3.9,1.1-5.2L-232.1,220.6z"/>
<path fill="#1A2C3E" d="M-219.2,269.3c0,0-3.1,1.5-9,1.5c0,0,5.8,1.3,8.9,2.7C-219.3,273.4-221.7,271.6-219.2,269.3z"/>
<path fill="#1A2C3E" d="M-251.6,259.8c0,0-6.8-0.1-11.4,9.6c0,0,0.9-2.6-1.3-6c-1.3-2-6.5-3.7-6.3-6.2c0,0,0.6,1.8,3.3,2.3
	C-264.6,259.8-257.7,257.8-251.6,259.8L-251.6,259.8z"/>
<path fill="#1A2C3E" d="M-249.9,282.6c0,0,6.1-1.8,7.7-3.8c1.6-2,1.5-5.1,3.6-5.4c0,0-2,3.1-1.5,5.6c0.5,2.6-1.3,5.6,0.3,9.5
	C-239.9,288.4-242.7,282.6-249.9,282.6L-249.9,282.6z"/>
<path fill="#1A2C3E" d="M-205.6,295.3c0,0-3.1,8.3-7.7,10c-4.6,1.6-9.4-1.8-9.4-5.5c0,0-2.1,5.1,1.9,6.2c4,1.2,9.1-0.2,12.2-1.2
	c0.9-0.3,2.8-0.3,2.8-0.3S-205.3,300.8-205.6,295.3z"/>
<path fill="#1A2C3E" d="M-237.7,292.1c0,0,1,1,2.2,0.8s3.2-4.3,6.6-3.1c3.3,1.1,3.8,3.5,3.8,3.5s-3-3.8-5.6-2.4s-2.2,4.2-4.1,4.4
	c-1.9,0.2-2.7-0.6-2.7-0.6S-237.3,293.6-237.7,292.1L-237.7,292.1z"/>
<path fill="#1A2C3E" d="M-264.2,220.9c0,0-13.4,3.3-19.5,3.5c-6.2,0.2-12.7-5-13.7-5.2s14.7,0.8,14.7,0.8L-264.2,220.9z"/>
<path fill="#1A2C3E" d="M-268.8,303.8c0,0-6.8,2.8-7.6,4.2c-0.8,1.4-2.8,6.6-1.4,8.6c0,0-4.3-6.9,1.4-11.1c5.7-4.2,6.2-7,6.2-7
	S-271,303.4-268.8,303.8z"/>
<path fill="#1A2C3E" d="M-260.3,327.1c0,0-13.1-3.2-15.6-6c0,0,0.6,5-1.2,5.2C-277.2,326.3-267.9,327.6-260.3,327.1z"/>
<path fill="#1A2C3E" d="M-288.1,326.1c0,0-14-2.8-15.8-18.5l0.7,10.2c0,0-1.1,5.1-1.1,6s0.1,3.1,2.8,3.1
	C-298.8,326.9-288.1,326.1-288.1,326.1z"/>
<path fill="#1A2C3E" d="M-304.8,293.6c0,0,1.3-8.8,8.2-11.8c0,0-7.5,0.4-7.3-2.6C-303.9,279.1-304.6,292.4-304.8,293.6L-304.8,293.6
	z"/>
<path fill="#1A2C3E" d="M-303.6,230.3c0,0,2.3,6.7,7.3,8.8s10.7,2.4,10.7,2.4s-8.9,1.8-14.2-1.2s-4.5,8.3-4.5,8.3l-0.4-5.8
	L-303.6,230.3z"/>
<path fill="#1A2C3E" d="M-270.7,285.1c0,0-0.5-7.1-6.1-7.9c-5.5-0.8-15,2.4-15,2.4s9.5-5.4,16.2-4.9
	C-268.9,275.4-270.7,285.1-270.7,285.1z"/>
<path fill="#1A2C3E" d="M-253.2,282.8c0,0-7.2-3.6-9.3-8.8c0,0,4,8.2,1.3,9.3l2.2,0.3C-259.1,283.6-255.8,283.3-253.2,282.8z"/>
<path fill="#1A2C3E" d="M-303.2,265.6c0,0,0.7-7,9.4-7.6c8.7-0.6,11.1-4.1,11.1-4.1s-7.4,2.9-13,1.9
	C-301.3,254.9-303.2,265.6-303.2,265.6z"/>
<path fill="#1A2C3E" d="M-137.3,325.4l-2.9-3.2c-5.1-5.6-8.3-12.6-9.5-20c-0.2-1.4-0.5-2.9-0.8-4.3l-1.1-5c-0.5-2.4-1.9-5.2-4.3-5.1
	l-1.7,0.9c-0.4,0.2-0.8,0.4-1.2,0.4c-2.7,0.4-4.7,2.9-4.3,5.7l1,6.5c0.6,4.1,1.2,9,0.6,13.2l-1.2,7.8c-0.4,2.8-4.7,5.2-7.4,4.8
	l-5.3-0.7c-0.4,0-0.8-0.1-1.1-0.1c-2.8-0.5-5.4-1.1-8.2-0.7l-8,1.1c-3,0.4-5.7-1.9-5.7-5v-18.8l3.6-29.6c0.9-7.6,0.6-15.2-1.1-22.7
	l-1.5-6.6c-0.8-3.5-1.2-7-1.2-10.6v-9.8c0-2.5,1.9-4.7,4.4-5l19.5-2c1.3-0.3,2.3,0,3.6,0.4c1.7,0.5,3.5,0.7,5.3,0.5l26,1.6
	c3.1,0,5.7,1.7,8.7,2c3.3,0.3,11.4-0.6,18.3,4c3.2,2.1,4.5,7.2,7,11.4c1.8,3.2,6.8,7.8,6.8,17.4c0,5.8-4.1,10.3-6.8,15.1
	c-2.1,3.7-2.1,7.9-5.9,10.4c-1.5,1-2.9,1.8-5.2,2.7c-2.4,1-3.6,3.7-2.8,6.2l4.6,13.6c0.1,0.4,0.3,0.8,0.6,1.2l9.5,14
	c2.5,3.7-0.7,8.6-5.1,7.7l-4.1-0.8c-0.6-0.1-1.3-0.1-1.9,0l-13.9,2.9C-131.5,327.4-136.1,327.1-137.3,325.4L-137.3,325.4z
	 M-135.6,247.4c-1.1-1.5-2-3-2.7-3.3c-3.5-2-7.5-2.2-11.5-2.2h-7.7c-3.1,0-5.4,3-4.6,6l0.8,3c0.4,1.6,0.5,3.2,0.1,4.8l-0.7,3.3
	c-0.9,3.8,2.5,7.3,6.3,6.6l3.5-0.6c3.3,0,9.5,1.9,12.4,0.7c1.3-0.5,2.9-1.2,4.4-2.2c2.5-1.5,3.7-4.5,2.7-7.2
	c-0.2-0.6-0.3-1.2-0.3-1.8C-132.9,251.8-134.2,249.4-135.6,247.4z"/>
<path fill="#1A2C3E" d="M-107.3,273.6c0,0-1.3,4.6-4.1,5.7c-1,0.4-2-2-3.5-2c-5.4,0.1-11.2-2.6-10.4-10.5c0,0,0.8,9.3,8,9.1
	S-107.3,273.6-107.3,273.6z"/>
<path fill="#1A2C3E" d="M-132.1,258.4c0,0,1.7,6.5,3,9.2c0,0-2.4-3.4-2.6-4.4c-0.1-1-2.3-0.6-2.3-0.6s1.7-2,1.9-4.5"/>
<path fill="#1A2C3E" d="M-122.3,245.6c0.8-0.3,1.7-0.1,2.3,0.5c1.3,1.3,3.5,3.9,2.8,6.3c-1,3.4-2.9,5.2-4,5.5
	c-0.4,0.1-1.2,0.2-1.9,0.4c-1.1,0.2-2,2.5-2,2.5s-0.8-0.9,1.2-3.7c0.3-0.5,2.4-0.6,2.9-1.2c0.6-0.6,0.2-2.1,0.8-3
	c0.2-0.3,0.3-0.7,0.3-1c0.4-5.1-1-5.7-2.2-5.9C-122.7,245.8-122.6,245.6-122.3,245.6L-122.3,245.6z"/>
<path fill="#1A2C3E" d="M-105.4,236.4c0,0-1.8-3.9-9.6-4.5s-9.6,1.2-9.6,1.2s4.7-3.9,10.1-3s5.6-0.5,5.6-0.5L-105.4,236.4z"/>
<path fill="#1A2C3E" d="M-129.3,238.1c0,0-0.1,2.4,0.8,3.2C-128.5,241.3-131.8,239.8-129.3,238.1z"/>
<path fill="#1A2C3E" d="M-142.6,266.1c0,0,3.4,0.4,6.7,4.2c3.3,3.8,2.8,5.9,2.8,5.9s0.3-6.2-1.4-7.4c-1.7-1.3-2.9-2.2-2.5-3
	c0.4-0.9,0.8-1.7,0.8-1.7S-140,266.1-142.6,266.1L-142.6,266.1z"/>
<path fill="#1A2C3E" d="M-162.1,247.8c0,0-1-2.5-1.9-4.3c-0.2-0.4-0.6-0.8-1-0.9c-2-0.8-3.8-1-3.8-1s3.8-0.5,5.3,0.7
	c1.5,1.1,2.7,1,2.7,1S-162.9,244.8-162.1,247.8z"/>
<path fill="#1A2C3E" d="M-162,259.1c0,0-1.3,5.9-7.5,4.5c-6.3-1.5-5.9-4-5.9-4s-0.5,4.9,6.9,5.2c0,0,3.9-1,5.5-0.8
	c1.6,0.2,3.6,1.1,3.6,1.1S-162.4,262.9-162,259.1z"/>
<path fill="#1A2C3E" d="M-175.5,253.8c0.2-0.6,0.1-1.3-0.2-1.9c-0.8-1.6-2.9-5-7.1-5.7c-5.7-0.9-7.6-0.7-7.6-0.7s6.3,1,8.6,2.5
	s5.3,4,5.6,6.2C-176.1,255.8-175.7,254.8-175.5,253.8z"/>
<path fill="#1A2C3E" d="M-113.8,324.1c0,0-8.2-2.6-11.4-9.7c-3.2-7.1-4.9-12.3-4.9-12.3s1.9,13.6,5.8,17.5c1.2,1.3,1.2,3.3-0.1,4.5
	l-0.1,0.1c-1.9,1.7-4,2.6-4,2.6S-117.5,324.4-113.8,324.1L-113.8,324.1z"/>
<path fill="#1A2C3E" d="M-114.6,302.4c0,0-6.6-8.8-6.7-13.3s4.1-6.7,4.1-6.7s-0.3,0.3-0.7,0.8c-1.4,1.8-1.7,4.2-1,6.4
	c0.4,1.2,1,2.8,1.5,4.4L-114.6,302.4L-114.6,302.4z"/>
<path fill="#1A2C3E" d="M-127.1,278.4c0,0-5.4,0.9-6.1,3.1s0.1,5.5,0.1,5.5s-3.1-5.5-0.2-7.7C-130.5,277.1-127.1,278.4-127.1,278.4
	L-127.1,278.4z"/>
<path fill="#1A2C3E" d="M-157.7,288.9l1.9-1c0,0-4.2-1.4-2.4-3.5c1.8-2.1-3.3-1.9-0.3,4.4C-158.4,288.9-158,289.1-157.7,288.9z"/>
<path fill="#1A2C3E" d="M-179.1,238.8c0,0-10.9-2.1-11.5-6.9c-0.6-4.7-7.4-3.5-7.7,1.8c0,0-0.5-6.8,4.7-6.8s3.4,4.6,5.1,6
	C-186.8,234.3-188.7,234.9-179.1,238.8z"/>
<path fill="#1A2C3E" d="M-130.8,221.1c0,0-3.6-0.8-5.1-1.3s-1-0.6-7.9-1c-6.9-0.4-21.4-1.5-21.4-1.5s-9.9,0.5-8.5,4
	c1.4,3.5,4.7,4.2,4.7,4.2s-5.6-3.5-2.2-5.4c3.4-1.9,8.7-1.9,11.4-1.7C-157.1,218.6-130.8,221.1-130.8,221.1z"/>
<path fill="#1A2C3E" d="M-139.3,231.1c0,0,4.1-2.5,2.9-4S-149,227-149,227s9.2-0.1,10.2,0.9C-137.8,228.8-139.3,231.1-139.3,231.1
	L-139.3,231.1z"/>
<path fill="#1A2C3E" d="M-142.5,235.8c0,0-5.4,2.7,4.3,8.2c0,0-2.4-1.1-4.5-1.6c-0.9-0.5-1.6-1.2-2.2-1.9c-1.3-1.5-0.6-3.9,1.3-4.5
	C-143.3,235.8-142.9,235.8-142.5,235.8L-142.5,235.8z"/>
<path fill="#1A2C3E" d="M-140.2,284.8c0,0-4-5.9-8.2-5.1s-5.3,1.5-5.3,1.5s3.2-3.2,8.1-2.6C-140.7,279.3-140.2,284.8-140.2,284.8
	L-140.2,284.8z"/>
<path fill="#1A2C3E" d="M-162.9,294.9c0,0-2.2-4.7-2-8c0-0.7,0-1.4-0.3-2c-1.4-3.6-4.2-5.7-6.2-7.1c0,0,8.9-0.1,8.9,5.3
	s-0.9,5-0.8,6.8C-163.1,291.8-162.9,294.9-162.9,294.9L-162.9,294.9z"/>
<path fill="#1A2C3E" d="M-174.3,277.1c0,0-6.3-0.4-6.6,3.1s6.6,9.8,6.2,14.8c0,0,1.3-0.9-6.8-12.2
	C-189.6,271.4-174.3,277.1-174.3,277.1L-174.3,277.1z"/>
<path fill="#1A2C3E" d="M-173.8,308.3c0,0-0.6,9.3-5.9,8.2c-5.3-1-6.6,3.2-6.6,3.2s1.4-5.3,5.8-4.8
	C-176.1,315.4-173.8,308.3-173.8,308.3L-173.8,308.3z"/>
<path fill="#1A2C3E" d="M-183.8,325.6l-4.9,0.7c4-0.8,1.6-3.7,1.8-4.9C-186.9,321.4-186.2,323.9-183.8,325.6L-183.8,325.6z"/>
<path fill="#1A2C3E" d="M-190.2,296.4c0,0,4.3,3.8,1.5,7.9C-188.7,304.4-187.2,302.4-190.2,296.4z"/>
<path fill="#1A2C3E" d="M-193.3,315.6c1,1.4,2.8,3,5.1,2.3c0,0-4.2,4-6,0c-3.5-7.4,2.5-9.3,2.5-9.3s-1.1,1.5-1.9,3
	C-194.3,312.9-194.1,314.4-193.3,315.6L-193.3,315.6z"/>
<path fill="#1A2C3E" d="M15.6,324.8c-0.4,0.3-0.8,0.5-1.2,0.7c-0.2,0.1-0.5,0.2-0.5,0.2c-5.4,1.8-11.3,2.1-16.9,0.9l-8.1-1.2
	c-1.5-0.2-2.9-0.8-4.1-1.7c-1.6-1.3-2.5-3-2.2-5c0.1-0.6,0-1.3-0.4-1.8l-4.6-6.9c-0.4-0.6-1.1-1-1.8-1.1l-23.2-2.4
	c-1.2-0.1-2.3,0-3.5,0.2l-6.2,1.4c-2.4,0.5-4.5,1.9-6,3.8l-0.1,0.1c-1.5,1.9-2.3,4.2-2.3,6.5c-0.1,3-2.8,5.3-5.8,4.8l-7.4-1.2
	c-2.3-0.4-4.6-0.4-6.9-0.1l-9.5,1.3c-0.6,0.1-4.2-0.5-4.8-1.8c-2.4-5.2-1.7-11.3,1.5-16.1l11.7-17c0.9-2.1,1.6-4.2,2.1-6.4l6.7-29.1
	c2.4-10.3,6.3-20.1,11.8-29.1l4-4.9c0.3-0.5,3.9-1.4,6.5-0.4c2.2,0.8,4.5,1.1,6.9,0.9l11.2-0.6h0.9l9.6-1.2c0.5-0.1,1.1-0.2,1.8-0.1
	c3,0.1,5.8,1.3,7.9,3.3c2.5,2.3,3.7,5.5,3.7,8.9c0,1.7,0.4,3.4,1.2,4.9c1,1.7,2.2,3.7,2.7,4.6c0.3,0.6,0.4,1.5,0.5,2.6
	c0.7,7.8,4.1,14.4,6.9,21.7l5.4,18.8c0.1,0.2,0.1,0.4,0.2,0.6l6.4,8.4c0.1,0.2,0.6,1.2,1.1,2.3c1.1,2.5,2.9,5.4,3.5,8.2l1.9,7.5
	c1.5,4.1,1.9,8.5,1.1,12.8c-0.2,1-0.8,1.8-1.1,2.2C15.9,324.4,15.8,324.6,15.6,324.8L15.6,324.8z M-48.9,282.3
	c0.3-0.2,1.4,0.1,2.4,0.4c0.8,0.2,1.6,0.4,2.4,0.4l8.3,0.8c2.2,0.4,3.7-2,2.5-3.9l-0.1-5.2c-0.2-7.8-2.7-15.3-7.3-21.6
	c-0.3-2.3-3.4-3-4.6-1l-3.2,5.1c-0.2,0.3-0.3,0.6-0.4,0.9l-2.9,16.9C-52.4,277.8-51.2,280.6-48.9,282.3L-48.9,282.3z"/>
<path fill="#1A2C3E" d="M-36.7,218.9c0,0-6.8,3.3-4.5,9.5C-41.3,228.4-49.4,220.1-36.7,218.9z"/>
<path fill="#1A2C3E" d="M-33.7,230.3c0,0,8-2.6,11.3,7.4c0,0,2.1,4.4,5.6,3.6c0,0-7,1.9-8.1-3.7C-26.2,231.9-33.7,230.3-33.7,230.3z
	"/>
<path fill="#1A2C3E" d="M-13.7,230.6c0,0,0,1.6,0.3,3.2c0.4,2.2,1.1,5-1.1,6.7c0,0,3.1-0.2,4-2.6l-1.6-2.8c-0.4-0.7-0.7-1.4-0.9-2.1
	L-13.7,230.6L-13.7,230.6z"/>
<path fill="#1A2C3E" d="M3.2,282.8c0,0-8.1-8-10.2,0.1c-2.1,8.1,3.5,15.8,3.5,15.8s-11.5-9.8-4.7-19c0,0,3.6-3.4,6.2-3
	c2.6,0.4,2.5-2.7,2.5-2.7L3.2,282.8L3.2,282.8z"/>
<path fill="#1A2C3E" d="M0.7,307.6c0,0-2.1,3.3-13,5.2c-3.5,1.2-4.6,2.6-5.2,5.6c0,0-1.1-7.6,6.5-7.4
	C-3.4,311.1,0.7,307.6,0.7,307.6L0.7,307.6z"/>
<path fill="#1A2C3E" d="M-33.4,275.4c0,0,0.3,9.1-4.7,8.3c0,0,1.7,3.5,6.3,0.4s-2.7-8.1-0.2-10.3c0.9-0.6,3-0.7,3-0.7
	S-33.4,271.8-33.4,275.4L-33.4,275.4z"/>
<path fill="#1A2C3E" d="M-22.5,275.8c0,0,4.6,4.9,3.8,12.3c-0.8,7.3-4.2,9.6-4.6,11.8c-0.4,2.2-1.1,5.7-1.1,5.7s1.1-3.8,5.5-11
	C-14.4,287.3-18.2,278.1-22.5,275.8L-22.5,275.8z"/>
<path fill="#1A2C3E" d="M-24.3,308.8c0,0-0.6-0.9-0.2-2.6c0,0-1.6,2.2-10.6,1.4L-24.3,308.8L-24.3,308.8z"/>
<path fill="#1A2C3E" d="M-47.5,306.4c0,0-2.2-0.2-4.8,0.4c-1.3,0.3-5.6-0.2-7.6-2.2s-1.7-5.5-1.3-7.7c0.9-4.4,3.9-5.1,3.9-5.1
	s-6,5.8-0.5,11C-52.3,308.1-50.4,304.4-47.5,306.4z"/>
<path fill="#1A2C3E" d="M-36.5,289.6c0,0-0.8,7.2-8.9,3.2c0,0-3.7-1.8-6.7-1.5c0,0,5.6-0.9,8.9,0.8
	C-39.9,293.8-36.5,289.6-36.5,289.6z"/>
<path fill="#1A2C3E" d="M-85.7,321.9c0,0,5.4-2.3,4.4-6.5s0.3-6.2,0.3-6.2s0,4.4,1.3,6.5c1.3,2-0.2,6.1-0.2,6.1
	S-84,321.8-85.7,321.9L-85.7,321.9z"/>
<path fill="#1A2C3E" d="M-71.1,291.8c0,0-6.9,3-8.5,9.9C-79.5,301.8-77.4,296.3-71.1,291.8z"/>
<path fill="#1A2C3E" d="M-86.8,288.4c0,0,5.2-4.9,5.7-7.2s4.8-4.7,6-4c1.3,0.7,3.2,1.1,3.5,3.1c0,0,1.3-4.5-3.6-5.5
	c-4.9-0.9-7.2,2.5-7.4,4.9c-0.2,2.3-2.8,4.7-2.8,4.7L-86.8,288.4L-86.8,288.4z"/>
<path fill="#1A2C3E" d="M-55.7,218.6c0,0,4.5,1.8,5.1,7c0.7,5.2-4,9.1-4.8,11.9c-0.8,2.8-1.3,9.8-0.4,12.5c0,0,0.5-8.6,3.3-13.5
	s8.1-13.8,5-15.1c-3.1-1.3-4.9-1.9-4.9-1.9S-54.8,219.1-55.7,218.6L-55.7,218.6z"/>
<path fill="#1A2C3E" d="M-73,237.4c0,0-2.6,12.8,0.8,16c3.5,3.2,6.4,3,6.4,3s-8.4,1.2-9.6-3.2c-1.2-4.3-2.9,0.9-2.9,0.9
	S-75.2,241.9-73,237.4L-73,237.4z"/>
<path fill="#1A2C3E" d="M-48.9,282.3c0,0,2.5,5.7-5.1,6.1c-7.6,0.3-11.1-7-11.1-7s1.2,9.5,11.7,8c10.4-1.5,6-5.2,7.4-5.6
	c1.4-0.3,3.3-0.6,3.3-0.6l-5.4-1C-48.9,282.1-48.9,282.3-48.9,282.3z"/>
<path fill="#1A2C3E" d="M-64.5,261.4c0,0-3.1,7.9-2.3,11.9c0.8,4-3.1,0.5-3.1-1.9C-69.8,269.1-69.6,264.6-64.5,261.4z"/>
<path fill="#1A2C3E" d="M-49,258.1l-0.2-0.2c-0.7-0.9-3.7-4.1-7.6-2.8c0,0,3.4-2.2,6.2-0.8c2.8,1.4,4.1-0.7,4.1-0.7"/>
<path fill="#1A2C3E" d="M-40.7,253.3c0,0,6.6,2.9,10.4-4.5c3.8-7.4-5.4-12.7-5.4-12.7s7.3,2.1,7.9,8.6c0.3,3.3-1.5,6.4-4.3,8.1
	c-0.6,0.4-1.2,0.8-1.7,1.3c-1.4,1.3-1.9,3.3-1.4,5.1c0.9,3.1,0.3,6.2,0.3,6.2s-2.2-5.9-4.3-9.7C-39.7,254.6-40.2,253.9-40.7,253.3z"
	/>
<path fill="#1A2C3E" d="M-7.6,249.8c0,0,1.1,3.5-2.6,4.9c-3.7,1.3-6.1,2.1-6.1,4.7c-0.1,2.7,1.7,4,1.7,4s-3-5.4,1.1-6.1
	s5.6-1.1,6.5-2c0.4-0.6,1.5,0.3,1.5,0.3L-7.6,249.8z"/>
<path fill="#1A2C3E" d="M-1.5,266.6c0,0-0.4-1.1-1.9-1.8c-1.3-0.6-3.6-0.8-5-0.7c0,0,3.5-0.5,4.2,0s1.9-0.2,1.9-0.2L-1.5,266.6z"/>
<path fill="#1A2C3E" d="M-24.5,269.9c0,0,6.4,7,13.2,6.8C-11.3,276.8-20.6,278.1-24.5,269.9z"/>
<path fill="#1A2C3E" d="M-8.8,245.6c0,0-5-2.4-8.3-1.6c0,0,4.7-1.7,6.2-0.9s1.7-0.1,1.7-0.1L-8.8,245.6L-8.8,245.6z"/>
<path fill="#1A2C3E" d="M-25.1,250.4c0,0-4.3,8.7-1.9,13.3C-27,263.8-31.3,257.9-25.1,250.4z"/>
<path fill="#1A2C3E" d="M26.2,318.8l-1-10.7c-0.7-7.4-0.8-14.8-0.3-22.2l1.8-27.1c0.5-7.4,0.3-14.8-0.5-22.2l-1-8.5
	c-0.6-5.1,3.1-9.7,8.1-10.2l9.2-1c1.3-0.2,2.7,0,4,0.4l4.9,1.6c3.5,1.2,5.9,4.3,6.3,7.9l0.8,8.6c0.1,0.5,0.1,1.1,0,1.6l-1.2,15.4
	c-0.8,10.4-0.6,21,0.7,31.3l3.3,25.9c0.1,0.9,0.1,1.9-0.1,2.8l-1,5.3c-0.9,5.3-6.1,8.6-11.3,7.3l-0.9-0.2c-1.7-0.4-3.5-0.3-5.2,0.2
	l-4.6,1.6c-1.6,0.5-3.4,0.6-5.1,0.2C29.4,325.9,26.6,322.6,26.2,318.8L26.2,318.8z"/>
<path fill="#1A2C3E" d="M48.2,324.8c0,0-11.1-2.2-12.5-15.5c-1.3-13.4,3-19.3,3-19.3s-8.8,9.1-4.5,22.3s-0.9,14.5-0.9,14.5
	s2.9,1.3,7.5-1.2C40.7,325.8,43.5,324.8,48.2,324.8z"/>
<path fill="#1A2C3E" d="M45.5,253.8c0,0,7.1,14.7,1.2,24.6C46.7,278.6,58.8,266.8,45.5,253.8z"/>
<path fill="#1A2C3E" d="M26.9,255.8c0,0,0.6-3.1,3.1-4.5c2.3-1.3,6.3-0.9,8.9-0.1c0,0-7-2.8-9.3-1.8c-2.4,1-2.6-2.9-2.6-2.9
	L26.9,255.8z"/>
<path fill="#1A2C3E" d="M25.3,228.1c0,0,0.9,8.7,6,9.9s8.8-2.2,11.4,0.2c2.6,2.3,0.8,3.7,0.8,3.7s0.9-2.8-2.3-2.9
	c-3.2-0.2-10.8,4.5-12.8,0.8C26.3,236.1,25.3,228.1,25.3,228.1z"/>
<path fill="#1A2C3E" d="M42.6,246.4c0,0,6.2,8.2,13.7-1.7c0,0,1.5-2.3,2.2-6.3c0,0-1,12.3-1.1,13.1S46.5,254.8,42.6,246.4
	L42.6,246.4z"/>
<path fill="#1A2C3E" d="M59.1,291.9c0,0-3-8.2-5.3-9.7c0,0,3.9,3.8,4.1,0.5L59.1,291.9L59.1,291.9z"/>
<path fill="#1A2C3E" d="M139.6,320.6c-2.2-1.7-3.7-4.3-5.4-6.6c-1.4-1.9-2.8-3.9-4.2-5.8l-16.6-23.1c-0.1-0.1-0.2-0.4-0.3-0.6
	c-0.9-2.2-4.2-1.3-3.8,1.1c0.9,4.8,0.5,9.8,0.5,14.7c0,7.2-1.5,13.9-4.2,20.6c-0.6,1.5-1.5,3-2.8,4c-1.7,1.2-4,1.3-6,1.6
	c-4.4,0.7-8.9,0.8-13.4,0.4c-2.2-0.2-4.3-0.5-6.4-0.9c-1.3-0.3-2.8-0.9-3.5-2.1c-0.4-0.7-0.4-1.5-0.4-2.3c0-3-0.4-6.1,0.1-9
	c0.4-2.9,1.3-5.7,2.7-8.2v-0.1c0.4-4.5,0.9-9,1.1-13.5c0.1-2.3,0.1-4.7,0.1-7c-0.1-2.3-0.1-4.5-1.1-6.5c-2-4.1-3-9-4-13.5
	c-0.9-4.4-1.6-8.8-2-13.2c-0.3-3.7-0.5-7.4,0-11.1c0.4-2.8,0.8-5.5,1.2-8.3c1.2-8.4,8.4-14.6,16.8-14.6h0.1l14.2,0.9
	c3.7,0.2,7.2,1.9,9.7,4.6c1.8,2,3.7,3.9,5.5,5.9c3,3.2,6.1,6.3,8.4,10c0.8,1.3,1.5,2.6,2.1,4s0.9,2.8,1.8,4c2.1,2.9,6.7,9.3,6.7,9.3
	c2.3,3.6,4.1,7.5,5.5,11.6l2.5,7.4c0.6,1.8,3.2,1.8,3.8,0c2.3-7,2.9-14.5,1.8-21.8l-3.3-22c-0.5-3.6,0.3-7.2,2.2-10.3
	c0.3-0.4,0.7-0.7,1.2-0.9c6.5-1.7,13.6-2.2,20.2-0.9c1.3,0.2,2.6,0.6,3.7,1.3c3.8,2.7,3.8,8.4,4,12.5l0.3,9
	c0.3,8.6,0.9,17.3,0.7,25.9s-0.5,17.3-0.8,25.9c-0.1,3.8-0.3,7.5-0.3,11.3c0.1,1.6,0,3.2-0.3,4.7l-1.3,8.7c-0.3,1.7-1.3,3.2-2.8,4
	c-4.1,2.2-8.8,3.2-13.5,2.9l-8.6-0.7c-3.5-0.3-7.2-0.7-10.4-2.3C140.7,321.4,140.1,321.1,139.6,320.6L139.6,320.6z"/>
<path fill="#1A2C3E" d="M137.5,318.4c0,0-7.8-12.2-4.1-15.6s8-6.9,13.4-4.4s6.6,3.1,7.7,2.7c1-0.4,1.8-2.4,1.8-2.4s-3.8,2.3-8.3-1.6
	s-17.2-3.1-17.6,0.6c-0.3,3.7,0.5,11.3,0.5,11.3L137.5,318.4z"/>
<path fill="#1A2C3E" d="M157.8,290.1c0,0,2.4-7.9,1-10.8c-1.4-2.8-4.1-16.5,5.7-16.3s11.6,4.7,11.6,4.7s-1.6-7.9-10.4-7.7
	c-8.7,0.2-13,5.5-12.2,10s4.1,8.7,3.9,13S157.8,290.1,157.8,290.1z"/>
<path fill="#1A2C3E" d="M109.9,288.9c0,0-0.6-3.8-2.5-4.5s-6.5,0-7.6,1.9c-1.2,1.9-2.1,5.6-2.1,5.6s-0.5-8,6.2-9.9s5.6,3,5.6,3
	L109.9,288.9z"/>
<path fill="#1A2C3E" d="M94.5,312.4c0,0,0.2,3.4-2.7,3.6s-8.2-0.8-8.7-2.9c0,0,2.7,1,5,1.3C90.5,314.6,94.5,312.4,94.5,312.4
	L94.5,312.4z"/>
<path fill="#1A2C3E" d="M82.5,307.9c0,0-1.2-4.4-3.1-4.4s-3.5,1-3.5,1s2.5-2.7,3.9-2.5c1.4,0.2,4,2.6,3.9,4.3
	c-0.1,1.8-1.2,2.2-1.1,3.3L82.5,307.9L82.5,307.9z"/>
<path fill="#1A2C3E" d="M102,239.1c0,0-7.2-6.8-12-3.9s-2.7,10.9-2.7,10.9s1.1-5.9,2-6.6C90.2,238.9,94.9,235.8,102,239.1z"/>
<path fill="#1A2C3E" d="M92.4,262.6c0,0,4.3,3.6,4.8,6.8s-3.4,8.8-8.2,9.7c-4.8,0.9-12.3-0.2-12.3-0.2s8.9,7.6,18.6-1.4
	c9.7-9.1,4.3-12.5,2-14.3C95,261.4,92.4,262.6,92.4,262.6z"/>
<path fill="#1A2C3E" d="M103.4,239.6c0,0,10.6,8.7,16.1,5.8s7.2-5.6,7.2-6.8c0,0,0.5,1,1.3,2.4c0.2,0.4-0.8,1.6-1.1,1.9
	c-1.2,1.4-2.8,2.4-4.4,3.5c-1.7,1.2-3.1,2.6-4.6,4.2c-0.4,0.4-0.9,1.1-1.4,1.3c1-1.9,2.1-4.5,0.9-4.1
	C104.5,250.9,103.4,239.6,103.4,239.6z"/>
<path fill="#1A2C3E" d="M178.2,229.1c0,0-2.2,7.9-4.6,11.2c-3,4-6.5,3.8-9.5,5.1c-5.3,2.3-7,5.8-7.3,7.4s-0.8,4.4-0.8,4.4
	s2.7-8.7,11-10.4c8.2-1.6,7.3-5.5,9.1-5.8s2.6,2.7,2.6,2.7L178.2,229.1z"/>
<path fill="#1A2C3E" d="M144.7,274.3c0,0,1.7,4.9,0.4,8.5c-1.3,3.5-6.1,8.4-10.8,6.7c-4.7-1.7-7.1-6.9-5.8-9.5c0,0-4.8,9.9,5.6,11.2
	s13.8-1.9,14.5-4.1s-0.4-6.1-0.6-8s0.4-4.8,0.4-4.8S146.8,276.6,144.7,274.3L144.7,274.3z"/>
<path fill="#1A2C3E" d="M128.7,271.4c0,0-2.4-8.9-7.6-9.1c-5.2-0.2-5.4-6.7-5.4-6.7s-0.6,8.9,4.5,9.1
	C125.2,264.8,128.7,271.4,128.7,271.4z"/>
<path fill="#F26F5B" d="M-221.4,313.1c-2.9,2.9-6.3,4.2-7.7,4.8c-6.7,3.1-12.2,2.6-19.3,2.6h-0.2l-20.9,1.7h-0.3l-27.4-1h-0.3
	l-13.1,0.8c-1.7,0.1-3.1-1.4-2.8-3.1l1-5.5c0-0.2,0.1-0.4,0-0.7L-314,289v-0.4l1.6-27.6v-0.3l-1.6-22.5v-0.4l1.2-12.5v-0.5l-0.9-8
	c-0.2-1.7,1.2-3.1,2.9-2.9l11,1l26.4,1.1h0.4l19.1-2c3.5-0.4,7.1,0,10.4,1.1c0.9,0.3,1.7,0.5,2.6,0.7c6.4,0.9,14.4,2.1,19,6.8
	c0.1,0.1,0.2,0.2,0.2,0.3c0.9,1.2,1.5,3.7,3,6.8c1.8,3.7,4,7.3,4,11.5c0,3.5-1.1,13.8-9.8,20.8c-1,0.7-2.1,1.4-3.6,2.2
	c-1.7,0.9-1.9,3.2-0.4,4.4c0.2,0.2,0.5,0.3,0.8,0.4c3.2,1.1,6.5,2.4,9,4.9c6.6,6.9,3.7,14.5,3.7,18S-213.4,305.4-221.4,313.1
	L-221.4,313.1z M-249.3,282.9c-3.1-5.1-8.3-5.3-9.7-5.3l-9.2,1.1l-8.9-1.1c-1.5,0-2.6,1.2-2.6,2.6l1.4,7.9l-1.4,8
	c0,1.5,1.2,2.6,2.6,2.6l8-1l10.9,1c3.8,0,6.9,0.8,9.4-2.7c1.7-2.5,2.3-6.5,2.3-7.7C-246.5,287.1-247.9,285.3-249.3,282.9
	L-249.3,282.9z M-250.2,240.1c-2.6-4.2-8.5-3.5-9.7-3.5l-8.3,0.8l-8.7-0.8c-1.5,0-3.3,0.5-3.3,1.9l0.4,1.3c-1.9,4-1.8,8.6,0.3,12.5
	c0,1.5,1.2,2.6,2.6,2.6l10.5-0.8l5.8,0.8c3.7,0,5.9-0.6,8.1-4.3c1.2-1.8,0.3-3.6,0.3-4.5C-252.3,243.4-249.6,240.9-250.2,240.1z"/>
<path fill="#C95145" d="M-252,247.6c0,0,0.8,2.3,3.7,3s8.3,1,10,0.7s2.9-0.7,2.9-0.7s2.7,3.2-2.9,3c-5.7-0.2-10.2-1.5-13.3-0.7
	c-3.2,0.8-4.6,1.2-4.6,1.2S-252,252.1-252,247.6z"/>
<path fill="#C95145" d="M-250.3,240.9c0,0,3-4.4,5.7-5.7s3.6-4.8,2.5-5.9s-3.3-1.4-3.7-4.8s0.4,5-1.3,7.1
	c-1.7,2.2-11.2,4.8-11.2,4.8S-250.4,237.1-250.3,240.9z"/>
<path fill="#C95145" d="M-219.9,226.4c0,0-2.8,17-10.5,21.4c0,0,7.6-3.9,9.4-9.9s3.7-5.7,3.7-5.7S-219,228.3-219.9,226.4
	L-219.9,226.4z"/>
<path fill="#C95145" d="M-241.1,215.8c0,0-3.4,0.6-4.4,4.2c0,0,0.2-3.9,1.1-5.2L-241.1,215.8z"/>
<path fill="#C95145" d="M-228.3,264.4c0,0-3.1,1.5-9,1.5c0,0,5.8,1.3,8.9,2.7C-228.3,268.6-230.8,266.8-228.3,264.4z"/>
<path fill="#C95145" d="M-260.7,254.8c0,0-6.8-0.1-11.4,9.6c0,0,0.9-2.6-1.3-6c-1.3-2-6.5-3.7-6.3-6.2c0,0,0.6,1.8,3.3,2.3
	C-273.6,254.9-266.8,252.9-260.7,254.8z"/>
<path fill="#C95145" d="M-259,277.6c0,0,6.1-1.8,7.7-3.8s1.5-5.1,3.6-5.4c0,0-2,3.1-1.5,5.6s-1.3,5.6,0.3,9.5
	C-249,283.6-251.8,277.6-259,277.6L-259,277.6z"/>
<path fill="#C95145" d="M-214.7,290.4c0,0-3.1,8.3-7.7,10c-4.6,1.6-9.4-1.8-9.4-5.5c0,0-2.1,5.1,1.9,6.2c4,1.2,9.1-0.2,12.2-1.2
	c0.9-0.3,2.8-0.3,2.8-0.3S-214.4,295.8-214.7,290.4z"/>
<path fill="#C95145" d="M-246.8,287.3c0,0,1,1,2.2,0.8s3.2-4.3,6.6-3.1c3.3,1.1,3.8,3.5,3.8,3.5s-3-3.8-5.6-2.4s-2.2,4.2-4.1,4.4
	c-1.9,0.2-2.7-0.6-2.7-0.6S-246.4,288.8-246.8,287.3L-246.8,287.3z"/>
<path fill="#C95145" d="M-273.2,216.1c0,0-13.4,3.3-19.5,3.5c-6.2,0.2-12.7-5-13.7-5.2s14.7,0.8,14.7,0.8L-273.2,216.1z"/>
<path fill="#C95145" d="M-277.9,298.9c0,0-6.8,2.8-7.6,4.2c-0.8,1.4-2.8,6.6-1.4,8.6c0,0-4.3-6.9,1.4-11.1c5.7-4.3,6.2-7,6.2-7
	S-280.1,298.6-277.9,298.9z"/>
<path fill="#C95145" d="M-269.4,322.3c0,0-13.1-3.2-15.6-6c0,0,0.6,5-1.2,5.2C-286.2,321.4-277,322.6-269.4,322.3z"/>
<path fill="#C95145" d="M-297.1,321.3c0,0-14-2.8-15.8-18.5l0.7,10.2c0,0-1.1,5.1-1.1,6s0.1,3.1,2.8,3.1
	C-307.8,322.1-297.1,321.3-297.1,321.3z"/>
<path fill="#C95145" d="M-313.9,288.8c0,0,1.3-8.8,8.2-11.8c0,0-7.5,0.4-7.3-2.6C-313,274.3-313.7,287.6-313.9,288.8L-313.9,288.8z"
	/>
<path fill="#C95145" d="M-312.7,225.4c0,0,2.3,6.7,7.3,8.8s10.7,2.4,10.7,2.4s-8.9,1.8-14.2-1.2c-5.3-3-4.5,8.3-4.5,8.3l-0.4-5.8
	C-313.8,237.8-312.7,225.4-312.7,225.4z"/>
<path fill="#C95145" d="M-279.7,280.3c0,0-0.5-7.1-6.1-7.9c-5.5-0.8-15,2.4-15,2.4s9.5-5.4,16.2-4.9
	C-278,270.4-279.7,280.3-279.7,280.3z"/>
<path fill="#C95145" d="M-262.3,277.9c0,0-7.2-3.6-9.3-8.8c0,0,4,8.2,1.3,9.3l2.2,0.3C-268.2,278.8-264.9,278.4-262.3,277.9z"/>
<path fill="#C95145" d="M-312.2,260.8c0,0,0.7-7,9.4-7.6s11.1-4.1,11.1-4.1s-7.4,2.9-13,1.9S-312.2,260.8-312.2,260.8z"/>
<path fill="#F26F5B" d="M-146.3,320.6l-2.9-3.2c-5.1-5.6-8.3-12.6-9.5-20c-0.2-1.4-0.5-2.9-0.8-4.3l-1.1-5c-0.5-2.4-1.9-5.2-4.3-5.1
	l-1.7,0.9c-0.4,0.2-0.8,0.4-1.2,0.4c-2.7,0.4-4.7,2.9-4.3,5.7l1,6.5c0.6,4.1,1.2,9,0.6,13.2l-1.2,7.8c-0.4,2.8-4.7,5.2-7.4,4.8
	l-5.3-0.7c-0.4,0-0.8-0.1-1.1-0.1c-2.8-0.5-5.4-1.1-8.2-0.7l-8,1.1c-3,0.4-5.7-1.9-5.7-5v-18.8l3.6-29.6c0.9-7.6,0.6-15.2-1.1-22.7
	l-1.5-6.6c-0.8-3.5-1.2-7-1.2-10.6v-10c0-2.5,1.9-4.7,4.4-5l19.5-2c1.3-0.3,2.3,0,3.6,0.4c1.7,0.5,3.5,0.7,5.3,0.5l26,1.6
	c3.1,0,5.7,1.7,8.7,2c3.3,0.3,11.4-0.6,18.3,4c3.2,2.1,4.5,7.2,7,11.4c1.8,3.2,6.8,7.8,6.8,17.4c0,5.8-4.1,10.3-6.8,15.1
	c-2.1,3.7-2.1,7.9-5.9,10.4c-1.5,1-2.9,1.8-5.2,2.7c-2.4,1-3.6,3.7-2.8,6.2l4.6,13.6c0.1,0.4,0.3,0.8,0.6,1.2l9.5,14
	c2.5,3.7-0.7,8.6-5.1,7.7l-4.1-0.8c-0.6-0.1-1.3-0.1-1.9,0l-13.9,2.9C-140.6,322.6-145.2,322.1-146.3,320.6L-146.3,320.6z
	 M-144.7,242.4c-1.1-1.5-2-3-2.7-3.3c-3.5-2-7.5-2.2-11.5-2.2h-7.7c-3.1,0-5.4,3-4.6,6l0.8,3c0.4,1.6,0.5,3.2,0.1,4.8l-0.7,3.3
	c-0.9,3.8,2.5,7.3,6.3,6.6l3.5-0.6c3.3,0,9.5,1.9,12.4,0.7c1.3-0.5,2.9-1.2,4.4-2.2c2.5-1.5,3.7-4.5,2.7-7.2
	c-0.2-0.6-0.3-1.2-0.3-1.8C-141.9,246.9-143.3,244.6-144.7,242.4z"/>
<path fill="#C95145" d="M-116.4,268.6c0,0-1.3,4.6-4.1,5.7c-1,0.4-2-2-3.5-2c-5.4,0.1-11.2-2.6-10.4-10.5c0,0,0.8,9.3,8,9.1
	C-119.2,270.8-116.4,268.6-116.4,268.6z"/>
<path fill="#C95145" d="M-141.2,253.6c0,0,1.7,6.5,3,9.2c0,0-2.4-3.4-2.6-4.4s-2.3-0.6-2.3-0.6s1.7-2,1.9-4.5"/>
<path fill="#C95145" d="M-131.4,240.6c0.8-0.3,1.7-0.1,2.3,0.5c1.3,1.3,3.5,3.9,2.8,6.3c-1,3.4-2.9,5.2-4,5.5
	c-0.4,0.1-1.2,0.2-1.9,0.4c-1.1,0.2-2,2.5-2,2.5s-0.8-0.9,1.2-3.7c0.3-0.5,2.4-0.6,2.9-1.2c0.6-0.6,0.2-2.1,0.8-3
	c0.2-0.3,0.3-0.7,0.3-1c0.4-5.1-1-5.7-2.2-5.9C-131.7,240.8-131.6,240.8-131.4,240.6L-131.4,240.6z"/>
<path fill="#C95145" d="M-114.5,231.6c0,0-1.8-3.9-9.6-4.5c-7.8-0.5-9.6,1.2-9.6,1.2s4.7-3.9,10.1-3s5.6-0.5,5.6-0.5L-114.5,231.6z"
	/>
<path fill="#C95145" d="M-138.3,233.1c0,0-0.1,2.4,0.8,3.2C-137.6,236.4-140.9,234.9-138.3,233.1z"/>
<path fill="#C95145" d="M-151.7,261.3c0,0,3.4,0.4,6.7,4.2c3.3,3.8,2.8,5.9,2.8,5.9s0.3-6.2-1.4-7.4c-1.7-1.2-2.9-2.2-2.5-3
	c0.4-0.9,0.8-1.7,0.8-1.7S-149.1,261.3-151.7,261.3L-151.7,261.3z"/>
<path fill="#C95145" d="M-171.2,243.1c0,0-1-2.5-1.9-4.3c-0.2-0.4-0.6-0.8-1-0.9c-2-0.8-3.8-1-3.8-1s3.8-0.5,5.3,0.7s2.7,1,2.7,1
	S-171.9,239.9-171.2,243.1z"/>
<path fill="#C95145" d="M-171,254.1c0,0-1.3,5.9-7.5,4.5c-6.3-1.5-5.9-4-5.9-4s-0.5,4.9,6.9,5.2c0,0,3.9-1,5.5-0.8
	c1.6,0.2,3.6,1.1,3.6,1.1S-171.4,258.1-171,254.1z"/>
<path fill="#C95145" d="M-184.5,248.9c0.2-0.6,0.1-1.3-0.2-1.9c-0.8-1.6-2.9-5-7.1-5.7c-5.7-0.9-7.6-0.7-7.6-0.7s6.3,1,8.6,2.5
	s5.3,4,5.6,6.2C-185.2,250.8-184.8,249.8-184.5,248.9z"/>
<path fill="#C95145" d="M-122.9,319.3c0,0-8.2-2.6-11.4-9.7c-3.2-7.1-4.9-12.3-4.9-12.3s1.9,13.6,5.8,17.5c1.2,1.3,1.2,3.3-0.1,4.5
	l-0.1,0.1c-1.9,1.7-4,2.6-4,2.6S-126.5,319.4-122.9,319.3L-122.9,319.3z"/>
<path fill="#C95145" d="M-123.7,297.4c0,0-6.6-8.8-6.7-13.3c-0.1-4.4,4.1-6.7,4.1-6.7s-0.3,0.3-0.7,0.8c-1.4,1.8-1.7,4.2-1,6.4
	c0.4,1.2,1,2.8,1.5,4.4C-125.1,292.9-123.7,297.4-123.7,297.4L-123.7,297.4z"/>
<path fill="#C95145" d="M-136.2,273.6c0,0-5.4,0.9-6.1,3.1s0.1,5.5,0.1,5.5s-3.1-5.5-0.2-7.7C-139.5,272.1-136.2,273.6-136.2,273.6
	L-136.2,273.6z"/>
<path fill="#C95145" d="M-166.8,284.1l1.9-1c0,0-4.2-1.4-2.4-3.5c1.8-2.1-3.3-1.9-0.3,4.4C-167.5,284.1-167,284.1-166.8,284.1z"/>
<path fill="#C95145" d="M-188.1,233.9c0,0-10.9-2.1-11.5-6.9c-0.6-4.7-7.4-3.5-7.7,1.8c0,0-0.5-6.8,4.7-6.8s3.4,4.6,5.1,6
	C-195.8,229.4-197.8,230.1-188.1,233.9z"/>
<path fill="#C95145" d="M-139.8,216.3c0,0-3.6-0.8-5.1-1.3s-1-0.6-7.9-1c-6.9-0.4-21.4-1.5-21.4-1.5s-9.9,0.5-8.5,4s4.7,4.2,4.7,4.2
	s-5.6-3.5-2.2-5.4c3.4-1.9,8.7-1.9,11.4-1.7C-166.1,213.6-139.8,216.3-139.8,216.3z"/>
<path fill="#C95145" d="M-148.4,226.1c0,0,4.1-2.5,2.9-4s-12.6-0.1-12.6-0.1s9.2-0.1,10.2,0.9S-148.4,226.1-148.4,226.1
	L-148.4,226.1z"/>
<path fill="#C95145" d="M-151.6,230.9c0,0-5.4,2.7,4.3,8.2c0,0-2.4-1.1-4.5-1.6c-0.9-0.5-1.6-1.2-2.2-1.9c-1.3-1.5-0.6-3.9,1.3-4.5
	C-152.4,230.9-152,230.9-151.6,230.9L-151.6,230.9z"/>
<path fill="#C95145" d="M-149.3,279.9c0,0-4-5.9-8.2-5.1s-5.3,1.5-5.3,1.5s3.2-3.2,8.1-2.6C-149.8,274.4-149.3,279.9-149.3,279.9
	L-149.3,279.9z"/>
<path fill="#C95145" d="M-172,290.1c0,0-2.2-4.7-2-8c0-0.7,0-1.4-0.3-2c-1.4-3.6-4.2-5.7-6.2-7.1c0,0,8.9-0.1,8.9,5.3
	s-0.9,5-0.8,6.8C-172.2,286.8-172,290.1-172,290.1L-172,290.1z"/>
<path fill="#C95145" d="M-183.4,272.3c0,0-6.3-0.4-6.6,3.1s6.6,9.8,6.2,14.8c0,0,1.3-0.9-6.8-12.2
	C-198.7,266.6-183.4,272.3-183.4,272.3L-183.4,272.3z"/>
<path fill="#C95145" d="M-182.9,303.4c0,0-0.6,9.3-5.9,8.2c-5.3-1-6.6,3.2-6.6,3.2s1.4-5.3,5.8-4.8
	C-185.2,310.6-182.9,303.4-182.9,303.4L-182.9,303.4z"/>
<path fill="#C95145" d="M-192.8,320.8l-4.9,0.7c4-0.8,1.6-3.7,1.8-4.9C-195.9,316.6-195.3,319.1-192.8,320.8L-192.8,320.8z"/>
<path fill="#C95145" d="M-199.3,291.6c0,0,4.3,3.8,1.5,7.9C-197.7,299.4-196.2,297.6-199.3,291.6z"/>
<path fill="#C95145" d="M-202.3,310.8c1,1.4,2.8,3,5.1,2.3c0,0-4.2,4-6,0c-3.5-7.4,2.5-9.3,2.5-9.3s-1.1,1.5-1.9,3
	C-203.3,308.1-203.2,309.6-202.3,310.8L-202.3,310.8z"/>
<path fill="#F26F5B" d="M6.5,319.8c-0.4,0.3-0.8,0.5-1.2,0.7c-0.2,0.1-0.5,0.2-0.5,0.2c-5.4,1.8-11.3,2.1-16.9,0.9l-8.1-1.2
	c-1.5-0.2-2.9-0.8-4.1-1.7c-1.6-1.3-2.5-3-2.2-5c0.1-0.6,0-1.3-0.4-1.8l-4.6-6.9c-0.4-0.6-1.1-1-1.8-1.1l-23.2-2.3
	c-1.2-0.1-2.3,0-3.5,0.2l-6.2,1.4c-2.4,0.5-4.5,1.9-6,3.8l-0.1,0.1c-1.5,1.9-2.3,4.2-2.3,6.5c-0.1,3-2.8,5.3-5.8,4.8l-7.4-1.2
	c-2.3-0.4-4.6-0.4-6.9-0.1l-9.5,1.3c-0.6,0.1-4.2-0.5-4.8-1.8c-2.4-5.2-1.7-11.3,1.5-16.1l11.7-17c0.9-2.1,1.6-4.2,2.1-6.4L-87,248
	c2.4-10.3,6.3-20.1,11.8-29.1l4-4.9c0.3-0.5,3.9-1.4,6.5-0.4c2.2,0.8,4.5,1.1,6.9,0.9l11.2-0.6h0.9l9.6-1.2c0.5-0.1,1.1-0.2,1.8-0.1
	c3,0.1,5.8,1.3,7.9,3.3c2.5,2.3,3.7,5.5,3.7,8.9c0,1.7,0.4,3.4,1.2,4.9c1,1.7,2.2,3.7,2.7,4.6c0.3,0.6,0.4,1.5,0.5,2.6
	c0.7,7.8,4.1,14.4,6.9,21.7l5.4,18.8c0.1,0.2,0.1,0.4,0.2,0.6l6.4,8.4c0.1,0.2,0.6,1.2,1.1,2.3c1.1,2.5,2.9,5.4,3.5,8.2l1.9,7.5
	c1.5,4.1,1.9,8.5,1.1,12.8c-0.2,1-0.8,1.8-1.1,2.2C6.8,319.6,6.7,319.8,6.5,319.8L6.5,319.8z M-58,277.4c0.3-0.2,1.4,0.1,2.4,0.4
	c0.8,0.2,1.6,0.4,2.4,0.4l8.3,0.8c2.2,0.4,3.7-2,2.5-3.9l-0.1-5.2c-0.2-7.8-2.7-15.3-7.3-21.6c-0.3-2.3-3.4-3-4.6-1l-3.2,5.1
	c-0.2,0.3-0.3,0.6-0.4,0.9l-2.9,16.9C-61.4,272.9-60.3,275.8-58,277.4L-58,277.4z"/>
<path fill="#C95145" d="M-45.8,214.1c0,0-6.8,3.3-4.5,9.5C-50.3,223.6-58.5,215.3-45.8,214.1z"/>
<path fill="#C95145" d="M-42.8,225.4c0,0,8-2.6,11.3,7.4c0,0,2.1,4.4,5.6,3.6c0,0-7,1.9-8.1-3.7C-35.2,227.1-42.8,225.4-42.8,225.4z
	"/>
<path fill="#C95145" d="M-22.8,225.8c0,0,0,1.6,0.3,3.2c0.4,2.2,1.1,5-1.1,6.7c0,0,3.1-0.2,4-2.6l-1.6-2.8c-0.4-0.7-0.7-1.4-0.9-2.1
	L-22.8,225.8L-22.8,225.8z"/>
<path fill="#C95145" d="M-5.9,278.1c0,0-8.1-8-10.2,0.1s3.5,15.8,3.5,15.8s-11.5-9.8-4.7-19c0,0,3.6-3.4,6.2-3
	c2.6,0.4,2.5-2.7,2.5-2.7L-5.9,278.1L-5.9,278.1z"/>
<path fill="#C95145" d="M-8.4,302.6c0,0-2.1,3.3-13,5.2c-3.5,1.2-4.6,2.6-5.2,5.6c0,0-1.1-7.6,6.5-7.4
	C-12.5,306.4-8.4,302.6-8.4,302.6L-8.4,302.6z"/>
<path fill="#C95145" d="M-42.4,270.4c0,0,0.3,9.1-4.7,8.3c0,0,1.7,3.5,6.3,0.4s-2.7-8.1-0.2-10.3c0.9-0.6,3-0.7,3-0.7
	S-42.5,266.9-42.4,270.4L-42.4,270.4z"/>
<path fill="#C95145" d="M-31.6,270.8c0,0,4.6,4.9,3.8,12.3c-0.8,7.3-4.2,9.6-4.6,11.8c-0.4,2.2-1.1,5.7-1.1,5.7s1.1-3.8,5.5-11
	S-27.3,273.1-31.6,270.8L-31.6,270.8z"/>
<path fill="#C95145" d="M-33.4,303.9c0,0-0.6-0.9-0.2-2.6c0,0-1.6,2.2-10.6,1.4L-33.4,303.9L-33.4,303.9z"/>
<path fill="#C95145" d="M-56.6,301.6c0,0-2.2-0.2-4.8,0.4c-1.3,0.3-5.6-0.2-7.6-2.2s-1.7-5.5-1.3-7.7c0.9-4.4,3.9-5.1,3.9-5.1
	s-6,5.8-0.5,11C-61.4,303.3-59.5,299.6-56.6,301.6z"/>
<path fill="#C95145" d="M-45.5,284.8c0,0-0.8,7.2-8.9,3.2c0,0-3.7-1.8-6.7-1.5c0,0,5.6-0.9,8.9,0.8C-49,288.8-45.5,284.8-45.5,284.8
	z"/>
<path fill="#C95145" d="M-94.8,317.1c0,0,5.4-2.3,4.4-6.5s0.3-6.2,0.3-6.2s0,4.4,1.3,6.5c1.3,2-0.2,6.1-0.2,6.1
	S-93.1,316.9-94.8,317.1L-94.8,317.1z"/>
<path fill="#C95145" d="M-80.1,286.9c0,0-6.9,3-8.5,9.9C-88.6,296.8-86.4,291.4-80.1,286.9z"/>
<path fill="#C95145" d="M-95.9,283.6c0,0,5.2-4.9,5.7-7.2s4.8-4.7,6-4c1.3,0.7,3.2,1.1,3.5,3.1c0,0,1.3-4.5-3.6-5.5
	c-4.9-0.9-7.2,2.5-7.4,4.9c-0.2,2.4-2.8,4.7-2.8,4.7L-95.9,283.6L-95.9,283.6z"/>
<path fill="#C95145" d="M-64.8,213.8c0,0,4.5,1.8,5.1,7c0.7,5.2-4,9.1-4.8,11.9c-0.8,2.8-1.3,9.8-0.4,12.5c0,0,0.5-8.6,3.3-13.5
	c2.8-4.9,8.1-13.8,5-15.1c-3-1.3-4.9-1.9-4.9-1.9S-63.9,214.1-64.8,213.8L-64.8,213.8z"/>
<path fill="#C95145" d="M-82,232.4c0,0-2.6,12.8,0.8,16c3.5,3.2,6.4,3,6.4,3s-8.4,1.2-9.6-3.2c-1.2-4.4-2.9,0.9-2.9,0.9
	S-84.3,237.1-82,232.4L-82,232.4z"/>
<path fill="#C95145" d="M-58,277.4c0,0,2.5,5.7-5.1,6.1c-7.6,0.3-11.1-7-11.1-7s1.2,9.5,11.7,8c10.4-1.5,6-5.2,7.4-5.6
	c1.4-0.3,3.3-0.6,3.3-0.6l-5.4-1C-57.9,277.3-58,277.4-58,277.4z"/>
<path fill="#C95145" d="M-73.6,256.6c0,0-3.1,7.9-2.3,11.9c0.8,4-3.1,0.5-3.1-1.9C-79,264.1-78.7,259.8-73.6,256.6z"/>
<path fill="#C95145" d="M-58,253.4l-0.2-0.2c-0.7-0.9-3.7-4.1-7.6-2.8c0,0,3.4-2.2,6.2-0.8c2.8,1.4,4.1-0.7,4.1-0.7"/>
<path fill="#C95145" d="M-49.8,248.4c0,0,6.6,2.9,10.4-4.5c3.8-7.4-5.4-12.7-5.4-12.7s7.3,2.1,7.9,8.6c0.3,3.3-1.5,6.4-4.3,8.1
	c-0.6,0.4-1.2,0.8-1.7,1.3c-1.4,1.3-1.9,3.3-1.4,5.1c0.9,3.1,0.3,6.2,0.3,6.2s-2.2-5.9-4.3-9.7C-48.8,249.8-49.2,249.1-49.8,248.4z"
	/>
<path fill="#C95145" d="M-16.7,244.9c0,0,1.1,3.5-2.6,4.9c-3.7,1.3-6.1,2.1-6.1,4.7c-0.1,2.7,1.7,4,1.7,4s-3-5.4,1.1-6.1
	s5.6-1.1,6.5-2c0.4-0.6,1.5,0.3,1.5,0.3L-16.7,244.9z"/>
<path fill="#C95145" d="M-10.6,261.6c0,0-0.4-1.1-1.9-1.8c-1.3-0.6-3.6-0.8-5-0.7c0,0,3.5-0.5,4.2,0s1.9-0.2,1.9-0.2L-10.6,261.6z"
	/>
<path fill="#C95145" d="M-33.6,265.1c0,0,6.4,7,13.2,6.8C-20.4,271.9-29.7,273.1-33.6,265.1z"/>
<path fill="#C95145" d="M-17.8,240.8c0,0-5-2.4-8.3-1.6c0,0,4.7-1.7,6.2-0.9s1.7-0.1,1.7-0.1L-17.8,240.8L-17.8,240.8z"/>
<path fill="#C95145" d="M-34.2,245.6c0,0-4.3,8.7-1.9,13.3C-36,258.9-40.3,253.1-34.2,245.6z"/>
<path fill="#F26F5B" d="M17.1,313.8l-1-10.7c-0.7-7.4-0.8-14.8-0.3-22.2l1.8-27.1c0.5-7.4,0.3-14.8-0.5-22.2l-1-8.5
	c-0.6-5.1,3.1-9.7,8.1-10.2l9.2-1c1.3-0.2,2.7,0,4,0.4l4.9,1.6c3.5,1.2,5.9,4.3,6.3,7.9l0.8,8.6c0.1,0.5,0.1,1.1,0,1.6l-1.2,15.4
	c-0.8,10.4-0.6,21,0.7,31.3l3.3,25.9c0.1,0.9,0.1,1.9-0.1,2.8l-1,5.3c-0.9,5.3-6.1,8.6-11.3,7.3l-0.9-0.2c-1.7-0.4-3.5-0.3-5.2,0.2
	l-4.6,1.6c-1.6,0.5-3.4,0.6-5.1,0.2C20.4,321.1,17.5,317.8,17.1,313.8L17.1,313.8z"/>
<path fill="#C95145" d="M39.1,319.9c0,0-11.1-2.2-12.5-15.5c-1.3-13.4,3-19.3,3-19.3s-8.8,9.1-4.5,22.3s-0.9,14.5-0.9,14.5
	s2.9,1.3,7.5-1.2C31.7,320.8,34.5,319.9,39.1,319.9z"/>
<path fill="#C95145" d="M36.4,249.1c0,0,7.1,14.7,1.2,24.6C37.6,273.6,49.7,261.9,36.4,249.1z"/>
<path fill="#C95145" d="M17.8,250.8c0,0,0.6-3.1,3.1-4.5c2.3-1.3,6.3-0.9,8.9-0.1c0,0-7-2.8-9.3-1.8c-2.4,1-2.6-2.9-2.6-2.9
	L17.8,250.8z"/>
<path fill="#C95145" d="M16.2,223.1c0,0,0.9,8.7,6,9.9s8.8-2.2,11.4,0.2c2.6,2.3,0.8,3.7,0.8,3.7s0.9-2.8-2.3-2.9
	c-3.2-0.2-10.8,4.5-12.8,0.8C17.2,231.1,16.2,223.1,16.2,223.1z"/>
<path fill="#C95145" d="M33.6,241.6c0,0,6.2,8.2,13.7-1.7c0,0,1.5-2.3,2.2-6.3c0,0-1,12.3-1.1,13.1
	C48.3,247.6,37.4,249.9,33.6,241.6L33.6,241.6z"/>
<path fill="#C95145" d="M50,287.1c0,0-3-8.2-5.3-9.7c0,0,3.9,3.8,4.1,0.5L50,287.1L50,287.1z"/>
<path fill="#F26F5B" d="M130.5,315.8c-2.2-1.7-3.7-4.3-5.4-6.6c-1.4-1.9-2.8-3.9-4.2-5.8l-16.6-23.1c-0.1-0.1-0.2-0.4-0.3-0.6
	c-0.9-2.2-4.2-1.3-3.8,1.1c0.9,4.8,0.5,9.8,0.5,14.7c0,7.2-1.5,13.9-4.2,20.6c-0.6,1.5-1.5,3-2.8,4c-1.7,1.2-4,1.3-6,1.6
	c-4.4,0.7-8.9,0.8-13.4,0.4c-2.2-0.2-4.3-0.5-6.4-0.9c-1.3-0.3-2.8-0.9-3.5-2.1c-0.4-0.7-0.4-1.5-0.4-2.3c0-3-0.4-6.1,0.1-9
	c0.4-2.9,1.3-5.7,2.7-8.2v-0.1c0.4-4.5,0.9-9,1.1-13.5c0.1-2.3,0.1-4.7,0.1-7c-0.1-2.3-0.1-4.5-1.1-6.5c-2-4.1-3-9-4-13.5
	c-0.9-4.4-1.6-8.8-2-13.2c-0.3-3.7-0.5-7.4,0-11.1c0.4-2.8,0.8-5.5,1.2-8.3c1.2-8.4,8.4-14.6,16.8-14.6H79l14.2,0.9
	c3.7,0.2,7.2,1.9,9.7,4.6c1.8,2,3.7,3.9,5.5,5.9c3,3.2,6.1,6.3,8.4,10c0.8,1.3,1.5,2.6,2.1,4s0.9,2.8,1.8,4c2.1,2.9,6.7,9.3,6.7,9.3
	c2.3,3.6,4.1,7.5,5.5,11.6l2.5,7.4c0.6,1.8,3.2,1.8,3.8,0c2.3-7,2.9-14.5,1.8-21.8l-3.3-22c-0.5-3.6,0.3-7.2,2.2-10.3
	c0.3-0.4,0.7-0.7,1.2-0.9c6.5-1.7,13.6-2.2,20.2-0.9c1.3,0.2,2.6,0.6,3.7,1.3c3.8,2.7,3.8,8.4,4,12.5l0.3,9
	c0.3,8.6,0.9,17.3,0.7,25.9c-0.2,8.6-0.5,17.3-0.8,25.9c-0.1,3.8-0.3,7.5-0.3,11.3c0.1,1.6,0,3.2-0.3,4.7l-1.3,8.7
	c-0.3,1.7-1.3,3.2-2.8,4c-4.1,2.2-8.8,3.2-13.5,2.9l-8.6-0.7c-3.5-0.3-7.2-0.7-10.4-2.3C131.6,316.6,131,316.1,130.5,315.8
	L130.5,315.8z"/>
<path fill="#C95145" d="M128.4,313.6c0,0-7.8-12.2-4.1-15.6c3.6-3.3,8-6.9,13.4-4.4s6.6,3.1,7.7,2.7c1-0.4,1.8-2.4,1.8-2.4
	s-3.8,2.3-8.3-1.6c-4.5-3.8-17.2-3.1-17.6,0.6c-0.3,3.7,0.5,11.3,0.5,11.3L128.4,313.6z"/>
<path fill="#C95145" d="M148.7,285.1c0,0,2.4-7.9,1-10.8c-1.4-2.8-4.1-16.5,5.7-16.3s11.6,4.7,11.6,4.7s-1.6-7.9-10.4-7.7
	c-8.7,0.2-13,5.5-12.2,10s4.1,8.7,3.9,13S148.7,285.1,148.7,285.1L148.7,285.1z"/>
<path fill="#C95145" d="M100.8,284.1c0,0-0.6-3.8-2.5-4.5s-6.5,0-7.6,1.9s-2.1,5.6-2.1,5.6s-0.5-8,6.2-9.9s5.6,3,5.6,3L100.8,284.1z
	"/>
<path fill="#C95145" d="M85.5,307.4c0,0,0.2,3.4-2.7,3.6s-8.2-0.8-8.7-2.9c0,0,2.7,1,5,1.3C81.4,309.8,85.5,307.4,85.5,307.4
	L85.5,307.4z"/>
<path fill="#C95145" d="M73.4,303.1c0,0-1.2-4.4-3.1-4.4s-3.5,1-3.5,1s2.5-2.7,3.9-2.5s4,2.6,3.9,4.3c-0.1,1.8-1.2,2.2-1.1,3.3
	L73.4,303.1L73.4,303.1z"/>
<path fill="#C95145" d="M92.9,234.4c0,0-7.2-6.8-12-3.9s-2.7,10.9-2.7,10.9s1.1-5.9,2-6.6C81.1,234.1,85.9,230.9,92.9,234.4z"/>
<path fill="#C95145" d="M83.4,257.6c0,0,4.3,3.6,4.8,6.8s-3.4,8.8-8.2,9.7c-4.8,0.9-12.3-0.2-12.3-0.2s8.9,7.6,18.6-1.4
	s4.3-12.5,2-14.3C86,256.4,83.4,257.6,83.4,257.6z"/>
<path fill="#C95145" d="M94.3,234.8c0,0,10.6,8.7,16.1,5.8c5.4-2.9,7.2-5.6,7.2-6.8c0,0,0.5,1,1.3,2.4c0.2,0.4-0.8,1.6-1.1,1.9
	c-1.2,1.4-2.8,2.4-4.4,3.5c-1.7,1.2-3.1,2.6-4.6,4.2c-0.4,0.4-0.9,1.1-1.4,1.3c1-1.9,2.1-4.5,0.9-4.1
	C95.4,246.1,94.3,234.8,94.3,234.8z"/>
<path fill="#C95145" d="M169.2,224.1c0,0-2.2,7.9-4.6,11.2c-3,4-6.5,3.8-9.5,5.1c-5.3,2.3-7,5.8-7.3,7.4s-0.8,4.4-0.8,4.4
	s2.7-8.7,11-10.4s7.3-5.5,9.1-5.8s2.6,2.7,2.6,2.7L169.2,224.1z"/>
<path fill="#C95145" d="M135.7,269.4c0,0,1.7,4.9,0.4,8.5c-1.3,3.5-6.1,8.4-10.8,6.7c-4.7-1.7-7.1-6.9-5.8-9.5c0,0-4.8,9.9,5.6,11.2
	s13.8-1.9,14.5-4.1s-0.4-6.1-0.6-8s0.4-4.8,0.4-4.8S137.7,271.8,135.7,269.4L135.7,269.4z"/>
<path fill="#C95145" d="M119.6,266.4c0,0-2.4-8.9-7.6-9.1c-5.2-0.2-5.4-6.7-5.4-6.7s-0.6,8.9,4.5,9.1
	C116.1,259.9,119.6,266.4,119.6,266.4z"/>
</svg>
