<svg xmlns="http://www.w3.org/2000/svg" id="Layer_1" viewBox="0 0 137.2 239.2">
  <style>
    .st0{fill:#B17F60;} .st1{fill:#344B62;} .st2{fill:none;} .st3{fill:#FCD4BB;}
  </style>
  <path d="M134.6 8.1H10.7c-1.4 0-2.6 1.2-2.6 2.6v90.2c0 1.4 1.2 2.6 2.6 2.6h123.8c1.4 0 2.6-1.2 2.6-2.6V10.7c.1-1.5-1.1-2.6-2.5-2.6z" class="st0"/>
  <path d="M124.5 0H2.6C1.2 0 0 1.2 0 2.6v90.2c0 1.4 1.2 2.6 2.6 2.6h121.9c1.4 0 2.6-1.2 2.6-2.6V2.6c0-1.4-1.1-2.6-2.6-2.6z" class="st1"/>
  <path d="M10.1 13.8h108.2v97.9H10.1z" class="st2"/>
  <path d="M12.3 19.4V23h-1v-8.6h2.3c1.1 0 1.8.2 2.3.6.5.4.8 1 .8 1.8 0 1.1-.6 1.9-1.7 2.3l2.3 3.8h-1.2L14 19.4h-1.7zm0-.9h1.4c.7 0 1.2-.1 1.5-.4s.5-.7.5-1.3c0-.6-.2-1-.5-1.2s-.9-.4-1.6-.4h-1.3v3.3z" class="st3"/>
  <path d="M18.5 14.8c0-.2.1-.4.2-.5s.2-.2.4-.2.3.1.4.2.2.3.2.5-.1.4-.2.5-.2.2-.4.2-.3-.1-.4-.2-.2-.3-.2-.5zm1 8.1h-1v-6.4h1v6.4z" class="st3"/>
  <path d="M26.8 16.5v.6l-1.2.1c.1.1.2.3.3.5s.1.5.1.7c0 .6-.2 1.1-.6 1.5s-1 .6-1.8.6h-.5c-.4.2-.6.5-.6.8 0 .2.1.3.2.4s.4.1.7.1h1.1c.7 0 1.2.1 1.6.4s.6.7.6 1.3c0 .7-.3 1.3-.9 1.6s-1.4.6-2.5.6c-.8 0-1.5-.2-1.9-.5s-.7-.8-.7-1.3c0-.4.1-.7.4-1s.6-.5 1.1-.6c-.2-.1-.3-.2-.4-.3s-.2-.3-.2-.5.1-.4.2-.6.3-.3.6-.5c-.3-.1-.6-.4-.8-.7s-.3-.7-.3-1.1c0-.7.2-1.2.6-1.6s1-.6 1.8-.6c.3 0 .6 0 .9.1h2.2zM21.7 24c0 .3.1.6.4.8s.7.3 1.3.3c.8 0 1.4-.1 1.8-.4s.6-.6.6-1c0-.3-.1-.6-.3-.7s-.6-.2-1.2-.2h-1.2c-.4 0-.8.1-1 .3s-.4.5-.4.9zm.5-5.4c0 .4.1.8.4 1s.6.3 1.1.3c.9 0 1.4-.5 1.4-1.4 0-1-.5-1.4-1.4-1.4-.5 0-.8.1-1.1.4s-.4.6-.4 1.1z" class="st3"/>
  <path d="M32.5 22.9v-4.2c0-.5-.1-.9-.4-1.2s-.6-.4-1.1-.4c-.7 0-1.2.2-1.5.6s-.5 1-.5 1.8v3.4h-1v-9.1h1v3.6h.1c.2-.3.5-.6.8-.7s.8-.3 1.2-.3c.8 0 1.4.2 1.8.6s.6 1 .6 1.8V23h-1z" class="st3"/>
  <path d="M37.6 22.3h.5s.3-.1.4-.1v.7c-.1 0-.3.1-.5.1h-.6c-1.2 0-1.9-.7-1.9-2v-3.8h-.9v-.5l.9-.4.5-1.3h.6v1.5h1.9v.8h-1.9v3.8c0 .4.1.7.3.9s.4.3.7.3z" class="st3"/>
  <path d="M45.9 16.4c.8 0 1.5.3 2 .9s.7 1.4.7 2.4-.2 1.9-.7 2.5-1.1.9-2 .9c-.4 0-.8-.1-1.1-.2s-.6-.4-.9-.7h-.1l-.2.8h-.7v-9.1h1v3.4c.4-.6 1.1-.9 2-.9zm-.2.8c-.7 0-1.1.2-1.4.6s-.4 1-.4 1.9.2 1.5.5 1.9.8.6 1.4.6c.6 0 1-.2 1.3-.7s.4-1.1.4-1.9c0-.8-.1-1.5-.4-1.9s-.8-.5-1.4-.5z" class="st3"/>
  <path d="M53.1 16.4c.3 0 .5 0 .8.1l-.1.9c-.3-.1-.5-.1-.7-.1-.5 0-1 .2-1.3.6s-.6.9-.6 1.6v3.4h-1v-6.4h.8l.1 1.2c.2-.4.5-.7.9-1s.7-.3 1.1-.3z" class="st3"/>
  <path d="M59.1 22.9l-.2-.9c-.3.4-.6.7-1 .8s-.7.2-1.2.2c-.6 0-1.1-.2-1.5-.5s-.5-.8-.5-1.4c0-1.3 1-2 3.1-2h1.1v-.4c0-.5-.1-.9-.3-1.1s-.6-.4-1-.4c-.5 0-1.1.2-1.8.5l-.4-.7c.3-.2.7-.3 1-.4s.8-.1 1.1-.1c.8 0 1.3.2 1.7.5s.6.9.6 1.6V23h-.7zm-2.2-.6c.6 0 1.1-.2 1.4-.5s.5-.8.5-1.4v-.6h-1c-.8 0-1.3.1-1.7.4s-.5.5-.5 1c0 .4.1.6.3.8s.6.3 1 .3z" class="st3"/>
  <path d="M61.7 14.8c0-.2.1-.4.2-.5s.2-.2.4-.2.3.1.4.2.2.3.2.5-.1.4-.2.5-.2.2-.4.2-.3-.1-.4-.2-.2-.3-.2-.5zm1.1 8.1h-1v-6.4h1v6.4z" class="st3"/>
  <path d="M69.2 22.9v-4.2c0-.5-.1-.9-.4-1.2s-.6-.4-1.1-.4c-.7 0-1.2.2-1.5.5s-.5 1-.5 1.8v3.4h-1v-6.4h.8l.2.9c.2-.3.5-.6.8-.7s.8-.3 1.2-.3c.8 0 1.4.2 1.7.6s.6 1 .6 1.8v4.2h-.8z" class="st3"/>
  <path d="M74.9 23.1c-.9 0-1.7-.3-2.2-.9s-.8-1.4-.8-2.4.3-1.9.8-2.5 1.2-.9 2.1-.9c.8 0 1.4.3 1.9.8s.7 1.2.7 2.1v.6H73c0 .8.2 1.3.6 1.7s.9.6 1.5.6c.7 0 1.4-.1 2.1-.4v.9c-.3.1-.7.3-1 .3s-.9.1-1.3.1zm-.3-5.9c-.5 0-.9.2-1.2.5s-.5.8-.5 1.4h3.4c0-.6-.1-1.1-.4-1.4s-.8-.5-1.3-.5z" class="st3"/>
  <path d="M83.3 22.1c-.5.7-1.2 1-2.1 1-.8 0-1.5-.3-2-.9s-.7-1.4-.7-2.4.2-1.9.7-2.5 1.1-.9 2-.9c.9 0 1.5.3 2 .9h.1v-3.6h1v9.1h-.8l-.2-.7zm-2 .1c.7 0 1.1-.2 1.4-.5s.4-.9.4-1.7v-.2c0-.9-.2-1.6-.5-1.9s-.8-.6-1.5-.6c-.6 0-1 .2-1.3.7s-.5 1.1-.5 1.9c0 .8.2 1.4.5 1.9s1 .4 1.5.4z" class="st3"/>
  <path d="M14.1 37.5c-.4 0-.8-.1-1.1-.2s-.6-.4-.9-.7H12c0 .4.1.7.1 1.1v2.6h-1V31h.8l.1.9c.2-.4.5-.6.9-.8s.7-.2 1.1-.2c.9 0 1.5.3 2 .9.5.6.7 1.4.7 2.4 0 1.1-.2 1.9-.7 2.5-.4.5-1.1.8-1.9.8zm-.1-5.9c-.7 0-1.1.2-1.4.5-.3.4-.4.9-.5 1.7v.2c0 .9.2 1.5.5 1.9s.8.6 1.4.6c.6 0 1-.2 1.3-.7s.5-1.1.5-1.9c0-.8-.2-1.4-.5-1.8-.3-.3-.8-.5-1.3-.5z" class="st3"/>
  <path d="M21.2 37.5c-.9 0-1.7-.3-2.2-.9s-.8-1.4-.8-2.4.3-1.9.8-2.5c.5-.6 1.2-.9 2.1-.9.8 0 1.4.3 1.9.8s.7 1.2.7 2.1v.6h-4.4c0 .8.2 1.3.6 1.7s.9.6 1.5.6c.7 0 1.4-.1 2.1-.4v.8c-.3.1-.7.3-1 .3s-.9.2-1.3.2zm-.3-5.9c-.5 0-.9.2-1.2.5-.3.3-.5.8-.5 1.4h3.4c0-.6-.1-1.1-.4-1.4-.4-.3-.8-.5-1.3-.5z" class="st3"/>
  <path d="M30.7 34.1c0 1-.3 1.9-.8 2.5s-1.3.9-2.2.9c-.6 0-1.1-.1-1.5-.4s-.8-.7-1-1.2-.4-1.1-.4-1.8c0-1 .3-1.9.8-2.4.5-.6 1.2-.9 2.2-.9.9 0 1.6.3 2.1.9.6.6.8 1.4.8 2.4zm-4.8 0c0 .8.2 1.4.5 1.9s.8.6 1.4.6 1.1-.2 1.5-.6.5-1.1.5-1.9c0-.8-.2-1.4-.5-1.9-.3-.4-.8-.6-1.5-.6-.6 0-1.1.2-1.4.6-.4.5-.5 1.1-.5 1.9z" class="st3"/>
  <path d="M35.4 37.5c-.4 0-.8-.1-1.1-.2s-.6-.4-.9-.7h-.1c0 .4.1.7.1 1.1v2.6h-1V31h.8l.1.9c.2-.4.5-.6.9-.8s.7-.2 1.1-.2c.9 0 1.5.3 2 .9.5.6.7 1.4.7 2.4 0 1.1-.2 1.9-.7 2.5s-1 .8-1.9.8zm-.1-5.9c-.7 0-1.1.2-1.4.5-.3.4-.4.9-.5 1.7v.2c0 .9.2 1.5.5 1.9s.8.6 1.4.6c.6 0 1-.2 1.3-.7s.5-1.1.5-1.9c0-.8-.2-1.4-.5-1.8-.3-.3-.7-.5-1.3-.5z" class="st3"/>
  <path d="M40.8 37.3h-1v-9.1h1v9.1z" class="st3"/>
  <path d="M45.6 37.5c-.9 0-1.7-.3-2.2-.9s-.8-1.4-.8-2.4.3-1.9.8-2.5c.5-.6 1.2-.9 2.1-.9.8 0 1.4.3 1.9.8s.7 1.2.7 2.1v.6h-4.4c0 .8.2 1.3.6 1.7s.9.6 1.5.6c.7 0 1.4-.1 2.1-.4v.8c-.3.1-.7.3-1 .3s-.9.2-1.3.2zm-.3-5.9c-.5 0-.9.2-1.2.5-.3.3-.5.8-.5 1.4H47c0-.6-.1-1.1-.4-1.4-.4-.3-.8-.5-1.3-.5z" class="st3"/>
  <path d="M56.6 37.3l-.2-.9c-.3.4-.6.7-1 .8s-.7.2-1.2.2c-.6 0-1.1-.2-1.5-.5s-.5-.8-.5-1.4c0-1.3 1-2 3.1-2h1.1v-.4c0-.5-.1-.9-.3-1.1-.2-.2-.6-.4-1-.4-.5 0-1.1.2-1.8.5l-.3-.7c.3-.2.7-.3 1-.4s.8-.1 1.1-.1c.8 0 1.3.2 1.7.5s.6.9.6 1.6v4.4h-.8zm-2.2-.6c.6 0 1.1-.2 1.4-.5s.5-.8.5-1.4v-.6h-1c-.8 0-1.3.1-1.7.4s-.5.5-.5 1c0 .4.1.6.3.8s.7.3 1 .3z" class="st3"/>
  <path d="M62.3 30.8c.3 0 .5 0 .8.1l-.1.9c-.3-.1-.5-.1-.7-.1-.5 0-1 .2-1.3.6-.4.4-.6.9-.6 1.6v3.4h-1v-6.4h.8l.1 1.2c.2-.4.5-.7.9-1s.7-.3 1.1-.3z" class="st3"/>
  <path d="M67 37.5c-.9 0-1.7-.3-2.2-.9s-.8-1.4-.8-2.4.3-1.9.8-2.5c.5-.6 1.2-.9 2.1-.9.8 0 1.4.3 1.9.8s.7 1.2.7 2.1v.6h-4.4c0 .8.2 1.3.6 1.7s.9.6 1.5.6c.7 0 1.4-.1 2.1-.4v.8c-.3.1-.7.3-1 .3s-.9.2-1.3.2zm-.3-5.9c-.5 0-.9.2-1.2.5-.3.3-.5.8-.5 1.4h3.4c0-.6-.1-1.1-.4-1.4-.4-.3-.8-.5-1.3-.5z" class="st3"/>
  <path d="M76.2 36.7h.5s.3-.1.4-.1v.7c-.1.1-.3.1-.5.1H76c-1.2 0-1.9-.7-1.9-2v-3.8h-.9v-.5l.9-.4.4-1.4h.6v1.5H77v.8h-1.9v3.8c0 .4.1.7.3.9s.5.4.8.4z" class="st3"/>
  <path d="M77.3 30.9h1l1.4 3.7c.3.8.5 1.4.6 1.8.1-.2.2-.5.3-1s.7-2 1.6-4.5h1l-2.8 7.3c-.3.7-.6 1.2-1 1.5s-.8.5-1.3.5c-.3 0-.6 0-.9-.1v-.8c.2 0 .5.1.7.1.7 0 1.1-.4 1.4-1.1l.4-.9-2.4-6.5z" class="st3"/>
  <path d="M87.4 37.5c-.4 0-.8-.1-1.1-.2s-.6-.4-.9-.7h-.1c0 .4.1.7.1 1.1v2.6h-1V31h.8l.1.9c.2-.4.5-.6.9-.8s.7-.2 1.1-.2c.9 0 1.5.3 2 .9.5.6.7 1.4.7 2.4 0 1.1-.2 1.9-.7 2.5s-1.1.8-1.9.8zm-.2-5.9c-.7 0-1.1.2-1.4.5-.3.4-.4.9-.5 1.7v.2c0 .9.2 1.5.5 1.9s.8.6 1.4.6c.6 0 1-.2 1.3-.7s.5-1.1.5-1.9c0-.8-.2-1.4-.5-1.8-.2-.3-.7-.5-1.3-.5z" class="st3"/>
  <path d="M91.7 29.2c0-.2.1-.4.2-.5s.2-.2.4-.2.3.1.4.2.2.3.2.5-.1.4-.2.5-.2.2-.4.2-.3-.1-.4-.2-.2-.3-.2-.5zm1 8.1h-1v-6.4h1v6.4z" class="st3"/>
  <path d="M97.3 37.5c-.9 0-1.6-.3-2.2-.9s-.8-1.4-.8-2.4c0-1.1.3-1.9.8-2.5.5-.6 1.3-.9 2.2-.9.3 0 .6 0 .9.1s.6.1.7.2l-.1.9c-.2-.1-.4-.2-.7-.2s-.5-.1-.7-.1c-1.3 0-2 .8-2 2.5 0 .8.2 1.4.5 1.8s.8.6 1.4.6c.5 0 1.1-.1 1.6-.3v.9c-.4.1-.9.3-1.6.3z" class="st3"/>
  <path d="M104.4 37.3l-.2-.9c-.3.4-.6.7-1 .8s-.7.2-1.2.2c-.6 0-1.1-.2-1.5-.5s-.5-.8-.5-1.4c0-1.3 1-2 3.1-2h1.1v-.4c0-.5-.1-.9-.3-1.1-.2-.2-.6-.4-1-.4-.5 0-1.1.2-1.8.5l-.3-.7c.3-.2.7-.3 1-.4s.8-.1 1.1-.1c.8 0 1.3.2 1.7.5s.6.9.6 1.6v4.4h-.8zm-2.2-.6c.6 0 1.1-.2 1.4-.5s.5-.8.5-1.4v-.6h-1c-.8 0-1.3.1-1.7.4s-.5.5-.5 1c0 .4.1.6.3.8s.7.3 1 .3z" class="st3"/>
  <path d="M108.1 37.3h-1v-9.1h1v9.1z" class="st3"/>
  <path d="M111.2 37.3h-1v-9.1h1v9.1z" class="st3"/>
  <path d="M112.2 30.9h1l1.4 3.7c.3.8.5 1.4.6 1.8.1-.2.2-.5.3-1s.7-2 1.6-4.5h1l-2.8 7.3c-.3.7-.6 1.2-1 1.5s-.8.5-1.3.5c-.3 0-.6 0-.9-.1v-.8c.2 0 .5.1.7.1.7 0 1.1-.4 1.4-1.1l.4-.9-2.4-6.5z" class="st3"/>
  <path d="M14.1 45.2c.8 0 1.5.3 2 .9.5.6.7 1.4.7 2.4s-.2 1.9-.7 2.5c-.5.6-1.1.9-2 .9-.4 0-.8-.1-1.1-.2s-.6-.4-.9-.7H12l-.2.8h-.7v-9.1h1v3.5c.4-.7 1.1-1 2-1zm-.1.8c-.7 0-1.1.2-1.4.6s-.4 1-.4 1.9.2 1.5.5 1.9.6.6 1.3.6c.6 0 1-.2 1.3-.7s.4-1.1.4-1.9c0-.8-.1-1.5-.4-1.9s-.7-.5-1.3-.5z" class="st3"/>
  <path d="M21.2 51.9c-.9 0-1.7-.3-2.2-.9s-.8-1.4-.8-2.4.3-1.9.8-2.5 1.2-.9 2.1-.9c.8 0 1.4.3 1.9.8s.7 1.2.7 2.1v.6h-4.4c0 .8.2 1.3.6 1.7s.9.6 1.5.6c.7 0 1.4-.1 2.1-.4v.9c-.3.1-.7.3-1 .3s-.9.1-1.3.1zm-.3-5.9c-.5 0-.9.2-1.2.5s-.5.8-.5 1.4h3.4c0-.6-.1-1.1-.4-1.4s-.8-.5-1.3-.5z" class="st3"/>
  <path d="M27.3 51.1h.5s.3-.1.4-.1v.7c-.1.1-.3.1-.5.1h-.6c-1.2 0-1.9-.7-1.9-2V46h-.9v-.5l.9-.4.4-1.4h.6v1.5h1.9v.8h-1.9v3.8c0 .4.1.7.3.9s.5.4.8.4z" class="st3"/>
  <path d="M31.5 51.1h.5s.3-.1.4-.1v.7c-.1.1-.3.1-.5.1h-.6c-1.2 0-1.9-.7-1.9-2V46h-.9v-.5l.9-.4.4-1.4h.6v1.5h1.9v.8h-1.9v3.8c0 .4.1.7.3.9s.5.4.8.4z" class="st3"/>
  <path d="M36.4 51.9c-.9 0-1.7-.3-2.2-.9s-.8-1.4-.8-2.4.3-1.9.8-2.5 1.2-.9 2.1-.9c.8 0 1.4.3 1.9.8s.7 1.2.7 2.1v.6h-4.4c0 .8.2 1.3.6 1.7s.9.6 1.5.6c.7 0 1.4-.1 2.1-.4v.9c-.3.1-.7.3-1 .3s-.9.1-1.3.1zm-.3-5.9c-.5 0-.9.2-1.2.5s-.5.8-.5 1.4h3.4c0-.6-.1-1.1-.4-1.4s-.8-.5-1.3-.5z" class="st3"/>
  <path d="M43.3 45.2c.3 0 .5 0 .8.1l-.1.9c-.3-.1-.5-.1-.7-.1-.5 0-1 .2-1.3.6s-.6.9-.6 1.6v3.4h-1v-6.4h.8l.1 1.2c.2-.4.5-.7.9-1s.7-.3 1.1-.3z" class="st3"/>
  <path d="M52.4 51.7l-.2-.9c-.3.4-.6.7-1 .8s-.7.2-1.2.2c-.6 0-1.1-.2-1.5-.5s-.5-.8-.5-1.4c0-1.3 1-2 3.1-2h1.1v-.4c0-.5-.1-.9-.3-1.1s-.6-.4-1-.4c-.5 0-1.1.2-1.8.5l-.3-.7c.3-.2.7-.3 1-.4s.8-.1 1.1-.1c.8 0 1.3.2 1.7.5s.6.9.6 1.6v4.4h-.8zm-2.2-.6c.6 0 1.1-.2 1.4-.5s.5-.8.5-1.4v-.6h-1c-.8 0-1.3.1-1.7.4s-.4.5-.4 1c0 .4.1.6.3.8s.5.3.9.3z" class="st3"/>
  <path d="M57.2 51.1h.5s.3-.1.4-.1v.7c-.1.1-.3.1-.5.1H57c-1.2 0-1.9-.7-1.9-2V46h-.9v-.5l.9-.4.4-1.4h.6v1.5H58v.8h-1.9v3.8c0 .4.1.7.3.9s.5.4.8.4z" class="st3"/>
  <path d="M14 59.6c.3 0 .5 0 .8.1l-.1.9c-.3-.1-.5-.1-.7-.1-.5 0-1 .2-1.3.6s-.6.9-.6 1.6v3.4h-1v-6.4h.8l.1 1.2c.2-.4.5-.7.9-1s.7-.3 1.1-.3z" class="st3"/>
  <path d="M18.7 66.3c-.9 0-1.7-.3-2.2-.9-.5-.6-.8-1.4-.8-2.4s.3-1.9.8-2.5c.5-.6 1.2-.9 2.1-.9.8 0 1.4.3 1.9.8s.7 1.2.7 2.1v.6h-4.4c0 .8.2 1.3.6 1.7s.9.6 1.5.6c.7 0 1.4-.1 2.1-.4v.9c-.3.1-.7.3-1 .3s-.8.1-1.3.1zm-.2-5.9c-.5 0-.9.2-1.2.5s-.5.8-.5 1.4H20c0-.6-.1-1.1-.4-1.4s-.6-.5-1.1-.5z" class="st3"/>
  <path d="M25.3 66.3c-.9 0-1.6-.3-2.2-.9s-.7-1.4-.7-2.4c0-1.1.3-1.9.8-2.5s1.3-.9 2.2-.9c.3 0 .6 0 .9.1s.6.1.7.2l-.3.8c-.2-.1-.4-.2-.7-.2s-.5-.1-.7-.1c-1.3 0-2 .8-2 2.5 0 .8.2 1.4.5 1.8s.8.6 1.4.6c.5 0 1.1-.1 1.6-.3v.9c-.3.2-.8.4-1.5.4z" class="st3"/>
  <path d="M34 62.9c0 1-.3 1.9-.8 2.5s-1.2.9-2.2.9c-.6 0-1.1-.1-1.5-.4s-.8-.7-1-1.2-.4-1.1-.4-1.8c0-1 .3-1.9.8-2.4s1.2-.9 2.2-.9c.9 0 1.6.3 2.1.9s.8 1.4.8 2.4zm-4.9 0c0 .8.2 1.4.5 1.9s.8.6 1.4.6 1.1-.2 1.5-.6.5-1.1.5-1.9c0-.8-.2-1.4-.5-1.9s-.8-.6-1.5-.6c-.6 0-1.1.2-1.4.6s-.5 1.1-.5 1.9z" class="st3"/>
  <path d="M41 59.7v.6l-1.2.1c.1.1.2.3.3.5s.1.5.1.7c0 .6-.2 1.1-.6 1.5s-1 .6-1.8.6h-.5c-.4.2-.6.5-.6.8 0 .2.1.3.2.4s.4.1.7.1h1.1c.7 0 1.2.1 1.6.4s.6.7.6 1.3c0 .7-.3 1.3-.9 1.6s-1.4.7-2.5.7c-.8 0-1.5-.2-1.9-.5s-.7-.8-.7-1.3c0-.4.1-.7.4-1s.6-.5 1.1-.6c-.2-.1-.3-.2-.4-.3s-.2-.3-.2-.5.1-.4.2-.6c.1-.2.3-.3.6-.5-.3-.1-.6-.4-.8-.7s-.3-.7-.3-1.1c0-.7.2-1.2.6-1.6s1-.6 1.8-.6c.3 0 .6 0 .9.1H41zm-5.2 7.5c0 .3.1.6.4.8s.7.3 1.3.3c.8 0 1.4-.1 1.8-.4s.6-.6.6-1c0-.3-.1-.6-.3-.7s-.6-.2-1.2-.2h-1.2c-.4 0-.8.1-1 .3s-.4.5-.4.9zm.6-5.4c0 .4.1.8.4 1s.6.3 1.1.3c.9 0 1.4-.5 1.4-1.4 0-1-.5-1.4-1.4-1.4-.5 0-.8.1-1.1.4s-.4.6-.4 1.1z" class="st3"/>
  <path d="M46.7 66.1V62c0-.5-.1-.9-.4-1.2s-.6-.4-1.1-.4c-.7 0-1.2.2-1.5.5s-.5 1-.5 1.8v3.4h-1v-6.4h.8l.2.9c.2-.3.5-.6.8-.7s.8-.3 1.2-.3c.8 0 1.4.2 1.7.6s.6 1 .6 1.8v4.2h-.8z" class="st3"/>
  <path d="M49.6 58c0-.2.1-.4.2-.5s.2-.2.4-.2.3.1.4.2.2.3.2.5-.1.4-.2.5-.2.2-.4.2-.3-.1-.4-.2-.2-.3-.2-.5zm1 8.1h-1v-6.4h1v6.4z" class="st3"/>
  <path d="M56.8 66.1h-4.7v-.7l3.5-5h-3.3v-.8h4.4v.8l-3.5 4.9h3.5v.8z" class="st3"/>
  <path d="M58.2 58c0-.2.1-.4.2-.5s.2-.2.4-.2.3.1.4.2.2.3.2.5-.1.4-.2.5-.2.2-.4.2-.3-.1-.4-.2-.2-.3-.2-.5zm1.1 8.1h-1v-6.4h1v6.4z" class="st3"/>
  <path d="M65.7 66.1V62c0-.5-.1-.9-.4-1.2s-.6-.4-1.1-.4c-.7 0-1.2.2-1.5.5s-.5 1-.5 1.8v3.4h-1v-6.4h.8l.2.9c.2-.3.5-.6.8-.7s.8-.3 1.2-.3c.8 0 1.4.2 1.7.6s.6 1 .6 1.8v4.2h-.8z" class="st3"/>
  <path d="M74 59.7v.6l-1.2.1c.1.1.2.3.3.5s.1.5.1.7c0 .6-.2 1.1-.6 1.5s-1 .6-1.8.6h-.5c-.4.2-.6.5-.6.8 0 .2.1.3.2.4s.4.1.7.1h1.1c.7 0 1.2.1 1.6.4s.6.7.6 1.3c0 .7-.3 1.3-.9 1.6s-1.4.7-2.5.7c-.8 0-1.5-.2-1.9-.5s-.7-.8-.7-1.3c0-.4.1-.7.4-1s.6-.5 1.1-.6c-.2-.1-.3-.2-.4-.3s-.2-.3-.2-.5.1-.4.2-.6c.1-.2.3-.3.6-.5-.3-.1-.6-.4-.8-.7s-.3-.7-.3-1.1c0-.7.2-1.2.6-1.6s1-.6 1.8-.6c.3 0 .6 0 .9.1H74zm-5.2 7.5c0 .3.1.6.4.8s.7.3 1.3.3c.8 0 1.4-.1 1.8-.4s.6-.6.6-1c0-.3-.1-.6-.3-.7s-.6-.2-1.2-.2h-1.2c-.4 0-.8.1-1 .3s-.4.5-.4.9zm.6-5.4c0 .4.1.8.4 1s.6.3 1.1.3c.9 0 1.4-.5 1.4-1.4 0-1-.5-1.4-1.4-1.4-.5 0-.8.1-1.1.4s-.4.6-.4 1.1z" class="st3"/>
  <path d="M14.1 80.7c-.4 0-.8-.1-1.1-.2s-.6-.4-.9-.7H12c0 .4.1.7.1 1.1v2.6h-1v-9.3h.8l.1.8c.2-.4.5-.6.9-.8s.7-.2 1.1-.2c.9 0 1.5.3 2 .9.5.6.7 1.4.7 2.4 0 1.1-.2 1.9-.7 2.5-.4.6-1.1.9-1.9.9zm-.1-5.9c-.7 0-1.1.2-1.4.5s-.4.9-.5 1.7v.2c0 .9.2 1.5.5 1.9s.8.6 1.4.6c.6 0 1-.2 1.3-.7s.5-1.1.5-1.9c0-.8-.2-1.4-.5-1.8s-.8-.5-1.3-.5z" class="st3"/>
  <path d="M21.2 80.7c-.9 0-1.7-.3-2.2-.9s-.8-1.4-.8-2.4.3-1.9.8-2.5 1.2-.9 2.1-.9c.8 0 1.4.3 1.9.8s.7 1.2.7 2.1v.6h-4.4c0 .8.2 1.3.6 1.7s.9.6 1.5.6c.7 0 1.4-.1 2.1-.4v.9c-.3.1-.7.3-1 .3s-.9.1-1.3.1zm-.3-5.9c-.5 0-.9.2-1.2.5s-.5.8-.5 1.4h3.4c0-.6-.1-1.1-.4-1.4s-.8-.5-1.3-.5z" class="st3"/>
  <path d="M30.7 77.3c0 1-.3 1.9-.8 2.5s-1.3.9-2.2.9c-.6 0-1.1-.1-1.5-.4s-.8-.7-1-1.2-.4-1.1-.4-1.8c0-1 .3-1.9.8-2.4s1.2-.9 2.2-.9c.9 0 1.6.3 2.1.9s.8 1.4.8 2.4zm-4.8 0c0 .8.2 1.4.5 1.9s.8.6 1.4.6 1.1-.2 1.5-.6.5-1.1.5-1.9c0-.8-.2-1.4-.5-1.9s-.8-.6-1.5-.6c-.6 0-1.1.2-1.4.6s-.5 1.1-.5 1.9z" class="st3"/>
  <path d="M35.4 80.7c-.4 0-.8-.1-1.1-.2s-.6-.4-.9-.7h-.1c0 .4.1.7.1 1.1v2.6h-1v-9.3h.8l.1.9c.2-.4.5-.6.9-.8s.8-.3 1.2-.3c.9 0 1.5.3 2 .9s.7 1.4.7 2.4c0 1.1-.2 1.9-.7 2.5s-1.1.9-2 .9zm-.1-5.9c-.7 0-1.1.2-1.4.5s-.4.9-.5 1.7v.2c0 .9.2 1.5.5 1.9s.8.6 1.4.6c.6 0 1-.2 1.3-.7s.5-1.1.5-1.9c0-.8-.2-1.4-.5-1.8s-.7-.5-1.3-.5z" class="st3"/>
  <path d="M40.8 80.5h-1v-9.1h1v9.1z" class="st3"/>
  <path d="M45.6 80.7c-.9 0-1.7-.3-2.2-.9s-.8-1.4-.8-2.4.3-1.9.8-2.5 1.2-.9 2.1-.9c.8 0 1.4.3 1.9.8s.7 1.2.7 2.1v.6h-4.4c0 .8.2 1.3.6 1.7s.9.6 1.5.6c.7 0 1.4-.1 2.1-.4v.9c-.3.1-.7.3-1 .3s-.9.1-1.3.1zm-.3-5.9c-.5 0-.9.2-1.2.5s-.5.8-.5 1.4H47c0-.6-.1-1.1-.4-1.4s-.8-.5-1.3-.5z" class="st3"/>
  <path d="M53.7 78.8c0 .6-.2 1.1-.7 1.4s-1.1.5-1.9.5c-.9 0-1.5-.1-2-.4v-.9c.3.2.6.3 1 .4s.7.1 1 .1c.5 0 .9-.1 1.2-.2s.4-.4.4-.7c0-.2-.1-.5-.3-.6s-.6-.4-1.3-.6c-.6-.2-1-.4-1.3-.6s-.4-.4-.6-.6-.2-.5-.2-.8c0-.5.2-.9.6-1.2s1-.5 1.8-.5c.7 0 1.4.1 2 .4l-.3.8c-.6-.3-1.2-.4-1.8-.4-.5 0-.8.1-1 .2s-.4.3-.4.6c0 .2 0 .3.1.4s.2.2.4.3.6.3 1.1.5c.8.3 1.3.6 1.5.8s.7.7.7 1.1z" class="st3"/>
  <path d="M61.3 74.9h-1.6v5.7h-1v-5.7h-1.1v-.4l1.1-.4v-.4c0-1.6.7-2.4 2.1-2.4.3 0 .7.1 1.2.2l-.3.8c-.4-.1-.7-.2-1-.2-.4 0-.6.1-.8.4s-.3.6-.3 1.2v.4h1.6v.8z" class="st3"/>
  <path d="M66.4 80.5l-.2-.9c-.3.4-.6.7-1 .8s-.7.2-1.2.2c-.6 0-1.1-.2-1.5-.5s-.5-.7-.5-1.3c0-1.3 1-2 3.1-2h1.1v-.4c0-.5-.1-.9-.3-1.1s-.6-.4-1-.4c-.5 0-1.1.2-1.8.5l-.3-.7c.3-.2.7-.3 1-.4.4-.1.8-.1 1.1-.1.8 0 1.3.2 1.7.5s.6.9.6 1.6v4.4h-.8zm-2.2-.6c.6 0 1.1-.2 1.4-.5s.5-.8.5-1.4v-.6h-1c-.8 0-1.3.1-1.7.4s-.5.5-.5 1c0 .4.1.6.3.8s.6.3 1 .3z" class="st3"/>
  <path d="M71.7 80.7c-.9 0-1.6-.3-2.2-.9s-.8-1.4-.8-2.4c0-1.1.3-1.9.8-2.5s1.3-.9 2.2-.9c.3 0 .6 0 .9.1s.6.1.7.2l-.3.8c-.2-.1-.4-.2-.7-.2s-.5-.1-.7-.1c-1.3 0-2 .8-2 2.5 0 .8.2 1.4.5 1.8s.8.6 1.4.6c.5 0 1.1-.1 1.6-.3v.9c-.2.2-.7.4-1.4.4z" class="st3"/>
  <path d="M77.6 80.7c-.9 0-1.7-.3-2.2-.9s-.8-1.4-.8-2.4.3-1.9.8-2.5 1.2-.9 2.1-.9c.8 0 1.4.3 1.9.8s.7 1.2.7 2.1v.6h-4.4c0 .8.2 1.3.6 1.7s.9.6 1.5.6c.7 0 1.4-.1 2.1-.4v.9c-.3.1-.7.3-1 .3s-.9.1-1.3.1zm-.3-5.9c-.5 0-.9.2-1.2.5s-.5.8-.5 1.4H79c0-.6-.1-1.1-.4-1.4s-.8-.5-1.3-.5z" class="st3"/>
  <path d="M85.7 78.8c0 .6-.2 1.1-.7 1.4s-1.1.5-1.9.5c-.9 0-1.5-.1-2-.4v-.9c.3.2.6.3 1 .4s.7.1 1 .1c.5 0 .9-.1 1.2-.2s.4-.4.4-.7c0-.2-.1-.5-.3-.6s-.6-.4-1.3-.6c-.6-.2-1-.4-1.3-.6s-.4-.4-.6-.6-.2-.5-.2-.8c0-.5.2-.9.6-1.2s1-.5 1.8-.5c.7 0 1.4.1 2 .4l-.3.8c-.6-.3-1.2-.4-1.8-.4-.5 0-.8.1-1 .2s-.4.3-.4.6c0 .2 0 .3.1.4s.2.2.4.3.6.3 1.1.5c.8.3 1.3.6 1.5.8s.7.7.7 1.1z" class="st3"/>
  <path d="M87.2 79.9c0-.3.1-.5.2-.6s.3-.2.5-.2.4.1.5.2.2.3.2.6-.1.4-.2.6-.3.2-.5.2-.4-.1-.5-.2-.2-.3-.2-.6z" class="st3"/>
  <path d="M134.3 126.5H11c-1.6 0-2.8 1.3-2.8 2.8v107.1c0 1.6 1.3 2.8 2.8 2.8h123.4c1.6 0 2.8-1.3 2.8-2.8V129.3c0-1.6-1.3-2.8-2.9-2.8z" class="st0"/>
  <path d="M124.3 117H2.8c-1.6 0-2.8 1.3-2.8 2.8v107.1c0 1.6 1.3 2.8 2.8 2.8h121.4c1.6 0 2.8-1.3 2.8-2.8V119.8c.1-1.6-1.2-2.8-2.7-2.8z" class="st1"/>
  <path d="M10.1 137.8h108.2v97.9H10.1z" class="st2"/>
  <path d="M12.3 143.3v3.6h-1v-8.6h2.3c1.1 0 1.8.2 2.3.6.5.4.8 1 .8 1.8 0 1.1-.6 1.9-1.7 2.3l2.3 3.8h-1.2l-2.1-3.6h-1.7zm0-.8h1.4c.7 0 1.2-.1 1.5-.4s.5-.7.5-1.3c0-.6-.2-1-.5-1.2s-.9-.4-1.6-.4h-1.3v3.3z" class="st3"/>
  <path d="M18.5 138.7c0-.2.1-.4.2-.5s.2-.2.4-.2.3.1.4.2.2.3.2.5-.1.4-.2.5-.2.2-.4.2-.3-.1-.4-.2-.2-.2-.2-.5zm1 8.2h-1v-6.4h1v6.4z" class="st3"/>
  <path d="M26.8 140.5v.6l-1.2.1c.1.1.2.3.3.5s.1.5.1.7c0 .6-.2 1.1-.6 1.5s-1 .6-1.8.6h-.5c-.4.2-.6.5-.6.8 0 .2.1.3.2.4s.4.1.7.1h1.1c.7 0 1.2.1 1.6.4s.6.7.6 1.3c0 .7-.3 1.3-.9 1.6s-1.4.6-2.5.6c-.8 0-1.5-.2-1.9-.5s-.7-.8-.7-1.3c0-.4.1-.7.4-1s.6-.5 1.1-.6c-.2-.1-.3-.2-.4-.3s-.2-.3-.2-.5.1-.4.2-.6.3-.3.6-.5c-.3-.1-.6-.4-.8-.7s-.3-.7-.3-1.1c0-.7.2-1.2.6-1.6s1-.6 1.8-.6c.3 0 .6 0 .9.1h2.2zm-5.1 7.5c0 .3.1.6.4.8s.7.3 1.3.3c.8 0 1.4-.1 1.8-.4s.6-.6.6-1c0-.3-.1-.6-.3-.7s-.6-.2-1.2-.2h-1.2c-.4 0-.8.1-1 .3s-.4.5-.4.9zm.5-5.5c0 .4.1.8.4 1s.6.3 1.1.3c.9 0 1.4-.5 1.4-1.4 0-1-.5-1.4-1.4-1.4-.5 0-.8.1-1.1.4s-.4.6-.4 1.1z" class="st3"/>
  <path d="M32.5 146.9v-4.2c0-.5-.1-.9-.4-1.2s-.6-.4-1.1-.4c-.7 0-1.2.2-1.5.6s-.5 1-.5 1.8v3.4h-1v-9.1h1v3.6h.1c.2-.3.5-.6.8-.7s.8-.3 1.2-.3c.8 0 1.4.2 1.8.6s.6 1 .6 1.8v4.2h-1z" class="st3"/>
  <path d="M37.6 146.2h.5s.3-.1.4-.1v.7c-.1.1-.3.1-.5.1h-.6c-1.2 0-1.9-.7-1.9-2v-3.8h-.9v-.5l.9-.4.5-1.2h.6v1.5h1.9v.8h-1.9v3.8c0 .4.1.7.3.9s.4.2.7.2z" class="st3"/>
  <path d="M45.9 140.4c.8 0 1.5.3 2 .9s.7 1.4.7 2.4-.2 1.9-.7 2.5-1.1.9-2 .9c-.4 0-.8-.1-1.1-.2s-.6-.4-.9-.7h-.1l-.2.8h-.7v-9.1h1v3.5c.4-.7 1.1-1 2-1zm-.2.8c-.7 0-1.1.2-1.4.6s-.4 1-.4 1.9.2 1.5.5 1.9.8.6 1.4.6c.6 0 1-.2 1.3-.7s.4-1.1.4-1.9c0-.8-.1-1.5-.4-1.9s-.8-.5-1.4-.5z" class="st3"/>
  <path d="M53.1 140.4c.3 0 .5 0 .8.1l-.1.9c-.3-.1-.5-.1-.7-.1-.5 0-1 .2-1.3.6s-.6.9-.6 1.6v3.4h-1v-6.4h.8l.1 1.2c.2-.4.5-.7.9-1s.7-.3 1.1-.3z" class="st3"/>
  <path d="M59.1 146.9l-.2-.9c-.3.4-.6.7-1 .8s-.7.2-1.2.2c-.6 0-1.1-.2-1.5-.5s-.5-.8-.5-1.4c0-1.3 1-2 3.1-2h1.1v-.4c0-.5-.1-.9-.3-1.1s-.6-.4-1-.4c-.5 0-1.1.2-1.8.5l-.3-.7c.3-.2.7-.3 1-.4s.8-.1 1.1-.1c.8 0 1.3.2 1.7.5s.6.9.6 1.6v4.4h-.8zm-2.2-.7c.6 0 1.1-.2 1.4-.5s.5-.8.5-1.4v-.6h-1c-.8 0-1.3.1-1.7.4s-.5.5-.5 1c0 .4.1.6.3.8s.6.3 1 .3z" class="st3"/>
  <path d="M61.7 138.7c0-.2.1-.4.2-.5s.2-.2.4-.2.3.1.4.2.2.3.2.5-.1.4-.2.5-.2.2-.4.2-.3-.1-.4-.2-.2-.2-.2-.5zm1.1 8.2h-1v-6.4h1v6.4z" class="st3"/>
  <path d="M69.2 146.9v-4.2c0-.5-.1-.9-.4-1.2s-.6-.4-1.1-.4c-.7 0-1.2.2-1.5.5s-.5 1-.5 1.8v3.4h-1v-6.4h.8l.2.9c.2-.3.5-.6.8-.7s.8-.3 1.2-.3c.8 0 1.4.2 1.7.6s.6 1 .6 1.8v4.2h-.8z" class="st3"/>
  <path d="M74.9 147c-.9 0-1.7-.3-2.2-.9s-.8-1.4-.8-2.4.3-1.9.8-2.5 1.2-.9 2.1-.9c.8 0 1.4.3 1.9.8s.7 1.2.7 2.1v.6H73c0 .8.2 1.3.6 1.7s.9.6 1.5.6c.7 0 1.4-.1 2.1-.4v.9c-.3.1-.7.3-1 .3s-.9.1-1.3.1zm-.3-5.8c-.5 0-.9.2-1.2.5s-.5.8-.5 1.4h3.4c0-.6-.1-1.1-.4-1.4s-.8-.5-1.3-.5z" class="st3"/>
  <path d="M81.9 140.4c.3 0 .5 0 .8.1l-.1.9c-.3-.1-.5-.1-.7-.1-.5 0-1 .2-1.3.6s-.6.9-.6 1.6v3.4h-1v-6.4h.8l.1 1.2c.2-.4.5-.7.9-1s.6-.3 1.1-.3z" class="st3"/>
  <path d="M88 145.1c0 .6-.2 1.1-.7 1.4s-1.1.5-1.9.5c-.9 0-1.5-.1-2-.4v-.9c.3.2.6.3 1 .4s.7.1 1 .1c.5 0 .9-.1 1.2-.2s.4-.4.4-.7c0-.2-.1-.5-.3-.6s-.6-.4-1.3-.6c-.6-.2-1-.4-1.3-.6s-.4-.4-.6-.6-.2-.5-.2-.8c0-.5.2-.9.6-1.2s1-.5 1.8-.5c.7 0 1.4.1 2 .4l-.3.8c-.6-.3-1.2-.4-1.8-.4-.5 0-.8.1-1 .2s-.4.3-.4.6c0 .2 0 .3.1.4s.2.2.4.3.6.3 1.1.5c.8.3 1.3.6 1.5.8s.7.7.7 1.1z" class="st3"/>
  <path d="M97.9 146.9l-1.2-3.8c-.1-.2-.2-.8-.4-1.6-.2.7-.3 1.2-.4 1.6l-1.2 3.8h-1.1l-1.8-6.4h1c.4 1.6.7 2.8.9 3.7s.3 1.4.4 1.7c0-.2.1-.5.2-.9s.2-.6.2-.8l1.2-3.7h1.1l1.1 3.7c.2.7.4 1.2.4 1.7 0-.1.1-.4.1-.7s.5-1.9 1.2-4.7h1l-1.8 6.4h-.9z" class="st3"/>
  <path d="M101.9 138.7c0-.2.1-.4.2-.5s.2-.2.4-.2.3.1.4.2.2.3.2.5-.1.4-.2.5-.2.2-.4.2-.3-.1-.4-.2-.2-.2-.2-.5zm1.1 8.2h-1v-6.4h1v6.4z" class="st3"/>
  <path d="M106 146.9h-1v-9.1h1v9.1z" class="st3"/>
  <path d="M109 146.9h-1v-9.1h1v9.1z" class="st3"/>
  <path d="M19.3 161.3v-4.2c0-.5-.1-.9-.3-1.2s-.6-.4-1-.4c-.6 0-1.1.2-1.3.5s-.4.9-.4 1.6v3.6h-1V157c0-.5-.1-.9-.3-1.2s-.6-.4-1-.4c-.6 0-1.1.2-1.3.5s-.4 1-.4 1.8v3.4h-1v-6.4h.8l.2.9c.2-.3.4-.6.8-.7s.7-.3 1.1-.3c1 0 1.7.4 2 1.1.2-.3.5-.6.8-.8s.8-.3 1.2-.3c.7 0 1.3.2 1.6.6s.5 1 .5 1.8v4.2h-1z" class="st3"/>
  <path d="M27.8 158.1c0 1-.3 1.9-.8 2.5s-1.3.9-2.2.9c-.6 0-1.1-.1-1.5-.4s-.8-.7-1-1.2-.4-1.1-.4-1.8c0-1 .3-1.9.8-2.4s1.2-.9 2.2-.9c.9 0 1.6.3 2.1.9s.8 1.4.8 2.4zm-4.9 0c0 .8.2 1.4.5 1.9s.8.6 1.4.6 1.1-.2 1.5-.6.5-1.1.5-1.9c0-.8-.2-1.4-.5-1.9s-.8-.6-1.5-.6c-.6 0-1.1.2-1.4.6s-.5 1-.5 1.9z" class="st3"/>
  <path d="M33.7 159.5c0 .6-.2 1.1-.7 1.4s-1.1.5-1.9.5c-.9 0-1.5-.1-2-.4v-.9c.3.2.6.3 1 .4s.7.1 1 .1c.5 0 .9-.1 1.2-.2s.4-.4.4-.7c0-.2-.1-.5-.3-.6s-.6-.4-1.3-.6c-.6-.2-1-.4-1.3-.6s-.4-.4-.6-.6-.2-.5-.2-.8c0-.5.2-.9.6-1.2s1-.5 1.8-.5c.7 0 1.4.1 2 .4l-.3.8c-.6-.3-1.2-.4-1.8-.4-.5 0-.8.1-1 .2s-.4.3-.4.6c0 .2 0 .3.1.4s.2.2.4.3.6.3 1.1.5c.8.3 1.3.6 1.5.8s.7.7.7 1.1z" class="st3"/>
  <path d="M37.3 160.6h.5s.3-.1.4-.1v.7c-.1.1-.3.1-.5.1h-.6c-1.2 0-1.9-.7-1.9-2v-3.8h-.9v-.5l.9-.4.4-1.4h.6v1.5h1.9v.8h-1.9v3.8c0 .4.1.7.3.9s.5.4.8.4z" class="st3"/>
  <path d="M43.6 161.3h-1v-9.1h1v9.1z" class="st3"/>
  <path d="M45.6 153.1c0-.2.1-.4.2-.5s.2-.2.4-.2.3.1.4.2.2.3.2.5-.1.4-.2.5-.2.2-.4.2-.3-.1-.4-.2-.2-.2-.2-.5zm1 8.2h-1v-6.4h1v6.4z" class="st3"/>
  <path d="M49.6 158c.2-.2.4-.6.8-.9l2.1-2.2h1.2l-2.6 2.7 2.8 3.7h-1.2l-2.3-3-.7.6v2.4h-1v-9.1h1v4.8c-.1.2-.1.6-.1 1z" class="st3"/>
  <path d="M57.7 161.4c-.9 0-1.7-.3-2.2-.9s-.8-1.4-.8-2.4.3-1.9.8-2.5 1.2-.9 2.1-.9c.8 0 1.4.3 1.9.8s.7 1.2.7 2.1v.6h-4.4c0 .8.2 1.3.6 1.7s.9.6 1.5.6c.7 0 1.4-.1 2.1-.4v.9c-.3.1-.7.3-1 .3s-.9.1-1.3.1zm-.3-5.8c-.5 0-.9.2-1.2.5s-.5.8-.5 1.4H59c0-.6-.1-1.1-.4-1.4s-.7-.5-1.2-.5z" class="st3"/>
  <path d="M62.7 161.3h-1v-9.1h1v9.1z" class="st3"/>
  <path d="M63.7 154.9h1l1.4 3.7c.3.8.5 1.4.6 1.8.1-.2.2-.5.3-1s.7-2 1.6-4.5h1l-2.8 7.3c-.3.7-.6 1.2-1 1.5s-.8.5-1.3.5c-.3 0-.6 0-.9-.1v-.8c.2 0 .5.1.7.1.7 0 1.1-.4 1.4-1.1l.4-.9-2.4-6.5z" class="st3"/>
  <path d="M78.3 161.3v-4.2c0-.5-.1-.9-.4-1.2s-.6-.4-1.1-.4c-.7 0-1.2.2-1.5.6s-.5 1-.5 1.8v3.4h-1v-9.1h1v3.6h.1c.2-.3.5-.6.8-.7s.8-.3 1.2-.3c.8 0 1.4.2 1.8.6s.6 1 .6 1.8v4.2h-1z" class="st3"/>
  <path d="M85.2 161.3l-.2-.9c-.3.4-.6.7-1 .8s-.7.2-1.2.2c-.6 0-1.1-.2-1.5-.5s-.5-.8-.5-1.4c0-1.3 1-2 3.1-2H85v-.5c0-.5-.1-.9-.3-1.1s-.6-.4-1-.4c-.5 0-1.1.2-1.8.5l-.3-.7c.3-.2.7-.3 1-.4s.8-.1 1.1-.1c.8 0 1.3.2 1.7.5s.6.9.6 1.6v4.4h-.8zm-2.2-.7c.6 0 1.1-.2 1.4-.5s.5-.8.5-1.4v-.6h-1c-.8 0-1.3.1-1.7.4s-.5.5-.5 1c0 .4.1.6.3.8s.6.3 1 .3z" class="st3"/>
  <path d="M89.4 161.3l-2.4-6.4h1l1.4 3.8c.3.9.5 1.5.6 1.7 0-.2.2-.6.4-1.3s.7-2.1 1.5-4.3h1l-2.4 6.4h-1.1z" class="st3"/>
  <path d="M96.7 161.4c-.9 0-1.7-.3-2.2-.9s-.8-1.4-.8-2.4.3-1.9.8-2.5 1.2-.9 2.1-.9c.8 0 1.4.3 1.9.8s.7 1.2.7 2.1v.6h-4.4c0 .8.2 1.3.6 1.7s.9.6 1.5.6c.7 0 1.4-.1 2.1-.4v.9c-.3.1-.7.3-1 .3s-.9.1-1.3.1zm-.3-5.8c-.5 0-.9.2-1.2.5s-.5.8-.5 1.4H98c0-.6-.1-1.1-.4-1.4s-.7-.5-1.2-.5z" class="st3"/>
  <path d="M15.5 174.8c-.5.7-1.2 1-2.1 1-.8 0-1.5-.3-2-.9s-.7-1.4-.7-2.4.2-1.9.7-2.5 1.1-.9 2-.9c.9 0 1.5.3 2 .9h.1v-3.6h1v9.1h-.8l-.2-.7zm-2 .2c.7 0 1.1-.2 1.4-.5s.4-.9.4-1.7v-.2c0-.9-.2-1.6-.5-1.9s-.8-.6-1.5-.6c-.6 0-1 .2-1.3.7s-.5 1.1-.5 1.9c0 .8.2 1.4.5 1.9s1 .4 1.5.4z" class="st3"/>
  <path d="M24 172.5c0 1-.3 1.9-.8 2.5s-1.3.9-2.2.9c-.6 0-1.1-.1-1.5-.4s-.8-.7-1-1.2-.4-1.1-.4-1.8c0-1 .3-1.9.8-2.4s1.2-.9 2.2-.9c.9 0 1.6.3 2.1.9s.8 1.4.8 2.4zm-4.9 0c0 .8.2 1.4.5 1.9s.8.6 1.4.6 1.1-.2 1.5-.6.5-1.1.5-1.9c0-.8-.2-1.4-.5-1.9s-.8-.6-1.5-.6c-.6 0-1.1.2-1.4.6s-.5 1-.5 1.9z" class="st3"/>
  <path d="M31.3 172.5c0 1-.3 1.9-.8 2.5s-1.3.9-2.2.9c-.6 0-1.1-.1-1.5-.4s-.8-.7-1-1.2-.4-1.1-.4-1.8c0-1 .3-1.9.8-2.4s1.2-.9 2.2-.9c.9 0 1.6.3 2.1.9s.8 1.4.8 2.4zm-4.9 0c0 .8.2 1.4.5 1.9s.8.6 1.4.6 1.1-.2 1.5-.6.5-1.1.5-1.9c0-.8-.2-1.4-.5-1.9s-.8-.6-1.5-.6c-.6 0-1.1.2-1.4.6s-.5 1-.5 1.9z" class="st3"/>
  <path d="M37.3 174.8c-.5.7-1.2 1-2.1 1-.8 0-1.5-.3-2-.9s-.7-1.4-.7-2.4.2-1.9.7-2.5 1.1-.9 2-.9c.9 0 1.5.3 2 .9h.1v-3.6h1v9.1h-.8l-.2-.7zm-1.9.2c.7 0 1.1-.2 1.4-.5s.4-.9.4-1.7v-.2c0-.9-.2-1.6-.5-1.9s-.7-.7-1.3-.7c-.6 0-1 .2-1.3.7s-.5 1.1-.5 1.9c0 .8.2 1.4.5 1.9s.7.5 1.3.5z" class="st3"/>
  <path d="M41.3 175.7h-1v-9.1h1v9.1z" class="st3"/>
  <path d="M46.1 175.8c-.9 0-1.7-.3-2.2-.9s-.8-1.4-.8-2.4.3-1.9.8-2.5 1.2-.9 2.1-.9c.8 0 1.4.3 1.9.8s.7 1.2.7 2.1v.6H44c0 .8.2 1.3.6 1.7s.9.6 1.5.6c.7 0 1.4-.1 2.1-.4v.9c-.3.1-.7.3-1 .3s-.7.1-1.1.1zm-.3-5.8c-.5 0-.9.2-1.2.5s-.5.8-.5 1.4h3.4c0-.6-.1-1.1-.4-1.4s-.8-.5-1.3-.5z" class="st3"/>
  <path d="M54.2 173.9c0 .6-.2 1.1-.7 1.4s-1.1.5-1.9.5c-.9 0-1.5-.1-2-.4v-.9c.3.2.6.3 1 .4s.7.1 1 .1c.5 0 .9-.1 1.2-.2s.4-.4.4-.7c0-.2-.1-.5-.3-.6s-.6-.4-1.3-.6c-.6-.2-1-.4-1.3-.6s-.4-.4-.6-.6-.2-.5-.2-.8c0-.5.2-.9.6-1.2s1-.5 1.8-.5c.7 0 1.4.1 2 .4l-.3.8c-.6-.3-1.2-.4-1.8-.4-.5 0-.8.1-1 .2s-.4.3-.4.6c0 .2 0 .3.1.4s.2.2.4.3.6.3 1.1.5c.8.3 1.3.6 1.5.8s.7.7.7 1.1z" class="st3"/>
  <path d="M62.9 175.7l-.2-.9c-.3.4-.6.7-1 .8s-.7.2-1.2.2c-.6 0-1.1-.2-1.5-.5s-.5-.8-.5-1.4c0-1.3 1-2 3.1-2h1.1v-.4c0-.5-.1-.9-.3-1.1s-.6-.4-1-.4c-.5 0-1.1.2-1.8.5l-.3-.7c.3-.2.7-.3 1-.4s.8-.1 1.1-.1c.8 0 1.3.2 1.7.5s.6.9.6 1.6v4.4h-.8zm-2.2-.7c.6 0 1.1-.2 1.4-.5s.5-.8.5-1.4v-.6h-1c-.8 0-1.3.1-1.7.4s-.5.5-.5 1c0 .4.1.6.3.8s.6.3 1 .3z" class="st3"/>
  <path d="M66.6 175.7h-1v-9.1h1v9.1z" class="st3"/>
  <path d="M69.6 175.7h-1v-9.1h1v9.1z" class="st3"/>
  <path d="M80.3 172.5c0 1-.3 1.9-.8 2.5s-1.3.9-2.2.9c-.6 0-1.1-.1-1.5-.4s-.8-.7-1-1.2-.4-1.1-.4-1.8c0-1 .3-1.9.8-2.4s1.2-.9 2.2-.9c.9 0 1.6.3 2.1.9s.8 1.4.8 2.4zm-4.9 0c0 .8.2 1.4.5 1.9s.8.6 1.4.6 1.1-.2 1.5-.6.5-1.1.5-1.9c0-.8-.2-1.4-.5-1.9s-.8-.6-1.4-.6c-.6 0-1.1.2-1.4.6s-.6 1-.6 1.9z" class="st3"/>
  <path d="M83.4 175.7l-2.4-6.4h1l1.4 3.8c.3.9.5 1.5.6 1.7 0-.2.2-.6.4-1.3s.7-2.1 1.5-4.3h1l-2.4 6.4h-1.1z" class="st3"/>
  <path d="M90.8 175.8c-.9 0-1.7-.3-2.2-.9s-.8-1.4-.8-2.4.3-1.9.8-2.5 1.2-.9 2.1-.9c.8 0 1.4.3 1.9.8s.7 1.2.7 2.1v.6h-4.4c0 .8.2 1.3.6 1.7s.9.6 1.5.6c.7 0 1.4-.1 2.1-.4v.9c-.3.1-.7.3-1 .3s-.9.1-1.3.1zm-.3-5.8c-.5 0-.9.2-1.2.5s-.5.8-.5 1.4h3.4c0-.6-.1-1.1-.4-1.4s-.8-.5-1.3-.5z" class="st3"/>
  <path d="M97.7 169.2c.3 0 .5 0 .8.1l-.1.9c-.3-.1-.5-.1-.7-.1-.5 0-1 .2-1.3.6s-.6.9-.6 1.6v3.4h-1v-6.4h.8l.1 1.2c.2-.4.5-.7.9-1s.7-.3 1.1-.3z" class="st3"/>
  <path d="M13.2 189.4h.5s.3-.1.4-.1v.7c-.1.1-.3.1-.5.1H13c-1.2 0-1.9-.7-1.9-2v-3.8h-.9v-.3l.9-.4.4-1.4h.6v1.5H14v.8h-1.9v3.8c0 .4.1.7.3.9s.5.2.8.2z" class="st3"/>
  <path d="M19.7 190.1v-4.2c0-.5-.1-.9-.4-1.2s-.6-.4-1.1-.4c-.7 0-1.2.2-1.5.6s-.5 1-.5 1.8v3.4h-1V181h1v3.6h.1c.2-.3.5-.6.8-.7s.8-.3 1.2-.3c.8 0 1.4.2 1.8.6s.6 1 .6 1.8v4.2h-1z" class="st3"/>
  <path d="M25.4 190.2c-.9 0-1.7-.3-2.2-.9s-.8-1.4-.8-2.4.3-1.9.8-2.5 1.2-.9 2.1-.9c.8 0 1.4.3 1.9.8s.7 1.2.7 2.1v.6h-4.4c0 .8.2 1.3.6 1.7s.9.6 1.5.6c.7 0 1.4-.1 2.1-.4v.9c-.3.1-.7.3-1 .3s-.8.1-1.3.1zm-.2-5.8c-.5 0-.9.2-1.2.5s-.5.8-.5 1.4h3.4c0-.6-.1-1.1-.4-1.4s-.8-.5-1.3-.5z" class="st3"/>
  <path d="M29.4 181.9c0-.2.1-.4.2-.5s.2-.2.4-.2.3.1.4.2.2.3.2.5-.1.4-.2.5-.2.2-.4.2-.3-.1-.4-.2-.2-.2-.2-.5zm1 8.2h-1v-6.4h1v6.4z" class="st3"/>
  <path d="M35.4 183.6c.3 0 .5 0 .8.1l-.1.9c-.3-.1-.5-.1-.7-.1-.5 0-1 .2-1.3.6s-.6.9-.6 1.6v3.4h-1v-6.4h.8l.1 1.2c.2-.4.5-.7.9-1s.7-.3 1.1-.3z" class="st3"/>
  <path d="M44.9 190.1v-4.2c0-.5-.1-.9-.4-1.2s-.6-.4-1.1-.4c-.7 0-1.2.2-1.5.5s-.5 1-.5 1.8v3.4h-1v-6.4h.8l.2.9c.2-.3.5-.6.8-.7s.8-.3 1.2-.3c.8 0 1.4.2 1.7.6s.6 1 .6 1.8v4.2h-.8z" class="st3"/>
  <path d="M53.4 186.9c0 1-.3 1.9-.8 2.5s-1.3.9-2.2.9c-.6 0-1.1-.1-1.5-.4s-.8-.7-1-1.2-.4-1.1-.4-1.8c0-1 .3-1.9.8-2.4s1.2-.9 2.2-.9c.9 0 1.6.3 2.1.9s.8 1.4.8 2.4zm-4.9 0c0 .8.2 1.4.5 1.9s.8.6 1.4.6 1.1-.2 1.5-.6.5-1.1.5-1.9c0-.8-.2-1.4-.5-1.9s-.8-.6-1.5-.6c-.6 0-1.1.2-1.4.6s-.5 1-.5 1.9z" class="st3"/>
  <path d="M57.2 189.4h.5s.3-.1.4-.1v.7c-.1.1-.3.1-.5.1H57c-1.2 0-1.9-.7-1.9-2v-3.8h-.9v-.3l.9-.4.4-1.4h.6v1.5H58v.8h-1.9v3.8c0 .4.1.7.3.9s.5.2.8.2z" class="st3"/>
  <path d="M62.1 190.2c-.9 0-1.7-.3-2.2-.9s-.9-1.3-.9-2.4c0-1 .3-1.9.8-2.5s1.2-.9 2.1-.9c.8 0 1.4.3 1.9.8s.7 1.2.7 2.1v.6H60c0 .8.2 1.3.6 1.7s.9.6 1.5.6c.7 0 1.4-.1 2.1-.4v.9c-.3.1-.7.3-1 .3s-.7.1-1.1.1zm-.3-5.8c-.5 0-.9.2-1.2.5s-.5.8-.5 1.4h3.4c0-.6-.1-1.1-.4-1.4s-.8-.5-1.3-.5z" class="st3"/>
  <path d="M69.1 183.6c.8 0 1.5.3 2 .9s.7 1.4.7 2.4-.2 1.9-.7 2.5-1.1.9-2 .9c-.4 0-.8-.1-1.1-.2s-.6-.4-.9-.7H67l-.2.8h-.7V181h1v3.5c.4-.6 1.1-.9 2-.9zm-.2.8c-.7 0-1.1.2-1.4.6s-.4 1-.4 1.9.2 1.5.5 1.9.8.6 1.4.6c.6 0 1-.2 1.3-.7s.4-1.1.4-1.9c0-.8-.1-1.5-.4-1.9s-.8-.5-1.4-.5z" class="st3"/>
  <path d="M79 186.9c0 1-.3 1.9-.8 2.5s-1.3.9-2.2.9c-.6 0-1.1-.1-1.5-.4s-.8-.7-1-1.2-.4-1.1-.4-1.8c0-1 .3-1.9.8-2.4s1.2-.9 2.2-.9c.9 0 1.6.3 2.1.9s.8 1.4.8 2.4zm-4.9 0c0 .8.2 1.4.5 1.9s.8.6 1.4.6 1.1-.2 1.5-.6.5-1.1.5-1.9c0-.8-.2-1.4-.5-1.9s-.8-.6-1.5-.6c-.6 0-1.1.2-1.4.6s-.5 1-.5 1.9z" class="st3"/>
  <path d="M86.2 186.9c0 1-.3 1.9-.8 2.5s-1.3.9-2.2.9c-.6 0-1.1-.1-1.5-.4s-.8-.7-1-1.2-.4-1.1-.4-1.8c0-1 .3-1.9.8-2.4s1.2-.9 2.2-.9c.9 0 1.6.3 2.1.9s.8 1.4.8 2.4zm-4.9 0c0 .8.2 1.4.5 1.9s.8.6 1.4.6 1.1-.2 1.5-.6.5-1.1.5-1.9c0-.8-.2-1.4-.5-1.9s-.8-.6-1.5-.6c-.6 0-1.1.2-1.4.6s-.5 1-.5 1.9z" class="st3"/>
  <path d="M88.9 186.8c.2-.2.4-.6.8-.9l2.1-2.2H93l-2.6 2.7 2.8 3.7H92l-2.3-3-.7.6v2.4h-1V181h1v4.8c-.1.2-.1.6-.1 1z" class="st3"/>
  <path d="M98.4 188.3c0 .6-.2 1.1-.7 1.4s-1.1.5-1.9.5c-.9 0-1.5-.1-2-.4v-.9c.3.2.6.3 1 .4s.7.1 1 .1c.5 0 .9-.1 1.2-.2s.4-.4.4-.7c0-.2-.1-.5-.3-.6s-.6-.4-1.3-.6c-.6-.2-1-.4-1.3-.6s-.4-.4-.6-.6-.2-.5-.2-.8c0-.5.2-.9.6-1.2s1-.5 1.8-.5c.7 0 1.4.1 2 .4l-.3.8c-.6-.3-1.2-.4-1.8-.4-.5 0-.8.1-1 .2s-.4.3-.4.6c0 .2 0 .3.1.4s.2.2.4.3.6.3 1.1.5c.8.3 1.3.6 1.5.8s.7.7.7 1.1z" class="st3"/>
  <path d="M99.8 189.5c0-.3.1-.5.2-.6s.3-.2.5-.2.4.1.5.2.2.3.2.6-.1.4-.2.6-.3.2-.5.2-.4-.1-.5-.2-.2-.3-.2-.6z" class="st3"/>
</svg>
