<?xml version="1.0" encoding="utf-8"?>
<!-- Generator: Adobe Illustrator 19.1.0, SVG Export Plug-In . SVG Version: 6.00 Build 0)  -->
<svg version="1.1" id="head-info-l" xmlns="http://www.w3.org/2000/svg" xmlns:xlink="http://www.w3.org/1999/xlink" x="0px"
	 y="0px" width="130.3px" height="239.4px" viewBox="-546 277.6 130.3 239.4" enable-background="new -546 277.6 130.3 239.4"
	 xml:space="preserve">
<path fill="#C95145" d="M-418.2,285.7h-120.9c-1.4,0-2.6,1.2-2.6,2.6v90.3c0,1.4,1.2,2.6,2.6,2.6h120.9c1.4,0,2.6-1.2,2.6-2.6v-90.4
	C-415.8,286.8-416.8,285.7-418.2,285.7z"/>
<path fill="#344B62" d="M-422.2,277.6h-121.3c-1.4,0-2.6,1.2-2.6,2.6v90.3c0,1.4,1.2,2.6,2.6,2.6h121.3c1.4,0,2.6-1.2,2.6-2.6v-90.3
	C-419.5,278.8-420.8,277.6-422.2,277.6z"/>
<path fill="#C95145" d="M-418.5,404.1h-120.4c-1.5,0-2.8,1.3-2.8,2.8v107.3c0,1.5,1.3,2.8,2.8,2.8h120.4c1.5,0,2.8-1.3,2.8-2.8
	V406.9C-415.8,405.3-416.9,404.1-418.5,404.1z"/>
<path fill="#344B62" d="M-422.3,394.6h-120.9c-1.5,0-2.8,1.3-2.8,2.8v107.3c0,1.5,1.3,2.8,2.8,2.8h120.9c1.5,0,2.8-1.3,2.8-2.8
	V397.4C-419.5,395.8-420.8,394.6-422.3,394.6z"/>
</svg>
