<?xml version="1.0" encoding="utf-8"?>
<!-- Generator: Adobe Illustrator 19.1.0, SVG Export Plug-In . SVG Version: 6.00 Build 0)  -->
<svg version="1.1" id="l-chart" xmlns="http://www.w3.org/2000/svg" xmlns:xlink="http://www.w3.org/1999/xlink" x="0px" y="0px"
	 width="123.3px" height="96.5px" viewBox="-610.8 396.8 123.3 96.5" enable-background="new -610.8 396.8 123.3 96.5"
	 xml:space="preserve">
<path fill="#1A2C3E" d="M-504.8,476.4v2.8l-6.7-1.3L-504.8,476.4z"/>
<path fill="#1A2C3E" d="M-595.7,470.8v2.8l4.8-0.7L-595.7,470.8z"/>
<path fill="#1A2C3E" d="M-546.4,451.4l41.5,27.9c0,0-16.1,14.5-42.1,13.1c-26-1.3-42.1-10.7-48.8-18.8L-546.4,451.4z"/>
<path fill="#1A2C3E" d="M-546.4,448.6l41.5,27.9c0,0-16.1,14.5-42.1,13.1c-26-1.3-42.1-10.7-48.8-18.8L-546.4,448.6z"/>
<path fill="#1A2C3E" d="M-549.2,445.4l0.2-41.5c0,0-33.3,0.3-49.7,19.7c-16.4,19.4-4.5,37.8-4.5,37.8s3,4.8,4.7,6.2L-549.2,445.4z"
	/>
<path fill="#1A2C3E" d="M-549.2,442.8l0.2-41.5c0,0-33.3,0.3-49.7,19.7c-16.4,19.4-4.5,37.8-4.5,37.8s3,4.8,4.7,6.2L-549.2,442.8z"
	/>
<path fill="#1A2C3E" d="M-545.2,445.8l0.2-41.5c0,0,27.7,0.7,42.3,13.5s18.3,23.7,15.2,36.5c-3.2,12.8-15,19.8-15,19.8L-545.2,445.8
	z"/>
<path fill="#1A2C3E" d="M-545.2,442.8l0.2-41.5c0-0.4,14,1.7,15,1.9c6.4,1.3,12.7,3.3,18.6,6.2c8.9,4.4,16.8,11.3,21.2,20.2
	c7.4,15,2.2,33-12.3,41.6L-545.2,442.8L-545.2,442.8z"/>
<path fill="#B17F60" d="M-508.2,472.7v2.8l-6.7-1.3L-508.2,472.7z"/>
<path fill="#B17F60" d="M-599.1,467.1v2.8l4.7-0.7L-599.1,467.1z"/>
<path fill="#B17F60" d="M-549.8,447.7l41.5,27.9c0,0-16.1,14.5-42.1,13.1c-26-1.3-42.1-10.7-48.8-18.8L-549.8,447.7z"/>
<path fill="#FCD4BB" d="M-549.8,444.8l41.5,27.9c0,0-16.1,14.5-42.1,13.1s-42-10.7-48.7-18.7L-549.8,444.8z"/>
<path fill="#C95145" d="M-552.6,441.6l0.2-41.5c0,0-33.3,0.3-49.7,19.7c-16.4,19.4-4.5,37.8-4.5,37.8s3,4.8,4.7,6.2L-552.6,441.6z"
	/>
<path fill="#F26F5B" d="M-552.6,439.1l0.2-41.5c0,0-33.3,0.3-49.7,19.7c-16.4,19.4-4.5,37.8-4.5,37.8s3,4.8,4.7,6.2L-552.6,439.1z"
	/>
<path fill="#90684D" d="M-548.6,442.1l0.2-41.5c0,0,27.7,0.7,42.3,13.5s18.3,23.7,15.2,36.5c-3.2,12.8-15,19.8-15,19.8L-548.6,442.1
	z"/>
<path fill="#B17F60" d="M-548.6,439.1l0.2-41.5c0-0.4,14,1.7,15,1.9c6.4,1.3,12.7,3.3,18.6,6.2c8.9,4.4,16.8,11.3,21.2,20.2
	c7.4,15,2.2,33-12.3,41.6L-548.6,439.1z"/>
<path fill="#90684D" d="M-525.9,420.7c0,0.7-0.2,1.2-0.6,1.7c-0.4,0.4-0.9,0.7-1.6,0.9v0.1c0.9,0.1,1.5,0.4,1.9,0.8s0.6,1,0.6,1.7
	c0,1-0.4,1.8-1.1,2.4c-0.7,0.5-1.7,0.8-3,0.8c-0.6,0-1.1,0-1.6-0.1s-0.9-0.2-1.4-0.5v-1.2c0.5,0.2,1,0.4,1.5,0.5s1,0.2,1.5,0.2
	c1.9,0,2.8-0.7,2.8-2.2c0-1.3-1-1.9-3.1-1.9h-1.1v-1h1.1c0.8,0,1.5-0.2,2-0.6s0.7-0.9,0.7-1.5c0-0.5-0.2-0.9-0.5-1.2
	c-0.4-0.3-0.8-0.4-1.5-0.4c-0.5,0-0.9,0.1-1.3,0.2c-0.4,0.1-0.9,0.4-1.4,0.7l-0.6-0.8c0.4-0.3,0.9-0.6,1.5-0.8
	c0.6-0.2,1.2-0.3,1.8-0.3c1,0,1.8,0.2,2.4,0.7C-526.2,419.2-525.9,419.8-525.9,420.7z"/>
<path fill="#90684D" d="M-522.6,428.8l4.4-9.6h-5.8v-1.1h7.1v1l-4.4,9.7H-522.6L-522.6,428.8z"/>
<path fill="#90684D" d="M-511,421.3c0,1.1-0.2,2-0.6,2.5c-0.4,0.6-0.9,0.9-1.6,0.9s-1.2-0.3-1.6-0.9c-0.4-0.6-0.6-1.4-0.6-2.5
	s0.2-1.9,0.5-2.5c0.4-0.6,0.9-0.8,1.6-0.8s1.3,0.3,1.6,0.9C-511.4,419.5-511,420.3-511,421.3z M-514.3,421.3c0,0.8,0.1,1.5,0.3,1.9
	c0.2,0.4,0.5,0.6,0.9,0.6c0.8,0,1.2-0.8,1.2-2.5s-0.4-2.5-1.2-2.5c-0.4,0-0.7,0.2-0.9,0.6C-514.2,419.8-514.3,420.5-514.3,421.3z
	 M-506.4,418.1l-5.9,10.7h-1.1l5.9-10.7H-506.4z M-504.5,425.6c0,1.1-0.2,1.9-0.6,2.5c-0.4,0.6-0.9,0.9-1.6,0.9s-1.2-0.3-1.6-0.9
	c-0.4-0.6-0.6-1.4-0.6-2.5s0.2-1.9,0.5-2.5c0.4-0.6,0.9-0.8,1.6-0.8s1.2,0.3,1.6,0.9C-504.7,423.7-504.5,424.4-504.5,425.6z
	 M-507.9,425.6c0,0.8,0.1,1.5,0.3,1.9c0.2,0.4,0.5,0.6,0.9,0.6c0.4,0,0.7-0.2,0.9-0.6s0.3-1,0.3-1.9c0-0.8-0.1-1.5-0.3-1.9
	c-0.2-0.4-0.5-0.6-0.9-0.6c-0.4,0-0.7,0.2-0.9,0.6C-507.8,424.2-507.9,424.8-507.9,425.6z"/>
<path fill="#90684D" d="M-533.1,441.8v-10.7h1.2v9.6h4.7v1.1H-533.1L-533.1,441.8z"/>
<path fill="#90684D" d="M-519.4,441.8h-6v-10.7h6v1.1h-4.7v3.4h4.4v1.1h-4.4v3.9h4.7L-519.4,441.8L-519.4,441.8z"/>
<path fill="#90684D" d="M-515.8,441.8h-1.2v-10.7h6v1.1h-4.7v3.9h4.4v1.1h-4.4L-515.8,441.8L-515.8,441.8z"/>
<path fill="#90684D" d="M-506,441.8h-1.2v-9.6h-3.4v-1.1h8v1.1h-3.4V441.8L-506,441.8z"/>
<path fill="#B17F60" d="M-557.6,465.8h-7v-1l2.8-2.8c0.9-0.9,1.4-1.5,1.7-1.9s0.5-0.7,0.6-1.1s0.2-0.7,0.2-1.1c0-0.6-0.2-1-0.5-1.4
	c-0.3-0.3-0.8-0.5-1.4-0.5c-0.4,0-0.9,0.1-1.3,0.2c-0.4,0.1-0.8,0.4-1.3,0.8l-0.6-0.8c1-0.8,2.1-1.2,3.2-1.2c1,0,1.8,0.3,2.4,0.8
	c0.6,0.5,0.9,1.2,0.9,2.1c0,0.7-0.2,1.4-0.6,2c-0.4,0.6-1.1,1.5-2.1,2.5l-2.3,2.3v0.1h5.5v1H-557.6L-557.6,465.8z"/>
<path fill="#B17F60" d="M-549.1,459.8c0,4.2-1.6,6.3-4.9,6.3c-0.6,0-1,0-1.3-0.1v-1c0.4,0.1,0.8,0.2,1.3,0.2c1.2,0,2.1-0.4,2.7-1.1
	c0.6-0.7,0.9-1.8,1-3.3h-0.1c-0.3,0.4-0.6,0.7-1.1,0.9c-0.4,0.2-0.9,0.3-1.5,0.3c-0.9,0-1.7-0.3-2.3-0.8s-0.8-1.4-0.8-2.4
	c0-1.1,0.3-2,0.9-2.6c0.6-0.6,1.4-1,2.5-1c0.7,0,1.4,0.2,1.9,0.6s1,0.9,1.3,1.6C-549.2,457.8-549.1,458.8-549.1,459.8L-549.1,459.8z
	 M-552.7,456.1c-0.7,0-1.2,0.2-1.6,0.7c-0.4,0.5-0.6,1.1-0.6,1.9c0,0.7,0.2,1.3,0.5,1.7c0.4,0.4,0.9,0.6,1.6,0.6
	c0.4,0,0.9-0.1,1.2-0.3c0.4-0.2,0.7-0.4,0.9-0.7c0.2-0.3,0.3-0.6,0.3-1c0-0.5-0.1-1-0.3-1.4s-0.5-0.8-0.8-1
	C-551.8,456.2-552.2,456.1-552.7,456.1z"/>
<path fill="#B17F60" d="M-543.1,458.4c0,1.1-0.2,2-0.6,2.5c-0.4,0.6-0.9,0.9-1.6,0.9s-1.2-0.3-1.6-0.9c-0.4-0.6-0.6-1.4-0.6-2.5
	s0.2-1.9,0.5-2.5c0.4-0.6,0.9-0.8,1.6-0.8s1.3,0.3,1.6,0.9C-543.5,456.6-543.1,457.3-543.1,458.4L-543.1,458.4z M-546.5,458.4
	c0,0.8,0.1,1.5,0.3,1.9s0.5,0.6,0.9,0.6c0.8,0,1.2-0.8,1.2-2.5s-0.4-2.5-1.2-2.5c-0.4,0-0.7,0.2-0.9,0.6
	C-546.4,456.8-546.5,457.6-546.5,458.4z M-538.6,455.2l-5.9,10.7h-1.1l5.9-10.7H-538.6z M-536.7,462.7c0,1.1-0.2,1.9-0.6,2.5
	c-0.4,0.6-0.9,0.9-1.6,0.9s-1.2-0.3-1.6-0.9c-0.4-0.6-0.6-1.4-0.6-2.5s0.2-1.9,0.5-2.5c0.4-0.6,0.9-0.8,1.6-0.8s1.2,0.3,1.6,0.9
	C-536.9,460.8-536.7,461.6-536.7,462.7L-536.7,462.7z M-540,462.7c0,0.8,0.1,1.5,0.3,1.9s0.5,0.6,0.9,0.6s0.7-0.2,0.9-0.6
	s0.3-1,0.3-1.9c0-0.8-0.1-1.5-0.3-1.9s-0.5-0.6-0.9-0.6s-0.7,0.2-0.9,0.6S-540,461.8-540,462.7z"/>
<path fill="#B17F60" d="M-569.8,474.4v4.5h-1.2v-10.7h2.9c1.3,0,2.3,0.3,2.9,0.8c0.6,0.5,0.9,1.3,0.9,2.3c0,1.4-0.7,2.4-2.2,2.9
	l2.9,4.8h-1.5l-2.6-4.5L-569.8,474.4L-569.8,474.4z M-569.8,473.4h1.7c0.9,0,1.5-0.2,1.9-0.5s0.6-0.9,0.6-1.6s-0.2-1.2-0.6-1.5
	c-0.4-0.3-1.1-0.5-2-0.5h-1.6L-569.8,473.4L-569.8,473.4z"/>
<path fill="#B17F60" d="M-561.8,478.8v-10.7h1.2v10.7H-561.8z"/>
<path fill="#B17F60" d="M-552.9,473.3h3.6v5.2c-0.6,0.2-1.1,0.3-1.7,0.4c-0.6,0.1-1.3,0.1-2,0.1c-1.6,0-2.9-0.5-3.8-1.4
	c-0.9-1-1.4-2.3-1.4-4.1c0-1.1,0.2-2.1,0.7-2.9c0.4-0.8,1.1-1.5,1.9-1.9s1.8-0.7,3-0.7c1.1,0,2.2,0.2,3.2,0.6l-0.5,1.1
	c-1-0.4-1.9-0.6-2.8-0.6c-1.3,0-2.3,0.4-3.1,1.2c-0.8,0.8-1.1,1.9-1.1,3.2c0,1.4,0.4,2.5,1.1,3.3c0.7,0.7,1.7,1.1,3.1,1.1
	c0.7,0,1.5-0.1,2.2-0.3v-3.3h-2.4V473.3L-552.9,473.3z"/>
<path fill="#B17F60" d="M-538.6,478.8h-1.2v-5h-5.6v5h-1.2v-10.7h1.2v4.6h5.6v-4.6h1.2V478.8z"/>
<path fill="#B17F60" d="M-532.3,478.8h-1.2v-9.6h-3.4v-1.1h8v1.1h-3.4L-532.3,478.8L-532.3,478.8z"/>
<path fill="#231F20" d="M-526.8,419.8c0,0.7-0.2,1.2-0.6,1.7c-0.4,0.4-0.9,0.7-1.6,0.9v0.1c0.9,0.1,1.5,0.4,1.9,0.8s0.6,1,0.6,1.7
	c0,1-0.4,1.8-1.1,2.4c-0.7,0.5-1.7,0.8-3,0.8c-0.6,0-1.1,0-1.6-0.1s-0.9-0.2-1.4-0.5v-1.2c0.5,0.2,1,0.4,1.5,0.5s1,0.2,1.5,0.2
	c1.9,0,2.8-0.7,2.8-2.2c0-1.3-1-1.9-3.1-1.9h-1.1v-1h1.1c0.8,0,1.5-0.2,2-0.6s0.7-0.9,0.7-1.5c0-0.5-0.2-0.9-0.5-1.2
	c-0.4-0.3-0.8-0.4-1.5-0.4c-0.5,0-0.9,0.1-1.3,0.2c-0.4,0.1-0.9,0.4-1.4,0.7l-0.6-0.8c0.4-0.3,0.9-0.6,1.5-0.8
	c0.6-0.2,1.2-0.3,1.8-0.3c1,0,1.8,0.2,2.4,0.7C-527.1,418.3-526.8,418.9-526.8,419.8z"/>
<path fill="#231F20" d="M-523.5,427.9l4.4-9.6h-5.8v-1.1h7.1v1l-4.4,9.7H-523.5L-523.5,427.9z"/>
<path fill="#231F20" d="M-511.9,420.4c0,1.1-0.2,2-0.6,2.5c-0.4,0.6-0.9,0.9-1.6,0.9s-1.2-0.3-1.6-0.9c-0.4-0.6-0.6-1.4-0.6-2.5
	s0.2-1.9,0.5-2.5c0.4-0.6,0.9-0.8,1.6-0.8s1.3,0.3,1.6,0.9C-512.3,418.6-511.9,419.4-511.9,420.4z M-515.2,420.4
	c0,0.8,0.1,1.5,0.3,1.9c0.2,0.4,0.5,0.6,0.9,0.6c0.8,0,1.2-0.8,1.2-2.5s-0.4-2.5-1.2-2.5c-0.4,0-0.7,0.2-0.9,0.6
	C-515.1,418.9-515.2,419.6-515.2,420.4z M-507.3,417.3l-5.9,10.7h-1.1l5.9-10.7H-507.3z M-505.4,424.7c0,1.1-0.2,1.9-0.6,2.5
	c-0.4,0.6-0.9,0.9-1.6,0.9s-1.2-0.3-1.6-0.9c-0.4-0.6-0.6-1.4-0.6-2.5s0.2-1.9,0.5-2.5c0.4-0.6,0.9-0.8,1.6-0.8s1.2,0.3,1.6,0.9
	C-505.6,422.8-505.4,423.7-505.4,424.7z M-508.8,424.7c0,0.8,0.1,1.5,0.3,1.9c0.2,0.4,0.5,0.6,0.9,0.6c0.4,0,0.7-0.2,0.9-0.6
	c0.2-0.4,0.3-1,0.3-1.9c0-0.8-0.1-1.5-0.3-1.9c-0.2-0.4-0.5-0.6-0.9-0.6c-0.4,0-0.7,0.2-0.9,0.6
	C-508.7,423.3-508.8,423.8-508.8,424.7z"/>
<path fill="#231F20" d="M-534,440.9v-10.7h1.2v9.6h4.7v1.1H-534L-534,440.9z"/>
<path fill="#231F20" d="M-520.3,440.9h-6v-10.7h6v1.1h-4.7v3.4h4.4v1.1h-4.4v3.9h4.7V440.9z"/>
<path fill="#231F20" d="M-516.7,440.9h-1.2v-10.7h6v1.1h-4.7v3.9h4.4v1.1h-4.4L-516.7,440.9L-516.7,440.9z"/>
<path fill="#231F20" d="M-506.9,440.9h-1.2v-9.6h-3.4v-1.1h8v1.1h-3.4V440.9L-506.9,440.9z"/>
<path fill="#231F20" d="M-558.5,464.9h-7v-1l2.8-2.8c0.9-0.9,1.4-1.5,1.7-1.9s0.5-0.7,0.6-1.1s0.2-0.7,0.2-1.1c0-0.6-0.2-1-0.5-1.4
	c-0.3-0.3-0.8-0.5-1.4-0.5c-0.4,0-0.9,0.1-1.3,0.2c-0.4,0.1-0.8,0.4-1.3,0.8l-0.6-0.8c1-0.8,2.1-1.2,3.2-1.2c1,0,1.8,0.3,2.4,0.8
	c0.6,0.5,0.9,1.2,0.9,2.1c0,0.7-0.2,1.4-0.6,2c-0.4,0.6-1.1,1.5-2.1,2.5l-2.3,2.3v0.1h5.5v1H-558.5L-558.5,464.9z"/>
<path fill="#231F20" d="M-549.9,458.8c0,4.2-1.6,6.3-4.9,6.3c-0.6,0-1,0-1.3-0.1v-1c0.4,0.1,0.8,0.2,1.3,0.2c1.2,0,2.1-0.4,2.7-1.1
	c0.6-0.7,0.9-1.8,1-3.3h-0.1c-0.3,0.4-0.6,0.7-1.1,0.9c-0.4,0.2-0.9,0.3-1.5,0.3c-0.9,0-1.7-0.3-2.3-0.8s-0.8-1.4-0.8-2.4
	c0-1.1,0.3-2,0.9-2.6c0.6-0.6,1.4-1,2.5-1c0.7,0,1.4,0.2,1.9,0.6s1,0.9,1.3,1.6C-550.1,457.1-549.9,457.8-549.9,458.8L-549.9,458.8z
	 M-553.6,455.2c-0.7,0-1.2,0.2-1.6,0.7c-0.4,0.5-0.6,1.1-0.6,1.9c0,0.7,0.2,1.3,0.5,1.7c0.4,0.4,0.9,0.6,1.6,0.6
	c0.4,0,0.9-0.1,1.2-0.3c0.4-0.2,0.7-0.4,0.9-0.7c0.2-0.3,0.3-0.6,0.3-1c0-0.5-0.1-1-0.3-1.4s-0.5-0.8-0.8-1
	C-552.7,455.3-553.1,455.2-553.6,455.2z"/>
<path fill="#231F20" d="M-544,457.4c0,1.1-0.2,2-0.6,2.5c-0.4,0.6-0.9,0.9-1.6,0.9s-1.2-0.3-1.6-0.9c-0.4-0.6-0.6-1.4-0.6-2.5
	s0.2-1.9,0.5-2.5c0.4-0.6,0.9-0.8,1.6-0.8s1.3,0.3,1.6,0.9C-544.4,455.7-544,456.4-544,457.4L-544,457.4z M-547.4,457.4
	c0,0.8,0.1,1.5,0.3,1.9s0.5,0.6,0.9,0.6c0.8,0,1.2-0.8,1.2-2.5s-0.4-2.5-1.2-2.5c-0.4,0-0.7,0.2-0.9,0.6
	C-547.3,455.9-547.4,456.7-547.4,457.4z M-539.5,454.3l-5.9,10.7h-1.1l5.9-10.7H-539.5z M-537.6,461.8c0,1.1-0.2,1.9-0.6,2.5
	c-0.4,0.6-0.9,0.9-1.6,0.9s-1.2-0.3-1.6-0.9c-0.4-0.6-0.6-1.4-0.6-2.5s0.2-1.9,0.5-2.5c0.4-0.6,0.9-0.8,1.6-0.8s1.2,0.3,1.6,0.9
	C-537.8,459.8-537.6,460.7-537.6,461.8L-537.6,461.8z M-540.9,461.8c0,0.8,0.1,1.5,0.3,1.9s0.5,0.6,0.9,0.6s0.7-0.2,0.9-0.6
	s0.3-1,0.3-1.9c0-0.8-0.1-1.5-0.3-1.9s-0.5-0.6-0.9-0.6s-0.7,0.2-0.9,0.6C-540.8,460.3-540.9,460.9-540.9,461.8z"/>
<path fill="#231F20" d="M-570.7,473.6v4.5h-1.2v-10.7h2.9c1.3,0,2.3,0.3,2.9,0.8c0.6,0.5,0.9,1.3,0.9,2.3c0,1.4-0.7,2.4-2.2,2.9
	l2.9,4.8h-1.5l-2.6-4.5L-570.7,473.6L-570.7,473.6L-570.7,473.6z M-570.7,472.4h1.7c0.9,0,1.5-0.2,1.9-0.5s0.6-0.9,0.6-1.6
	s-0.2-1.2-0.6-1.5c-0.4-0.3-1.1-0.5-2-0.5h-1.6C-570.7,468.4-570.7,472.4-570.7,472.4z"/>
<path fill="#231F20" d="M-562.7,477.9v-10.7h1.3v10.7H-562.7z"/>
<path fill="#231F20" d="M-553.8,472.4h3.6v5.2c-0.6,0.2-1.1,0.3-1.7,0.4c-0.6,0.1-1.3,0.1-2,0.1c-1.6,0-2.9-0.5-3.8-1.4
	c-0.9-1-1.4-2.3-1.4-4.1c0-1.1,0.2-2.1,0.7-2.9c0.4-0.8,1.1-1.5,1.9-1.9s1.8-0.7,3-0.7c1.1,0,2.2,0.2,3.2,0.6l-0.5,1.1
	c-1-0.4-1.9-0.6-2.8-0.6c-1.3,0-2.3,0.4-3.1,1.2c-0.8,0.8-1.1,1.9-1.1,3.2c0,1.4,0.4,2.5,1.1,3.3c0.7,0.7,1.7,1.1,3.1,1.1
	c0.7,0,1.5-0.1,2.2-0.3v-3.2h-2.4V472.4L-553.8,472.4z"/>
<path fill="#231F20" d="M-539.4,477.9h-1.2v-5h-5.6v5h-1.2v-10.7h1.2v4.6h5.6v-4.6h1.2V477.9z"/>
<path fill="#231F20" d="M-533.2,477.9h-1.2v-9.6h-3.4v-1.1h8v1.1h-3.4L-533.2,477.9L-533.2,477.9z"/>
<path fill="#C95145" d="M-584.1,419.2c0,0.7-0.2,1.2-0.6,1.7c-0.4,0.4-0.9,0.7-1.6,0.9v0.1c0.9,0.1,1.5,0.4,1.9,0.8s0.6,1,0.6,1.7
	c0,1-0.4,1.8-1.1,2.4c-0.7,0.5-1.7,0.8-3,0.8c-0.6,0-1.1,0-1.6-0.1s-0.9-0.2-1.4-0.5v-1.2c0.5,0.2,1,0.4,1.5,0.5s1,0.2,1.5,0.2
	c1.9,0,2.8-0.7,2.8-2.2c0-1.3-1-1.9-3.1-1.9h-1.1v-1h1.1c0.8,0,1.5-0.2,2-0.6s0.7-0.9,0.7-1.5c0-0.5-0.2-0.9-0.5-1.2
	c-0.4-0.3-0.8-0.4-1.5-0.4c-0.5,0-0.9,0.1-1.3,0.2c-0.4,0.1-0.9,0.4-1.4,0.7l-0.6-0.8c0.4-0.3,0.9-0.6,1.5-0.8
	c0.6-0.2,1.2-0.3,1.8-0.3c1,0,1.8,0.2,2.4,0.7C-584.4,417.7-584.1,418.3-584.1,419.2z"/>
<path fill="#C95145" d="M-574.6,424.8h-1.6v2.5h-1.2v-2.5h-5.2v-1.1l5.1-7.2h1.3v7.2h1.6C-574.6,423.8-574.6,424.8-574.6,424.8z
	 M-577.4,423.8v-3.6c0-0.7,0-1.5,0.1-2.4h-0.1c-0.2,0.5-0.5,0.9-0.7,1.2l-3.3,4.8H-577.4z"/>
<path fill="#C95145" d="M-569.2,419.8c0,1.1-0.2,2-0.6,2.5c-0.4,0.6-0.9,0.9-1.6,0.9s-1.2-0.3-1.6-0.9c-0.4-0.6-0.6-1.4-0.6-2.5
	s0.2-1.9,0.5-2.5c0.4-0.6,0.9-0.8,1.6-0.8s1.3,0.3,1.6,0.9S-569.2,418.8-569.2,419.8z M-572.6,419.8c0,0.8,0.1,1.5,0.3,1.9
	s0.5,0.6,0.9,0.6c0.8,0,1.2-0.8,1.2-2.5s-0.4-2.5-1.2-2.5c-0.4,0-0.7,0.2-0.9,0.6S-572.6,419-572.6,419.8z M-564.7,416.6l-5.9,10.7
	h-1.1l5.9-10.7H-564.7z M-562.8,424.1c0,1.1-0.2,1.9-0.6,2.5c-0.4,0.6-0.9,0.9-1.6,0.9s-1.2-0.3-1.6-0.9c-0.4-0.6-0.6-1.4-0.6-2.5
	s0.2-1.9,0.5-2.5c0.4-0.6,0.9-0.8,1.6-0.8s1.2,0.3,1.6,0.9C-563,422.2-562.8,422.9-562.8,424.1z M-566.1,424.1
	c0,0.8,0.1,1.5,0.3,1.9s0.5,0.6,0.9,0.6s0.7-0.2,0.9-0.6s0.3-1,0.3-1.9c0-0.8-0.1-1.5-0.3-1.9s-0.5-0.6-0.9-0.6s-0.7,0.2-0.9,0.6
	C-566,422.7-566.1,423.3-566.1,424.1z"/>
<path fill="#C95145" d="M-595.7,429.6h3c1.4,0,2.4,0.2,3.1,0.6c0.6,0.4,1,1.1,1,2c0,0.6-0.2,1.2-0.5,1.6c-0.4,0.4-0.9,0.7-1.5,0.8
	v0.1c1.6,0.3,2.4,1.1,2.4,2.6c0,1-0.3,1.7-1,2.2c-0.6,0.5-1.6,0.8-2.7,0.8h-3.7L-595.7,429.6L-595.7,429.6z M-594.4,434.2h2
	c0.9,0,1.5-0.1,1.9-0.4s0.6-0.7,0.6-1.4c0-0.6-0.2-1-0.6-1.3c-0.4-0.3-1.1-0.4-2.1-0.4h-1.8C-594.4,430.7-594.4,434.2-594.4,434.2z
	 M-594.4,435.3v4h2.2c0.9,0,1.5-0.2,2-0.5c0.4-0.3,0.7-0.9,0.7-1.6s-0.2-1.2-0.7-1.5c-0.4-0.3-1.1-0.5-2-0.5L-594.4,435.3
	L-594.4,435.3z"/>
<path fill="#C95145" d="M-576.6,434.9c0,1.7-0.4,3.1-1.3,4c-0.9,1-2.1,1.5-3.6,1.5c-1.6,0-2.8-0.5-3.7-1.4c-0.9-1-1.3-2.3-1.3-4.1
	c0-1.7,0.4-3.1,1.3-4.1c0.9-1,2.1-1.4,3.7-1.4c1.5,0,2.7,0.5,3.6,1.5C-577.1,431.8-576.6,433.3-576.6,434.9z M-585.2,434.9
	c0,1.5,0.3,2.6,0.9,3.3c0.6,0.8,1.5,1.1,2.7,1.1s2.1-0.4,2.7-1.1c0.6-0.7,0.9-1.8,0.9-3.3c0-1.4-0.3-2.5-0.9-3.3
	c-0.6-0.7-1.5-1.1-2.7-1.1s-2.1,0.4-2.7,1.1C-584.9,432.4-585.2,433.4-585.2,434.9z"/>
<path fill="#C95145" d="M-571,440.3h-1.2v-9.6h-3.4v-1.1h8v1.1h-3.4L-571,440.3L-571,440.3z"/>
<path fill="#C95145" d="M-557.8,440.3h-1.2v-5h-5.6v5h-1.2v-10.7h1.2v4.6h5.6v-4.6h1.2V440.3L-557.8,440.3z"/>
<path fill="#231F20" d="M-585,418.3c0,0.7-0.2,1.2-0.6,1.7c-0.4,0.4-0.9,0.7-1.6,0.9v0.1c0.9,0.1,1.5,0.4,1.9,0.8s0.6,1,0.6,1.7
	c0,1-0.4,1.8-1.1,2.4c-0.7,0.5-1.7,0.8-3,0.8c-0.6,0-1.1,0-1.6-0.1s-0.9-0.2-1.4-0.5v-1.2c0.5,0.2,1,0.4,1.5,0.5s1,0.2,1.5,0.2
	c1.9,0,2.8-0.7,2.8-2.2c0-1.3-1-1.9-3.1-1.9h-1.1v-1h1.1c0.8,0,1.5-0.2,2-0.6s0.7-0.9,0.7-1.5c0-0.5-0.2-0.9-0.5-1.2
	c-0.4-0.3-0.8-0.4-1.5-0.4c-0.5,0-0.9,0.1-1.3,0.2c-0.4,0.1-0.9,0.4-1.4,0.7l-0.6-0.8c0.4-0.3,0.9-0.6,1.5-0.8
	c0.6-0.2,1.2-0.3,1.8-0.3c1,0,1.8,0.2,2.4,0.7C-585.3,416.8-585,417.4-585,418.3z"/>
<path fill="#231F20" d="M-575.5,423.9h-1.6v2.5h-1.2v-2.5h-5.2v-1.1l5.1-7.2h1.3v7.2h1.6C-575.5,422.8-575.5,423.9-575.5,423.9z
	 M-578.3,422.8v-3.6c0-0.7,0-1.5,0.1-2.4h-0.1c-0.2,0.5-0.5,0.9-0.7,1.2l-3.3,4.8H-578.3z"/>
<path fill="#231F20" d="M-570.1,418.9c0,1.1-0.2,2-0.6,2.5c-0.4,0.6-0.9,0.9-1.6,0.9s-1.2-0.3-1.6-0.9c-0.4-0.6-0.6-1.4-0.6-2.5
	s0.2-1.9,0.5-2.5c0.4-0.6,0.9-0.8,1.6-0.8s1.3,0.3,1.6,0.9C-570.5,417.1-570.1,417.9-570.1,418.9z M-573.5,418.9
	c0,0.8,0.1,1.5,0.3,1.9s0.5,0.6,0.9,0.6c0.8,0,1.2-0.8,1.2-2.5s-0.4-2.5-1.2-2.5c-0.4,0-0.7,0.2-0.9,0.6S-573.5,418.1-573.5,418.9z
	 M-565.5,415.7l-5.9,10.7h-1.1l5.9-10.7H-565.5L-565.5,415.7z M-563.7,423.2c0,1.1-0.2,1.9-0.6,2.5c-0.4,0.6-0.9,0.9-1.6,0.9
	s-1.2-0.3-1.6-0.9c-0.4-0.6-0.6-1.4-0.6-2.5s0.2-1.9,0.5-2.5c0.4-0.6,0.9-0.8,1.6-0.8s1.2,0.3,1.6,0.9
	C-563.8,421.3-563.7,422.1-563.7,423.2z M-567,423.2c0,0.8,0.1,1.5,0.3,1.9s0.5,0.6,0.9,0.6s0.7-0.2,0.9-0.6s0.3-1,0.3-1.9
	c0-0.8-0.1-1.5-0.3-1.9s-0.5-0.6-0.9-0.6s-0.7,0.2-0.9,0.6C-566.9,421.8-567,422.4-567,423.2z"/>
<path fill="#231F20" d="M-596.5,428.7h3c1.4,0,2.4,0.2,3.1,0.6c0.6,0.4,1,1.1,1,2c0,0.6-0.2,1.2-0.5,1.6c-0.4,0.4-0.9,0.7-1.5,0.8
	v0.1c1.6,0.3,2.4,1.1,2.4,2.6c0,1-0.3,1.7-1,2.2c-0.6,0.5-1.6,0.8-2.7,0.8h-3.7L-596.5,428.7L-596.5,428.7z M-595.3,433.3h2.1
	c0.9,0,1.5-0.1,1.9-0.4s0.6-0.7,0.6-1.4c0-0.6-0.2-1-0.6-1.3c-0.4-0.3-1.1-0.4-2.1-0.4h-1.8L-595.3,433.3L-595.3,433.3L-595.3,433.3
	z M-595.3,434.4v4h2.2c0.9,0,1.5-0.2,2-0.5c0.4-0.3,0.7-0.9,0.7-1.6s-0.2-1.2-0.7-1.5c-0.4-0.3-1.1-0.5-2-0.5L-595.3,434.4
	L-595.3,434.4z"/>
<path fill="#231F20" d="M-577.5,434.1c0,1.7-0.4,3.1-1.3,4c-0.9,1-2.1,1.5-3.6,1.5c-1.6,0-2.8-0.5-3.7-1.4c-0.9-1-1.3-2.3-1.3-4.1
	c0-1.7,0.4-3.1,1.3-4.1c0.9-1,2.1-1.4,3.7-1.4c1.5,0,2.7,0.5,3.6,1.5C-578,430.9-577.5,432.4-577.5,434.1z M-586.1,434.1
	c0,1.5,0.3,2.6,0.9,3.3c0.6,0.8,1.5,1.1,2.7,1.1s2.1-0.4,2.7-1.1c0.6-0.7,0.9-1.8,0.9-3.3c0-1.4-0.3-2.5-0.9-3.3
	c-0.6-0.7-1.5-1.1-2.7-1.1s-2.1,0.4-2.7,1.1C-585.8,431.6-586.1,432.7-586.1,434.1z"/>
<path fill="#231F20" d="M-571.8,439.4h-1.2v-9.6h-3.4v-1.1h8v1.1h-3.4L-571.8,439.4L-571.8,439.4z"/>
<path fill="#231F20" d="M-558.7,439.4h-1.2v-5h-5.6v5h-1.2v-10.7h1.2v4.6h5.6v-4.6h1.2V439.4z"/>
</svg>
