<?xml version="1.0" encoding="utf-8"?>
<!-- Generator: Adobe Illustrator 19.1.0, SVG Export Plug-In . SVG Version: 6.00 Build 0)  -->
<svg version="1.1" id="l-icon-1" xmlns="http://www.w3.org/2000/svg" xmlns:xlink="http://www.w3.org/1999/xlink" x="0px" y="0px"
	 width="200px" height="200px" viewBox="-388.8 296.8 200 200" enable-background="new -388.8 296.8 200 200" xml:space="preserve">
<path fill="#1A2C3F" d="M-188.8,400c0,44.6-30.1,82-71.1,93.3c-8.3,2.3-16.8,3.5-25.7,3.5c-12.1,0-23.6-2.2-34.3-6.2
	c-36.5-13.9-62.5-49.2-62.5-90.6c0-41.4,26-76.8,62.5-90.6c10.6-4,22.2-6.2,34.3-6.2c8.9,0,17.5,1.1,25.7,3.4
	c4.2,1.1,8.3,2.6,12.2,4.3c10.2,4.3,19.4,10.3,27.5,17.7C-200.9,346.2-188.8,371.7-188.8,400z"/>
<circle fill="#FCD4BB" cx="-293.4" cy="392.1" r="95.4"/>
<g>
	<g>
		<polygon fill="#F26F5B" points="-308.9,422.7 -308.9,346.9 -258.5,356.4 -258.5,345 -315.3,333.2 -315.3,422.2 		"/>
		<ellipse fill="#F26F5B" cx="-278.4" cy="433.2" rx="20.3" ry="12.4"/>
		<ellipse fill="#F26F5B" cx="-329.2" cy="422.5" rx="20.3" ry="12.4"/>
	</g>
	<polygon fill="#F26F5B" points="-258.1,433.1 -258.5,345 -266.5,343.4 -264.4,432.7 	"/>
</g>
</svg>
