<?xml version="1.0" encoding="utf-8"?>
<!-- Generator: Adobe Illustrator 19.1.0, SVG Export Plug-In . SVG Version: 6.00 Build 0)  -->
<svg version="1.1" id="l-icon-1" xmlns="http://www.w3.org/2000/svg" xmlns:xlink="http://www.w3.org/1999/xlink" x="0px" y="0px"
	 width="200px" height="200px" viewBox="-388.8 296.8 200 200" enable-background="new -388.8 296.8 200 200" xml:space="preserve">
<path fill="#1A2C3F" d="M-188.8,400c0,44.6-30.1,82-71.1,93.3c-8.3,2.3-16.8,3.5-25.7,3.5c-12.1,0-23.6-2.2-34.3-6.2
	c-36.5-13.9-62.5-49.2-62.5-90.6c0-41.4,26-76.8,62.5-90.6c10.6-4,22.2-6.2,34.3-6.2c8.9,0,17.5,1.1,25.7,3.4
	c4.2,1.1,8.3,2.6,12.2,4.3c10.2,4.3,19.4,10.3,27.5,17.7C-200.9,346.2-188.8,371.7-188.8,400z"/>
<path fill="#FDD5BC" d="M-195.1,393.6c0,44.6-30.1,82-71.1,93.3c-8.3,2.3-16.8,3.5-25.7,3.5c-12.1,0-23.6-2.2-34.3-6.2
	c-36.5-13.9-62.5-49.2-62.5-90.6c0-41.4,26-76.8,62.5-90.6c10.6-4,22.2-6.2,34.3-6.2c8.9,0,17.5,1.1,25.7,3.4
	c4.2,1.1,8.3,2.6,12.2,4.3c10.2,4.3,19.4,10.3,27.5,17.7C-207.2,339.8-195.1,365.3-195.1,393.6z"/>
<rect x="-326.2" y="359.3" fill="#FFFFFF" width="60" height="60"/>
<path fill="#FFFFFF" d="M-266.2,300.2v36.4h-60V303c10.7-4.1,22.2-6.2,34.3-6.2C-283,296.8-274.4,298-266.2,300.2z"/>
<path fill="#344B62" d="M-323.8,380.9c0,0,4.8-13.5,12.6-13.5l14.2,20.6c0,0,30.1-65.7,60.8-69.7c0,0-45.8,53.1-52.9,90.3l-5.5,0.8
	L-323.8,380.9z"/>
</svg>
