<?xml version="1.0" encoding="utf-8"?>
<!-- Generator: Adobe Illustrator 19.1.0, SVG Export Plug-In . SVG Version: 6.00 Build 0)  -->
<svg version="1.1" id="l-brain" xmlns="http://www.w3.org/2000/svg" xmlns:xlink="http://www.w3.org/1999/xlink" x="0px" y="0px"
	 width="131.1px" height="304.5px" viewBox="-610.5 396.8 131.1 304.5" enable-background="new -610.5 396.8 131.1 304.5"
	 xml:space="preserve">
<path fill="#1A2C3E" d="M-1121.3,825.8c0-0.2,0-0.4,0.1-0.5s0.2-0.2,0.4-0.2c0.2,0,0.3,0.1,0.4,0.2c0.1,0.1,0.2,0.3,0.2,0.5
	s-0.1,0.4-0.2,0.5c-0.1,0.1-0.3,0.2-0.4,0.2c-0.2,0-0.3-0.1-0.4-0.2C-1121.3,826.2-1121.3,826-1121.3,825.8z"/>
<path fill="#1A2C3F" d="M-490.1,409c0,0,0.5-3.2-7.3-5s-16.5-3.2-23.4,4.1s-18.8,17-18.8,17s-6.9-0.9-12.4,9.2s-7.8,12.4-10.6,13.8
	s-6,8.3-6,9.6c0,1.4-16.1,11.9-17.4,19.7c-1.3,7.8-1.8,11-1.8,11s-8.7,6.4-7.3,14.2c0,0-5.5,7.3-6.4,17.9c-0.9,10.6,0,18.8,4.6,18.8
	c0,0-1.8,23.4,3.2,28.4c0,0,0,28.4,15.6,42.7c0,0-3.2,6.9-1.8,9.6c1.4,2.7,4.1,6,4.6,8.7c0.5,2.7,0,17.4,7.8,21.1
	c0,0,6.4,9.6,6.4,11.5s1.4,15.6,17.4,18.3c0,0,1.4,6.4,10.6,8.3c0,0,5.5,12.8,25.7,13.3c11.7,0.3,19.1-0.9,23.6-3.8
	c4.5-3,5.7-9.1,2.8-13.6c-1.2-1.9-2.4-4-2.6-5.5c-0.5-3.2,5-19.3,2.3-22.9c-2.7-3.6-4.1-12.4-3.7-14.7c0.4-2.3,0-16.1-1.8-16.5
	c-1.8-0.4,2.3-9.2-2.8-17.4c0,0,8.7-15.1,4.1-32.6c0,0,3.7-9.2,2.3-14.7s3.7-13.3-0.9-28.4s0-18.3,0-22.5s-3.7-17.4-3.7-17.4
	s8.7-6.9,5.5-27.1s-4.6-17.9-4.6-17.9s1.4-4.6,0.5-6.9s-1.4-4.1-0.9-6.9C-486.9,429.6-490.1,409-490.1,409L-490.1,409z"/>
<path fill="#FBC5A2" d="M-498.8,403.2c0,0,0.5-3.2-7.3-5s-16.5-3.2-23.4,4.1c-6.9,7.3-18.8,17-18.8,17s-6.9-0.9-12.4,9.2
	s-7.8,12.4-10.6,13.8c-2.8,1.4-6,8.3-6,9.6c0,1.4-16.1,11.9-17.4,19.7c-1.3,7.8-1.8,11-1.8,11s-8.7,6.4-7.3,14.2
	c0,0-5.5,7.3-6.4,17.9c-0.9,10.6,0,18.8,4.6,18.8c0,0-1.8,23.4,3.2,28.4c0,0,0,28.4,15.6,42.7c0,0-3.2,6.9-1.8,9.6s4.1,6,4.6,8.7
	s0,17.4,7.8,21.1c0,0,6.4,9.6,6.4,11.5c0,1.9,1.4,15.6,17.4,18.3c0,0,1.4,6.4,10.6,8.3c0,0,5.5,12.8,25.7,13.3
	c11.7,0.3,19.1-0.9,23.6-3.8c4.5-3,5.7-9.1,2.8-13.6c-1.2-1.9-2.4-4-2.6-5.5c-0.5-3.2,5-19.3,2.3-22.9c-2.7-3.6-4.1-12.4-3.7-14.7
	c0.4-2.3,0-16.1-1.8-16.5c-1.8-0.4,2.3-9.2-2.8-17.4c0,0,8.7-15.1,4.1-32.6c0,0,3.7-9.2,2.3-14.7s3.7-13.3-0.9-28.4
	c-4.6-15.1,0-18.3,0-22.5s-3.7-17.4-3.7-17.4s8.7-6.9,5.5-27.1s-4.6-17.9-4.6-17.9s1.4-4.6,0.5-6.9s-1.4-4.1-0.9-6.9
	C-495.5,423.8-498.8,403.2-498.8,403.2L-498.8,403.2z"/>
<path fill="#B17F60" d="M-548.4,419.3c0,0,4.5,0.8,6.1,7.1s-0.3,10.6-2.1,11.9c-1.8,1.3-6.1,3.7-6.3,6.3c-0.3,2.6-5.3,9.5-5.3,9.5
	s8.2-5.8,8.2-9.2s8.7-5,8.7-7.4S-534.6,419.8-548.4,419.3L-548.4,419.3z"/>
<path fill="#B17F60" d="M-577.3,451.8c0,0,0.4,6,5.7,7.8s9,0.3,9,0.3s-1.1,2.6-11.9,0.3C-585.3,457.8-577.3,451.8-577.3,451.8
	L-577.3,451.8z"/>
<path fill="#B17F60" d="M-596.5,482.6c0,0,7.8-4.7,10.9-0.8c3.1,3.9,9,10.3,5,13.5s-14,6.9-14.5,10.3s0.5,13.5,0.8,14.8
	c0,0,2.1-16.9,13.2-20.6c11.1-3.7,1.3-20.3-1.8-20.9C-586,478.3-595.3,476.7-596.5,482.6z"/>
<path fill="#B17F60" d="M-605.7,533.5c0,0,10.1-2.1,10.6-6.8C-595.1,526.7-591.3,533.7-605.7,533.5z"/>
<path fill="#B17F60" d="M-496.5,485.3c0,0-13.6,3.4-15.2-8.8c-1.6-12.1,2.9-14.8,2.9-14.8s-11.3,11.1-2.4,22.4
	C-502.2,495.6-496.5,485.3-496.5,485.3L-496.5,485.3z"/>
<path fill="#B17F60" d="M-495.6,440.4c0,0-0.8-10.3-7.9-6.6c-5.5,4.5-4.8,12.7-4.8,12.7s-2.1-12.7,3.4-16.1s8.7,0.5,8.7,0.5
	S-494.1,435.6-495.6,440.4L-495.6,440.4z"/>
<path fill="#B17F60" d="M-494.2,568.4c0,0-0.5-12.2-15.2-8.5c-14.8,3.7-17.5,20-17.5,21.2c0,1.2,2.2,12.9-0.3,15.7
	c-2.5,2.8-0.3,13.2-0.3,13.2s-6.2-11.1-3.1-16c3.1-4.9,2.2-10.8,1.2-12.3c-0.9-1.5,5.2-27.1,19.7-28c14.5-0.9,9.8,3.1,12.6,4.3
	c2.8,1.2,5.5-0.6,5.5-0.6S-492.6,567-494.2,568.4L-494.2,568.4z"/>
<path fill="#B17F60" d="M-496,617.8c0,0-4.8,13.7-17.5,7.6c-8-4.9-10.2-7.7-10.2-7.7s7.4,14.8,17.9,13.5c10.5-1.2,12.1-3,12.1-3
	s0-4.5-0.8-7.7C-494.8,619.3-495.5,618.4-496,617.8L-496,617.8z"/>
<path fill="#B17F60" d="M-492.4,672.5c0,0,1-6.7-12.1-5.4c-13.1,1.3-17.6,5.1-21.9,0.8c-4.3-4.3-10.9,1.6-10.9,1.6s6.7-8.8,13.3-5.9
	c6.7,2.9,7.2,4,9.3,2.9C-512.5,665.5-491.2,658.4-492.4,672.5L-492.4,672.5z"/>
<path fill="#B17F60" d="M-542,682.1c0,0-0.2-6,1.7-7.8C-540.2,674.3-544.7,677.2-542,682.1z"/>
<path fill="#B17F60" d="M-586.9,604.6c0,0,6.9-10.8,14.9-8.2c8,2.6,12.8,17.6,12,22.7c0,0,0-24.3-13.3-26.9
	c-13.3-2.7-11.2,2.7-15.2,1.3s-8.5-4.3-8.5-4.3S-593.3,599.7-586.9,604.6z"/>
<path fill="#B17F60" d="M-552.5,673.9c0,0,17.1-12.1,9.3-20.4c-7.7-8.3-10.1-12.8-10.1-12.8s10.7,9.9,13.1,11.2
	c2.4,1.3,6.7,9.3-0.5,15.5c-7.2,6.1-8,11.7-8,11.7S-550.6,678.2-552.5,673.9L-552.5,673.9z"/>
<path fill="#B17F60" d="M-552.4,516.2c0,0-3.6-14.7-14.7-16c0,0,6.5-5.5,13.7,1.3c7.2,6.8,4.9,29.7,2.6,35.9s-5.9,13-2.6,18.3
	c3.3,5.3,10.1,16.9,4.6,21.2c0,0,5.5-5.5-5.2-15.6c-10.8-10.1,0.7-24.8,1.3-27.1C-552.1,531.9-552.4,516.2-552.4,516.2L-552.4,516.2
	z"/>
<path fill="#B17F60" d="M-596.4,542.3c0,0,2,24.8,17.3,35.2s24.4,4.9,24.4,4.9s-10.1,9.5-26.1-2.3
	C-596.8,568.3-596.4,542.3-596.4,542.3L-596.4,542.3z"/>
<path fill="#B17F60" d="M-549.8,485c0,0-3.3,10.8,13.7,14.7s19.2,10.1,13.7,11.7c-5.5,1.6-16.3-4.2-18.9,1
	c-1.9,6.2-1.5,12.5,1.3,18.9c0,0-9.1-15.3-4.9-22.8c4.2-7.5-2.3-8.1-4.9-12.4C-552.4,491.8-549.8,485-549.8,485L-549.8,485z"/>
<path fill="#B17F60" d="M-521.7,476.7c0,0-14.5-5.9-22.6-0.8C-544.3,475.9-534.3,466.2-521.7,476.7z"/>
<path fill="#B17F60" d="M-533,537.8c0,0,17.2,7.8,30.1,0.8s10-13.4,10-13.4s3,13.9-6.2,16.1C-508.2,543.5-526.8,547-533,537.8
	L-533,537.8z"/>
<path fill="#B17F60" d="M-534.6,593c0,0-3-7.3-14.8-6.5c-11.8,0.8-12.9,5.9-12.9,5.9s1.3-8.1,14.8-8.6s14.3-4,14.3-4
	S-537.3,585.5-534.6,593z"/>
<path fill="#B17F60" d="M-561.2,601.4c0,0,6,18.9,6,23.3c0,4.4,8.8,18.2,13.2,20.8c4.4,2.5,8.5,12.9,8.5,12.9s0-15.7-8.5-19.8
	s-10.4-13.8-11-18.9C-553.6,614.6-561.2,601.4-561.2,601.4z"/>
<path fill="#B17F60" d="M-512.7,634.4c0,0,6,8.2,2.5,14.8s-12.6,8.8-12.6,8.8s14.5,1.3,17-3.5C-503.3,649.7-506.4,637.9-512.7,634.4
	L-512.7,634.4z"/>
<path fill="#B17F60" d="M-569.8,465.8c0,0-8.8,9.1-2.9,19.7c5.9,10.6,17.7,6.5,17.7,6.5s-10.6,8-19.1-3.8
	C-582.8,476.4-569.8,465.8-569.8,465.8z"/>
<path fill="#B17F60" d="M-513.9,439.9c0,0,1.8,8.2-3.2,14.1s-13.3,12.1-19.7,13.5c-6.5,1.5-10.3,7.4-10.3,7.4s11.2-7.7,18.6-8.2
	C-521.2,466.1-507.4,450.8-513.9,439.9z"/>
<path fill="#B17F60" d="M-537.5,437.6c0,0,15.3-4.3,19.2-2.3C-518.2,435.4-523.5,427.2-537.5,437.6z"/>
<path fill="#B17F60" d="M-501,493.3c0,0,4.5,9.6,4.9,13.4C-496.1,506.7-492,498-501,493.3z"/>
<path fill="#B17F60" d="M-502.9,427.6c0,0-14.5,0.8-11.7-8.5c0,0,5.5-5.3,5.1-7.2s-7.9-8.9-9.4-1.5c-3,6.8-4,10-6.6,10
	c0,0,7.9-0.8,8.5-5.7s3.4,1.1,1.7,1.7C-517.1,417.1-521.8,432.2-502.9,427.6z"/>
<path fill="#B17F60" d="M-538.7,411.1c0,0-1.7,2.7-1.3,4.1c0.6,2.8,3.9,5.3,7.1,5.4c0,0-5.8-0.6-8.3-2.3s-4.5-1.3-4.5-1.3
	L-538.7,411.1L-538.7,411.1z"/>
</svg>
