<?xml version="1.0" encoding="utf-8"?>
<!-- Generator: Adobe Illustrator 19.1.0, SVG Export Plug-In . SVG Version: 6.00 Build 0)  -->
<svg version="1.1" id="left-hands" xmlns="http://www.w3.org/2000/svg" xmlns:xlink="http://www.w3.org/1999/xlink" x="0px" y="0px"
	 width="283.9px" height="140.3px" viewBox="-469 326.7 283.9 140.3" enable-background="new -469 326.7 283.9 140.3"
	 xml:space="preserve">
<path fill="#C95145" d="M-188.6,333.5h-267.9c-2.2,0-3.9,1.7-3.9,3.9v125.7c0,2.2,1.7,3.9,3.9,3.9h267.9c2.2,0,3.9-1.7,3.9-3.9
	V337.4C-184.7,335.2-186.4,333.5-188.6,333.5z"/>
<path fill="#344B62" d="M-197.7,326.7h-267.8c-2.2,0-3.9,1.7-3.9,3.9v125.7c0,2.2,1.7,3.9,3.9,3.9h267.9c2.2,0,3.9-1.7,3.9-3.9
	V330.6C-193.8,328.4-195.5,326.7-197.7,326.7z"/>
<path fill="#FCD4BB" d="M-262.9,378.3c0.1-0.6,0.4-3.5,0.4-4.2c-0.1-0.7,0.4-1.8,0.4-2c0.1-0.1,0.5-0.7,1-1.6c0.6-1,1-2.8,1.3-3.1
	c0.3-0.4,1.5-2.6,1.9-4s0.8-4.5,1-5.1s0.5-1.5,0.5-2.4s0.5-2.3,0.4-2.5c0-0.2,0-2,1-3.6c0.5-0.8,0.7-1.5,0.8-2
	c0.1-0.7,0.3-1.4,0.6-2.1c0.2-0.4,0.3-0.8,0.3-0.9c0.1-0.3,1.6-3.9,0.8-4.6c-0.7-0.6-1.3-0.6-1.3-0.6c-0.1,0-0.9,0.3-1.6,2.3
	c-0.7,1.9-1,2.4-1.1,2.5c-0.1,0.2-0.6,1.8-0.8,1.9c-0.2,0.2-1.1,2-1.2,2.8c-0.1,0.8-0.6,2.1-1.4,1.7s-0.9-0.8-0.9-1.5s0-3.4,0.4-4.3
	c0.4-0.8,0.2-2.5,0.2-2.6l-0.1-3.7c0-0.2,0.1-4.5-0.4-5.1s-1.1-1.5-2.4-0.9c0,0-0.6,0.1-0.7,2.9c0,2.8,0,4.9-0.2,5.6
	c-0.3,0.7-0.4,3.9-0.4,4.1s0.2,2.7,0,2.7c-0.3,0-1-0.4-1-1.1v-4c0-0.3,0-2.2-0.3-3.4s-0.2-3.4-0.2-3.4s0-3.9-0.1-4.1
	c0-0.2,0.2-1.7-1.5-1.9c-1.6-0.2-1.9,1.7-1.9,1.8s-0.2,3.2-0.2,3.8v3.4c0,0.8,0,3.8,0.2,4.7c0.2,1,0.5,3.6,0.3,3.8
	c-0.3,0.2-1.3,0-1.3-0.3s-1-6.4-1.3-7s-0.7-4-0.7-4s-0.4-4-2.2-4s-1.6,2.4-1.6,3s0.4,2.3,0.4,3.1c0,0.9,0,4,0.5,5.5s1,4.8,0.9,6.6
	s0.2,4-1.5,5.7c-1.7,1.6-4.2-0.4-4.4-0.5c-0.2-0.2-4.2-4.8-8.4-3.7c-0.2,0.1-2.1,1.1-1,2.5c0,0,0.1,0,0.1,0.1
	c0.3,0.1,2.4,0.7,2.8,1.6c0.4,0.8,1.6,1.2,1.9,1.2h0.1c0.3,0.2,2.4,1.9,2.8,3c0.5,1.1,3,2.9,3.5,3.3s2.8,3.1,2.8,3.1
	s1.1,1.4,1.8,1.5c0.1,0,0.1,0.1,0.1,0.1c0,0.4,0.1,1.5-0.5,2.6c-0.7,1.3-0.8,2.7-1.2,3.9c-0.3,1-1.1,2.8-1.3,3.4
	c0,0.1,0,0.2,0.2,0.2h13.7C-263,378.4-263,378.4-262.9,378.3L-262.9,378.3z"/>
<path fill="#FCD4BB" d="M-217,378.3c0.1-0.6,0.4-3.5,0.4-4.2c-0.1-0.7,0.4-1.8,0.4-2c0.1-0.1,0.5-0.7,1-1.6c0.6-1,1-2.8,1.3-3.1
	c0.3-0.4,1.5-2.6,1.9-4s0.8-4.5,1-5.1s0.5-1.5,0.5-2.4s0.5-2.3,0.4-2.5c0-0.2,0-2,1-3.6c0.5-0.8,0.7-1.5,0.8-2
	c0.1-0.7,0.3-1.4,0.6-2.1c0.2-0.4,0.3-0.8,0.3-0.9c0.1-0.3,1.6-3.9,0.8-4.6c-0.7-0.6-1.3-0.6-1.3-0.6c-0.1,0-0.9,0.3-1.6,2.3
	c-0.7,1.9-1,2.4-1.1,2.5c-0.1,0.2-0.6,1.8-0.8,1.9c-0.2,0.2-1.1,2-1.2,2.8c-0.1,0.8-0.6,2.1-1.4,1.7c-0.8-0.4-0.9-0.8-0.9-1.5
	s0-3.4,0.4-4.3c0.4-0.8,0.2-2.5,0.2-2.6l-0.1-3.7c0-0.2,0.1-4.5-0.4-5.1s-1.1-1.5-2.4-0.9c0,0-0.6,0.1-0.7,2.9c0,2.8,0,4.9-0.2,5.6
	c-0.3,0.7-0.4,3.9-0.4,4.1s0.2,2.7,0,2.7c-0.3,0-1-0.4-1-1.1v-4c0-0.3,0-2.2-0.3-3.4s-0.2-3.4-0.2-3.4s0-3.9-0.1-4.1
	c0-0.2,0.2-1.7-1.5-1.9c-1.6-0.2-1.9,1.7-1.9,1.8s-0.2,3.2-0.2,3.8v3.4c0,0.8,0,3.8,0.2,4.7c0.2,1,0.5,3.6,0.3,3.8
	c-0.3,0.2-1.3,0-1.3-0.3s-1-6.4-1.3-7s-0.7-4-0.7-4s-0.4-4-2.2-4s-1.6,2.4-1.6,3s0.4,2.3,0.4,3.1c0,0.9,0,4,0.5,5.5s1,4.8,0.9,6.6
	s0.2,4-1.5,5.7c-1.7,1.6-4.2-0.4-4.4-0.5c-0.2-0.2-4.2-4.8-8.4-3.7c-0.2,0.1-2.1,1.1-1,2.5c0,0,0.1,0,0.1,0.1
	c0.3,0.1,2.4,0.7,2.8,1.6c0.4,0.8,1.6,1.2,1.9,1.2h0.1c0.3,0.2,2.4,1.9,2.8,3c0.5,1.1,3,2.9,3.5,3.3s2.8,3.1,2.8,3.1
	s1.1,1.4,1.8,1.5c0.1,0,0.1,0.1,0.1,0.1c0,0.4,0.1,1.5-0.5,2.6c-0.7,1.3-0.8,2.7-1.2,3.9c-0.3,1-1.1,2.8-1.3,3.4
	c0,0.1,0,0.2,0.2,0.2h13.7C-217.1,378.4-217,378.4-217,378.3z"/>
<path fill="#FCD4BB" d="M-308.8,378.3c0.1-0.6,0.4-3.5,0.4-4.2c-0.1-0.7,0.4-1.8,0.4-2c0.1-0.1,0.5-0.7,1-1.6c0.6-1,1-2.8,1.3-3.1
	c0.3-0.4,1.5-2.6,1.9-4s0.8-4.5,1-5.1s0.5-1.5,0.5-2.4s0.5-2.3,0.4-2.5c0-0.2,0-2,1-3.6c0.5-0.8,0.7-1.5,0.8-2
	c0.1-0.7,0.3-1.4,0.6-2.1c0.2-0.4,0.3-0.8,0.3-0.9c0.1-0.3,1.6-3.9,0.8-4.6c-0.7-0.6-1.3-0.6-1.3-0.6c-0.1,0-0.9,0.3-1.6,2.3
	c-0.7,1.9-1,2.4-1.1,2.5c-0.1,0.2-0.6,1.8-0.8,1.9c-0.2,0.2-1.1,2-1.2,2.8c-0.1,0.7-0.6,2.1-1.4,1.7s-0.9-0.8-0.9-1.5s0-3.4,0.4-4.3
	c0.4-0.8,0.2-2.5,0.2-2.6l-0.1-3.7c0-0.2,0.1-4.5-0.4-5.1s-1.1-1.5-2.4-0.9c0,0-0.6,0.1-0.7,2.9c0,2.8,0,4.9-0.2,5.6
	c-0.3,0.7-0.4,3.9-0.4,4.1s0.2,2.7,0,2.7s-1-0.4-1-1.1v-4c0-0.3,0-2.2-0.3-3.4s-0.2-3.4-0.2-3.4s0-3.9-0.1-4.1
	c0-0.2,0.2-1.7-1.5-1.9c-1.6-0.2-1.9,1.7-1.9,1.8s-0.2,3.2-0.2,3.8v3.4c0,0.8,0,3.8,0.2,4.7c0.2,1,0.5,3.6,0.3,3.8
	c-0.3,0.2-1.3,0-1.3-0.3s-1-6.4-1.3-7s-0.7-4-0.7-4s-0.4-4-2.2-4s-1.6,2.4-1.6,3s0.4,2.3,0.4,3.1c0,0.9,0,4,0.5,5.5s1,4.8,0.9,6.6
	s0.2,4-1.5,5.7c-1.7,1.6-4.2-0.4-4.4-0.5c-0.2-0.2-4.2-4.8-8.4-3.7c-0.2,0.1-2.1,1.1-1,2.5c0,0,0.1,0,0.1,0.1
	c0.3,0.1,2.4,0.7,2.8,1.6c0.4,0.8,1.6,1.2,1.9,1.2h0.1c0.3,0.2,2.4,1.9,2.8,3c0.5,1.1,3,2.9,3.5,3.3s2.8,3.1,2.8,3.1
	s1.1,1.4,1.8,1.5c0.1,0,0.1,0.1,0.1,0.1c0,0.4,0.1,1.5-0.5,2.6c-0.7,1.3-0.8,2.7-1.2,3.9c-0.3,1-1.1,2.8-1.3,3.4
	c0,0.1,0,0.2,0.2,0.2h13.5C-309,378.5-308.8,378.3-308.8,378.3z"/>
<path fill="#FCD4BB" d="M-354.8,378.3C-354.7,378.3-354.7,378.3-354.8,378.3c0.1-0.6,0.4-3.5,0.4-4.2c-0.1-0.7,0.4-1.8,0.4-2
	c0.1-0.1,0.5-0.7,1-1.6c0.6-1,1-2.8,1.3-3.1c0.3-0.4,1.5-2.6,1.9-4s0.8-4.5,1-5.1s0.5-1.5,0.5-2.4s0.5-2.3,0.4-2.5c0-0.2,0-2,1-3.6
	c0.5-0.8,0.7-1.5,0.8-2c0.1-0.7,0.3-1.4,0.6-2.1c0.2-0.4,0.3-0.8,0.3-0.9c0.1-0.3,1.6-3.9,0.8-4.6c-0.7-0.6-1.3-0.6-1.3-0.6
	c-0.1,0-0.9,0.3-1.6,2.3c-0.7,1.9-1,2.4-1.1,2.5c-0.1,0.2-0.6,1.8-0.8,1.9c-0.2,0.2-1.1,2-1.2,2.8c-0.1,0.8-0.6,2.1-1.4,1.7
	s-0.9-0.8-0.9-1.5s0-3.4,0.4-4.3c0.4-0.8,0.2-2.5,0.2-2.6l-0.1-3.7c0-0.2,0.1-4.5-0.4-5.1s-1.1-1.5-2.4-0.9c0,0-0.6,0.1-0.7,2.9
	c0,2.8,0,4.9-0.2,5.6c-0.3,0.7-0.4,3.9-0.4,4.1s0.2,2.7,0,2.7c-0.3,0-1-0.4-1-1.1v-4c0-0.3,0-2.2-0.3-3.4s-0.2-3.4-0.2-3.4
	s0-3.9-0.1-4.1c0-0.2,0.2-1.7-1.5-1.9c-1.6-0.2-1.9,1.7-1.9,1.8s-0.2,3.2-0.2,3.8v3.4c0,0.8,0,3.8,0.2,4.7s0.5,3.6,0.3,3.8
	c-0.3,0.2-1.3,0-1.3-0.3s-1-6.4-1.3-7s-0.7-4-0.7-4s-0.4-4-2.2-4s-1.6,2.4-1.6,3s0.4,2.3,0.4,3.1c0,0.9,0,4,0.5,5.5s1,4.8,0.9,6.6
	s0.2,4-1.5,5.7c-1.7,1.6-4.2-0.4-4.4-0.5c-0.2-0.2-4.2-4.8-8.4-3.7c-0.2,0.1-2.1,1.1-1,2.5c0,0,0.1,0,0.1,0.1
	c0.3,0.1,2.4,0.7,2.8,1.6c0.4,0.8,1.6,1.2,1.9,1.2h0.1c0.3,0.2,2.4,1.9,2.8,3c0.5,1.1,3,2.9,3.5,3.3s2.8,3.1,2.8,3.1
	s1.1,1.4,1.8,1.5c0.1,0,0.1,0.1,0.1,0.1c0,0.4,0.1,1.5-0.5,2.6c-0.7,1.3-0.8,2.7-1.2,3.9c-0.3,1-1.1,2.8-1.3,3.4
	c0,0.1,0,0.2,0.2,0.2h13.7L-354.8,378.3L-354.8,378.3z"/>
<path fill="#F26F5B" d="M-400.7,378.3C-400.6,378.3-400.6,378.3-400.7,378.3c0.1-0.6,0.4-3.5,0.4-4.2c-0.1-0.7,0.4-1.8,0.4-2
	c0.1-0.1,0.5-0.7,1-1.6c0.6-1,1-2.8,1.3-3.1c0.3-0.4,1.5-2.6,1.9-4s0.8-4.5,1-5.1s0.5-1.5,0.5-2.4s0.5-2.3,0.4-2.5c0-0.2,0-2,1-3.6
	c0.5-0.8,0.7-1.5,0.8-2c0.1-0.7,0.3-1.4,0.6-2.1c0.2-0.4,0.3-0.8,0.3-0.9c0.1-0.3,1.6-3.9,0.8-4.6c-0.7-0.6-1.3-0.6-1.3-0.6
	c-0.1,0-0.9,0.3-1.6,2.3c-0.7,1.9-1,2.4-1.1,2.5c-0.1,0.2-0.6,1.8-0.8,1.9c-0.2,0.2-1.1,2-1.2,2.8c-0.1,0.7-0.6,2.1-1.4,1.7
	s-0.9-0.8-0.9-1.5s0-3.4,0.4-4.3c0.4-0.8,0.2-2.5,0.2-2.6l-0.1-3.7c0-0.2,0.1-4.5-0.4-5.1s-1.1-1.6-2.4-0.9c0,0-0.6,0.1-0.7,2.9
	c0,2.8,0,4.9-0.2,5.6c-0.3,0.7-0.4,3.9-0.4,4.1s0.2,2.7,0,2.7s-1-0.4-1-1.1v-4c0-0.3,0-2.2-0.3-3.4s-0.2-3.4-0.2-3.4s0-3.9-0.1-4.1
	c-0.1-0.2,0.2-1.7-1.5-1.9c-1.6-0.2-1.9,1.7-1.9,1.8s-0.2,3.2-0.2,3.8v3.4c0,0.8,0,3.8,0.2,4.7c0.2,1,0.5,3.6,0.3,3.8
	c-0.3,0.2-1.3,0-1.3-0.3s-1-6.4-1.3-7s-0.7-4-0.7-4s-0.4-4-2.2-4s-1.6,2.4-1.6,3s0.4,2.3,0.4,3.1c0,0.9,0,4,0.5,5.5s1,4.8,0.9,6.6
	s0.2,4-1.5,5.7c-1.7,1.5-4.3-0.5-4.5-0.6c-0.2-0.2-4.2-4.8-8.4-3.7c-0.2,0.1-2.1,1.1-1,2.5c0,0,0.1,0,0.1,0.1
	c0.3,0.1,2.4,0.7,2.8,1.6c0.4,0.8,1.6,1.2,1.9,1.2h0.1c0.3,0.2,2.4,1.9,2.8,3c0.5,1.1,3,2.9,3.5,3.3c0.5,0.4,2.8,3.1,2.8,3.1
	s1.1,1.4,1.8,1.5c0.1,0,0.1,0.1,0.1,0.1c0,0.4,0.1,1.5-0.5,2.6c-0.7,1.3-0.8,2.7-1.2,3.9c-0.3,1-1.1,2.8-1.3,3.4
	c0,0.1,0,0.2,0.2,0.2h13.7C-400.7,378.4-400.7,378.4-400.7,378.3L-400.7,378.3z"/>
<path fill="#FCD4BB" d="M-262.9,435.6C-262.9,435.6-262.9,435.5-262.9,435.6c0.1-0.6,0.4-3.5,0.4-4.2c-0.1-0.7,0.4-1.8,0.4-2
	c0.1-0.1,0.5-0.7,1-1.6c0.6-1,1-2.8,1.3-3.1c0.3-0.4,1.5-2.6,1.9-4s0.8-4.5,1-5.1s0.5-1.5,0.5-2.4s0.5-2.3,0.4-2.5c0-0.2,0-2,1-3.6
	c0.5-0.8,0.7-1.5,0.8-2c0.1-0.7,0.3-1.4,0.6-2.1c0.2-0.4,0.3-0.8,0.3-0.9c0.1-0.3,1.6-3.9,0.8-4.6c-0.7-0.6-1.3-0.6-1.3-0.6
	c-0.1,0-0.9,0.3-1.6,2.3c-0.7,1.9-1,2.4-1.1,2.5c-0.1,0.2-0.6,1.8-0.8,1.9c-0.2,0.2-1.1,2-1.2,2.8c-0.1,0.7-0.6,2.1-1.4,1.7
	c-0.8-0.4-0.9-0.8-0.9-1.5s0-3.4,0.4-4.3c0.4-0.8,0.2-2.5,0.2-2.6l-0.1-3.7c0-0.2,0.1-4.5-0.4-5.1s-1.1-1.5-2.4-0.9
	c0,0-0.6,0.1-0.7,2.9c0,2.8,0,4.9-0.2,5.6c-0.3,0.7-0.4,3.9-0.4,4.1c0,0.3,0.2,2.7,0,2.7c-0.3,0-1-0.4-1-1.1v-4c0-0.3,0-2.2-0.3-3.4
	s-0.2-3.4-0.2-3.4s0-3.9-0.1-4.1c-0.1-0.2,0.2-1.7-1.5-1.9c-1.6-0.2-1.9,1.7-1.9,1.8s-0.2,3.2-0.2,3.8v3.4c0,0.8,0,3.8,0.2,4.7
	c0.2,1,0.5,3.6,0.3,3.8c-0.3,0.2-1.3,0-1.3-0.3s-1-6.4-1.3-7s-0.7-4-0.7-4s-0.4-4-2.2-4s-1.6,2.4-1.6,3s0.4,2.3,0.4,3.1s0,4,0.5,5.5
	s1,4.8,0.9,6.6s0.2,4-1.5,5.7c-1.7,1.6-4.2-0.4-4.4-0.5c-0.2-0.2-4.2-4.8-8.4-3.7c-0.2,0.1-2.1,1.1-1,2.5c0,0,0.1,0,0.1,0.1
	c0.3,0.1,2.4,0.7,2.8,1.6c0.4,0.8,1.6,1.2,1.9,1.2h0.1c0.3,0.2,2.4,1.9,2.8,3c0.5,1.1,3,2.9,3.5,3.3c0.5,0.4,2.8,3.1,2.8,3.1
	s1.1,1.4,1.8,1.5c0.1,0,0.1,0.1,0.1,0.1c0,0.4,0.1,1.5-0.5,2.6c-0.7,1.3-0.8,2.7-1.2,3.9c-0.3,1-1.1,2.8-1.3,3.4
	c0,0.1,0,0.2,0.2,0.2h13.7C-263,435.6-263,435.6-262.9,435.6L-262.9,435.6z"/>
<path fill="#FCD4BB" d="M-217,435.6C-217,435.6-217,435.5-217,435.6c0.1-0.6,0.4-3.5,0.4-4.2c-0.1-0.7,0.4-1.8,0.4-2
	c0.1-0.1,0.5-0.7,1-1.6c0.6-1,1-2.8,1.3-3.1c0.3-0.4,1.5-2.6,1.9-4s0.8-4.5,1-5.1s0.5-1.5,0.5-2.4s0.5-2.3,0.4-2.5c0-0.2,0-2,1-3.6
	c0.5-0.8,0.7-1.5,0.8-2c0.1-0.7,0.3-1.4,0.6-2.1c0.2-0.4,0.3-0.8,0.3-0.9c0.1-0.3,1.6-3.9,0.8-4.6c-0.7-0.6-1.3-0.6-1.3-0.6
	c-0.1,0-0.9,0.3-1.6,2.3c-0.7,1.9-1,2.4-1.1,2.5c-0.1,0.2-0.6,1.8-0.8,1.9c-0.2,0.2-1.1,2-1.2,2.8c-0.1,0.7-0.6,2.1-1.4,1.7
	c-0.8-0.4-0.9-0.8-0.9-1.5s0-3.4,0.4-4.3c0.4-0.8,0.2-2.5,0.2-2.6l-0.1-3.7c0-0.2,0.1-4.5-0.4-5.1s-1.1-1.5-2.4-0.9
	c0,0-0.6,0.1-0.7,2.9c-0.1,2.8,0,4.9-0.2,5.6c-0.3,0.7-0.4,3.9-0.4,4.1c0,0.3,0.2,2.7,0,2.7s-1-0.4-1-1.1v-4c0-0.3,0-2.2-0.3-3.4
	s-0.2-3.4-0.2-3.4s0-3.9-0.1-4.1c0-0.2,0.2-1.7-1.5-1.9c-1.6-0.2-1.9,1.7-1.9,1.8s-0.2,3.2-0.2,3.8v3.4c0,0.8,0,3.8,0.2,4.7
	c0.2,1,0.5,3.6,0.3,3.8c-0.3,0.2-1.3,0-1.3-0.3s-1-6.4-1.3-7s-0.7-4-0.7-4s-0.4-4-2.2-4s-1.6,2.4-1.6,3s0.4,2.3,0.4,3.1s0,4,0.5,5.5
	s1,4.8,0.9,6.6s0.2,4-1.5,5.7c-1.7,1.6-4.2-0.4-4.4-0.5c-0.2-0.2-4.2-4.8-8.4-3.7c-0.2,0.1-2.1,1.1-1,2.5c0,0,0.1,0,0.1,0.1
	c0.3,0.1,2.4,0.7,2.8,1.6c0.4,0.8,1.6,1.2,1.9,1.2h0.1c0.3,0.2,2.4,1.9,2.8,3c0.5,1.1,3,2.9,3.5,3.3c0.5,0.4,2.8,3.1,2.8,3.1
	s1.1,1.4,1.8,1.5c0.1,0,0.1,0.1,0.1,0.1c0,0.4,0.1,1.5-0.5,2.6c-0.7,1.3-0.8,2.7-1.2,3.9c-0.3,1-1.1,2.8-1.3,3.4
	c0,0.1,0,0.2,0.2,0.2h13.7C-217.1,435.6-217,435.6-217,435.6z"/>
<path fill="#FCD4BB" d="M-308.8,435.6C-308.8,435.6-308.8,435.5-308.8,435.6c0.1-0.6,0.4-3.5,0.4-4.2c-0.1-0.7,0.4-1.8,0.4-2
	c0.1-0.1,0.5-0.7,1-1.6c0.6-1,1-2.8,1.3-3.1c0.3-0.4,1.5-2.6,1.9-4s0.8-4.5,1-5.1s0.5-1.5,0.5-2.4s0.5-2.3,0.4-2.5c0-0.2,0-2,1-3.6
	c0.5-0.8,0.7-1.5,0.8-2c0.1-0.7,0.3-1.4,0.6-2.1c0.2-0.4,0.3-0.8,0.3-0.9c0.1-0.3,1.6-3.9,0.8-4.6c-0.7-0.6-1.3-0.6-1.3-0.6
	c-0.1,0-0.9,0.3-1.6,2.3c-0.7,1.9-1,2.4-1.1,2.5c-0.1,0.2-0.6,1.8-0.8,1.9c-0.2,0.2-1.1,2-1.2,2.8c-0.1,0.7-0.6,2.1-1.4,1.7
	c-0.8-0.4-0.9-0.8-0.9-1.5s0-3.4,0.4-4.3c0.4-0.8,0.2-2.5,0.2-2.6l-0.1-3.7c0-0.2,0.1-4.5-0.4-5.1s-1.1-1.5-2.4-0.9
	c0,0-0.6,0.1-0.7,2.9c0,2.8,0,4.9-0.2,5.6c-0.3,0.7-0.4,3.9-0.4,4.1c0,0.3,0.2,2.7,0,2.7s-1-0.4-1-1.1v-4c0-0.3,0-2.2-0.3-3.4
	s-0.2-3.4-0.2-3.4s0-3.9-0.1-4.1c0-0.2,0.2-1.7-1.5-1.9c-1.6-0.2-1.9,1.7-1.9,1.8s-0.2,3.2-0.2,3.8v3.4c0,0.8,0,3.8,0.2,4.7
	c0.2,1,0.5,3.6,0.3,3.8s-1.3,0-1.3-0.3s-1-6.4-1.3-7s-0.7-4-0.7-4s-0.4-4-2.2-4s-1.6,2.4-1.6,3s0.4,2.3,0.4,3.1s0,4,0.5,5.5
	s1,4.8,0.9,6.6s0.2,4-1.5,5.7c-1.7,1.6-4.2-0.4-4.4-0.5c-0.2-0.2-4.2-4.8-8.4-3.7c-0.2,0.1-2.1,1.1-1,2.5c0,0,0.1,0,0.1,0.1
	c0.3,0.1,2.4,0.7,2.8,1.6c0.4,0.8,1.6,1.2,1.9,1.2h0.1c0.3,0.2,2.4,1.9,2.8,3c0.5,1.1,3,2.9,3.5,3.3c0.5,0.4,2.8,3.1,2.8,3.1
	s1.1,1.4,1.8,1.5c0.1,0,0.1,0.1,0.1,0.1c0,0.4,0.1,1.5-0.5,2.6c-0.7,1.3-0.8,2.7-1.2,3.9c-0.3,1-1.1,2.8-1.3,3.4
	c0,0.1,0,0.2,0.2,0.2h13.5C-308.9,435.6-308.9,435.6-308.8,435.6z"/>
<path fill="#FCD4BB" d="M-354.8,435.6C-354.7,435.6-354.7,435.5-354.8,435.6c0.1-0.6,0.4-3.5,0.4-4.2c-0.1-0.7,0.4-1.8,0.4-2
	c0.1-0.1,0.5-0.7,1-1.6c0.6-1,1-2.8,1.3-3.1c0.3-0.4,1.5-2.6,1.9-4s0.8-4.5,1-5.1s0.5-1.5,0.5-2.4s0.5-2.3,0.4-2.5c0-0.2,0-2,1-3.6
	c0.5-0.8,0.7-1.5,0.8-2c0.1-0.7,0.3-1.4,0.6-2.1c0.2-0.4,0.3-0.8,0.3-0.9c0.1-0.3,1.6-3.9,0.8-4.6c-0.7-0.6-1.3-0.6-1.3-0.6
	c-0.1,0-0.9,0.3-1.6,2.3c-0.7,1.9-1,2.4-1.1,2.5c-0.1,0.2-0.6,1.8-0.8,1.9c-0.2,0.2-1.1,2-1.2,2.8c-0.1,0.7-0.6,2.1-1.4,1.7
	c-0.8-0.4-0.9-0.8-0.9-1.5s0-3.4,0.4-4.3c0.4-0.8,0.2-2.5,0.2-2.6l-0.1-3.7c0-0.2,0.1-4.5-0.4-5.1s-1.1-1.5-2.4-0.9
	c0,0-0.6,0.1-0.7,2.9c-0.1,2.8,0,4.9-0.2,5.6c-0.3,0.7-0.4,3.9-0.4,4.1c0,0.3,0.2,2.7,0,2.7c-0.3,0-1-0.4-1-1.1v-4
	c0-0.3,0-2.2-0.3-3.4s-0.2-3.4-0.2-3.4s0-3.9-0.1-4.1c0-0.2,0.2-1.7-1.5-1.9c-1.6-0.2-1.9,1.7-1.9,1.8s-0.2,3.2-0.2,3.8v3.4
	c0,0.8,0,3.8,0.2,4.7c0.2,1,0.5,3.6,0.3,3.8c-0.3,0.2-1.3,0-1.3-0.3s-1-6.4-1.3-7s-0.7-4-0.7-4s-0.4-4-2.2-4s-1.6,2.4-1.6,3
	s0.4,2.3,0.4,3.1s0,4,0.5,5.5s1,4.8,0.9,6.6s0.2,4-1.5,5.7c-1.7,1.6-4.2-0.4-4.4-0.5c-0.2-0.2-4.2-4.8-8.4-3.7
	c-0.2,0.1-2.1,1.1-1,2.5c0,0,0.1,0,0.1,0.1c0.3,0.1,2.4,0.7,2.8,1.6c0.4,0.8,1.6,1.2,1.9,1.2h0.1c0.3,0.2,2.4,1.9,2.8,3
	c0.5,1.1,3,2.9,3.5,3.3c0.5,0.4,2.8,3.1,2.8,3.1s1.1,1.4,1.8,1.5c0.1,0,0.1,0.1,0.1,0.1c0,0.4,0.1,1.5-0.5,2.6
	c-0.7,1.3-0.8,2.7-1.2,3.9c-0.3,1-1.1,2.8-1.3,3.4c0,0.1,0,0.2,0.2,0.2h13.7L-354.8,435.6L-354.8,435.6z"/>
<path fill="#FCD4BB" d="M-400.7,435.6C-400.6,435.6-400.6,435.5-400.7,435.6c0.1-0.6,0.4-3.5,0.4-4.2c-0.1-0.7,0.4-1.8,0.4-2
	c0.1-0.1,0.5-0.7,1-1.6c0.6-1,1-2.8,1.3-3.1s1.5-2.6,1.9-4s0.8-4.5,1-5.1s0.5-1.5,0.5-2.4s0.5-2.3,0.4-2.5c0-0.2,0-2,1-3.6
	c0.5-0.8,0.7-1.5,0.8-2c0.1-0.7,0.3-1.4,0.6-2.1c0.2-0.4,0.3-0.8,0.3-0.9c0.1-0.3,1.6-3.9,0.8-4.6c-0.7-0.6-1.3-0.6-1.3-0.6
	c-0.1,0-0.9,0.3-1.6,2.3c-0.7,1.9-1,2.4-1.1,2.5c-0.1,0.2-0.6,1.8-0.8,1.9c-0.2,0.2-1.1,2-1.2,2.8c-0.1,0.7-0.6,2.1-1.4,1.7
	c-0.8-0.4-0.9-0.8-0.9-1.5s0-3.4,0.4-4.3c0.4-0.9,0.2-2.6,0.2-2.6l-0.1-3.7c0-0.2,0.1-4.5-0.4-5.1s-1.1-1.5-2.4-0.9
	c0,0-0.6,0.1-0.7,2.9c0,2.8,0,4.9-0.2,5.6c-0.3,0.7-0.4,3.9-0.4,4.1c0,0.3,0.2,2.7,0,2.7s-1-0.4-1-1.1v-4c0-0.3,0-2.2-0.3-3.4
	s-0.2-3.4-0.2-3.4s0-3.9-0.1-4.1c-0.1-0.2,0.2-1.7-1.5-1.9c-1.6-0.2-1.9,1.7-1.9,1.8s-0.2,3.2-0.2,3.8v3.4c0,0.8,0,3.8,0.2,4.7
	c0.2,1,0.5,3.6,0.3,3.8c-0.3,0.2-1.3,0-1.3-0.3s-1-6.4-1.3-7s-0.7-4-0.7-4s-0.4-4-2.2-4s-1.6,2.4-1.6,3s0.4,2.3,0.4,3.1s0,4,0.5,5.5
	s1,4.8,0.9,6.6s0.2,4-1.5,5.7c-1.7,1.6-4.2-0.4-4.4-0.5c-0.2-0.2-4.2-4.8-8.4-3.7c-0.2,0.1-2.1,1.1-1,2.5c0,0,0.1,0,0.1,0.1
	c0.3,0.1,2.4,0.7,2.8,1.6c0.4,0.8,1.6,1.2,1.9,1.2h0.1c0.3,0.2,2.4,1.9,2.8,3c0.5,1.1,3,2.9,3.5,3.3c0.5,0.4,2.8,3.1,2.8,3.1
	s1.1,1.4,1.8,1.5c0.1,0,0.1,0.1,0.1,0.1c0,0.4,0.1,1.5-0.5,2.6c-0.7,1.3-0.8,2.7-1.2,3.9c-0.3,1-1.1,2.8-1.3,3.4
	c0,0.1,0,0.2,0.2,0.2h13.7L-400.7,435.6L-400.7,435.6z"/>
</svg>
