<svg xmlns="http://www.w3.org/2000/svg" id="Layer_1" viewBox="0 0 283.9 140.3">
  <style>
    .st0{fill:#C95145;} .st1{fill:#344B62;} .st2{fill:#FCD4BB;} .st3{fill:#F26F5B;}
  </style>
  <path d="M280.4 6.8H12.5c-2.2 0-3.9 1.7-3.9 3.9v125.7c0 2.2 1.7 3.9 3.9 3.9h267.9c2.2 0 3.9-1.7 3.9-3.9V10.7c0-2.2-1.7-3.9-3.9-3.9z" class="st0"/>
  <path d="M271.3 0H3.5C1.3 0-.4 1.7-.4 3.9v125.7c0 2.2 1.7 3.9 3.9 3.9h267.9c2.2 0 3.9-1.7 3.9-3.9V3.9c-.1-2.2-1.8-3.9-4-3.9z" class="st1"/>
  <path d="M206.1 51.6c.1-.6.4-3.5.4-4.2-.1-.7.4-1.8.4-2 .1-.1.5-.7 1-1.6.6-1 1-2.8 1.3-3.1.3-.4 1.5-2.6 1.9-4s.8-4.5 1-5.1c.2-.6.5-1.5.5-2.4s.5-2.3.4-2.5c0-.2 0-2 1-3.6.5-.8.7-1.5.8-2 .1-.7.3-1.4.6-2.1.2-.4.3-.8.3-.9.1-.3 1.6-3.9.8-4.6-.7-.6-1.3-.6-1.3-.6-.1 0-.9.3-1.6 2.3-.7 1.9-1 2.4-1.1 2.5-.1.2-.6 1.8-.8 1.9-.2.2-1.1 2-1.2 2.8s-.6 2.1-1.4 1.7c-.8-.4-.9-.8-.9-1.5s0-3.4.4-4.3c.4-.8.2-2.5.2-2.6l-.1-3.7c0-.2.1-4.5-.4-5.1-.5-.6-1.1-1.5-2.4-.9 0 0-.6.1-.7 2.9 0 2.8 0 4.9-.2 5.6-.3.7-.4 3.9-.4 4.1s.2 2.7 0 2.7c-.3 0-1-.4-1-1.1v-4c0-.3 0-2.2-.3-3.4-.3-1.2-.2-3.4-.2-3.4s0-3.9-.1-4.1c0-.2.2-1.7-1.5-1.9-1.6-.2-1.9 1.7-1.9 1.8 0 .1-.2 3.2-.2 3.8v3.4c0 .8 0 3.8.2 4.7.2 1 .5 3.6.3 3.8-.3.2-1.3 0-1.3-.3s-1-6.4-1.3-7c-.3-.6-.7-4-.7-4s-.4-4-2.2-4c-1.8 0-1.6 2.4-1.6 3s.4 2.3.4 3.1c0 .9 0 4 .5 5.5s1 4.8.9 6.6.2 4-1.5 5.7c-1.7 1.6-4.2-.4-4.4-.5-.2-.2-4.2-4.8-8.4-3.7-.2.1-2.1 1.1-1 2.5 0 0 .1 0 .1.1.3.1 2.4.7 2.8 1.6.4.8 1.6 1.2 1.9 1.2h.1c.3.2 2.4 1.9 2.8 3 .5 1.1 3 2.9 3.5 3.3s2.8 3.1 2.8 3.1 1.1 1.4 1.8 1.5c.1 0 .1.1.1.1 0 .4.1 1.5-.5 2.6-.7 1.3-.8 2.7-1.2 3.9-.3 1-1.1 2.8-1.3 3.4 0 .1 0 .2.2.2h13.7c-.1-.1-.1-.1 0-.2z" class="st2"/>
  <path d="M252 51.6c.1-.6.4-3.5.4-4.2-.1-.7.4-1.8.4-2 .1-.1.5-.7 1-1.6.6-1 1-2.8 1.3-3.1.3-.4 1.5-2.6 1.9-4 .4-1.4.8-4.5 1-5.1.2-.6.5-1.5.5-2.4s.5-2.3.4-2.5c0-.2 0-2 1-3.6.5-.8.7-1.5.8-2 .1-.7.3-1.4.6-2.1.2-.4.3-.8.3-.9.1-.3 1.6-3.9.8-4.6-.7-.6-1.3-.6-1.3-.6-.1 0-.9.3-1.6 2.3-.7 1.9-1 2.4-1.1 2.5-.1.2-.6 1.8-.8 1.9-.2.2-1.1 2-1.2 2.8s-.6 2.1-1.4 1.7c-.8-.4-.9-.8-.9-1.5s0-3.4.4-4.3c.4-.8.2-2.5.2-2.6l-.1-3.7c0-.2.1-4.5-.4-5.1-.5-.6-1.1-1.5-2.4-.9 0 0-.6.1-.7 2.9 0 2.8 0 4.9-.2 5.6-.3.7-.4 3.9-.4 4.1s.2 2.7 0 2.7c-.3 0-1-.4-1-1.1v-4c0-.3 0-2.2-.3-3.4-.3-1.2-.2-3.4-.2-3.4s0-3.9-.1-4.1c0-.2.2-1.7-1.5-1.9-1.6-.2-1.9 1.7-1.9 1.8 0 .1-.2 3.2-.2 3.8v3.4c0 .8 0 3.8.2 4.7.2 1 .5 3.6.3 3.8-.3.2-1.3 0-1.3-.3s-1-6.4-1.3-7c-.3-.6-.7-4-.7-4s-.4-4-2.2-4c-1.8 0-1.6 2.4-1.6 3s.4 2.3.4 3.1c0 .9 0 4 .5 5.5s1 4.8.9 6.6.2 4-1.5 5.7c-1.7 1.6-4.2-.4-4.4-.5-.2-.2-4.2-4.8-8.4-3.7-.2.1-2.1 1.1-1 2.5 0 0 .1 0 .1.1.3.1 2.4.7 2.8 1.6.4.8 1.6 1.2 1.9 1.2h.1c.3.2 2.4 1.9 2.8 3 .5 1.1 3 2.9 3.5 3.3s2.8 3.1 2.8 3.1 1.1 1.4 1.8 1.5c.1 0 .1.1.1.1 0 .4.1 1.5-.5 2.6-.7 1.3-.8 2.7-1.2 3.9-.3 1-1.1 2.8-1.3 3.4 0 .1 0 .2.2.2H252c-.1-.1 0-.1 0-.2z" class="st2"/>
  <path d="M160.2 51.6c.1-.6.4-3.5.4-4.2-.1-.7.4-1.8.4-2 .1-.1.5-.7 1-1.6.6-1 1-2.8 1.3-3.1.3-.4 1.5-2.6 1.9-4 .4-1.4.8-4.5 1-5.1s.5-1.5.5-2.4.5-2.3.4-2.5c0-.2 0-2 1-3.6.5-.8.7-1.5.8-2 .1-.7.3-1.4.6-2.1.2-.4.3-.8.3-.9.1-.3 1.6-3.9.8-4.6-.7-.6-1.3-.6-1.3-.6-.1 0-.9.3-1.6 2.3-.7 1.9-1 2.4-1.1 2.5-.1.2-.6 1.8-.8 1.9-.2.2-1.1 2-1.2 2.8-.1.7-.6 2.1-1.4 1.7-.8-.4-.9-.8-.9-1.5s0-3.4.4-4.3c.4-.8.2-2.5.2-2.6l-.1-3.7c0-.2.1-4.5-.4-5.1-.5-.6-1.1-1.5-2.4-.9 0 0-.6.1-.7 2.9 0 2.8 0 4.9-.2 5.6-.3.7-.4 3.9-.4 4.1s.2 2.7 0 2.7-1-.4-1-1.1v-4c0-.3 0-2.2-.3-3.4-.3-1.2-.2-3.4-.2-3.4s0-3.9-.1-4.1c0-.2.2-1.7-1.5-1.9-1.6-.2-1.9 1.7-1.9 1.8 0 .1-.2 3.2-.2 3.8v3.4c0 .8 0 3.8.2 4.7.2 1 .5 3.6.3 3.8-.3.2-1.3 0-1.3-.3s-1-6.4-1.3-7c-.3-.6-.7-4-.7-4s-.4-4-2.2-4c-1.8 0-1.6 2.4-1.6 3s.4 2.3.4 3.1c0 .9 0 4 .5 5.5s1 4.8.9 6.6c-.1 1.8.2 4-1.5 5.7-1.7 1.6-4.2-.4-4.4-.5-.2-.2-4.2-4.8-8.4-3.7-.2.1-2.1 1.1-1 2.5 0 0 .1 0 .1.1.3.1 2.4.7 2.8 1.6.4.8 1.6 1.2 1.9 1.2h.1c.3.2 2.4 1.9 2.8 3 .5 1.1 3 2.9 3.5 3.3.5.4 2.8 3.1 2.8 3.1s1.1 1.4 1.8 1.5c.1 0 .1.1.1.1 0 .4.1 1.5-.5 2.6-.7 1.3-.8 2.7-1.2 3.9-.3 1-1.1 2.8-1.3 3.4 0 .1 0 .2.2.2H160l.2-.2z" class="st2"/>
  <path d="M114.2 51.6c.1 0 .1 0 0 0 .1-.6.4-3.5.4-4.2-.1-.7.4-1.8.4-2 .1-.1.5-.7 1-1.6.6-1 1-2.8 1.3-3.1.3-.4 1.5-2.6 1.9-4 .4-1.4.8-4.5 1-5.1.2-.6.5-1.5.5-2.4s.5-2.3.4-2.5c0-.2 0-2 1-3.6.5-.8.7-1.5.8-2 .1-.7.3-1.4.6-2.1.2-.4.3-.8.3-.9.1-.3 1.6-3.9.8-4.6-.7-.6-1.3-.6-1.3-.6-.1 0-.9.3-1.6 2.3-.7 1.9-1 2.4-1.1 2.5-.1.2-.6 1.8-.8 1.9-.2.2-1.1 2-1.2 2.8s-.6 2.1-1.4 1.7c-.8-.4-.9-.8-.9-1.5s0-3.4.4-4.3c.4-.8.2-2.5.2-2.6l-.1-3.7c0-.2.1-4.5-.4-5.1-.5-.6-1.1-1.5-2.4-.9 0 0-.6.1-.7 2.9 0 2.8 0 4.9-.2 5.6-.3.7-.4 3.9-.4 4.1s.2 2.7 0 2.7c-.3 0-1-.4-1-1.1v-4c0-.3 0-2.2-.3-3.4-.3-1.2-.2-3.4-.2-3.4s0-3.9-.1-4.1c0-.2.2-1.7-1.5-1.9-1.6-.2-1.9 1.7-1.9 1.8 0 .1-.2 3.2-.2 3.8v3.4c0 .8 0 3.8.2 4.7s.5 3.6.3 3.8c-.3.2-1.3 0-1.3-.3s-1-6.4-1.3-7c-.3-.6-.7-4-.7-4s-.4-4-2.2-4c-1.8 0-1.6 2.4-1.6 3s.4 2.3.4 3.1c0 .9 0 4 .5 5.5s1 4.8.9 6.6c-.1 1.8.2 4-1.5 5.7-1.7 1.6-4.2-.4-4.4-.5-.2-.2-4.2-4.8-8.4-3.7-.2.1-2.1 1.1-1 2.5 0 0 .1 0 .1.1.3.1 2.4.7 2.8 1.6.4.8 1.6 1.2 1.9 1.2h.1c.3.2 2.4 1.9 2.8 3 .5 1.1 3 2.9 3.5 3.3.5.4 2.8 3.1 2.8 3.1s1.1 1.4 1.8 1.5c.1 0 .1.1.1.1 0 .4.1 1.5-.5 2.6-.7 1.3-.8 2.7-1.2 3.9-.3 1-1.1 2.8-1.3 3.4 0 .1 0 .2.2.2h13.7v-.2z" class="st2"/>
  <path d="M68.3 51.6c.1 0 .1 0 0 0 .1-.6.4-3.5.4-4.2-.1-.7.4-1.8.4-2 .1-.1.5-.7 1-1.6.6-1 1-2.8 1.3-3.1.3-.4 1.5-2.6 1.9-4 .4-1.4.8-4.5 1-5.1s.5-1.5.5-2.4.5-2.3.4-2.5c0-.2 0-2 1-3.6.5-.8.7-1.5.8-2 .1-.7.3-1.4.6-2.1.2-.4.3-.8.3-.9.1-.3 1.6-3.9.8-4.6-.7-.6-1.3-.6-1.3-.6-.1 0-.9.3-1.6 2.3-.7 1.9-1 2.4-1.1 2.5-.1.2-.6 1.8-.8 1.9-.2.2-1.1 2-1.2 2.8-.1.7-.6 2.1-1.4 1.7-.8-.4-.9-.8-.9-1.5s0-3.4.4-4.3c.4-.8.2-2.5.2-2.6l-.1-3.7c0-.2.1-4.5-.4-5.1-.5-.6-1.1-1.6-2.4-.9 0 0-.6.1-.7 2.9 0 2.8 0 4.9-.2 5.6-.3.7-.4 3.9-.4 4.1s.2 2.7 0 2.7-1-.4-1-1.1v-4c0-.3 0-2.2-.3-3.4s-.2-3.4-.2-3.4 0-3.9-.1-4.1.2-1.7-1.5-1.9c-1.6-.2-1.9 1.7-1.9 1.8 0 .1-.2 3.2-.2 3.8v3.4c0 .8 0 3.8.2 4.7.2 1 .5 3.6.3 3.8-.3.2-1.3 0-1.3-.3s-1-6.4-1.3-7c-.3-.6-.7-4-.7-4s-.4-4-2.2-4c-1.8 0-1.6 2.4-1.6 3s.4 2.3.4 3.1c0 .9 0 4 .5 5.5s1 4.8.9 6.6c-.1 1.8.2 4-1.5 5.7-1.7 1.5-4.3-.5-4.5-.6-.2-.2-4.2-4.8-8.4-3.7-.2.1-2.1 1.1-1 2.5 0 0 .1 0 .1.1.3.1 2.4.7 2.8 1.6.4.8 1.6 1.2 1.9 1.2h.1c.3.2 2.4 1.9 2.8 3 .5 1.1 3 2.9 3.5 3.3.5.4 2.8 3.1 2.8 3.1s1.1 1.4 1.8 1.5c.1 0 .1.1.1.1 0 .4.1 1.5-.5 2.6-.7 1.3-.8 2.7-1.2 3.9-.3 1-1.1 2.8-1.3 3.4 0 .1 0 .2.2.2h13.7c.1 0 .1 0 .1-.1z" class="st3"/>
  <path d="M206.1 108.9s0-.1 0 0c.1-.6.4-3.5.4-4.2-.1-.7.4-1.8.4-2 .1-.1.5-.7 1-1.6.6-1 1-2.8 1.3-3.1.3-.4 1.5-2.6 1.9-4s.8-4.5 1-5.1c.2-.6.5-1.5.5-2.4s.5-2.3.4-2.5c0-.2 0-2 1-3.6.5-.8.7-1.5.8-2 .1-.7.3-1.4.6-2.1.2-.4.3-.8.3-.9.1-.3 1.6-3.9.8-4.6-.7-.6-1.3-.6-1.3-.6-.1 0-.9.3-1.6 2.3-.7 1.9-1 2.4-1.1 2.5-.1.2-.6 1.8-.8 1.9-.2.2-1.1 2-1.2 2.8-.1.7-.6 2.1-1.4 1.7-.8-.4-.9-.8-.9-1.5s0-3.4.4-4.3c.4-.8.2-2.5.2-2.6l-.1-3.7c0-.2.1-4.5-.4-5.1-.5-.6-1.1-1.5-2.4-.9 0 0-.6.1-.7 2.9 0 2.8 0 4.9-.2 5.6-.3.7-.4 3.9-.4 4.1 0 .3.2 2.7 0 2.7-.3 0-1-.4-1-1.1v-4c0-.3 0-2.2-.3-3.4-.3-1.2-.2-3.4-.2-3.4s0-3.9-.1-4.1.2-1.7-1.5-1.9c-1.6-.2-1.9 1.7-1.9 1.8 0 .1-.2 3.2-.2 3.8v3.4c0 .8 0 3.8.2 4.7.2 1 .5 3.6.3 3.8-.3.2-1.3 0-1.3-.3s-1-6.4-1.3-7c-.3-.6-.7-4-.7-4s-.4-4-2.2-4c-1.8 0-1.6 2.4-1.6 3s.4 2.3.4 3.1 0 4 .5 5.5 1 4.8.9 6.6.2 4-1.5 5.7c-1.7 1.6-4.2-.4-4.4-.5-.2-.2-4.2-4.8-8.4-3.7-.2.1-2.1 1.1-1 2.5 0 0 .1 0 .1.1.3.1 2.4.7 2.8 1.6.4.8 1.6 1.2 1.9 1.2h.1c.3.2 2.4 1.9 2.8 3 .5 1.1 3 2.9 3.5 3.3.5.4 2.8 3.1 2.8 3.1s1.1 1.4 1.8 1.5c.1 0 .1.1.1.1 0 .4.1 1.5-.5 2.6-.7 1.3-.8 2.7-1.2 3.9-.3 1-1.1 2.8-1.3 3.4 0 .1 0 .2.2.2h13.7c-.1-.2-.1-.2 0-.2z" class="st2"/>
  <path d="M252 108.9s0-.1 0 0c.1-.6.4-3.5.4-4.2-.1-.7.4-1.8.4-2 .1-.1.5-.7 1-1.6.6-1 1-2.8 1.3-3.1.3-.4 1.5-2.6 1.9-4 .4-1.4.8-4.5 1-5.1.2-.6.5-1.5.5-2.4s.5-2.3.4-2.5c0-.2 0-2 1-3.6.5-.8.7-1.5.8-2 .1-.7.3-1.4.6-2.1.2-.4.3-.8.3-.9.1-.3 1.6-3.9.8-4.6-.7-.6-1.3-.6-1.3-.6-.1 0-.9.3-1.6 2.3-.7 1.9-1 2.4-1.1 2.5-.1.2-.6 1.8-.8 1.9-.2.2-1.1 2-1.2 2.8-.1.7-.6 2.1-1.4 1.7-.8-.4-.9-.8-.9-1.5s0-3.4.4-4.3c.4-.8.2-2.5.2-2.6l-.1-3.7c0-.2.1-4.5-.4-5.1-.5-.6-1.1-1.5-2.4-.9 0 0-.6.1-.7 2.9s0 4.9-.2 5.6c-.3.7-.4 3.9-.4 4.1 0 .3.2 2.7 0 2.7s-1-.4-1-1.1v-4c0-.3 0-2.2-.3-3.4-.3-1.2-.2-3.4-.2-3.4s0-3.9-.1-4.1c0-.2.2-1.7-1.5-1.9-1.6-.2-1.9 1.7-1.9 1.8 0 .1-.2 3.2-.2 3.8v3.4c0 .8 0 3.8.2 4.7.2 1 .5 3.6.3 3.8-.3.2-1.3 0-1.3-.3s-1-6.4-1.3-7-.7-4-.7-4-.4-4-2.2-4c-1.8 0-1.6 2.4-1.6 3s.4 2.3.4 3.1 0 4 .5 5.5 1 4.8.9 6.6.2 4-1.5 5.7c-1.7 1.6-4.2-.4-4.4-.5-.2-.2-4.2-4.8-8.4-3.7-.2.1-2.1 1.1-1 2.5 0 0 .1 0 .1.1.3.1 2.4.7 2.8 1.6.4.8 1.6 1.2 1.9 1.2h.1c.3.2 2.4 1.9 2.8 3 .5 1.1 3 2.9 3.5 3.3.5.4 2.8 3.1 2.8 3.1s1.1 1.4 1.8 1.5c.1 0 .1.1.1.1 0 .4.1 1.5-.5 2.6-.7 1.3-.8 2.7-1.2 3.9-.3 1-1.1 2.8-1.3 3.4 0 .1 0 .2.2.2H252c-.1-.2 0-.2 0-.2z" class="st2"/>
  <path d="M160.2 108.9s0-.1 0 0c.1-.6.4-3.5.4-4.2-.1-.7.4-1.8.4-2 .1-.1.5-.7 1-1.6.6-1 1-2.8 1.3-3.1.3-.4 1.5-2.6 1.9-4s.8-4.5 1-5.1c.2-.6.5-1.5.5-2.4s.5-2.3.4-2.5c0-.2 0-2 1-3.6.5-.8.7-1.5.8-2 .1-.7.3-1.4.6-2.1.2-.4.3-.8.3-.9.1-.3 1.6-3.9.8-4.6-.7-.6-1.3-.6-1.3-.6-.1 0-.9.3-1.6 2.3-.7 1.9-1 2.4-1.1 2.5-.1.2-.6 1.8-.8 1.9-.2.2-1.1 2-1.2 2.8-.1.7-.6 2.1-1.4 1.7s-.9-.8-.9-1.5 0-3.4.4-4.3c.4-.8.2-2.5.2-2.6l-.1-3.7c0-.2.1-4.5-.4-5.1-.5-.6-1.1-1.5-2.4-.9 0 0-.6.1-.7 2.9 0 2.8 0 4.9-.2 5.6-.3.7-.4 3.9-.4 4.1 0 .3.2 2.7 0 2.7s-1-.4-1-1.1v-4c0-.3 0-2.2-.3-3.4-.3-1.2-.2-3.4-.2-3.4s0-3.9-.1-4.1c0-.2.2-1.7-1.5-1.9-1.6-.2-1.9 1.7-1.9 1.8 0 .1-.2 3.2-.2 3.8v3.4c0 .8 0 3.8.2 4.7.2 1 .5 3.6.3 3.8s-1.3 0-1.3-.3-1-6.4-1.3-7c-.3-.6-.7-4-.7-4s-.4-4-2.2-4c-1.8 0-1.6 2.4-1.6 3 0 .6.4 2.3.4 3.1s0 4 .5 5.5 1 4.8.9 6.6c-.1 1.8.2 4-1.5 5.7-1.7 1.6-4.2-.4-4.4-.5-.2-.2-4.2-4.8-8.4-3.7-.2.1-2.1 1.1-1 2.5 0 0 .1 0 .1.1.3.1 2.4.7 2.8 1.6.4.8 1.6 1.2 1.9 1.2h.1c.3.2 2.4 1.9 2.8 3 .5 1.1 3 2.9 3.5 3.3.5.4 2.8 3.1 2.8 3.1s1.1 1.4 1.8 1.5c.1 0 .1.1.1.1 0 .4.1 1.5-.5 2.6-.7 1.3-.8 2.7-1.2 3.9-.3 1-1.1 2.8-1.3 3.4 0 .1 0 .2.2.2H160c.1-.2.1-.2.2-.2z" class="st2"/>
  <path d="M114.2 108.9c.1 0 .1-.1 0 0 .1-.6.4-3.5.4-4.2-.1-.7.4-1.8.4-2 .1-.1.5-.7 1-1.6.6-1 1-2.8 1.3-3.1.3-.4 1.5-2.6 1.9-4s.8-4.5 1-5.1c.2-.6.5-1.5.5-2.4s.5-2.3.4-2.5c0-.2 0-2 1-3.6.5-.8.7-1.5.8-2 .1-.7.3-1.4.6-2.1.2-.4.3-.8.3-.9.1-.3 1.6-3.9.8-4.6-.7-.6-1.3-.6-1.3-.6-.1 0-.9.3-1.6 2.3-.7 1.9-1 2.4-1.1 2.5-.1.2-.6 1.8-.8 1.9-.2.2-1.1 2-1.2 2.8-.1.7-.6 2.1-1.4 1.7-.8-.4-.9-.8-.9-1.5s0-3.4.4-4.3c.4-.8.2-2.5.2-2.6l-.1-3.7c0-.2.1-4.5-.4-5.1-.5-.6-1.1-1.5-2.4-.9 0 0-.6.1-.7 2.9s0 4.9-.2 5.6c-.3.7-.4 3.9-.4 4.1 0 .3.2 2.7 0 2.7-.3 0-1-.4-1-1.1v-4c0-.3 0-2.2-.3-3.4-.3-1.2-.2-3.4-.2-3.4s0-3.9-.1-4.1c0-.2.2-1.7-1.5-1.9-1.6-.2-1.9 1.7-1.9 1.8 0 .1-.2 3.2-.2 3.8v3.4c0 .8 0 3.8.2 4.7.2 1 .5 3.6.3 3.8-.3.2-1.3 0-1.3-.3s-1-6.4-1.3-7-.7-4-.7-4-.4-4-2.2-4-1.6 2.4-1.6 3c0 .6.4 2.3.4 3.1s0 4 .5 5.5 1 4.8.9 6.6c-.1 1.8.2 4-1.5 5.7-1.7 1.6-4.2-.4-4.4-.5-.2-.2-4.2-4.8-8.4-3.7-.2.1-2.1 1.1-1 2.5 0 0 .1 0 .1.1.3.1 2.4.7 2.8 1.6.4.8 1.6 1.2 1.9 1.2h.1c.3.2 2.4 1.9 2.8 3 .5 1.1 3 2.9 3.5 3.3.5.4 2.8 3.1 2.8 3.1s1.1 1.4 1.8 1.5c.1 0 .1.1.1.1 0 .4.1 1.5-.5 2.6-.7 1.3-.8 2.7-1.2 3.9-.3 1-1.1 2.8-1.3 3.4 0 .1 0 .2.2.2h13.7v-.2z" class="st2"/>
  <path d="M68.3 108.9c.1 0 .1-.1 0 0 .1-.6.4-3.5.4-4.2-.1-.7.4-1.8.4-2 .1-.1.5-.7 1-1.6.6-1 1-2.8 1.3-3.1s1.5-2.6 1.9-4 .8-4.5 1-5.1c.2-.6.5-1.5.5-2.4s.5-2.3.4-2.5c0-.2 0-2 1-3.6.5-.8.7-1.5.8-2 .1-.7.3-1.4.6-2.1.2-.4.3-.8.3-.9.1-.3 1.6-3.9.8-4.6-.7-.6-1.3-.6-1.3-.6-.1 0-.9.3-1.6 2.3-.7 1.9-1 2.4-1.1 2.5-.1.2-.6 1.8-.8 1.9-.2.2-1.1 2-1.2 2.8-.1.7-.6 2.1-1.4 1.7-.8-.4-.9-.8-.9-1.5s0-3.4.4-4.3c.4-.9.2-2.6.2-2.6l-.1-3.7c0-.2.1-4.5-.4-5.1-.5-.6-1.1-1.5-2.4-.9 0 0-.6.1-.7 2.9 0 2.8 0 4.9-.2 5.6-.3.7-.4 3.9-.4 4.1 0 .3.2 2.7 0 2.7s-1-.4-1-1.1v-4c0-.3 0-2.2-.3-3.4-.3-1.2-.2-3.4-.2-3.4s0-3.9-.1-4.1.2-1.7-1.5-1.9c-1.6-.2-1.9 1.7-1.9 1.8 0 .1-.2 3.2-.2 3.8v3.4c0 .8 0 3.8.2 4.7.2 1 .5 3.6.3 3.8-.3.2-1.3 0-1.3-.3s-1-6.4-1.3-7c-.3-.6-.7-4-.7-4s-.4-4-2.2-4c-1.8 0-1.6 2.4-1.6 3 0 .6.4 2.3.4 3.1s0 4 .5 5.5 1 4.8.9 6.6c-.1 1.8.2 4-1.5 5.7-1.7 1.6-4.2-.4-4.4-.5-.2-.2-4.2-4.8-8.4-3.7-.2.1-2.1 1.1-1 2.5 0 0 .1 0 .1.1.3.1 2.4.7 2.8 1.6.4.8 1.6 1.2 1.9 1.2h.1c.3.2 2.4 1.9 2.8 3 .5 1.1 3 2.9 3.5 3.3.5.4 2.8 3.1 2.8 3.1s1.1 1.4 1.8 1.5c.1 0 .1.1.1.1 0 .4.1 1.5-.5 2.6-.7 1.3-.8 2.7-1.2 3.9-.3 1-1.1 2.8-1.3 3.4 0 .1 0 .2.2.2h13.7v-.2z" class="st2"/>
  <path d="M53.8 124.2h-1v-7.8l-.3.3c-.1.1-.6.5-1.4 1.2l-.5-.7 2.3-1.8h.8v8.8z" class="st2"/>
  <path d="M63 119.8c0 1.5-.2 2.7-.7 3.4-.5.8-1.2 1.1-2.2 1.1-.9 0-1.7-.4-2.2-1.2-.5-.8-.7-1.9-.7-3.4s.2-2.7.7-3.4c.5-.7 1.2-1.1 2.2-1.1 1 0 1.7.4 2.2 1.2s.7 1.9.7 3.4zm-4.9 0c0 1.3.2 2.2.5 2.8s.8.9 1.4.9c.7 0 1.2-.3 1.5-.9.3-.6.4-1.5.4-2.8 0-1.3-.1-2.2-.4-2.8-.3-.6-.8-.9-1.5-.9s-1.1.3-1.4.9-.5 1.5-.5 2.8z" class="st2"/>
  <path d="M67.8 118c0 .9-.2 1.6-.5 2.1s-.8.7-1.4.7c-.6 0-1-.2-1.3-.7-.3-.5-.5-1.2-.5-2.1 0-.9.1-1.6.4-2.1.3-.5.7-.7 1.3-.7.6 0 1 .2 1.3.7.5.5.7 1.2.7 2.1zm-2.8 0c0 .7.1 1.2.2 1.5.1.3.4.5.7.5.7 0 1-.7 1-2.1 0-1.4-.3-2-1-2-.3 0-.6.2-.7.5-.1.4-.2.9-.2 1.6zm6.5-2.6l-4.9 8.8h-.9l4.9-8.8h.9zm1.6 6.1c0 .9-.2 1.6-.5 2.1s-.8.7-1.4.7c-.6 0-1-.2-1.3-.7-.3-.5-.5-1.2-.5-2.1 0-.9.1-1.6.4-2.1.3-.5.7-.7 1.3-.7.6 0 1 .2 1.3.7s.7 1.2.7 2.1zm-2.8 0c0 .7.1 1.2.2 1.5s.4.5.7.5.6-.2.7-.5c.2-.3.2-.9.2-1.5 0-.7-.1-1.2-.2-1.5-.2-.3-.4-.5-.7-.5s-.6.2-.7.5c-.1.3-.2.8-.2 1.5z" class="st2"/>
  <path d="M85.8 119.8c0 1.4-.4 2.5-1.1 3.3s-1.7 1.2-3 1.2-2.3-.4-3-1.2c-.7-.8-1.1-1.9-1.1-3.4 0-1.4.4-2.5 1.1-3.3.7-.8 1.7-1.2 3-1.2s2.3.4 3 1.2 1.1 1.9 1.1 3.4zm-7 0c0 1.2.3 2.1.8 2.7.5.6 1.2.9 2.2.9 1 0 1.7-.3 2.2-.9.5-.6.7-1.5.7-2.7 0-1.2-.2-2.1-.7-2.7-.5-.6-1.2-.9-2.2-.9-1 0-1.7.3-2.2.9s-.8 1.5-.8 2.7z" class="st2"/>
  <path d="M88.8 124.2h-1v-8.8h4.9v.9h-3.9v3.2h3.7v.9h-3.7v3.8z" class="st2"/>
  <path d="M103 117.9c0 .9-.3 1.6-.9 2.1s-1.5.7-2.6.7h-1v3.5h-1v-8.8h2.3c2.1 0 3.2.8 3.2 2.5zm-4.6 1.9h.9c.9 0 1.6-.1 2-.4.4-.3.6-.8.6-1.4 0-.6-.2-1-.6-1.3-.4-.3-1-.4-1.8-.4h-1.1v3.5z" class="st2"/>
  <path d="M109.7 124.2h-4.9v-8.8h4.9v.9h-3.9v2.8h3.7v.9h-3.7v3.2h3.9v1z" class="st2"/>
  <path d="M119.3 119.8c0 1.4-.4 2.5-1.1 3.3s-1.7 1.2-3 1.2-2.3-.4-3-1.2c-.7-.8-1.1-1.9-1.1-3.4 0-1.4.4-2.5 1.1-3.3.7-.8 1.7-1.2 3-1.2s2.3.4 3 1.2 1.1 1.9 1.1 3.4zm-7 0c0 1.2.3 2.1.8 2.7.5.6 1.2.9 2.2.9 1 0 1.7-.3 2.2-.9.5-.6.7-1.5.7-2.7 0-1.2-.2-2.1-.7-2.7-.5-.6-1.2-.9-2.2-.9-1 0-1.7.3-2.2.9s-.8 1.5-.8 2.7z" class="st2"/>
  <path d="M126.9 117.9c0 .9-.3 1.6-.9 2.1s-1.5.7-2.6.7h-1v3.5h-1v-8.8h2.3c2.1 0 3.2.8 3.2 2.5zm-4.6 1.9h.9c.9 0 1.6-.1 2-.4.4-.3.6-.8.6-1.4 0-.6-.2-1-.6-1.3-.4-.3-1-.4-1.8-.4h-1.1v3.5z" class="st2"/>
  <path d="M128.7 124.2v-8.8h1v7.9h3.9v.9h-4.9z" class="st2"/>
  <path d="M140.1 124.2h-4.9v-8.8h4.9v.9h-3.9v2.8h3.7v.9h-3.7v3.2h3.9v1z" class="st2"/>
  <path d="M150.8 124.2l-1.1-2.8h-3.5l-1.1 2.8h-1l3.5-8.9h.9l3.5 8.9h-1.2zm-1.4-3.7l-1-2.7c-.1-.3-.3-.8-.4-1.3-.1.4-.2.8-.4 1.3l-1 2.7h2.8z" class="st2"/>
  <path d="M154.1 120.5v3.7h-1v-8.8h2.4c1.1 0 1.9.2 2.4.6.5.4.8 1 .8 1.9 0 1.2-.6 2-1.8 2.4l2.4 4h-1.2l-2.1-3.7h-1.9zm0-.9h1.4c.7 0 1.3-.1 1.6-.4.3-.3.5-.7.5-1.3 0-.6-.2-1-.5-1.3-.3-.3-.9-.4-1.7-.4h-1.3v3.4z" class="st2"/>
  <path d="M165.6 124.2h-4.9v-8.8h4.9v.9h-3.9v2.8h3.7v.9h-3.7v3.2h3.9v1z" class="st2"/>
  <path d="M170.8 124.2v-8.8h1v7.9h3.9v.9h-4.9z" class="st2"/>
  <path d="M182.1 124.2h-4.9v-8.8h4.9v.9h-3.9v2.8h3.7v.9h-3.7v3.2h3.9v1z" class="st2"/>
  <path d="M185.1 124.2h-1v-8.8h4.9v.9h-3.9v3.2h3.7v.9h-3.7v3.8z" class="st2"/>
  <path d="M193.2 124.2h-1v-7.9h-2.8v-.9h6.6v.9h-2.8v7.9z" class="st2"/>
  <path d="M207.2 124.2h-1V120h-4.6v4.2h-1v-8.8h1v3.8h4.6v-3.8h1v8.8z" class="st2"/>
  <path d="M215.2 124.2l-1.1-2.8h-3.5l-1.1 2.8h-1l3.5-8.9h.9l3.5 8.9h-1.2zm-1.5-3.7l-1-2.7c-.1-.3-.3-.8-.4-1.3-.1.4-.2.8-.4 1.3l-1 2.7h2.8z" class="st2"/>
  <path d="M224.3 124.2h-1.2l-4.8-7.4c.1.9.1 1.7.1 2.4v5h-.9v-8.8h1.2l4.8 7.4c0-.1 0-.5-.1-1v-6.4h1v8.8z" class="st2"/>
  <path d="M233.8 119.7c0 1.5-.4 2.6-1.2 3.3-.8.8-1.9 1.2-3.4 1.2h-2.4v-8.8h2.7c1.4 0 2.4.4 3.2 1.1.7.8 1.1 1.8 1.1 3.2zm-1.1 0c0-1.2-.3-2-.9-2.6-.6-.6-1.4-.9-2.6-.9h-1.5v7h1.2c1.2 0 2.1-.3 2.8-.9s1-1.4 1-2.6z" class="st2"/>
  <path d="M240.7 124.2h-4.9v-8.8h4.9v.9h-3.9v2.8h3.7v.9h-3.7v3.2h3.9v1z" class="st2"/>
  <path d="M249.7 119.7c0 1.5-.4 2.6-1.2 3.3-.8.8-1.9 1.2-3.4 1.2h-2.4v-8.8h2.7c1.4 0 2.4.4 3.2 1.1.7.8 1.1 1.8 1.1 3.2zm-1.1 0c0-1.2-.3-2-.9-2.6-.6-.6-1.4-.9-2.6-.9h-1.5v7h1.2c1.2 0 2.1-.3 2.8-.9s1-1.4 1-2.6z" class="st2"/>
</svg>
