<?xml version="1.0" encoding="utf-8"?>
<!-- Generator: Adobe Illustrator 19.1.0, SVG Export Plug-In . SVG Version: 6.00 Build 0)  -->
<svg version="1.1" id="Layer_1" xmlns="http://www.w3.org/2000/svg" xmlns:xlink="http://www.w3.org/1999/xlink" x="0px" y="0px"
	 width="283.9px" height="140.3px" viewBox="0 0 283.9 140.3" style="enable-background:new 0 0 283.9 140.3;" xml:space="preserve"
	>
<style type="text/css">
	.st0{fill:#C95145;}
	.st1{fill:#344B62;}
	.st2{fill:#FCD4BB;}
	.st3{fill:#F26F5B;}
</style>
<path class="st0" d="M280.4,6.8H12.5c-2.2,0-3.9,1.7-3.9,3.9v125.7c0,2.2,1.7,3.9,3.9,3.9h267.9c2.2,0,3.9-1.7,3.9-3.9V10.7
	C284.3,8.5,282.6,6.8,280.4,6.8z"/>
<path class="st1" d="M271.3,0H3.5C1.3,0-0.4,1.7-0.4,3.9v125.7c0,2.2,1.7,3.9,3.9,3.9h267.9c2.2,0,3.9-1.7,3.9-3.9V3.9
	C275.2,1.7,273.5,0,271.3,0z"/>
<path class="st2" d="M206.1,51.6C206.1,51.6,206.1,51.6,206.1,51.6c0.1-0.6,0.4-3.5,0.4-4.2c-0.1-0.7,0.4-1.8,0.4-2c0,0,0,0,0,0
	c0.1-0.1,0.5-0.7,1-1.6c0.6-1,1-2.8,1.3-3.1c0.3-0.4,1.5-2.6,1.9-4s0.8-4.5,1-5.1c0.2-0.6,0.5-1.5,0.5-2.4s0.5-2.3,0.4-2.5
	c0-0.2,0-2,1-3.6c0.5-0.8,0.7-1.5,0.8-2c0.1-0.7,0.3-1.4,0.6-2.1c0.2-0.4,0.3-0.8,0.3-0.9c0.1-0.3,1.6-3.9,0.8-4.6
	c-0.7-0.6-1.3-0.6-1.3-0.6c0,0,0,0,0,0c-0.1,0-0.9,0.3-1.6,2.3c-0.7,1.9-1,2.4-1.1,2.5c0,0,0,0,0,0c-0.1,0.2-0.6,1.8-0.8,1.9
	c-0.2,0.2-1.1,2-1.2,2.8s-0.6,2.1-1.4,1.7c-0.8-0.4-0.9-0.8-0.9-1.5c0-0.7,0-3.4,0.4-4.3c0.4-0.8,0.2-2.5,0.2-2.6c0,0,0,0,0,0
	l-0.1-3.7c0,0,0,0,0,0c0-0.2,0.1-4.5-0.4-5.1c-0.5-0.6-1.1-1.5-2.4-0.9c0,0-0.6,0.1-0.7,2.9c0,2.8,0,4.9-0.2,5.6
	c-0.3,0.7-0.4,3.9-0.4,4.1s0.2,2.7,0,2.7c-0.3,0-1-0.4-1-1.1c0-0.7,0-3.8,0-4c0-0.3,0-2.2-0.3-3.4c-0.3-1.2-0.2-3.4-0.2-3.4
	s0-3.9-0.1-4.1c0-0.2,0.2-1.7-1.5-1.9c-1.6-0.2-1.9,1.7-1.9,1.8c0,0,0,0,0,0c0,0.1-0.2,3.2-0.2,3.8c0,0.7,0,2.6,0,3.4
	c0,0.8,0,3.8,0.2,4.7c0.2,1,0.5,3.6,0.3,3.8c-0.3,0.2-1.3,0-1.3-0.3c0-0.3-1-6.4-1.3-7c-0.3-0.6-0.7-4-0.7-4s-0.4-4-2.2-4
	c-1.8,0-1.6,2.4-1.6,3s0.4,2.3,0.4,3.1c0,0.9,0,4,0.5,5.5c0.5,1.5,1,4.8,0.9,6.6s0.2,4-1.5,5.7c-1.7,1.6-4.2-0.4-4.4-0.5
	c0,0,0,0,0,0c-0.2-0.2-4.2-4.8-8.4-3.7c0,0,0,0,0,0c-0.2,0.1-2.1,1.1-1,2.5c0,0,0.1,0,0.1,0.1c0.3,0.1,2.4,0.7,2.8,1.6
	c0.4,0.8,1.6,1.2,1.9,1.2c0,0,0,0,0.1,0c0.3,0.2,2.4,1.9,2.8,3c0.5,1.1,3,2.9,3.5,3.3s2.8,3.1,2.8,3.1s1.1,1.4,1.8,1.5
	c0.1,0,0.1,0.1,0.1,0.1c0,0.4,0.1,1.5-0.5,2.6c-0.7,1.3-0.8,2.7-1.2,3.9c-0.3,1-1.1,2.8-1.3,3.4c0,0.1,0,0.2,0.2,0.2h13.7
	C206,51.7,206,51.7,206.1,51.6L206.1,51.6z"/>
<path class="st2" d="M252,51.6C252,51.6,252,51.6,252,51.6c0.1-0.6,0.4-3.5,0.4-4.2c-0.1-0.7,0.4-1.8,0.4-2c0,0,0,0,0,0
	c0.1-0.1,0.5-0.7,1-1.6c0.6-1,1-2.8,1.3-3.1c0.3-0.4,1.5-2.6,1.9-4c0.4-1.4,0.8-4.5,1-5.1c0.2-0.6,0.5-1.5,0.5-2.4s0.5-2.3,0.4-2.5
	c0-0.2,0-2,1-3.6c0.5-0.8,0.7-1.5,0.8-2c0.1-0.7,0.3-1.4,0.6-2.1c0.2-0.4,0.3-0.8,0.3-0.9c0.1-0.3,1.6-3.9,0.8-4.6
	c-0.7-0.6-1.3-0.6-1.3-0.6c0,0,0,0,0,0c-0.1,0-0.9,0.3-1.6,2.3c-0.7,1.9-1,2.4-1.1,2.5c0,0,0,0,0,0c-0.1,0.2-0.6,1.8-0.8,1.9
	c-0.2,0.2-1.1,2-1.2,2.8s-0.6,2.1-1.4,1.7c-0.8-0.4-0.9-0.8-0.9-1.5c0-0.7,0-3.4,0.4-4.3c0.4-0.8,0.2-2.5,0.2-2.6c0,0,0,0,0,0
	l-0.1-3.7c0,0,0,0,0,0c0-0.2,0.1-4.5-0.4-5.1c-0.5-0.6-1.1-1.5-2.4-0.9c0,0-0.6,0.1-0.7,2.9c0,2.8,0,4.9-0.2,5.6
	c-0.3,0.7-0.4,3.9-0.4,4.1s0.2,2.7,0,2.7c-0.3,0-1-0.4-1-1.1c0-0.7,0-3.8,0-4c0-0.3,0-2.2-0.3-3.4c-0.3-1.2-0.2-3.4-0.2-3.4
	s0-3.9-0.1-4.1c0-0.2,0.2-1.7-1.5-1.9c-1.6-0.2-1.9,1.7-1.9,1.8c0,0,0,0,0,0c0,0.1-0.2,3.2-0.2,3.8c0,0.7,0,2.6,0,3.4
	c0,0.8,0,3.8,0.2,4.7c0.2,1,0.5,3.6,0.3,3.8c-0.3,0.2-1.3,0-1.3-0.3c0-0.3-1-6.4-1.3-7c-0.3-0.6-0.7-4-0.7-4s-0.4-4-2.2-4
	c-1.8,0-1.6,2.4-1.6,3s0.4,2.3,0.4,3.1c0,0.9,0,4,0.5,5.5c0.5,1.5,1,4.8,0.9,6.6s0.2,4-1.5,5.7c-1.7,1.6-4.2-0.4-4.4-0.5
	c0,0,0,0,0,0c-0.2-0.2-4.2-4.8-8.4-3.7c0,0,0,0,0,0c-0.2,0.1-2.1,1.1-1,2.5c0,0,0.1,0,0.1,0.1c0.3,0.1,2.4,0.7,2.8,1.6
	c0.4,0.8,1.6,1.2,1.9,1.2c0,0,0,0,0.1,0c0.3,0.2,2.4,1.9,2.8,3c0.5,1.1,3,2.9,3.5,3.3s2.8,3.1,2.8,3.1s1.1,1.4,1.8,1.5
	c0.1,0,0.1,0.1,0.1,0.1c0,0.4,0.1,1.5-0.5,2.6c-0.7,1.3-0.8,2.7-1.2,3.9c-0.3,1-1.1,2.8-1.3,3.4c0,0.1,0,0.2,0.2,0.2h13.7
	C251.9,51.7,252,51.7,252,51.6L252,51.6z"/>
<path class="st2" d="M160.2,51.6C160.2,51.6,160.2,51.6,160.2,51.6c0.1-0.6,0.4-3.5,0.4-4.2c-0.1-0.7,0.4-1.8,0.4-2c0,0,0,0,0,0
	c0.1-0.1,0.5-0.7,1-1.6c0.6-1,1-2.8,1.3-3.1c0.3-0.4,1.5-2.6,1.9-4c0.4-1.4,0.8-4.5,1-5.1s0.5-1.5,0.5-2.4s0.5-2.3,0.4-2.5
	c0-0.2,0-2,1-3.6c0.5-0.8,0.7-1.5,0.8-2c0.1-0.7,0.3-1.4,0.6-2.1c0.2-0.4,0.3-0.8,0.3-0.9c0.1-0.3,1.6-3.9,0.8-4.6
	c-0.7-0.6-1.3-0.6-1.3-0.6c0,0,0,0,0,0c-0.1,0-0.9,0.3-1.6,2.3c-0.7,1.9-1,2.4-1.1,2.5c0,0,0,0,0,0c-0.1,0.2-0.6,1.8-0.8,1.9
	c-0.2,0.2-1.1,2-1.2,2.8c-0.1,0.7-0.6,2.1-1.4,1.7c-0.8-0.4-0.9-0.8-0.9-1.5c0-0.7,0-3.4,0.4-4.3c0.4-0.8,0.2-2.5,0.2-2.6
	c0,0,0,0,0,0l-0.1-3.7c0,0,0,0,0,0c0-0.2,0.1-4.5-0.4-5.1c-0.5-0.6-1.1-1.5-2.4-0.9c0,0-0.6,0.1-0.7,2.9c0,2.8,0,4.9-0.2,5.6
	c-0.3,0.7-0.4,3.9-0.4,4.1s0.2,2.7,0,2.7s-1-0.4-1-1.1s0-3.8,0-4c0-0.3,0-2.2-0.3-3.4c-0.3-1.2-0.2-3.4-0.2-3.4s0-3.9-0.1-4.1
	c0-0.2,0.2-1.7-1.5-1.9c-1.6-0.2-1.9,1.7-1.9,1.8c0,0,0,0,0,0c0,0.1-0.2,3.2-0.2,3.8c0,0.7,0,2.6,0,3.4c0,0.8,0,3.8,0.2,4.7
	c0.2,1,0.5,3.6,0.3,3.8c-0.3,0.2-1.3,0-1.3-0.3s-1-6.4-1.3-7c-0.3-0.6-0.7-4-0.7-4s-0.4-4-2.2-4c-1.8,0-1.6,2.4-1.6,3
	s0.4,2.3,0.4,3.1c0,0.9,0,4,0.5,5.5c0.5,1.5,1,4.8,0.9,6.6c-0.1,1.8,0.2,4-1.5,5.7c-1.7,1.6-4.2-0.4-4.4-0.5c0,0,0,0,0,0
	c-0.2-0.2-4.2-4.8-8.4-3.7c0,0,0,0,0,0c-0.2,0.1-2.1,1.1-1,2.5c0,0,0.1,0,0.1,0.1c0.3,0.1,2.4,0.7,2.8,1.6c0.4,0.8,1.6,1.2,1.9,1.2
	c0,0,0,0,0.1,0c0.3,0.2,2.4,1.9,2.8,3c0.5,1.1,3,2.9,3.5,3.3c0.5,0.4,2.8,3.1,2.8,3.1s1.1,1.4,1.8,1.5c0.1,0,0.1,0.1,0.1,0.1
	c0,0.4,0.1,1.5-0.5,2.6c-0.7,1.3-0.8,2.7-1.2,3.9c-0.3,1-1.1,2.8-1.3,3.4c0,0.1,0,0.2,0.2,0.2H160C160.1,51.7,160.1,51.7,160.2,51.6
	L160.2,51.6z"/>
<path class="st2" d="M114.2,51.6C114.3,51.6,114.3,51.6,114.2,51.6c0.1-0.6,0.4-3.5,0.4-4.2c-0.1-0.7,0.4-1.8,0.4-2c0,0,0,0,0,0
	c0.1-0.1,0.5-0.7,1-1.6c0.6-1,1-2.8,1.3-3.1c0.3-0.4,1.5-2.6,1.9-4c0.4-1.4,0.8-4.5,1-5.1c0.2-0.6,0.5-1.5,0.5-2.4s0.5-2.3,0.4-2.5
	c0-0.2,0-2,1-3.6c0.5-0.8,0.7-1.5,0.8-2c0.1-0.7,0.3-1.4,0.6-2.1c0.2-0.4,0.3-0.8,0.3-0.9c0.1-0.3,1.6-3.9,0.8-4.6
	c-0.7-0.6-1.3-0.6-1.3-0.6c0,0,0,0,0,0c-0.1,0-0.9,0.3-1.6,2.3c-0.7,1.9-1,2.4-1.1,2.5c0,0,0,0,0,0c-0.1,0.2-0.6,1.8-0.8,1.9
	c-0.2,0.2-1.1,2-1.2,2.8s-0.6,2.1-1.4,1.7c-0.8-0.4-0.9-0.8-0.9-1.5c0-0.7,0-3.4,0.4-4.3c0.4-0.8,0.2-2.5,0.2-2.6c0,0,0,0,0,0
	l-0.1-3.7c0,0,0,0,0,0c0-0.2,0.1-4.5-0.4-5.1c-0.5-0.6-1.1-1.5-2.4-0.9c0,0-0.6,0.1-0.7,2.9c0,2.8,0,4.9-0.2,5.6
	c-0.3,0.7-0.4,3.9-0.4,4.1s0.2,2.7,0,2.7c-0.3,0-1-0.4-1-1.1s0-3.8,0-4c0-0.3,0-2.2-0.3-3.4c-0.3-1.2-0.2-3.4-0.2-3.4s0-3.9-0.1-4.1
	c0-0.2,0.2-1.7-1.5-1.9c-1.6-0.2-1.9,1.7-1.9,1.8c0,0,0,0,0,0c0,0.1-0.2,3.2-0.2,3.8c0,0.7,0,2.6,0,3.4c0,0.8,0,3.8,0.2,4.7
	s0.5,3.6,0.3,3.8c-0.3,0.2-1.3,0-1.3-0.3s-1-6.4-1.3-7c-0.3-0.6-0.7-4-0.7-4s-0.4-4-2.2-4c-1.8,0-1.6,2.4-1.6,3s0.4,2.3,0.4,3.1
	c0,0.9,0,4,0.5,5.5c0.5,1.5,1,4.8,0.9,6.6c-0.1,1.8,0.2,4-1.5,5.7c-1.7,1.6-4.2-0.4-4.4-0.5c0,0,0,0,0,0c-0.2-0.2-4.2-4.8-8.4-3.7
	c0,0,0,0,0,0c-0.2,0.1-2.1,1.1-1,2.5c0,0,0.1,0,0.1,0.1c0.3,0.1,2.4,0.7,2.8,1.6c0.4,0.8,1.6,1.2,1.9,1.2c0,0,0,0,0.1,0
	c0.3,0.2,2.4,1.9,2.8,3c0.5,1.1,3,2.9,3.5,3.3c0.5,0.4,2.8,3.1,2.8,3.1s1.1,1.4,1.8,1.5c0.1,0,0.1,0.1,0.1,0.1
	c0,0.4,0.1,1.5-0.5,2.6c-0.7,1.3-0.8,2.7-1.2,3.9c-0.3,1-1.1,2.8-1.3,3.4c0,0.1,0,0.2,0.2,0.2h13.7
	C114.2,51.7,114.2,51.7,114.2,51.6L114.2,51.6z"/>
<path class="st3" d="M68.3,51.6C68.4,51.6,68.4,51.6,68.3,51.6c0.1-0.6,0.4-3.5,0.4-4.2c-0.1-0.7,0.4-1.8,0.4-2c0,0,0,0,0,0
	c0.1-0.1,0.5-0.7,1-1.6c0.6-1,1-2.8,1.3-3.1c0.3-0.4,1.5-2.6,1.9-4c0.4-1.4,0.8-4.5,1-5.1s0.5-1.5,0.5-2.4s0.5-2.3,0.4-2.5
	c0-0.2,0-2,1-3.6c0.5-0.8,0.7-1.5,0.8-2c0.1-0.7,0.3-1.4,0.6-2.1c0.2-0.4,0.3-0.8,0.3-0.9c0.1-0.3,1.6-3.9,0.8-4.6
	c-0.7-0.6-1.3-0.6-1.3-0.6c0,0,0,0,0,0c-0.1,0-0.9,0.3-1.6,2.3c-0.7,1.9-1,2.4-1.1,2.5c0,0,0,0,0,0c-0.1,0.2-0.6,1.8-0.8,1.9
	c-0.2,0.2-1.1,2-1.2,2.8c-0.1,0.7-0.6,2.1-1.4,1.7c-0.8-0.4-0.9-0.8-0.9-1.5c0-0.7,0-3.4,0.4-4.3c0.4-0.8,0.2-2.5,0.2-2.6
	c0,0,0,0,0,0L70.9,12c0,0,0,0,0,0c0-0.2,0.1-4.5-0.4-5.1C70,6.3,69.4,5.3,68.1,6c0,0-0.6,0.1-0.7,2.9c0,2.8,0,4.9-0.2,5.6
	c-0.3,0.7-0.4,3.9-0.4,4.1s0.2,2.7,0,2.7s-1-0.4-1-1.1s0-3.8,0-4c0-0.3,0-2.2-0.3-3.4s-0.2-3.4-0.2-3.4s0-3.9-0.1-4.1
	s0.2-1.7-1.5-1.9c-1.6-0.2-1.9,1.7-1.9,1.8c0,0,0,0,0,0c0,0.1-0.2,3.2-0.2,3.8c0,0.7,0,2.6,0,3.4c0,0.8,0,3.8,0.2,4.7
	c0.2,1,0.5,3.6,0.3,3.8c-0.3,0.2-1.3,0-1.3-0.3c0-0.3-1-6.4-1.3-7c-0.3-0.6-0.7-4-0.7-4s-0.4-4-2.2-4c-1.8,0-1.6,2.4-1.6,3
	s0.4,2.3,0.4,3.1c0,0.9,0,4,0.5,5.5c0.5,1.5,1,4.8,0.9,6.6c-0.1,1.8,0.2,4-1.5,5.7C53.6,31,51,29,50.8,28.9c0,0,0,0,0,0
	c-0.2-0.2-4.2-4.8-8.4-3.7c0,0,0,0,0,0c-0.2,0.1-2.1,1.1-1,2.5c0,0,0.1,0,0.1,0.1c0.3,0.1,2.4,0.7,2.8,1.6c0.4,0.8,1.6,1.2,1.9,1.2
	c0,0,0,0,0.1,0c0.3,0.2,2.4,1.9,2.8,3c0.5,1.1,3,2.9,3.5,3.3c0.5,0.4,2.8,3.1,2.8,3.1s1.1,1.4,1.8,1.5c0.1,0,0.1,0.1,0.1,0.1
	c0,0.4,0.1,1.5-0.5,2.6c-0.7,1.3-0.8,2.7-1.2,3.9c-0.3,1-1.1,2.8-1.3,3.4c0,0.1,0,0.2,0.2,0.2h13.7C68.3,51.7,68.3,51.7,68.3,51.6
	L68.3,51.6z"/>
<path class="st2" d="M206.1,108.9C206.1,108.9,206.1,108.8,206.1,108.9c0.1-0.6,0.4-3.5,0.4-4.2c-0.1-0.7,0.4-1.8,0.4-2c0,0,0,0,0,0
	c0.1-0.1,0.5-0.7,1-1.6c0.6-1,1-2.8,1.3-3.1c0.3-0.4,1.5-2.6,1.9-4s0.8-4.5,1-5.1c0.2-0.6,0.5-1.5,0.5-2.4s0.5-2.3,0.4-2.5
	c0-0.2,0-2,1-3.6c0.5-0.8,0.7-1.5,0.8-2c0.1-0.7,0.3-1.4,0.6-2.1c0.2-0.4,0.3-0.8,0.3-0.9c0.1-0.3,1.6-3.9,0.8-4.6
	c-0.7-0.6-1.3-0.6-1.3-0.6c0,0,0,0,0,0c-0.1,0-0.9,0.3-1.6,2.3c-0.7,1.9-1,2.4-1.1,2.5c0,0,0,0,0,0c-0.1,0.2-0.6,1.8-0.8,1.9
	c-0.2,0.2-1.1,2-1.2,2.8c-0.1,0.7-0.6,2.1-1.4,1.7c-0.8-0.4-0.9-0.8-0.9-1.5s0-3.4,0.4-4.3c0.4-0.8,0.2-2.5,0.2-2.6c0,0,0,0,0,0
	l-0.1-3.7c0,0,0,0,0,0c0-0.2,0.1-4.5-0.4-5.1c-0.5-0.6-1.1-1.5-2.4-0.9c0,0-0.6,0.1-0.7,2.9c0,2.8,0,4.9-0.2,5.6
	c-0.3,0.7-0.4,3.9-0.4,4.1c0,0.3,0.2,2.7,0,2.7c-0.3,0-1-0.4-1-1.1s0-3.8,0-4c0-0.3,0-2.2-0.3-3.4c-0.3-1.2-0.2-3.4-0.2-3.4
	s0-3.9-0.1-4.1s0.2-1.7-1.5-1.9c-1.6-0.2-1.9,1.7-1.9,1.8c0,0,0,0,0,0c0,0.1-0.2,3.2-0.2,3.8c0,0.7,0,2.6,0,3.4c0,0.8,0,3.8,0.2,4.7
	c0.2,1,0.5,3.6,0.3,3.8c-0.3,0.2-1.3,0-1.3-0.3c0-0.3-1-6.4-1.3-7c-0.3-0.6-0.7-4-0.7-4s-0.4-4-2.2-4c-1.8,0-1.6,2.4-1.6,3
	s0.4,2.3,0.4,3.1s0,4,0.5,5.5c0.5,1.5,1,4.8,0.9,6.6s0.2,4-1.5,5.7c-1.7,1.6-4.2-0.4-4.4-0.5c0,0,0,0,0,0c-0.2-0.2-4.2-4.8-8.4-3.7
	c0,0,0,0,0,0c-0.2,0.1-2.1,1.1-1,2.5c0,0,0.1,0,0.1,0.1c0.3,0.1,2.4,0.7,2.8,1.6c0.4,0.8,1.6,1.2,1.9,1.2c0,0,0,0,0.1,0
	c0.3,0.2,2.4,1.9,2.8,3c0.5,1.1,3,2.9,3.5,3.3c0.5,0.4,2.8,3.1,2.8,3.1s1.1,1.4,1.8,1.5c0.1,0,0.1,0.1,0.1,0.1
	c0,0.4,0.1,1.5-0.5,2.6c-0.7,1.3-0.8,2.7-1.2,3.9c-0.3,1-1.1,2.8-1.3,3.4c0,0.1,0,0.2,0.2,0.2h13.7C206,108.9,206,108.9,206.1,108.9
	L206.1,108.9z"/>
<path class="st2" d="M252,108.9C252,108.9,252,108.8,252,108.9c0.1-0.6,0.4-3.5,0.4-4.2c-0.1-0.7,0.4-1.8,0.4-2c0,0,0,0,0,0
	c0.1-0.1,0.5-0.7,1-1.6c0.6-1,1-2.8,1.3-3.1c0.3-0.4,1.5-2.6,1.9-4c0.4-1.4,0.8-4.5,1-5.1c0.2-0.6,0.5-1.5,0.5-2.4s0.5-2.3,0.4-2.5
	c0-0.2,0-2,1-3.6c0.5-0.8,0.7-1.5,0.8-2c0.1-0.7,0.3-1.4,0.6-2.1c0.2-0.4,0.3-0.8,0.3-0.9c0.1-0.3,1.6-3.9,0.8-4.6
	c-0.7-0.6-1.3-0.6-1.3-0.6c0,0,0,0,0,0c-0.1,0-0.9,0.3-1.6,2.3c-0.7,1.9-1,2.4-1.1,2.5c0,0,0,0,0,0c-0.1,0.2-0.6,1.8-0.8,1.9
	c-0.2,0.2-1.1,2-1.2,2.8c-0.1,0.7-0.6,2.1-1.4,1.7c-0.8-0.4-0.9-0.8-0.9-1.5s0-3.4,0.4-4.3c0.4-0.8,0.2-2.5,0.2-2.6c0,0,0,0,0,0
	l-0.1-3.7c0,0,0,0,0,0c0-0.2,0.1-4.5-0.4-5.1c-0.5-0.6-1.1-1.5-2.4-0.9c0,0-0.6,0.1-0.7,2.9s0,4.9-0.2,5.6c-0.3,0.7-0.4,3.9-0.4,4.1
	c0,0.3,0.2,2.7,0,2.7s-1-0.4-1-1.1s0-3.8,0-4c0-0.3,0-2.2-0.3-3.4c-0.3-1.2-0.2-3.4-0.2-3.4s0-3.9-0.1-4.1c0-0.2,0.2-1.7-1.5-1.9
	c-1.6-0.2-1.9,1.7-1.9,1.8c0,0,0,0,0,0c0,0.1-0.2,3.2-0.2,3.8c0,0.7,0,2.6,0,3.4c0,0.8,0,3.8,0.2,4.7c0.2,1,0.5,3.6,0.3,3.8
	c-0.3,0.2-1.3,0-1.3-0.3c0-0.3-1-6.4-1.3-7s-0.7-4-0.7-4s-0.4-4-2.2-4c-1.8,0-1.6,2.4-1.6,3s0.4,2.3,0.4,3.1s0,4,0.5,5.5
	c0.5,1.5,1,4.8,0.9,6.6s0.2,4-1.5,5.7c-1.7,1.6-4.2-0.4-4.4-0.5c0,0,0,0,0,0c-0.2-0.2-4.2-4.8-8.4-3.7c0,0,0,0,0,0
	c-0.2,0.1-2.1,1.1-1,2.5c0,0,0.1,0,0.1,0.1c0.3,0.1,2.4,0.7,2.8,1.6c0.4,0.8,1.6,1.2,1.9,1.2c0,0,0,0,0.1,0c0.3,0.2,2.4,1.9,2.8,3
	c0.5,1.1,3,2.9,3.5,3.3c0.5,0.4,2.8,3.1,2.8,3.1s1.1,1.4,1.8,1.5c0.1,0,0.1,0.1,0.1,0.1c0,0.4,0.1,1.5-0.5,2.6
	c-0.7,1.3-0.8,2.7-1.2,3.9c-0.3,1-1.1,2.8-1.3,3.4c0,0.1,0,0.2,0.2,0.2h13.7C251.9,108.9,252,108.9,252,108.9L252,108.9z"/>
<path class="st2" d="M160.2,108.9C160.2,108.9,160.2,108.8,160.2,108.9c0.1-0.6,0.4-3.5,0.4-4.2c-0.1-0.7,0.4-1.8,0.4-2c0,0,0,0,0,0
	c0.1-0.1,0.5-0.7,1-1.6c0.6-1,1-2.8,1.3-3.1c0.3-0.4,1.5-2.6,1.9-4s0.8-4.5,1-5.1c0.2-0.6,0.5-1.5,0.5-2.4s0.5-2.3,0.4-2.5
	c0-0.2,0-2,1-3.6c0.5-0.8,0.7-1.5,0.8-2c0.1-0.7,0.3-1.4,0.6-2.1c0.2-0.4,0.3-0.8,0.3-0.9c0.1-0.3,1.6-3.9,0.8-4.6
	c-0.7-0.6-1.3-0.6-1.3-0.6c0,0,0,0,0,0c-0.1,0-0.9,0.3-1.6,2.3c-0.7,1.9-1,2.4-1.1,2.5c0,0,0,0,0,0c-0.1,0.2-0.6,1.8-0.8,1.9
	c-0.2,0.2-1.1,2-1.2,2.8c-0.1,0.7-0.6,2.1-1.4,1.7s-0.9-0.8-0.9-1.5c0-0.7,0-3.4,0.4-4.3c0.4-0.8,0.2-2.5,0.2-2.6c0,0,0,0,0,0
	l-0.1-3.7c0,0,0,0,0,0c0-0.2,0.1-4.5-0.4-5.1c-0.5-0.6-1.1-1.5-2.4-0.9c0,0-0.6,0.1-0.7,2.9c0,2.8,0,4.9-0.2,5.6
	c-0.3,0.7-0.4,3.9-0.4,4.1c0,0.3,0.2,2.7,0,2.7s-1-0.4-1-1.1c0-0.7,0-3.8,0-4c0-0.3,0-2.2-0.3-3.4c-0.3-1.2-0.2-3.4-0.2-3.4
	s0-3.9-0.1-4.1c0-0.2,0.2-1.7-1.5-1.9c-1.6-0.2-1.9,1.7-1.9,1.8c0,0,0,0,0,0c0,0.1-0.2,3.2-0.2,3.8c0,0.7,0,2.6,0,3.4
	c0,0.8,0,3.8,0.2,4.7c0.2,1,0.5,3.6,0.3,3.8s-1.3,0-1.3-0.3c0-0.3-1-6.4-1.3-7c-0.3-0.6-0.7-4-0.7-4s-0.4-4-2.2-4
	c-1.8,0-1.6,2.4-1.6,3c0,0.6,0.4,2.3,0.4,3.1s0,4,0.5,5.5c0.5,1.5,1,4.8,0.9,6.6c-0.1,1.8,0.2,4-1.5,5.7c-1.7,1.6-4.2-0.4-4.4-0.5
	c0,0,0,0,0,0c-0.2-0.2-4.2-4.8-8.4-3.7c0,0,0,0,0,0c-0.2,0.1-2.1,1.1-1,2.5c0,0,0.1,0,0.1,0.1c0.3,0.1,2.4,0.7,2.8,1.6
	c0.4,0.8,1.6,1.2,1.9,1.2c0,0,0,0,0.1,0c0.3,0.2,2.4,1.9,2.8,3c0.5,1.1,3,2.9,3.5,3.3c0.5,0.4,2.8,3.1,2.8,3.1s1.1,1.4,1.8,1.5
	c0.1,0,0.1,0.1,0.1,0.1c0,0.4,0.1,1.5-0.5,2.6c-0.7,1.3-0.8,2.7-1.2,3.9c-0.3,1-1.1,2.8-1.3,3.4c0,0.1,0,0.2,0.2,0.2H160
	C160.1,108.9,160.1,108.9,160.2,108.9L160.2,108.9z"/>
<path class="st2" d="M114.2,108.9C114.3,108.9,114.3,108.8,114.2,108.9c0.1-0.6,0.4-3.5,0.4-4.2c-0.1-0.7,0.4-1.8,0.4-2c0,0,0,0,0,0
	c0.1-0.1,0.5-0.7,1-1.6c0.6-1,1-2.8,1.3-3.1c0.3-0.4,1.5-2.6,1.9-4s0.8-4.5,1-5.1c0.2-0.6,0.5-1.5,0.5-2.4s0.5-2.3,0.4-2.5
	c0-0.2,0-2,1-3.6c0.5-0.8,0.7-1.5,0.8-2c0.1-0.7,0.3-1.4,0.6-2.1c0.2-0.4,0.3-0.8,0.3-0.9c0.1-0.3,1.6-3.9,0.8-4.6
	c-0.7-0.6-1.3-0.6-1.3-0.6c0,0,0,0,0,0c-0.1,0-0.9,0.3-1.6,2.3c-0.7,1.9-1,2.4-1.1,2.5c0,0,0,0,0,0c-0.1,0.2-0.6,1.8-0.8,1.9
	c-0.2,0.2-1.1,2-1.2,2.8c-0.1,0.7-0.6,2.1-1.4,1.7c-0.8-0.4-0.9-0.8-0.9-1.5c0-0.7,0-3.4,0.4-4.3c0.4-0.8,0.2-2.5,0.2-2.6
	c0,0,0,0,0,0l-0.1-3.7c0,0,0,0,0,0c0-0.2,0.1-4.5-0.4-5.1c-0.5-0.6-1.1-1.5-2.4-0.9c0,0-0.6,0.1-0.7,2.9s0,4.9-0.2,5.6
	c-0.3,0.7-0.4,3.9-0.4,4.1c0,0.3,0.2,2.7,0,2.7c-0.3,0-1-0.4-1-1.1c0-0.7,0-3.8,0-4c0-0.3,0-2.2-0.3-3.4c-0.3-1.2-0.2-3.4-0.2-3.4
	s0-3.9-0.1-4.1c0-0.2,0.2-1.7-1.5-1.9c-1.6-0.2-1.9,1.7-1.9,1.8c0,0,0,0,0,0c0,0.1-0.2,3.2-0.2,3.8c0,0.7,0,2.6,0,3.4
	c0,0.8,0,3.8,0.2,4.7c0.2,1,0.5,3.6,0.3,3.8c-0.3,0.2-1.3,0-1.3-0.3c0-0.3-1-6.4-1.3-7s-0.7-4-0.7-4s-0.4-4-2.2-4s-1.6,2.4-1.6,3
	c0,0.6,0.4,2.3,0.4,3.1s0,4,0.5,5.5c0.5,1.5,1,4.8,0.9,6.6c-0.1,1.8,0.2,4-1.5,5.7c-1.7,1.6-4.2-0.4-4.4-0.5c0,0,0,0,0,0
	c-0.2-0.2-4.2-4.8-8.4-3.7c0,0,0,0,0,0c-0.2,0.1-2.1,1.1-1,2.5c0,0,0.1,0,0.1,0.1c0.3,0.1,2.4,0.7,2.8,1.6c0.4,0.8,1.6,1.2,1.9,1.2
	c0,0,0,0,0.1,0c0.3,0.2,2.4,1.9,2.8,3c0.5,1.1,3,2.9,3.5,3.3c0.5,0.4,2.8,3.1,2.8,3.1s1.1,1.4,1.8,1.5c0.1,0,0.1,0.1,0.1,0.1
	c0,0.4,0.1,1.5-0.5,2.6c-0.7,1.3-0.8,2.7-1.2,3.9c-0.3,1-1.1,2.8-1.3,3.4c0,0.1,0,0.2,0.2,0.2h13.7
	C114.2,108.9,114.2,108.9,114.2,108.9L114.2,108.9z"/>
<path class="st2" d="M68.3,108.9C68.4,108.9,68.4,108.8,68.3,108.9c0.1-0.6,0.4-3.5,0.4-4.2c-0.1-0.7,0.4-1.8,0.4-2c0,0,0,0,0,0
	c0.1-0.1,0.5-0.7,1-1.6c0.6-1,1-2.8,1.3-3.1s1.5-2.6,1.9-4s0.8-4.5,1-5.1c0.2-0.6,0.5-1.5,0.5-2.4s0.5-2.3,0.4-2.5c0-0.2,0-2,1-3.6
	c0.5-0.8,0.7-1.5,0.8-2c0.1-0.7,0.3-1.4,0.6-2.1c0.2-0.4,0.3-0.8,0.3-0.9c0.1-0.3,1.6-3.9,0.8-4.6c-0.7-0.6-1.3-0.6-1.3-0.6
	c0,0,0,0,0,0c-0.1,0-0.9,0.3-1.6,2.3c-0.7,1.9-1,2.4-1.1,2.5c0,0,0,0,0,0c-0.1,0.2-0.6,1.8-0.8,1.9c-0.2,0.2-1.1,2-1.2,2.8
	c-0.1,0.7-0.6,2.1-1.4,1.7c-0.8-0.4-0.9-0.8-0.9-1.5c0-0.7,0-3.4,0.4-4.3C71.2,74.7,71,73,71,73c0,0,0,0,0,0l-0.1-3.7c0,0,0,0,0,0
	c0-0.2,0.1-4.5-0.4-5.1c-0.5-0.6-1.1-1.5-2.4-0.9c0,0-0.6,0.1-0.7,2.9c0,2.8,0,4.9-0.2,5.6c-0.3,0.7-0.4,3.9-0.4,4.1
	c0,0.3,0.2,2.7,0,2.7s-1-0.4-1-1.1c0-0.7,0-3.8,0-4c0-0.3,0-2.2-0.3-3.4c-0.3-1.2-0.2-3.4-0.2-3.4s0-3.9-0.1-4.1s0.2-1.7-1.5-1.9
	c-1.6-0.2-1.9,1.7-1.9,1.8c0,0,0,0,0,0c0,0.1-0.2,3.2-0.2,3.8c0,0.7,0,2.6,0,3.4c0,0.8,0,3.8,0.2,4.7c0.2,1,0.5,3.6,0.3,3.8
	c-0.3,0.2-1.3,0-1.3-0.3c0-0.3-1-6.4-1.3-7c-0.3-0.6-0.7-4-0.7-4s-0.4-4-2.2-4c-1.8,0-1.6,2.4-1.6,3c0,0.6,0.4,2.3,0.4,3.1
	s0,4,0.5,5.5c0.5,1.5,1,4.8,0.9,6.6c-0.1,1.8,0.2,4-1.5,5.7c-1.7,1.6-4.2-0.4-4.4-0.5c0,0,0,0,0,0c-0.2-0.2-4.2-4.8-8.4-3.7
	c0,0,0,0,0,0c-0.2,0.1-2.1,1.1-1,2.5c0,0,0.1,0,0.1,0.1c0.3,0.1,2.4,0.7,2.8,1.6c0.4,0.8,1.6,1.2,1.9,1.2c0,0,0,0,0.1,0
	c0.3,0.2,2.4,1.9,2.8,3c0.5,1.1,3,2.9,3.5,3.3c0.5,0.4,2.8,3.1,2.8,3.1s1.1,1.4,1.8,1.5c0.1,0,0.1,0.1,0.1,0.1
	c0,0.4,0.1,1.5-0.5,2.6c-0.7,1.3-0.8,2.7-1.2,3.9c-0.3,1-1.1,2.8-1.3,3.4c0,0.1,0,0.2,0.2,0.2h13.7
	C68.3,108.9,68.3,108.9,68.3,108.9L68.3,108.9z"/>
<g>
	<path class="st2" d="M53.8,124.2h-1v-6.3c0-0.5,0-1,0-1.5c-0.1,0.1-0.2,0.2-0.3,0.3c-0.1,0.1-0.6,0.5-1.4,1.2l-0.5-0.7l2.3-1.8h0.8
		V124.2z"/>
	<path class="st2" d="M63,119.8c0,1.5-0.2,2.7-0.7,3.4c-0.5,0.8-1.2,1.1-2.2,1.1c-0.9,0-1.7-0.4-2.2-1.2c-0.5-0.8-0.7-1.9-0.7-3.4
		c0-1.5,0.2-2.7,0.7-3.4c0.5-0.7,1.2-1.1,2.2-1.1c1,0,1.7,0.4,2.2,1.2S63,118.3,63,119.8z M58.1,119.8c0,1.3,0.2,2.2,0.5,2.8
		s0.8,0.9,1.4,0.9c0.7,0,1.2-0.3,1.5-0.9c0.3-0.6,0.4-1.5,0.4-2.8c0-1.3-0.1-2.2-0.4-2.8c-0.3-0.6-0.8-0.9-1.5-0.9
		c-0.7,0-1.1,0.3-1.4,0.9S58.1,118.5,58.1,119.8z"/>
	<path class="st2" d="M67.8,118c0,0.9-0.2,1.6-0.5,2.1c-0.3,0.5-0.8,0.7-1.4,0.7c-0.6,0-1-0.2-1.3-0.7c-0.3-0.5-0.5-1.2-0.5-2.1
		c0-0.9,0.1-1.6,0.4-2.1c0.3-0.5,0.7-0.7,1.3-0.7c0.6,0,1,0.2,1.3,0.7C67.6,116.4,67.8,117.1,67.8,118z M65,118
		c0,0.7,0.1,1.2,0.2,1.5c0.1,0.3,0.4,0.5,0.7,0.5c0.7,0,1-0.7,1-2.1c0-1.4-0.3-2-1-2c-0.3,0-0.6,0.2-0.7,0.5
		C65.1,116.8,65,117.3,65,118z M71.5,115.4l-4.9,8.8h-0.9l4.9-8.8H71.5z M73.1,121.5c0,0.9-0.2,1.6-0.5,2.1
		c-0.3,0.5-0.8,0.7-1.4,0.7c-0.6,0-1-0.2-1.3-0.7c-0.3-0.5-0.5-1.2-0.5-2.1c0-0.9,0.1-1.6,0.4-2.1c0.3-0.5,0.7-0.7,1.3-0.7
		c0.6,0,1,0.2,1.3,0.7S73.1,120.6,73.1,121.5z M70.3,121.5c0,0.7,0.1,1.2,0.2,1.5s0.4,0.5,0.7,0.5s0.6-0.2,0.7-0.5
		c0.2-0.3,0.2-0.9,0.2-1.5c0-0.7-0.1-1.2-0.2-1.5c-0.2-0.3-0.4-0.5-0.7-0.5s-0.6,0.2-0.7,0.5C70.4,120.3,70.3,120.8,70.3,121.5z"/>
	<path class="st2" d="M85.8,119.8c0,1.4-0.4,2.5-1.1,3.3s-1.7,1.2-3,1.2c-1.3,0-2.3-0.4-3-1.2c-0.7-0.8-1.1-1.9-1.1-3.4
		c0-1.4,0.4-2.5,1.1-3.3c0.7-0.8,1.7-1.2,3-1.2c1.3,0,2.3,0.4,3,1.2S85.8,118.3,85.8,119.8z M78.8,119.8c0,1.2,0.3,2.1,0.8,2.7
		c0.5,0.6,1.2,0.9,2.2,0.9c1,0,1.7-0.3,2.2-0.9c0.5-0.6,0.7-1.5,0.7-2.7c0-1.2-0.2-2.1-0.7-2.7c-0.5-0.6-1.2-0.9-2.2-0.9
		c-1,0-1.7,0.3-2.2,0.9S78.8,118.6,78.8,119.8z"/>
	<path class="st2" d="M88.8,124.2h-1v-8.8h4.9v0.9h-3.9v3.2h3.7v0.9h-3.7V124.2z"/>
	<path class="st2" d="M103,117.9c0,0.9-0.3,1.6-0.9,2.1s-1.5,0.7-2.6,0.7h-1v3.5h-1v-8.8h2.3C101.9,115.4,103,116.2,103,117.9z
		 M98.4,119.8h0.9c0.9,0,1.6-0.1,2-0.4c0.4-0.3,0.6-0.8,0.6-1.4c0-0.6-0.2-1-0.6-1.3c-0.4-0.3-1-0.4-1.8-0.4h-1.1V119.8z"/>
	<path class="st2" d="M109.7,124.2h-4.9v-8.8h4.9v0.9h-3.9v2.8h3.7v0.9h-3.7v3.2h3.9V124.2z"/>
	<path class="st2" d="M119.3,119.8c0,1.4-0.4,2.5-1.1,3.3s-1.7,1.2-3,1.2c-1.3,0-2.3-0.4-3-1.2c-0.7-0.8-1.1-1.9-1.1-3.4
		c0-1.4,0.4-2.5,1.1-3.3c0.7-0.8,1.7-1.2,3-1.2c1.3,0,2.3,0.4,3,1.2S119.3,118.3,119.3,119.8z M112.3,119.8c0,1.2,0.3,2.1,0.8,2.7
		c0.5,0.6,1.2,0.9,2.2,0.9c1,0,1.7-0.3,2.2-0.9c0.5-0.6,0.7-1.5,0.7-2.7c0-1.2-0.2-2.1-0.7-2.7c-0.5-0.6-1.2-0.9-2.2-0.9
		c-1,0-1.7,0.3-2.2,0.9S112.3,118.6,112.3,119.8z"/>
	<path class="st2" d="M126.9,117.9c0,0.9-0.3,1.6-0.9,2.1s-1.5,0.7-2.6,0.7h-1v3.5h-1v-8.8h2.3C125.8,115.4,126.9,116.2,126.9,117.9
		z M122.3,119.8h0.9c0.9,0,1.6-0.1,2-0.4c0.4-0.3,0.6-0.8,0.6-1.4c0-0.6-0.2-1-0.6-1.3c-0.4-0.3-1-0.4-1.8-0.4h-1.1V119.8z"/>
	<path class="st2" d="M128.7,124.2v-8.8h1v7.9h3.9v0.9H128.7z"/>
	<path class="st2" d="M140.1,124.2h-4.9v-8.8h4.9v0.9h-3.9v2.8h3.7v0.9h-3.7v3.2h3.9V124.2z"/>
	<path class="st2" d="M150.8,124.2l-1.1-2.8h-3.5l-1.1,2.8h-1l3.5-8.9h0.9l3.5,8.9H150.8z M149.4,120.5l-1-2.7
		c-0.1-0.3-0.3-0.8-0.4-1.3c-0.1,0.4-0.2,0.8-0.4,1.3l-1,2.7H149.4z"/>
	<path class="st2" d="M154.1,120.5v3.7h-1v-8.8h2.4c1.1,0,1.9,0.2,2.4,0.6c0.5,0.4,0.8,1,0.8,1.9c0,1.2-0.6,2-1.8,2.4l2.4,4h-1.2
		l-2.1-3.7H154.1z M154.1,119.6h1.4c0.7,0,1.3-0.1,1.6-0.4c0.3-0.3,0.5-0.7,0.5-1.3c0-0.6-0.2-1-0.5-1.3c-0.3-0.3-0.9-0.4-1.7-0.4
		h-1.3V119.6z"/>
	<path class="st2" d="M165.6,124.2h-4.9v-8.8h4.9v0.9h-3.9v2.8h3.7v0.9h-3.7v3.2h3.9V124.2z"/>
	<path class="st2" d="M170.8,124.2v-8.8h1v7.9h3.9v0.9H170.8z"/>
	<path class="st2" d="M182.1,124.2h-4.9v-8.8h4.9v0.9h-3.9v2.8h3.7v0.9h-3.7v3.2h3.9V124.2z"/>
	<path class="st2" d="M185.1,124.2h-1v-8.8h4.9v0.9h-3.9v3.2h3.7v0.9h-3.7V124.2z"/>
	<path class="st2" d="M193.2,124.2h-1v-7.9h-2.8v-0.9h6.6v0.9h-2.8V124.2z"/>
	<path class="st2" d="M207.2,124.2h-1V120h-4.6v4.2h-1v-8.8h1v3.8h4.6v-3.8h1V124.2z"/>
	<path class="st2" d="M215.2,124.2l-1.1-2.8h-3.5l-1.1,2.8h-1l3.5-8.9h0.9l3.5,8.9H215.2z M213.7,120.5l-1-2.7
		c-0.1-0.3-0.3-0.8-0.4-1.3c-0.1,0.4-0.2,0.8-0.4,1.3l-1,2.7H213.7z"/>
	<path class="st2" d="M224.3,124.2h-1.2l-4.8-7.4h0c0.1,0.9,0.1,1.7,0.1,2.4v5h-0.9v-8.8h1.2l4.8,7.4h0c0-0.1,0-0.5-0.1-1
		c0-0.6,0-1,0-1.3v-5.1h1V124.2z"/>
	<path class="st2" d="M233.8,119.7c0,1.5-0.4,2.6-1.2,3.3c-0.8,0.8-1.9,1.2-3.4,1.2h-2.4v-8.8h2.7c1.4,0,2.4,0.4,3.2,1.1
		C233.4,117.3,233.8,118.3,233.8,119.7z M232.7,119.7c0-1.2-0.3-2-0.9-2.6c-0.6-0.6-1.4-0.9-2.6-0.9h-1.5v7h1.2
		c1.2,0,2.1-0.3,2.8-0.9S232.7,120.9,232.7,119.7z"/>
	<path class="st2" d="M240.7,124.2h-4.9v-8.8h4.9v0.9h-3.9v2.8h3.7v0.9h-3.7v3.2h3.9V124.2z"/>
	<path class="st2" d="M249.7,119.7c0,1.5-0.4,2.6-1.2,3.3c-0.8,0.8-1.9,1.2-3.4,1.2h-2.4v-8.8h2.7c1.4,0,2.4,0.4,3.2,1.1
		C249.3,117.3,249.7,118.3,249.7,119.7z M248.6,119.7c0-1.2-0.3-2-0.9-2.6c-0.6-0.6-1.4-0.9-2.6-0.9h-1.5v7h1.2
		c1.2,0,2.1-0.3,2.8-0.9S248.6,120.9,248.6,119.7z"/>
</g>
<g>
</g>
<g>
</g>
<g>
</g>
<g>
</g>
<g>
</g>
<g>
</g>
</svg>
