<?xml version="1.0" encoding="utf-8"?>
<!-- Generator: Adobe Illustrator 19.1.0, SVG Export Plug-In . SVG Version: 6.00 Build 0)  -->
<svg version="1.1" id="Layer_1" xmlns="http://www.w3.org/2000/svg" xmlns:xlink="http://www.w3.org/1999/xlink" x="0px" y="0px"
	 width="244.7px" height="69.8px" viewBox="0 0 244.7 69.8" style="enable-background:new 0 0 244.7 69.8;" xml:space="preserve">
<style type="text/css">
	.st0{fill:#C95145;}
	.st1{fill:#344B62;}
	.st2{fill:none;}
	.st3{fill:#FCD4BB;}
</style>
<path class="st0" d="M241.7,5.4H2.9C1.3,5.4,0,6.8,0,8.4v58.5c0,1.6,1.3,2.9,2.9,2.9h238.8c1.6,0,2.9-1.3,2.9-2.9V8.4
	C244.7,6.8,243.3,5.4,241.7,5.4z"/>
<path class="st1" d="M236.8,0H5.3C3.7,0,2.4,1.3,2.4,2.9v58.6c0,1.6,1.3,2.9,2.9,2.9h231.5c1.6,0,2.9-1.3,2.9-2.9V2.9
	C239.7,1.3,238.4,0,236.8,0z"/>
<g>
	<rect x="27.9" y="5.4" class="st2" width="211.2" height="72.4"/>
	<path class="st3" d="M34.5,14.6l-1.1-2.7H30l-1.1,2.7h-1L31.3,6h0.8l3.4,8.6H34.5z M33.1,10.9l-1-2.7C32,7.9,31.9,7.5,31.7,7
		c-0.1,0.4-0.2,0.8-0.4,1.2l-1,2.7H33.1z"/>
	<path class="st3" d="M43.8,12.8c0,0.6-0.2,1.1-0.7,1.4s-1.1,0.5-1.9,0.5c-0.9,0-1.5-0.1-2-0.4v-0.9c0.3,0.2,0.6,0.3,1,0.4
		s0.7,0.1,1,0.1c0.5,0,0.9-0.1,1.2-0.2s0.4-0.4,0.4-0.7c0-0.2-0.1-0.5-0.3-0.6s-0.6-0.4-1.3-0.6c-0.6-0.2-1-0.4-1.3-0.6
		s-0.4-0.4-0.6-0.6s-0.2-0.5-0.2-0.8c0-0.5,0.2-0.9,0.6-1.2s1-0.5,1.8-0.5c0.7,0,1.4,0.1,2,0.4l-0.3,0.8c-0.6-0.3-1.2-0.4-1.8-0.4
		c-0.5,0-0.8,0.1-1,0.2s-0.4,0.3-0.4,0.6c0,0.2,0,0.3,0.1,0.4s0.2,0.2,0.4,0.3s0.6,0.3,1.1,0.5c0.8,0.3,1.3,0.6,1.5,0.8
		S43.8,12.4,43.8,12.8z"/>
	<path class="st3" d="M46.3,8.1v4.2c0,0.5,0.1,0.9,0.4,1.2s0.6,0.4,1.1,0.4c0.7,0,1.2-0.2,1.5-0.6s0.5-1,0.5-1.8V8.1h1v6.4h-0.8
		l-0.1-0.9h-0.1c-0.2,0.3-0.5,0.6-0.8,0.7s-0.8,0.3-1.2,0.3c-0.8,0-1.4-0.2-1.8-0.6s-0.6-1-0.6-1.8V8.1H46.3z"/>
	<path class="st3" d="M55.7,8c0.3,0,0.5,0,0.8,0.1L56.3,9c-0.3-0.1-0.5-0.1-0.7-0.1c-0.5,0-1,0.2-1.3,0.6s-0.6,0.9-0.6,1.6v3.4h-1
		V8.1h0.8l0.1,1.2h0c0.2-0.4,0.5-0.7,0.9-1S55.3,8,55.7,8z"/>
	<path class="st3" d="M59.1,14.6l-2.4-6.4h1l1.4,3.8c0.3,0.9,0.5,1.5,0.6,1.7h0c0-0.2,0.2-0.6,0.4-1.3s0.7-2.1,1.5-4.3h1l-2.4,6.4
		H59.1z"/>
	<path class="st3" d="M66.4,14.7c-0.9,0-1.7-0.3-2.2-0.9s-0.8-1.4-0.8-2.4c0-1,0.3-1.9,0.8-2.5S65.3,8,66.1,8c0.8,0,1.4,0.3,1.9,0.8
		s0.7,1.2,0.7,2.1v0.6h-4.4c0,0.8,0.2,1.3,0.6,1.7s0.9,0.6,1.5,0.6c0.7,0,1.4-0.1,2.1-0.4v0.9c-0.3,0.1-0.7,0.3-1,0.3
		S66.8,14.7,66.4,14.7z M66.1,8.8c-0.5,0-0.9,0.2-1.2,0.5s-0.5,0.8-0.5,1.4h3.4c0-0.6-0.1-1.1-0.4-1.4S66.6,8.8,66.1,8.8z"/>
	<path class="st3" d="M69.4,8.1h1l1.4,3.7c0.3,0.8,0.5,1.4,0.6,1.8h0c0.1-0.2,0.2-0.5,0.3-1s0.7-2,1.6-4.5h1l-2.8,7.3
		c-0.3,0.7-0.6,1.2-1,1.5s-0.8,0.5-1.3,0.5c-0.3,0-0.6,0-0.9-0.1v-0.8c0.2,0,0.5,0.1,0.7,0.1c0.7,0,1.1-0.4,1.4-1.1l0.4-0.9
		L69.4,8.1z"/>
	<path class="st3" d="M82.6,8c0.8,0,1.5,0.3,2,0.9s0.7,1.4,0.7,2.4s-0.2,1.9-0.7,2.5s-1.1,0.9-2,0.9c-0.4,0-0.8-0.1-1.1-0.2
		s-0.6-0.4-0.9-0.7h-0.1l-0.2,0.8h-0.7V5.4h1v2.2c0,0.5,0,0.9,0,1.3h0C81,8.4,81.7,8,82.6,8z M82.4,8.8c-0.7,0-1.1,0.2-1.4,0.6
		s-0.4,1-0.4,1.9s0.2,1.5,0.5,1.9s0.8,0.6,1.4,0.6c0.6,0,1-0.2,1.3-0.7s0.4-1.1,0.4-1.9c0-0.8-0.1-1.5-0.4-1.9S83,8.8,82.4,8.8z"/>
	<path class="st3" d="M85.9,8.1h1l1.4,3.7c0.3,0.8,0.5,1.4,0.6,1.8h0c0.1-0.2,0.2-0.5,0.3-1s0.7-2,1.6-4.5h1l-2.8,7.3
		c-0.3,0.7-0.6,1.2-1,1.5s-0.8,0.5-1.3,0.5c-0.3,0-0.6,0-0.9-0.1v-0.8c0.2,0,0.5,0.1,0.7,0.1c0.7,0,1.1-0.4,1.4-1.1l0.4-0.9
		L85.9,8.1z"/>
	<path class="st3" d="M96.2,14.6V6h1v7.7h3.8v0.9H96.2z"/>
	<path class="st3" d="M105,14.7c-0.9,0-1.7-0.3-2.2-0.9s-0.8-1.4-0.8-2.4c0-1,0.3-1.9,0.8-2.5s1.2-0.9,2.1-0.9
		c0.8,0,1.4,0.3,1.9,0.8s0.7,1.2,0.7,2.1v0.6H103c0,0.8,0.2,1.3,0.6,1.7s0.9,0.6,1.5,0.6c0.7,0,1.4-0.1,2.1-0.4v0.9
		c-0.3,0.1-0.7,0.3-1,0.3S105.5,14.7,105,14.7z M104.8,8.8c-0.5,0-0.9,0.2-1.2,0.5s-0.5,0.8-0.5,1.4h3.4c0-0.6-0.1-1.1-0.4-1.4
		S105.3,8.8,104.8,8.8z"/>
	<path class="st3" d="M111.9,8.9h-1.6v5.7h-1V8.9h-1.1V8.5l1.1-0.4V7.7c0-1.6,0.7-2.4,2.1-2.4c0.3,0,0.7,0.1,1.2,0.2l-0.3,0.8
		c-0.4-0.1-0.7-0.2-1-0.2c-0.4,0-0.6,0.1-0.8,0.4s-0.3,0.6-0.3,1.2v0.4h1.6V8.9z"/>
	<path class="st3" d="M115.2,13.9c0.2,0,0.3,0,0.5,0s0.3-0.1,0.4-0.1v0.7c-0.1,0.1-0.3,0.1-0.5,0.1s-0.4,0-0.6,0
		c-1.2,0-1.9-0.7-1.9-2V8.9h-0.9V8.4l0.9-0.4l0.4-1.4h0.6v1.5h1.9v0.8h-1.9v3.8c0,0.4,0.1,0.7,0.3,0.9S114.9,13.9,115.2,13.9z"/>
	<path class="st3" d="M121.7,14.6v-4.2c0-0.5-0.1-0.9-0.4-1.2s-0.6-0.4-1.1-0.4c-0.7,0-1.2,0.2-1.5,0.6s-0.5,1-0.5,1.8v3.4h-1V5.4h1
		v2.8c0,0.3,0,0.6,0,0.8h0.1c0.2-0.3,0.5-0.6,0.8-0.7s0.8-0.3,1.2-0.3c0.8,0,1.4,0.2,1.8,0.6s0.6,1,0.6,1.8v4.2H121.7z"/>
	<path class="st3" d="M128.7,14.6l-0.2-0.9h0c-0.3,0.4-0.6,0.7-1,0.8s-0.7,0.2-1.2,0.2c-0.6,0-1.1-0.2-1.5-0.5s-0.5-0.8-0.5-1.4
		c0-1.3,1-2,3.1-2l1.1,0v-0.4c0-0.5-0.1-0.9-0.3-1.1s-0.6-0.4-1-0.4c-0.5,0-1.1,0.2-1.8,0.5L125,8.6c0.3-0.2,0.7-0.3,1-0.4
		s0.8-0.1,1.1-0.1c0.8,0,1.3,0.2,1.7,0.5s0.6,0.9,0.6,1.6v4.4H128.7z M126.5,13.9c0.6,0,1.1-0.2,1.4-0.5s0.5-0.8,0.5-1.4v-0.6l-1,0
		c-0.8,0-1.3,0.1-1.7,0.4s-0.5,0.5-0.5,1c0,0.4,0.1,0.6,0.3,0.8S126.1,13.9,126.5,13.9z"/>
	<path class="st3" d="M135.8,14.6v-4.2c0-0.5-0.1-0.9-0.4-1.2s-0.6-0.4-1.1-0.4c-0.7,0-1.2,0.2-1.5,0.5s-0.5,1-0.5,1.8v3.4h-1V8.1
		h0.8l0.2,0.9h0c0.2-0.3,0.5-0.6,0.8-0.7S134,8,134.4,8c0.8,0,1.4,0.2,1.7,0.6s0.6,1,0.6,1.8v4.2H135.8z"/>
	<path class="st3" d="M143.1,13.7L143.1,13.7c-0.5,0.7-1.2,1-2.1,1c-0.8,0-1.5-0.3-2-0.9s-0.7-1.4-0.7-2.4s0.2-1.9,0.7-2.5
		s1.1-0.9,2-0.9c0.9,0,1.5,0.3,2,0.9h0.1l0-0.5l0-0.5V5.4h1v9.1h-0.8L143.1,13.7z M141.2,13.9c0.7,0,1.1-0.2,1.4-0.5
		s0.4-0.9,0.4-1.7v-0.2c0-0.9-0.2-1.6-0.5-1.9s-0.8-0.6-1.5-0.6c-0.6,0-1,0.2-1.3,0.7s-0.5,1.1-0.5,1.9c0,0.8,0.2,1.4,0.5,1.9
		S140.6,13.9,141.2,13.9z"/>
	<path class="st3" d="M148.8,14.7c-0.9,0-1.7-0.3-2.2-0.9s-0.8-1.4-0.8-2.4c0-1,0.3-1.9,0.8-2.5s1.2-0.9,2.1-0.9
		c0.8,0,1.4,0.3,1.9,0.8s0.7,1.2,0.7,2.1v0.6h-4.4c0,0.8,0.2,1.3,0.6,1.7s0.9,0.6,1.5,0.6c0.7,0,1.4-0.1,2.1-0.4v0.9
		c-0.3,0.1-0.7,0.3-1,0.3S149.3,14.7,148.8,14.7z M148.6,8.8c-0.5,0-0.9,0.2-1.2,0.5s-0.5,0.8-0.5,1.4h3.4c0-0.6-0.1-1.1-0.4-1.4
		S149.1,8.8,148.6,8.8z"/>
	<path class="st3" d="M155.8,8c0.3,0,0.5,0,0.8,0.1L156.4,9c-0.3-0.1-0.5-0.1-0.7-0.1c-0.5,0-1,0.2-1.3,0.6s-0.6,0.9-0.6,1.6v3.4h-1
		V8.1h0.8l0.1,1.2h0c0.2-0.4,0.5-0.7,0.9-1S155.4,8,155.8,8z"/>
	<path class="st3" d="M161.9,12.8c0,0.6-0.2,1.1-0.7,1.4s-1.1,0.5-1.9,0.5c-0.9,0-1.5-0.1-2-0.4v-0.9c0.3,0.2,0.6,0.3,1,0.4
		s0.7,0.1,1,0.1c0.5,0,0.9-0.1,1.2-0.2s0.4-0.4,0.4-0.7c0-0.2-0.1-0.5-0.3-0.6s-0.6-0.4-1.3-0.6c-0.6-0.2-1-0.4-1.3-0.6
		s-0.4-0.4-0.6-0.6s-0.2-0.5-0.2-0.8c0-0.5,0.2-0.9,0.6-1.2s1-0.5,1.8-0.5c0.7,0,1.4,0.1,2,0.4l-0.3,0.8c-0.6-0.3-1.2-0.4-1.8-0.4
		c-0.5,0-0.8,0.1-1,0.2s-0.4,0.3-0.4,0.6c0,0.2,0,0.3,0.1,0.4s0.2,0.2,0.4,0.3s0.6,0.3,1.1,0.5c0.8,0.3,1.3,0.6,1.5,0.8
		S161.9,12.4,161.9,12.8z"/>
	<path class="st3" d="M167.8,13.7L167.8,13.7c-0.5,0.7-1.2,1-2.1,1c-0.8,0-1.5-0.3-2-0.9s-0.7-1.4-0.7-2.4s0.2-1.9,0.7-2.5
		s1.1-0.9,2-0.9c0.9,0,1.5,0.3,2,0.9h0.1l0-0.5l0-0.5V5.4h1v9.1H168L167.8,13.7z M165.9,13.9c0.7,0,1.1-0.2,1.4-0.5s0.4-0.9,0.4-1.7
		v-0.2c0-0.9-0.2-1.6-0.5-1.9s-0.8-0.6-1.5-0.6c-0.6,0-1,0.2-1.3,0.7s-0.5,1.1-0.5,1.9c0,0.8,0.2,1.4,0.5,1.9S165.3,13.9,165.9,13.9
		z"/>
	<path class="st3" d="M174.8,14.6l-0.2-0.9h0c-0.3,0.4-0.6,0.7-1,0.8s-0.7,0.2-1.2,0.2c-0.6,0-1.1-0.2-1.5-0.5s-0.5-0.8-0.5-1.4
		c0-1.3,1-2,3.1-2l1.1,0v-0.4c0-0.5-0.1-0.9-0.3-1.1s-0.6-0.4-1-0.4c-0.5,0-1.1,0.2-1.8,0.5l-0.3-0.7c0.3-0.2,0.7-0.3,1-0.4
		s0.8-0.1,1.1-0.1c0.8,0,1.3,0.2,1.7,0.5s0.6,0.9,0.6,1.6v4.4H174.8z M172.6,13.9c0.6,0,1.1-0.2,1.4-0.5s0.5-0.8,0.5-1.4v-0.6l-1,0
		c-0.8,0-1.3,0.1-1.7,0.4s-0.5,0.5-0.5,1c0,0.4,0.1,0.6,0.3,0.8S172.2,13.9,172.6,13.9z"/>
	<path class="st3" d="M176.5,8.1h1l1.4,3.7c0.3,0.8,0.5,1.4,0.6,1.8h0c0.1-0.2,0.2-0.5,0.3-1s0.7-2,1.6-4.5h1l-2.8,7.3
		c-0.3,0.7-0.6,1.2-1,1.5s-0.8,0.5-1.3,0.5c-0.3,0-0.6,0-0.9-0.1v-0.8c0.2,0,0.5,0.1,0.7,0.1c0.7,0,1.1-0.4,1.4-1.1l0.4-0.9
		L176.5,8.1z"/>
	<path class="st3" d="M183.4,13.9c0-0.3,0.1-0.5,0.2-0.6s0.3-0.2,0.5-0.2c0.2,0,0.4,0.1,0.5,0.2s0.2,0.3,0.2,0.6
		c0,0.3-0.1,0.4-0.2,0.6s-0.3,0.2-0.5,0.2c-0.2,0-0.4-0.1-0.5-0.2S183.4,14.2,183.4,13.9z"/>
	<path class="st3" d="M189.3,14.7c-0.9,0-1.6-0.3-2.2-0.9s-0.8-1.4-0.8-2.4c0-1.1,0.3-1.9,0.8-2.5s1.3-0.9,2.2-0.9
		c0.3,0,0.6,0,0.9,0.1s0.6,0.1,0.7,0.2l-0.3,0.8C190.5,9.1,190.3,9,190,9s-0.5-0.1-0.7-0.1c-1.3,0-2,0.8-2,2.5
		c0,0.8,0.2,1.4,0.5,1.8s0.8,0.6,1.4,0.6c0.5,0,1.1-0.1,1.6-0.3v0.9C190.5,14.6,189.9,14.7,189.3,14.7z"/>
	<path class="st3" d="M198,11.3c0,1-0.3,1.9-0.8,2.5s-1.3,0.9-2.2,0.9c-0.6,0-1.1-0.1-1.5-0.4s-0.8-0.7-1-1.2s-0.4-1.1-0.4-1.8
		c0-1,0.3-1.9,0.8-2.4S194.1,8,195,8c0.9,0,1.6,0.3,2.1,0.9S198,10.3,198,11.3z M193.1,11.3c0,0.8,0.2,1.4,0.5,1.9s0.8,0.6,1.4,0.6
		s1.1-0.2,1.5-0.6s0.5-1.1,0.5-1.9c0-0.8-0.2-1.4-0.5-1.9s-0.8-0.6-1.5-0.6c-0.6,0-1.1,0.2-1.4,0.6S193.1,10.5,193.1,11.3z"/>
	<path class="st3" d="M207.9,14.6v-4.2c0-0.5-0.1-0.9-0.3-1.2s-0.6-0.4-1-0.4c-0.6,0-1.1,0.2-1.3,0.5s-0.4,0.9-0.4,1.6v3.6h-1v-4.2
		c0-0.5-0.1-0.9-0.3-1.2s-0.6-0.4-1-0.4c-0.6,0-1.1,0.2-1.3,0.5s-0.4,1-0.4,1.8v3.4h-1V8.1h0.8l0.2,0.9h0c0.2-0.3,0.4-0.6,0.8-0.7
		s0.7-0.3,1.1-0.3c1,0,1.7,0.4,2,1.1h0c0.2-0.3,0.5-0.6,0.8-0.8s0.8-0.3,1.2-0.3c0.7,0,1.3,0.2,1.6,0.6s0.5,1,0.5,1.8v4.2H207.9z"/>
	<path class="st3" d="M31.9,23.3h-1.6V29h-1v-5.7h-1.1v-0.4l1.1-0.4v-0.4c0-1.6,0.7-2.4,2.1-2.4c0.3,0,0.7,0.1,1.2,0.2l-0.3,0.8
		c-0.4-0.1-0.7-0.2-1-0.2c-0.4,0-0.6,0.1-0.8,0.4s-0.3,0.6-0.3,1.2v0.4h1.6V23.3z"/>
	<path class="st3" d="M38.6,25.7c0,1-0.3,1.9-0.8,2.5s-1.3,0.9-2.2,0.9c-0.6,0-1.1-0.1-1.5-0.4s-0.8-0.7-1-1.2s-0.4-1.1-0.4-1.8
		c0-1,0.3-1.9,0.8-2.4s1.2-0.9,2.2-0.9c0.9,0,1.6,0.3,2.1,0.9S38.6,24.7,38.6,25.7z M33.7,25.7c0,0.8,0.2,1.4,0.5,1.9
		s0.8,0.6,1.4,0.6s1.1-0.2,1.5-0.6s0.5-1.1,0.5-1.9c0-0.8-0.2-1.4-0.5-1.9s-0.8-0.6-1.5-0.6c-0.6,0-1.1,0.2-1.4,0.6
		S33.7,24.9,33.7,25.7z"/>
	<path class="st3" d="M41.2,22.5v4.2c0,0.5,0.1,0.9,0.4,1.2s0.6,0.4,1.1,0.4c0.7,0,1.2-0.2,1.5-0.6s0.5-1,0.5-1.8v-3.4h1V29h-0.8
		l-0.1-0.9h-0.1c-0.2,0.3-0.5,0.6-0.8,0.7s-0.8,0.3-1.2,0.3c-0.8,0-1.4-0.2-1.8-0.6s-0.6-1-0.6-1.8v-4.2H41.2z"/>
	<path class="st3" d="M52,29v-4.2c0-0.5-0.1-0.9-0.4-1.2s-0.6-0.4-1.1-0.4c-0.7,0-1.2,0.2-1.5,0.5s-0.5,1-0.5,1.8V29h-1v-6.4h0.8
		l0.2,0.9h0c0.2-0.3,0.5-0.6,0.8-0.7s0.8-0.3,1.2-0.3c0.8,0,1.4,0.2,1.7,0.6s0.6,1,0.6,1.8V29H52z"/>
	<path class="st3" d="M59.4,28.1L59.4,28.1c-0.5,0.7-1.2,1-2.1,1c-0.8,0-1.5-0.3-2-0.9s-0.7-1.4-0.7-2.4s0.2-1.9,0.7-2.5
		s1.1-0.9,2-0.9c0.9,0,1.5,0.3,2,0.9h0.1l0-0.5l0-0.5v-2.6h1V29h-0.8L59.4,28.1z M57.4,28.3c0.7,0,1.1-0.2,1.4-0.5s0.4-0.9,0.4-1.7
		v-0.2c0-0.9-0.2-1.6-0.5-1.9s-0.8-0.6-1.5-0.6c-0.6,0-1,0.2-1.3,0.7s-0.5,1.1-0.5,1.9c0,0.8,0.2,1.4,0.5,1.9S56.8,28.3,57.4,28.3z"
		/>
	<path class="st3" d="M67.5,28.3c0.2,0,0.3,0,0.5,0s0.3-0.1,0.4-0.1v0.7C68.3,29,68.2,29,68,29s-0.4,0-0.6,0c-1.2,0-1.9-0.7-1.9-2
		v-3.8h-0.9v-0.5l0.9-0.4L66,21h0.6v1.5h1.9v0.8h-1.9v3.8c0,0.4,0.1,0.7,0.3,0.9S67.2,28.3,67.5,28.3z"/>
	<path class="st3" d="M74.1,29v-4.2c0-0.5-0.1-0.9-0.4-1.2s-0.6-0.4-1.1-0.4c-0.7,0-1.2,0.2-1.5,0.6s-0.5,1-0.5,1.8V29h-1v-9.1h1
		v2.8c0,0.3,0,0.6,0,0.8h0.1c0.2-0.3,0.5-0.6,0.8-0.7s0.8-0.3,1.2-0.3c0.8,0,1.4,0.2,1.8,0.6s0.6,1,0.6,1.8V29H74.1z"/>
	<path class="st3" d="M81,29L80.8,28h0c-0.3,0.4-0.6,0.7-1,0.8s-0.7,0.2-1.2,0.2c-0.6,0-1.1-0.2-1.5-0.5s-0.5-0.8-0.5-1.4
		c0-1.3,1-2,3.1-2l1.1,0v-0.4c0-0.5-0.1-0.9-0.3-1.1s-0.6-0.4-1-0.4c-0.5,0-1.1,0.2-1.8,0.5L77.3,23c0.3-0.2,0.7-0.3,1-0.4
		s0.8-0.1,1.1-0.1c0.8,0,1.3,0.2,1.7,0.5s0.6,0.9,0.6,1.6V29H81z M78.8,28.3c0.6,0,1.1-0.2,1.4-0.5s0.5-0.8,0.5-1.4v-0.6l-1,0
		c-0.8,0-1.3,0.1-1.7,0.4s-0.5,0.5-0.5,1c0,0.4,0.1,0.6,0.3,0.8S78.4,28.3,78.8,28.3z"/>
	<path class="st3" d="M85.8,28.3c0.2,0,0.3,0,0.5,0s0.3-0.1,0.4-0.1v0.7C86.6,29,86.4,29,86.2,29s-0.4,0-0.6,0c-1.2,0-1.9-0.7-1.9-2
		v-3.8h-0.9v-0.5l0.9-0.4l0.4-1.4h0.6v1.5h1.9v0.8h-1.9v3.8c0,0.4,0.1,0.7,0.3,0.9S85.5,28.3,85.8,28.3z"/>
	<path class="st3" d="M93.5,20.3c0.8,0,1.4,0.2,1.9,0.5s0.7,0.9,0.7,1.5c0,0.4-0.1,0.8-0.4,1.2s-0.7,0.7-1.3,0.9
		c0.7,0.3,1.2,0.7,1.5,1s0.4,0.8,0.4,1.3c0,0.7-0.2,1.3-0.7,1.7s-1.2,0.6-2,0.6c-0.9,0-1.6-0.2-2.1-0.6s-0.7-1-0.7-1.7
		c0-1,0.6-1.7,1.8-2.3c-0.5-0.3-0.9-0.6-1.2-1S91,22.7,91,22.3c0-0.6,0.2-1.1,0.7-1.5S92.7,20.3,93.5,20.3z M91.6,26.8
		c0,0.5,0.2,0.8,0.5,1.1s0.8,0.4,1.4,0.4c0.6,0,1-0.1,1.4-0.4s0.5-0.6,0.5-1.1c0-0.4-0.2-0.7-0.5-1s-0.8-0.6-1.6-0.9
		c-0.6,0.2-1,0.5-1.3,0.8S91.6,26.4,91.6,26.8z M93.5,21.1c-0.5,0-0.9,0.1-1.1,0.4s-0.4,0.5-0.4,0.9c0,0.4,0.1,0.7,0.3,0.9
		s0.7,0.5,1.3,0.8c0.6-0.2,1-0.5,1.2-0.8s0.3-0.6,0.3-0.9c0-0.4-0.1-0.7-0.4-0.9S94,21.1,93.5,21.1z"/>
	<path class="st3" d="M100.2,23.7c0.9,0,1.6,0.2,2.1,0.7s0.8,1.1,0.8,1.8c0,0.9-0.3,1.6-0.8,2.1s-1.3,0.8-2.3,0.8
		c-1,0-1.7-0.2-2.2-0.5v-0.9c0.3,0.2,0.6,0.3,1,0.4s0.8,0.1,1.2,0.1c0.7,0,1.2-0.2,1.6-0.5s0.6-0.8,0.6-1.4c0-1.2-0.7-1.8-2.2-1.8
		c-0.4,0-0.9,0.1-1.5,0.2l-0.5-0.3l0.3-4h4.3v0.9h-3.4l-0.2,2.6C99.3,23.8,99.8,23.7,100.2,23.7z"/>
	<path class="st3" d="M107.9,22.9c0,0.9-0.1,1.6-0.4,2s-0.7,0.7-1.3,0.7c-0.5,0-1-0.2-1.3-0.7s-0.5-1.1-0.5-2c0-0.9,0.1-1.6,0.4-2
		s0.7-0.7,1.3-0.7c0.6,0,1,0.2,1.3,0.7S107.9,22.1,107.9,22.9z M105.2,22.9c0,0.7,0.1,1.2,0.2,1.5s0.4,0.5,0.7,0.5c0.6,0,1-0.7,1-2
		c0-1.3-0.3-2-1-2c-0.3,0-0.6,0.2-0.7,0.5S105.2,22.3,105.2,22.9z M111.5,20.4l-4.8,8.6h-0.9l4.8-8.6H111.5z M113.1,26.4
		c0,0.9-0.1,1.6-0.4,2s-0.7,0.7-1.3,0.7c-0.6,0-1-0.2-1.3-0.7s-0.4-1.1-0.4-2c0-0.9,0.1-1.6,0.4-2s0.7-0.7,1.3-0.7
		c0.6,0,1,0.2,1.3,0.7S113.1,25.5,113.1,26.4z M110.4,26.4c0,0.7,0.1,1.2,0.2,1.5s0.4,0.5,0.7,0.5s0.6-0.2,0.7-0.5s0.2-0.8,0.2-1.5
		c0-0.7-0.1-1.2-0.2-1.5s-0.4-0.5-0.7-0.5s-0.6,0.2-0.7,0.5S110.4,25.7,110.4,26.4z"/>
	<path class="st3" d="M123.4,25.7c0,1-0.3,1.9-0.8,2.5s-1.3,0.9-2.2,0.9c-0.6,0-1.1-0.1-1.5-0.4s-0.8-0.7-1-1.2s-0.4-1.1-0.4-1.8
		c0-1,0.3-1.9,0.8-2.4s1.2-0.9,2.2-0.9c0.9,0,1.6,0.3,2.1,0.9S123.4,24.7,123.4,25.7z M118.5,25.7c0,0.8,0.2,1.4,0.5,1.9
		s0.8,0.6,1.4,0.6s1.1-0.2,1.5-0.6s0.5-1.1,0.5-1.9c0-0.8-0.2-1.4-0.5-1.9s-0.8-0.6-1.5-0.6c-0.6,0-1.1,0.2-1.4,0.6
		S118.5,24.9,118.5,25.7z"/>
	<path class="st3" d="M128,23.3h-1.6V29h-1v-5.7h-1.1v-0.4l1.1-0.4v-0.4c0-1.6,0.7-2.4,2.1-2.4c0.3,0,0.7,0.1,1.2,0.2l-0.3,0.8
		c-0.4-0.1-0.7-0.2-1-0.2c-0.4,0-0.6,0.1-0.8,0.4s-0.3,0.6-0.3,1.2v0.4h1.6V23.3z"/>
	<path class="st3" d="M133.2,29h-1v-9.1h1V29z"/>
	<path class="st3" d="M138,29.1c-0.9,0-1.7-0.3-2.2-0.9s-0.8-1.4-0.8-2.4c0-1,0.3-1.9,0.8-2.5s1.2-0.9,2.1-0.9
		c0.8,0,1.4,0.3,1.9,0.8s0.7,1.2,0.7,2.1v0.6h-4.4c0,0.8,0.2,1.3,0.6,1.7s0.9,0.6,1.5,0.6c0.7,0,1.4-0.1,2.1-0.4v0.9
		c-0.3,0.1-0.7,0.3-1,0.3S138.4,29.1,138,29.1z M137.7,23.2c-0.5,0-0.9,0.2-1.2,0.5s-0.5,0.8-0.5,1.4h3.4c0-0.6-0.1-1.1-0.4-1.4
		S138.2,23.2,137.7,23.2z"/>
	<path class="st3" d="M144.9,23.3h-1.6V29h-1v-5.7h-1.1v-0.4l1.1-0.4v-0.4c0-1.6,0.7-2.4,2.1-2.4c0.3,0,0.7,0.1,1.2,0.2l-0.3,0.8
		c-0.4-0.1-0.7-0.2-1-0.2c-0.4,0-0.6,0.1-0.8,0.4s-0.3,0.6-0.3,1.2v0.4h1.6V23.3z"/>
	<path class="st3" d="M148.2,28.3c0.2,0,0.3,0,0.5,0s0.3-0.1,0.4-0.1v0.7c-0.1,0.1-0.3,0.1-0.5,0.1s-0.4,0-0.6,0
		c-1.2,0-1.9-0.7-1.9-2v-3.8h-0.9v-0.5l0.9-0.4l0.4-1.4h0.6v1.5h1.9v0.8h-1.9v3.8c0,0.4,0.1,0.7,0.3,0.9S147.8,28.3,148.2,28.3z"/>
	<path class="st3" d="M150.2,20.8c0-0.2,0.1-0.4,0.2-0.5s0.2-0.2,0.4-0.2c0.2,0,0.3,0.1,0.4,0.2s0.2,0.3,0.2,0.5s-0.1,0.4-0.2,0.5
		s-0.2,0.2-0.4,0.2c-0.2,0-0.3-0.1-0.4-0.2S150.2,21,150.2,20.8z M151.3,29h-1v-6.4h1V29z"/>
	<path class="st3" d="M156.1,29.1c-0.9,0-1.7-0.3-2.2-0.9s-0.8-1.4-0.8-2.4c0-1,0.3-1.9,0.8-2.5s1.2-0.9,2.1-0.9
		c0.8,0,1.4,0.3,1.9,0.8s0.7,1.2,0.7,2.1v0.6H154c0,0.8,0.2,1.3,0.6,1.7s0.9,0.6,1.5,0.6c0.7,0,1.4-0.1,2.1-0.4v0.9
		c-0.3,0.1-0.7,0.3-1,0.3S156.5,29.1,156.1,29.1z M155.8,23.2c-0.5,0-0.9,0.2-1.2,0.5s-0.5,0.8-0.5,1.4h3.4c0-0.6-0.1-1.1-0.4-1.4
		S156.3,23.2,155.8,23.2z"/>
	<path class="st3" d="M164.2,27.2c0,0.6-0.2,1.1-0.7,1.4s-1.1,0.5-1.9,0.5c-0.9,0-1.5-0.1-2-0.4v-0.9c0.3,0.2,0.6,0.3,1,0.4
		s0.7,0.1,1,0.1c0.5,0,0.9-0.1,1.2-0.2s0.4-0.4,0.4-0.7c0-0.2-0.1-0.5-0.3-0.6s-0.6-0.4-1.3-0.6c-0.6-0.2-1-0.4-1.3-0.6
		s-0.4-0.4-0.6-0.6s-0.2-0.5-0.2-0.8c0-0.5,0.2-0.9,0.6-1.2s1-0.5,1.8-0.5c0.7,0,1.4,0.1,2,0.4l-0.3,0.8c-0.6-0.3-1.2-0.4-1.8-0.4
		c-0.5,0-0.8,0.1-1,0.2s-0.4,0.3-0.4,0.6c0,0.2,0,0.3,0.1,0.4s0.2,0.2,0.4,0.3s0.6,0.3,1.1,0.5c0.8,0.3,1.3,0.6,1.5,0.8
		S164.2,26.8,164.2,27.2z"/>
	<path class="st3" d="M171.5,29.1c-0.9,0-1.6-0.3-2.2-0.9s-0.8-1.4-0.8-2.4c0-1.1,0.3-1.9,0.8-2.5s1.3-0.9,2.2-0.9
		c0.3,0,0.6,0,0.9,0.1s0.6,0.1,0.7,0.2l-0.3,0.8c-0.2-0.1-0.4-0.2-0.7-0.2s-0.5-0.1-0.7-0.1c-1.3,0-2,0.8-2,2.5
		c0,0.8,0.2,1.4,0.5,1.8s0.8,0.6,1.4,0.6c0.5,0,1.1-0.1,1.6-0.3v0.9C172.7,29,172.2,29.1,171.5,29.1z"/>
	<path class="st3" d="M180.2,25.7c0,1-0.3,1.9-0.8,2.5s-1.3,0.9-2.2,0.9c-0.6,0-1.1-0.1-1.5-0.4s-0.8-0.7-1-1.2s-0.4-1.1-0.4-1.8
		c0-1,0.3-1.9,0.8-2.4s1.2-0.9,2.2-0.9c0.9,0,1.6,0.3,2.1,0.9S180.2,24.7,180.2,25.7z M175.3,25.7c0,0.8,0.2,1.4,0.5,1.9
		s0.8,0.6,1.4,0.6s1.1-0.2,1.5-0.6s0.5-1.1,0.5-1.9c0-0.8-0.2-1.4-0.5-1.9s-0.8-0.6-1.5-0.6c-0.6,0-1.1,0.2-1.4,0.6
		S175.3,24.9,175.3,25.7z"/>
	<path class="st3" d="M186.3,29v-4.2c0-0.5-0.1-0.9-0.4-1.2s-0.6-0.4-1.1-0.4c-0.7,0-1.2,0.2-1.5,0.5s-0.5,1-0.5,1.8V29h-1v-6.4h0.8
		l0.2,0.9h0c0.2-0.3,0.5-0.6,0.8-0.7s0.8-0.3,1.2-0.3c0.8,0,1.4,0.2,1.7,0.6s0.6,1,0.6,1.8V29H186.3z"/>
	<path class="st3" d="M193.4,27.2c0,0.6-0.2,1.1-0.7,1.4s-1.1,0.5-1.9,0.5c-0.9,0-1.5-0.1-2-0.4v-0.9c0.3,0.2,0.6,0.3,1,0.4
		s0.7,0.1,1,0.1c0.5,0,0.9-0.1,1.2-0.2s0.4-0.4,0.4-0.7c0-0.2-0.1-0.5-0.3-0.6s-0.6-0.4-1.3-0.6c-0.6-0.2-1-0.4-1.3-0.6
		s-0.4-0.4-0.6-0.6s-0.2-0.5-0.2-0.8c0-0.5,0.2-0.9,0.6-1.2s1-0.5,1.8-0.5c0.7,0,1.4,0.1,2,0.4l-0.3,0.8c-0.6-0.3-1.2-0.4-1.8-0.4
		c-0.5,0-0.8,0.1-1,0.2s-0.4,0.3-0.4,0.6c0,0.2,0,0.3,0.1,0.4s0.2,0.2,0.4,0.3s0.6,0.3,1.1,0.5c0.8,0.3,1.3,0.6,1.5,0.8
		S193.4,26.8,193.4,27.2z"/>
	<path class="st3" d="M194.9,20.8c0-0.2,0.1-0.4,0.2-0.5s0.2-0.2,0.4-0.2c0.2,0,0.3,0.1,0.4,0.2s0.2,0.3,0.2,0.5s-0.1,0.4-0.2,0.5
		s-0.2,0.2-0.4,0.2c-0.2,0-0.3-0.1-0.4-0.2S194.9,21,194.9,20.8z M196,29h-1v-6.4h1V29z"/>
	<path class="st3" d="M202.4,28.1L202.4,28.1c-0.5,0.7-1.2,1-2.1,1c-0.8,0-1.5-0.3-2-0.9s-0.7-1.4-0.7-2.4s0.2-1.9,0.7-2.5
		s1.1-0.9,2-0.9c0.9,0,1.5,0.3,2,0.9h0.1l0-0.5l0-0.5v-2.6h1V29h-0.8L202.4,28.1z M200.4,28.3c0.7,0,1.1-0.2,1.4-0.5
		s0.4-0.9,0.4-1.7v-0.2c0-0.9-0.2-1.6-0.5-1.9s-0.8-0.6-1.5-0.6c-0.6,0-1,0.2-1.3,0.7s-0.5,1.1-0.5,1.9c0,0.8,0.2,1.4,0.5,1.9
		S199.9,28.3,200.4,28.3z"/>
	<path class="st3" d="M208.1,29.1c-0.9,0-1.7-0.3-2.2-0.9s-0.8-1.4-0.8-2.4c0-1,0.3-1.9,0.8-2.5s1.2-0.9,2.1-0.9
		c0.8,0,1.4,0.3,1.9,0.8s0.7,1.2,0.7,2.1v0.6H206c0,0.8,0.2,1.3,0.6,1.7s0.9,0.6,1.5,0.6c0.7,0,1.4-0.1,2.1-0.4v0.9
		c-0.3,0.1-0.7,0.3-1,0.3S208.5,29.1,208.1,29.1z M207.8,23.2c-0.5,0-0.9,0.2-1.2,0.5s-0.5,0.8-0.5,1.4h3.4c0-0.6-0.1-1.1-0.4-1.4
		S208.3,23.2,207.8,23.2z"/>
	<path class="st3" d="M215,22.4c0.3,0,0.5,0,0.8,0.1l-0.1,0.9c-0.3-0.1-0.5-0.1-0.7-0.1c-0.5,0-1,0.2-1.3,0.6s-0.6,0.9-0.6,1.6V29
		h-1v-6.4h0.8l0.1,1.2h0c0.2-0.4,0.5-0.7,0.9-1S214.6,22.4,215,22.4z"/>
	<path class="st3" d="M219.7,29.1c-0.9,0-1.7-0.3-2.2-0.9s-0.8-1.4-0.8-2.4c0-1,0.3-1.9,0.8-2.5s1.2-0.9,2.1-0.9
		c0.8,0,1.4,0.3,1.9,0.8s0.7,1.2,0.7,2.1v0.6h-4.4c0,0.8,0.2,1.3,0.6,1.7s0.9,0.6,1.5,0.6c0.7,0,1.4-0.1,2.1-0.4v0.9
		c-0.3,0.1-0.7,0.3-1,0.3S220.2,29.1,219.7,29.1z M219.5,23.2c-0.5,0-0.9,0.2-1.2,0.5s-0.5,0.8-0.5,1.4h3.4c0-0.6-0.1-1.1-0.4-1.4
		S220,23.2,219.5,23.2z"/>
	<path class="st3" d="M228.1,28.1L228.1,28.1c-0.5,0.7-1.2,1-2.1,1c-0.8,0-1.5-0.3-2-0.9s-0.7-1.4-0.7-2.4s0.2-1.9,0.7-2.5
		s1.1-0.9,2-0.9c0.9,0,1.5,0.3,2,0.9h0.1l0-0.5l0-0.5v-2.6h1V29h-0.8L228.1,28.1z M226.2,28.3c0.7,0,1.1-0.2,1.4-0.5
		s0.4-0.9,0.4-1.7v-0.2c0-0.9-0.2-1.6-0.5-1.9s-0.8-0.6-1.5-0.6c-0.6,0-1,0.2-1.3,0.7s-0.5,1.1-0.5,1.9c0,0.8,0.2,1.4,0.5,1.9
		S225.6,28.3,226.2,28.3z"/>
	<path class="st3" d="M31,42.7c0.2,0,0.3,0,0.5,0s0.3-0.1,0.4-0.1v0.7c-0.1,0.1-0.3,0.1-0.5,0.1s-0.4,0-0.6,0c-1.2,0-1.9-0.7-1.9-2
		v-3.8h-0.9v-0.5l0.9-0.4l0.4-1.4H30v1.5h1.9v0.8H30v3.8c0,0.4,0.1,0.7,0.3,0.9S30.7,42.7,31,42.7z"/>
	<path class="st3" d="M37.6,43.4v-4.2c0-0.5-0.1-0.9-0.4-1.2s-0.6-0.4-1.1-0.4c-0.7,0-1.2,0.2-1.5,0.6s-0.5,1-0.5,1.8v3.4h-1v-9.1h1
		V37c0,0.3,0,0.6,0,0.8h0.1c0.2-0.3,0.5-0.6,0.8-0.7s0.8-0.3,1.2-0.3c0.8,0,1.4,0.2,1.8,0.6s0.6,1,0.6,1.8v4.2H37.6z"/>
	<path class="st3" d="M43.3,43.5c-0.9,0-1.7-0.3-2.2-0.9s-0.8-1.4-0.8-2.4c0-1,0.3-1.9,0.8-2.5s1.2-0.9,2.1-0.9
		c0.8,0,1.4,0.3,1.9,0.8s0.7,1.2,0.7,2.1v0.6h-4.4c0,0.8,0.2,1.3,0.6,1.7s0.9,0.6,1.5,0.6c0.7,0,1.4-0.1,2.1-0.4v0.9
		c-0.3,0.1-0.7,0.3-1,0.3S43.7,43.5,43.3,43.5z M43,37.6c-0.5,0-0.9,0.2-1.2,0.5s-0.5,0.8-0.5,1.4h3.4c0-0.6-0.1-1.1-0.4-1.4
		S43.5,37.6,43,37.6z"/>
	<path class="st3" d="M55.5,43.4v-4.2c0-0.5-0.1-0.9-0.3-1.2s-0.6-0.4-1-0.4c-0.6,0-1.1,0.2-1.3,0.5s-0.4,0.9-0.4,1.6v3.6h-1v-4.2
		c0-0.5-0.1-0.9-0.3-1.2s-0.6-0.4-1-0.4c-0.6,0-1.1,0.2-1.3,0.5s-0.4,1-0.4,1.8v3.4h-1v-6.4h0.8l0.2,0.9h0c0.2-0.3,0.4-0.6,0.8-0.7
		s0.7-0.3,1.1-0.3c1,0,1.7,0.4,2,1.1h0c0.2-0.3,0.5-0.6,0.8-0.8s0.8-0.3,1.2-0.3c0.7,0,1.3,0.2,1.6,0.6s0.5,1,0.5,1.8v4.2H55.5z"/>
	<path class="st3" d="M62.6,41.6c0,0.6-0.2,1.1-0.7,1.4s-1.1,0.5-1.9,0.5c-0.9,0-1.5-0.1-2-0.4v-0.9c0.3,0.2,0.6,0.3,1,0.4
		s0.7,0.1,1,0.1c0.5,0,0.9-0.1,1.2-0.2s0.4-0.4,0.4-0.7c0-0.2-0.1-0.5-0.3-0.6s-0.6-0.4-1.3-0.6c-0.6-0.2-1-0.4-1.3-0.6
		s-0.4-0.4-0.6-0.6S58,38.8,58,38.5c0-0.5,0.2-0.9,0.6-1.2s1-0.5,1.8-0.5c0.7,0,1.4,0.1,2,0.4L62.1,38c-0.6-0.3-1.2-0.4-1.8-0.4
		c-0.5,0-0.8,0.1-1,0.2S59,38.2,59,38.4c0,0.2,0,0.3,0.1,0.4s0.2,0.2,0.4,0.3s0.6,0.3,1.1,0.5c0.8,0.3,1.3,0.6,1.5,0.8
		S62.6,41.2,62.6,41.6z"/>
	<path class="st3" d="M66.9,43.5c-0.9,0-1.7-0.3-2.2-0.9s-0.8-1.4-0.8-2.4c0-1,0.3-1.9,0.8-2.5s1.2-0.9,2.1-0.9
		c0.8,0,1.4,0.3,1.9,0.8s0.7,1.2,0.7,2.1v0.6h-4.4c0,0.8,0.2,1.3,0.6,1.7s0.9,0.6,1.5,0.6c0.7,0,1.4-0.1,2.1-0.4v0.9
		c-0.3,0.1-0.7,0.3-1,0.3S67.3,43.5,66.9,43.5z M66.6,37.6c-0.5,0-0.9,0.2-1.2,0.5s-0.5,0.8-0.5,1.4h3.4c0-0.6-0.1-1.1-0.4-1.4
		S67.1,37.6,66.6,37.6z"/>
	<path class="st3" d="M71.9,43.4h-1v-9.1h1V43.4z"/>
	<path class="st3" d="M75.4,43.4l-2.4-6.4h1l1.4,3.8c0.3,0.9,0.5,1.5,0.6,1.7h0c0-0.2,0.2-0.6,0.4-1.3s0.7-2.1,1.5-4.3h1l-2.4,6.4
		H75.4z"/>
	<path class="st3" d="M82.7,43.5c-0.9,0-1.7-0.3-2.2-0.9s-0.8-1.4-0.8-2.4c0-1,0.3-1.9,0.8-2.5s1.2-0.9,2.1-0.9
		c0.8,0,1.4,0.3,1.9,0.8s0.7,1.2,0.7,2.1v0.6h-4.4c0,0.8,0.2,1.3,0.6,1.7s0.9,0.6,1.5,0.6c0.7,0,1.4-0.1,2.1-0.4v0.9
		c-0.3,0.1-0.7,0.3-1,0.3S83.1,43.5,82.7,43.5z M82.4,37.6c-0.5,0-0.9,0.2-1.2,0.5s-0.5,0.8-0.5,1.4H84c0-0.6-0.1-1.1-0.4-1.4
		S82.9,37.6,82.4,37.6z"/>
	<path class="st3" d="M90.8,41.6c0,0.6-0.2,1.1-0.7,1.4s-1.1,0.5-1.9,0.5c-0.9,0-1.5-0.1-2-0.4v-0.9c0.3,0.2,0.6,0.3,1,0.4
		s0.7,0.1,1,0.1c0.5,0,0.9-0.1,1.2-0.2s0.4-0.4,0.4-0.7c0-0.2-0.1-0.5-0.3-0.6s-0.6-0.4-1.3-0.6c-0.6-0.2-1-0.4-1.3-0.6
		s-0.4-0.4-0.6-0.6s-0.2-0.5-0.2-0.8c0-0.5,0.2-0.9,0.6-1.2s1-0.5,1.8-0.5c0.7,0,1.4,0.1,2,0.4L90.4,38c-0.6-0.3-1.2-0.4-1.8-0.4
		c-0.5,0-0.8,0.1-1,0.2s-0.4,0.3-0.4,0.6c0,0.2,0,0.3,0.1,0.4s0.2,0.2,0.4,0.3s0.6,0.3,1.1,0.5c0.8,0.3,1.3,0.6,1.5,0.8
		S90.8,41.2,90.8,41.6z"/>
	<path class="st3" d="M103.7,43.4v-4.2c0-0.5-0.1-0.9-0.3-1.2s-0.6-0.4-1-0.4c-0.6,0-1.1,0.2-1.3,0.5s-0.4,0.9-0.4,1.6v3.6h-1v-4.2
		c0-0.5-0.1-0.9-0.3-1.2s-0.6-0.4-1-0.4c-0.6,0-1.1,0.2-1.3,0.5s-0.4,1-0.4,1.8v3.4h-1v-6.4h0.8l0.2,0.9h0c0.2-0.3,0.4-0.6,0.8-0.7
		s0.7-0.3,1.1-0.3c1,0,1.7,0.4,2,1.1h0c0.2-0.3,0.5-0.6,0.8-0.8s0.8-0.3,1.2-0.3c0.7,0,1.3,0.2,1.6,0.6s0.5,1,0.5,1.8v4.2H103.7z"/>
	<path class="st3" d="M112.2,40.1c0,1-0.3,1.9-0.8,2.5s-1.3,0.9-2.2,0.9c-0.6,0-1.1-0.1-1.5-0.4s-0.8-0.7-1-1.2s-0.4-1.1-0.4-1.8
		c0-1,0.3-1.9,0.8-2.4s1.2-0.9,2.2-0.9c0.9,0,1.6,0.3,2.1,0.9S112.2,39.1,112.2,40.1z M107.3,40.1c0,0.8,0.2,1.4,0.5,1.9
		s0.8,0.6,1.4,0.6s1.1-0.2,1.5-0.6s0.5-1.1,0.5-1.9c0-0.8-0.2-1.4-0.5-1.9s-0.8-0.6-1.5-0.6c-0.6,0-1.1,0.2-1.4,0.6
		S107.3,39.3,107.3,40.1z"/>
	<path class="st3" d="M116.9,36.8c0.3,0,0.5,0,0.8,0.1l-0.1,0.9c-0.3-0.1-0.5-0.1-0.7-0.1c-0.5,0-1,0.2-1.3,0.6s-0.6,0.9-0.6,1.6
		v3.4h-1v-6.4h0.8l0.1,1.2h0c0.2-0.4,0.5-0.7,0.9-1S116.5,36.8,116.9,36.8z"/>
	<path class="st3" d="M121.6,43.5c-0.9,0-1.7-0.3-2.2-0.9s-0.8-1.4-0.8-2.4c0-1,0.3-1.9,0.8-2.5s1.2-0.9,2.1-0.9
		c0.8,0,1.4,0.3,1.9,0.8s0.7,1.2,0.7,2.1v0.6h-4.4c0,0.8,0.2,1.3,0.6,1.7s0.9,0.6,1.5,0.6c0.7,0,1.4-0.1,2.1-0.4v0.9
		c-0.3,0.1-0.7,0.3-1,0.3S122,43.5,121.6,43.5z M121.3,37.6c-0.5,0-0.9,0.2-1.2,0.5s-0.5,0.8-0.5,1.4h3.4c0-0.6-0.1-1.1-0.4-1.4
		S121.8,37.6,121.3,37.6z"/>
	<path class="st3" d="M132.6,43.4l-0.2-0.9h0c-0.3,0.4-0.6,0.7-1,0.8s-0.7,0.2-1.2,0.2c-0.6,0-1.1-0.2-1.5-0.5s-0.5-0.8-0.5-1.4
		c0-1.3,1-2,3.1-2l1.1,0v-0.4c0-0.5-0.1-0.9-0.3-1.1s-0.6-0.4-1-0.4c-0.5,0-1.1,0.2-1.8,0.5l-0.3-0.7c0.3-0.2,0.7-0.3,1-0.4
		s0.8-0.1,1.1-0.1c0.8,0,1.3,0.2,1.7,0.5s0.6,0.9,0.6,1.6v4.4H132.6z M130.4,42.7c0.6,0,1.1-0.2,1.4-0.5s0.5-0.8,0.5-1.4v-0.6l-1,0
		c-0.8,0-1.3,0.1-1.7,0.4s-0.5,0.5-0.5,1c0,0.4,0.1,0.6,0.3,0.8S130.1,42.7,130.4,42.7z"/>
	<path class="st3" d="M140.6,43.4l-1.2-3.8c-0.1-0.2-0.2-0.8-0.4-1.6h0c-0.2,0.7-0.3,1.2-0.4,1.6l-1.2,3.8h-1.1l-1.8-6.4h1
		c0.4,1.6,0.7,2.8,0.9,3.7s0.3,1.4,0.4,1.7h0c0-0.2,0.1-0.5,0.2-0.9s0.2-0.6,0.2-0.8l1.2-3.7h1.1l1.1,3.7c0.2,0.7,0.4,1.2,0.4,1.7h0
		c0-0.1,0.1-0.4,0.1-0.7s0.5-1.9,1.2-4.7h1l-1.8,6.4H140.6z"/>
	<path class="st3" d="M145.7,40.1c0.2-0.2,0.4-0.6,0.8-0.9l2.1-2.2h1.2l-2.6,2.7l2.8,3.7h-1.2l-2.3-3l-0.7,0.6v2.4h-1v-9.1h1v4.8
		C145.7,39.3,145.6,39.6,145.7,40.1L145.7,40.1z"/>
	<path class="st3" d="M156.2,43.4l-1.2-3.8c-0.1-0.2-0.2-0.8-0.4-1.6h0c-0.2,0.7-0.3,1.2-0.4,1.6l-1.2,3.8h-1.1l-1.8-6.4h1
		c0.4,1.6,0.7,2.8,0.9,3.7s0.3,1.4,0.4,1.7h0c0-0.2,0.1-0.5,0.2-0.9s0.2-0.6,0.2-0.8l1.2-3.7h1.1l1.1,3.7c0.2,0.7,0.4,1.2,0.4,1.7h0
		c0-0.1,0.1-0.4,0.1-0.7s0.5-1.9,1.2-4.7h1l-1.8,6.4H156.2z"/>
	<path class="st3" d="M164.3,43.4l-0.2-0.9h0c-0.3,0.4-0.6,0.7-1,0.8s-0.7,0.2-1.2,0.2c-0.6,0-1.1-0.2-1.5-0.5s-0.5-0.8-0.5-1.4
		c0-1.3,1-2,3.1-2l1.1,0v-0.4c0-0.5-0.1-0.9-0.3-1.1s-0.6-0.4-1-0.4c-0.5,0-1.1,0.2-1.8,0.5l-0.3-0.7c0.3-0.2,0.7-0.3,1-0.4
		s0.8-0.1,1.1-0.1c0.8,0,1.3,0.2,1.7,0.5s0.6,0.9,0.6,1.6v4.4H164.3z M162.1,42.7c0.6,0,1.1-0.2,1.4-0.5s0.5-0.8,0.5-1.4v-0.6l-1,0
		c-0.8,0-1.3,0.1-1.7,0.4s-0.5,0.5-0.5,1c0,0.4,0.1,0.6,0.3,0.8S161.7,42.7,162.1,42.7z"/>
	<path class="st3" d="M169.9,36.8c0.3,0,0.5,0,0.8,0.1l-0.1,0.9c-0.3-0.1-0.5-0.1-0.7-0.1c-0.5,0-1,0.2-1.3,0.6s-0.6,0.9-0.6,1.6
		v3.4h-1v-6.4h0.8l0.1,1.2h0c0.2-0.4,0.5-0.7,0.9-1S169.5,36.8,169.9,36.8z"/>
	<path class="st3" d="M176.3,42.5L176.3,42.5c-0.5,0.7-1.2,1-2.1,1c-0.8,0-1.5-0.3-2-0.9s-0.7-1.4-0.7-2.4s0.2-1.9,0.7-2.5
		s1.1-0.9,2-0.9c0.9,0,1.5,0.3,2,0.9h0.1l0-0.5l0-0.5v-2.6h1v9.1h-0.8L176.3,42.5z M174.3,42.7c0.7,0,1.1-0.2,1.4-0.5
		s0.4-0.9,0.4-1.7v-0.2c0-0.9-0.2-1.6-0.5-1.9s-0.8-0.6-1.5-0.6c-0.6,0-1,0.2-1.3,0.7s-0.5,1.1-0.5,1.9c0,0.8,0.2,1.4,0.5,1.9
		S173.7,42.7,174.3,42.7z"/>
	<path class="st3" d="M187.9,40.1c0,1-0.3,1.9-0.8,2.5s-1.3,0.9-2.2,0.9c-0.6,0-1.1-0.1-1.5-0.4s-0.8-0.7-1-1.2s-0.4-1.1-0.4-1.8
		c0-1,0.3-1.9,0.8-2.4s1.2-0.9,2.2-0.9c0.9,0,1.6,0.3,2.1,0.9S187.9,39.1,187.9,40.1z M183,40.1c0,0.8,0.2,1.4,0.5,1.9
		s0.8,0.6,1.4,0.6s1.1-0.2,1.5-0.6s0.5-1.1,0.5-1.9c0-0.8-0.2-1.4-0.5-1.9s-0.8-0.6-1.5-0.6c-0.6,0-1.1,0.2-1.4,0.6
		S183,39.3,183,40.1z"/>
	<path class="st3" d="M192.6,36.8c0.3,0,0.5,0,0.8,0.1l-0.1,0.9c-0.3-0.1-0.5-0.1-0.7-0.1c-0.5,0-1,0.2-1.3,0.6s-0.6,0.9-0.6,1.6
		v3.4h-1v-6.4h0.8l0.1,1.2h0c0.2-0.4,0.5-0.7,0.9-1S192.2,36.8,192.6,36.8z"/>
	<path class="st3" d="M200.2,43.5c-0.9,0-1.6-0.3-2.2-0.9s-0.8-1.4-0.8-2.4c0-1.1,0.3-1.9,0.8-2.5s1.3-0.9,2.2-0.9
		c0.3,0,0.6,0,0.9,0.1s0.6,0.1,0.7,0.2l-0.3,0.8c-0.2-0.1-0.4-0.2-0.7-0.2s-0.5-0.1-0.7-0.1c-1.3,0-2,0.8-2,2.5
		c0,0.8,0.2,1.4,0.5,1.8s0.8,0.6,1.4,0.6c0.5,0,1.1-0.1,1.6-0.3v0.9C201.4,43.4,200.9,43.5,200.2,43.5z"/>
	<path class="st3" d="M204.3,43.4h-1v-9.1h1V43.4z"/>
	<path class="st3" d="M207.3,36.9v4.2c0,0.5,0.1,0.9,0.4,1.2s0.6,0.4,1.1,0.4c0.7,0,1.2-0.2,1.5-0.6s0.5-1,0.5-1.8v-3.4h1v6.4h-0.8
		l-0.1-0.9h-0.1c-0.2,0.3-0.5,0.6-0.8,0.7s-0.8,0.3-1.2,0.3c-0.8,0-1.4-0.2-1.8-0.6s-0.6-1-0.6-1.8v-4.2H207.3z"/>
	<path class="st3" d="M221.9,43.4v-4.2c0-0.5-0.1-0.9-0.3-1.2s-0.6-0.4-1-0.4c-0.6,0-1.1,0.2-1.3,0.5s-0.4,0.9-0.4,1.6v3.6h-1v-4.2
		c0-0.5-0.1-0.9-0.3-1.2s-0.6-0.4-1-0.4c-0.6,0-1.1,0.2-1.3,0.5s-0.4,1-0.4,1.8v3.4h-1v-6.4h0.8l0.2,0.9h0c0.2-0.3,0.4-0.6,0.8-0.7
		s0.7-0.3,1.1-0.3c1,0,1.7,0.4,2,1.1h0c0.2-0.3,0.5-0.6,0.8-0.8s0.8-0.3,1.2-0.3c0.7,0,1.3,0.2,1.6,0.6s0.5,1,0.5,1.8v4.2H221.9z"/>
	<path class="st3" d="M229.1,41.6c0,0.6-0.2,1.1-0.7,1.4s-1.1,0.5-1.9,0.5c-0.9,0-1.5-0.1-2-0.4v-0.9c0.3,0.2,0.6,0.3,1,0.4
		s0.7,0.1,1,0.1c0.5,0,0.9-0.1,1.2-0.2s0.4-0.4,0.4-0.7c0-0.2-0.1-0.5-0.3-0.6s-0.6-0.4-1.3-0.6c-0.6-0.2-1-0.4-1.3-0.6
		s-0.4-0.4-0.6-0.6s-0.2-0.5-0.2-0.8c0-0.5,0.2-0.9,0.6-1.2s1-0.5,1.8-0.5c0.7,0,1.4,0.1,2,0.4l-0.3,0.8c-0.6-0.3-1.2-0.4-1.8-0.4
		c-0.5,0-0.8,0.1-1,0.2s-0.4,0.3-0.4,0.6c0,0.2,0,0.3,0.1,0.4s0.2,0.2,0.4,0.3s0.6,0.3,1.1,0.5c0.8,0.3,1.3,0.6,1.5,0.8
		S229.1,41.2,229.1,41.6z"/>
	<path class="st3" d="M229.6,36.9h1l1.4,3.7c0.3,0.8,0.5,1.4,0.6,1.8h0c0.1-0.2,0.2-0.5,0.3-1s0.7-2,1.6-4.5h1l-2.8,7.3
		c-0.3,0.7-0.6,1.2-1,1.5s-0.8,0.5-1.3,0.5c-0.3,0-0.6,0-0.9-0.1v-0.8c0.2,0,0.5,0.1,0.7,0.1c0.7,0,1.1-0.4,1.4-1.1l0.4-0.9
		L229.6,36.9z"/>
	<path class="st3" d="M31,57.1c0.2,0,0.3,0,0.5,0s0.3-0.1,0.4-0.1v0.7c-0.1,0.1-0.3,0.1-0.5,0.1s-0.4,0-0.6,0c-1.2,0-1.9-0.7-1.9-2
		v-3.8h-0.9v-0.5l0.9-0.4l0.4-1.4H30v1.5h1.9v0.8H30v3.8c0,0.4,0.1,0.7,0.3,0.9S30.7,57.1,31,57.1z"/>
	<path class="st3" d="M37.6,57.8v-4.2c0-0.5-0.1-0.9-0.4-1.2S36.6,52,36.1,52c-0.7,0-1.2,0.2-1.5,0.6s-0.5,1-0.5,1.8v3.4h-1v-9.1h1
		v2.8c0,0.3,0,0.6,0,0.8h0.1c0.2-0.3,0.5-0.6,0.8-0.7s0.8-0.3,1.2-0.3c0.8,0,1.4,0.2,1.8,0.6s0.6,1,0.6,1.8v4.2H37.6z"/>
	<path class="st3" d="M44.5,57.8l-0.2-0.9h0c-0.3,0.4-0.6,0.7-1,0.8s-0.7,0.2-1.2,0.2c-0.6,0-1.1-0.2-1.5-0.5s-0.5-0.8-0.5-1.4
		c0-1.3,1-2,3.1-2l1.1,0v-0.4c0-0.5-0.1-0.9-0.3-1.1s-0.6-0.4-1-0.4c-0.5,0-1.1,0.2-1.8,0.5l-0.3-0.7c0.3-0.2,0.7-0.3,1-0.4
		s0.8-0.1,1.1-0.1c0.8,0,1.3,0.2,1.7,0.5s0.6,0.9,0.6,1.6v4.4H44.5z M42.3,57.1c0.6,0,1.1-0.2,1.4-0.5s0.5-0.8,0.5-1.4v-0.6l-1,0
		c-0.8,0-1.3,0.1-1.7,0.4s-0.5,0.5-0.5,1c0,0.4,0.1,0.6,0.3,0.8S41.9,57.1,42.3,57.1z"/>
	<path class="st3" d="M51.6,57.8v-4.2c0-0.5-0.1-0.9-0.4-1.2S50.7,52,50.2,52c-0.7,0-1.2,0.2-1.5,0.5s-0.5,1-0.5,1.8v3.4h-1v-6.4H48
		l0.2,0.9h0c0.2-0.3,0.5-0.6,0.8-0.7s0.8-0.3,1.2-0.3c0.8,0,1.4,0.2,1.7,0.6s0.6,1,0.6,1.8v4.2H51.6z"/>
	<path class="st3" d="M61.7,57.8l-0.2-0.9h0c-0.3,0.4-0.6,0.7-1,0.8s-0.7,0.2-1.2,0.2c-0.6,0-1.1-0.2-1.5-0.5s-0.5-0.8-0.5-1.4
		c0-1.3,1-2,3.1-2l1.1,0v-0.4c0-0.5-0.1-0.9-0.3-1.1s-0.6-0.4-1-0.4c-0.5,0-1.1,0.2-1.8,0.5L58,51.8c0.3-0.2,0.7-0.3,1-0.4
		s0.8-0.1,1.1-0.1c0.8,0,1.3,0.2,1.7,0.5s0.6,0.9,0.6,1.6v4.4H61.7z M59.5,57.1c0.6,0,1.1-0.2,1.4-0.5s0.5-0.8,0.5-1.4v-0.6l-1,0
		c-0.8,0-1.3,0.1-1.7,0.4s-0.5,0.5-0.5,1c0,0.4,0.1,0.6,0.3,0.8S59.1,57.1,59.5,57.1z"/>
	<path class="st3" d="M65.8,57.8l-2.4-6.4h1l1.4,3.8c0.3,0.9,0.5,1.5,0.6,1.7h0c0-0.2,0.2-0.6,0.4-1.3s0.7-2.1,1.5-4.3h1l-2.4,6.4
		H65.8z"/>
	<path class="st3" d="M73.1,57.9c-0.9,0-1.7-0.3-2.2-0.9S70,55.6,70,54.6c0-1,0.3-1.9,0.8-2.5s1.2-0.9,2.1-0.9
		c0.8,0,1.4,0.3,1.9,0.8s0.7,1.2,0.7,2.1v0.6h-4.4c0,0.8,0.2,1.3,0.6,1.7s0.9,0.6,1.5,0.6c0.7,0,1.4-0.1,2.1-0.4v0.9
		c-0.3,0.1-0.7,0.3-1,0.3S73.5,57.9,73.1,57.9z M72.9,52c-0.5,0-0.9,0.2-1.2,0.5s-0.5,0.8-0.5,1.4h3.4c0-0.6-0.1-1.1-0.4-1.4
		S73.4,52,72.9,52z"/>
	<path class="st3" d="M80.1,51.2c0.3,0,0.5,0,0.8,0.1l-0.1,0.9c-0.3-0.1-0.5-0.1-0.7-0.1c-0.5,0-1,0.2-1.3,0.6s-0.6,0.9-0.6,1.6v3.4
		h-1v-6.4h0.8l0.1,1.2h0c0.2-0.4,0.5-0.7,0.9-1S79.7,51.2,80.1,51.2z"/>
	<path class="st3" d="M86,57.8l-0.2-0.9h0c-0.3,0.4-0.6,0.7-1,0.8s-0.7,0.2-1.2,0.2c-0.6,0-1.1-0.2-1.5-0.5s-0.5-0.8-0.5-1.4
		c0-1.3,1-2,3.1-2l1.1,0v-0.4c0-0.5-0.1-0.9-0.3-1.1s-0.6-0.4-1-0.4c-0.5,0-1.1,0.2-1.8,0.5l-0.3-0.7c0.3-0.2,0.7-0.3,1-0.4
		s0.8-0.1,1.1-0.1c0.8,0,1.3,0.2,1.7,0.5s0.6,0.9,0.6,1.6v4.4H86z M83.8,57.1c0.6,0,1.1-0.2,1.4-0.5s0.5-0.8,0.5-1.4v-0.6l-1,0
		c-0.8,0-1.3,0.1-1.7,0.4s-0.5,0.5-0.5,1c0,0.4,0.1,0.6,0.3,0.8S83.4,57.1,83.8,57.1z"/>
	<path class="st3" d="M94,51.3V52l-1.2,0.1c0.1,0.1,0.2,0.3,0.3,0.5s0.1,0.5,0.1,0.7c0,0.6-0.2,1.1-0.6,1.5s-1,0.6-1.8,0.6
		c-0.2,0-0.4,0-0.5,0c-0.4,0.2-0.6,0.5-0.6,0.8c0,0.2,0.1,0.3,0.2,0.4s0.4,0.1,0.7,0.1h1.1c0.7,0,1.2,0.1,1.6,0.4s0.6,0.7,0.6,1.3
		c0,0.7-0.3,1.3-0.9,1.6s-1.4,0.6-2.5,0.6c-0.8,0-1.5-0.2-1.9-0.5s-0.7-0.8-0.7-1.3c0-0.4,0.1-0.7,0.4-1s0.6-0.5,1.1-0.6
		c-0.2-0.1-0.3-0.2-0.4-0.3s-0.2-0.3-0.2-0.5c0-0.2,0.1-0.4,0.2-0.6s0.3-0.3,0.6-0.5c-0.3-0.1-0.6-0.4-0.8-0.7s-0.3-0.7-0.3-1.1
		c0-0.7,0.2-1.2,0.6-1.6s1-0.6,1.8-0.6c0.3,0,0.6,0,0.9,0.1H94z M88.8,58.8c0,0.3,0.1,0.6,0.4,0.8s0.7,0.3,1.3,0.3
		c0.8,0,1.4-0.1,1.8-0.4s0.6-0.6,0.6-1c0-0.3-0.1-0.6-0.3-0.7s-0.6-0.2-1.2-0.2h-1.2c-0.4,0-0.8,0.1-1,0.3S88.8,58.4,88.8,58.8z
		 M89.4,53.4c0,0.4,0.1,0.8,0.4,1s0.6,0.3,1.1,0.3c0.9,0,1.4-0.5,1.4-1.4c0-1-0.5-1.4-1.4-1.4c-0.5,0-0.8,0.1-1.1,0.4
		S89.4,52.9,89.4,53.4z"/>
	<path class="st3" d="M98,57.9c-0.9,0-1.7-0.3-2.2-0.9s-0.8-1.4-0.8-2.4c0-1,0.3-1.9,0.8-2.5s1.2-0.9,2.1-0.9c0.8,0,1.4,0.3,1.9,0.8
		s0.7,1.2,0.7,2.1v0.6h-4.4c0,0.8,0.2,1.3,0.6,1.7S97.4,57,98,57c0.7,0,1.4-0.1,2.1-0.4v0.9c-0.3,0.1-0.7,0.3-1,0.3
		S98.4,57.9,98,57.9z M97.7,52c-0.5,0-0.9,0.2-1.2,0.5S96,53.3,96,53.9h3.4c0-0.6-0.1-1.1-0.4-1.4S98.2,52,97.7,52z"/>
	<path class="st3" d="M101.9,57.1c0-0.3,0.1-0.5,0.2-0.6s0.3-0.2,0.5-0.2c0.2,0,0.4,0.1,0.5,0.2s0.2,0.3,0.2,0.6
		c0,0.3-0.1,0.4-0.2,0.6s-0.3,0.2-0.5,0.2c-0.2,0-0.4-0.1-0.5-0.2S101.9,57.4,101.9,57.1z"/>
</g>
<g>
</g>
<g>
</g>
<g>
</g>
<g>
</g>
<g>
</g>
<g>
</g>
</svg>
