<?xml version="1.0" encoding="utf-8"?>
<!-- Generator: Adobe Illustrator 19.1.0, SVG Export Plug-In . SVG Version: 6.00 Build 0)  -->
<svg version="1.1" id="Layer_1" xmlns="http://www.w3.org/2000/svg" xmlns:xlink="http://www.w3.org/1999/xlink" x="0px" y="0px"
	 width="438.8px" height="59.3px" viewBox="0 0 438.8 59.3" style="enable-background:new 0 0 438.8 59.3;" xml:space="preserve">
<style type="text/css">
	.st0{fill:#C95145;}
	.st1{fill:#B17F60;}
	.st2{fill:#344B62;}
	.st3{fill:#FCD4BB;}
</style>
<rect x="146.6" y="7.3" class="st0" width="212.8" height="52"/>
<path class="st0" d="M205.8,7.3H12c-1.3,0-2.4,1.1-2.4,2.4v47.2c0,1.3,1.1,2.4,2.4,2.4h193.8c1.3,0,2.4-1.1,2.4-2.4V9.7
	C208.2,8.3,207.2,7.3,205.8,7.3z"/>
<path class="st1" d="M436.2,7.3H210.8c-1.4,0-2.6,1.2-2.6,2.6v46.9c0,1.4,1.2,2.6,2.6,2.6h225.4c1.4,0,2.6-1.2,2.6-2.6V9.8
	C438.8,8.4,437.6,7.3,436.2,7.3z"/>
<rect x="208.2" y="39.2" class="st1" width="36.9" height="20.1"/>
<path class="st2" d="M426.6,0H3.5C1.6,0,0,1.6,0,3.5v45C0,50.4,1.6,52,3.5,52h423.1c1.9,0,3.5-1.6,3.5-3.5v-45
	C430.2,1.6,428.6,0,426.6,0z"/>
<g>
	<path class="st3" d="M45.9,20.3h-1.6l-6.4-9.9h-0.1c0.1,1.2,0.1,2.2,0.1,3.2v6.7h-1.3V8.6h1.5l6.4,9.8h0.1c0-0.1,0-0.6-0.1-1.4
		c0-0.8-0.1-1.3,0-1.7V8.6h1.3V20.3z"/>
	<path class="st3" d="M56.5,15.9c0,1.4-0.4,2.6-1.1,3.4s-1.7,1.2-3,1.2c-0.8,0-1.5-0.2-2.1-0.6c-0.6-0.4-1.1-0.9-1.4-1.6
		c-0.3-0.7-0.5-1.5-0.5-2.4c0-1.4,0.4-2.6,1.1-3.4c0.7-0.8,1.7-1.2,3-1.2c1.2,0,2.2,0.4,2.9,1.2C56.2,13.4,56.5,14.5,56.5,15.9z
		 M49.8,15.9c0,1.1,0.2,2,0.7,2.6c0.5,0.6,1.1,0.9,2,0.9s1.5-0.3,2-0.9s0.7-1.4,0.7-2.6c0-1.1-0.2-2-0.7-2.6s-1.1-0.9-2-0.9
		c-0.9,0-1.5,0.3-2,0.9C50,13.9,49.8,14.8,49.8,15.9z"/>
	<path class="st3" d="M66.1,20.3l-1.6-5.2c-0.1-0.3-0.3-1-0.6-2.2h-0.1c-0.2,0.9-0.4,1.7-0.6,2.2l-1.7,5.2H60l-2.4-8.8H59
		c0.6,2.2,1,3.9,1.3,5.1s0.5,1.9,0.5,2.3h0.1c0.1-0.3,0.2-0.7,0.3-1.2c0.1-0.5,0.2-0.9,0.3-1.2l1.6-5.1h1.4l1.6,5.1
		c0.3,0.9,0.5,1.7,0.6,2.3h0.1c0-0.2,0.1-0.5,0.2-0.9c0.1-0.4,0.7-2.6,1.7-6.5h1.4l-2.4,8.8H66.1z"/>
	<path class="st3" d="M78.8,19.4c0.2,0,0.5,0,0.7-0.1c0.2,0,0.4-0.1,0.5-0.1v1c-0.1,0.1-0.4,0.1-0.6,0.2c-0.3,0-0.5,0.1-0.8,0.1
		c-1.7,0-2.6-0.9-2.6-2.7v-5.3h-1.3v-0.6l1.3-0.6l0.6-1.9h0.8v2H80v1h-2.6v5.2c0,0.5,0.1,0.9,0.4,1.2S78.4,19.4,78.8,19.4z"/>
	<path class="st3" d="M87.8,20.3v-5.7c0-0.7-0.2-1.3-0.5-1.6c-0.3-0.4-0.8-0.5-1.5-0.5c-0.9,0-1.6,0.3-2,0.8
		c-0.4,0.5-0.6,1.3-0.6,2.5v4.6h-1.3V7.8h1.3v3.8c0,0.5,0,0.8-0.1,1.1h0.1c0.3-0.4,0.6-0.8,1.1-1c0.5-0.2,1-0.4,1.7-0.4
		c1.1,0,1.9,0.3,2.4,0.8s0.8,1.3,0.8,2.4v5.8H87.8z"/>
	<path class="st3" d="M97.3,20.3l-0.3-1.3H97c-0.4,0.6-0.9,0.9-1.3,1.1c-0.4,0.2-1,0.3-1.6,0.3c-0.9,0-1.6-0.2-2.1-0.7
		c-0.5-0.5-0.7-1.1-0.7-1.9c0-1.8,1.4-2.7,4.3-2.8l1.5,0v-0.5c0-0.7-0.1-1.2-0.4-1.5c-0.3-0.3-0.8-0.5-1.4-0.5
		c-0.7,0-1.6,0.2-2.5,0.7l-0.4-1c0.4-0.2,0.9-0.4,1.4-0.6c0.5-0.1,1-0.2,1.6-0.2c1.1,0,1.8,0.2,2.3,0.7c0.5,0.5,0.8,1.2,0.8,2.2v6
		H97.3z M94.3,19.4c0.8,0,1.5-0.2,2-0.7c0.5-0.5,0.7-1.1,0.7-1.9V16L95.7,16c-1.1,0-1.8,0.2-2.3,0.5s-0.7,0.7-0.7,1.4
		c0,0.5,0.1,0.9,0.4,1.1S93.8,19.4,94.3,19.4z"/>
	<path class="st3" d="M103.9,19.4c0.2,0,0.5,0,0.7-0.1c0.2,0,0.4-0.1,0.5-0.1v1c-0.1,0.1-0.4,0.1-0.6,0.2c-0.3,0-0.5,0.1-0.8,0.1
		c-1.7,0-2.6-0.9-2.6-2.7v-5.3h-1.3v-0.6l1.3-0.6l0.6-1.9h0.8v2h2.6v1h-2.6v5.2c0,0.5,0.1,0.9,0.4,1.2S103.5,19.4,103.9,19.4z"/>
	<path class="st3" d="M109.8,11.5h1.4l1.9,5c0.4,1.1,0.7,2,0.8,2.5h0.1c0.1-0.3,0.2-0.7,0.4-1.4c0.2-0.7,1-2.7,2.2-6.1h1.4
		l-3.8,10.1c-0.4,1-0.8,1.7-1.3,2.1s-1.1,0.6-1.8,0.6c-0.4,0-0.8,0-1.2-0.1v-1.1c0.3,0.1,0.6,0.1,1,0.1c0.9,0,1.6-0.5,2-1.5l0.5-1.3
		L109.8,11.5z"/>
	<path class="st3" d="M127.1,15.9c0,1.4-0.4,2.6-1.1,3.4s-1.7,1.2-3,1.2c-0.8,0-1.5-0.2-2.1-0.6c-0.6-0.4-1.1-0.9-1.4-1.6
		c-0.3-0.7-0.5-1.5-0.5-2.4c0-1.4,0.4-2.6,1.1-3.4c0.7-0.8,1.7-1.2,3-1.2c1.2,0,2.2,0.4,2.9,1.2C126.8,13.4,127.1,14.5,127.1,15.9z
		 M120.4,15.9c0,1.1,0.2,2,0.7,2.6c0.5,0.6,1.1,0.9,2,0.9s1.5-0.3,2-0.9s0.7-1.4,0.7-2.6c0-1.1-0.2-2-0.7-2.6s-1.1-0.9-2-0.9
		c-0.9,0-1.5,0.3-2,0.9C120.6,13.9,120.4,14.8,120.4,15.9z"/>
	<path class="st3" d="M130.7,11.5v5.7c0,0.7,0.2,1.3,0.5,1.6c0.3,0.4,0.8,0.5,1.5,0.5c0.9,0,1.6-0.3,2-0.8c0.4-0.5,0.6-1.3,0.6-2.5
		v-4.6h1.3v8.8h-1.1l-0.2-1.2h-0.1c-0.3,0.4-0.7,0.8-1.1,1c-0.5,0.2-1,0.3-1.7,0.3c-1.1,0-1.9-0.3-2.4-0.8c-0.5-0.5-0.8-1.3-0.8-2.4
		v-5.8H130.7z"/>
	<path class="st3" d="M148,11.4c1.2,0,2.1,0.4,2.7,1.2s1,1.9,1,3.4s-0.3,2.6-1,3.4s-1.5,1.2-2.7,1.2c-0.6,0-1.1-0.1-1.6-0.3
		c-0.5-0.2-0.9-0.5-1.2-1h-0.1l-0.3,1.1h-1V7.8h1.3v3c0,0.7,0,1.3-0.1,1.8h0.1C145.8,11.8,146.8,11.4,148,11.4z M147.8,12.5
		c-0.9,0-1.6,0.3-2,0.8c-0.4,0.5-0.6,1.4-0.6,2.6s0.2,2.1,0.6,2.7c0.4,0.5,1.1,0.8,2,0.8c0.8,0,1.4-0.3,1.8-0.9s0.6-1.5,0.6-2.6
		c0-1.1-0.2-2-0.6-2.6C149.3,12.8,148.6,12.5,147.8,12.5z"/>
	<path class="st3" d="M157.7,20.5c-1.3,0-2.3-0.4-3.1-1.2s-1.1-1.9-1.1-3.3c0-1.4,0.4-2.6,1.1-3.4c0.7-0.8,1.6-1.3,2.8-1.3
		c1.1,0,2,0.4,2.6,1.1c0.6,0.7,1,1.7,1,2.9v0.8h-6.1c0,1,0.3,1.8,0.8,2.4c0.5,0.5,1.2,0.8,2.1,0.8c1,0,1.9-0.2,2.8-0.6v1.2
		c-0.5,0.2-0.9,0.4-1.3,0.4C158.8,20.4,158.3,20.5,157.7,20.5z M157.4,12.5c-0.7,0-1.3,0.2-1.7,0.7c-0.4,0.5-0.7,1.1-0.7,1.9h4.6
		c0-0.8-0.2-1.5-0.6-1.9C158.6,12.7,158.1,12.5,157.4,12.5z"/>
	<path class="st3" d="M166.1,19.4c0.2,0,0.5,0,0.7-0.1c0.2,0,0.4-0.1,0.5-0.1v1c-0.1,0.1-0.4,0.1-0.6,0.2c-0.3,0-0.5,0.1-0.8,0.1
		c-1.7,0-2.6-0.9-2.6-2.7v-5.3h-1.3v-0.6l1.3-0.6l0.6-1.9h0.8v2h2.6v1h-2.6v5.2c0,0.5,0.1,0.9,0.4,1.2S165.7,19.4,166.1,19.4z"/>
	<path class="st3" d="M171.9,19.4c0.2,0,0.5,0,0.7-0.1c0.2,0,0.4-0.1,0.5-0.1v1c-0.1,0.1-0.4,0.1-0.6,0.2c-0.3,0-0.5,0.1-0.8,0.1
		c-1.7,0-2.6-0.9-2.6-2.7v-5.3h-1.3v-0.6l1.3-0.6l0.6-1.9h0.8v2h2.6v1h-2.6v5.2c0,0.5,0.1,0.9,0.4,1.2S171.5,19.4,171.9,19.4z"/>
	<path class="st3" d="M178.6,20.5c-1.3,0-2.3-0.4-3.1-1.2s-1.1-1.9-1.1-3.3c0-1.4,0.4-2.6,1.1-3.4c0.7-0.8,1.6-1.3,2.8-1.3
		c1.1,0,2,0.4,2.6,1.1c0.6,0.7,1,1.7,1,2.9v0.8h-6.1c0,1,0.3,1.8,0.8,2.4c0.5,0.5,1.2,0.8,2.1,0.8c1,0,1.9-0.2,2.8-0.6v1.2
		c-0.5,0.2-0.9,0.4-1.3,0.4C179.7,20.4,179.2,20.5,178.6,20.5z M178.3,12.5c-0.7,0-1.3,0.2-1.7,0.7c-0.4,0.5-0.7,1.1-0.7,1.9h4.6
		c0-0.8-0.2-1.5-0.6-1.9C179.5,12.7,178.9,12.5,178.3,12.5z"/>
	<path class="st3" d="M188.2,11.3c0.4,0,0.7,0,1.1,0.1l-0.2,1.2c-0.4-0.1-0.7-0.1-1-0.1c-0.7,0-1.3,0.3-1.8,0.9
		c-0.5,0.6-0.8,1.3-0.8,2.2v4.7h-1.3v-8.8h1.1l0.2,1.6h0.1c0.3-0.6,0.7-1,1.2-1.3S187.6,11.3,188.2,11.3z"/>
	<path class="st3" d="M195,9.1c0-0.3,0.1-0.5,0.2-0.7c0.1-0.1,0.3-0.2,0.6-0.2c0.2,0,0.4,0.1,0.6,0.2s0.2,0.4,0.2,0.7
		s-0.1,0.5-0.2,0.7c-0.2,0.1-0.3,0.2-0.6,0.2c-0.2,0-0.4-0.1-0.6-0.2C195.1,9.6,195,9.4,195,9.1z M196.5,20.3h-1.3v-8.8h1.3V20.3z"
		/>
	<path class="st3" d="M205.4,20.3v-5.7c0-0.7-0.2-1.3-0.5-1.6c-0.3-0.4-0.8-0.5-1.5-0.5c-0.9,0-1.6,0.2-2,0.7
		c-0.4,0.5-0.6,1.3-0.6,2.5v4.6h-1.3v-8.8h1.1l0.2,1.2h0.1c0.3-0.4,0.7-0.8,1.2-1c0.5-0.2,1-0.4,1.7-0.4c1.1,0,1.9,0.3,2.4,0.8
		c0.5,0.5,0.8,1.3,0.8,2.5v5.8H205.4z"/>
	<path class="st3" d="M215.5,19.1L215.5,19.1c-0.7,0.9-1.6,1.3-2.8,1.3c-1.2,0-2.1-0.4-2.7-1.2c-0.6-0.8-1-1.9-1-3.4
		c0-1.5,0.3-2.6,1-3.4c0.6-0.8,1.5-1.2,2.7-1.2c1.2,0,2.1,0.4,2.8,1.3h0.1l-0.1-0.6l0-0.6V7.8h1.3v12.5h-1.1L215.5,19.1z
		 M212.8,19.4c0.9,0,1.6-0.2,2-0.7s0.6-1.3,0.6-2.4v-0.3c0-1.3-0.2-2.1-0.6-2.7s-1.1-0.8-2-0.8c-0.8,0-1.4,0.3-1.8,0.9
		s-0.6,1.5-0.6,2.6c0,1.1,0.2,2,0.6,2.6C211.4,19.1,212,19.4,212.8,19.4z"/>
	<path class="st3" d="M223.3,20.5c-1.3,0-2.3-0.4-3.1-1.2s-1.1-1.9-1.1-3.3c0-1.4,0.4-2.6,1.1-3.4c0.7-0.8,1.6-1.3,2.8-1.3
		c1.1,0,2,0.4,2.6,1.1c0.6,0.7,1,1.7,1,2.9v0.8h-6.1c0,1,0.3,1.8,0.8,2.4c0.5,0.5,1.2,0.8,2.1,0.8c1,0,1.9-0.2,2.8-0.6v1.2
		c-0.5,0.2-0.9,0.4-1.3,0.4C224.4,20.4,223.9,20.5,223.3,20.5z M222.9,12.5c-0.7,0-1.3,0.2-1.7,0.7c-0.4,0.5-0.7,1.1-0.7,1.9h4.6
		c0-0.8-0.2-1.5-0.6-1.9C224.2,12.7,223.6,12.5,222.9,12.5z"/>
	<path class="st3" d="M232.8,11.3c0.4,0,0.7,0,1.1,0.1l-0.2,1.2c-0.4-0.1-0.7-0.1-1-0.1c-0.7,0-1.3,0.3-1.8,0.9
		c-0.5,0.6-0.8,1.3-0.8,2.2v4.7h-1.3v-8.8h1.1l0.2,1.6h0.1c0.3-0.6,0.7-1,1.2-1.3S232.3,11.3,232.8,11.3z"/>
	<path class="st3" d="M241.2,17.9c0,0.8-0.3,1.5-0.9,1.9c-0.6,0.4-1.5,0.7-2.6,0.7c-1.2,0-2.1-0.2-2.7-0.6v-1.2
		c0.4,0.2,0.9,0.4,1.4,0.5s1,0.2,1.4,0.2c0.7,0,1.2-0.1,1.6-0.3s0.6-0.6,0.6-1c0-0.3-0.1-0.6-0.4-0.9c-0.3-0.2-0.9-0.5-1.7-0.9
		c-0.8-0.3-1.4-0.6-1.8-0.8c-0.3-0.2-0.6-0.5-0.8-0.8c-0.2-0.3-0.3-0.6-0.3-1c0-0.7,0.3-1.3,0.9-1.7c0.6-0.4,1.4-0.6,2.4-0.6
		c1,0,1.9,0.2,2.8,0.6l-0.5,1.1c-0.9-0.4-1.7-0.5-2.4-0.5c-0.6,0-1.1,0.1-1.4,0.3c-0.3,0.2-0.5,0.5-0.5,0.8c0,0.2,0.1,0.4,0.2,0.6
		c0.1,0.2,0.3,0.3,0.6,0.5s0.8,0.4,1.5,0.7c1,0.4,1.8,0.8,2.1,1.2C241.1,16.8,241.2,17.3,241.2,17.9z"/>
	<path class="st3" d="M246.3,19.4c0.2,0,0.5,0,0.7-0.1c0.2,0,0.4-0.1,0.5-0.1v1c-0.1,0.1-0.4,0.1-0.6,0.2c-0.3,0-0.5,0.1-0.8,0.1
		c-1.7,0-2.6-0.9-2.6-2.7v-5.3h-1.3v-0.6l1.3-0.6l0.6-1.9h0.8v2h2.6v1h-2.6v5.2c0,0.5,0.1,0.9,0.4,1.2S245.8,19.4,246.3,19.4z"/>
	<path class="st3" d="M254.7,20.3l-0.3-1.3h-0.1c-0.4,0.6-0.9,0.9-1.3,1.1c-0.4,0.2-1,0.3-1.6,0.3c-0.9,0-1.6-0.2-2.1-0.7
		c-0.5-0.5-0.7-1.1-0.7-1.9c0-1.8,1.4-2.7,4.3-2.8l1.5,0v-0.5c0-0.7-0.1-1.2-0.4-1.5c-0.3-0.3-0.8-0.5-1.4-0.5
		c-0.7,0-1.6,0.2-2.5,0.7l-0.4-1c0.4-0.2,0.9-0.4,1.4-0.6c0.5-0.1,1-0.2,1.6-0.2c1.1,0,1.8,0.2,2.3,0.7c0.5,0.5,0.8,1.2,0.8,2.2v6
		H254.7z M251.6,19.4c0.8,0,1.5-0.2,2-0.7c0.5-0.5,0.7-1.1,0.7-1.9V16L253,16c-1.1,0-1.8,0.2-2.3,0.5s-0.7,0.7-0.7,1.4
		c0,0.5,0.1,0.9,0.4,1.1S251.1,19.4,251.6,19.4z"/>
	<path class="st3" d="M264.4,20.3v-5.7c0-0.7-0.2-1.3-0.5-1.6c-0.3-0.4-0.8-0.5-1.5-0.5c-0.9,0-1.6,0.2-2,0.7
		c-0.4,0.5-0.6,1.3-0.6,2.5v4.6h-1.3v-8.8h1.1l0.2,1.2h0.1c0.3-0.4,0.7-0.8,1.2-1c0.5-0.2,1-0.4,1.7-0.4c1.1,0,1.9,0.3,2.4,0.8
		c0.5,0.5,0.8,1.3,0.8,2.5v5.8H264.4z"/>
	<path class="st3" d="M274.5,19.1L274.5,19.1c-0.7,0.9-1.6,1.3-2.8,1.3c-1.2,0-2.1-0.4-2.7-1.2c-0.6-0.8-1-1.9-1-3.4
		c0-1.5,0.3-2.6,1-3.4c0.6-0.8,1.5-1.2,2.7-1.2c1.2,0,2.1,0.4,2.8,1.3h0.1l-0.1-0.6l0-0.6V7.8h1.3v12.5h-1.1L274.5,19.1z
		 M271.9,19.4c0.9,0,1.6-0.2,2-0.7s0.6-1.3,0.6-2.4v-0.3c0-1.3-0.2-2.1-0.6-2.7s-1.1-0.8-2-0.8c-0.8,0-1.4,0.3-1.8,0.9
		s-0.6,1.5-0.6,2.6c0,1.1,0.2,2,0.6,2.6C270.5,19.1,271.1,19.4,271.9,19.4z"/>
	<path class="st3" d="M281.5,11.5h1.4l1.9,5c0.4,1.1,0.7,2,0.8,2.5h0.1c0.1-0.3,0.2-0.7,0.4-1.4c0.2-0.7,1-2.7,2.2-6.1h1.4L286,21.6
		c-0.4,1-0.8,1.7-1.3,2.1s-1.1,0.6-1.8,0.6c-0.4,0-0.8,0-1.2-0.1v-1.1c0.3,0.1,0.6,0.1,1,0.1c0.9,0,1.6-0.5,2-1.5l0.5-1.3
		L281.5,11.5z"/>
	<path class="st3" d="M298.9,15.9c0,1.4-0.4,2.6-1.1,3.4s-1.7,1.2-3,1.2c-0.8,0-1.5-0.2-2.1-0.6c-0.6-0.4-1.1-0.9-1.4-1.6
		c-0.3-0.7-0.5-1.5-0.5-2.4c0-1.4,0.4-2.6,1.1-3.4c0.7-0.8,1.7-1.2,3-1.2c1.2,0,2.2,0.4,2.9,1.2C298.5,13.4,298.9,14.5,298.9,15.9z
		 M292.1,15.9c0,1.1,0.2,2,0.7,2.6c0.5,0.6,1.1,0.9,2,0.9s1.5-0.3,2-0.9s0.7-1.4,0.7-2.6c0-1.1-0.2-2-0.7-2.6s-1.1-0.9-2-0.9
		c-0.9,0-1.5,0.3-2,0.9C292.3,13.9,292.1,14.8,292.1,15.9z"/>
	<path class="st3" d="M302.5,11.5v5.7c0,0.7,0.2,1.3,0.5,1.6c0.3,0.4,0.8,0.5,1.5,0.5c0.9,0,1.6-0.3,2-0.8c0.4-0.5,0.6-1.3,0.6-2.5
		v-4.6h1.3v8.8h-1.1l-0.2-1.2h-0.1c-0.3,0.4-0.7,0.8-1.1,1c-0.5,0.2-1,0.3-1.7,0.3c-1.1,0-1.9-0.3-2.4-0.8c-0.5-0.5-0.8-1.3-0.8-2.4
		v-5.8H302.5z"/>
	<path class="st3" d="M315.3,11.3c0.4,0,0.7,0,1.1,0.1l-0.2,1.2c-0.4-0.1-0.7-0.1-1-0.1c-0.7,0-1.3,0.3-1.8,0.9
		c-0.5,0.6-0.8,1.3-0.8,2.2v4.7h-1.3v-8.8h1.1l0.2,1.6h0.1c0.3-0.6,0.7-1,1.2-1.3S314.8,11.3,315.3,11.3z"/>
	<path class="st3" d="M328,17.9c0,0.8-0.3,1.5-0.9,1.9c-0.6,0.4-1.5,0.7-2.6,0.7c-1.2,0-2.1-0.2-2.7-0.6v-1.2
		c0.4,0.2,0.9,0.4,1.4,0.5s1,0.2,1.4,0.2c0.7,0,1.2-0.1,1.6-0.3s0.6-0.6,0.6-1c0-0.3-0.1-0.6-0.4-0.9c-0.3-0.2-0.9-0.5-1.7-0.9
		c-0.8-0.3-1.4-0.6-1.8-0.8c-0.3-0.2-0.6-0.5-0.8-0.8c-0.2-0.3-0.3-0.6-0.3-1c0-0.7,0.3-1.3,0.9-1.7c0.6-0.4,1.4-0.6,2.4-0.6
		c1,0,1.9,0.2,2.8,0.6l-0.5,1.1c-0.9-0.4-1.7-0.5-2.4-0.5c-0.6,0-1.1,0.1-1.4,0.3c-0.3,0.2-0.5,0.5-0.5,0.8c0,0.2,0.1,0.4,0.2,0.6
		c0.1,0.2,0.3,0.3,0.6,0.5s0.8,0.4,1.5,0.7c1,0.4,1.8,0.8,2.1,1.2C327.8,16.8,328,17.3,328,17.9z"/>
	<path class="st3" d="M331.5,15.8c0.2-0.3,0.6-0.8,1.1-1.3l2.9-3h1.6l-3.6,3.8l3.8,5.1h-1.6l-3.1-4.2l-1,0.9v3.3h-1.3V7.8h1.3v6.6
		C331.5,14.7,331.5,15.2,331.5,15.8L331.5,15.8z"/>
	<path class="st3" d="M338.7,9.1c0-0.3,0.1-0.5,0.2-0.7c0.1-0.1,0.3-0.2,0.6-0.2c0.2,0,0.4,0.1,0.6,0.2s0.2,0.4,0.2,0.7
		s-0.1,0.5-0.2,0.7c-0.2,0.1-0.3,0.2-0.6,0.2c-0.2,0-0.4-0.1-0.6-0.2C338.8,9.6,338.7,9.4,338.7,9.1z M340.2,20.3h-1.3v-8.8h1.3
		V20.3z"/>
	<path class="st3" d="M344.4,20.3H343V7.8h1.3V20.3z"/>
	<path class="st3" d="M348.5,20.3h-1.3V7.8h1.3V20.3z"/>
	<path class="st3" d="M357.1,17.9c0,0.8-0.3,1.5-0.9,1.9c-0.6,0.4-1.5,0.7-2.6,0.7c-1.2,0-2.1-0.2-2.7-0.6v-1.2
		c0.4,0.2,0.9,0.4,1.4,0.5s1,0.2,1.4,0.2c0.7,0,1.2-0.1,1.6-0.3s0.6-0.6,0.6-1c0-0.3-0.1-0.6-0.4-0.9c-0.3-0.2-0.9-0.5-1.7-0.9
		c-0.8-0.3-1.4-0.6-1.8-0.8c-0.3-0.2-0.6-0.5-0.8-0.8c-0.2-0.3-0.3-0.6-0.3-1c0-0.7,0.3-1.3,0.9-1.7c0.6-0.4,1.4-0.6,2.4-0.6
		c1,0,1.9,0.2,2.8,0.6l-0.5,1.1c-0.9-0.4-1.7-0.5-2.4-0.5c-0.6,0-1.1,0.1-1.4,0.3c-0.3,0.2-0.5,0.5-0.5,0.8c0,0.2,0.1,0.4,0.2,0.6
		c0.1,0.2,0.3,0.3,0.6,0.5s0.8,0.4,1.5,0.7c1,0.4,1.8,0.8,2.1,1.2C356.9,16.8,357.1,17.3,357.1,17.9z"/>
	<path class="st3" d="M369,20.3l-0.3-1.3h-0.1c-0.4,0.6-0.9,0.9-1.3,1.1c-0.4,0.2-1,0.3-1.6,0.3c-0.9,0-1.6-0.2-2.1-0.7
		c-0.5-0.5-0.7-1.1-0.7-1.9c0-1.8,1.4-2.7,4.3-2.8l1.5,0v-0.5c0-0.7-0.1-1.2-0.4-1.5c-0.3-0.3-0.8-0.5-1.4-0.5
		c-0.7,0-1.6,0.2-2.5,0.7l-0.4-1c0.4-0.2,0.9-0.4,1.4-0.6c0.5-0.1,1-0.2,1.6-0.2c1.1,0,1.8,0.2,2.3,0.7c0.5,0.5,0.8,1.2,0.8,2.2v6
		H369z M365.9,19.4c0.8,0,1.5-0.2,2-0.7c0.5-0.5,0.7-1.1,0.7-1.9V16l-1.3,0.1c-1.1,0-1.8,0.2-2.3,0.5s-0.7,0.7-0.7,1.4
		c0,0.5,0.1,0.9,0.4,1.1S365.4,19.4,365.9,19.4z"/>
	<path class="st3" d="M378.7,20.3v-5.7c0-0.7-0.2-1.3-0.5-1.6c-0.3-0.4-0.8-0.5-1.5-0.5c-0.9,0-1.6,0.2-2,0.7
		c-0.4,0.5-0.6,1.3-0.6,2.5v4.6h-1.3v-8.8h1.1l0.2,1.2h0.1c0.3-0.4,0.7-0.8,1.2-1c0.5-0.2,1-0.4,1.7-0.4c1.1,0,1.9,0.3,2.4,0.8
		c0.5,0.5,0.8,1.3,0.8,2.5v5.8H378.7z"/>
	<path class="st3" d="M388.8,19.1L388.8,19.1c-0.7,0.9-1.6,1.3-2.8,1.3c-1.2,0-2.1-0.4-2.7-1.2c-0.6-0.8-1-1.9-1-3.4
		c0-1.5,0.3-2.6,1-3.4c0.6-0.8,1.5-1.2,2.7-1.2c1.2,0,2.1,0.4,2.8,1.3h0.1l-0.1-0.6l0-0.6V7.8h1.3v12.5H389L388.8,19.1z M386.2,19.4
		c0.9,0,1.6-0.2,2-0.7s0.6-1.3,0.6-2.4v-0.3c0-1.3-0.2-2.1-0.6-2.7s-1.1-0.8-2-0.8c-0.8,0-1.4,0.3-1.8,0.9s-0.6,1.5-0.6,2.6
		c0,1.1,0.2,2,0.6,2.6C384.8,19.1,385.4,19.4,386.2,19.4z"/>
	<path class="st3" d="M38.1,40.3c-0.6,0-1.1-0.1-1.6-0.3c-0.5-0.2-0.9-0.5-1.2-1h-0.1c0.1,0.5,0.1,1,0.1,1.5v3.6H34V31.3h1.1
		l0.2,1.2h0.1c0.3-0.5,0.7-0.8,1.2-1c0.5-0.2,1-0.3,1.6-0.3c1.2,0,2.1,0.4,2.7,1.2s1,1.9,1,3.4c0,1.4-0.3,2.6-1,3.4
		S39.2,40.3,38.1,40.3z M37.9,32.3c-0.9,0-1.6,0.2-2,0.7c-0.4,0.5-0.6,1.3-0.6,2.4v0.3c0,1.2,0.2,2.1,0.6,2.7c0.4,0.5,1.1,0.8,2,0.8
		c0.8,0,1.4-0.3,1.8-0.9c0.4-0.6,0.6-1.5,0.6-2.6c0-1.1-0.2-1.9-0.6-2.5S38.7,32.3,37.9,32.3z"/>
	<path class="st3" d="M48.1,31.1c0.4,0,0.7,0,1.1,0.1L49,32.5c-0.4-0.1-0.7-0.1-1-0.1c-0.7,0-1.3,0.3-1.8,0.9
		c-0.5,0.6-0.8,1.3-0.8,2.2v4.7h-1.3v-8.8h1.1l0.2,1.6h0.1c0.3-0.6,0.7-1,1.2-1.3S47.6,31.1,48.1,31.1z"/>
	<path class="st3" d="M54.5,40.3c-1.3,0-2.3-0.4-3.1-1.2s-1.1-1.9-1.1-3.3c0-1.4,0.4-2.6,1.1-3.4c0.7-0.8,1.6-1.3,2.8-1.3
		c1.1,0,2,0.4,2.6,1.1c0.6,0.7,1,1.7,1,2.9v0.8h-6.1c0,1,0.3,1.8,0.8,2.4c0.5,0.5,1.2,0.8,2.1,0.8c1,0,1.9-0.2,2.8-0.6v1.2
		c-0.5,0.2-0.9,0.4-1.3,0.4C55.6,40.2,55.1,40.3,54.5,40.3z M54.2,32.3c-0.7,0-1.3,0.2-1.7,0.7c-0.4,0.5-0.7,1.1-0.7,1.9h4.6
		c0-0.8-0.2-1.5-0.6-1.9C55.4,32.5,54.9,32.3,54.2,32.3z"/>
	<path class="st3" d="M64,32.3h-2.2v7.8h-1.3v-7.8h-1.6v-0.6l1.6-0.5v-0.5c0-2.2,0.9-3.3,2.8-3.3c0.5,0,1,0.1,1.6,0.3l-0.3,1.1
		c-0.5-0.2-1-0.2-1.3-0.2c-0.5,0-0.9,0.2-1.1,0.5c-0.2,0.3-0.4,0.9-0.4,1.6v0.6H64V32.3z"/>
	<path class="st3" d="M69.4,40.3c-1.3,0-2.3-0.4-3.1-1.2s-1.1-1.9-1.1-3.3c0-1.4,0.4-2.6,1.1-3.4c0.7-0.8,1.6-1.3,2.8-1.3
		c1.1,0,2,0.4,2.6,1.1c0.6,0.7,1,1.7,1,2.9v0.8h-6.1c0,1,0.3,1.8,0.8,2.4c0.5,0.5,1.2,0.8,2.1,0.8c1,0,1.9-0.2,2.8-0.6v1.2
		c-0.5,0.2-0.9,0.4-1.3,0.4C70.5,40.2,70,40.3,69.4,40.3z M69,32.3c-0.7,0-1.3,0.2-1.7,0.7c-0.4,0.5-0.7,1.1-0.7,1.9h4.6
		c0-0.8-0.2-1.5-0.6-1.9C70.3,32.5,69.7,32.3,69,32.3z"/>
	<path class="st3" d="M78.9,31.1c0.4,0,0.7,0,1.1,0.1l-0.2,1.2c-0.4-0.1-0.7-0.1-1-0.1c-0.7,0-1.3,0.3-1.8,0.9
		c-0.5,0.6-0.8,1.3-0.8,2.2v4.7h-1.3v-8.8H76l0.2,1.6h0.1c0.3-0.6,0.7-1,1.2-1.3S78.4,31.1,78.9,31.1z"/>
	<path class="st3" d="M85.4,40.3c-1.3,0-2.3-0.4-3.1-1.2s-1.1-1.9-1.1-3.3c0-1.4,0.4-2.6,1.1-3.4c0.7-0.8,1.6-1.3,2.8-1.3
		c1.1,0,2,0.4,2.6,1.1c0.6,0.7,1,1.7,1,2.9v0.8h-6.1c0,1,0.3,1.8,0.8,2.4c0.5,0.5,1.2,0.8,2.1,0.8c1,0,1.9-0.2,2.8-0.6v1.2
		c-0.5,0.2-0.9,0.4-1.3,0.4C86.5,40.2,86,40.3,85.4,40.3z M85,32.3c-0.7,0-1.3,0.2-1.7,0.7c-0.4,0.5-0.7,1.1-0.7,1.9h4.6
		c0-0.8-0.2-1.5-0.6-1.9C86.2,32.5,85.7,32.3,85,32.3z"/>
	<path class="st3" d="M96.9,40.1v-5.7c0-0.7-0.2-1.3-0.5-1.6c-0.3-0.4-0.8-0.5-1.5-0.5c-0.9,0-1.6,0.2-2,0.7
		c-0.4,0.5-0.6,1.3-0.6,2.5v4.6h-1.3v-8.8H92l0.2,1.2h0.1c0.3-0.4,0.7-0.8,1.2-1c0.5-0.2,1-0.4,1.7-0.4c1.1,0,1.9,0.3,2.4,0.8
		c0.5,0.5,0.8,1.3,0.8,2.5v5.8H96.9z"/>
	<path class="st3" d="M104.5,40.3c-1.3,0-2.3-0.4-3-1.2s-1.1-1.9-1.1-3.3c0-1.5,0.4-2.6,1.1-3.4c0.7-0.8,1.7-1.2,3-1.2
		c0.4,0,0.8,0,1.3,0.1c0.4,0.1,0.8,0.2,1,0.3l-0.4,1.1c-0.3-0.1-0.6-0.2-1-0.3c-0.3-0.1-0.7-0.1-0.9-0.1c-1.8,0-2.7,1.1-2.7,3.4
		c0,1.1,0.2,1.9,0.7,2.5c0.4,0.6,1.1,0.9,1.9,0.9c0.7,0,1.5-0.2,2.3-0.5v1.2C106.2,40.1,105.4,40.3,104.5,40.3z"/>
	<path class="st3" d="M112.6,40.3c-1.3,0-2.3-0.4-3.1-1.2s-1.1-1.9-1.1-3.3c0-1.4,0.4-2.6,1.1-3.4c0.7-0.8,1.6-1.3,2.8-1.3
		c1.1,0,2,0.4,2.6,1.1c0.6,0.7,1,1.7,1,2.9v0.8h-6.1c0,1,0.3,1.8,0.8,2.4c0.5,0.5,1.2,0.8,2.1,0.8c1,0,1.9-0.2,2.8-0.6v1.2
		c-0.5,0.2-0.9,0.4-1.3,0.4C113.7,40.2,113.2,40.3,112.6,40.3z M112.2,32.3c-0.7,0-1.3,0.2-1.7,0.7c-0.4,0.5-0.7,1.1-0.7,1.9h4.6
		c0-0.8-0.2-1.5-0.6-1.9C113.5,32.5,112.9,32.3,112.2,32.3z"/>
	<path class="st3" d="M119.5,38.2l0.1,0.2c-0.1,0.5-0.3,1.2-0.6,1.9c-0.3,0.7-0.5,1.4-0.8,2h-1c0.1-0.6,0.3-1.2,0.5-2.1
		c0.2-0.8,0.3-1.5,0.4-2H119.5z"/>
	<path class="st3" d="M132.5,40.1v-5.7c0-0.7-0.2-1.3-0.5-1.6c-0.3-0.4-0.8-0.5-1.5-0.5c-0.9,0-1.6,0.3-2,0.8
		c-0.4,0.5-0.6,1.3-0.6,2.5v4.6h-1.3V27.6h1.3v3.8c0,0.5,0,0.8-0.1,1.1h0.1c0.3-0.4,0.6-0.8,1.1-1c0.5-0.2,1-0.4,1.7-0.4
		c1.1,0,1.9,0.3,2.4,0.8s0.8,1.3,0.8,2.4v5.8H132.5z"/>
	<path class="st3" d="M140.3,40.3c-1.3,0-2.3-0.4-3.1-1.2s-1.1-1.9-1.1-3.3c0-1.4,0.4-2.6,1.1-3.4c0.7-0.8,1.6-1.3,2.8-1.3
		c1.1,0,2,0.4,2.6,1.1c0.6,0.7,1,1.7,1,2.9v0.8h-6.1c0,1,0.3,1.8,0.8,2.4c0.5,0.5,1.2,0.8,2.1,0.8c1,0,1.9-0.2,2.8-0.6v1.2
		c-0.5,0.2-0.9,0.4-1.3,0.4C141.4,40.2,140.9,40.3,140.3,40.3z M139.9,32.3c-0.7,0-1.3,0.2-1.7,0.7c-0.4,0.5-0.7,1.1-0.7,1.9h4.6
		c0-0.8-0.2-1.5-0.6-1.9C141.2,32.5,140.6,32.3,139.9,32.3z"/>
	<path class="st3" d="M149.9,31.1c0.4,0,0.7,0,1.1,0.1l-0.2,1.2c-0.4-0.1-0.7-0.1-1-0.1c-0.7,0-1.3,0.3-1.8,0.9
		c-0.5,0.6-0.8,1.3-0.8,2.2v4.7h-1.3v-8.8h1.1l0.2,1.6h0.1c0.3-0.6,0.7-1,1.2-1.3S149.3,31.1,149.9,31.1z"/>
	<path class="st3" d="M156.3,40.3c-1.3,0-2.3-0.4-3.1-1.2s-1.1-1.9-1.1-3.3c0-1.4,0.4-2.6,1.1-3.4c0.7-0.8,1.6-1.3,2.8-1.3
		c1.1,0,2,0.4,2.6,1.1c0.6,0.7,1,1.7,1,2.9v0.8h-6.1c0,1,0.3,1.8,0.8,2.4c0.5,0.5,1.2,0.8,2.1,0.8c1,0,1.9-0.2,2.8-0.6v1.2
		c-0.5,0.2-0.9,0.4-1.3,0.4C157.4,40.2,156.9,40.3,156.3,40.3z M155.9,32.3c-0.7,0-1.3,0.2-1.7,0.7c-0.4,0.5-0.7,1.1-0.7,1.9h4.6
		c0-0.8-0.2-1.5-0.6-1.9C157.2,32.5,156.6,32.3,155.9,32.3z"/>
	<path class="st3" d="M171.5,40.1l-0.3-1.3h-0.1c-0.4,0.6-0.9,0.9-1.3,1.1c-0.4,0.2-1,0.3-1.6,0.3c-0.9,0-1.6-0.2-2.1-0.7
		c-0.5-0.5-0.7-1.1-0.7-1.9c0-1.8,1.4-2.7,4.3-2.8l1.5,0v-0.5c0-0.7-0.1-1.2-0.4-1.5c-0.3-0.3-0.8-0.5-1.4-0.5
		c-0.7,0-1.6,0.2-2.5,0.7l-0.4-1c0.4-0.2,0.9-0.4,1.4-0.6c0.5-0.1,1-0.2,1.6-0.2c1.1,0,1.8,0.2,2.3,0.7c0.5,0.5,0.8,1.2,0.8,2.2v6
		H171.5z M168.5,39.2c0.8,0,1.5-0.2,2-0.7c0.5-0.5,0.7-1.1,0.7-1.9v-0.8l-1.3,0.1c-1.1,0-1.8,0.2-2.3,0.5s-0.7,0.7-0.7,1.4
		c0,0.5,0.1,0.9,0.4,1.1S168,39.2,168.5,39.2z"/>
	<path class="st3" d="M179.3,31.1c0.4,0,0.7,0,1.1,0.1l-0.2,1.2c-0.4-0.1-0.7-0.1-1-0.1c-0.7,0-1.3,0.3-1.8,0.9
		c-0.5,0.6-0.8,1.3-0.8,2.2v4.7h-1.3v-8.8h1.1l0.2,1.6h0.1c0.3-0.6,0.7-1,1.2-1.3S178.7,31.1,179.3,31.1z"/>
	<path class="st3" d="M185.7,40.3c-1.3,0-2.3-0.4-3.1-1.2s-1.1-1.9-1.1-3.3c0-1.4,0.4-2.6,1.1-3.4c0.7-0.8,1.6-1.3,2.8-1.3
		c1.1,0,2,0.4,2.6,1.1c0.6,0.7,1,1.7,1,2.9v0.8h-6.1c0,1,0.3,1.8,0.8,2.4c0.5,0.5,1.2,0.8,2.1,0.8c1,0,1.9-0.2,2.8-0.6v1.2
		c-0.5,0.2-0.9,0.4-1.3,0.4C186.8,40.2,186.3,40.3,185.7,40.3z M185.4,32.3c-0.7,0-1.3,0.2-1.7,0.7c-0.4,0.5-0.7,1.1-0.7,1.9h4.6
		c0-0.8-0.2-1.5-0.6-1.9C186.6,32.5,186.1,32.3,185.4,32.3z"/>
	<path class="st3" d="M201.2,37.7c0,0.8-0.3,1.5-0.9,1.9c-0.6,0.4-1.5,0.7-2.6,0.7c-1.2,0-2.1-0.2-2.7-0.6v-1.2
		c0.4,0.2,0.9,0.4,1.4,0.5s1,0.2,1.4,0.2c0.7,0,1.2-0.1,1.6-0.3s0.6-0.6,0.6-1c0-0.3-0.1-0.6-0.4-0.9c-0.3-0.2-0.9-0.5-1.7-0.9
		c-0.8-0.3-1.4-0.6-1.8-0.8c-0.3-0.2-0.6-0.5-0.8-0.8c-0.2-0.3-0.3-0.6-0.3-1c0-0.7,0.3-1.3,0.9-1.7c0.6-0.4,1.4-0.6,2.4-0.6
		c1,0,1.9,0.2,2.8,0.6l-0.5,1.1c-0.9-0.4-1.7-0.5-2.4-0.5c-0.6,0-1.1,0.1-1.4,0.3c-0.3,0.2-0.5,0.5-0.5,0.8c0,0.2,0.1,0.4,0.2,0.6
		c0.1,0.2,0.3,0.3,0.6,0.5s0.8,0.4,1.5,0.7c1,0.4,1.8,0.8,2.1,1.2C201.1,36.6,201.2,37.1,201.2,37.7z"/>
	<path class="st3" d="M211,35.7c0,1.4-0.4,2.6-1.1,3.4s-1.7,1.2-3,1.2c-0.8,0-1.5-0.2-2.1-0.6c-0.6-0.4-1.1-0.9-1.4-1.6
		c-0.3-0.7-0.5-1.5-0.5-2.4c0-1.4,0.4-2.6,1.1-3.4c0.7-0.8,1.7-1.2,3-1.2c1.2,0,2.2,0.4,2.9,1.2C210.7,33.2,211,34.3,211,35.7z
		 M204.3,35.7c0,1.1,0.2,2,0.7,2.6c0.5,0.6,1.1,0.9,2,0.9s1.5-0.3,2-0.9s0.7-1.4,0.7-2.6c0-1.1-0.2-2-0.7-2.6s-1.1-0.9-2-0.9
		c-0.9,0-1.5,0.3-2,0.9C204.5,33.7,204.3,34.6,204.3,35.7z"/>
	<path class="st3" d="M224.6,40.1v-5.7c0-0.7-0.2-1.2-0.5-1.6c-0.3-0.4-0.8-0.5-1.4-0.5c-0.8,0-1.4,0.2-1.8,0.7
		c-0.4,0.5-0.6,1.2-0.6,2.2v4.9H219v-5.7c0-0.7-0.2-1.2-0.5-1.6c-0.3-0.4-0.8-0.5-1.4-0.5c-0.8,0-1.5,0.3-1.8,0.8
		c-0.4,0.5-0.6,1.3-0.6,2.5v4.6h-1.3v-8.8h1.1l0.2,1.2h0.1c0.3-0.4,0.6-0.8,1.1-1c0.5-0.2,1-0.4,1.5-0.4c1.4,0,2.3,0.5,2.7,1.5h0.1
		c0.3-0.5,0.6-0.8,1.1-1.1c0.5-0.3,1.1-0.4,1.7-0.4c1,0,1.7,0.3,2.2,0.8s0.7,1.3,0.7,2.5v5.8H224.6z"/>
	<path class="st3" d="M232.4,40.3c-1.3,0-2.3-0.4-3.1-1.2s-1.1-1.9-1.1-3.3c0-1.4,0.4-2.6,1.1-3.4c0.7-0.8,1.6-1.3,2.8-1.3
		c1.1,0,2,0.4,2.6,1.1c0.6,0.7,1,1.7,1,2.9v0.8h-6.1c0,1,0.3,1.8,0.8,2.4c0.5,0.5,1.2,0.8,2.1,0.8c1,0,1.9-0.2,2.8-0.6v1.2
		c-0.5,0.2-0.9,0.4-1.3,0.4C233.5,40.2,233,40.3,232.4,40.3z M232.1,32.3c-0.7,0-1.3,0.2-1.7,0.7c-0.4,0.5-0.7,1.1-0.7,1.9h4.6
		c0-0.8-0.2-1.5-0.6-1.9C233.3,32.5,232.8,32.3,232.1,32.3z"/>
	<path class="st3" d="M245.1,39.2c0.2,0,0.5,0,0.7-0.1c0.2,0,0.4-0.1,0.5-0.1v1c-0.1,0.1-0.4,0.1-0.6,0.2c-0.3,0-0.5,0.1-0.8,0.1
		c-1.7,0-2.6-0.9-2.6-2.7v-5.3h-1.3v-0.6l1.3-0.6l0.6-1.9h0.8v2h2.6v1h-2.6v5.2c0,0.5,0.1,0.9,0.4,1.2S244.7,39.2,245.1,39.2z"/>
	<path class="st3" d="M248,28.9c0-0.3,0.1-0.5,0.2-0.7c0.1-0.1,0.3-0.2,0.6-0.2c0.2,0,0.4,0.1,0.6,0.2s0.2,0.4,0.2,0.7
		s-0.1,0.5-0.2,0.7c-0.2,0.1-0.3,0.2-0.6,0.2c-0.2,0-0.4-0.1-0.6-0.2C248,29.4,248,29.2,248,28.9z M249.4,40.1h-1.3v-8.8h1.3V40.1z"
		/>
	<path class="st3" d="M256.4,40.3c-0.6,0-1.1-0.1-1.6-0.3c-0.5-0.2-0.9-0.5-1.2-1h-0.1c0.1,0.5,0.1,1,0.1,1.5v3.6h-1.3V31.3h1.1
		l0.2,1.2h0.1c0.3-0.5,0.7-0.8,1.2-1c0.5-0.2,1-0.3,1.6-0.3c1.2,0,2.1,0.4,2.7,1.2s1,1.9,1,3.4c0,1.4-0.3,2.6-1,3.4
		S257.5,40.3,256.4,40.3z M256.2,32.3c-0.9,0-1.6,0.2-2,0.7c-0.4,0.5-0.6,1.3-0.6,2.4v0.3c0,1.2,0.2,2.1,0.6,2.7
		c0.4,0.5,1.1,0.8,2,0.8c0.8,0,1.4-0.3,1.8-0.9c0.4-0.6,0.6-1.5,0.6-2.6c0-1.1-0.2-1.9-0.6-2.5S256.9,32.3,256.2,32.3z"/>
	<path class="st3" d="M268,37.7c0,0.8-0.3,1.5-0.9,1.9c-0.6,0.4-1.5,0.7-2.6,0.7c-1.2,0-2.1-0.2-2.7-0.6v-1.2
		c0.4,0.2,0.9,0.4,1.4,0.5s1,0.2,1.4,0.2c0.7,0,1.2-0.1,1.6-0.3s0.6-0.6,0.6-1c0-0.3-0.1-0.6-0.4-0.9c-0.3-0.2-0.9-0.5-1.7-0.9
		c-0.8-0.3-1.4-0.6-1.8-0.8c-0.3-0.2-0.6-0.5-0.8-0.8c-0.2-0.3-0.3-0.6-0.3-1c0-0.7,0.3-1.3,0.9-1.7c0.6-0.4,1.4-0.6,2.4-0.6
		c1,0,1.9,0.2,2.8,0.6l-0.5,1.1c-0.9-0.4-1.7-0.5-2.4-0.5c-0.6,0-1.1,0.1-1.4,0.3c-0.3,0.2-0.5,0.5-0.5,0.8c0,0.2,0.1,0.4,0.2,0.6
		c0.1,0.2,0.3,0.3,0.6,0.5s0.8,0.4,1.5,0.7c1,0.4,1.8,0.8,2.1,1.2C267.9,36.6,268,37.1,268,37.7z"/>
	<path class="st3" d="M282.1,35.7c0,1.4-0.4,2.6-1.1,3.4s-1.7,1.2-3,1.2c-0.8,0-1.5-0.2-2.1-0.6c-0.6-0.4-1.1-0.9-1.4-1.6
		c-0.3-0.7-0.5-1.5-0.5-2.4c0-1.4,0.4-2.6,1.1-3.4c0.7-0.8,1.7-1.2,3-1.2c1.2,0,2.2,0.4,2.9,1.2C281.8,33.2,282.1,34.3,282.1,35.7z
		 M275.4,35.7c0,1.1,0.2,2,0.7,2.6c0.5,0.6,1.1,0.9,2,0.9s1.5-0.3,2-0.9s0.7-1.4,0.7-2.6c0-1.1-0.2-2-0.7-2.6s-1.1-0.9-2-0.9
		c-0.9,0-1.5,0.3-2,0.9C275.6,33.7,275.4,34.6,275.4,35.7z"/>
	<path class="st3" d="M290.5,40.1v-5.7c0-0.7-0.2-1.3-0.5-1.6c-0.3-0.4-0.8-0.5-1.5-0.5c-0.9,0-1.6,0.2-2,0.7
		c-0.4,0.5-0.6,1.3-0.6,2.5v4.6h-1.3v-8.8h1.1l0.2,1.2h0.1c0.3-0.4,0.7-0.8,1.2-1c0.5-0.2,1-0.4,1.7-0.4c1.1,0,1.9,0.3,2.4,0.8
		c0.5,0.5,0.8,1.3,0.8,2.5v5.8H290.5z"/>
	<path class="st3" d="M304.9,40.1v-5.7c0-0.7-0.2-1.3-0.5-1.6c-0.3-0.4-0.8-0.5-1.5-0.5c-0.9,0-1.6,0.3-2,0.8
		c-0.4,0.5-0.6,1.3-0.6,2.5v4.6h-1.3V27.6h1.3v3.8c0,0.5,0,0.8-0.1,1.1h0.1c0.3-0.4,0.6-0.8,1.1-1c0.5-0.2,1-0.4,1.7-0.4
		c1.1,0,1.9,0.3,2.4,0.8s0.8,1.3,0.8,2.4v5.8H304.9z"/>
	<path class="st3" d="M316.6,35.7c0,1.4-0.4,2.6-1.1,3.4s-1.7,1.2-3,1.2c-0.8,0-1.5-0.2-2.1-0.6c-0.6-0.4-1.1-0.9-1.4-1.6
		c-0.3-0.7-0.5-1.5-0.5-2.4c0-1.4,0.4-2.6,1.1-3.4c0.7-0.8,1.7-1.2,3-1.2c1.2,0,2.2,0.4,2.9,1.2C316.3,33.2,316.6,34.3,316.6,35.7z
		 M309.9,35.7c0,1.1,0.2,2,0.7,2.6c0.5,0.6,1.1,0.9,2,0.9s1.5-0.3,2-0.9s0.7-1.4,0.7-2.6c0-1.1-0.2-2-0.7-2.6s-1.1-0.9-2-0.9
		c-0.9,0-1.5,0.3-2,0.9C310.1,33.7,309.9,34.6,309.9,35.7z"/>
	<path class="st3" d="M326.2,40.1l-1.6-5.2c-0.1-0.3-0.3-1-0.6-2.2h-0.1c-0.2,0.9-0.4,1.7-0.6,2.2l-1.7,5.2h-1.5l-2.4-8.8h1.4
		c0.6,2.2,1,3.9,1.3,5.1s0.5,1.9,0.5,2.3h0.1c0.1-0.3,0.2-0.7,0.3-1.2c0.1-0.5,0.2-0.9,0.3-1.2l1.6-5.1h1.4l1.6,5.1
		c0.3,0.9,0.5,1.7,0.6,2.3h0.1c0-0.2,0.1-0.5,0.2-0.9c0.1-0.4,0.7-2.6,1.7-6.5h1.4l-2.4,8.8H326.2z"/>
	<path class="st3" d="M338.9,39.2c0.2,0,0.5,0,0.7-0.1c0.2,0,0.4-0.1,0.5-0.1v1c-0.1,0.1-0.4,0.1-0.6,0.2c-0.3,0-0.5,0.1-0.8,0.1
		c-1.7,0-2.6-0.9-2.6-2.7v-5.3h-1.3v-0.6l1.3-0.6l0.6-1.9h0.8v2h2.6v1h-2.6v5.2c0,0.5,0.1,0.9,0.4,1.2S338.5,39.2,338.9,39.2z"/>
	<path class="st3" d="M349.5,35.7c0,1.4-0.4,2.6-1.1,3.4s-1.7,1.2-3,1.2c-0.8,0-1.5-0.2-2.1-0.6c-0.6-0.4-1.1-0.9-1.4-1.6
		c-0.3-0.7-0.5-1.5-0.5-2.4c0-1.4,0.4-2.6,1.1-3.4c0.7-0.8,1.7-1.2,3-1.2c1.2,0,2.2,0.4,2.9,1.2C349.2,33.2,349.5,34.3,349.5,35.7z
		 M342.8,35.7c0,1.1,0.2,2,0.7,2.6c0.5,0.6,1.1,0.9,2,0.9s1.5-0.3,2-0.9s0.7-1.4,0.7-2.6c0-1.1-0.2-2-0.7-2.6s-1.1-0.9-2-0.9
		c-0.9,0-1.5,0.3-2,0.9C343,33.7,342.8,34.6,342.8,35.7z"/>
	<path class="st3" d="M359.9,40.3c-1.3,0-2.3-0.4-3.1-1.2s-1.1-1.9-1.1-3.3c0-1.4,0.4-2.6,1.1-3.4c0.7-0.8,1.6-1.3,2.8-1.3
		c1.1,0,2,0.4,2.6,1.1c0.6,0.7,1,1.7,1,2.9v0.8H357c0,1,0.3,1.8,0.8,2.4c0.5,0.5,1.2,0.8,2.1,0.8c1,0,1.9-0.2,2.8-0.6v1.2
		c-0.5,0.2-0.9,0.4-1.3,0.4C361,40.2,360.5,40.3,359.9,40.3z M359.5,32.3c-0.7,0-1.3,0.2-1.7,0.7c-0.4,0.5-0.7,1.1-0.7,1.9h4.6
		c0-0.8-0.2-1.5-0.6-1.9C360.7,32.5,360.2,32.3,359.5,32.3z"/>
	<path class="st3" d="M367.5,35.6l-3.1-4.3h1.5l2.3,3.4l2.3-3.4h1.5l-3.1,4.3l3.2,4.5h-1.5l-2.5-3.6l-2.5,3.6h-1.5L367.5,35.6z"/>
	<path class="st3" d="M377.6,40.3c-1.3,0-2.3-0.4-3-1.2s-1.1-1.9-1.1-3.3c0-1.5,0.4-2.6,1.1-3.4c0.7-0.8,1.7-1.2,3-1.2
		c0.4,0,0.8,0,1.3,0.1c0.4,0.1,0.8,0.2,1,0.3l-0.4,1.1c-0.3-0.1-0.6-0.2-1-0.3c-0.3-0.1-0.7-0.1-0.9-0.1c-1.8,0-2.7,1.1-2.7,3.4
		c0,1.1,0.2,1.9,0.7,2.5c0.4,0.6,1.1,0.9,1.9,0.9c0.7,0,1.5-0.2,2.3-0.5v1.2C379.2,40.1,378.5,40.3,377.6,40.3z"/>
	<path class="st3" d="M385.6,40.3c-1.3,0-2.3-0.4-3.1-1.2s-1.1-1.9-1.1-3.3c0-1.4,0.4-2.6,1.1-3.4c0.7-0.8,1.6-1.3,2.8-1.3
		c1.1,0,2,0.4,2.6,1.1c0.6,0.7,1,1.7,1,2.9v0.8h-6.1c0,1,0.3,1.8,0.8,2.4c0.5,0.5,1.2,0.8,2.1,0.8c1,0,1.9-0.2,2.8-0.6v1.2
		c-0.5,0.2-0.9,0.4-1.3,0.4C386.7,40.2,386.2,40.3,385.6,40.3z M385.3,32.3c-0.7,0-1.3,0.2-1.7,0.7c-0.4,0.5-0.7,1.1-0.7,1.9h4.6
		c0-0.8-0.2-1.5-0.6-1.9C386.5,32.5,386,32.3,385.3,32.3z"/>
	<path class="st3" d="M392.5,40.1h-1.3V27.6h1.3V40.1z"/>
	<path class="st3" d="M395.1,32.2c0-0.7,0.3-1.1,1-1.1c0.7,0,1,0.4,1,1.1c0,0.3-0.1,0.6-0.3,0.8c-0.2,0.2-0.4,0.3-0.7,0.3
		c-0.3,0-0.5-0.1-0.7-0.3C395.2,32.8,395.1,32.5,395.1,32.2z M395.1,39.3c0-0.4,0.1-0.6,0.2-0.8c0.2-0.2,0.4-0.3,0.7-0.3
		c0.3,0,0.6,0.1,0.7,0.3c0.2,0.2,0.3,0.5,0.3,0.8c0,0.3-0.1,0.6-0.3,0.8c-0.2,0.2-0.4,0.3-0.7,0.3c-0.3,0-0.5-0.1-0.7-0.3
		C395.2,39.9,395.1,39.7,395.1,39.3z"/>
</g>
<g>
</g>
<g>
</g>
<g>
</g>
<g>
</g>
<g>
</g>
<g>
</g>
</svg>
