<svg xmlns="http://www.w3.org/2000/svg" id="Layer_1" viewBox="-127 216.2 244.7 69.8">
  <style>
    .st0{fill:#C95145;} .st1{fill:#344B62;} .st2{fill:none;} .st3{fill:#FCD4BB;}
  </style>
  <path d="M114.7 221.6h-238.8c-1.6 0-2.9 1.4-2.9 3v58.5c0 1.6 1.3 2.9 2.9 2.9h238.8c1.6 0 2.9-1.3 2.9-2.9v-58.5c.1-1.6-1.3-3-2.9-3z" class="st0"/>
  <path d="M109.8 216.2h-231.5c-1.6 0-2.9 1.3-2.9 2.9v58.6c0 1.6 1.3 2.9 2.9 2.9h231.5c1.6 0 2.9-1.3 2.9-2.9v-58.6c0-1.6-1.3-2.9-2.9-2.9z" class="st1"/>
  <path d="M-110.1 221.6h211.2V294h-211.2z" class="st2"/>
  <path d="M-103.5 230.8l-1.1-2.7h-3.4l-1.1 2.7h-1l3.4-8.6h.8l3.4 8.6h-1zm-1.4-3.7l-1-2.7c-.1-.3-.2-.7-.4-1.2-.1.4-.2.8-.4 1.2l-1 2.7h2.8z" class="st3"/>
  <path d="M-94.2 229c0 .6-.2 1.1-.7 1.4s-1.1.5-1.9.5c-.9 0-1.5-.1-2-.4v-.9c.3.2.6.3 1 .4.4.1.7.1 1 .1.5 0 .9-.1 1.2-.2.3-.1.4-.4.4-.7 0-.2-.1-.5-.3-.6-.2-.1-.6-.4-1.3-.6-.6-.2-1-.4-1.3-.6s-.4-.4-.6-.6c-.2-.2-.2-.5-.2-.8 0-.5.2-.9.6-1.2.4-.3 1-.5 1.8-.5.7 0 1.4.1 2 .4l-.3.8c-.6-.3-1.2-.4-1.8-.4-.5 0-.8.1-1 .2-.2.1-.4.3-.4.6 0 .2 0 .3.1.4.1.1.2.2.4.3.2.1.6.3 1.1.5.8.3 1.3.6 1.5.8s.7.7.7 1.1z" class="st3"/>
  <path d="M-91.7 224.3v4.2c0 .5.1.9.4 1.2s.6.4 1.1.4c.7 0 1.2-.2 1.5-.6.3-.4.5-1 .5-1.8v-3.4h1v6.4h-.8l-.1-.9h-.1c-.2.3-.5.6-.8.7-.3.1-.8.3-1.2.3-.8 0-1.4-.2-1.8-.6-.4-.4-.6-1-.6-1.8v-4.1h.9z" class="st3"/>
  <path d="M-82.3 224.2c.3 0 .5 0 .8.1l-.2.9c-.3-.1-.5-.1-.7-.1-.5 0-1 .2-1.3.6-.3.4-.6.9-.6 1.6v3.4h-1v-6.4h.8l.1 1.2c.2-.4.5-.7.9-1s.8-.3 1.2-.3z" class="st3"/>
  <path d="M-78.9 230.8l-2.4-6.4h1l1.4 3.8c.3.9.5 1.5.6 1.7 0-.2.2-.6.4-1.3.2-.7.7-2.1 1.5-4.3h1l-2.4 6.4h-1.1v.1z" class="st3"/>
  <path d="M-71.6 230.9c-.9 0-1.7-.3-2.2-.9-.5-.6-.8-1.4-.8-2.4s.3-1.9.8-2.5c.5-.6 1.1-.9 1.9-.9.8 0 1.4.3 1.9.8s.7 1.2.7 2.1v.6h-4.4c0 .8.2 1.3.6 1.7.4.4.9.6 1.5.6.7 0 1.4-.1 2.1-.4v.9c-.3.1-.7.3-1 .3s-.7.1-1.1.1zm-.3-5.9c-.5 0-.9.2-1.2.5s-.5.8-.5 1.4h3.4c0-.6-.1-1.1-.4-1.4s-.8-.5-1.3-.5z" class="st3"/>
  <path d="M-68.6 224.3h1l1.4 3.7c.3.8.5 1.4.6 1.8.1-.2.2-.5.3-1s.7-2 1.6-4.5h1l-2.8 7.3c-.3.7-.6 1.2-1 1.5-.4.3-.8.5-1.3.5-.3 0-.6 0-.9-.1v-.8c.2 0 .5.1.7.1.7 0 1.1-.4 1.4-1.1l.4-.9-2.4-6.5z" class="st3"/>
  <path d="M-55.4 224.2c.8 0 1.5.3 2 .9.5.6.7 1.4.7 2.4s-.2 1.9-.7 2.5c-.5.6-1.1.9-2 .9-.4 0-.8-.1-1.1-.2-.3-.1-.6-.4-.9-.7h-.1l-.2.8h-.7v-9.2h1v3.5c.4-.5 1.1-.9 2-.9zm-.2.8c-.7 0-1.1.2-1.4.6-.3.4-.4 1-.4 1.9 0 .9.2 1.5.5 1.9.3.4.8.6 1.4.6s1-.2 1.3-.7.4-1.1.4-1.9-.1-1.5-.4-1.9-.8-.5-1.4-.5z" class="st3"/>
  <path d="M-52.1 224.3h1l1.4 3.7c.3.8.5 1.4.6 1.8.1-.2.2-.5.3-1s.7-2 1.6-4.5h1l-2.8 7.3c-.3.7-.6 1.2-1 1.5-.4.3-.8.5-1.3.5-.3 0-.6 0-.9-.1v-.8c.2 0 .5.1.7.1.7 0 1.1-.4 1.4-1.1l.4-.9-2.4-6.5z" class="st3"/>
  <path d="M-41.8 230.8v-8.6h1v7.7h3.8v.9h-4.8z" class="st3"/>
  <path d="M-33 230.9c-.9 0-1.7-.3-2.2-.9-.5-.6-.8-1.4-.8-2.4s.3-1.9.8-2.5c.5-.6 1.2-.9 2.1-.9.8 0 1.4.3 1.9.8s.7 1.2.7 2.1v.6H-35c0 .8.2 1.3.6 1.7.4.4.9.6 1.5.6.7 0 1.4-.1 2.1-.4v.9c-.3.1-.7.3-1 .3s-.7.1-1.2.1zm-.2-5.9c-.5 0-.9.2-1.2.5s-.5.8-.5 1.4h3.4c0-.6-.1-1.1-.4-1.4s-.8-.5-1.3-.5z" class="st3"/>
  <path d="M-26.1 225.1h-1.6v5.7h-1v-5.7h-1.1v-.4l1.1-.4v-.4c0-1.6.7-2.4 2.1-2.4.3 0 .7.1 1.2.2l-.3.8c-.4-.1-.7-.2-1-.2-.4 0-.6.1-.8.4s-.3.6-.3 1.2v.4h1.6v.8h.1z" class="st3"/>
  <path d="M-22.8 230.1h.5s.3-.1.4-.1v.7c-.1.1-.3.1-.5.1h-.6c-1.2 0-1.9-.7-1.9-2v-3.7h-.9v-.5l.9-.4.4-1.4h.6v1.5h1.9v.8h-1.9v3.8c0 .4.1.7.3.9.2.2.5.3.8.3z" class="st3"/>
  <path d="M-16.3 230.8v-4.2c0-.5-.1-.9-.4-1.2s-.6-.4-1.1-.4c-.7 0-1.2.2-1.5.6-.3.4-.5 1-.5 1.8v3.4h-1v-9.2h1v3.6h.1c.2-.3.5-.6.8-.7.3-.1.8-.3 1.2-.3.8 0 1.4.2 1.8.6.4.4.6 1 .6 1.8v4.2h-1z" class="st3"/>
  <path d="M-9.3 230.8l-.2-.9c-.3.4-.6.7-1 .8s-.7.2-1.2.2c-.6 0-1.1-.2-1.5-.5s-.5-.8-.5-1.4c0-1.3 1-2 3.1-2h1.1v-.4c0-.5-.1-.9-.3-1.1s-.6-.4-1-.4c-.5 0-1.1.2-1.8.5l-.4-.8c.3-.2.7-.3 1-.4.3-.1.8-.1 1.1-.1.8 0 1.3.2 1.7.5.4.3.6.9.6 1.6v4.4h-.7zm-2.2-.7c.6 0 1.1-.2 1.4-.5.3-.3.5-.8.5-1.4v-.6h-1c-.8 0-1.3.1-1.7.4-.4.3-.5.5-.5 1 0 .4.1.6.3.8.2.2.6.3 1 .3z" class="st3"/>
  <path d="M-2.2 230.8v-4.2c0-.5-.1-.9-.4-1.2s-.6-.4-1.1-.4c-.7 0-1.2.2-1.5.5s-.5 1-.5 1.8v3.4h-1v-6.4h.8l.2.9c.2-.3.5-.6.8-.7.3-.1.9-.3 1.3-.3.8 0 1.4.2 1.7.6.3.4.6 1 .6 1.8v4.2h-.9z" class="st3"/>
  <path d="M5.1 229.9c-.5.7-1.2 1-2.1 1-.8 0-1.5-.3-2-.9-.5-.6-.7-1.4-.7-2.4s.2-1.9.7-2.5c.5-.6 1.1-.9 2-.9s1.5.3 2 .9h.1v-3.5h1v9.1h-.8l-.2-.8zm-1.9.2c.7 0 1.1-.2 1.4-.5.3-.3.4-.9.4-1.7v-.2c0-.9-.2-1.6-.5-1.9-.3-.3-.8-.6-1.5-.6-.6 0-1 .2-1.3.7s-.5 1.1-.5 1.9c0 .8.2 1.4.5 1.9s.9.4 1.5.4z" class="st3"/>
  <path d="M10.8 230.9c-.9 0-1.7-.3-2.2-.9-.5-.6-.8-1.4-.8-2.4s.3-1.9.8-2.5c.5-.6 1.2-.9 2.1-.9.8 0 1.4.3 1.9.8s.7 1.2.7 2.1v.6H8.9c0 .8.2 1.3.6 1.7.4.4.9.6 1.5.6.7 0 1.4-.1 2.1-.4v.9c-.3.1-.7.3-1 .3s-.8.1-1.3.1zm-.2-5.9c-.5 0-.9.2-1.2.5s-.5.8-.5 1.4h3.4c0-.6-.1-1.1-.4-1.4s-.8-.5-1.3-.5z" class="st3"/>
  <path d="M17.8 224.2c.3 0 .5 0 .8.1l-.2.9c-.3-.1-.5-.1-.7-.1-.5 0-1 .2-1.3.6s-.6.9-.6 1.6v3.4h-1v-6.4h.8l.1 1.2c.2-.4.5-.7.9-1s.8-.3 1.2-.3z" class="st3"/>
  <path d="M23.9 229c0 .6-.2 1.1-.7 1.4s-1.1.5-1.9.5c-.9 0-1.5-.1-2-.4v-.9c.3.2.6.3 1 .4.4.1.7.1 1 .1.5 0 .9-.1 1.2-.2.3-.1.4-.4.4-.7 0-.2-.1-.5-.3-.6-.2-.1-.6-.4-1.3-.6-.6-.2-1-.4-1.3-.6s-.4-.4-.6-.6c-.2-.2-.2-.5-.2-.8 0-.5.2-.9.6-1.2.4-.3 1-.5 1.8-.5.7 0 1.4.1 2 .4l-.3.8c-.6-.3-1.2-.4-1.8-.4-.5 0-.8.1-1 .2-.2.1-.4.3-.4.6 0 .2 0 .3.1.4.1.1.2.2.4.3.2.1.6.3 1.1.5.8.3 1.3.6 1.5.8s.7.7.7 1.1z" class="st3"/>
  <path d="M29.8 229.9c-.5.7-1.2 1-2.1 1-.8 0-1.5-.3-2-.9-.5-.6-.7-1.4-.7-2.4s.2-1.9.7-2.5c.5-.6 1.1-.9 2-.9s1.5.3 2 .9h.1v-3.5h1v9.1H30l-.2-.8zm-1.9.2c.7 0 1.1-.2 1.4-.5.3-.3.4-.9.4-1.7v-.2c0-.9-.2-1.6-.5-1.9-.3-.3-.8-.6-1.5-.6-.6 0-1 .2-1.3.7s-.5 1.1-.5 1.9c0 .8.2 1.4.5 1.9s.9.4 1.5.4z" class="st3"/>
  <path d="M36.8 230.8l-.2-.9c-.3.4-.6.7-1 .8s-.7.2-1.2.2c-.6 0-1.1-.2-1.5-.5s-.5-.8-.5-1.4c0-1.3 1-2 3.1-2h1.1v-.4c0-.5-.1-.9-.3-1.1s-.6-.4-1-.4c-.5 0-1.1.2-1.8.5l-.3-.7c.3-.2.7-.3 1-.4s.8-.1 1.1-.1c.8 0 1.3.2 1.7.5.4.3.6.9.6 1.6v4.4l-.8-.1zm-2.2-.7c.6 0 1.1-.2 1.4-.5.3-.3.5-.8.5-1.4v-.6h-1c-.8 0-1.3.1-1.7.4-.4.3-.5.5-.5 1 0 .4.1.6.3.8.2.2.6.3 1 .3z" class="st3"/>
  <path d="M38.5 224.3h1l1.4 3.7c.3.8.5 1.4.6 1.8.1-.2.2-.5.3-1s.7-2 1.6-4.5h1l-2.8 7.3c-.3.7-.6 1.2-1 1.5-.4.3-.8.5-1.3.5-.3 0-.6 0-.9-.1v-.8c.2 0 .5.1.7.1.7 0 1.1-.4 1.4-1.1l.4-.9-2.4-6.5z" class="st3"/>
  <path d="M45.4 230.1c0-.3.1-.5.2-.6.1-.1.3-.2.5-.2s.4.1.5.2c.1.1.2.3.2.6s-.1.4-.2.6-.3.2-.5.2-.4-.1-.5-.2-.2-.3-.2-.6z" class="st3"/>
  <path d="M51.3 230.9c-.9 0-1.6-.3-2.2-.9-.6-.6-.8-1.4-.8-2.4 0-1.1.3-1.9.8-2.5.5-.6 1.3-.9 2.2-.9.3 0 .6 0 .9.1.3.1.6.1.7.2l-.3.8c-.1 0-.3-.1-.6-.1s-.5-.1-.7-.1c-1.3 0-2 .8-2 2.5 0 .8.2 1.4.5 1.8.3.4.8.6 1.4.6.5 0 1.1-.1 1.6-.3v.9c-.3.2-.9.3-1.5.3z" class="st3"/>
  <path d="M60 227.5c0 1-.3 1.9-.8 2.5-.5.6-1.3.9-2.2.9-.6 0-1.1-.1-1.5-.4s-.8-.7-1-1.2-.4-1.1-.4-1.8c0-1 .3-1.9.8-2.4s1.2-.9 2.1-.9 1.6.3 2.1.9c.5.6.9 1.4.9 2.4zm-4.9 0c0 .8.2 1.4.5 1.9s.8.6 1.4.6 1.1-.2 1.5-.6c.4-.4.5-1.1.5-1.9s-.2-1.4-.5-1.9-.8-.6-1.5-.6c-.6 0-1.1.2-1.4.6-.3.4-.5 1.1-.5 1.9z" class="st3"/>
  <path d="M69.9 230.8v-4.2c0-.5-.1-.9-.3-1.2s-.6-.4-1-.4c-.6 0-1.1.2-1.3.5s-.4.9-.4 1.6v3.6h-1v-4.2c0-.5-.1-.9-.3-1.2s-.6-.4-1-.4c-.6 0-1.1.2-1.3.5-.2.3-.4 1-.4 1.8v3.4h-1v-6.3h.8l.2.9c.2-.3.4-.6.8-.7.4-.1.7-.3 1.1-.3 1 0 1.7.4 2 1.1.2-.3.5-.6.8-.8s.8-.3 1.2-.3c.7 0 1.3.2 1.6.6.3.4.5 1 .5 1.8v4.2h-1z" class="st3"/>
  <path d="M-106.1 239.5h-1.6v5.7h-1v-5.7h-1.1v-.4l1.1-.4v-.4c0-1.6.7-2.4 2.1-2.4.3 0 .7.1 1.2.2l-.3.8c-.4-.1-.7-.2-1-.2-.4 0-.6.1-.8.4-.2.3-.3.6-.3 1.2v.4h1.6l.1.8z" class="st3"/>
  <path d="M-99.4 241.9c0 1-.3 1.9-.8 2.5-.5.6-1.3.9-2.2.9-.6 0-1.1-.1-1.5-.4-.4-.3-.8-.7-1-1.2s-.4-1.1-.4-1.8c0-1 .3-1.9.8-2.4s1.2-.9 2.2-.9c.9 0 1.6.3 2.1.9s.8 1.4.8 2.4zm-4.9 0c0 .8.2 1.4.5 1.9s.8.6 1.4.6c.6 0 1.1-.2 1.5-.6.4-.4.5-1.1.5-1.9 0-.8-.2-1.4-.5-1.9s-.8-.6-1.5-.6c-.6 0-1.1.2-1.4.6s-.5 1.1-.5 1.9z" class="st3"/>
  <path d="M-96.8 238.7v4.2c0 .5.1.9.4 1.2.3.3.6.4 1.1.4.7 0 1.2-.2 1.5-.6.3-.4.5-1 .5-1.8v-3.4h1v6.5h-.8l-.1-.9h-.1c-.2.3-.5.6-.8.7-.3.1-.8.3-1.2.3-.8 0-1.4-.2-1.8-.6-.4-.4-.6-1-.6-1.8v-4.2h.9z" class="st3"/>
  <path d="M-86 245.2V241c0-.5-.1-.9-.4-1.2-.3-.3-.6-.4-1.1-.4-.7 0-1.2.2-1.5.5s-.5 1-.5 1.8v3.5h-1v-6.4h.8l.2.9c.2-.3.5-.6.8-.7.3-.1.8-.3 1.2-.3.8 0 1.4.2 1.7.6.3.4.6 1 .6 1.8v4.1h-.8z" class="st3"/>
  <path d="M-78.6 244.3c-.5.7-1.2 1-2.1 1-.8 0-1.5-.3-2-.9-.5-.6-.7-1.4-.7-2.4s.2-1.9.7-2.5 1.1-.9 2-.9 1.5.3 2 .9h.1v-3.6h1v9.3h-.8l-.2-.9zm-2 .2c.7 0 1.1-.2 1.4-.5.3-.3.4-.9.4-1.7v-.2c0-.9-.2-1.6-.5-1.9s-.8-.6-1.5-.6c-.6 0-1 .2-1.3.7-.3.5-.5 1.1-.5 1.9s.2 1.4.5 1.9.9.4 1.5.4z" class="st3"/>
  <path d="M-70.5 244.5h.5s.3-.1.4-.1v.7c-.1.1-.2.1-.4.1h-.6c-1.2 0-1.9-.7-1.9-2v-3.8h-.9v-.5l.9-.4.5-1.3h.6v1.5h1.9v.8h-1.9v3.8c0 .4.1.7.3.9s.3.3.6.3z" class="st3"/>
  <path d="M-63.9 245.2V241c0-.5-.1-.9-.4-1.2-.3-.3-.6-.4-1.1-.4-.7 0-1.2.2-1.5.6-.3.4-.5 1-.5 1.8v3.4h-1v-9.1h1v3.6h.1c.2-.3.5-.6.8-.7.3-.1.8-.3 1.2-.3.8 0 1.4.2 1.8.6.4.4.6 1 .6 1.8v4.1h-1z" class="st3"/>
  <path d="M-57 245.2l-.2-1c-.3.4-.6.7-1 .8-.4.1-.7.2-1.2.2-.6 0-1.1-.2-1.5-.5s-.5-.8-.5-1.4c0-1.3 1-2 3.1-2h1.1v-.4c0-.5-.1-.9-.3-1.1-.2-.2-.6-.4-1-.4-.5 0-1.1.2-1.8.5l-.4-.7c.3-.2.7-.3 1-.4.3-.1.8-.1 1.1-.1.8 0 1.3.2 1.7.5s.6.9.6 1.6v4.4h-.7zm-2.2-.7c.6 0 1.1-.2 1.4-.5.3-.3.5-.8.5-1.4v-.6h-1c-.8 0-1.3.1-1.7.4s-.5.5-.5 1c0 .4.1.6.3.8s.6.3 1 .3z" class="st3"/>
  <path d="M-52.2 244.5h.5s.3-.1.4-.1v.7c-.1.1-.3.1-.5.1h-.6c-1.2 0-1.9-.7-1.9-2v-3.8h-.9v-.5l.9-.4.4-1.4h.6v1.5h1.9v.8h-1.9v3.8c0 .4.1.7.3.9s.5.4.8.4z" class="st3"/>
  <path d="M-44.5 236.5c.8 0 1.4.2 1.9.5s.7.9.7 1.5c0 .4-.1.8-.4 1.2s-.7.7-1.3.9c.7.3 1.2.7 1.5 1 .3.3.4.8.4 1.3 0 .7-.2 1.3-.7 1.7-.5.4-1.2.6-2 .6-.9 0-1.6-.2-2.1-.6-.5-.4-.7-1-.7-1.7 0-1 .6-1.7 1.8-2.3-.5-.3-.9-.6-1.2-1-.3-.4-.4-.7-.4-1.1 0-.6.2-1.1.7-1.5.5-.4 1-.5 1.8-.5zm-1.9 6.5c0 .5.2.8.5 1.1s.8.4 1.4.4 1-.1 1.4-.4c.4-.3.5-.6.5-1.1 0-.4-.2-.7-.5-1-.3-.3-.8-.6-1.6-.9-.6.2-1 .5-1.3.8s-.4.7-.4 1.1zm1.9-5.7c-.5 0-.9.1-1.1.4s-.4.5-.4.9.1.7.3.9.7.5 1.3.8c.6-.2 1-.5 1.2-.8.2-.3.3-.6.3-.9 0-.4-.1-.7-.4-.9s-.7-.4-1.2-.4z" class="st3"/>
  <path d="M-37.8 239.9c.9 0 1.6.2 2.1.7s.8 1.1.8 1.8c0 .9-.3 1.6-.8 2.1s-1.3.8-2.3.8-1.7-.2-2.2-.5v-.9c.3.2.6.3 1 .4.4.1.8.1 1.2.1.7 0 1.2-.2 1.6-.5.4-.3.6-.8.6-1.4 0-1.2-.7-1.8-2.2-1.8-.4 0-.9.1-1.5.2l-.5-.3.3-4h4.3v.9h-3.4l-.2 2.6c.3-.1.8-.2 1.2-.2z" class="st3"/>
  <path d="M-30.1 239.1c0 .9-.1 1.6-.4 2-.3.4-.7.7-1.3.7-.5 0-1-.2-1.3-.7s-.5-1.1-.5-2c0-.9.1-1.6.4-2 .3-.4.7-.7 1.3-.7.6 0 1 .2 1.3.7s.5 1.2.5 2zm-2.7 0c0 .7.1 1.2.2 1.5.1.3.4.5.7.5.6 0 1-.7 1-2s-.3-2-1-2c-.3 0-.6.2-.7.5-.1.3-.2.9-.2 1.5zm6.3-2.5l-4.8 8.6h-.9l4.8-8.6h.9zm1.6 6c0 .9-.1 1.6-.4 2-.3.4-.7.7-1.3.7-.6 0-1-.2-1.3-.7s-.4-1.1-.4-2c0-.9.1-1.6.4-2 .3-.4.7-.7 1.3-.7.6 0 1 .2 1.3.7s.4 1.1.4 2zm-2.7 0c0 .7.1 1.2.2 1.5.1.3.4.5.7.5s.6-.2.7-.5c.1-.3.2-.8.2-1.5s-.1-1.2-.2-1.5c-.1-.3-.4-.5-.7-.5s-.6.2-.7.5c-.1.3-.2.8-.2 1.5z" class="st3"/>
  <path d="M-14.6 241.9c0 1-.3 1.9-.8 2.5-.5.6-1.3.9-2.2.9-.6 0-1.1-.1-1.5-.4-.4-.3-.8-.7-1-1.2s-.4-1.1-.4-1.8c0-1 .3-1.9.8-2.4s1.2-.9 2.2-.9c.9 0 1.6.3 2.1.9s.8 1.4.8 2.4zm-4.9 0c0 .8.2 1.4.5 1.9s.8.6 1.4.6 1.1-.2 1.5-.6c.4-.4.5-1.1.5-1.9 0-.8-.2-1.4-.5-1.9s-.8-.6-1.5-.6c-.6 0-1.1.2-1.4.6s-.5 1.1-.5 1.9z" class="st3"/>
  <path d="M-10 239.5h-1.6v5.7h-1v-5.7h-1.1v-.4l1.1-.4v-.4c0-1.6.7-2.4 2.1-2.4.3 0 .7.1 1.2.2l-.3.8c-.4-.1-.7-.2-1-.2-.4 0-.6.1-.8.4-.2.3-.3.6-.3 1.2v.4h1.6v.8h.1z" class="st3"/>
  <path d="M-4.8 245.2h-1v-9.1h1v9.1z" class="st3"/>
  <path d="M0 245.3c-.9 0-1.7-.3-2.2-.9-.5-.6-.8-1.4-.8-2.4s.3-1.9.8-2.5 1.2-.9 2.1-.9c.8 0 1.4.3 1.9.8s.7 1.2.7 2.1v.6h-4.4c0 .8.2 1.3.6 1.7.4.4.9.6 1.5.6.7 0 1.4-.1 2.1-.4v.9c-.3.1-.7.3-1 .3s-.9.1-1.3.1zm-.3-5.9c-.5 0-.9.2-1.2.5-.3.3-.5.8-.5 1.4h3.4c0-.6-.1-1.1-.4-1.4-.3-.3-.8-.5-1.3-.5z" class="st3"/>
  <path d="M6.9 239.5H5.3v5.7h-1v-5.7H3.2v-.4l1.1-.4v-.4c0-1.6.7-2.4 2.1-2.4.3 0 .7.1 1.2.2l-.3.8c-.4-.1-.7-.2-1-.2-.4 0-.6.1-.8.4-.2.3-.3.6-.3 1.2v.4h1.6v.8h.1z" class="st3"/>
  <path d="M10.2 244.5h.5s.3-.1.4-.1v.7c-.1.1-.3.1-.5.1H10c-1.2 0-1.9-.7-1.9-2v-3.8h-.9v-.5l.9-.4.4-1.4h.6v1.5H11v.8H9.1v3.8c0 .4.1.7.3.9s.4.4.8.4z" class="st3"/>
  <path d="M12.2 237c0-.2.1-.4.2-.5.1-.1.2-.2.4-.2s.3.1.4.2c.1.1.2.3.2.5s-.1.4-.2.5c-.1.1-.2.2-.4.2s-.3-.1-.4-.2c-.1-.1-.2-.3-.2-.5zm1.1 8.2h-1v-6.4h1v6.4z" class="st3"/>
  <path d="M18.1 245.3c-.9 0-1.7-.3-2.2-.9-.5-.6-.8-1.4-.8-2.4s.3-1.9.8-2.5 1.2-.9 2.1-.9c.8 0 1.4.3 1.9.8s.7 1.2.7 2.1v.6H16c0 .8.2 1.3.6 1.7.4.4.9.6 1.5.6.7 0 1.4-.1 2.1-.4v.9c-.3.1-.7.3-1 .3s-.7.1-1.1.1zm-.3-5.9c-.5 0-.9.2-1.2.5-.3.3-.5.8-.5 1.4h3.4c0-.6-.1-1.1-.4-1.4-.3-.3-.8-.5-1.3-.5z" class="st3"/>
  <path d="M26.2 243.4c0 .6-.2 1.1-.7 1.4-.5.3-1.1.5-1.9.5-.9 0-1.5-.1-2-.4v-.9c.3.2.6.3 1 .4.4.1.7.1 1 .1.5 0 .9-.1 1.2-.2.3-.1.4-.4.4-.7 0-.2-.1-.5-.3-.6-.2-.1-.6-.4-1.3-.6-.6-.2-1-.4-1.3-.6-.3-.2-.4-.4-.6-.6s-.2-.5-.2-.8c0-.5.2-.9.6-1.2s1-.5 1.8-.5c.7 0 1.4.1 2 .4l-.3.8c-.6-.3-1.2-.4-1.8-.4-.5 0-.8.1-1 .2-.2.1-.4.3-.4.6 0 .2 0 .3.1.4.1.1.2.2.4.3.2.1.6.3 1.1.5.8.3 1.3.6 1.5.8.2.2.7.7.7 1.1z" class="st3"/>
  <path d="M33.5 245.3c-.9 0-1.6-.3-2.2-.9-.6-.6-.8-1.4-.8-2.4 0-1.1.3-1.9.8-2.5s1.3-.9 2.2-.9c.3 0 .6 0 .9.1.3.1.6.1.7.2l-.3.8c-.2-.1-.4-.2-.7-.2s-.5-.1-.7-.1c-1.3 0-2 .8-2 2.5 0 .8.2 1.4.5 1.8s.8.6 1.4.6c.5 0 1.1-.1 1.6-.3v.9c-.2.3-.7.4-1.4.4z" class="st3"/>
  <path d="M42.2 241.9c0 1-.3 1.9-.8 2.5-.5.6-1.3.9-2.2.9-.6 0-1.1-.1-1.5-.4-.4-.3-.8-.7-1-1.2s-.4-1.1-.4-1.8c0-1 .3-1.9.8-2.4s1.2-.9 2.2-.9c.9 0 1.6.3 2.1.9s.8 1.4.8 2.4zm-4.9 0c0 .8.2 1.4.5 1.9s.8.6 1.4.6 1.1-.2 1.5-.6c.4-.4.5-1.1.5-1.9 0-.8-.2-1.4-.5-1.9s-.8-.6-1.5-.6c-.6 0-1.1.2-1.4.6s-.5 1.1-.5 1.9z" class="st3"/>
  <path d="M48.3 245.2V241c0-.5-.1-.9-.4-1.2-.3-.3-.6-.4-1.1-.4-.7 0-1.2.2-1.5.5s-.5 1-.5 1.8v3.5h-1v-6.4h.8l.2.9c.2-.3.5-.6.8-.7.3-.1.8-.3 1.2-.3.8 0 1.4.2 1.7.6.3.4.6 1 .6 1.8v4.1h-.8z" class="st3"/>
  <path d="M55.4 243.4c0 .6-.2 1.1-.7 1.4-.5.3-1.1.5-1.9.5-.9 0-1.5-.1-2-.4v-.9c.3.2.6.3 1 .4.4.1.7.1 1 .1.5 0 .9-.1 1.2-.2.3-.1.4-.4.4-.7 0-.2-.1-.5-.3-.6-.2-.1-.6-.4-1.3-.6-.6-.2-1-.4-1.3-.6-.3-.2-.4-.4-.6-.6s-.2-.5-.2-.8c0-.5.2-.9.6-1.2s1-.5 1.8-.5c.7 0 1.4.1 2 .4l-.3.8c-.6-.3-1.2-.4-1.8-.4-.5 0-.8.1-1 .2-.2.1-.4.3-.4.6 0 .2 0 .3.1.4.1.1.2.2.4.3.2.1.6.3 1.1.5.8.3 1.3.6 1.5.8.2.2.7.7.7 1.1z" class="st3"/>
  <path d="M56.9 237c0-.2.1-.4.2-.5.1-.1.2-.2.4-.2s.3.1.4.2c.1.1.2.3.2.5s-.1.4-.2.5c-.1.1-.2.2-.4.2s-.3-.1-.4-.2c-.1-.1-.2-.3-.2-.5zm1.1 8.2h-1v-6.4h1v6.4z" class="st3"/>
  <path d="M64.4 244.3c-.5.7-1.2 1-2.1 1-.8 0-1.5-.3-2-.9-.5-.6-.7-1.4-.7-2.4s.2-1.9.7-2.5 1.1-.9 2-.9 1.5.3 2 .9h.1v-3.6h1v9.3h-.8l-.2-.9zm-2 .2c.7 0 1.1-.2 1.4-.5.3-.3.4-.9.4-1.7v-.2c0-.9-.2-1.6-.5-1.9s-.8-.6-1.5-.6c-.6 0-1 .2-1.3.7s-.5 1.1-.5 1.9.2 1.4.5 1.9 1 .4 1.5.4z" class="st3"/>
  <path d="M70.1 245.3c-.9 0-1.7-.3-2.2-.9-.5-.6-.8-1.4-.8-2.4s.3-1.9.8-2.5 1.2-.9 2.1-.9c.8 0 1.4.3 1.9.8s.7 1.2.7 2.1v.6H68c0 .8.2 1.3.6 1.7.4.4.9.6 1.5.6.7 0 1.4-.1 2.1-.4v.9c-.3.1-.7.3-1 .3s-.7.1-1.1.1zm-.3-5.9c-.5 0-.9.2-1.2.5-.3.3-.5.8-.5 1.4h3.4c0-.6-.1-1.1-.4-1.4-.3-.3-.8-.5-1.3-.5z" class="st3"/>
  <path d="M77 238.6c.3 0 .5 0 .8.1l-.1.9c-.3-.1-.5-.1-.7-.1-.5 0-1 .2-1.3.6-.3.4-.6.9-.6 1.6v3.5h-1v-6.4h.8l.1 1.2c.2-.4.5-.7.9-1s.7-.4 1.1-.4z" class="st3"/>
  <path d="M81.7 245.3c-.9 0-1.7-.3-2.2-.9-.5-.6-.8-1.4-.8-2.4s.3-1.9.8-2.5 1.2-.9 2.1-.9c.8 0 1.4.3 1.9.8s.7 1.2.7 2.1v.6h-4.4c0 .8.2 1.3.6 1.7.4.4.9.6 1.5.6.7 0 1.4-.1 2.1-.4v.9c-.3.1-.7.3-1 .3s-.8.1-1.3.1zm-.2-5.9c-.5 0-.9.2-1.2.5-.3.3-.5.8-.5 1.4h3.4c0-.6-.1-1.1-.4-1.4-.3-.3-.8-.5-1.3-.5z" class="st3"/>
  <path d="M90.1 244.3c-.5.7-1.2 1-2.1 1-.8 0-1.5-.3-2-.9-.5-.6-.7-1.4-.7-2.4s.2-1.9.7-2.5 1.1-.9 2-.9 1.5.3 2 .9h.1v-3.6h1v9.3h-.8l-.2-.9zm-1.9.2c.7 0 1.1-.2 1.4-.5.3-.3.4-.9.4-1.7v-.2c0-.9-.2-1.6-.5-1.9s-.8-.6-1.5-.6c-.6 0-1 .2-1.3.7s-.5 1.1-.5 1.9.2 1.4.5 1.9.9.4 1.5.4z" class="st3"/>
  <path d="M-107 258.9h.5s.3-.1.4-.1v.7c-.1.1-.3.1-.5.1h-.6c-1.2 0-1.9-.7-1.9-2v-3.8h-.9v-.5l.9-.4.4-1.4h.7v1.5h1.9v.8h-1.9v3.8c0 .4.1.7.3.9.2.2.4.4.7.4z" class="st3"/>
  <path d="M-100.4 259.6v-4.2c0-.5-.1-.9-.4-1.2s-.6-.4-1.1-.4c-.7 0-1.2.2-1.5.6s-.5 1-.5 1.8v3.4h-1v-9.1h1v3.5h.1c.2-.3.5-.6.8-.7.3-.1.8-.3 1.2-.3.8 0 1.4.2 1.8.6.4.4.6 1 .6 1.8v4.2h-1z" class="st3"/>
  <path d="M-94.7 259.7c-.9 0-1.7-.3-2.2-.9s-.8-1.4-.8-2.4.3-1.9.8-2.5 1.2-.9 2.1-.9c.8 0 1.4.3 1.9.8s.7 1.2.7 2.1v.6h-4.4c0 .8.2 1.3.6 1.7.4.4.9.6 1.5.6.7 0 1.4-.1 2.1-.4v.9c-.3.1-.7.3-1 .3-.3 0-.9.1-1.3.1zm-.3-5.9c-.5 0-.9.2-1.2.5-.3.3-.5.8-.5 1.4h3.4c0-.6-.1-1.1-.4-1.4-.3-.3-.8-.5-1.3-.5z" class="st3"/>
  <path d="M-82.5 259.6v-4.2c0-.5-.1-.9-.3-1.2-.2-.3-.6-.4-1-.4-.6 0-1.1.2-1.3.5-.2.3-.4.9-.4 1.6v3.6h-1v-4.2c0-.5-.1-.9-.3-1.2-.2-.3-.6-.4-1-.4-.6 0-1.1.2-1.3.5-.2.3-.4 1-.4 1.8v3.4h-1V253h.8l.2.9c.2-.3.4-.6.8-.7.4-.1.7-.3 1.1-.3 1 0 1.7.4 2 1.1.2-.3.5-.6.8-.8.3-.2.8-.3 1.2-.3.7 0 1.3.2 1.6.6.3.4.5 1 .5 1.8v4.2h-1v.1z" class="st3"/>
  <path d="M-75.4 257.8c0 .6-.2 1.1-.7 1.4-.5.3-1.1.5-1.9.5-.9 0-1.5-.1-2-.4v-.9c.3.2.6.3 1 .4.4.1.7.1 1 .1.5 0 .9-.1 1.2-.2s.4-.4.4-.7c0-.2-.1-.5-.3-.6-.2-.1-.6-.4-1.3-.6-.6-.2-1-.4-1.3-.6-.3-.2-.4-.4-.6-.6-.2-.2-.1-.6-.1-.9 0-.5.2-.9.6-1.2.4-.3 1-.5 1.8-.5.7 0 1.4.1 2 .4l-.3.8c-.6-.3-1.2-.4-1.8-.4-.5 0-.8.1-1 .2-.2.1-.3.4-.3.6 0 .2 0 .3.1.4s.2.2.4.3c.2.1.6.3 1.1.5.8.3 1.3.6 1.5.8.2.2.5.8.5 1.2z" class="st3"/>
  <path d="M-71.1 259.7c-.9 0-1.7-.3-2.2-.9s-.8-1.4-.8-2.4.3-1.9.8-2.5 1.2-.9 2.1-.9c.8 0 1.4.3 1.9.8s.7 1.2.7 2.1v.6H-73c0 .8.2 1.3.6 1.7s.9.6 1.5.6c.7 0 1.4-.1 2.1-.4v.9c-.3.1-.7.3-1 .3s-.9.1-1.3.1zm-.3-5.9c-.5 0-.9.2-1.2.5-.3.3-.5.8-.5 1.4h3.4c0-.6-.1-1.1-.4-1.4-.3-.3-.8-.5-1.3-.5z" class="st3"/>
  <path d="M-66.1 259.6h-1v-9.1h1v9.1z" class="st3"/>
  <path d="M-62.6 259.6l-2.4-6.4h1l1.4 3.8c.3.9.5 1.5.6 1.7 0-.2.2-.6.4-1.3.2-.7.7-2.1 1.5-4.3h1l-2.4 6.4h-1.1v.1z" class="st3"/>
  <path d="M-55.3 259.7c-.9 0-1.7-.3-2.2-.9s-.8-1.4-.8-2.4.3-1.9.8-2.5 1.2-.9 2.1-.9c.8 0 1.4.3 1.9.8s.7 1.2.7 2.1v.6h-4.4c0 .8.2 1.3.6 1.7s.9.6 1.5.6c.7 0 1.4-.1 2.1-.4v.9c-.3.1-.7.3-1 .3s-.9.1-1.3.1zm-.3-5.9c-.5 0-.9.2-1.2.5-.3.3-.5.8-.5 1.4h3.3c0-.6-.1-1.1-.4-1.4-.3-.3-.7-.5-1.2-.5z" class="st3"/>
  <path d="M-47.2 257.8c0 .6-.2 1.1-.7 1.4-.5.3-1.1.5-1.9.5-.9 0-1.5-.1-2-.4v-.9c.3.2.6.3 1 .4s.7.1 1 .1c.5 0 .9-.1 1.2-.2s.4-.4.4-.7c0-.2-.1-.5-.3-.6s-.6-.4-1.3-.6c-.6-.2-1-.4-1.3-.6-.3-.2-.4-.4-.6-.6-.2-.2-.2-.5-.2-.8 0-.5.2-.9.6-1.2.4-.3 1-.5 1.8-.5.7 0 1.4.1 2 .4l-.1.7c-.6-.3-1.2-.4-1.8-.4-.5 0-.8.1-1 .2s-.4.3-.4.6c0 .2 0 .3.1.4s.2.2.4.3c.2.1.6.3 1.1.5.8.3 1.3.6 1.5.8.2.2.5.8.5 1.2z" class="st3"/>
  <path d="M-34.3 259.6v-4.2c0-.5-.1-.9-.3-1.2s-.6-.4-1-.4c-.6 0-1.1.2-1.3.5-.2.3-.4.9-.4 1.6v3.6h-1v-4.2c0-.5-.1-.9-.3-1.2s-.6-.4-1-.4c-.6 0-1.1.2-1.3.5-.2.3-.4 1-.4 1.8v3.4h-1V253h.8l.2.9c.2-.3.4-.6.8-.7.4-.1.7-.3 1.1-.3 1 0 1.7.4 2 1.1.2-.3.5-.6.8-.8.3-.2.8-.3 1.2-.3.7 0 1.3.2 1.6.6.3.4.5 1 .5 1.8v4.2h-1v.1z" class="st3"/>
  <path d="M-25.8 256.3c0 1-.3 1.9-.8 2.5-.5.6-1.3.9-2.2.9-.6 0-1.1-.1-1.5-.4-.4-.3-.8-.7-1-1.2s-.4-1.1-.4-1.8c0-1 .3-1.9.8-2.4s1.2-.9 2.2-.9c.9 0 1.6.3 2.1.9s.8 1.4.8 2.4zm-4.9 0c0 .8.2 1.4.5 1.9s.8.6 1.4.6 1.1-.2 1.5-.6c.4-.4.5-1.1.5-1.9 0-.8-.2-1.4-.5-1.9s-.8-.6-1.5-.6c-.6 0-1.1.2-1.4.6s-.5 1.1-.5 1.9z" class="st3"/>
  <path d="M-21.1 253c.3 0 .5 0 .8.1l-.1.9c-.3-.1-.5-.1-.7-.1-.5 0-1 .2-1.3.6s-.6.9-.6 1.6v3.4h-1v-6.4h.8l.1 1.2c.2-.4.5-.7.9-1 .4-.3.7-.3 1.1-.3z" class="st3"/>
  <path d="M-16.4 259.7c-.9 0-1.7-.3-2.2-.9s-.8-1.4-.8-2.4.3-1.9.8-2.5 1.2-.9 2.1-.9c.8 0 1.4.3 1.9.8s.7 1.2.7 2.1v.6h-4.4c0 .8.2 1.3.6 1.7s.9.6 1.5.6c.7 0 1.4-.1 2.1-.4v.9c-.3.1-.7.3-1 .3s-.9.1-1.3.1zm-.3-5.9c-.5 0-.9.2-1.2.5-.3.3-.5.8-.5 1.4h3.4c0-.6-.1-1.1-.4-1.4-.3-.3-.8-.5-1.3-.5z" class="st3"/>
  <path d="M-5.4 259.6l-.2-.9c-.3.4-.6.7-1 .8s-.7.2-1.2.2c-.6 0-1.1-.2-1.5-.5-.4-.3-.5-.8-.5-1.4 0-1.3 1-2 3.1-2h1.1v-.4c0-.5-.1-.9-.3-1.1-.2-.2-.6-.4-1-.4-.5 0-1.1.2-1.8.5l-.3-.7c.3-.2.7-.3 1-.4s.8-.1 1.1-.1c.8 0 1.3.2 1.7.5s.6.9.6 1.6v4.4l-.8-.1zm-2.2-.7c.6 0 1.1-.2 1.4-.5.3-.3.5-.8.5-1.4v-.6h-1c-.8 0-1.3.1-1.7.4-.4.3-.5.5-.5 1 0 .4.1.6.3.8.2.2.7.3 1 .3z" class="st3"/>
  <path d="M2.6 259.6l-1.2-3.8c-.1-.2-.2-.8-.4-1.6-.2.7-.3 1.2-.4 1.6l-1.2 3.8h-1.1l-1.8-6.4h1c.4 1.6.7 2.8.9 3.7s.3 1.4.4 1.7c0-.2.1-.5.2-.9s.2-.6.2-.8l1.2-3.7h1.1l1.1 3.7c.2.7.4 1.2.4 1.7 0-.1.1-.4.1-.7 0-.3.5-1.9 1.2-4.7h1l-1.8 6.4h-.9z" class="st3"/>
  <path d="M7.7 256.3c.2-.2.4-.6.8-.9l2.1-2.2h1.2l-2.6 2.7 2.8 3.7h-1.2l-2.3-3-.7.6v2.4h-1v-9.1h1v4.8c-.1.2-.2.5-.1 1z" class="st3"/>
  <path d="M18.2 259.6l-1.2-3.8c-.1-.2-.2-.8-.4-1.6-.2.7-.3 1.2-.4 1.6l-1.2 3.8h-1.1l-1.8-6.4h1c.4 1.6.7 2.8.9 3.7s.3 1.4.4 1.7c0-.2.1-.5.2-.9s.2-.6.2-.8l1.2-3.7h1.1l1.1 3.7c.2.7.4 1.2.4 1.7 0-.1.1-.4.1-.7 0-.3.5-1.9 1.2-4.7h1l-1.8 6.4h-.9z" class="st3"/>
  <path d="M26.3 259.6l-.2-.9c-.3.4-.6.7-1 .8s-.7.2-1.2.2c-.6 0-1.1-.2-1.5-.5-.4-.3-.5-.8-.5-1.4 0-1.3 1-2 3.1-2h1.1v-.4c0-.5-.1-.9-.3-1.1-.2-.2-.6-.4-1-.4-.5 0-1.1.2-1.8.5l-.3-.7c.3-.2.7-.3 1-.4s.8-.1 1.1-.1c.8 0 1.3.2 1.7.5s.6.9.6 1.6v4.4l-.8-.1zm-2.2-.7c.6 0 1.1-.2 1.4-.5.3-.3.5-.8.5-1.4v-.6h-1c-.8 0-1.3.1-1.7.4-.4.3-.5.5-.5 1 0 .4.1.6.3.8.2.2.6.3 1 .3z" class="st3"/>
  <path d="M31.9 253c.3 0 .5 0 .8.1l-.1.9c-.3-.1-.5-.1-.7-.1-.5 0-1 .2-1.3.6s-.6.9-.6 1.6v3.4h-1v-6.4h.8l.1 1.2c.2-.4.5-.7.9-1 .4-.3.7-.3 1.1-.3z" class="st3"/>
  <path d="M38.3 258.7c-.5.7-1.2 1-2.1 1-.8 0-1.5-.3-2-.9s-.7-1.4-.7-2.4.2-1.9.7-2.5 1.1-.9 2-.9 1.5.3 2 .9h.1v-3.6h1v9.1h-.8l-.2-.7zm-2 .2c.7 0 1.1-.2 1.4-.5.3-.3.4-.9.4-1.7v-.2c0-.9-.2-1.6-.5-1.9s-.8-.6-1.5-.6c-.6 0-1 .2-1.3.7s-.5 1.1-.5 1.9c0 .8.2 1.4.5 1.9s.9.4 1.5.4z" class="st3"/>
  <path d="M49.9 256.3c0 1-.3 1.9-.8 2.5-.5.6-1.3.9-2.2.9-.6 0-1.1-.1-1.5-.4-.4-.3-.8-.7-1-1.2s-.4-1.1-.4-1.8c0-1 .3-1.9.8-2.4s1.2-.9 2.2-.9c.9 0 1.6.3 2.1.9s.8 1.4.8 2.4zm-4.9 0c0 .8.2 1.4.5 1.9s.8.6 1.4.6 1.1-.2 1.5-.6c.4-.4.5-1.1.5-1.9 0-.8-.2-1.4-.5-1.9s-.8-.6-1.5-.6c-.6 0-1.1.2-1.4.6s-.5 1.1-.5 1.9z" class="st3"/>
  <path d="M54.6 253c.3 0 .5 0 .8.1l-.1.9c-.3-.1-.5-.1-.7-.1-.5 0-1 .2-1.3.6s-.6.9-.6 1.6v3.4h-1v-6.4h.8l.1 1.2c.2-.4.5-.7.9-1 .4-.3.7-.3 1.1-.3z" class="st3"/>
  <path d="M62.2 259.7c-.9 0-1.6-.3-2.2-.9s-.8-1.4-.8-2.4c0-1.1.3-1.9.8-2.5s1.3-.9 2.2-.9c.3 0 .6 0 .9.1s.6.1.7.2l-.3.8c-.2-.1-.4-.2-.7-.2s-.5-.1-.7-.1c-1.3 0-2 .8-2 2.5 0 .8.2 1.4.5 1.8.3.4.8.6 1.4.6.5 0 1.1-.1 1.6-.3v.9c-.2.3-.7.4-1.4.4z" class="st3"/>
  <path d="M66.3 259.6h-1v-9.1h1v9.1z" class="st3"/>
  <path d="M69.3 253.1v4.2c0 .5.1.9.4 1.2s.6.4 1.1.4c.7 0 1.2-.2 1.5-.6.3-.4.5-1 .5-1.8v-3.4h1v6.4H73l-.1-.9h-.1c-.2.3-.5.6-.8.7-.3.1-.8.3-1.2.3-.8 0-1.4-.2-1.8-.6s-.6-1-.6-1.8V253h.9v.1z" class="st3"/>
  <path d="M83.9 259.6v-4.2c0-.5-.1-.9-.3-1.2s-.6-.4-1-.4c-.6 0-1.1.2-1.3.5-.2.3-.4.9-.4 1.6v3.6h-1v-4.2c0-.5-.1-.9-.3-1.2s-.6-.4-1-.4c-.6 0-1.1.2-1.3.5-.2.3-.4 1-.4 1.8v3.4h-1V253h.8l.2.9c.2-.3.4-.6.8-.7.4-.1.7-.3 1.1-.3 1 0 1.7.4 2 1.1.2-.3.5-.6.8-.8.3-.2.8-.3 1.2-.3.7 0 1.3.2 1.6.6.3.4.5 1 .5 1.8v4.2h-1v.1z" class="st3"/>
  <path d="M91.1 257.8c0 .6-.2 1.1-.7 1.4-.5.3-1.1.5-1.9.5-.9 0-1.5-.1-2-.4v-.9c.3.2.6.3 1 .4s.7.1 1 .1c.5 0 .9-.1 1.2-.2s.4-.4.4-.7c0-.2-.1-.5-.3-.6s-.6-.4-1.3-.6c-.6-.2-1-.4-1.3-.6-.3-.2-.4-.4-.6-.6-.2-.2-.2-.5-.2-.8 0-.5.2-.9.6-1.2.4-.3 1-.5 1.8-.5.7 0 1.4.1 2 .4l-.3.8c-.6-.3-1.2-.4-1.8-.4-.5 0-.8.1-1 .2-.2.1-.4.3-.4.6 0 .2 0 .3.1.4.1.1.2.2.4.3.2.1.6.3 1.1.5.8.3 1.3.6 1.5.8.2.2.7.7.7 1.1z" class="st3"/>
  <path d="M91.6 253.1h1l1.4 3.7c.3.8.5 1.4.6 1.8.1-.2.2-.5.3-1s.7-2 1.6-4.5h1l-2.8 7.3c-.3.7-.6 1.2-1 1.5-.4.3-.8.5-1.3.5-.3 0-.6 0-.9-.1v-.8c.2 0 .5.1.7.1.7 0 1.1-.4 1.4-1.1l.4-.9-2.4-6.5z" class="st3"/>
  <path d="M-107 273.3h.5s.3-.1.4-.1v.7c-.1.1-.3.1-.5.1h-.6c-1.2 0-1.9-.7-1.9-2v-3.8h-.9v-.5l.9-.4.4-1.4h.7v1.5h1.9v.8h-1.9v3.8c0 .4.1.7.3.9.2.2.4.4.7.4z" class="st3"/>
  <path d="M-100.4 274v-4.2c0-.5-.1-.9-.4-1.2-.3-.3-.6-.4-1.1-.4-.7 0-1.2.2-1.5.6s-.5 1-.5 1.8v3.4h-1v-9.1h1v3.6h.1c.2-.3.5-.6.8-.7.3-.1.8-.3 1.2-.3.8 0 1.4.2 1.8.6.4.4.6 1 .6 1.8v4.2l-1-.1z" class="st3"/>
  <path d="M-93.5 274l-.2-.9c-.3.4-.6.7-1 .8-.4.1-.7.2-1.2.2-.6 0-1.1-.2-1.5-.5-.4-.3-.5-.8-.5-1.4 0-1.3 1-2 3.1-2h1.1v-.4c0-.5-.1-.9-.3-1.1-.2-.2-.6-.4-1-.4-.5 0-1.1.2-1.8.5l-.3-.7c.3-.2.7-.3 1-.4.3-.1.8-.1 1.1-.1.8 0 1.3.2 1.7.5.4.3.6.9.6 1.6v4.4l-.8-.1zm-2.2-.7c.6 0 1.1-.2 1.4-.5.3-.3.5-.8.5-1.4v-.6h-1c-.8 0-1.3.1-1.7.4-.4.3-.5.5-.5 1 0 .4.1.6.3.8.2.2.6.3 1 .3z" class="st3"/>
  <path d="M-86.4 274v-4.2c0-.5-.1-.9-.4-1.2-.3-.3-.5-.4-1-.4-.7 0-1.2.2-1.5.5-.3.3-.5 1-.5 1.8v3.4h-1v-6.4h.8l.2.9c.2-.3.5-.6.8-.7.3-.1.8-.3 1.2-.3.8 0 1.4.2 1.7.6s.6 1 .6 1.8v4.2h-.9z" class="st3"/>
  <path d="M-76.3 274l-.2-.9c-.3.4-.6.7-1 .8s-.7.2-1.2.2c-.6 0-1.1-.2-1.5-.5-.4-.3-.5-.8-.5-1.4 0-1.3 1-2 3.1-2h1.1v-.4c0-.5-.1-.9-.3-1.1-.2-.2-.6-.4-1-.4-.5 0-1.1.2-1.8.5l-.4-.8c.3-.2.7-.3 1-.4s.8-.1 1.1-.1c.8 0 1.3.2 1.7.5.4.3.6.9.6 1.6v4.4h-.7zm-2.2-.7c.6 0 1.1-.2 1.4-.5.3-.3.5-.8.5-1.4v-.6h-1c-.8 0-1.3.1-1.7.4-.4.3-.5.5-.5 1 0 .4.1.6.3.8s.6.3 1 .3z" class="st3"/>
  <path d="M-72.2 274l-2.4-6.4h1l1.4 3.8c.3.9.5 1.5.6 1.7 0-.2.2-.6.4-1.3.2-.7.7-2.1 1.5-4.3h1l-2.4 6.4h-1.1v.1z" class="st3"/>
  <path d="M-64.9 274.1c-.9 0-1.7-.3-2.2-.9-.5-.6-.9-1.4-.9-2.4s.3-1.9.8-2.5c.5-.6 1.2-.9 2.1-.9.8 0 1.4.3 1.9.8s.7 1.2.7 2.1v.6h-4.4c0 .8.2 1.3.6 1.7.4.4.9.6 1.5.6.7 0 1.4-.1 2.1-.4v.9c-.3.1-.7.3-1 .3s-.8.1-1.2.1zm-.2-5.9c-.5 0-.9.2-1.2.5-.3.3-.5.8-.5 1.4h3.4c0-.6-.1-1.1-.4-1.4-.3-.3-.8-.5-1.3-.5z" class="st3"/>
  <path d="M-57.9 267.4c.3 0 .5 0 .8.1l-.1.9c-.3-.1-.5-.1-.7-.1-.5 0-1 .2-1.3.6s-.6.9-.6 1.6v3.4h-1v-6.4h.8l.1 1.2c.2-.4.5-.7.9-1 .4-.3.7-.3 1.1-.3z" class="st3"/>
  <path d="M-52 274l-.2-.9c-.3.4-.6.7-1 .8s-.7.2-1.2.2c-.6 0-1.1-.2-1.5-.5-.4-.3-.5-.8-.5-1.4 0-1.3 1-2 3.1-2h1.1v-.4c0-.5-.1-.9-.3-1.1-.2-.2-.6-.4-1-.4-.5 0-1.1.2-1.8.5l-.3-.7c.3-.2.7-.3 1-.4s.8-.1 1.1-.1c.8 0 1.3.2 1.7.5.4.3.6.9.6 1.6v4.4l-.8-.1zm-2.2-.7c.6 0 1.1-.2 1.4-.5.3-.3.5-.8.5-1.4v-.6h-1c-.8 0-1.3.1-1.7.4-.4.3-.5.5-.5 1 0 .4.1.6.3.8s.6.3 1 .3z" class="st3"/>
  <path d="M-44 267.5v.7l-1.2.1c.1.1.2.3.3.5.1.2.1.5.1.7 0 .6-.2 1.1-.6 1.5s-1 .6-1.8.6h-.5c-.4.2-.6.5-.6.8 0 .2.1.3.2.4s.4.1.7.1h1.1c.7 0 1.2.1 1.6.4.4.3.6.7.6 1.3 0 .7-.3 1.3-.9 1.6-.6.3-1.4.6-2.5.6-.8 0-1.5-.2-1.9-.5s-.7-.8-.7-1.3c0-.4.1-.7.4-1 .3-.3.6-.5 1.1-.6-.2-.1-.3-.2-.4-.3-.1-.1-.2-.3-.2-.5s.1-.4.2-.6c.1-.2.3-.3.6-.5-.3-.1-.6-.4-.8-.7-.2-.3-.3-.7-.3-1.1 0-.7.2-1.2.6-1.6s1-.6 1.8-.6c.3 0 .6 0 .9.1h2.2v-.1zm-5.2 7.5c0 .3.1.6.4.8.3.2.7.3 1.3.3.8 0 1.4-.1 1.8-.4.4-.3.6-.6.6-1 0-.3-.1-.6-.3-.7s-.6-.2-1.2-.2h-1.2c-.4 0-.8.1-1 .3-.2.2-.4.5-.4.9zm.6-5.4c0 .4.1.8.4 1 .3.2.6.3 1.1.3.9 0 1.4-.5 1.4-1.4 0-1-.5-1.4-1.4-1.4-.5 0-.8.1-1.1.4-.3.3-.4.6-.4 1.1z" class="st3"/>
  <path d="M-40 274.1c-.9 0-1.7-.3-2.2-.9-.5-.6-.8-1.4-.8-2.4s.3-1.9.8-2.5c.5-.6 1.2-.9 2.1-.9.8 0 1.4.3 1.9.8s.7 1.2.7 2.1v.6h-4.4c0 .8.2 1.3.6 1.7.4.4.7.6 1.3.6.7 0 1.4-.1 2.1-.4v.9c-.3.1-.7.3-1 .3s-.7.1-1.1.1zm-.3-5.9c-.5 0-.9.2-1.2.5-.3.3-.5.8-.5 1.4h3.4c0-.6-.1-1.1-.4-1.4-.3-.3-.8-.5-1.3-.5z" class="st3"/>
  <path d="M-36.1 273.3c0-.3.1-.5.2-.6.1-.1.3-.2.5-.2s.4.1.5.2c.1.1.2.3.2.6s-.1.4-.2.6-.3.2-.5.2-.4-.1-.5-.2-.2-.3-.2-.6z" class="st3"/>
</svg>
