<?xml version="1.0" encoding="utf-8"?>
<!-- Generator: Adobe Illustrator 19.1.0, SVG Export Plug-In . SVG Version: 6.00 Build 0)  -->
<svg version="1.1" id="Layer_1" xmlns="http://www.w3.org/2000/svg" xmlns:xlink="http://www.w3.org/1999/xlink" x="0px" y="0px"
	 width="244.7px" height="69.8px" viewBox="-127 216.2 244.7 69.8" style="enable-background:new -127 216.2 244.7 69.8;"
	 xml:space="preserve">
<style type="text/css">
	.st0{fill:#C95145;}
	.st1{fill:#344B62;}
	.st2{fill:none;}
	.st3{fill:#FCD4BB;}
</style>
<path class="st0" d="M114.7,221.6h-238.8c-1.6,0-2.9,1.4-2.9,3v58.5c0,1.6,1.3,2.9,2.9,2.9h238.8c1.6,0,2.9-1.3,2.9-2.9v-58.5
	C117.7,223,116.3,221.6,114.7,221.6z"/>
<path class="st1" d="M109.8,216.2h-231.5c-1.6,0-2.9,1.3-2.9,2.9v58.6c0,1.6,1.3,2.9,2.9,2.9h231.5c1.6,0,2.9-1.3,2.9-2.9v-58.6
	C112.7,217.5,111.4,216.2,109.8,216.2z"/>
<g>
	<rect x="-110.1" y="221.6" class="st2" width="211.2" height="72.4"/>
	<path class="st3" d="M-103.5,230.8l-1.1-2.7h-3.4l-1.1,2.7h-1l3.4-8.6h0.8l3.4,8.6H-103.5z M-104.9,227.1l-1-2.7
		c-0.1-0.3-0.2-0.7-0.4-1.2c-0.1,0.4-0.2,0.8-0.4,1.2l-1,2.7H-104.9z"/>
	<path class="st3" d="M-94.2,229c0,0.6-0.2,1.1-0.7,1.4s-1.1,0.5-1.9,0.5c-0.9,0-1.5-0.1-2-0.4v-0.9c0.3,0.2,0.6,0.3,1,0.4
		c0.4,0.1,0.7,0.1,1,0.1c0.5,0,0.9-0.1,1.2-0.2c0.3-0.1,0.4-0.4,0.4-0.7c0-0.2-0.1-0.5-0.3-0.6c-0.2-0.1-0.6-0.4-1.3-0.6
		c-0.6-0.2-1-0.4-1.3-0.6s-0.4-0.4-0.6-0.6c-0.2-0.2-0.2-0.5-0.2-0.8c0-0.5,0.2-0.9,0.6-1.2c0.4-0.3,1-0.5,1.8-0.5
		c0.7,0,1.4,0.1,2,0.4l-0.3,0.8c-0.6-0.3-1.2-0.4-1.8-0.4c-0.5,0-0.8,0.1-1,0.2c-0.2,0.1-0.4,0.3-0.4,0.6c0,0.2,0,0.3,0.1,0.4
		c0.1,0.1,0.2,0.2,0.4,0.3c0.2,0.1,0.6,0.3,1.1,0.5c0.8,0.3,1.3,0.6,1.5,0.8S-94.2,228.6-94.2,229z"/>
	<path class="st3" d="M-91.7,224.3v4.2c0,0.5,0.1,0.9,0.4,1.2s0.6,0.4,1.1,0.4c0.7,0,1.2-0.2,1.5-0.6c0.3-0.4,0.5-1,0.5-1.8v-3.4h1
		v6.4H-88l-0.1-0.9h-0.1c-0.2,0.3-0.5,0.6-0.8,0.7c-0.3,0.1-0.8,0.3-1.2,0.3c-0.8,0-1.4-0.2-1.8-0.6c-0.4-0.4-0.6-1-0.6-1.8v-4.1
		H-91.7z"/>
	<path class="st3" d="M-82.3,224.2c0.3,0,0.5,0,0.8,0.1l-0.2,0.9c-0.3-0.1-0.5-0.1-0.7-0.1c-0.5,0-1,0.2-1.3,0.6
		c-0.3,0.4-0.6,0.9-0.6,1.6v3.4h-1v-6.4h0.8l0.1,1.2l0,0c0.2-0.4,0.5-0.7,0.9-1S-82.7,224.2-82.3,224.2z"/>
	<path class="st3" d="M-78.9,230.8l-2.4-6.4h1l1.4,3.8c0.3,0.9,0.5,1.5,0.6,1.7l0,0c0-0.2,0.2-0.6,0.4-1.3c0.2-0.7,0.7-2.1,1.5-4.3
		h1l-2.4,6.4h-1.1V230.8z"/>
	<path class="st3" d="M-71.6,230.9c-0.9,0-1.7-0.3-2.2-0.9c-0.5-0.6-0.8-1.4-0.8-2.4s0.3-1.9,0.8-2.5c0.5-0.6,1.1-0.9,1.9-0.9
		c0.8,0,1.4,0.3,1.9,0.8s0.7,1.2,0.7,2.1v0.6h-4.4c0,0.8,0.2,1.3,0.6,1.7c0.4,0.4,0.9,0.6,1.5,0.6c0.7,0,1.4-0.1,2.1-0.4v0.9
		c-0.3,0.1-0.7,0.3-1,0.3S-71.2,230.9-71.6,230.9z M-71.9,225c-0.5,0-0.9,0.2-1.2,0.5s-0.5,0.8-0.5,1.4h3.4c0-0.6-0.1-1.1-0.4-1.4
		S-71.4,225-71.9,225z"/>
	<path class="st3" d="M-68.6,224.3h1l1.4,3.7c0.3,0.8,0.5,1.4,0.6,1.8l0,0c0.1-0.2,0.2-0.5,0.3-1s0.7-2,1.6-4.5h1l-2.8,7.3
		c-0.3,0.7-0.6,1.2-1,1.5c-0.4,0.3-0.8,0.5-1.3,0.5c-0.3,0-0.6,0-0.9-0.1v-0.8c0.2,0,0.5,0.1,0.7,0.1c0.7,0,1.1-0.4,1.4-1.1l0.4-0.9
		L-68.6,224.3z"/>
	<path class="st3" d="M-55.4,224.2c0.8,0,1.5,0.3,2,0.9c0.5,0.6,0.7,1.4,0.7,2.4s-0.2,1.9-0.7,2.5c-0.5,0.6-1.1,0.9-2,0.9
		c-0.4,0-0.8-0.1-1.1-0.2c-0.3-0.1-0.6-0.4-0.9-0.7h-0.1l-0.2,0.8h-0.7v-9.2h1v2.2c0,0.5,0,0.9,0,1.3l0,0
		C-57,224.6-56.3,224.2-55.4,224.2z M-55.6,225c-0.7,0-1.1,0.2-1.4,0.6c-0.3,0.4-0.4,1-0.4,1.9c0,0.9,0.2,1.5,0.5,1.9
		c0.3,0.4,0.8,0.6,1.4,0.6s1-0.2,1.3-0.7s0.4-1.1,0.4-1.9s-0.1-1.5-0.4-1.9S-55,225-55.6,225z"/>
	<path class="st3" d="M-52.1,224.3h1l1.4,3.7c0.3,0.8,0.5,1.4,0.6,1.8l0,0c0.1-0.2,0.2-0.5,0.3-1s0.7-2,1.6-4.5h1l-2.8,7.3
		c-0.3,0.7-0.6,1.2-1,1.5c-0.4,0.3-0.8,0.5-1.3,0.5c-0.3,0-0.6,0-0.9-0.1v-0.8c0.2,0,0.5,0.1,0.7,0.1c0.7,0,1.1-0.4,1.4-1.1l0.4-0.9
		L-52.1,224.3z"/>
	<path class="st3" d="M-41.8,230.8v-8.6h1v7.7h3.8v0.9C-37,230.8-41.8,230.8-41.8,230.8z"/>
	<path class="st3" d="M-33,230.9c-0.9,0-1.7-0.3-2.2-0.9c-0.5-0.6-0.8-1.4-0.8-2.4s0.3-1.9,0.8-2.5c0.5-0.6,1.2-0.9,2.1-0.9
		c0.8,0,1.4,0.3,1.9,0.8s0.7,1.2,0.7,2.1v0.6H-35c0,0.8,0.2,1.3,0.6,1.7c0.4,0.4,0.9,0.6,1.5,0.6c0.7,0,1.4-0.1,2.1-0.4v0.9
		c-0.3,0.1-0.7,0.3-1,0.3S-32.5,230.9-33,230.9z M-33.2,225c-0.5,0-0.9,0.2-1.2,0.5s-0.5,0.8-0.5,1.4h3.4c0-0.6-0.1-1.1-0.4-1.4
		S-32.7,225-33.2,225z"/>
	<path class="st3" d="M-26.1,225.1h-1.6v5.7h-1v-5.7h-1.1v-0.4l1.1-0.4v-0.4c0-1.6,0.7-2.4,2.1-2.4c0.3,0,0.7,0.1,1.2,0.2l-0.3,0.8
		c-0.4-0.1-0.7-0.2-1-0.2c-0.4,0-0.6,0.1-0.8,0.4s-0.3,0.6-0.3,1.2v0.4h1.6v0.8H-26.1z"/>
	<path class="st3" d="M-22.8,230.1c0.2,0,0.3,0,0.5,0s0.3-0.1,0.4-0.1v0.7c-0.1,0.1-0.3,0.1-0.5,0.1s-0.4,0-0.6,0
		c-1.2,0-1.9-0.7-1.9-2v-3.7h-0.9v-0.5l0.9-0.4l0.4-1.4h0.6v1.5h1.9v0.8h-1.9v3.8c0,0.4,0.1,0.7,0.3,0.9
		C-23.4,230-23.1,230.1-22.8,230.1z"/>
	<path class="st3" d="M-16.3,230.8v-4.2c0-0.5-0.1-0.9-0.4-1.2s-0.6-0.4-1.1-0.4c-0.7,0-1.2,0.2-1.5,0.6c-0.3,0.4-0.5,1-0.5,1.8v3.4
		h-1v-9.2h1v2.8c0,0.3,0,0.6,0,0.8h0.1c0.2-0.3,0.5-0.6,0.8-0.7c0.3-0.1,0.8-0.3,1.2-0.3c0.8,0,1.4,0.2,1.8,0.6
		c0.4,0.4,0.6,1,0.6,1.8v4.2H-16.3z"/>
	<path class="st3" d="M-9.3,230.8l-0.2-0.9l0,0c-0.3,0.4-0.6,0.7-1,0.8s-0.7,0.2-1.2,0.2c-0.6,0-1.1-0.2-1.5-0.5s-0.5-0.8-0.5-1.4
		c0-1.3,1-2,3.1-2h1.1v-0.4c0-0.5-0.1-0.9-0.3-1.1s-0.6-0.4-1-0.4c-0.5,0-1.1,0.2-1.8,0.5l-0.4-0.8c0.3-0.2,0.7-0.3,1-0.4
		c0.3-0.1,0.8-0.1,1.1-0.1c0.8,0,1.3,0.2,1.7,0.5c0.4,0.3,0.6,0.9,0.6,1.6v4.4H-9.3z M-11.5,230.1c0.6,0,1.1-0.2,1.4-0.5
		c0.3-0.3,0.5-0.8,0.5-1.4v-0.6h-1c-0.8,0-1.3,0.1-1.7,0.4c-0.4,0.3-0.5,0.5-0.5,1c0,0.4,0.1,0.6,0.3,0.8
		C-12.3,230-11.9,230.1-11.5,230.1z"/>
	<path class="st3" d="M-2.2,230.8v-4.2c0-0.5-0.1-0.9-0.4-1.2s-0.6-0.4-1.1-0.4c-0.7,0-1.2,0.2-1.5,0.5s-0.5,1-0.5,1.8v3.4h-1v-6.4
		h0.8l0.2,0.9l0,0c0.2-0.3,0.5-0.6,0.8-0.7c0.3-0.1,0.9-0.3,1.3-0.3c0.8,0,1.4,0.2,1.7,0.6c0.3,0.4,0.6,1,0.6,1.8v4.2H-2.2z"/>
	<path class="st3" d="M5.1,229.9L5.1,229.9c-0.5,0.7-1.2,1-2.1,1c-0.8,0-1.5-0.3-2-0.9c-0.5-0.6-0.7-1.4-0.7-2.4s0.2-1.9,0.7-2.5
		c0.5-0.6,1.1-0.9,2-0.9s1.5,0.3,2,0.9h0.1v-0.5v-0.5v-2.5h1v9.1H5.3L5.1,229.9z M3.2,230.1c0.7,0,1.1-0.2,1.4-0.5
		c0.3-0.3,0.4-0.9,0.4-1.7v-0.2c0-0.9-0.2-1.6-0.5-1.9c-0.3-0.3-0.8-0.6-1.5-0.6c-0.6,0-1,0.2-1.3,0.7s-0.5,1.1-0.5,1.9
		c0,0.8,0.2,1.4,0.5,1.9S2.6,230.1,3.2,230.1z"/>
	<path class="st3" d="M10.8,230.9c-0.9,0-1.7-0.3-2.2-0.9c-0.5-0.6-0.8-1.4-0.8-2.4s0.3-1.9,0.8-2.5c0.5-0.6,1.2-0.9,2.1-0.9
		c0.8,0,1.4,0.3,1.9,0.8s0.7,1.2,0.7,2.1v0.6H8.9c0,0.8,0.2,1.3,0.6,1.7c0.4,0.4,0.9,0.6,1.5,0.6c0.7,0,1.4-0.1,2.1-0.4v0.9
		c-0.3,0.1-0.7,0.3-1,0.3S11.3,230.9,10.8,230.9z M10.6,225c-0.5,0-0.9,0.2-1.2,0.5s-0.5,0.8-0.5,1.4h3.4c0-0.6-0.1-1.1-0.4-1.4
		S11.1,225,10.6,225z"/>
	<path class="st3" d="M17.8,224.2c0.3,0,0.5,0,0.8,0.1l-0.2,0.9c-0.3-0.1-0.5-0.1-0.7-0.1c-0.5,0-1,0.2-1.3,0.6s-0.6,0.9-0.6,1.6
		v3.4h-1v-6.4h0.8l0.1,1.2l0,0c0.2-0.4,0.5-0.7,0.9-1S17.4,224.2,17.8,224.2z"/>
	<path class="st3" d="M23.9,229c0,0.6-0.2,1.1-0.7,1.4s-1.1,0.5-1.9,0.5c-0.9,0-1.5-0.1-2-0.4v-0.9c0.3,0.2,0.6,0.3,1,0.4
		c0.4,0.1,0.7,0.1,1,0.1c0.5,0,0.9-0.1,1.2-0.2c0.3-0.1,0.4-0.4,0.4-0.7c0-0.2-0.1-0.5-0.3-0.6c-0.2-0.1-0.6-0.4-1.3-0.6
		c-0.6-0.2-1-0.4-1.3-0.6s-0.4-0.4-0.6-0.6c-0.2-0.2-0.2-0.5-0.2-0.8c0-0.5,0.2-0.9,0.6-1.2c0.4-0.3,1-0.5,1.8-0.5
		c0.7,0,1.4,0.1,2,0.4l-0.3,0.8c-0.6-0.3-1.2-0.4-1.8-0.4c-0.5,0-0.8,0.1-1,0.2c-0.2,0.1-0.4,0.3-0.4,0.6c0,0.2,0,0.3,0.1,0.4
		c0.1,0.1,0.2,0.2,0.4,0.3c0.2,0.1,0.6,0.3,1.1,0.5c0.8,0.3,1.3,0.6,1.5,0.8S23.9,228.6,23.9,229z"/>
	<path class="st3" d="M29.8,229.9L29.8,229.9c-0.5,0.7-1.2,1-2.1,1c-0.8,0-1.5-0.3-2-0.9c-0.5-0.6-0.7-1.4-0.7-2.4s0.2-1.9,0.7-2.5
		c0.5-0.6,1.1-0.9,2-0.9s1.5,0.3,2,0.9h0.1v-0.5v-0.5v-2.5h1v9.1H30L29.8,229.9z M27.9,230.1c0.7,0,1.1-0.2,1.4-0.5
		c0.3-0.3,0.4-0.9,0.4-1.7v-0.2c0-0.9-0.2-1.6-0.5-1.9c-0.3-0.3-0.8-0.6-1.5-0.6c-0.6,0-1,0.2-1.3,0.7s-0.5,1.1-0.5,1.9
		c0,0.8,0.2,1.4,0.5,1.9S27.3,230.1,27.9,230.1z"/>
	<path class="st3" d="M36.8,230.8l-0.2-0.9l0,0c-0.3,0.4-0.6,0.7-1,0.8s-0.7,0.2-1.2,0.2c-0.6,0-1.1-0.2-1.5-0.5s-0.5-0.8-0.5-1.4
		c0-1.3,1-2,3.1-2h1.1v-0.4c0-0.5-0.1-0.9-0.3-1.1s-0.6-0.4-1-0.4c-0.5,0-1.1,0.2-1.8,0.5l-0.3-0.7c0.3-0.2,0.7-0.3,1-0.4
		s0.8-0.1,1.1-0.1c0.8,0,1.3,0.2,1.7,0.5c0.4,0.3,0.6,0.9,0.6,1.6v4.4L36.8,230.8L36.8,230.8z M34.6,230.1c0.6,0,1.1-0.2,1.4-0.5
		c0.3-0.3,0.5-0.8,0.5-1.4v-0.6h-1c-0.8,0-1.3,0.1-1.7,0.4c-0.4,0.3-0.5,0.5-0.5,1c0,0.4,0.1,0.6,0.3,0.8
		C33.8,230,34.2,230.1,34.6,230.1z"/>
	<path class="st3" d="M38.5,224.3h1l1.4,3.7c0.3,0.8,0.5,1.4,0.6,1.8l0,0c0.1-0.2,0.2-0.5,0.3-1s0.7-2,1.6-4.5h1l-2.8,7.3
		c-0.3,0.7-0.6,1.2-1,1.5c-0.4,0.3-0.8,0.5-1.3,0.5c-0.3,0-0.6,0-0.9-0.1v-0.8c0.2,0,0.5,0.1,0.7,0.1c0.7,0,1.1-0.4,1.4-1.1l0.4-0.9
		L38.5,224.3z"/>
	<path class="st3" d="M45.4,230.1c0-0.3,0.1-0.5,0.2-0.6c0.1-0.1,0.3-0.2,0.5-0.2s0.4,0.1,0.5,0.2c0.1,0.1,0.2,0.3,0.2,0.6
		c0,0.3-0.1,0.4-0.2,0.6s-0.3,0.2-0.5,0.2s-0.4-0.1-0.5-0.2S45.4,230.4,45.4,230.1z"/>
	<path class="st3" d="M51.3,230.9c-0.9,0-1.6-0.3-2.2-0.9c-0.6-0.6-0.8-1.4-0.8-2.4c0-1.1,0.3-1.9,0.8-2.5c0.5-0.6,1.3-0.9,2.2-0.9
		c0.3,0,0.6,0,0.9,0.1c0.3,0.1,0.6,0.1,0.7,0.2l-0.3,0.8c-0.1,0-0.3-0.1-0.6-0.1s-0.5-0.1-0.7-0.1c-1.3,0-2,0.8-2,2.5
		c0,0.8,0.2,1.4,0.5,1.8c0.3,0.4,0.8,0.6,1.4,0.6c0.5,0,1.1-0.1,1.6-0.3v0.9C52.5,230.8,51.9,230.9,51.3,230.9z"/>
	<path class="st3" d="M60,227.5c0,1-0.3,1.9-0.8,2.5c-0.5,0.6-1.3,0.9-2.2,0.9c-0.6,0-1.1-0.1-1.5-0.4s-0.8-0.7-1-1.2
		s-0.4-1.1-0.4-1.8c0-1,0.3-1.9,0.8-2.4s1.2-0.9,2.1-0.9s1.6,0.3,2.1,0.9C59.6,225.7,60,226.5,60,227.5z M55.1,227.5
		c0,0.8,0.2,1.4,0.5,1.9s0.8,0.6,1.4,0.6s1.1-0.2,1.5-0.6c0.4-0.4,0.5-1.1,0.5-1.9s-0.2-1.4-0.5-1.9S57.7,225,57,225
		c-0.6,0-1.1,0.2-1.4,0.6C55.3,226,55.1,226.7,55.1,227.5z"/>
	<path class="st3" d="M69.9,230.8v-4.2c0-0.5-0.1-0.9-0.3-1.2s-0.6-0.4-1-0.4c-0.6,0-1.1,0.2-1.3,0.5s-0.4,0.9-0.4,1.6v3.6h-1v-4.2
		c0-0.5-0.1-0.9-0.3-1.2s-0.6-0.4-1-0.4c-0.6,0-1.1,0.2-1.3,0.5c-0.2,0.3-0.4,1-0.4,1.8v3.4h-1v-6.3h0.8l0.2,0.9l0,0
		c0.2-0.3,0.4-0.6,0.8-0.7c0.4-0.1,0.7-0.3,1.1-0.3c1,0,1.7,0.4,2,1.1l0,0c0.2-0.3,0.5-0.6,0.8-0.8s0.8-0.3,1.2-0.3
		c0.7,0,1.3,0.2,1.6,0.6c0.3,0.4,0.5,1,0.5,1.8v4.2H69.9z"/>
	<path class="st3" d="M-106.1,239.5h-1.6v5.7h-1v-5.7h-1.1v-0.4l1.1-0.4v-0.4c0-1.6,0.7-2.4,2.1-2.4c0.3,0,0.7,0.1,1.2,0.2l-0.3,0.8
		c-0.4-0.1-0.7-0.2-1-0.2c-0.4,0-0.6,0.1-0.8,0.4c-0.2,0.3-0.3,0.6-0.3,1.2v0.4h1.6L-106.1,239.5L-106.1,239.5z"/>
	<path class="st3" d="M-99.4,241.9c0,1-0.3,1.9-0.8,2.5c-0.5,0.6-1.3,0.9-2.2,0.9c-0.6,0-1.1-0.1-1.5-0.4c-0.4-0.3-0.8-0.7-1-1.2
		s-0.4-1.1-0.4-1.8c0-1,0.3-1.9,0.8-2.4s1.2-0.9,2.2-0.9c0.9,0,1.6,0.3,2.1,0.9S-99.4,240.9-99.4,241.9z M-104.3,241.9
		c0,0.8,0.2,1.4,0.5,1.9c0.3,0.5,0.8,0.6,1.4,0.6c0.6,0,1.1-0.2,1.5-0.6c0.4-0.4,0.5-1.1,0.5-1.9c0-0.8-0.2-1.4-0.5-1.9
		c-0.3-0.5-0.8-0.6-1.5-0.6c-0.6,0-1.1,0.2-1.4,0.6S-104.3,241.1-104.3,241.9z"/>
	<path class="st3" d="M-96.8,238.7v4.2c0,0.5,0.1,0.9,0.4,1.2c0.3,0.3,0.6,0.4,1.1,0.4c0.7,0,1.2-0.2,1.5-0.6c0.3-0.4,0.5-1,0.5-1.8
		v-3.4h1v6.5h-0.8l-0.1-0.9h-0.1c-0.2,0.3-0.5,0.6-0.8,0.7c-0.3,0.1-0.8,0.3-1.2,0.3c-0.8,0-1.4-0.2-1.8-0.6c-0.4-0.4-0.6-1-0.6-1.8
		v-4.2H-96.8z"/>
	<path class="st3" d="M-86,245.2V241c0-0.5-0.1-0.9-0.4-1.2c-0.3-0.3-0.6-0.4-1.1-0.4c-0.7,0-1.2,0.2-1.5,0.5s-0.5,1-0.5,1.8v3.5h-1
		v-6.4h0.8l0.2,0.9l0,0c0.2-0.3,0.5-0.6,0.8-0.7c0.3-0.1,0.8-0.3,1.2-0.3c0.8,0,1.4,0.2,1.7,0.6c0.3,0.4,0.6,1,0.6,1.8v4.1H-86z"/>
	<path class="st3" d="M-78.6,244.3L-78.6,244.3c-0.5,0.7-1.2,1-2.1,1c-0.8,0-1.5-0.3-2-0.9c-0.5-0.6-0.7-1.4-0.7-2.4
		s0.2-1.9,0.7-2.5s1.1-0.9,2-0.9s1.5,0.3,2,0.9h0.1V239v-0.5v-2.6h1v9.3h-0.8L-78.6,244.3z M-80.6,244.5c0.7,0,1.1-0.2,1.4-0.5
		c0.3-0.3,0.4-0.9,0.4-1.7v-0.2c0-0.9-0.2-1.6-0.5-1.9s-0.8-0.6-1.5-0.6c-0.6,0-1,0.2-1.3,0.7c-0.3,0.5-0.5,1.1-0.5,1.9
		s0.2,1.4,0.5,1.9C-81.8,244.6-81.2,244.5-80.6,244.5z"/>
	<path class="st3" d="M-70.5,244.5c0.2,0,0.3,0,0.5,0s0.3-0.1,0.4-0.1v0.7c-0.1,0.1-0.2,0.1-0.4,0.1s-0.4,0-0.6,0
		c-1.2,0-1.9-0.7-1.9-2v-3.8h-0.9v-0.5l0.9-0.4l0.5-1.3h0.6v1.5h1.9v0.8h-1.9v3.8c0,0.4,0.1,0.7,0.3,0.9S-70.8,244.5-70.5,244.5z"/>
	<path class="st3" d="M-63.9,245.2V241c0-0.5-0.1-0.9-0.4-1.2c-0.3-0.3-0.6-0.4-1.1-0.4c-0.7,0-1.2,0.2-1.5,0.6
		c-0.3,0.4-0.5,1-0.5,1.8v3.4h-1v-9.1h1v2.8c0,0.3,0,0.6,0,0.8h0.1c0.2-0.3,0.5-0.6,0.8-0.7c0.3-0.1,0.8-0.3,1.2-0.3
		c0.8,0,1.4,0.2,1.8,0.6c0.4,0.4,0.6,1,0.6,1.8v4.1H-63.9z"/>
	<path class="st3" d="M-57,245.2l-0.2-1l0,0c-0.3,0.4-0.6,0.7-1,0.8c-0.4,0.1-0.7,0.2-1.2,0.2c-0.6,0-1.1-0.2-1.5-0.5
		s-0.5-0.8-0.5-1.4c0-1.3,1-2,3.1-2h1.1v-0.4c0-0.5-0.1-0.9-0.3-1.1c-0.2-0.2-0.6-0.4-1-0.4c-0.5,0-1.1,0.2-1.8,0.5l-0.4-0.7
		c0.3-0.2,0.7-0.3,1-0.4c0.3-0.1,0.8-0.1,1.1-0.1c0.8,0,1.3,0.2,1.7,0.5s0.6,0.9,0.6,1.6v4.4H-57z M-59.2,244.5
		c0.6,0,1.1-0.2,1.4-0.5c0.3-0.3,0.5-0.8,0.5-1.4V242h-1c-0.8,0-1.3,0.1-1.7,0.4s-0.5,0.5-0.5,1c0,0.4,0.1,0.6,0.3,0.8
		S-59.6,244.5-59.2,244.5z"/>
	<path class="st3" d="M-52.2,244.5c0.2,0,0.3,0,0.5,0s0.3-0.1,0.4-0.1v0.7c-0.1,0.1-0.3,0.1-0.5,0.1s-0.4,0-0.6,0
		c-1.2,0-1.9-0.7-1.9-2v-3.8h-0.9v-0.5l0.9-0.4l0.4-1.4h0.6v1.5h1.9v0.8h-1.9v3.8c0,0.4,0.1,0.7,0.3,0.9S-52.5,244.5-52.2,244.5z"/>
	<path class="st3" d="M-44.5,236.5c0.8,0,1.4,0.2,1.9,0.5c0.5,0.3,0.7,0.9,0.7,1.5c0,0.4-0.1,0.8-0.4,1.2s-0.7,0.7-1.3,0.9
		c0.7,0.3,1.2,0.7,1.5,1c0.3,0.3,0.4,0.8,0.4,1.3c0,0.7-0.2,1.3-0.7,1.7c-0.5,0.4-1.2,0.6-2,0.6c-0.9,0-1.6-0.2-2.1-0.6
		c-0.5-0.4-0.7-1-0.7-1.7c0-1,0.6-1.7,1.8-2.3c-0.5-0.3-0.9-0.6-1.2-1c-0.3-0.4-0.4-0.7-0.4-1.1c0-0.6,0.2-1.1,0.7-1.5
		C-45.8,236.6-45.3,236.5-44.5,236.5z M-46.4,243c0,0.5,0.2,0.8,0.5,1.1s0.8,0.4,1.4,0.4s1-0.1,1.4-0.4c0.4-0.3,0.5-0.6,0.5-1.1
		c0-0.4-0.2-0.7-0.5-1c-0.3-0.3-0.8-0.6-1.6-0.9c-0.6,0.2-1,0.5-1.3,0.8S-46.4,242.6-46.4,243z M-44.5,237.3c-0.5,0-0.9,0.1-1.1,0.4
		s-0.4,0.5-0.4,0.9c0,0.4,0.1,0.7,0.3,0.9s0.7,0.5,1.3,0.8c0.6-0.2,1-0.5,1.2-0.8c0.2-0.3,0.3-0.6,0.3-0.9c0-0.4-0.1-0.7-0.4-0.9
		S-44,237.3-44.5,237.3z"/>
	<path class="st3" d="M-37.8,239.9c0.9,0,1.6,0.2,2.1,0.7s0.8,1.1,0.8,1.8c0,0.9-0.3,1.6-0.8,2.1s-1.3,0.8-2.3,0.8s-1.7-0.2-2.2-0.5
		v-0.9c0.3,0.2,0.6,0.3,1,0.4c0.4,0.1,0.8,0.1,1.2,0.1c0.7,0,1.2-0.2,1.6-0.5c0.4-0.3,0.6-0.8,0.6-1.4c0-1.2-0.7-1.8-2.2-1.8
		c-0.4,0-0.9,0.1-1.5,0.2l-0.5-0.3l0.3-4h4.3v0.9h-3.4l-0.2,2.6C-38.7,240-38.2,239.9-37.8,239.9z"/>
	<path class="st3" d="M-30.1,239.1c0,0.9-0.1,1.6-0.4,2c-0.3,0.4-0.7,0.7-1.3,0.7c-0.5,0-1-0.2-1.3-0.7s-0.5-1.1-0.5-2
		c0-0.9,0.1-1.6,0.4-2c0.3-0.4,0.7-0.7,1.3-0.7c0.6,0,1,0.2,1.3,0.7S-30.1,238.3-30.1,239.1z M-32.8,239.1c0,0.7,0.1,1.2,0.2,1.5
		c0.1,0.3,0.4,0.5,0.7,0.5c0.6,0,1-0.7,1-2c0-1.3-0.3-2-1-2c-0.3,0-0.6,0.2-0.7,0.5C-32.7,237.9-32.8,238.5-32.8,239.1z
		 M-26.5,236.6l-4.8,8.6h-0.9l4.8-8.6H-26.5z M-24.9,242.6c0,0.9-0.1,1.6-0.4,2c-0.3,0.4-0.7,0.7-1.3,0.7c-0.6,0-1-0.2-1.3-0.7
		s-0.4-1.1-0.4-2c0-0.9,0.1-1.6,0.4-2c0.3-0.4,0.7-0.7,1.3-0.7c0.6,0,1,0.2,1.3,0.7S-24.9,241.7-24.9,242.6z M-27.6,242.6
		c0,0.7,0.1,1.2,0.2,1.5c0.1,0.3,0.4,0.5,0.7,0.5s0.6-0.2,0.7-0.5c0.1-0.3,0.2-0.8,0.2-1.5c0-0.7-0.1-1.2-0.2-1.5
		c-0.1-0.3-0.4-0.5-0.7-0.5s-0.6,0.2-0.7,0.5C-27.5,241.4-27.6,241.9-27.6,242.6z"/>
	<path class="st3" d="M-14.6,241.9c0,1-0.3,1.9-0.8,2.5c-0.5,0.6-1.3,0.9-2.2,0.9c-0.6,0-1.1-0.1-1.5-0.4c-0.4-0.3-0.8-0.7-1-1.2
		s-0.4-1.1-0.4-1.8c0-1,0.3-1.9,0.8-2.4s1.2-0.9,2.2-0.9c0.9,0,1.6,0.3,2.1,0.9S-14.6,240.9-14.6,241.9z M-19.5,241.9
		c0,0.8,0.2,1.4,0.5,1.9s0.8,0.6,1.4,0.6s1.1-0.2,1.5-0.6c0.4-0.4,0.5-1.1,0.5-1.9c0-0.8-0.2-1.4-0.5-1.9s-0.8-0.6-1.5-0.6
		c-0.6,0-1.1,0.2-1.4,0.6S-19.5,241.1-19.5,241.9z"/>
	<path class="st3" d="M-10,239.5h-1.6v5.7h-1v-5.7h-1.1v-0.4l1.1-0.4v-0.4c0-1.6,0.7-2.4,2.1-2.4c0.3,0,0.7,0.1,1.2,0.2l-0.3,0.8
		c-0.4-0.1-0.7-0.2-1-0.2c-0.4,0-0.6,0.1-0.8,0.4c-0.2,0.3-0.3,0.6-0.3,1.2v0.4h1.6v0.8H-10z"/>
	<path class="st3" d="M-4.8,245.2h-1v-9.1h1V245.2z"/>
	<path class="st3" d="M0,245.3c-0.9,0-1.7-0.3-2.2-0.9C-2.7,243.8-3,243-3,242s0.3-1.9,0.8-2.5s1.2-0.9,2.1-0.9
		c0.8,0,1.4,0.3,1.9,0.8s0.7,1.2,0.7,2.1v0.6h-4.4c0,0.8,0.2,1.3,0.6,1.7c0.4,0.4,0.9,0.6,1.5,0.6c0.7,0,1.4-0.1,2.1-0.4v0.9
		c-0.3,0.1-0.7,0.3-1,0.3S0.4,245.3,0,245.3z M-0.3,239.4c-0.5,0-0.9,0.2-1.2,0.5c-0.3,0.3-0.5,0.8-0.5,1.4h3.4
		c0-0.6-0.1-1.1-0.4-1.4C0.7,239.6,0.2,239.4-0.3,239.4z"/>
	<path class="st3" d="M6.9,239.5H5.3v5.7h-1v-5.7H3.2v-0.4l1.1-0.4v-0.4c0-1.6,0.7-2.4,2.1-2.4c0.3,0,0.7,0.1,1.2,0.2l-0.3,0.8
		c-0.4-0.1-0.7-0.2-1-0.2c-0.4,0-0.6,0.1-0.8,0.4c-0.2,0.3-0.3,0.6-0.3,1.2v0.4h1.6v0.8H6.9z"/>
	<path class="st3" d="M10.2,244.5c0.2,0,0.3,0,0.5,0s0.3-0.1,0.4-0.1v0.7c-0.1,0.1-0.3,0.1-0.5,0.1s-0.4,0-0.6,0
		c-1.2,0-1.9-0.7-1.9-2v-3.8H7.2v-0.5l0.9-0.4l0.4-1.4h0.6v1.5H11v0.8H9.1v3.8c0,0.4,0.1,0.7,0.3,0.9S9.8,244.5,10.2,244.5z"/>
	<path class="st3" d="M12.2,237c0-0.2,0.1-0.4,0.2-0.5c0.1-0.1,0.2-0.2,0.4-0.2s0.3,0.1,0.4,0.2c0.1,0.1,0.2,0.3,0.2,0.5
		c0,0.2-0.1,0.4-0.2,0.5c-0.1,0.1-0.2,0.2-0.4,0.2s-0.3-0.1-0.4-0.2C12.3,237.4,12.2,237.2,12.2,237z M13.3,245.2h-1v-6.4h1V245.2z"
		/>
	<path class="st3" d="M18.1,245.3c-0.9,0-1.7-0.3-2.2-0.9c-0.5-0.6-0.8-1.4-0.8-2.4s0.3-1.9,0.8-2.5s1.2-0.9,2.1-0.9
		c0.8,0,1.4,0.3,1.9,0.8s0.7,1.2,0.7,2.1v0.6H16c0,0.8,0.2,1.3,0.6,1.7c0.4,0.4,0.9,0.6,1.5,0.6c0.7,0,1.4-0.1,2.1-0.4v0.9
		c-0.3,0.1-0.7,0.3-1,0.3S18.5,245.3,18.1,245.3z M17.8,239.4c-0.5,0-0.9,0.2-1.2,0.5c-0.3,0.3-0.5,0.8-0.5,1.4h3.4
		c0-0.6-0.1-1.1-0.4-1.4C18.8,239.6,18.3,239.4,17.8,239.4z"/>
	<path class="st3" d="M26.2,243.4c0,0.6-0.2,1.1-0.7,1.4c-0.5,0.3-1.1,0.5-1.9,0.5c-0.9,0-1.5-0.1-2-0.4V244c0.3,0.2,0.6,0.3,1,0.4
		c0.4,0.1,0.7,0.1,1,0.1c0.5,0,0.9-0.1,1.2-0.2c0.3-0.1,0.4-0.4,0.4-0.7c0-0.2-0.1-0.5-0.3-0.6c-0.2-0.1-0.6-0.4-1.3-0.6
		c-0.6-0.2-1-0.4-1.3-0.6c-0.3-0.2-0.4-0.4-0.6-0.6s-0.2-0.5-0.2-0.8c0-0.5,0.2-0.9,0.6-1.2s1-0.5,1.8-0.5c0.7,0,1.4,0.1,2,0.4
		l-0.3,0.8c-0.6-0.3-1.2-0.4-1.8-0.4c-0.5,0-0.8,0.1-1,0.2c-0.2,0.1-0.4,0.3-0.4,0.6c0,0.2,0,0.3,0.1,0.4c0.1,0.1,0.2,0.2,0.4,0.3
		c0.2,0.1,0.6,0.3,1.1,0.5c0.8,0.3,1.3,0.6,1.5,0.8C25.7,242.5,26.2,243,26.2,243.4z"/>
	<path class="st3" d="M33.5,245.3c-0.9,0-1.6-0.3-2.2-0.9c-0.6-0.6-0.8-1.4-0.8-2.4c0-1.1,0.3-1.9,0.8-2.5s1.3-0.9,2.2-0.9
		c0.3,0,0.6,0,0.9,0.1c0.3,0.1,0.6,0.1,0.7,0.2l-0.3,0.8c-0.2-0.1-0.4-0.2-0.7-0.2s-0.5-0.1-0.7-0.1c-1.3,0-2,0.8-2,2.5
		c0,0.8,0.2,1.4,0.5,1.8s0.8,0.6,1.4,0.6c0.5,0,1.1-0.1,1.6-0.3v0.9C34.7,245.2,34.2,245.3,33.5,245.3z"/>
	<path class="st3" d="M42.2,241.9c0,1-0.3,1.9-0.8,2.5c-0.5,0.6-1.3,0.9-2.2,0.9c-0.6,0-1.1-0.1-1.5-0.4c-0.4-0.3-0.8-0.7-1-1.2
		s-0.4-1.1-0.4-1.8c0-1,0.3-1.9,0.8-2.4s1.2-0.9,2.2-0.9c0.9,0,1.6,0.3,2.1,0.9S42.2,240.9,42.2,241.9z M37.3,241.9
		c0,0.8,0.2,1.4,0.5,1.9s0.8,0.6,1.4,0.6s1.1-0.2,1.5-0.6c0.4-0.4,0.5-1.1,0.5-1.9c0-0.8-0.2-1.4-0.5-1.9s-0.8-0.6-1.5-0.6
		c-0.6,0-1.1,0.2-1.4,0.6S37.3,241.1,37.3,241.9z"/>
	<path class="st3" d="M48.3,245.2V241c0-0.5-0.1-0.9-0.4-1.2c-0.3-0.3-0.6-0.4-1.1-0.4c-0.7,0-1.2,0.2-1.5,0.5s-0.5,1-0.5,1.8v3.5
		h-1v-6.4h0.8l0.2,0.9l0,0c0.2-0.3,0.5-0.6,0.8-0.7c0.3-0.1,0.8-0.3,1.2-0.3c0.8,0,1.4,0.2,1.7,0.6c0.3,0.4,0.6,1,0.6,1.8v4.1H48.3z
		"/>
	<path class="st3" d="M55.4,243.4c0,0.6-0.2,1.1-0.7,1.4c-0.5,0.3-1.1,0.5-1.9,0.5c-0.9,0-1.5-0.1-2-0.4V244c0.3,0.2,0.6,0.3,1,0.4
		c0.4,0.1,0.7,0.1,1,0.1c0.5,0,0.9-0.1,1.2-0.2c0.3-0.1,0.4-0.4,0.4-0.7c0-0.2-0.1-0.5-0.3-0.6c-0.2-0.1-0.6-0.4-1.3-0.6
		c-0.6-0.2-1-0.4-1.3-0.6c-0.3-0.2-0.4-0.4-0.6-0.6s-0.2-0.5-0.2-0.8c0-0.5,0.2-0.9,0.6-1.2s1-0.5,1.8-0.5c0.7,0,1.4,0.1,2,0.4
		l-0.3,0.8c-0.6-0.3-1.2-0.4-1.8-0.4c-0.5,0-0.8,0.1-1,0.2c-0.2,0.1-0.4,0.3-0.4,0.6c0,0.2,0,0.3,0.1,0.4c0.1,0.1,0.2,0.2,0.4,0.3
		c0.2,0.1,0.6,0.3,1.1,0.5c0.8,0.3,1.3,0.6,1.5,0.8C54.9,242.5,55.4,243,55.4,243.4z"/>
	<path class="st3" d="M56.9,237c0-0.2,0.1-0.4,0.2-0.5c0.1-0.1,0.2-0.2,0.4-0.2s0.3,0.1,0.4,0.2c0.1,0.1,0.2,0.3,0.2,0.5
		c0,0.2-0.1,0.4-0.2,0.5c-0.1,0.1-0.2,0.2-0.4,0.2s-0.3-0.1-0.4-0.2C57,237.4,56.9,237.2,56.9,237z M58,245.2h-1v-6.4h1V245.2z"/>
	<path class="st3" d="M64.4,244.3L64.4,244.3c-0.5,0.7-1.2,1-2.1,1c-0.8,0-1.5-0.3-2-0.9c-0.5-0.6-0.7-1.4-0.7-2.4s0.2-1.9,0.7-2.5
		s1.1-0.9,2-0.9s1.5,0.3,2,0.9h0.1V239v-0.5v-2.6h1v9.3h-0.8L64.4,244.3z M62.4,244.5c0.7,0,1.1-0.2,1.4-0.5
		c0.3-0.3,0.4-0.9,0.4-1.7v-0.2c0-0.9-0.2-1.6-0.5-1.9s-0.8-0.6-1.5-0.6c-0.6,0-1,0.2-1.3,0.7s-0.5,1.1-0.5,1.9s0.2,1.4,0.5,1.9
		S61.9,244.5,62.4,244.5z"/>
	<path class="st3" d="M70.1,245.3c-0.9,0-1.7-0.3-2.2-0.9c-0.5-0.6-0.8-1.4-0.8-2.4s0.3-1.9,0.8-2.5s1.2-0.9,2.1-0.9
		c0.8,0,1.4,0.3,1.9,0.8s0.7,1.2,0.7,2.1v0.6H68c0,0.8,0.2,1.3,0.6,1.7c0.4,0.4,0.9,0.6,1.5,0.6c0.7,0,1.4-0.1,2.1-0.4v0.9
		c-0.3,0.1-0.7,0.3-1,0.3S70.5,245.3,70.1,245.3z M69.8,239.4c-0.5,0-0.9,0.2-1.2,0.5c-0.3,0.3-0.5,0.8-0.5,1.4h3.4
		c0-0.6-0.1-1.1-0.4-1.4C70.8,239.6,70.3,239.4,69.8,239.4z"/>
	<path class="st3" d="M77,238.6c0.3,0,0.5,0,0.8,0.1l-0.1,0.9c-0.3-0.1-0.5-0.1-0.7-0.1c-0.5,0-1,0.2-1.3,0.6
		c-0.3,0.4-0.6,0.9-0.6,1.6v3.5h-1v-6.4h0.8L75,240l0,0c0.2-0.4,0.5-0.7,0.9-1S76.6,238.6,77,238.6z"/>
	<path class="st3" d="M81.7,245.3c-0.9,0-1.7-0.3-2.2-0.9c-0.5-0.6-0.8-1.4-0.8-2.4s0.3-1.9,0.8-2.5s1.2-0.9,2.1-0.9
		c0.8,0,1.4,0.3,1.9,0.8s0.7,1.2,0.7,2.1v0.6h-4.4c0,0.8,0.2,1.3,0.6,1.7c0.4,0.4,0.9,0.6,1.5,0.6c0.7,0,1.4-0.1,2.1-0.4v0.9
		c-0.3,0.1-0.7,0.3-1,0.3S82.2,245.3,81.7,245.3z M81.5,239.4c-0.5,0-0.9,0.2-1.2,0.5c-0.3,0.3-0.5,0.8-0.5,1.4h3.4
		c0-0.6-0.1-1.1-0.4-1.4C82.5,239.6,82,239.4,81.5,239.4z"/>
	<path class="st3" d="M90.1,244.3L90.1,244.3c-0.5,0.7-1.2,1-2.1,1c-0.8,0-1.5-0.3-2-0.9c-0.5-0.6-0.7-1.4-0.7-2.4s0.2-1.9,0.7-2.5
		s1.1-0.9,2-0.9s1.5,0.3,2,0.9h0.1V239v-0.5v-2.6h1v9.3h-0.8L90.1,244.3z M88.2,244.5c0.7,0,1.1-0.2,1.4-0.5
		c0.3-0.3,0.4-0.9,0.4-1.7v-0.2c0-0.9-0.2-1.6-0.5-1.9s-0.8-0.6-1.5-0.6c-0.6,0-1,0.2-1.3,0.7s-0.5,1.1-0.5,1.9s0.2,1.4,0.5,1.9
		S87.6,244.5,88.2,244.5z"/>
	<path class="st3" d="M-107,258.9c0.2,0,0.3,0,0.5,0s0.3-0.1,0.4-0.1v0.7c-0.1,0.1-0.3,0.1-0.5,0.1c-0.2,0-0.4,0-0.6,0
		c-1.2,0-1.9-0.7-1.9-2v-3.8h-0.9v-0.5l0.9-0.4l0.4-1.4h0.7v1.5h1.9v0.8h-1.9v3.8c0,0.4,0.1,0.7,0.3,0.9
		C-107.5,258.7-107.3,258.9-107,258.9z"/>
	<path class="st3" d="M-100.4,259.6v-4.2c0-0.5-0.1-0.9-0.4-1.2s-0.6-0.4-1.1-0.4c-0.7,0-1.2,0.2-1.5,0.6s-0.5,1-0.5,1.8v3.4h-1
		v-9.1h1v2.7c0,0.3,0,0.6,0,0.8h0.1c0.2-0.3,0.5-0.6,0.8-0.7c0.3-0.1,0.8-0.3,1.2-0.3c0.8,0,1.4,0.2,1.8,0.6c0.4,0.4,0.6,1,0.6,1.8
		v4.2C-99.4,259.6-100.4,259.6-100.4,259.6z"/>
	<path class="st3" d="M-94.7,259.7c-0.9,0-1.7-0.3-2.2-0.9s-0.8-1.4-0.8-2.4s0.3-1.9,0.8-2.5s1.2-0.9,2.1-0.9c0.8,0,1.4,0.3,1.9,0.8
		s0.7,1.2,0.7,2.1v0.6h-4.4c0,0.8,0.2,1.3,0.6,1.7c0.4,0.4,0.9,0.6,1.5,0.6c0.7,0,1.4-0.1,2.1-0.4v0.9c-0.3,0.1-0.7,0.3-1,0.3
		C-93.7,259.6-94.3,259.7-94.7,259.7z M-95,253.8c-0.5,0-0.9,0.2-1.2,0.5c-0.3,0.3-0.5,0.8-0.5,1.4h3.4c0-0.6-0.1-1.1-0.4-1.4
		C-94,254-94.5,253.8-95,253.8z"/>
	<path class="st3" d="M-82.5,259.6v-4.2c0-0.5-0.1-0.9-0.3-1.2c-0.2-0.3-0.6-0.4-1-0.4c-0.6,0-1.1,0.2-1.3,0.5
		c-0.2,0.3-0.4,0.9-0.4,1.6v3.6h-1v-4.2c0-0.5-0.1-0.9-0.3-1.2c-0.2-0.3-0.6-0.4-1-0.4c-0.6,0-1.1,0.2-1.3,0.5
		c-0.2,0.3-0.4,1-0.4,1.8v3.4h-1V253h0.8l0.2,0.9l0,0c0.2-0.3,0.4-0.6,0.8-0.7c0.4-0.1,0.7-0.3,1.1-0.3c1,0,1.7,0.4,2,1.1l0,0
		c0.2-0.3,0.5-0.6,0.8-0.8c0.3-0.2,0.8-0.3,1.2-0.3c0.7,0,1.3,0.2,1.6,0.6c0.3,0.4,0.5,1,0.5,1.8v4.2h-1V259.6z"/>
	<path class="st3" d="M-75.4,257.8c0,0.6-0.2,1.1-0.7,1.4c-0.5,0.3-1.1,0.5-1.9,0.5c-0.9,0-1.5-0.1-2-0.4v-0.9
		c0.3,0.2,0.6,0.3,1,0.4c0.4,0.1,0.7,0.1,1,0.1c0.5,0,0.9-0.1,1.2-0.2s0.4-0.4,0.4-0.7c0-0.2-0.1-0.5-0.3-0.6
		c-0.2-0.1-0.6-0.4-1.3-0.6c-0.6-0.2-1-0.4-1.3-0.6c-0.3-0.2-0.4-0.4-0.6-0.6c-0.2-0.2-0.1-0.6-0.1-0.9c0-0.5,0.2-0.9,0.6-1.2
		c0.4-0.3,1-0.5,1.8-0.5c0.7,0,1.4,0.1,2,0.4l-0.3,0.8c-0.6-0.3-1.2-0.4-1.8-0.4c-0.5,0-0.8,0.1-1,0.2c-0.2,0.1-0.3,0.4-0.3,0.6
		c0,0.2,0,0.3,0.1,0.4s0.2,0.2,0.4,0.3c0.2,0.1,0.6,0.3,1.1,0.5c0.8,0.3,1.3,0.6,1.5,0.8C-75.7,256.8-75.4,257.4-75.4,257.8z"/>
	<path class="st3" d="M-71.1,259.7c-0.9,0-1.7-0.3-2.2-0.9s-0.8-1.4-0.8-2.4s0.3-1.9,0.8-2.5s1.2-0.9,2.1-0.9c0.8,0,1.4,0.3,1.9,0.8
		s0.7,1.2,0.7,2.1v0.6H-73c0,0.8,0.2,1.3,0.6,1.7s0.9,0.6,1.5,0.6c0.7,0,1.4-0.1,2.1-0.4v0.9c-0.3,0.1-0.7,0.3-1,0.3
		S-70.7,259.7-71.1,259.7z M-71.4,253.8c-0.5,0-0.9,0.2-1.2,0.5c-0.3,0.3-0.5,0.8-0.5,1.4h3.4c0-0.6-0.1-1.1-0.4-1.4
		C-70.4,254-70.9,253.8-71.4,253.8z"/>
	<path class="st3" d="M-66.1,259.6h-1v-9.1h1V259.6z"/>
	<path class="st3" d="M-62.6,259.6l-2.4-6.4h1l1.4,3.8c0.3,0.9,0.5,1.5,0.6,1.7l0,0c0-0.2,0.2-0.6,0.4-1.3c0.2-0.7,0.7-2.1,1.5-4.3
		h1l-2.4,6.4h-1.1V259.6z"/>
	<path class="st3" d="M-55.3,259.7c-0.9,0-1.7-0.3-2.2-0.9s-0.8-1.4-0.8-2.4s0.3-1.9,0.8-2.5s1.2-0.9,2.1-0.9c0.8,0,1.4,0.3,1.9,0.8
		s0.7,1.2,0.7,2.1v0.6h-4.4c0,0.8,0.2,1.3,0.6,1.7s0.9,0.6,1.5,0.6c0.7,0,1.4-0.1,2.1-0.4v0.9c-0.3,0.1-0.7,0.3-1,0.3
		S-54.9,259.7-55.3,259.7z M-55.6,253.8c-0.5,0-0.9,0.2-1.2,0.5c-0.3,0.3-0.5,0.8-0.5,1.4h3.3c0-0.6-0.1-1.1-0.4-1.4
		C-54.7,254-55.1,253.8-55.6,253.8z"/>
	<path class="st3" d="M-47.2,257.8c0,0.6-0.2,1.1-0.7,1.4c-0.5,0.3-1.1,0.5-1.9,0.5c-0.9,0-1.5-0.1-2-0.4v-0.9
		c0.3,0.2,0.6,0.3,1,0.4s0.7,0.1,1,0.1c0.5,0,0.9-0.1,1.2-0.2s0.4-0.4,0.4-0.7c0-0.2-0.1-0.5-0.3-0.6s-0.6-0.4-1.3-0.6
		c-0.6-0.2-1-0.4-1.3-0.6c-0.3-0.2-0.4-0.4-0.6-0.6c-0.2-0.2-0.2-0.5-0.2-0.8c0-0.5,0.2-0.9,0.6-1.2c0.4-0.3,1-0.5,1.8-0.5
		c0.7,0,1.4,0.1,2,0.4l-0.1,0.7c-0.6-0.3-1.2-0.4-1.8-0.4c-0.5,0-0.8,0.1-1,0.2s-0.4,0.3-0.4,0.6c0,0.2,0,0.3,0.1,0.4
		s0.2,0.2,0.4,0.3c0.2,0.1,0.6,0.3,1.1,0.5c0.8,0.3,1.3,0.6,1.5,0.8C-47.5,256.8-47.2,257.4-47.2,257.8z"/>
	<path class="st3" d="M-34.3,259.6v-4.2c0-0.5-0.1-0.9-0.3-1.2s-0.6-0.4-1-0.4c-0.6,0-1.1,0.2-1.3,0.5c-0.2,0.3-0.4,0.9-0.4,1.6v3.6
		h-1v-4.2c0-0.5-0.1-0.9-0.3-1.2s-0.6-0.4-1-0.4c-0.6,0-1.1,0.2-1.3,0.5c-0.2,0.3-0.4,1-0.4,1.8v3.4h-1V253h0.8l0.2,0.9l0,0
		c0.2-0.3,0.4-0.6,0.8-0.7c0.4-0.1,0.7-0.3,1.1-0.3c1,0,1.7,0.4,2,1.1l0,0c0.2-0.3,0.5-0.6,0.8-0.8c0.3-0.2,0.8-0.3,1.2-0.3
		c0.7,0,1.3,0.2,1.6,0.6c0.3,0.4,0.5,1,0.5,1.8v4.2h-1V259.6z"/>
	<path class="st3" d="M-25.8,256.3c0,1-0.3,1.9-0.8,2.5c-0.5,0.6-1.3,0.9-2.2,0.9c-0.6,0-1.1-0.1-1.5-0.4c-0.4-0.3-0.8-0.7-1-1.2
		s-0.4-1.1-0.4-1.8c0-1,0.3-1.9,0.8-2.4s1.2-0.9,2.2-0.9c0.9,0,1.6,0.3,2.1,0.9S-25.8,255.3-25.8,256.3z M-30.7,256.3
		c0,0.8,0.2,1.4,0.5,1.9s0.8,0.6,1.4,0.6s1.1-0.2,1.5-0.6c0.4-0.4,0.5-1.1,0.5-1.9c0-0.8-0.2-1.4-0.5-1.9s-0.8-0.6-1.5-0.6
		c-0.6,0-1.1,0.2-1.4,0.6S-30.7,255.5-30.7,256.3z"/>
	<path class="st3" d="M-21.1,253c0.3,0,0.5,0,0.8,0.1l-0.1,0.9c-0.3-0.1-0.5-0.1-0.7-0.1c-0.5,0-1,0.2-1.3,0.6s-0.6,0.9-0.6,1.6v3.4
		h-1v-6.4h0.8l0.1,1.2l0,0c0.2-0.4,0.5-0.7,0.9-1C-21.8,253-21.5,253-21.1,253z"/>
	<path class="st3" d="M-16.4,259.7c-0.9,0-1.7-0.3-2.2-0.9s-0.8-1.4-0.8-2.4s0.3-1.9,0.8-2.5s1.2-0.9,2.1-0.9c0.8,0,1.4,0.3,1.9,0.8
		s0.7,1.2,0.7,2.1v0.6h-4.4c0,0.8,0.2,1.3,0.6,1.7s0.9,0.6,1.5,0.6c0.7,0,1.4-0.1,2.1-0.4v0.9c-0.3,0.1-0.7,0.3-1,0.3
		S-16,259.7-16.4,259.7z M-16.7,253.8c-0.5,0-0.9,0.2-1.2,0.5c-0.3,0.3-0.5,0.8-0.5,1.4h3.4c0-0.6-0.1-1.1-0.4-1.4
		C-15.7,254-16.2,253.8-16.7,253.8z"/>
	<path class="st3" d="M-5.4,259.6l-0.2-0.9l0,0c-0.3,0.4-0.6,0.7-1,0.8s-0.7,0.2-1.2,0.2c-0.6,0-1.1-0.2-1.5-0.5
		c-0.4-0.3-0.5-0.8-0.5-1.4c0-1.3,1-2,3.1-2h1.1v-0.4c0-0.5-0.1-0.9-0.3-1.1c-0.2-0.2-0.6-0.4-1-0.4c-0.5,0-1.1,0.2-1.8,0.5
		l-0.3-0.7c0.3-0.2,0.7-0.3,1-0.4s0.8-0.1,1.1-0.1c0.8,0,1.3,0.2,1.7,0.5s0.6,0.9,0.6,1.6v4.4L-5.4,259.6L-5.4,259.6z M-7.6,258.9
		c0.6,0,1.1-0.2,1.4-0.5c0.3-0.3,0.5-0.8,0.5-1.4v-0.6h-1c-0.8,0-1.3,0.1-1.7,0.4c-0.4,0.3-0.5,0.5-0.5,1c0,0.4,0.1,0.6,0.3,0.8
		C-8.4,258.8-7.9,258.9-7.6,258.9z"/>
	<path class="st3" d="M2.6,259.6l-1.2-3.8c-0.1-0.2-0.2-0.8-0.4-1.6l0,0c-0.2,0.7-0.3,1.2-0.4,1.6l-1.2,3.8h-1.1l-1.8-6.4h1
		c0.4,1.6,0.7,2.8,0.9,3.7s0.3,1.4,0.4,1.7l0,0c0-0.2,0.1-0.5,0.2-0.9c0.1-0.4,0.2-0.6,0.2-0.8l1.2-3.7h1.1l1.1,3.7
		c0.2,0.7,0.4,1.2,0.4,1.7l0,0c0-0.1,0.1-0.4,0.1-0.7c0-0.3,0.5-1.9,1.2-4.7h1l-1.8,6.4H2.6z"/>
	<path class="st3" d="M7.7,256.3c0.2-0.2,0.4-0.6,0.8-0.9l2.1-2.2h1.2l-2.6,2.7l2.8,3.7h-1.2l-2.3-3l-0.7,0.6v2.4h-1v-9.1h1v4.8
		C7.7,255.5,7.6,255.8,7.7,256.3L7.7,256.3z"/>
	<path class="st3" d="M18.2,259.6l-1.2-3.8c-0.1-0.2-0.2-0.8-0.4-1.6l0,0c-0.2,0.7-0.3,1.2-0.4,1.6l-1.2,3.8h-1.1l-1.8-6.4h1
		c0.4,1.6,0.7,2.8,0.9,3.7s0.3,1.4,0.4,1.7l0,0c0-0.2,0.1-0.5,0.2-0.9c0.1-0.4,0.2-0.6,0.2-0.8l1.2-3.7h1.1l1.1,3.7
		c0.2,0.7,0.4,1.2,0.4,1.7l0,0c0-0.1,0.1-0.4,0.1-0.7c0-0.3,0.5-1.9,1.2-4.7h1l-1.8,6.4H18.2z"/>
	<path class="st3" d="M26.3,259.6l-0.2-0.9l0,0c-0.3,0.4-0.6,0.7-1,0.8s-0.7,0.2-1.2,0.2c-0.6,0-1.1-0.2-1.5-0.5
		c-0.4-0.3-0.5-0.8-0.5-1.4c0-1.3,1-2,3.1-2h1.1v-0.4c0-0.5-0.1-0.9-0.3-1.1c-0.2-0.2-0.6-0.4-1-0.4c-0.5,0-1.1,0.2-1.8,0.5
		l-0.3-0.7c0.3-0.2,0.7-0.3,1-0.4s0.8-0.1,1.1-0.1c0.8,0,1.3,0.2,1.7,0.5s0.6,0.9,0.6,1.6v4.4L26.3,259.6L26.3,259.6z M24.1,258.9
		c0.6,0,1.1-0.2,1.4-0.5c0.3-0.3,0.5-0.8,0.5-1.4v-0.6h-1c-0.8,0-1.3,0.1-1.7,0.4c-0.4,0.3-0.5,0.5-0.5,1c0,0.4,0.1,0.6,0.3,0.8
		C23.3,258.8,23.7,258.9,24.1,258.9z"/>
	<path class="st3" d="M31.9,253c0.3,0,0.5,0,0.8,0.1l-0.1,0.9c-0.3-0.1-0.5-0.1-0.7-0.1c-0.5,0-1,0.2-1.3,0.6s-0.6,0.9-0.6,1.6v3.4
		h-1v-6.4h0.8l0.1,1.2l0,0c0.2-0.4,0.5-0.7,0.9-1C31.2,253,31.5,253,31.9,253z"/>
	<path class="st3" d="M38.3,258.7L38.3,258.7c-0.5,0.7-1.2,1-2.1,1c-0.8,0-1.5-0.3-2-0.9s-0.7-1.4-0.7-2.4s0.2-1.9,0.7-2.5
		s1.1-0.9,2-0.9s1.5,0.3,2,0.9h0.1v-0.5v-0.5v-2.6h1v9.1h-0.8L38.3,258.7z M36.3,258.9c0.7,0,1.1-0.2,1.4-0.5
		c0.3-0.3,0.4-0.9,0.4-1.7v-0.2c0-0.9-0.2-1.6-0.5-1.9s-0.8-0.6-1.5-0.6c-0.6,0-1,0.2-1.3,0.7s-0.5,1.1-0.5,1.9
		c0,0.8,0.2,1.4,0.5,1.9S35.7,258.9,36.3,258.9z"/>
	<path class="st3" d="M49.9,256.3c0,1-0.3,1.9-0.8,2.5c-0.5,0.6-1.3,0.9-2.2,0.9c-0.6,0-1.1-0.1-1.5-0.4c-0.4-0.3-0.8-0.7-1-1.2
		S44,257,44,256.3c0-1,0.3-1.9,0.8-2.4S46,253,47,253c0.9,0,1.6,0.3,2.1,0.9S49.9,255.3,49.9,256.3z M45,256.3
		c0,0.8,0.2,1.4,0.5,1.9s0.8,0.6,1.4,0.6s1.1-0.2,1.5-0.6c0.4-0.4,0.5-1.1,0.5-1.9c0-0.8-0.2-1.4-0.5-1.9s-0.8-0.6-1.5-0.6
		c-0.6,0-1.1,0.2-1.4,0.6S45,255.5,45,256.3z"/>
	<path class="st3" d="M54.6,253c0.3,0,0.5,0,0.8,0.1l-0.1,0.9c-0.3-0.1-0.5-0.1-0.7-0.1c-0.5,0-1,0.2-1.3,0.6s-0.6,0.9-0.6,1.6v3.4
		h-1v-6.4h0.8l0.1,1.2l0,0c0.2-0.4,0.5-0.7,0.9-1C53.9,253,54.2,253,54.6,253z"/>
	<path class="st3" d="M62.2,259.7c-0.9,0-1.6-0.3-2.2-0.9s-0.8-1.4-0.8-2.4c0-1.1,0.3-1.9,0.8-2.5s1.3-0.9,2.2-0.9
		c0.3,0,0.6,0,0.9,0.1s0.6,0.1,0.7,0.2l-0.3,0.8c-0.2-0.1-0.4-0.2-0.7-0.2s-0.5-0.1-0.7-0.1c-1.3,0-2,0.8-2,2.5
		c0,0.8,0.2,1.4,0.5,1.8c0.3,0.4,0.8,0.6,1.4,0.6c0.5,0,1.1-0.1,1.6-0.3v0.9C63.4,259.6,62.9,259.7,62.2,259.7z"/>
	<path class="st3" d="M66.3,259.6h-1v-9.1h1V259.6z"/>
	<path class="st3" d="M69.3,253.1v4.2c0,0.5,0.1,0.9,0.4,1.2s0.6,0.4,1.1,0.4c0.7,0,1.2-0.2,1.5-0.6c0.3-0.4,0.5-1,0.5-1.8v-3.4h1
		v6.4H73l-0.1-0.9h-0.1c-0.2,0.3-0.5,0.6-0.8,0.7c-0.3,0.1-0.8,0.3-1.2,0.3c-0.8,0-1.4-0.2-1.8-0.6s-0.6-1-0.6-1.8V253h0.9V253.1z"
		/>
	<path class="st3" d="M83.9,259.6v-4.2c0-0.5-0.1-0.9-0.3-1.2s-0.6-0.4-1-0.4c-0.6,0-1.1,0.2-1.3,0.5c-0.2,0.3-0.4,0.9-0.4,1.6v3.6
		h-1v-4.2c0-0.5-0.1-0.9-0.3-1.2s-0.6-0.4-1-0.4c-0.6,0-1.1,0.2-1.3,0.5c-0.2,0.3-0.4,1-0.4,1.8v3.4h-1V253h0.8l0.2,0.9l0,0
		c0.2-0.3,0.4-0.6,0.8-0.7c0.4-0.1,0.7-0.3,1.1-0.3c1,0,1.7,0.4,2,1.1l0,0c0.2-0.3,0.5-0.6,0.8-0.8c0.3-0.2,0.8-0.3,1.2-0.3
		c0.7,0,1.3,0.2,1.6,0.6c0.3,0.4,0.5,1,0.5,1.8v4.2h-1V259.6z"/>
	<path class="st3" d="M91.1,257.8c0,0.6-0.2,1.1-0.7,1.4c-0.5,0.3-1.1,0.5-1.9,0.5c-0.9,0-1.5-0.1-2-0.4v-0.9c0.3,0.2,0.6,0.3,1,0.4
		s0.7,0.1,1,0.1c0.5,0,0.9-0.1,1.2-0.2s0.4-0.4,0.4-0.7c0-0.2-0.1-0.5-0.3-0.6s-0.6-0.4-1.3-0.6c-0.6-0.2-1-0.4-1.3-0.6
		c-0.3-0.2-0.4-0.4-0.6-0.6c-0.2-0.2-0.2-0.5-0.2-0.8c0-0.5,0.2-0.9,0.6-1.2c0.4-0.3,1-0.5,1.8-0.5c0.7,0,1.4,0.1,2,0.4l-0.3,0.8
		c-0.6-0.3-1.2-0.4-1.8-0.4c-0.5,0-0.8,0.1-1,0.2c-0.2,0.1-0.4,0.3-0.4,0.6c0,0.2,0,0.3,0.1,0.4c0.1,0.1,0.2,0.2,0.4,0.3
		c0.2,0.1,0.6,0.3,1.1,0.5c0.8,0.3,1.3,0.6,1.5,0.8C90.6,256.9,91.1,257.4,91.1,257.8z"/>
	<path class="st3" d="M91.6,253.1h1l1.4,3.7c0.3,0.8,0.5,1.4,0.6,1.8l0,0c0.1-0.2,0.2-0.5,0.3-1s0.7-2,1.6-4.5h1l-2.8,7.3
		c-0.3,0.7-0.6,1.2-1,1.5c-0.4,0.3-0.8,0.5-1.3,0.5c-0.3,0-0.6,0-0.9-0.1v-0.8c0.2,0,0.5,0.1,0.7,0.1c0.7,0,1.1-0.4,1.4-1.1l0.4-0.9
		L91.6,253.1z"/>
	<path class="st3" d="M-107,273.3c0.2,0,0.3,0,0.5,0s0.3-0.1,0.4-0.1v0.7c-0.1,0.1-0.3,0.1-0.5,0.1c-0.2,0-0.4,0-0.6,0
		c-1.2,0-1.9-0.7-1.9-2v-3.8h-0.9v-0.5l0.9-0.4l0.4-1.4h0.7v1.5h1.9v0.8h-1.9v3.8c0,0.4,0.1,0.7,0.3,0.9
		C-107.5,273.1-107.3,273.3-107,273.3z"/>
	<path class="st3" d="M-100.4,274v-4.2c0-0.5-0.1-0.9-0.4-1.2c-0.3-0.3-0.6-0.4-1.1-0.4c-0.7,0-1.2,0.2-1.5,0.6s-0.5,1-0.5,1.8v3.4
		h-1v-9.1h1v2.8c0,0.3,0,0.6,0,0.8h0.1c0.2-0.3,0.5-0.6,0.8-0.7c0.3-0.1,0.8-0.3,1.2-0.3c0.8,0,1.4,0.2,1.8,0.6
		c0.4,0.4,0.6,1,0.6,1.8v4.2L-100.4,274L-100.4,274z"/>
	<path class="st3" d="M-93.5,274l-0.2-0.9l0,0c-0.3,0.4-0.6,0.7-1,0.8c-0.4,0.1-0.7,0.2-1.2,0.2c-0.6,0-1.1-0.2-1.5-0.5
		c-0.4-0.3-0.5-0.8-0.5-1.4c0-1.3,1-2,3.1-2h1.1v-0.4c0-0.5-0.1-0.9-0.3-1.1c-0.2-0.2-0.6-0.4-1-0.4c-0.5,0-1.1,0.2-1.8,0.5
		l-0.3-0.7c0.3-0.2,0.7-0.3,1-0.4c0.3-0.1,0.8-0.1,1.1-0.1c0.8,0,1.3,0.2,1.7,0.5c0.4,0.3,0.6,0.9,0.6,1.6v4.4L-93.5,274L-93.5,274z
		 M-95.7,273.3c0.6,0,1.1-0.2,1.4-0.5c0.3-0.3,0.5-0.8,0.5-1.4v-0.6h-1c-0.8,0-1.3,0.1-1.7,0.4c-0.4,0.3-0.5,0.5-0.5,1
		c0,0.4,0.1,0.6,0.3,0.8C-96.5,273.2-96.1,273.3-95.7,273.3z"/>
	<path class="st3" d="M-86.4,274v-4.2c0-0.5-0.1-0.9-0.4-1.2c-0.3-0.3-0.5-0.4-1-0.4c-0.7,0-1.2,0.2-1.5,0.5c-0.3,0.3-0.5,1-0.5,1.8
		v3.4h-1v-6.4h0.8l0.2,0.9l0,0c0.2-0.3,0.5-0.6,0.8-0.7c0.3-0.1,0.8-0.3,1.2-0.3c0.8,0,1.4,0.2,1.7,0.6s0.6,1,0.6,1.8v4.2H-86.4z"/>
	<path class="st3" d="M-76.3,274l-0.2-0.9l0,0c-0.3,0.4-0.6,0.7-1,0.8s-0.7,0.2-1.2,0.2c-0.6,0-1.1-0.2-1.5-0.5
		c-0.4-0.3-0.5-0.8-0.5-1.4c0-1.3,1-2,3.1-2h1.1v-0.4c0-0.5-0.1-0.9-0.3-1.1c-0.2-0.2-0.6-0.4-1-0.4c-0.5,0-1.1,0.2-1.8,0.5L-80,268
		c0.3-0.2,0.7-0.3,1-0.4s0.8-0.1,1.1-0.1c0.8,0,1.3,0.2,1.7,0.5c0.4,0.3,0.6,0.9,0.6,1.6v4.4H-76.3z M-78.5,273.3
		c0.6,0,1.1-0.2,1.4-0.5c0.3-0.3,0.5-0.8,0.5-1.4v-0.6h-1c-0.8,0-1.3,0.1-1.7,0.4c-0.4,0.3-0.5,0.5-0.5,1c0,0.4,0.1,0.6,0.3,0.8
		S-78.9,273.3-78.5,273.3z"/>
	<path class="st3" d="M-72.2,274l-2.4-6.4h1l1.4,3.8c0.3,0.9,0.5,1.5,0.6,1.7l0,0c0-0.2,0.2-0.6,0.4-1.3c0.2-0.7,0.7-2.1,1.5-4.3h1
		l-2.4,6.4h-1.1V274z"/>
	<path class="st3" d="M-64.9,274.1c-0.9,0-1.7-0.3-2.2-0.9c-0.5-0.6-0.9-1.4-0.9-2.4s0.3-1.9,0.8-2.5c0.5-0.6,1.2-0.9,2.1-0.9
		c0.8,0,1.4,0.3,1.9,0.8s0.7,1.2,0.7,2.1v0.6h-4.4c0,0.8,0.2,1.3,0.6,1.7c0.4,0.4,0.9,0.6,1.5,0.6c0.7,0,1.4-0.1,2.1-0.4v0.9
		c-0.3,0.1-0.7,0.3-1,0.3S-64.5,274.1-64.9,274.1z M-65.1,268.2c-0.5,0-0.9,0.2-1.2,0.5c-0.3,0.3-0.5,0.8-0.5,1.4h3.4
		c0-0.6-0.1-1.1-0.4-1.4C-64.1,268.4-64.6,268.2-65.1,268.2z"/>
	<path class="st3" d="M-57.9,267.4c0.3,0,0.5,0,0.8,0.1l-0.1,0.9c-0.3-0.1-0.5-0.1-0.7-0.1c-0.5,0-1,0.2-1.3,0.6s-0.6,0.9-0.6,1.6
		v3.4h-1v-6.4h0.8l0.1,1.2l0,0c0.2-0.4,0.5-0.7,0.9-1C-58.6,267.4-58.3,267.4-57.9,267.4z"/>
	<path class="st3" d="M-52,274l-0.2-0.9l0,0c-0.3,0.4-0.6,0.7-1,0.8s-0.7,0.2-1.2,0.2c-0.6,0-1.1-0.2-1.5-0.5
		c-0.4-0.3-0.5-0.8-0.5-1.4c0-1.3,1-2,3.1-2h1.1v-0.4c0-0.5-0.1-0.9-0.3-1.1c-0.2-0.2-0.6-0.4-1-0.4c-0.5,0-1.1,0.2-1.8,0.5
		l-0.3-0.7c0.3-0.2,0.7-0.3,1-0.4s0.8-0.1,1.1-0.1c0.8,0,1.3,0.2,1.7,0.5c0.4,0.3,0.6,0.9,0.6,1.6v4.4L-52,274L-52,274z
		 M-54.2,273.3c0.6,0,1.1-0.2,1.4-0.5c0.3-0.3,0.5-0.8,0.5-1.4v-0.6h-1c-0.8,0-1.3,0.1-1.7,0.4c-0.4,0.3-0.5,0.5-0.5,1
		c0,0.4,0.1,0.6,0.3,0.8S-54.6,273.3-54.2,273.3z"/>
	<path class="st3" d="M-44,267.5v0.7l-1.2,0.1c0.1,0.1,0.2,0.3,0.3,0.5c0.1,0.2,0.1,0.5,0.1,0.7c0,0.6-0.2,1.1-0.6,1.5
		s-1,0.6-1.8,0.6c-0.2,0-0.4,0-0.5,0c-0.4,0.2-0.6,0.5-0.6,0.8c0,0.2,0.1,0.3,0.2,0.4s0.4,0.1,0.7,0.1h1.1c0.7,0,1.2,0.1,1.6,0.4
		c0.4,0.3,0.6,0.7,0.6,1.3c0,0.7-0.3,1.3-0.9,1.6c-0.6,0.3-1.4,0.6-2.5,0.6c-0.8,0-1.5-0.2-1.9-0.5s-0.7-0.8-0.7-1.3
		c0-0.4,0.1-0.7,0.4-1c0.3-0.3,0.6-0.5,1.1-0.6c-0.2-0.1-0.3-0.2-0.4-0.3c-0.1-0.1-0.2-0.3-0.2-0.5c0-0.2,0.1-0.4,0.2-0.6
		c0.1-0.2,0.3-0.3,0.6-0.5c-0.3-0.1-0.6-0.4-0.8-0.7c-0.2-0.3-0.3-0.7-0.3-1.1c0-0.7,0.2-1.2,0.6-1.6s1-0.6,1.8-0.6
		c0.3,0,0.6,0,0.9,0.1h2.2V267.5z M-49.2,275c0,0.3,0.1,0.6,0.4,0.8c0.3,0.2,0.7,0.3,1.3,0.3c0.8,0,1.4-0.1,1.8-0.4
		c0.4-0.3,0.6-0.6,0.6-1c0-0.3-0.1-0.6-0.3-0.7s-0.6-0.2-1.2-0.2h-1.2c-0.4,0-0.8,0.1-1,0.3C-49,274.3-49.2,274.6-49.2,275z
		 M-48.6,269.6c0,0.4,0.1,0.8,0.4,1c0.3,0.2,0.6,0.3,1.1,0.3c0.9,0,1.4-0.5,1.4-1.4c0-1-0.5-1.4-1.4-1.4c-0.5,0-0.8,0.1-1.1,0.4
		C-48.5,268.8-48.6,269.1-48.6,269.6z"/>
	<path class="st3" d="M-40,274.1c-0.9,0-1.7-0.3-2.2-0.9c-0.5-0.6-0.8-1.4-0.8-2.4s0.3-1.9,0.8-2.5c0.5-0.6,1.2-0.9,2.1-0.9
		c0.8,0,1.4,0.3,1.9,0.8s0.7,1.2,0.7,2.1v0.6h-4.4c0,0.8,0.2,1.3,0.6,1.7c0.4,0.4,0.7,0.6,1.3,0.6c0.7,0,1.4-0.1,2.1-0.4v0.9
		c-0.3,0.1-0.7,0.3-1,0.3S-39.6,274.1-40,274.1z M-40.3,268.2c-0.5,0-0.9,0.2-1.2,0.5c-0.3,0.3-0.5,0.8-0.5,1.4h3.4
		c0-0.6-0.1-1.1-0.4-1.4C-39.3,268.4-39.8,268.2-40.3,268.2z"/>
	<path class="st3" d="M-36.1,273.3c0-0.3,0.1-0.5,0.2-0.6c0.1-0.1,0.3-0.2,0.5-0.2s0.4,0.1,0.5,0.2c0.1,0.1,0.2,0.3,0.2,0.6
		c0,0.3-0.1,0.4-0.2,0.6s-0.3,0.2-0.5,0.2s-0.4-0.1-0.5-0.2S-36.1,273.6-36.1,273.3z"/>
</g>
</svg>
