<?xml version="1.0" encoding="utf-8"?>
<!-- Generator: Adobe Illustrator 19.1.0, SVG Export Plug-In . SVG Version: 6.00 Build 0)  -->
<svg version="1.1" id="Layer_1" xmlns="http://www.w3.org/2000/svg" xmlns:xlink="http://www.w3.org/1999/xlink" x="0px" y="0px"
	 width="244.7px" height="69.8px" viewBox="-127 216.2 244.7 69.8" style="enable-background:new -127 216.2 244.7 69.8;"
	 xml:space="preserve">
<style type="text/css">
	.st0{fill:#B17F60;}
	.st1{fill:#344B62;}
	.st2{fill:none;}
	.st3{fill:#FCD4BB;}
</style>
<path class="st0" d="M114.7,221.6h-238.8c-1.6,0-2.9,1.4-2.9,3v58.5c0,1.6,1.3,2.9,2.9,2.9h238.8c1.6,0,2.9-1.3,2.9-2.9v-58.5
	C117.7,223,116.3,221.6,114.7,221.6z"/>
<path class="st1" d="M109.8,216.2h-231.5c-1.6,0-2.9,1.3-2.9,2.9v58.6c0,1.6,1.3,2.9,2.9,2.9h231.5c1.6,0,2.9-1.3,2.9-2.9v-58.6
	C112.7,217.5,111.4,216.2,109.8,216.2z"/>
<g>
	<rect x="-101.6" y="227.6" class="st2" width="191.7" height="72.4"/>
	<path class="st3" d="M-99.4,233.2v3.6h-1v-8.6h2.4c1.1,0,1.8,0.2,2.3,0.6c0.5,0.4,0.8,1,0.8,1.8c0,1.1-0.6,1.9-1.7,2.3l2.3,3.8
		h-1.2l-2.1-3.5H-99.4z M-99.4,232.3h1.4c0.7,0,1.2-0.1,1.5-0.4c0.3-0.3,0.5-0.7,0.5-1.2c0-0.6-0.2-1-0.5-1.2s-0.9-0.4-1.6-0.4h-1.3
		V232.3z"/>
	<path class="st3" d="M-93.2,228.6c0-0.2,0.1-0.4,0.2-0.5c0.1-0.1,0.2-0.2,0.4-0.2c0.2,0,0.3,0.1,0.4,0.2c0.1,0.1,0.2,0.3,0.2,0.5
		c0,0.2-0.1,0.4-0.2,0.5c-0.1,0.1-0.3,0.1-0.4,0.1c-0.2,0-0.3,0-0.4-0.1C-93.1,229-93.2,228.8-93.2,228.6z M-92.1,236.8h-1v-6.5h1
		V236.8z"/>
	<path class="st3" d="M-84.8,230.3v0.6l-1.2,0.2c0.1,0.1,0.2,0.3,0.3,0.5c0.1,0.2,0.1,0.5,0.1,0.7c0,0.6-0.2,1.1-0.6,1.5
		c-0.4,0.4-1,0.6-1.8,0.6c-0.2,0-0.4,0-0.5,0c-0.4,0.2-0.6,0.5-0.6,0.8c0,0.2,0.1,0.3,0.2,0.4c0.1,0.1,0.4,0.1,0.7,0.1h1.1
		c0.7,0,1.2,0.1,1.6,0.4c0.4,0.3,0.6,0.7,0.6,1.3c0,0.7-0.3,1.3-0.9,1.6c-0.6,0.3-1.4,0.6-2.5,0.6c-0.8,0-1.5-0.2-1.9-0.5
		c-0.4-0.3-0.7-0.8-0.7-1.3c0-0.4,0.1-0.7,0.4-1c0.3-0.3,0.6-0.5,1.1-0.6c-0.2-0.1-0.3-0.2-0.4-0.3s-0.2-0.3-0.2-0.5
		s0.1-0.4,0.2-0.6c0.1-0.2,0.3-0.3,0.6-0.5c-0.3-0.1-0.6-0.4-0.8-0.7c-0.2-0.3-0.3-0.7-0.3-1.1c0-0.7,0.2-1.2,0.6-1.6
		c0.4-0.4,1-0.7,1.7-0.7c0.3,0,0.6,0,0.9,0.1H-84.8z M-89.9,237.8c0,0.3,0.1,0.6,0.4,0.8s0.7,0.3,1.3,0.3c0.8,0,1.4-0.1,1.8-0.4
		c0.4-0.3,0.6-0.6,0.6-1c0-0.3-0.1-0.6-0.3-0.7c-0.2-0.1-0.6-0.2-1.2-0.2h-1.2c-0.4,0-0.8,0.1-1,0.3
		C-89.7,237.1-89.9,237.4-89.9,237.8z M-89.4,232.4c0,0.4,0.1,0.8,0.4,1s0.6,0.3,1.1,0.3c0.9,0,1.4-0.5,1.4-1.4c0-1-0.5-1.4-1.4-1.4
		c-0.5,0-0.8,0.1-1.1,0.4C-89.3,231.6-89.4,231.9-89.4,232.4z"/>
	<path class="st3" d="M-79.1,236.8v-4.2c0-0.5-0.1-0.9-0.4-1.2s-0.6-0.4-1.1-0.4c-0.7,0-1.2,0.2-1.5,0.6c-0.3,0.4-0.5,1-0.5,1.8v3.4
		h-1v-9.2h1v2.8c0,0.3,0,0.6,0,0.8h0.1c0.2-0.3,0.5-0.6,0.8-0.7c0.3-0.1,0.8-0.3,1.2-0.3c0.8,0,1.4,0.2,1.8,0.6
		c0.4,0.4,0.6,1,0.6,1.8v4.2H-79.1z"/>
	<path class="st3" d="M-74.1,236.1c0.2,0,0.3,0,0.5,0s0.3-0.1,0.4-0.1v0.7c-0.1,0.1-0.3,0.1-0.5,0.1s-0.4,0-0.6,0
		c-1.2,0-1.9-0.7-1.9-2v-3.7H-77v-0.5l0.9-0.4l0.4-1.4h0.6v1.5h1.9v0.8h-1.9v3.8c0,0.4,0.1,0.7,0.3,0.9
		C-74.6,236-74.4,236.1-74.1,236.1z"/>
	<path class="st3" d="M-65.8,230.2c0.8,0,1.5,0.3,2,0.9c0.5,0.6,0.7,1.4,0.7,2.4s-0.2,1.9-0.7,2.5c-0.5,0.6-1.1,0.9-2,0.9
		c-0.4,0-0.8-0.1-1.1-0.2c-0.3-0.1-0.6-0.4-0.9-0.7h-0.1l-0.2,0.8h-0.7v-9.2h1v2.2c0,0.5,0,0.9,0,1.3l0,0
		C-67.4,230.6-66.7,230.2-65.8,230.2z M-65.9,231c-0.7,0-1.1,0.2-1.4,0.6c-0.3,0.4-0.4,1-0.4,1.9c0,0.9,0.2,1.5,0.5,1.9
		c0.3,0.4,0.8,0.6,1.4,0.6c0.6,0,1-0.2,1.3-0.7c0.3-0.5,0.4-1.1,0.4-1.9s-0.1-1.5-0.4-1.9S-65.3,231-65.9,231z"/>
	<path class="st3" d="M-58.5,230.2c0.3,0,0.5,0,0.8,0.1l-0.2,0.9c-0.3-0.1-0.5-0.1-0.7-0.1c-0.5,0-1,0.2-1.3,0.6s-0.6,0.9-0.6,1.6
		v3.4h-1v-6.4h0.8l0.1,1.2l0,0c0.2-0.4,0.5-0.7,0.9-1S-58.9,230.2-58.5,230.2z"/>
	<path class="st3" d="M-52.6,236.8l-0.2-0.9l0,0c-0.3,0.4-0.6,0.7-1,0.8s-0.7,0.2-1.2,0.2c-0.6,0-1.1-0.2-1.5-0.5s-0.5-0.8-0.5-1.4
		c0-1.3,1-2,3.1-2h1.1v-0.4c0-0.5-0.1-0.9-0.3-1.1s-0.6-0.4-1-0.4c-0.5,0-1.1,0.2-1.8,0.5l-0.3-0.7c0.3-0.2,0.7-0.3,1-0.4
		c0.3-0.1,0.7-0.3,1.1-0.3c0.8,0,1.3,0.2,1.7,0.5s0.6,0.9,0.6,1.6v4.4h-0.8V236.8z M-54.8,236.1c0.6,0,1.1-0.2,1.4-0.5
		c0.3-0.3,0.5-0.8,0.5-1.4v-0.6h-1c-0.8,0-1.3,0.1-1.7,0.4c-0.4,0.3-0.5,0.5-0.5,1c0,0.4,0.1,0.6,0.3,0.8
		C-55.6,236-55.2,236.1-54.8,236.1z"/>
	<path class="st3" d="M-49.9,228.6c0-0.2,0.1-0.4,0.2-0.5c0.1-0.1,0.2-0.2,0.4-0.2s0.3,0.1,0.4,0.2c0.1,0.1,0.2,0.3,0.2,0.5
		c0,0.2-0.2,0.4-0.3,0.5c-0.1,0.1-0.2,0.1-0.4,0.1s-0.3-0.1-0.4-0.2C-49.9,228.9-49.9,228.8-49.9,228.6z M-48.9,236.8h-1v-6.5h1
		V236.8z"/>
	<path class="st3" d="M-42.4,236.8v-4.2c0-0.5-0.1-0.9-0.4-1.2s-0.6-0.4-1.1-0.4c-0.7,0-1.2,0.2-1.5,0.5s-0.5,1-0.5,1.8v3.4h-1v-6.4
		h0.9l0.1,0.9l0,0c0.2-0.3,0.5-0.6,0.8-0.7c0.3-0.1,0.9-0.3,1.3-0.3c0.8,0,1.4,0.2,1.8,0.6c0.4,0.4,0.6,1,0.6,1.8v4.2H-42.4z"/>
	<path class="st3" d="M-36.8,236.9c-0.9,0-1.7-0.3-2.2-0.9c-0.5-0.6-0.8-1.4-0.8-2.4s0.3-1.9,0.8-2.5c0.5-0.6,1.1-0.9,2-0.9
		c0.8,0,1.4,0.3,1.9,0.8s0.7,1.2,0.7,2.1v0.6h-4.4c0,0.8,0.2,1.3,0.6,1.7c0.4,0.4,0.9,0.6,1.5,0.6c0.7,0,1.4-0.1,2.1-0.4v0.9
		c-0.3,0.1-0.7,0.3-1,0.3S-36.3,236.9-36.8,236.9z M-37,231c-0.5,0-0.9,0.2-1.2,0.5s-0.5,0.8-0.5,1.4h3.4c0-0.6-0.1-1.1-0.4-1.4
		S-36.5,231-37,231z"/>
	<path class="st3" d="M-28.4,235.9L-28.4,235.9c-0.5,0.7-1.2,1-2.1,1c-0.8,0-1.5-0.3-2-0.9c-0.5-0.6-0.7-1.4-0.7-2.4
		s0.2-1.9,0.7-2.5c0.5-0.6,1.1-0.9,2-0.9s1.5,0.3,2,0.9h0.1v-0.5v-0.5v-2.5h1v9.1h-0.8L-28.4,235.9z M-30.3,236.1
		c0.7,0,1.1-0.2,1.4-0.5c0.3-0.3,0.4-0.9,0.4-1.7v-0.2c0-0.9-0.2-1.6-0.5-1.9c-0.3-0.3-0.8-0.6-1.5-0.6c-0.6,0-1,0.2-1.3,0.7
		s-0.5,1.1-0.5,1.9c0,0.8,0.2,1.4,0.5,1.9S-30.9,236.1-30.3,236.1z"/>
	<path class="st3" d="M-19.3,236.9c-0.4,0-0.8-0.1-1.1-0.2s-0.6-0.4-0.9-0.7h-0.1c0,0.4,0.1,0.7,0.1,1.1v2.6h-1v-9.4h0.8l0.2,0.9
		l0,0c0.2-0.4,0.5-0.6,0.9-0.8s0.7-0.2,1.1-0.2c0.9,0,1.5,0.3,2,0.9c0.5,0.6,0.7,1.4,0.7,2.4c0,1.1-0.2,1.9-0.7,2.5
		C-17.8,236.6-18.4,236.9-19.3,236.9z M-19.4,231c-0.7,0-1.1,0.2-1.4,0.5s-0.4,0.9-0.5,1.7v0.2c0,0.9,0.2,1.5,0.5,1.9
		c0.3,0.4,0.8,0.6,1.4,0.6s1-0.2,1.3-0.7s0.5-1.1,0.5-1.9c0-0.8-0.2-1.4-0.5-1.8C-18.4,231.1-18.8,231-19.4,231z"/>
	<path class="st3" d="M-12.2,236.9c-0.9,0-1.7-0.3-2.2-0.9c-0.5-0.6-0.8-1.4-0.8-2.4s0.3-1.9,0.8-2.5c0.5-0.6,1.1-0.9,2-0.9
		c0.8,0,1.4,0.3,1.9,0.8s0.7,1.2,0.7,2.1v0.6h-4.4c0,0.8,0.2,1.3,0.6,1.7c0.4,0.4,0.9,0.6,1.5,0.6c0.7,0,1.4-0.1,2.1-0.4v0.9
		c-0.3,0.1-0.7,0.3-1,0.3S-11.8,236.9-12.2,236.9z M-12.5,231c-0.5,0-0.9,0.2-1.2,0.5s-0.5,0.8-0.5,1.4h3.4c0-0.6-0.1-1.1-0.4-1.4
		S-11.9,231-12.5,231z"/>
	<path class="st3" d="M-2.6,233.5c0,1-0.3,1.9-0.8,2.5c-0.5,0.6-1.3,0.9-2.2,0.9c-0.6,0-1.1-0.1-1.5-0.4s-0.8-0.7-1-1.2
		s-0.4-1.1-0.4-1.8c0-1,0.3-1.9,0.8-2.4s1.2-0.9,2.2-0.9c0.9,0,1.6,0.3,2.1,0.9C-2.9,231.7-2.6,232.5-2.6,233.5z M-7.5,233.5
		c0,0.8,0.2,1.4,0.5,1.9s0.8,0.6,1.4,0.6s1.1-0.2,1.5-0.6c0.4-0.4,0.5-1.1,0.5-1.9s-0.2-1.4-0.5-1.9s-0.8-0.6-1.5-0.6
		c-0.6,0-1.1,0.2-1.4,0.6C-7.3,232-7.5,232.7-7.5,233.5z"/>
	<path class="st3" d="M2.1,236.9c-0.4,0-0.8-0.1-1.1-0.2s-0.6-0.4-0.9-0.7H0c0,0.4,0.1,0.7,0.1,1.1v2.6h-1v-9.4h0.8l0.1,0.9l0,0
		c0.2-0.4,0.5-0.6,0.9-0.8s0.7-0.2,1.1-0.2c0.9,0,1.5,0.3,2,0.9c0.5,0.6,0.7,1.4,0.7,2.4c0,1.1-0.2,1.9-0.7,2.5
		C3.5,236.6,2.9,236.9,2.1,236.9z M1.9,231c-0.7,0-1.1,0.2-1.4,0.5s-0.4,0.9-0.5,1.7v0.2c0,0.9,0.2,1.5,0.5,1.9
		c0.3,0.4,0.8,0.6,1.4,0.6s1-0.2,1.3-0.7s0.5-1.1,0.5-1.9c0-0.8-0.2-1.4-0.5-1.8C2.9,231.1,2.5,231,1.9,231z"/>
	<path class="st3" d="M7.4,236.8h-1v-9.2h1V236.8z"/>
	<path class="st3" d="M12.2,236.9c-0.9,0-1.7-0.3-2.2-0.9c-0.5-0.6-0.8-1.4-0.8-2.4s0.3-1.9,0.8-2.5c0.5-0.6,1.2-0.9,2.1-0.9
		c0.8,0,1.4,0.3,1.9,0.8s0.7,1.2,0.7,2.1v0.6h-4.4c0,0.8,0.2,1.3,0.6,1.7c0.4,0.4,0.9,0.6,1.5,0.6c0.7,0,1.4-0.1,2.1-0.4v0.9
		c-0.3,0.1-0.7,0.3-1,0.3S12.6,236.9,12.2,236.9z M11.9,231c-0.5,0-0.9,0.2-1.2,0.5s-0.5,0.8-0.5,1.4h3.4c0-0.6-0.1-1.1-0.4-1.4
		S12.4,231,11.9,231z"/>
	<path class="st3" d="M24.6,236.8l-1.2-3.8c-0.1-0.2-0.2-0.8-0.4-1.6l0,0c-0.2,0.7-0.3,1.2-0.4,1.6l-1.2,3.8h-1.1l-1.8-6.4h1
		c0.4,1.6,0.7,2.8,0.9,3.7c0.2,0.9,0.3,1.4,0.4,1.7l0,0c0-0.2,0.1-0.5,0.2-0.9c0.1-0.4,0.2-0.6,0.2-0.8l1.2-3.7h1.1l1.1,3.7
		c0.2,0.7,0.4,1.2,0.4,1.7l0,0c0-0.1,0.1-0.4,0.1-0.7c0-0.3,0.5-1.9,1.2-4.7h1l-1.8,6.4H24.6z"/>
	<path class="st3" d="M28.6,228.6c0-0.2,0.1-0.4,0.2-0.5c0.1-0.1,0.2-0.2,0.4-0.2s0.3,0.1,0.4,0.2c0.1,0.1,0.2,0.3,0.2,0.5
		c0,0.2-0.1,0.4-0.2,0.5c-0.1,0.1-0.3,0.1-0.5,0.1s-0.3-0.1-0.4-0.2C28.6,228.9,28.6,228.8,28.6,228.6z M29.6,236.8h-1v-6.5h1V236.8
		z"/>
	<path class="st3" d="M32.7,236.8h-1v-9.2h1V236.8z"/>
	<path class="st3" d="M35.7,236.8h-1v-9.2h1V236.8z"/>
	<path class="st3" d="M-98,251.3c-0.9,0-1.6-0.3-2.2-0.9c-0.6-0.6-0.8-1.4-0.8-2.4c0-1.1,0.3-1.9,0.8-2.5s1.3-0.9,2.2-0.9
		c0.3,0,0.6,0,0.9,0.1c0.3,0.1,0.6,0.1,0.7,0.2l-0.3,0.8c-0.2-0.1-0.4-0.2-0.7-0.2c-0.3,0-0.5-0.1-0.7-0.1c-1.3,0-2,0.8-2,2.5
		c0,0.8,0.2,1.4,0.5,1.8c0.3,0.4,0.8,0.6,1.4,0.6c0.5,0,1.1-0.1,1.6-0.3v0.9C-96.8,251.2-97.3,251.3-98,251.3z"/>
	<path class="st3" d="M-89.3,247.9c0,1-0.3,1.9-0.8,2.5c-0.5,0.6-1.3,0.9-2.2,0.9c-0.6,0-1.1-0.1-1.5-0.4c-0.4-0.3-0.8-0.7-1-1.2
		c-0.2-0.5-0.4-1.1-0.4-1.8c0-1,0.3-1.9,0.8-2.4s1.2-0.9,2.2-0.9c0.9,0,1.6,0.3,2.1,0.9S-89.3,246.9-89.3,247.9z M-94.2,247.9
		c0,0.8,0.2,1.4,0.5,1.9c0.3,0.5,0.8,0.6,1.4,0.6c0.6,0,1.1-0.2,1.5-0.6c0.3-0.4,0.5-1.1,0.5-1.9c0-0.8-0.2-1.4-0.5-1.9
		c-0.3-0.4-0.8-0.6-1.5-0.6c-0.6,0-1.1,0.2-1.4,0.6C-94,246.4-94.2,247.1-94.2,247.9z"/>
	<path class="st3" d="M-79.4,251.2V247c0-0.5-0.1-0.9-0.3-1.2c-0.2-0.3-0.6-0.4-1-0.4c-0.6,0-1.1,0.2-1.3,0.5s-0.4,0.9-0.4,1.6v3.7
		h-1V247c0-0.5-0.1-0.9-0.3-1.2c-0.2-0.3-0.6-0.4-1-0.4c-0.6,0-1.1,0.2-1.3,0.5c-0.2,0.3-0.4,1-0.4,1.8v3.5h-1v-6.4h0.8l0.2,0.9l0,0
		c0.2-0.3,0.4-0.6,0.8-0.7c0.4-0.1,0.7-0.3,1.1-0.3c1,0,1.7,0.4,2,1.1l0,0c0.2-0.3,0.5-0.6,0.8-0.8s0.8-0.3,1.2-0.3
		c0.7,0,1.3,0.2,1.6,0.6c0.3,0.4,0.5,1,0.5,1.8v4.1H-79.4z"/>
	<path class="st3" d="M-68.2,251.2V247c0-0.5-0.1-0.9-0.3-1.2c-0.2-0.3-0.6-0.4-1-0.4c-0.6,0-1.1,0.2-1.3,0.5
		c-0.2,0.3-0.4,0.9-0.4,1.6v3.7h-1V247c0-0.5-0.1-0.9-0.3-1.2c-0.2-0.3-0.6-0.4-1-0.4c-0.6,0-1.1,0.2-1.3,0.5
		c-0.2,0.3-0.4,1-0.4,1.8v3.5h-1v-6.4h0.8l0.2,0.9l0,0c0.2-0.3,0.4-0.6,0.8-0.7c0.4-0.1,0.7-0.3,1.1-0.3c1,0,1.7,0.4,2,1.1l0,0
		c0.2-0.3,0.5-0.6,0.8-0.8s0.8-0.3,1.2-0.3c0.7,0,1.3,0.2,1.6,0.6c0.3,0.4,0.5,1,0.5,1.8v4.1H-68.2z"/>
	<path class="st3" d="M-64.3,244.7v4.2c0,0.5,0.1,0.9,0.4,1.2c0.3,0.3,0.6,0.4,1.1,0.4c0.7,0,1.2-0.2,1.5-0.6c0.3-0.4,0.5-1,0.5-1.8
		v-3.4h1v6.5h-0.8l-0.1-0.9h-0.1c-0.2,0.3-0.5,0.6-0.8,0.7s-0.8,0.3-1.2,0.3c-0.8,0-1.4-0.2-1.8-0.6c-0.4-0.4-0.6-1-0.6-1.8v-4.2
		H-64.3z"/>
	<path class="st3" d="M-53.5,251.2V247c0-0.5-0.1-0.9-0.4-1.2c-0.3-0.3-0.6-0.4-1.1-0.4c-0.7,0-1.2,0.2-1.5,0.5s-0.5,1-0.5,1.8v3.5
		h-1v-6.4h0.8l0.2,0.9l0,0c0.2-0.3,0.5-0.6,0.8-0.7c0.3-0.1,0.8-0.3,1.2-0.3c0.8,0,1.4,0.2,1.7,0.6c0.3,0.4,0.6,1,0.6,1.8v4.1H-53.5
		z"/>
	<path class="st3" d="M-50.6,243c0-0.2,0.1-0.4,0.2-0.5c0.1-0.1,0.2-0.2,0.4-0.2s0.3,0.1,0.4,0.2c0.1,0.1,0.2,0.3,0.2,0.5
		c0,0.2-0.1,0.4-0.2,0.5c-0.1,0.1-0.2,0.2-0.4,0.2s-0.3-0.1-0.4-0.2C-50.5,243.4-50.6,243.2-50.6,243z M-49.5,251.2h-1v-6.4h1V251.2
		z"/>
	<path class="st3" d="M-44.9,251.3c-0.9,0-1.6-0.3-2.2-0.9c-0.6-0.6-0.8-1.4-0.8-2.4c0-1.1,0.3-1.9,0.8-2.5s1.3-0.9,2.2-0.9
		c0.3,0,0.6,0,0.9,0.1c0.3,0.1,0.6,0.1,0.7,0.2l-0.3,0.8c-0.2-0.1-0.4-0.2-0.7-0.2s-0.5-0.1-0.7-0.1c-1.3,0-2,0.8-2,2.5
		c0,0.8,0.2,1.4,0.5,1.8s0.8,0.6,1.4,0.6c0.5,0,1.1-0.1,1.6-0.3v0.9C-43.7,251.2-44.3,251.3-44.9,251.3z"/>
	<path class="st3" d="M-37.8,251.2l-0.2-1l0,0c-0.3,0.4-0.6,0.7-1,0.8c-0.4,0.1-0.7,0.2-1.2,0.2c-0.6,0-1.1-0.2-1.5-0.5
		s-0.5-0.8-0.5-1.4c0-1.3,1-2,3.1-2h1.1v-0.4c0-0.5-0.1-0.9-0.3-1.1c-0.2-0.2-0.6-0.4-1-0.4c-0.5,0-1.1,0.2-1.8,0.5l-0.4-0.7
		c0.3-0.2,0.7-0.3,1-0.4c0.3-0.1,0.8-0.1,1.1-0.1c0.8,0,1.3,0.2,1.7,0.5s0.6,0.9,0.6,1.6v4.4H-37.8z M-40,250.5
		c0.6,0,1.1-0.2,1.4-0.5c0.3-0.3,0.5-0.8,0.5-1.4V248h-1c-0.8,0-1.3,0.1-1.7,0.4s-0.5,0.5-0.5,1c0,0.4,0.1,0.6,0.3,0.8
		S-40.4,250.5-40,250.5z"/>
	<path class="st3" d="M-33,250.5c0.2,0,0.3,0,0.5,0s0.3-0.1,0.4-0.1v0.7c-0.2,0.1-0.3,0.1-0.5,0.1s-0.4,0-0.6,0
		c-1.2,0-1.9-0.7-1.9-2v-3.8H-36v-0.5l0.9-0.4l0.4-1.4h0.6v1.5h1.9v0.8h-1.9v3.8c0,0.4,0.1,0.7,0.3,0.9S-33.3,250.5-33,250.5z"/>
	<path class="st3" d="M-28.1,251.3c-0.9,0-1.7-0.3-2.2-0.9c-0.5-0.6-0.8-1.4-0.8-2.4s0.3-1.9,0.8-2.5s1.2-0.9,2.1-0.9
		c0.8,0,1.4,0.3,1.9,0.8s0.7,1.2,0.7,2.1v0.6H-30c0,0.8,0.2,1.3,0.6,1.7c0.4,0.4,0.9,0.6,1.5,0.6c0.7,0,1.4-0.1,2.1-0.4v0.9
		c-0.3,0.1-0.7,0.3-1,0.3S-27.7,251.3-28.1,251.3z M-28.4,245.4c-0.5,0-0.9,0.2-1.2,0.5c-0.3,0.3-0.5,0.8-0.5,1.4h3.4
		c0-0.6-0.1-1.1-0.4-1.4C-27.4,245.6-27.9,245.4-28.4,245.4z"/>
	<path class="st3" d="M-12.8,251.2V247c0-0.5-0.1-0.9-0.3-1.2c-0.2-0.3-0.6-0.4-1-0.4c-0.6,0-1.1,0.2-1.3,0.5s-0.4,0.9-0.4,1.6v3.7
		h-1V247c0-0.5-0.1-0.9-0.3-1.2c-0.2-0.3-0.6-0.4-1-0.4c-0.6,0-1.1,0.2-1.3,0.5s-0.4,1-0.4,1.8v3.5h-1v-6.4h0.8l0.2,0.9l0,0
		c0.2-0.3,0.4-0.6,0.8-0.7c0.4-0.1,0.7-0.3,1.1-0.3c1,0,1.7,0.4,2,1.1l0,0c0.2-0.3,0.5-0.6,0.8-0.8s0.8-0.3,1.2-0.3
		c0.7,0,1.3,0.2,1.6,0.6c0.3,0.4,0.5,1,0.5,1.8v4.1H-12.8z"/>
	<path class="st3" d="M-4.3,247.9c0,1-0.3,1.9-0.8,2.5c-0.5,0.6-1.3,0.9-2.2,0.9c-0.6,0-1.1-0.1-1.5-0.4c-0.4-0.3-0.8-0.7-1-1.2
		s-0.4-1.1-0.4-1.8c0-1,0.3-1.9,0.8-2.4s1.2-0.9,2.2-0.9c0.9,0,1.6,0.3,2.1,0.9S-4.3,246.9-4.3,247.9z M-9.2,247.9
		c0,0.8,0.2,1.4,0.5,1.9s0.8,0.6,1.4,0.6s1.1-0.2,1.5-0.6c0.4-0.4,0.5-1.1,0.5-1.9c0-0.8-0.2-1.4-0.5-1.9s-0.8-0.6-1.5-0.6
		c-0.6,0-1.1,0.2-1.4,0.6S-9.2,247.1-9.2,247.9z"/>
	<path class="st3" d="M0.3,244.6c0.3,0,0.5,0,0.8,0.1L1,245.6c-0.3-0.1-0.5-0.1-0.7-0.1c-0.5,0-1,0.2-1.3,0.6
		c-0.3,0.4-0.6,0.9-0.6,1.6v3.5h-1v-6.4h0.8l0.1,1.2l0,0c0.2-0.4,0.5-0.7,0.9-1S-0.1,244.6,0.3,244.6z"/>
	<path class="st3" d="M5,251.3c-0.9,0-1.7-0.3-2.2-0.9C2.3,249.8,2,249,2,248s0.3-1.9,0.8-2.5s1.2-0.9,2.1-0.9
		c0.8,0,1.4,0.3,1.9,0.8s0.7,1.2,0.7,2.1v0.6H3.1c0,0.8,0.2,1.3,0.6,1.7c0.4,0.4,0.9,0.6,1.5,0.6c0.7,0,1.4-0.1,2.1-0.4v0.9
		c-0.3,0.1-0.7,0.3-1,0.3S5.4,251.3,5,251.3z M4.7,245.4c-0.5,0-0.9,0.2-1.2,0.5c-0.3,0.3-0.5,0.8-0.5,1.4h3.4
		c0-0.6-0.1-1.1-0.4-1.4C5.7,245.6,5.3,245.4,4.7,245.4z"/>
	<path class="st3" d="M16.5,251.2V247c0-0.5-0.1-0.9-0.4-1.2c-0.3-0.3-0.6-0.4-1.1-0.4c-0.7,0-1.2,0.2-1.5,0.5s-0.5,1-0.5,1.8v3.5
		h-1v-6.4h0.8l0.2,0.9l0,0c0.2-0.3,0.5-0.6,0.8-0.7c0.3-0.1,0.8-0.3,1.2-0.3c0.8,0,1.4,0.2,1.7,0.6c0.3,0.4,0.6,1,0.6,1.8v4.1H16.5z
		"/>
	<path class="st3" d="M25.1,247.9c0,1-0.3,1.9-0.8,2.5c-0.5,0.6-1.3,0.9-2.2,0.9c-0.6,0-1.1-0.1-1.5-0.4c-0.4-0.3-0.8-0.7-1-1.2
		s-0.4-1.1-0.4-1.8c0-1,0.3-1.9,0.8-2.4s1.2-0.9,2.2-0.9c0.9,0,1.6,0.3,2.1,0.9S25.1,246.9,25.1,247.9z M20.2,247.9
		c0,0.8,0.2,1.4,0.5,1.9s0.8,0.6,1.4,0.6s1.1-0.2,1.5-0.6c0.4-0.4,0.5-1.1,0.5-1.9c0-0.8-0.2-1.4-0.5-1.9s-0.8-0.6-1.5-0.6
		c-0.6,0-1.1,0.2-1.4,0.6S20.2,247.1,20.2,247.9z"/>
	<path class="st3" d="M31.2,251.2V247c0-0.5-0.1-0.9-0.4-1.2c-0.3-0.3-0.6-0.4-1.1-0.4c-0.7,0-1.2,0.2-1.5,0.5s-0.5,1-0.5,1.8v3.5
		h-1v-6.4h0.8l0.2,0.9l0,0c0.2-0.3,0.5-0.6,0.8-0.7c0.3-0.1,0.8-0.3,1.2-0.3c0.8,0,1.4,0.2,1.7,0.6c0.3,0.4,0.6,1,0.6,1.8v4.1H31.2z
		"/>
	<path class="st3" d="M33.6,248.4v-0.9h2.9v0.9H33.6z"/>
	<path class="st3" d="M39.4,251.2l-2.4-6.4h1l1.4,3.8c0.3,0.9,0.5,1.5,0.6,1.7l0,0c0-0.2,0.2-0.6,0.4-1.3s0.7-2.1,1.5-4.3h1
		l-2.4,6.4h-1.1V251.2z"/>
	<path class="st3" d="M46.7,251.3c-0.9,0-1.7-0.3-2.2-0.9c-0.5-0.6-0.8-1.4-0.8-2.4s0.3-1.9,0.8-2.5s1.2-0.9,2.1-0.9
		c0.8,0,1.4,0.3,1.9,0.8s0.7,1.2,0.7,2.1v0.6h-4.4c0,0.8,0.2,1.3,0.6,1.7c0.4,0.4,0.9,0.6,1.5,0.6c0.7,0,1.4-0.1,2.1-0.4v0.9
		c-0.3,0.1-0.7,0.3-1,0.3S47.1,251.3,46.7,251.3z M46.4,245.4c-0.5,0-0.9,0.2-1.2,0.5c-0.3,0.3-0.5,0.8-0.5,1.4h3.4
		c0-0.6-0.1-1.1-0.4-1.4C47.4,245.6,47,245.4,46.4,245.4z"/>
	<path class="st3" d="M53.7,244.6c0.3,0,0.5,0,0.8,0.1l-0.1,0.9c-0.3-0.1-0.5-0.1-0.7-0.1c-0.5,0-1,0.2-1.3,0.6
		c-0.3,0.4-0.6,0.9-0.6,1.6v3.5h-1v-6.4h0.8l0.1,1.2l0,0c0.2-0.4,0.5-0.7,0.9-1S53.3,244.6,53.7,244.6z"/>
	<path class="st3" d="M58.6,244.6c0.8,0,1.5,0.3,2,0.9c0.5,0.6,0.7,1.4,0.7,2.4s-0.2,1.9-0.7,2.5s-1.1,0.9-2,0.9
		c-0.4,0-0.8-0.1-1.1-0.2c-0.3-0.1-0.6-0.4-0.9-0.7h-0.1l-0.2,0.8h-0.7v-9.1h1v2.2c0,0.5,0,0.9,0,1.3l0,0
		C57.1,245,57.7,244.6,58.6,244.6z M58.5,245.4c-0.7,0-1.1,0.2-1.4,0.6s-0.4,1-0.4,1.9c0,0.9,0.2,1.5,0.5,1.9
		c0.3,0.4,0.8,0.6,1.4,0.6c0.6,0,1-0.2,1.3-0.7s0.4-1.1,0.4-1.9c0-0.8-0.1-1.5-0.4-1.9C59.6,245.5,59.1,245.4,58.5,245.4z"/>
	<path class="st3" d="M66.9,251.2l-0.2-0.9l0,0c-0.3,0.4-0.6,0.7-1,0.8c-0.4,0.1-0.7,0.2-1.2,0.2c-0.6,0-1.1-0.2-1.5-0.5
		c-0.4-0.3-0.5-0.8-0.5-1.4c0-1.3,1-2,3.1-2h1.1V247c0-0.5-0.1-0.9-0.3-1.1c-0.2-0.2-0.6-0.4-1-0.4c-0.5,0-1.1,0.2-1.8,0.5l-0.3-0.7
		c0.3-0.2,0.7-0.3,1-0.4c0.3-0.1,0.8-0.1,1.1-0.1c0.8,0,1.3,0.2,1.7,0.5c0.4,0.3,0.6,0.9,0.6,1.6v4.3H66.9z M64.7,250.5
		c0.6,0,1.1-0.2,1.4-0.5c0.3-0.3,0.5-0.8,0.5-1.4V248h-1c-0.8,0-1.3,0.1-1.7,0.4s-0.5,0.5-0.5,1c0,0.4,0.1,0.6,0.3,0.8
		S64.4,250.5,64.7,250.5z"/>
	<path class="st3" d="M70.6,251.2h-1v-9.1h1V251.2z"/>
	<path class="st3" d="M73.7,251.2h-1v-9.1h1V251.2z"/>
	<path class="st3" d="M74.7,244.7h1l1.4,3.7c0.3,0.8,0.5,1.4,0.6,1.8l0,0c0.1-0.2,0.2-0.5,0.3-1s0.7-2,1.6-4.5h1l-2.8,7.3
		c-0.3,0.7-0.6,1.2-1,1.5c-0.4,0.3-0.8,0.5-1.3,0.5c-0.3,0-0.6,0-0.9-0.1v-0.7c0.2,0,0.5,0.1,0.7,0.1c0.7,0,1.1-0.4,1.4-1.1l0.4-0.9
		L74.7,244.7z"/>
	<path class="st3" d="M-95.3,265.6l-1.2-3.8c-0.1-0.2-0.2-0.8-0.4-1.6l0,0c-0.2,0.7-0.3,1.2-0.4,1.6l-1.2,3.8h-1.2l-1.8-6.4h1
		c0.4,1.6,0.7,2.8,0.9,3.7c0.2,0.9,0.3,1.4,0.4,1.7l0,0c0-0.2,0.1-0.5,0.2-0.9c0.1-0.4,0.2-0.6,0.2-0.8l1.2-3.7h1.1l1.1,3.7
		c0.2,0.7,0.4,1.2,0.4,1.7l0,0c0-0.1,0.1-0.4,0.1-0.7c0-0.3,0.5-1.9,1.2-4.7h1l-1.8,6.4H-95.3z"/>
	<path class="st3" d="M-91.3,257.4c0-0.2,0.1-0.4,0.2-0.5s0.2-0.2,0.4-0.2c0.2,0,0.3,0.1,0.4,0.2c0.1,0.1,0.2,0.3,0.2,0.5
		c0,0.2-0.1,0.4-0.2,0.5c-0.1,0.1-0.2,0.2-0.4,0.2c-0.2,0-0.3-0.1-0.4-0.2S-91.3,257.6-91.3,257.4z M-90.2,265.6h-1v-6.4h1V265.6z"
		/>
	<path class="st3" d="M-86.1,264.9c0.2,0,0.3,0,0.5,0c0.2,0,0.3-0.1,0.4-0.1v0.7c-0.1,0.1-0.3,0.1-0.5,0.1c-0.2,0-0.4,0-0.6,0
		c-1.2,0-1.9-0.7-1.9-2v-3.8H-89v-0.5l0.9-0.4l0.4-1.4h0.6v1.5h1.9v0.8h-1.9v3.8c0,0.4,0.1,0.7,0.3,0.9S-86.4,264.9-86.1,264.9z"/>
	<path class="st3" d="M-79.5,265.6v-4.2c0-0.5-0.1-0.9-0.4-1.2c-0.3-0.3-0.6-0.4-1.1-0.4c-0.7,0-1.2,0.2-1.5,0.6s-0.5,1-0.5,1.8v3.4
		h-1v-9.1h1v2.7c0,0.3,0,0.6,0,0.8h0.1c0.2-0.3,0.5-0.6,0.8-0.7c0.3-0.1,0.8-0.3,1.2-0.3c0.8,0,1.4,0.2,1.8,0.6s0.6,1,0.6,1.8v4.2
		C-78.5,265.6-79.5,265.6-79.5,265.6z"/>
	<path class="st3" d="M-69.1,265.6v-4.2c0-0.5-0.1-0.9-0.4-1.2c-0.3-0.3-0.6-0.4-1.1-0.4c-0.7,0-1.2,0.2-1.5,0.6s-0.5,1-0.5,1.8v3.4
		h-1v-9.1h1v2.7c0,0.3,0,0.6,0,0.8h0.1c0.2-0.3,0.5-0.6,0.8-0.7c0.3-0.1,0.8-0.3,1.2-0.3c0.8,0,1.4,0.2,1.8,0.6
		c0.4,0.4,0.6,1,0.6,1.8v4.2C-68.1,265.6-69.1,265.6-69.1,265.6z"/>
	<path class="st3" d="M-62.1,265.6l-0.2-0.9l0,0c-0.3,0.4-0.6,0.7-1,0.8s-0.7,0.2-1.2,0.2c-0.6,0-1.1-0.2-1.5-0.5
		c-0.4-0.3-0.5-0.8-0.5-1.4c0-1.3,1-2,3.1-2h1.1v-0.4c0-0.5-0.1-0.9-0.3-1.1c-0.2-0.2-0.6-0.4-1-0.4c-0.5,0-1.1,0.2-1.8,0.5
		l-0.3-0.7c0.3-0.2,0.7-0.3,1-0.4c0.3-0.1,0.8-0.1,1.1-0.1c0.8,0,1.3,0.2,1.7,0.5c0.4,0.3,0.6,0.9,0.6,1.6v4.4L-62.1,265.6
		L-62.1,265.6z M-64.3,264.9c0.6,0,1.1-0.2,1.4-0.5c0.3-0.3,0.5-0.8,0.5-1.4v-0.6h-1c-0.8,0-1.3,0.1-1.7,0.4c-0.4,0.3-0.5,0.5-0.5,1
		c0,0.4,0.1,0.6,0.3,0.8C-65.1,264.8-64.7,264.9-64.3,264.9z"/>
	<path class="st3" d="M-55,265.6v-4.2c0-0.5-0.1-0.9-0.4-1.2c-0.3-0.3-0.6-0.4-1.1-0.4c-0.7,0-1.2,0.2-1.5,0.5
		c-0.3,0.3-0.5,1-0.5,1.8v3.4h-1v-6.4h0.8l0.2,0.9l0,0c0.2-0.3,0.5-0.6,0.8-0.7s0.8-0.3,1.2-0.3c0.8,0,1.4,0.2,1.7,0.6
		s0.6,1,0.6,1.8v4.2C-54.2,265.6-55,265.6-55,265.6z"/>
	<path class="st3" d="M-47.7,264.7L-47.7,264.7c-0.5,0.7-1.2,1-2.1,1c-0.8,0-1.5-0.3-2-0.9s-0.7-1.4-0.7-2.4s0.2-1.9,0.7-2.5
		s1.1-0.9,2-0.9s1.5,0.3,2,0.9h0.1v-0.5v-0.5v-2.6h1v9.1h-0.8L-47.7,264.7z M-49.6,264.9c0.7,0,1.1-0.2,1.4-0.5
		c0.3-0.3,0.4-0.9,0.4-1.7v-0.2c0-0.9-0.2-1.6-0.5-1.9c-0.3-0.3-0.8-0.6-1.5-0.6c-0.6,0-1,0.2-1.3,0.7s-0.5,1.1-0.5,1.9
		c0,0.8,0.2,1.4,0.5,1.9S-50.2,264.9-49.6,264.9z"/>
	<path class="st3" d="M-36.3,259.1v0.6l-1.2,0.1c0.1,0.1,0.2,0.3,0.3,0.5c0.1,0.2,0.1,0.5,0.1,0.7c0,0.6-0.2,1.1-0.6,1.5
		s-1,0.6-1.8,0.6c-0.2,0-0.4,0-0.5,0c-0.4,0.2-0.6,0.5-0.6,0.8c0,0.2,0.1,0.3,0.2,0.4s0.4,0.1,0.7,0.1h1.1c0.7,0,1.2,0.1,1.6,0.4
		c0.4,0.3,0.6,0.7,0.6,1.3c0,0.7-0.3,1.3-0.9,1.6c-0.6,0.3-1.4,0.6-2.5,0.6c-0.8,0-1.5-0.2-1.9-0.5s-0.7-0.8-0.7-1.3
		c0-0.4,0.1-0.7,0.4-1c0.3-0.3,0.6-0.5,1.1-0.6c-0.2-0.1-0.3-0.2-0.4-0.3c-0.1-0.1-0.2-0.3-0.2-0.5c0-0.2,0.1-0.4,0.2-0.6
		c0.1-0.2,0.3-0.3,0.6-0.5c-0.3-0.1-0.6-0.4-0.8-0.7c-0.2-0.3-0.3-0.7-0.3-1.1c0-0.7,0.2-1.2,0.6-1.6s1-0.6,1.8-0.6
		c0.3,0,0.6,0,0.9,0.1H-36.3z M-41.4,266.6c0,0.3,0.1,0.6,0.4,0.8c0.3,0.2,0.7,0.3,1.3,0.3c0.8,0,1.4-0.1,1.8-0.4
		c0.4-0.3,0.6-0.6,0.6-1c0-0.3-0.1-0.6-0.3-0.7s-0.6-0.2-1.2-0.2H-40c-0.4,0-0.8,0.1-1,0.3C-41.2,265.9-41.4,266.2-41.4,266.6z
		 M-40.9,261.2c0,0.4,0.1,0.8,0.4,1c0.3,0.2,0.6,0.3,1.1,0.3c0.9,0,1.4-0.5,1.4-1.4c0-1-0.5-1.4-1.4-1.4c-0.5,0-0.8,0.1-1.1,0.4
		C-40.8,260.4-40.9,260.7-40.9,261.2z"/>
	<path class="st3" d="M-32.3,265.7c-0.9,0-1.7-0.3-2.2-0.9s-0.8-1.4-0.8-2.4s0.3-1.9,0.8-2.5s1.2-0.9,2.1-0.9c0.8,0,1.4,0.3,1.9,0.8
		s0.7,1.2,0.7,2.1v0.6h-4.4c0,0.8,0.2,1.3,0.6,1.7s0.9,0.6,1.5,0.6c0.7,0,1.4-0.1,2.1-0.4v0.9c-0.3,0.1-0.7,0.3-1,0.3
		S-31.9,265.7-32.3,265.7z M-32.5,259.8c-0.5,0-0.9,0.2-1.2,0.5c-0.3,0.3-0.5,0.8-0.5,1.4h3.2c0-0.6-0.1-1.1-0.4-1.4
		C-31.7,260-32,259.8-32.5,259.8z"/>
	<path class="st3" d="M-24.1,263.8c0,0.6-0.2,1.1-0.7,1.4c-0.5,0.3-1.1,0.5-1.9,0.5c-0.9,0-1.5-0.1-2-0.4v-0.9
		c0.3,0.2,0.6,0.3,1,0.4s0.7,0.1,1,0.1c0.5,0,0.9-0.1,1.2-0.2s0.4-0.4,0.4-0.7c0-0.2-0.1-0.5-0.3-0.6s-0.6-0.4-1.3-0.6
		c-0.6-0.2-1-0.4-1.3-0.6c-0.3-0.2-0.4-0.4-0.6-0.6c-0.2-0.2-0.2-0.5-0.2-0.8c0-0.5,0.2-0.9,0.6-1.2c0.4-0.3,1-0.5,1.8-0.5
		c0.7,0,1.4,0.1,2,0.4l-0.2,0.7c-0.6-0.3-1.2-0.4-1.8-0.4c-0.5,0-0.8,0.1-1,0.2s-0.4,0.3-0.4,0.6c0,0.2,0,0.3,0.1,0.4
		s0.2,0.2,0.4,0.3c0.2,0.1,0.6,0.3,1.1,0.5c0.8,0.3,1.3,0.6,1.5,0.8C-24.5,262.8-24.1,263.4-24.1,263.8z"/>
	<path class="st3" d="M-20.5,264.9c0.2,0,0.3,0,0.5,0s0.3-0.1,0.4-0.1v0.7c-0.1,0.1-0.3,0.1-0.5,0.1s-0.4,0-0.6,0
		c-1.2,0-1.9-0.7-1.9-2v-3.8h-0.9v-0.5l0.9-0.4l0.4-1.4h0.6v1.5h1.9v0.8h-1.9v3.8c0,0.4,0.1,0.7,0.3,0.9S-20.8,264.9-20.5,264.9z"/>
	<path class="st3" d="M-17.4,259.1v4.2c0,0.5,0.1,0.9,0.4,1.2s0.6,0.4,1.1,0.4c0.7,0,1.2-0.2,1.5-0.6c0.3-0.4,0.5-1,0.5-1.8v-3.4h1
		v6.4h-0.8l-0.1-0.9H-14c-0.2,0.3-0.5,0.6-0.8,0.7c-0.3,0.1-0.8,0.3-1.2,0.3c-0.8,0-1.4-0.2-1.8-0.6s-0.6-1-0.6-1.8V259h1V259.1z"/>
	<path class="st3" d="M-8,259c0.3,0,0.5,0,0.8,0.1l-0.1,0.9c-0.3-0.1-0.5-0.1-0.7-0.1c-0.5,0-1,0.2-1.3,0.6s-0.7,1-0.7,1.6v3.4h-1
		v-6.4h0.8l0.1,1.2l0,0c0.2-0.4,0.5-0.7,0.9-1C-8.8,259-8.4,259-8,259z"/>
	<path class="st3" d="M-3.3,265.7c-0.9,0-1.7-0.3-2.2-0.9s-0.8-1.4-0.8-2.4s0.3-1.9,0.8-2.5s1.2-0.9,2.1-0.9c0.8,0,1.4,0.3,1.9,0.8
		s0.7,1.2,0.7,2.1v0.6h-4.4c0,0.8,0.2,1.3,0.6,1.7s0.9,0.6,1.5,0.6c0.7,0,1.4-0.1,2.1-0.4v0.9c-0.3,0.1-0.7,0.3-1,0.3
		S-2.9,265.7-3.3,265.7z M-3.6,259.8c-0.5,0-0.9,0.2-1.2,0.5c-0.3,0.3-0.5,0.8-0.5,1.4h3.4c0-0.6-0.1-1.1-0.4-1.4
		C-2.6,260-3.1,259.8-3.6,259.8z"/>
	<path class="st3" d="M4.8,263.8c0,0.6-0.2,1.1-0.7,1.4c-0.5,0.3-1.1,0.5-1.9,0.5c-0.9,0-1.5-0.1-2-0.4v-0.9c0.3,0.2,0.6,0.3,1,0.4
		s0.7,0.1,1,0.1c0.5,0,0.9-0.1,1.2-0.2s0.4-0.4,0.4-0.7c0-0.2-0.1-0.5-0.3-0.6s-0.6-0.4-1.3-0.6c-0.6-0.2-1-0.4-1.3-0.6
		c-0.3-0.2-0.4-0.4-0.6-0.6c-0.2-0.2-0.2-0.5-0.2-0.8c0-0.5,0.2-0.9,0.6-1.2c0.4-0.3,1-0.5,1.8-0.5c0.7,0,1.4,0.1,2,0.4l-0.3,0.8
		c-0.6-0.3-1.2-0.4-1.8-0.4c-0.5,0-0.8,0.1-1,0.2S1,260.4,1,260.7c0,0.2,0,0.3,0.1,0.4s0.2,0.2,0.4,0.3s0.6,0.3,1.1,0.5
		c0.8,0.3,1.3,0.6,1.5,0.8C4.3,262.9,4.8,263.4,4.8,263.8z"/>
	<path class="st3" d="M13.5,265.6l-0.2-0.9l0,0c-0.3,0.4-0.6,0.7-1,0.8s-0.7,0.2-1.2,0.2c-0.6,0-1.1-0.2-1.5-0.5
		c-0.4-0.3-0.5-0.8-0.5-1.4c0-1.3,1-2,3.1-2h1.1v-0.4c0-0.5-0.1-0.9-0.3-1.1c-0.2-0.2-0.6-0.4-1-0.4c-0.5,0-1.1,0.2-1.8,0.5
		l-0.3-0.7c0.3-0.2,0.7-0.3,1-0.4s0.8-0.1,1.1-0.1c0.8,0,1.3,0.2,1.7,0.5c0.4,0.3,0.6,0.9,0.6,1.6v4.4L13.5,265.6L13.5,265.6z
		 M11.3,264.9c0.6,0,1.1-0.2,1.4-0.5c0.3-0.3,0.5-0.8,0.5-1.4v-0.6h-1c-0.8,0-1.3,0.1-1.7,0.4c-0.4,0.3-0.5,0.5-0.5,1
		c0,0.4,0.1,0.6,0.3,0.8C10.5,264.8,10.9,264.9,11.3,264.9z"/>
	<path class="st3" d="M20.6,265.6v-4.2c0-0.5-0.1-0.9-0.4-1.2c-0.3-0.3-0.6-0.4-1.1-0.4c-0.7,0-1.2,0.2-1.5,0.5
		c-0.3,0.3-0.5,1-0.5,1.8v3.4h-1v-6.4h0.8l0.2,0.9l0,0c0.2-0.3,0.5-0.6,0.8-0.7s0.8-0.3,1.2-0.3c0.8,0,1.4,0.2,1.7,0.6
		s0.6,1,0.6,1.8v4.2C21.4,265.6,20.6,265.6,20.6,265.6z"/>
	<path class="st3" d="M27.9,264.7L27.9,264.7c-0.5,0.7-1.2,1-2.1,1c-0.8,0-1.5-0.3-2-0.9s-0.7-1.4-0.7-2.4s0.2-1.9,0.7-2.5
		s1.1-0.9,2-0.9s1.5,0.3,2,0.9h0.1v-0.5v-0.5v-2.6h1v9.1h-0.8L27.9,264.7z M26,264.9c0.7,0,1.1-0.2,1.4-0.5c0.3-0.3,0.4-0.9,0.4-1.7
		v-0.2c0-0.9-0.2-1.6-0.5-1.9c-0.3-0.3-0.8-0.6-1.5-0.6c-0.6,0-1,0.2-1.3,0.7s-0.5,1.1-0.5,1.9c0,0.8,0.2,1.4,0.5,1.9
		S25.4,264.9,26,264.9z"/>
	<path class="st3" d="M38.4,264.7L38.4,264.7c-0.5,0.7-1.2,1-2.1,1c-0.8,0-1.5-0.3-2-0.9s-0.7-1.4-0.7-2.4s0.2-1.9,0.7-2.5
		s1.1-0.9,2-0.9s1.5,0.3,2,0.9h0.1v-0.5v-0.5v-2.6h1v9.1h-0.8L38.4,264.7z M36.5,264.9c0.7,0,1.1-0.2,1.4-0.5
		c0.3-0.3,0.4-0.9,0.4-1.7v-0.2c0-0.9-0.2-1.6-0.5-1.9c-0.3-0.3-0.8-0.6-1.5-0.6c-0.6,0-1,0.2-1.3,0.7s-0.5,1.1-0.5,1.9
		c0,0.8,0.2,1.4,0.5,1.9S35.9,264.9,36.5,264.9z"/>
	<path class="st3" d="M44.3,259c0.3,0,0.5,0,0.8,0.1L45,260c-0.3-0.1-0.5-0.1-0.7-0.1c-0.5,0-1,0.2-1.3,0.6s-0.6,0.9-0.6,1.6v3.4h-1
		v-6.4h0.8l0.1,1.2l0,0c0.2-0.4,0.5-0.7,0.9-1C43.6,259,43.9,259,44.3,259z"/>
	<path class="st3" d="M50.2,265.6l-0.2-0.9l0,0c-0.3,0.4-0.6,0.7-1,0.8s-0.7,0.2-1.2,0.2c-0.6,0-1.1-0.2-1.5-0.5
		c-0.4-0.3-0.5-0.8-0.5-1.4c0-1.3,1-2,3.1-2H50v-0.4c0-0.5-0.1-0.9-0.3-1.1c-0.2-0.2-0.6-0.4-1-0.4c-0.5,0-1.1,0.2-1.8,0.5l-0.3-0.7
		c0.3-0.2,0.7-0.3,1-0.4s0.8-0.1,1.1-0.1c0.8,0,1.3,0.2,1.7,0.5c0.4,0.3,0.6,0.9,0.6,1.6v4.4L50.2,265.6L50.2,265.6z M48,264.9
		c0.6,0,1.1-0.2,1.4-0.5c0.3-0.3,0.5-0.8,0.5-1.4v-0.6h-1c-0.8,0-1.3,0.1-1.7,0.4c-0.4,0.3-0.5,0.5-0.5,1c0,0.4,0.1,0.6,0.3,0.8
		C47.2,264.8,47.7,264.9,48,264.9z"/>
	<path class="st3" d="M58.2,265.6l-1.2-3.8c-0.1-0.2-0.2-0.8-0.4-1.6l0,0c-0.2,0.7-0.3,1.2-0.4,1.6l-1.2,3.8h-1.1l-1.8-6.4h1
		c0.4,1.6,0.7,2.8,0.9,3.7s0.3,1.4,0.4,1.7l0,0c0-0.2,0.1-0.5,0.2-0.9c0.1-0.4,0.2-0.6,0.2-0.8l1.2-3.7h1.1l1.1,3.7
		c0.2,0.7,0.4,1.2,0.4,1.7l0,0c0-0.1,0.1-0.4,0.1-0.7c0-0.3,0.5-1.9,1.2-4.7h1l-1.8,6.4H58.2z"/>
	<path class="st3" d="M62.2,257.4c0-0.2,0.1-0.4,0.2-0.5s0.2-0.2,0.4-0.2s0.3,0.1,0.4,0.2s0.2,0.3,0.2,0.5c0,0.2-0.1,0.4-0.2,0.5
		s-0.2,0.2-0.4,0.2s-0.3-0.1-0.4-0.2S62.2,257.6,62.2,257.4z M63.3,265.6h-1v-6.4h1V265.6z"/>
	<path class="st3" d="M69.7,265.6v-4.2c0-0.5-0.1-0.9-0.4-1.2c-0.3-0.3-0.6-0.4-1.1-0.4c-0.7,0-1.2,0.2-1.5,0.5
		c-0.3,0.3-0.5,1-0.5,1.8v3.4h-1v-6.4H66l0.2,0.9l0,0c0.2-0.3,0.5-0.6,0.8-0.7s0.8-0.3,1.2-0.3c0.8,0,1.4,0.2,1.7,0.6s0.6,1,0.6,1.8
		v4.2C70.5,265.6,69.7,265.6,69.7,265.6z"/>
	<path class="st3" d="M78,259.1v0.6l-1.2,0.1c0.1,0.1,0.2,0.3,0.3,0.5c0.1,0.2,0.1,0.5,0.1,0.7c0,0.6-0.2,1.1-0.6,1.5
		s-1,0.6-1.8,0.6c-0.2,0-0.4,0-0.5,0c-0.4,0.2-0.6,0.5-0.6,0.8c0,0.2,0.1,0.3,0.2,0.4s0.4,0.1,0.7,0.1h1.1c0.7,0,1.2,0.1,1.6,0.4
		c0.4,0.3,0.6,0.7,0.6,1.3c0,0.7-0.3,1.3-0.9,1.6c-0.6,0.3-1.4,0.6-2.5,0.6c-0.8,0-1.5-0.2-1.9-0.5s-0.7-0.8-0.7-1.3
		c0-0.4,0.1-0.7,0.4-1c0.3-0.3,0.6-0.5,1.1-0.6c-0.2-0.1-0.3-0.2-0.4-0.3c-0.1-0.1-0.2-0.3-0.2-0.5c0-0.2,0.1-0.4,0.2-0.6
		c0.1-0.2,0.3-0.3,0.6-0.5c-0.3-0.1-0.6-0.4-0.8-0.7c-0.2-0.3-0.3-0.7-0.3-1.1c0-0.7,0.2-1.2,0.6-1.6s1-0.6,1.8-0.6
		c0.3,0,0.6,0,0.9,0.1H78z M72.8,266.6c0,0.3,0.1,0.6,0.4,0.8c0.3,0.2,0.7,0.3,1.3,0.3c0.8,0,1.4-0.1,1.8-0.4c0.4-0.3,0.6-0.6,0.6-1
		c0-0.3-0.1-0.6-0.3-0.7s-0.6-0.2-1.2-0.2h-1.2c-0.4,0-0.8,0.1-1,0.3C73,265.9,72.8,266.2,72.8,266.6z M73.4,261.2
		c0,0.4,0.1,0.8,0.4,1c0.3,0.2,0.6,0.3,1.1,0.3c0.9,0,1.4-0.5,1.4-1.4c0-1-0.5-1.4-1.4-1.4c-0.5,0-0.8,0.1-1.1,0.4
		C73.5,260.4,73.4,260.7,73.4,261.2z"/>
	<path class="st3" d="M83.4,263.8c0,0.6-0.2,1.1-0.7,1.4c-0.5,0.3-1.1,0.5-1.9,0.5c-0.9,0-1.5-0.1-2-0.4v-0.9c0.3,0.2,0.6,0.3,1,0.4
		s0.7,0.1,1,0.1c0.5,0,0.9-0.1,1.2-0.2s0.4-0.4,0.4-0.7c0-0.2-0.1-0.5-0.3-0.6s-0.6-0.4-1.3-0.6c-0.6-0.2-1-0.4-1.3-0.6
		c-0.3-0.2-0.4-0.4-0.6-0.6c-0.2-0.2-0.2-0.5-0.2-0.8c0-0.5,0.2-0.9,0.6-1.2c0.4-0.3,1-0.5,1.8-0.5c0.7,0,1.4,0.1,2,0.4l-0.3,0.8
		c-0.6-0.3-1.2-0.4-1.8-0.4c-0.5,0-0.8,0.1-1,0.2s-0.4,0.3-0.4,0.6c0,0.2,0,0.3,0.1,0.4s0.2,0.2,0.4,0.3s0.6,0.3,1.1,0.5
		c0.8,0.3,1.3,0.6,1.5,0.8C82.9,262.9,83.4,263.4,83.4,263.8z"/>
	<path class="st3" d="M84.9,264.9c0-0.3,0.1-0.5,0.2-0.6c0.1-0.1,0.3-0.2,0.5-0.2s0.4,0.1,0.5,0.2c0.1,0.1,0.2,0.3,0.2,0.6
		c0,0.3-0.1,0.4-0.2,0.6c-0.1,0.2-0.3,0.2-0.5,0.2s-0.4-0.1-0.5-0.2S84.9,265.2,84.9,264.9z"/>
</g>
</svg>
