<svg xmlns="http://www.w3.org/2000/svg" id="Layer_1" viewBox="0 0 438.8 59.3">
  <style>
    .st0{fill:#C95145;} .st1{fill:#B17F60;} .st2{fill:#344B62;} .st3{fill:#FCD4BB;}
  </style>
  <path d="M146.6 7.3h212.8v52H146.6z" class="st0"/>
  <path d="M205.8 7.3H12c-1.3 0-2.4 1.1-2.4 2.4v47.2c0 1.3 1.1 2.4 2.4 2.4h193.8c1.3 0 2.4-1.1 2.4-2.4V9.7c0-1.4-1-2.4-2.4-2.4z" class="st0"/>
  <path d="M436.2 7.3H210.8c-1.4 0-2.6 1.2-2.6 2.6v46.9c0 1.4 1.2 2.6 2.6 2.6h225.4c1.4 0 2.6-1.2 2.6-2.6v-47c0-1.4-1.2-2.5-2.6-2.5z" class="st1"/>
  <path d="M208.2 39.2h36.9v20.1h-36.9z" class="st1"/>
  <path d="M426.6 0H3.5C1.6 0 0 1.6 0 3.5v45C0 50.4 1.6 52 3.5 52h423.1c1.9 0 3.5-1.6 3.5-3.5v-45c.1-1.9-1.5-3.5-3.5-3.5z" class="st2"/>
  <path d="M45.9 20.3h-1.6l-6.4-9.9h-.1c.1 1.2.1 2.2.1 3.2v6.7h-1.3V8.6h1.5l6.4 9.8h.1c0-.1 0-.6-.1-1.4 0-.8-.1-1.3 0-1.7V8.6h1.3v11.7z" class="st3"/>
  <path d="M56.5 15.9c0 1.4-.4 2.6-1.1 3.4s-1.7 1.2-3 1.2c-.8 0-1.5-.2-2.1-.6-.6-.4-1.1-.9-1.4-1.6-.3-.7-.5-1.5-.5-2.4 0-1.4.4-2.6 1.1-3.4.7-.8 1.7-1.2 3-1.2 1.2 0 2.2.4 2.9 1.2.8.9 1.1 2 1.1 3.4zm-6.7 0c0 1.1.2 2 .7 2.6.5.6 1.1.9 2 .9s1.5-.3 2-.9.7-1.4.7-2.6c0-1.1-.2-2-.7-2.6s-1.1-.9-2-.9c-.9 0-1.5.3-2 .9-.5.6-.7 1.5-.7 2.6z" class="st3"/>
  <path d="M66.1 20.3l-1.6-5.2c-.1-.3-.3-1-.6-2.2h-.1c-.2.9-.4 1.7-.6 2.2l-1.7 5.2H60l-2.4-8.8H59c.6 2.2 1 3.9 1.3 5.1s.5 1.9.5 2.3h.1c.1-.3.2-.7.3-1.2.1-.5.2-.9.3-1.2l1.6-5.1h1.4l1.6 5.1c.3.9.5 1.7.6 2.3h.1c0-.2.1-.5.2-.9s.7-2.6 1.7-6.5h1.4l-2.4 8.8h-1.6z" class="st3"/>
  <path d="M78.8 19.4c.2 0 .5 0 .7-.1.2 0 .4-.1.5-.1v1c-.1.1-.4.1-.6.2-.3 0-.5.1-.8.1-1.7 0-2.6-.9-2.6-2.7v-5.3h-1.3v-.6l1.3-.6.6-1.9h.8v2H80v1h-2.6v5.2c0 .5.1.9.4 1.2s.6.6 1 .6z" class="st3"/>
  <path d="M87.8 20.3v-5.7c0-.7-.2-1.3-.5-1.6-.3-.4-.8-.5-1.5-.5-.9 0-1.6.3-2 .8-.4.5-.6 1.3-.6 2.5v4.6h-1.3V7.8h1.3v3.8c0 .5 0 .8-.1 1.1h.1c.3-.4.6-.8 1.1-1 .5-.2 1-.4 1.7-.4 1.1 0 1.9.3 2.4.8s.8 1.3.8 2.4v5.8h-1.4z" class="st3"/>
  <path d="M97.3 20.3L97 19c-.4.6-.9.9-1.3 1.1-.4.2-1 .3-1.6.3-.9 0-1.6-.2-2.1-.7-.5-.5-.7-1.1-.7-1.9 0-1.8 1.4-2.7 4.3-2.8h1.5v-.5c0-.7-.1-1.2-.4-1.5-.3-.3-.8-.5-1.4-.5-.7 0-1.6.2-2.5.7l-.4-1c.4-.2.9-.4 1.4-.6.5-.1 1-.2 1.6-.2 1.1 0 1.8.2 2.3.7.5.5.8 1.2.8 2.2v6h-1.2zm-3-.9c.8 0 1.5-.2 2-.7.5-.5.7-1.1.7-1.9V16h-1.3c-1.1 0-1.8.2-2.3.5s-.7.7-.7 1.4c0 .5.1.9.4 1.1s.7.4 1.2.4z" class="st3"/>
  <path d="M103.9 19.4c.2 0 .5 0 .7-.1.2 0 .4-.1.5-.1v1c-.1.1-.4.1-.6.2-.3 0-.5.1-.8.1-1.7 0-2.6-.9-2.6-2.7v-5.3h-1.3v-.6l1.3-.6.6-1.9h.8v2h2.6v1h-2.6v5.2c0 .5.1.9.4 1.2s.6.6 1 .6z" class="st3"/>
  <path d="M109.8 11.5h1.4l1.9 5c.4 1.1.7 2 .8 2.5h.1c.1-.3.2-.7.4-1.4s1-2.7 2.2-6.1h1.4l-3.8 10.1c-.4 1-.8 1.7-1.3 2.1s-1.1.6-1.8.6c-.4 0-.8 0-1.2-.1v-1.1c.3.1.6.1 1 .1.9 0 1.6-.5 2-1.5l.5-1.3-3.6-8.9z" class="st3"/>
  <path d="M127.1 15.9c0 1.4-.4 2.6-1.1 3.4s-1.7 1.2-3 1.2c-.8 0-1.5-.2-2.1-.6-.6-.4-1.1-.9-1.4-1.6-.3-.7-.5-1.5-.5-2.4 0-1.4.4-2.6 1.1-3.4.7-.8 1.7-1.2 3-1.2 1.2 0 2.2.4 2.9 1.2.8.9 1.1 2 1.1 3.4zm-6.7 0c0 1.1.2 2 .7 2.6.5.6 1.1.9 2 .9s1.5-.3 2-.9.7-1.4.7-2.6c0-1.1-.2-2-.7-2.6s-1.1-.9-2-.9c-.9 0-1.5.3-2 .9-.5.6-.7 1.5-.7 2.6z" class="st3"/>
  <path d="M130.7 11.5v5.7c0 .7.2 1.3.5 1.6.3.4.8.5 1.5.5.9 0 1.6-.3 2-.8.4-.5.6-1.3.6-2.5v-4.6h1.3v8.8h-1.1l-.2-1.2h-.1c-.3.4-.7.8-1.1 1-.5.2-1 .3-1.7.3-1.1 0-1.9-.3-2.4-.8s-.8-1.3-.8-2.4v-5.8h1.5z" class="st3"/>
  <path d="M148 11.4c1.2 0 2.1.4 2.7 1.2s1 1.9 1 3.4-.3 2.6-1 3.4-1.5 1.2-2.7 1.2c-.6 0-1.1-.1-1.6-.3-.5-.2-.9-.5-1.2-1h-.1l-.3 1.1h-1V7.8h1.3v3c0 .7 0 1.3-.1 1.8h.1c.7-.8 1.7-1.2 2.9-1.2zm-.2 1.1c-.9 0-1.6.3-2 .8-.4.5-.6 1.4-.6 2.6s.2 2.1.6 2.7c.4.5 1.1.8 2 .8.8 0 1.4-.3 1.8-.9s.6-1.5.6-2.6-.2-2-.6-2.6c-.3-.5-1-.8-1.8-.8z" class="st3"/>
  <path d="M157.7 20.5c-1.3 0-2.3-.4-3.1-1.2s-1.1-1.9-1.1-3.3.4-2.6 1.1-3.4c.7-.8 1.6-1.3 2.8-1.3 1.1 0 2 .4 2.6 1.1.6.7 1 1.7 1 2.9v.8h-6.1c0 1 .3 1.8.8 2.4.5.5 1.2.8 2.1.8 1 0 1.9-.2 2.8-.6v1.2c-.5.2-.9.4-1.3.4-.5.1-1 .2-1.6.2zm-.3-8c-.7 0-1.3.2-1.7.7-.4.5-.7 1.1-.7 1.9h4.6c0-.8-.2-1.5-.6-1.9-.4-.5-.9-.7-1.6-.7z" class="st3"/>
  <path d="M166.1 19.4c.2 0 .5 0 .7-.1.2 0 .4-.1.5-.1v1c-.1.1-.4.1-.6.2-.3 0-.5.1-.8.1-1.7 0-2.6-.9-2.6-2.7v-5.3H162v-.6l1.3-.6.6-1.9h.8v2h2.6v1h-2.6v5.2c0 .5.1.9.4 1.2s.6.6 1 .6z" class="st3"/>
  <path d="M171.9 19.4c.2 0 .5 0 .7-.1.2 0 .4-.1.5-.1v1c-.1.1-.4.1-.6.2-.3 0-.5.1-.8.1-1.7 0-2.6-.9-2.6-2.7v-5.3h-1.3v-.6l1.3-.6.6-1.9h.8v2h2.6v1h-2.6v5.2c0 .5.1.9.4 1.2s.6.6 1 .6z" class="st3"/>
  <path d="M178.6 20.5c-1.3 0-2.3-.4-3.1-1.2s-1.1-1.9-1.1-3.3.4-2.6 1.1-3.4c.7-.8 1.6-1.3 2.8-1.3 1.1 0 2 .4 2.6 1.1.6.7 1 1.7 1 2.9v.8h-6.1c0 1 .3 1.8.8 2.4.5.5 1.2.8 2.1.8 1 0 1.9-.2 2.8-.6v1.2c-.5.2-.9.4-1.3.4-.5.1-1 .2-1.6.2zm-.3-8c-.7 0-1.3.2-1.7.7-.4.5-.7 1.1-.7 1.9h4.6c0-.8-.2-1.5-.6-1.9-.4-.5-1-.7-1.6-.7z" class="st3"/>
  <path d="M188.2 11.3c.4 0 .7 0 1.1.1l-.2 1.2c-.4-.1-.7-.1-1-.1-.7 0-1.3.3-1.8.9-.5.6-.8 1.3-.8 2.2v4.7h-1.3v-8.8h1.1l.2 1.6h.1c.3-.6.7-1 1.2-1.3s.8-.5 1.4-.5z" class="st3"/>
  <path d="M195 9.1c0-.3.1-.5.2-.7.1-.1.3-.2.6-.2.2 0 .4.1.6.2s.2.4.2.7-.1.5-.2.7c-.2.1-.3.2-.6.2-.2 0-.4-.1-.6-.2-.1-.2-.2-.4-.2-.7zm1.5 11.2h-1.3v-8.8h1.3v8.8z" class="st3"/>
  <path d="M205.4 20.3v-5.7c0-.7-.2-1.3-.5-1.6-.3-.4-.8-.5-1.5-.5-.9 0-1.6.2-2 .7-.4.5-.6 1.3-.6 2.5v4.6h-1.3v-8.8h1.1l.2 1.2h.1c.3-.4.7-.8 1.2-1 .5-.2 1-.4 1.7-.4 1.1 0 1.9.3 2.4.8s.8 1.3.8 2.5v5.8h-1.6z" class="st3"/>
  <path d="M215.5 19.1c-.7.9-1.6 1.3-2.8 1.3-1.2 0-2.1-.4-2.7-1.2-.6-.8-1-1.9-1-3.4s.3-2.6 1-3.4c.6-.8 1.5-1.2 2.7-1.2 1.2 0 2.1.4 2.8 1.3h.1l-.1-.6V7.8h1.3v12.5h-1.1l-.2-1.2zm-2.7.3c.9 0 1.6-.2 2-.7s.6-1.3.6-2.4V16c0-1.3-.2-2.1-.6-2.7s-1.1-.8-2-.8c-.8 0-1.4.3-1.8.9s-.6 1.5-.6 2.6.2 2 .6 2.6c.4.5 1 .8 1.8.8z" class="st3"/>
  <path d="M223.3 20.5c-1.3 0-2.3-.4-3.1-1.2s-1.1-1.9-1.1-3.3.4-2.6 1.1-3.4c.7-.8 1.6-1.3 2.8-1.3 1.1 0 2 .4 2.6 1.1.6.7 1 1.7 1 2.9v.8h-6.1c0 1 .3 1.8.8 2.4.5.5 1.2.8 2.1.8 1 0 1.9-.2 2.8-.6v1.2c-.5.2-.9.4-1.3.4-.5.1-1 .2-1.6.2zm-.4-8c-.7 0-1.3.2-1.7.7-.4.5-.7 1.1-.7 1.9h4.6c0-.8-.2-1.5-.6-1.9-.3-.5-.9-.7-1.6-.7z" class="st3"/>
  <path d="M232.8 11.3c.4 0 .7 0 1.1.1l-.2 1.2c-.4-.1-.7-.1-1-.1-.7 0-1.3.3-1.8.9-.5.6-.8 1.3-.8 2.2v4.7h-1.3v-8.8h1.1l.2 1.6h.1c.3-.6.7-1 1.2-1.3s.9-.5 1.4-.5z" class="st3"/>
  <path d="M241.2 17.9c0 .8-.3 1.5-.9 1.9-.6.4-1.5.7-2.6.7-1.2 0-2.1-.2-2.7-.6v-1.2c.4.2.9.4 1.4.5s1 .2 1.4.2c.7 0 1.2-.1 1.6-.3s.6-.6.6-1c0-.3-.1-.6-.4-.9-.3-.2-.9-.5-1.7-.9-.8-.3-1.4-.6-1.8-.8-.3-.2-.6-.5-.8-.8-.2-.3-.3-.6-.3-1 0-.7.3-1.3.9-1.7.6-.4 1.4-.6 2.4-.6s1.9.2 2.8.6l-.5 1.1c-.9-.4-1.7-.5-2.4-.5-.6 0-1.1.1-1.4.3-.3.2-.5.5-.5.8 0 .2.1.4.2.6.1.2.3.3.6.5s.8.4 1.5.7c1 .4 1.8.8 2.1 1.2.4.1.5.6.5 1.2z" class="st3"/>
  <path d="M246.3 19.4c.2 0 .5 0 .7-.1.2 0 .4-.1.5-.1v1c-.1.1-.4.1-.6.2-.3 0-.5.1-.8.1-1.7 0-2.6-.9-2.6-2.7v-5.3h-1.3v-.6l1.3-.6.6-1.9h.8v2h2.6v1h-2.6v5.2c0 .5.1.9.4 1.2s.5.6 1 .6z" class="st3"/>
  <path d="M254.7 20.3l-.3-1.3h-.1c-.4.6-.9.9-1.3 1.1-.4.2-1 .3-1.6.3-.9 0-1.6-.2-2.1-.7-.5-.5-.7-1.1-.7-1.9 0-1.8 1.4-2.7 4.3-2.8h1.5v-.5c0-.7-.1-1.2-.4-1.5-.3-.3-.8-.5-1.4-.5-.7 0-1.6.2-2.5.7l-.4-1c.4-.2.9-.4 1.4-.6.5-.1 1-.2 1.6-.2 1.1 0 1.8.2 2.3.7.5.5.8 1.2.8 2.2v6h-1.1zm-3.1-.9c.8 0 1.5-.2 2-.7.5-.5.7-1.1.7-1.9V16H253c-1.1 0-1.8.2-2.3.5s-.7.7-.7 1.4c0 .5.1.9.4 1.1s.7.4 1.2.4z" class="st3"/>
  <path d="M264.4 20.3v-5.7c0-.7-.2-1.3-.5-1.6-.3-.4-.8-.5-1.5-.5-.9 0-1.6.2-2 .7-.4.5-.6 1.3-.6 2.5v4.6h-1.3v-8.8h1.1l.2 1.2h.1c.3-.4.7-.8 1.2-1 .5-.2 1-.4 1.7-.4 1.1 0 1.9.3 2.4.8s.8 1.3.8 2.5v5.8h-1.6z" class="st3"/>
  <path d="M274.5 19.1c-.7.9-1.6 1.3-2.8 1.3-1.2 0-2.1-.4-2.7-1.2-.6-.8-1-1.9-1-3.4s.3-2.6 1-3.4c.6-.8 1.5-1.2 2.7-1.2 1.2 0 2.1.4 2.8 1.3h.1l-.1-.6V7.8h1.3v12.5h-1.1l-.2-1.2zm-2.6.3c.9 0 1.6-.2 2-.7s.6-1.3.6-2.4V16c0-1.3-.2-2.1-.6-2.7s-1.1-.8-2-.8c-.8 0-1.4.3-1.8.9s-.6 1.5-.6 2.6.2 2 .6 2.6c.4.5 1 .8 1.8.8z" class="st3"/>
  <path d="M281.5 11.5h1.4l1.9 5c.4 1.1.7 2 .8 2.5h.1c.1-.3.2-.7.4-1.4s1-2.7 2.2-6.1h1.4L286 21.6c-.4 1-.8 1.7-1.3 2.1s-1.1.6-1.8.6c-.4 0-.8 0-1.2-.1v-1.1c.3.1.6.1 1 .1.9 0 1.6-.5 2-1.5l.5-1.3-3.7-8.9z" class="st3"/>
  <path d="M298.9 15.9c0 1.4-.4 2.6-1.1 3.4s-1.7 1.2-3 1.2c-.8 0-1.5-.2-2.1-.6-.6-.4-1.1-.9-1.4-1.6-.3-.7-.5-1.5-.5-2.4 0-1.4.4-2.6 1.1-3.4.7-.8 1.7-1.2 3-1.2 1.2 0 2.2.4 2.9 1.2.7.9 1.1 2 1.1 3.4zm-6.8 0c0 1.1.2 2 .7 2.6.5.6 1.1.9 2 .9s1.5-.3 2-.9.7-1.4.7-2.6c0-1.1-.2-2-.7-2.6s-1.1-.9-2-.9c-.9 0-1.5.3-2 .9-.5.6-.7 1.5-.7 2.6z" class="st3"/>
  <path d="M302.5 11.5v5.7c0 .7.2 1.3.5 1.6.3.4.8.5 1.5.5.9 0 1.6-.3 2-.8.4-.5.6-1.3.6-2.5v-4.6h1.3v8.8h-1.1l-.2-1.2h-.1c-.3.4-.7.8-1.1 1-.5.2-1 .3-1.7.3-1.1 0-1.9-.3-2.4-.8s-.8-1.3-.8-2.4v-5.8h1.5z" class="st3"/>
  <path d="M315.3 11.3c.4 0 .7 0 1.1.1l-.2 1.2c-.4-.1-.7-.1-1-.1-.7 0-1.3.3-1.8.9-.5.6-.8 1.3-.8 2.2v4.7h-1.3v-8.8h1.1l.2 1.6h.1c.3-.6.7-1 1.2-1.3s.9-.5 1.4-.5z" class="st3"/>
  <path d="M328 17.9c0 .8-.3 1.5-.9 1.9-.6.4-1.5.7-2.6.7-1.2 0-2.1-.2-2.7-.6v-1.2c.4.2.9.4 1.4.5s1 .2 1.4.2c.7 0 1.2-.1 1.6-.3s.6-.6.6-1c0-.3-.1-.6-.4-.9-.3-.2-.9-.5-1.7-.9-.8-.3-1.4-.6-1.8-.8-.3-.2-.6-.5-.8-.8-.2-.3-.3-.6-.3-1 0-.7.3-1.3.9-1.7.6-.4 1.4-.6 2.4-.6s1.9.2 2.8.6l-.5 1.1c-.9-.4-1.7-.5-2.4-.5-.6 0-1.1.1-1.4.3-.3.2-.5.5-.5.8 0 .2.1.4.2.6.1.2.3.3.6.5s.8.4 1.5.7c1 .4 1.8.8 2.1 1.2.3.1.5.6.5 1.2z" class="st3"/>
  <path d="M331.5 15.8c.2-.3.6-.8 1.1-1.3l2.9-3h1.6l-3.6 3.8 3.8 5.1h-1.6l-3.1-4.2-1 .9v3.3h-1.3V7.8h1.3v6.6c-.1.3-.1.8-.1 1.4z" class="st3"/>
  <path d="M338.7 9.1c0-.3.1-.5.2-.7.1-.1.3-.2.6-.2.2 0 .4.1.6.2s.2.4.2.7-.1.5-.2.7c-.2.1-.3.2-.6.2-.2 0-.4-.1-.6-.2-.1-.2-.2-.4-.2-.7zm1.5 11.2h-1.3v-8.8h1.3v8.8z" class="st3"/>
  <path d="M344.4 20.3H343V7.8h1.3v12.5z" class="st3"/>
  <path d="M348.5 20.3h-1.3V7.8h1.3v12.5z" class="st3"/>
  <path d="M357.1 17.9c0 .8-.3 1.5-.9 1.9-.6.4-1.5.7-2.6.7-1.2 0-2.1-.2-2.7-.6v-1.2c.4.2.9.4 1.4.5s1 .2 1.4.2c.7 0 1.2-.1 1.6-.3s.6-.6.6-1c0-.3-.1-.6-.4-.9-.3-.2-.9-.5-1.7-.9-.8-.3-1.4-.6-1.8-.8-.3-.2-.6-.5-.8-.8-.2-.3-.3-.6-.3-1 0-.7.3-1.3.9-1.7.6-.4 1.4-.6 2.4-.6s1.9.2 2.8.6l-.5 1.1c-.9-.4-1.7-.5-2.4-.5-.6 0-1.1.1-1.4.3-.3.2-.5.5-.5.8 0 .2.1.4.2.6.1.2.3.3.6.5s.8.4 1.5.7c1 .4 1.8.8 2.1 1.2.3.1.5.6.5 1.2z" class="st3"/>
  <path d="M369 20.3l-.3-1.3h-.1c-.4.6-.9.9-1.3 1.1-.4.2-1 .3-1.6.3-.9 0-1.6-.2-2.1-.7-.5-.5-.7-1.1-.7-1.9 0-1.8 1.4-2.7 4.3-2.8h1.5v-.5c0-.7-.1-1.2-.4-1.5-.3-.3-.8-.5-1.4-.5-.7 0-1.6.2-2.5.7l-.4-1c.4-.2.9-.4 1.4-.6.5-.1 1-.2 1.6-.2 1.1 0 1.8.2 2.3.7.5.5.8 1.2.8 2.2v6H369zm-3.1-.9c.8 0 1.5-.2 2-.7.5-.5.7-1.1.7-1.9V16l-1.3.1c-1.1 0-1.8.2-2.3.5s-.7.7-.7 1.4c0 .5.1.9.4 1.1s.7.3 1.2.3z" class="st3"/>
  <path d="M378.7 20.3v-5.7c0-.7-.2-1.3-.5-1.6-.3-.4-.8-.5-1.5-.5-.9 0-1.6.2-2 .7-.4.5-.6 1.3-.6 2.5v4.6h-1.3v-8.8h1.1l.2 1.2h.1c.3-.4.7-.8 1.2-1 .5-.2 1-.4 1.7-.4 1.1 0 1.9.3 2.4.8s.8 1.3.8 2.5v5.8h-1.6z" class="st3"/>
  <path d="M388.8 19.1c-.7.9-1.6 1.3-2.8 1.3-1.2 0-2.1-.4-2.7-1.2-.6-.8-1-1.9-1-3.4s.3-2.6 1-3.4c.6-.8 1.5-1.2 2.7-1.2 1.2 0 2.1.4 2.8 1.3h.1l-.1-.6V7.8h1.3v12.5H389l-.2-1.2zm-2.6.3c.9 0 1.6-.2 2-.7s.6-1.3.6-2.4V16c0-1.3-.2-2.1-.6-2.7s-1.1-.8-2-.8c-.8 0-1.4.3-1.8.9s-.6 1.5-.6 2.6.2 2 .6 2.6c.4.5 1 .8 1.8.8z" class="st3"/>
  <path d="M38.1 40.3c-.6 0-1.1-.1-1.6-.3-.5-.2-.9-.5-1.2-1h-.1c.1.5.1 1 .1 1.5v3.6H34V31.3h1.1l.2 1.2h.1c.3-.5.7-.8 1.2-1 .5-.2 1-.3 1.6-.3 1.2 0 2.1.4 2.7 1.2s1 1.9 1 3.4c0 1.4-.3 2.6-1 3.4s-1.7 1.1-2.8 1.1zm-.2-8c-.9 0-1.6.2-2 .7-.4.5-.6 1.3-.6 2.4v.3c0 1.2.2 2.1.6 2.7.4.5 1.1.8 2 .8.8 0 1.4-.3 1.8-.9.4-.6.6-1.5.6-2.6s-.2-1.9-.6-2.5-1-.9-1.8-.9z" class="st3"/>
  <path d="M48.1 31.1c.4 0 .7 0 1.1.1l-.2 1.3c-.4-.1-.7-.1-1-.1-.7 0-1.3.3-1.8.9-.5.6-.8 1.3-.8 2.2v4.7h-1.3v-8.8h1.1l.2 1.6h.1c.3-.6.7-1 1.2-1.3s.9-.6 1.4-.6z" class="st3"/>
  <path d="M54.5 40.3c-1.3 0-2.3-.4-3.1-1.2s-1.1-1.9-1.1-3.3.4-2.6 1.1-3.4c.7-.8 1.6-1.3 2.8-1.3 1.1 0 2 .4 2.6 1.1.6.7 1 1.7 1 2.9v.8h-6.1c0 1 .3 1.8.8 2.4.5.5 1.2.8 2.1.8 1 0 1.9-.2 2.8-.6v1.2c-.5.2-.9.4-1.3.4-.5.1-1 .2-1.6.2zm-.3-8c-.7 0-1.3.2-1.7.7-.4.5-.7 1.1-.7 1.9h4.6c0-.8-.2-1.5-.6-1.9-.4-.5-.9-.7-1.6-.7z" class="st3"/>
  <path d="M64 32.3h-2.2v7.8h-1.3v-7.8h-1.6v-.6l1.6-.5v-.5c0-2.2.9-3.3 2.8-3.3.5 0 1 .1 1.6.3l-.3 1.1c-.5-.2-1-.2-1.3-.2-.5 0-.9.2-1.1.5-.2.3-.4.9-.4 1.6v.6H64v1z" class="st3"/>
  <path d="M69.4 40.3c-1.3 0-2.3-.4-3.1-1.2s-1.1-1.9-1.1-3.3.4-2.6 1.1-3.4c.7-.8 1.6-1.3 2.8-1.3 1.1 0 2 .4 2.6 1.1.6.7 1 1.7 1 2.9v.8h-6.1c0 1 .3 1.8.8 2.4.5.5 1.2.8 2.1.8 1 0 1.9-.2 2.8-.6v1.2c-.5.2-.9.4-1.3.4-.5.1-1 .2-1.6.2zm-.4-8c-.7 0-1.3.2-1.7.7-.4.5-.7 1.1-.7 1.9h4.6c0-.8-.2-1.5-.6-1.9-.3-.5-.9-.7-1.6-.7z" class="st3"/>
  <path d="M78.9 31.1c.4 0 .7 0 1.1.1l-.2 1.2c-.4-.1-.7-.1-1-.1-.7 0-1.3.3-1.8.9-.5.6-.8 1.3-.8 2.2v4.7h-1.3v-8.8H76l.2 1.6h.1c.3-.6.7-1 1.2-1.3s.9-.5 1.4-.5z" class="st3"/>
  <path d="M85.4 40.3c-1.3 0-2.3-.4-3.1-1.2s-1.1-1.9-1.1-3.3.4-2.6 1.1-3.4c.7-.8 1.6-1.3 2.8-1.3 1.1 0 2 .4 2.6 1.1.6.7 1 1.7 1 2.9v.8h-6.1c0 1 .3 1.8.8 2.4.5.5 1.2.8 2.1.8 1 0 1.9-.2 2.8-.6v1.2c-.5.2-.9.4-1.3.4-.5.1-1 .2-1.6.2zm-.4-8c-.7 0-1.3.2-1.7.7-.4.5-.7 1.1-.7 1.9h4.6c0-.8-.2-1.5-.6-1.9-.4-.5-.9-.7-1.6-.7z" class="st3"/>
  <path d="M96.9 40.1v-5.7c0-.7-.2-1.3-.5-1.6-.3-.4-.8-.5-1.5-.5-.9 0-1.6.2-2 .7-.4.5-.6 1.3-.6 2.5v4.6H91v-8.8h1l.2 1.2h.1c.3-.4.7-.8 1.2-1 .5-.2 1-.4 1.7-.4 1.1 0 1.9.3 2.4.8s.8 1.3.8 2.5v5.8h-1.5z" class="st3"/>
  <path d="M104.5 40.3c-1.3 0-2.3-.4-3-1.2s-1.1-1.9-1.1-3.3c0-1.5.4-2.6 1.1-3.4.7-.8 1.7-1.2 3-1.2.4 0 .8 0 1.3.1.4.1.8.2 1 .3l-.4 1.1c-.3-.1-.6-.2-1-.3-.3-.1-.7-.1-.9-.1-1.8 0-2.7 1.1-2.7 3.4 0 1.1.2 1.9.7 2.5.4.6 1.1.9 1.9.9.7 0 1.5-.2 2.3-.5v1.2c-.5.3-1.3.5-2.2.5z" class="st3"/>
  <path d="M112.6 40.3c-1.3 0-2.3-.4-3.1-1.2s-1.1-1.9-1.1-3.3.4-2.6 1.1-3.4c.7-.8 1.6-1.3 2.8-1.3 1.1 0 2 .4 2.6 1.1.6.7 1 1.7 1 2.9v.8h-6.1c0 1 .3 1.8.8 2.4.5.5 1.2.8 2.1.8 1 0 1.9-.2 2.8-.6v1.2c-.5.2-.9.4-1.3.4-.5.1-1 .2-1.6.2zm-.4-8c-.7 0-1.3.2-1.7.7-.4.5-.7 1.1-.7 1.9h4.6c0-.8-.2-1.5-.6-1.9-.3-.5-.9-.7-1.6-.7z" class="st3"/>
  <path d="M119.5 38.2l.1.2c-.1.5-.3 1.2-.6 1.9s-.5 1.4-.8 2h-1c.1-.6.3-1.2.5-2.1.2-.8.3-1.5.4-2h1.4z" class="st3"/>
  <path d="M132.5 40.1v-5.7c0-.7-.2-1.3-.5-1.6-.3-.4-.8-.5-1.5-.5-.9 0-1.6.3-2 .8-.4.5-.6 1.3-.6 2.5v4.6h-1.3V27.6h1.3v3.8c0 .5 0 .8-.1 1.1h.1c.3-.4.6-.8 1.1-1 .5-.2 1-.4 1.7-.4 1.1 0 1.9.3 2.4.8s.8 1.3.8 2.4v5.8h-1.4z" class="st3"/>
  <path d="M140.3 40.3c-1.3 0-2.3-.4-3.1-1.2s-1.1-1.9-1.1-3.3.4-2.6 1.1-3.4c.7-.8 1.6-1.3 2.8-1.3 1.1 0 2 .4 2.6 1.1.6.7 1 1.7 1 2.9v.8h-6.1c0 1 .3 1.8.8 2.4.5.5 1.2.8 2.1.8 1 0 1.9-.2 2.8-.6v1.2c-.5.2-.9.4-1.3.4-.5.1-1 .2-1.6.2zm-.4-8c-.7 0-1.3.2-1.7.7-.4.5-.7 1.1-.7 1.9h4.6c0-.8-.2-1.5-.6-1.9-.3-.5-.9-.7-1.6-.7z" class="st3"/>
  <path d="M149.9 31.1c.4 0 .7 0 1.1.1l-.2 1.2c-.4-.1-.7-.1-1-.1-.7 0-1.3.3-1.8.9-.5.6-.8 1.3-.8 2.2v4.7h-1.3v-8.8h1.1l.2 1.6h.1c.3-.6.7-1 1.2-1.3s.8-.5 1.4-.5z" class="st3"/>
  <path d="M156.3 40.3c-1.3 0-2.3-.4-3.1-1.2s-1.1-1.9-1.1-3.3.4-2.6 1.1-3.4c.7-.8 1.6-1.3 2.8-1.3 1.1 0 2 .4 2.6 1.1.6.7 1 1.7 1 2.9v.8h-6.1c0 1 .3 1.8.8 2.4.5.5 1.2.8 2.1.8 1 0 1.9-.2 2.8-.6v1.2c-.5.2-.9.4-1.3.4-.5.1-1 .2-1.6.2zm-.4-8c-.7 0-1.3.2-1.7.7-.4.5-.7 1.1-.7 1.9h4.6c0-.8-.2-1.5-.6-1.9-.3-.5-.9-.7-1.6-.7z" class="st3"/>
  <path d="M171.5 40.1l-.3-1.3h-.1c-.4.6-.9.9-1.3 1.1-.4.2-1 .3-1.6.3-.9 0-1.6-.2-2.1-.7-.5-.5-.7-1.1-.7-1.9 0-1.8 1.4-2.7 4.3-2.8h1.5v-.5c0-.7-.1-1.2-.4-1.5-.3-.3-.8-.5-1.4-.5-.7 0-1.6.2-2.5.7l-.4-1c.4-.2.9-.4 1.4-.6.5-.1 1-.2 1.6-.2 1.1 0 1.8.2 2.3.7.5.5.8 1.2.8 2.2v6h-1.1zm-3-.9c.8 0 1.5-.2 2-.7.5-.5.7-1.1.7-1.9v-.8l-1.3.1c-1.1 0-1.8.2-2.3.5s-.7.7-.7 1.4c0 .5.1.9.4 1.1s.7.3 1.2.3z" class="st3"/>
  <path d="M179.3 31.1c.4 0 .7 0 1.1.1l-.2 1.2c-.4-.1-.7-.1-1-.1-.7 0-1.3.3-1.8.9-.5.6-.8 1.3-.8 2.2v4.7h-1.3v-8.8h1.1l.2 1.6h.1c.3-.6.7-1 1.2-1.3s.8-.5 1.4-.5z" class="st3"/>
  <path d="M185.7 40.3c-1.3 0-2.3-.4-3.1-1.2s-1.1-1.9-1.1-3.3.4-2.6 1.1-3.4c.7-.8 1.6-1.3 2.8-1.3 1.1 0 2 .4 2.6 1.1.6.7 1 1.7 1 2.9v.8h-6.1c0 1 .3 1.8.8 2.4.5.5 1.2.8 2.1.8 1 0 1.9-.2 2.8-.6v1.2c-.5.2-.9.4-1.3.4-.5.1-1 .2-1.6.2zm-.3-8c-.7 0-1.3.2-1.7.7-.4.5-.7 1.1-.7 1.9h4.6c0-.8-.2-1.5-.6-1.9-.4-.5-.9-.7-1.6-.7z" class="st3"/>
  <path d="M201.2 37.7c0 .8-.3 1.5-.9 1.9-.6.4-1.5.7-2.6.7-1.2 0-2.1-.2-2.7-.6v-1.2c.4.2.9.4 1.4.5s1 .2 1.4.2c.7 0 1.2-.1 1.6-.3s.6-.6.6-1c0-.3-.1-.6-.4-.9-.3-.2-.9-.5-1.7-.9-.8-.3-1.4-.6-1.8-.8-.3-.2-.6-.5-.8-.8-.2-.3-.3-.6-.3-1 0-.7.3-1.3.9-1.7.6-.4 1.4-.6 2.4-.6s1.9.2 2.8.6l-.5 1.1c-.9-.4-1.7-.5-2.4-.5-.6 0-1.1.1-1.4.3-.3.2-.5.5-.5.8 0 .2.1.4.2.6.1.2.3.3.6.5s.8.4 1.5.7c1 .4 1.8.8 2.1 1.2.4.1.5.6.5 1.2z" class="st3"/>
  <path d="M211 35.7c0 1.4-.4 2.6-1.1 3.4s-1.7 1.2-3 1.2c-.8 0-1.5-.2-2.1-.6-.6-.4-1.1-.9-1.4-1.6-.3-.7-.5-1.5-.5-2.4 0-1.4.4-2.6 1.1-3.4.7-.8 1.7-1.2 3-1.2 1.2 0 2.2.4 2.9 1.2.8.9 1.1 2 1.1 3.4zm-6.7 0c0 1.1.2 2 .7 2.6.5.6 1.1.9 2 .9s1.5-.3 2-.9.7-1.4.7-2.6c0-1.1-.2-2-.7-2.6s-1.1-.9-2-.9c-.9 0-1.5.3-2 .9-.5.6-.7 1.5-.7 2.6z" class="st3"/>
  <path d="M224.6 40.1v-5.7c0-.7-.2-1.2-.5-1.6-.3-.4-.8-.5-1.4-.5-.8 0-1.4.2-1.8.7-.4.5-.6 1.2-.6 2.2v4.9H219v-5.7c0-.7-.2-1.2-.5-1.6-.3-.4-.8-.5-1.4-.5-.8 0-1.5.3-1.8.8-.4.5-.6 1.3-.6 2.5v4.6h-1.3v-8.8h1.1l.2 1.2h.1c.3-.4.6-.8 1.1-1 .5-.2 1-.4 1.5-.4 1.4 0 2.3.5 2.7 1.5h.1c.3-.5.6-.8 1.1-1.1.5-.3 1.1-.4 1.7-.4 1 0 1.7.3 2.2.8s.7 1.3.7 2.5v5.8h-1.3z" class="st3"/>
  <path d="M232.4 40.3c-1.3 0-2.3-.4-3.1-1.2s-1.1-1.9-1.1-3.3.4-2.6 1.1-3.4c.7-.8 1.6-1.3 2.8-1.3 1.1 0 2 .4 2.6 1.1.6.7 1 1.7 1 2.9v.8h-6.1c0 1 .3 1.8.8 2.4.5.5 1.2.8 2.1.8 1 0 1.9-.2 2.8-.6v1.2c-.5.2-.9.4-1.3.4-.5.1-1 .2-1.6.2zm-.3-8c-.7 0-1.3.2-1.7.7-.4.5-.7 1.1-.7 1.9h4.6c0-.8-.2-1.5-.6-1.9-.4-.5-.9-.7-1.6-.7z" class="st3"/>
  <path d="M245.1 39.2c.2 0 .5 0 .7-.1.2 0 .4-.1.5-.1v1c-.1.1-.4.1-.6.2-.3 0-.5.1-.8.1-1.7 0-2.6-.9-2.6-2.7v-5.3H241v-.6l1.3-.6.6-1.9h.8v2h2.6v1h-2.6v5.2c0 .5.1.9.4 1.2s.6.6 1 .6z" class="st3"/>
  <path d="M248 28.9c0-.3.1-.5.2-.7.1-.1.3-.2.6-.2.2 0 .4.1.6.2s.2.4.2.7-.1.5-.2.7c-.2.1-.3.2-.6.2-.2 0-.4-.1-.6-.2-.2-.2-.2-.4-.2-.7zm1.4 11.2h-1.3v-8.8h1.3v8.8z" class="st3"/>
  <path d="M256.4 40.3c-.6 0-1.1-.1-1.6-.3-.5-.2-.9-.5-1.2-1h-.1c.1.5.1 1 .1 1.5v3.6h-1.3V31.3h1.1l.2 1.2h.1c.3-.5.7-.8 1.2-1 .5-.2 1-.3 1.6-.3 1.2 0 2.1.4 2.7 1.2s1 1.9 1 3.4c0 1.4-.3 2.6-1 3.4s-1.7 1.1-2.8 1.1zm-.2-8c-.9 0-1.6.2-2 .7-.4.5-.6 1.3-.6 2.4v.3c0 1.2.2 2.1.6 2.7.4.5 1.1.8 2 .8.8 0 1.4-.3 1.8-.9.4-.6.6-1.5.6-2.6s-.2-1.9-.6-2.5-1.1-.9-1.8-.9z" class="st3"/>
  <path d="M268 37.7c0 .8-.3 1.5-.9 1.9-.6.4-1.5.7-2.6.7-1.2 0-2.1-.2-2.7-.6v-1.2c.4.2.9.4 1.4.5s1 .2 1.4.2c.7 0 1.2-.1 1.6-.3s.6-.6.6-1c0-.3-.1-.6-.4-.9-.3-.2-.9-.5-1.7-.9-.8-.3-1.4-.6-1.8-.8-.3-.2-.6-.5-.8-.8-.2-.3-.3-.6-.3-1 0-.7.3-1.3.9-1.7.6-.4 1.4-.6 2.4-.6s1.9.2 2.8.6l-.5 1.1c-.9-.4-1.7-.5-2.4-.5-.6 0-1.1.1-1.4.3-.3.2-.5.5-.5.8 0 .2.1.4.2.6.1.2.3.3.6.5s.8.4 1.5.7c1 .4 1.8.8 2.1 1.2.4.1.5.6.5 1.2z" class="st3"/>
  <path d="M282.1 35.7c0 1.4-.4 2.6-1.1 3.4s-1.7 1.2-3 1.2c-.8 0-1.5-.2-2.1-.6-.6-.4-1.1-.9-1.4-1.6-.3-.7-.5-1.5-.5-2.4 0-1.4.4-2.6 1.1-3.4.7-.8 1.7-1.2 3-1.2 1.2 0 2.2.4 2.9 1.2.8.9 1.1 2 1.1 3.4zm-6.7 0c0 1.1.2 2 .7 2.6.5.6 1.1.9 2 .9s1.5-.3 2-.9.7-1.4.7-2.6c0-1.1-.2-2-.7-2.6s-1.1-.9-2-.9c-.9 0-1.5.3-2 .9-.5.6-.7 1.5-.7 2.6z" class="st3"/>
  <path d="M290.5 40.1v-5.7c0-.7-.2-1.3-.5-1.6-.3-.4-.8-.5-1.5-.5-.9 0-1.6.2-2 .7-.4.5-.6 1.3-.6 2.5v4.6h-1.3v-8.8h1.1l.2 1.2h.1c.3-.4.7-.8 1.2-1 .5-.2 1-.4 1.7-.4 1.1 0 1.9.3 2.4.8s.8 1.3.8 2.5v5.8h-1.6z" class="st3"/>
  <path d="M304.9 40.1v-5.7c0-.7-.2-1.3-.5-1.6-.3-.4-.8-.5-1.5-.5-.9 0-1.6.3-2 .8-.4.5-.6 1.3-.6 2.5v4.6H299V27.6h1.3v3.8c0 .5 0 .8-.1 1.1h.1c.3-.4.6-.8 1.1-1 .5-.2 1-.4 1.7-.4 1.1 0 1.9.3 2.4.8s.8 1.3.8 2.4v5.8h-1.4z" class="st3"/>
  <path d="M316.6 35.7c0 1.4-.4 2.6-1.1 3.4s-1.7 1.2-3 1.2c-.8 0-1.5-.2-2.1-.6-.6-.4-1.1-.9-1.4-1.6-.3-.7-.5-1.5-.5-2.4 0-1.4.4-2.6 1.1-3.4.7-.8 1.7-1.2 3-1.2 1.2 0 2.2.4 2.9 1.2.8.9 1.1 2 1.1 3.4zm-6.7 0c0 1.1.2 2 .7 2.6.5.6 1.1.9 2 .9s1.5-.3 2-.9.7-1.4.7-2.6c0-1.1-.2-2-.7-2.6s-1.1-.9-2-.9c-.9 0-1.5.3-2 .9-.5.6-.7 1.5-.7 2.6z" class="st3"/>
  <path d="M326.2 40.1l-1.6-5.2c-.1-.3-.3-1-.6-2.2h-.1c-.2.9-.4 1.7-.6 2.2l-1.7 5.2h-1.5l-2.4-8.8h1.4c.6 2.2 1 3.9 1.3 5.1s.5 1.9.5 2.3h.1c.1-.3.2-.7.3-1.2.1-.5.2-.9.3-1.2l1.6-5.1h1.4l1.6 5.1c.3.9.5 1.7.6 2.3h.1c0-.2.1-.5.2-.9s.7-2.6 1.7-6.5h1.4l-2.4 8.8h-1.6z" class="st3"/>
  <path d="M338.9 39.2c.2 0 .5 0 .7-.1.2 0 .4-.1.5-.1v1c-.1.1-.4.1-.6.2-.3 0-.5.1-.8.1-1.7 0-2.6-.9-2.6-2.7v-5.3h-1.3v-.6l1.3-.6.6-1.9h.8v2h2.6v1h-2.6v5.2c0 .5.1.9.4 1.2s.6.6 1 .6z" class="st3"/>
  <path d="M349.5 35.7c0 1.4-.4 2.6-1.1 3.4s-1.7 1.2-3 1.2c-.8 0-1.5-.2-2.1-.6-.6-.4-1.1-.9-1.4-1.6-.3-.7-.5-1.5-.5-2.4 0-1.4.4-2.6 1.1-3.4.7-.8 1.7-1.2 3-1.2 1.2 0 2.2.4 2.9 1.2.8.9 1.1 2 1.1 3.4zm-6.7 0c0 1.1.2 2 .7 2.6.5.6 1.1.9 2 .9s1.5-.3 2-.9.7-1.4.7-2.6c0-1.1-.2-2-.7-2.6s-1.1-.9-2-.9c-.9 0-1.5.3-2 .9-.5.6-.7 1.5-.7 2.6z" class="st3"/>
  <path d="M359.9 40.3c-1.3 0-2.3-.4-3.1-1.2s-1.1-1.9-1.1-3.3.4-2.6 1.1-3.4c.7-.8 1.6-1.3 2.8-1.3 1.1 0 2 .4 2.6 1.1.6.7 1 1.7 1 2.9v.8H357c0 1 .3 1.8.8 2.4.5.5 1.2.8 2.1.8 1 0 1.9-.2 2.8-.6v1.2c-.5.2-.9.4-1.3.4-.4.1-.9.2-1.5.2zm-.4-8c-.7 0-1.3.2-1.7.7-.4.5-.7 1.1-.7 1.9h4.6c0-.8-.2-1.5-.6-1.9-.4-.5-.9-.7-1.6-.7z" class="st3"/>
  <path d="M367.5 35.6l-3.1-4.3h1.5l2.3 3.4 2.3-3.4h1.5l-3.1 4.3 3.2 4.5h-1.5l-2.5-3.6-2.5 3.6h-1.5l3.4-4.5z" class="st3"/>
  <path d="M377.6 40.3c-1.3 0-2.3-.4-3-1.2s-1.1-1.9-1.1-3.3c0-1.5.4-2.6 1.1-3.4.7-.8 1.7-1.2 3-1.2.4 0 .8 0 1.3.1.4.1.8.2 1 .3l-.4 1.1c-.3-.1-.6-.2-1-.3-.3-.1-.7-.1-.9-.1-1.8 0-2.7 1.1-2.7 3.4 0 1.1.2 1.9.7 2.5.4.6 1.1.9 1.9.9.7 0 1.5-.2 2.3-.5v1.2c-.6.3-1.3.5-2.2.5z" class="st3"/>
  <path d="M385.6 40.3c-1.3 0-2.3-.4-3.1-1.2s-1.1-1.9-1.1-3.3.4-2.6 1.1-3.4c.7-.8 1.6-1.3 2.8-1.3 1.1 0 2 .4 2.6 1.1.6.7 1 1.7 1 2.9v.8h-6.1c0 1 .3 1.8.8 2.4.5.5 1.2.8 2.1.8 1 0 1.9-.2 2.8-.6v1.2c-.5.2-.9.4-1.3.4-.5.1-1 .2-1.6.2zm-.3-8c-.7 0-1.3.2-1.7.7-.4.5-.7 1.1-.7 1.9h4.6c0-.8-.2-1.5-.6-1.9-.4-.5-.9-.7-1.6-.7z" class="st3"/>
  <path d="M392.5 40.1h-1.3V27.6h1.3v12.5z" class="st3"/>
  <path d="M395.1 32.2c0-.7.3-1.1 1-1.1s1 .4 1 1.1c0 .3-.1.6-.3.8-.2.2-.4.3-.7.3-.3 0-.5-.1-.7-.3-.2-.2-.3-.5-.3-.8zm0 7.1c0-.4.1-.6.2-.8.2-.2.4-.3.7-.3.3 0 .6.1.7.3.2.2.3.5.3.8 0 .3-.1.6-.3.8-.2.2-.4.3-.7.3-.3 0-.5-.1-.7-.3-.1-.2-.2-.4-.2-.8z" class="st3"/>
</svg>
