<svg xmlns="http://www.w3.org/2000/svg" id="Layer_1" viewBox="-127 216.2 244.7 69.8">
  <style>
    .st0{fill:#B17F60;} .st1{fill:#344B62;} .st2{fill:none;} .st3{fill:#FCD4BB;}
  </style>
  <path d="M114.7 221.6h-238.8c-1.6 0-2.9 1.4-2.9 3v58.5c0 1.6 1.3 2.9 2.9 2.9h238.8c1.6 0 2.9-1.3 2.9-2.9v-58.5c.1-1.6-1.3-3-2.9-3z" class="st0"/>
  <path d="M109.8 216.2h-231.5c-1.6 0-2.9 1.3-2.9 2.9v58.6c0 1.6 1.3 2.9 2.9 2.9h231.5c1.6 0 2.9-1.3 2.9-2.9v-58.6c0-1.6-1.3-2.9-2.9-2.9z" class="st1"/>
  <path d="M-101.6 227.6H90.1V300h-191.7z" class="st2"/>
  <path d="M-99.4 233.2v3.6h-1v-8.6h2.4c1.1 0 1.8.2 2.3.6.5.4.8 1 .8 1.8 0 1.1-.6 1.9-1.7 2.3l2.3 3.8h-1.2l-2.1-3.5h-1.8zm0-.9h1.4c.7 0 1.2-.1 1.5-.4.3-.3.5-.7.5-1.2 0-.6-.2-1-.5-1.2s-.9-.4-1.6-.4h-1.3v3.2z" class="st3"/>
  <path d="M-93.2 228.6c0-.2.1-.4.2-.5.1-.1.2-.2.4-.2s.3.1.4.2c.1.1.2.3.2.5s-.1.4-.2.5c-.1.1-.3.1-.4.1-.2 0-.3 0-.4-.1-.1-.1-.2-.3-.2-.5zm1.1 8.2h-1v-6.5h1v6.5z" class="st3"/>
  <path d="M-84.8 230.3v.6l-1.2.2c.1.1.2.3.3.5.1.2.1.5.1.7 0 .6-.2 1.1-.6 1.5-.4.4-1 .6-1.8.6h-.5c-.4.2-.6.5-.6.8 0 .2.1.3.2.4.1.1.4.1.7.1h1.1c.7 0 1.2.1 1.6.4.4.3.6.7.6 1.3 0 .7-.3 1.3-.9 1.6-.6.3-1.4.6-2.5.6-.8 0-1.5-.2-1.9-.5-.4-.3-.7-.8-.7-1.3 0-.4.1-.7.4-1 .3-.3.6-.5 1.1-.6-.2-.1-.3-.2-.4-.3s-.2-.3-.2-.5.1-.4.2-.6c.1-.2.3-.3.6-.5-.3-.1-.6-.4-.8-.7-.2-.3-.3-.7-.3-1.1 0-.7.2-1.2.6-1.6.4-.4 1-.7 1.7-.7.3 0 .6 0 .9.1h2.3zm-5.1 7.5c0 .3.1.6.4.8s.7.3 1.3.3c.8 0 1.4-.1 1.8-.4.4-.3.6-.6.6-1 0-.3-.1-.6-.3-.7-.2-.1-.6-.2-1.2-.2h-1.2c-.4 0-.8.1-1 .3-.2.2-.4.5-.4.9zm.5-5.4c0 .4.1.8.4 1s.6.3 1.1.3c.9 0 1.4-.5 1.4-1.4 0-1-.5-1.4-1.4-1.4-.5 0-.8.1-1.1.4-.3.3-.4.6-.4 1.1z" class="st3"/>
  <path d="M-79.1 236.8v-4.2c0-.5-.1-.9-.4-1.2s-.6-.4-1.1-.4c-.7 0-1.2.2-1.5.6-.3.4-.5 1-.5 1.8v3.4h-1v-9.2h1v3.6h.1c.2-.3.5-.6.8-.7.3-.1.8-.3 1.2-.3.8 0 1.4.2 1.8.6.4.4.6 1 .6 1.8v4.2h-1z" class="st3"/>
  <path d="M-74.1 236.1h.5s.3-.1.4-.1v.7c-.1.1-.3.1-.5.1h-.6c-1.2 0-1.9-.7-1.9-2v-3.7h-.8v-.5l.9-.4.4-1.4h.6v1.5h1.9v.8h-1.9v3.8c0 .4.1.7.3.9.2.2.4.3.7.3z" class="st3"/>
  <path d="M-65.8 230.2c.8 0 1.5.3 2 .9.5.6.7 1.4.7 2.4s-.2 1.9-.7 2.5c-.5.6-1.1.9-2 .9-.4 0-.8-.1-1.1-.2-.3-.1-.6-.4-.9-.7h-.1l-.2.8h-.7v-9.2h1v3.5c.4-.5 1.1-.9 2-.9zm-.1.8c-.7 0-1.1.2-1.4.6-.3.4-.4 1-.4 1.9 0 .9.2 1.5.5 1.9.3.4.8.6 1.4.6.6 0 1-.2 1.3-.7.3-.5.4-1.1.4-1.9s-.1-1.5-.4-1.9-.8-.5-1.4-.5z" class="st3"/>
  <path d="M-58.5 230.2c.3 0 .5 0 .8.1l-.2.9c-.3-.1-.5-.1-.7-.1-.5 0-1 .2-1.3.6s-.6.9-.6 1.6v3.4h-1v-6.4h.8l.1 1.2c.2-.4.5-.7.9-1s.8-.3 1.2-.3z" class="st3"/>
  <path d="M-52.6 236.8l-.2-.9c-.3.4-.6.7-1 .8s-.7.2-1.2.2c-.6 0-1.1-.2-1.5-.5s-.5-.8-.5-1.4c0-1.3 1-2 3.1-2h1.1v-.4c0-.5-.1-.9-.3-1.1s-.6-.4-1-.4c-.5 0-1.1.2-1.8.5l-.3-.7c.3-.2.7-.3 1-.4.3-.1.7-.3 1.1-.3.8 0 1.3.2 1.7.5s.6.9.6 1.6v4.4h-.8v.1zm-2.2-.7c.6 0 1.1-.2 1.4-.5.3-.3.5-.8.5-1.4v-.6h-1c-.8 0-1.3.1-1.7.4-.4.3-.5.5-.5 1 0 .4.1.6.3.8.2.2.6.3 1 .3z" class="st3"/>
  <path d="M-49.9 228.6c0-.2.1-.4.2-.5.1-.1.2-.2.4-.2s.3.1.4.2c.1.1.2.3.2.5s-.2.4-.3.5c-.1.1-.2.1-.4.1s-.3-.1-.4-.2c-.1-.1-.1-.2-.1-.4zm1 8.2h-1v-6.5h1v6.5z" class="st3"/>
  <path d="M-42.4 236.8v-4.2c0-.5-.1-.9-.4-1.2s-.6-.4-1.1-.4c-.7 0-1.2.2-1.5.5s-.5 1-.5 1.8v3.4h-1v-6.4h.9l.1.9c.2-.3.5-.6.8-.7.3-.1.9-.3 1.3-.3.8 0 1.4.2 1.8.6.4.4.6 1 .6 1.8v4.2h-1z" class="st3"/>
  <path d="M-36.8 236.9c-.9 0-1.7-.3-2.2-.9-.5-.6-.8-1.4-.8-2.4s.3-1.9.8-2.5c.5-.6 1.1-.9 2-.9.8 0 1.4.3 1.9.8s.7 1.2.7 2.1v.6h-4.4c0 .8.2 1.3.6 1.7.4.4.9.6 1.5.6.7 0 1.4-.1 2.1-.4v.9c-.3.1-.7.3-1 .3s-.7.1-1.2.1zm-.2-5.9c-.5 0-.9.2-1.2.5s-.5.8-.5 1.4h3.4c0-.6-.1-1.1-.4-1.4s-.8-.5-1.3-.5z" class="st3"/>
  <path d="M-28.4 235.9c-.5.7-1.2 1-2.1 1-.8 0-1.5-.3-2-.9-.5-.6-.7-1.4-.7-2.4s.2-1.9.7-2.5c.5-.6 1.1-.9 2-.9s1.5.3 2 .9h.1v-3.5h1v9.1h-.8l-.2-.8zm-1.9.2c.7 0 1.1-.2 1.4-.5.3-.3.4-.9.4-1.7v-.2c0-.9-.2-1.6-.5-1.9-.3-.3-.8-.6-1.5-.6-.6 0-1 .2-1.3.7s-.5 1.1-.5 1.9c0 .8.2 1.4.5 1.9s.9.4 1.5.4z" class="st3"/>
  <path d="M-19.3 236.9c-.4 0-.8-.1-1.1-.2s-.6-.4-.9-.7h-.1c0 .4.1.7.1 1.1v2.6h-1v-9.4h.8l.2.9c.2-.4.5-.6.9-.8s.7-.2 1.1-.2c.9 0 1.5.3 2 .9.5.6.7 1.4.7 2.4 0 1.1-.2 1.9-.7 2.5-.5.6-1.1.9-2 .9zm-.1-5.9c-.7 0-1.1.2-1.4.5s-.4.9-.5 1.7v.2c0 .9.2 1.5.5 1.9.3.4.8.6 1.4.6s1-.2 1.3-.7.5-1.1.5-1.9c0-.8-.2-1.4-.5-1.8-.3-.4-.7-.5-1.3-.5z" class="st3"/>
  <path d="M-12.2 236.9c-.9 0-1.7-.3-2.2-.9-.5-.6-.8-1.4-.8-2.4s.3-1.9.8-2.5c.5-.6 1.1-.9 2-.9.8 0 1.4.3 1.9.8s.7 1.2.7 2.1v.6h-4.4c0 .8.2 1.3.6 1.7.4.4.9.6 1.5.6.7 0 1.4-.1 2.1-.4v.9c-.3.1-.7.3-1 .3s-.8.1-1.2.1zm-.3-5.9c-.5 0-.9.2-1.2.5s-.5.8-.5 1.4h3.4c0-.6-.1-1.1-.4-1.4s-.7-.5-1.3-.5z" class="st3"/>
  <path d="M-2.6 233.5c0 1-.3 1.9-.8 2.5-.5.6-1.3.9-2.2.9-.6 0-1.1-.1-1.5-.4s-.8-.7-1-1.2-.4-1.1-.4-1.8c0-1 .3-1.9.8-2.4s1.2-.9 2.2-.9c.9 0 1.6.3 2.1.9.5.6.8 1.4.8 2.4zm-4.9 0c0 .8.2 1.4.5 1.9s.8.6 1.4.6 1.1-.2 1.5-.6c.4-.4.5-1.1.5-1.9s-.2-1.4-.5-1.9-.8-.6-1.5-.6c-.6 0-1.1.2-1.4.6-.3.4-.5 1.1-.5 1.9z" class="st3"/>
  <path d="M2.1 236.9c-.4 0-.8-.1-1.1-.2s-.6-.4-.9-.7H0c0 .4.1.7.1 1.1v2.6h-1v-9.4h.8l.1.9c.2-.4.5-.6.9-.8s.7-.2 1.1-.2c.9 0 1.5.3 2 .9.5.6.7 1.4.7 2.4 0 1.1-.2 1.9-.7 2.5-.5.6-1.1.9-1.9.9zm-.2-5.9c-.7 0-1.1.2-1.4.5s-.4.9-.5 1.7v.2c0 .9.2 1.5.5 1.9.3.4.8.6 1.4.6s1-.2 1.3-.7.5-1.1.5-1.9c0-.8-.2-1.4-.5-1.8-.3-.4-.7-.5-1.3-.5z" class="st3"/>
  <path d="M7.4 236.8h-1v-9.2h1v9.2z" class="st3"/>
  <path d="M12.2 236.9c-.9 0-1.7-.3-2.2-.9-.5-.6-.8-1.4-.8-2.4s.3-1.9.8-2.5c.5-.6 1.2-.9 2.1-.9.8 0 1.4.3 1.9.8s.7 1.2.7 2.1v.6h-4.4c0 .8.2 1.3.6 1.7.4.4.9.6 1.5.6.7 0 1.4-.1 2.1-.4v.9c-.3.1-.7.3-1 .3s-.9.1-1.3.1zm-.3-5.9c-.5 0-.9.2-1.2.5s-.5.8-.5 1.4h3.4c0-.6-.1-1.1-.4-1.4s-.8-.5-1.3-.5z" class="st3"/>
  <path d="M24.6 236.8l-1.2-3.8c-.1-.2-.2-.8-.4-1.6-.2.7-.3 1.2-.4 1.6l-1.2 3.8h-1.1l-1.8-6.4h1c.4 1.6.7 2.8.9 3.7.2.9.3 1.4.4 1.7 0-.2.1-.5.2-.9s.2-.6.2-.8l1.2-3.7h1.1l1.1 3.7c.2.7.4 1.2.4 1.7 0-.1.1-.4.1-.7 0-.3.5-1.9 1.2-4.7h1l-1.8 6.4h-.9z" class="st3"/>
  <path d="M28.6 228.6c0-.2.1-.4.2-.5.1-.1.2-.2.4-.2s.3.1.4.2c.1.1.2.3.2.5s-.1.4-.2.5c-.1.1-.3.1-.5.1s-.3-.1-.4-.2c-.1-.1-.1-.2-.1-.4zm1 8.2h-1v-6.5h1v6.5z" class="st3"/>
  <path d="M32.7 236.8h-1v-9.2h1v9.2z" class="st3"/>
  <path d="M35.7 236.8h-1v-9.2h1v9.2z" class="st3"/>
  <path d="M-98 251.3c-.9 0-1.6-.3-2.2-.9-.6-.6-.8-1.4-.8-2.4 0-1.1.3-1.9.8-2.5s1.3-.9 2.2-.9c.3 0 .6 0 .9.1.3.1.6.1.7.2l-.3.8c-.2-.1-.4-.2-.7-.2-.3 0-.5-.1-.7-.1-1.3 0-2 .8-2 2.5 0 .8.2 1.4.5 1.8.3.4.8.6 1.4.6.5 0 1.1-.1 1.6-.3v.9c-.2.3-.7.4-1.4.4z" class="st3"/>
  <path d="M-89.3 247.9c0 1-.3 1.9-.8 2.5-.5.6-1.3.9-2.2.9-.6 0-1.1-.1-1.5-.4-.4-.3-.8-.7-1-1.2-.2-.5-.4-1.1-.4-1.8 0-1 .3-1.9.8-2.4s1.2-.9 2.2-.9c.9 0 1.6.3 2.1.9s.8 1.4.8 2.4zm-4.9 0c0 .8.2 1.4.5 1.9s.8.6 1.4.6c.6 0 1.1-.2 1.5-.6.3-.4.5-1.1.5-1.9 0-.8-.2-1.4-.5-1.9-.3-.4-.8-.6-1.5-.6-.6 0-1.1.2-1.4.6-.3.4-.5 1.1-.5 1.9z" class="st3"/>
  <path d="M-79.4 251.2V247c0-.5-.1-.9-.3-1.2-.2-.3-.6-.4-1-.4-.6 0-1.1.2-1.3.5s-.4.9-.4 1.6v3.7h-1V247c0-.5-.1-.9-.3-1.2-.2-.3-.6-.4-1-.4-.6 0-1.1.2-1.3.5-.2.3-.4 1-.4 1.8v3.5h-1v-6.4h.8l.2.9c.2-.3.4-.6.8-.7.4-.1.7-.3 1.1-.3 1 0 1.7.4 2 1.1.2-.3.5-.6.8-.8s.8-.3 1.2-.3c.7 0 1.3.2 1.6.6.3.4.5 1 .5 1.8v4.1h-1z" class="st3"/>
  <path d="M-68.2 251.2V247c0-.5-.1-.9-.3-1.2-.2-.3-.6-.4-1-.4-.6 0-1.1.2-1.3.5-.2.3-.4.9-.4 1.6v3.7h-1V247c0-.5-.1-.9-.3-1.2-.2-.3-.6-.4-1-.4-.6 0-1.1.2-1.3.5-.2.3-.4 1-.4 1.8v3.5h-1v-6.4h.8l.2.9c.2-.3.4-.6.8-.7.4-.1.7-.3 1.1-.3 1 0 1.7.4 2 1.1.2-.3.5-.6.8-.8s.8-.3 1.2-.3c.7 0 1.3.2 1.6.6.3.4.5 1 .5 1.8v4.1h-1z" class="st3"/>
  <path d="M-64.3 244.7v4.2c0 .5.1.9.4 1.2.3.3.6.4 1.1.4.7 0 1.2-.2 1.5-.6.3-.4.5-1 .5-1.8v-3.4h1v6.5h-.8l-.1-.9h-.1c-.2.3-.5.6-.8.7s-.8.3-1.2.3c-.8 0-1.4-.2-1.8-.6-.4-.4-.6-1-.6-1.8v-4.2h.9z" class="st3"/>
  <path d="M-53.5 251.2V247c0-.5-.1-.9-.4-1.2-.3-.3-.6-.4-1.1-.4-.7 0-1.2.2-1.5.5s-.5 1-.5 1.8v3.5h-1v-6.4h.8l.2.9c.2-.3.5-.6.8-.7.3-.1.8-.3 1.2-.3.8 0 1.4.2 1.7.6.3.4.6 1 .6 1.8v4.1h-.8z" class="st3"/>
  <path d="M-50.6 243c0-.2.1-.4.2-.5.1-.1.2-.2.4-.2s.3.1.4.2c.1.1.2.3.2.5s-.1.4-.2.5c-.1.1-.2.2-.4.2s-.3-.1-.4-.2c-.1-.1-.2-.3-.2-.5zm1.1 8.2h-1v-6.4h1v6.4z" class="st3"/>
  <path d="M-44.9 251.3c-.9 0-1.6-.3-2.2-.9-.6-.6-.8-1.4-.8-2.4 0-1.1.3-1.9.8-2.5s1.3-.9 2.2-.9c.3 0 .6 0 .9.1.3.1.6.1.7.2l-.3.8c-.2-.1-.4-.2-.7-.2s-.5-.1-.7-.1c-1.3 0-2 .8-2 2.5 0 .8.2 1.4.5 1.8s.8.6 1.4.6c.5 0 1.1-.1 1.6-.3v.9c-.2.3-.8.4-1.4.4z" class="st3"/>
  <path d="M-37.8 251.2l-.2-1c-.3.4-.6.7-1 .8-.4.1-.7.2-1.2.2-.6 0-1.1-.2-1.5-.5s-.5-.8-.5-1.4c0-1.3 1-2 3.1-2h1.1v-.4c0-.5-.1-.9-.3-1.1-.2-.2-.6-.4-1-.4-.5 0-1.1.2-1.8.5l-.4-.7c.3-.2.7-.3 1-.4.3-.1.8-.1 1.1-.1.8 0 1.3.2 1.7.5s.6.9.6 1.6v4.4h-.7zm-2.2-.7c.6 0 1.1-.2 1.4-.5.3-.3.5-.8.5-1.4v-.6h-1c-.8 0-1.3.1-1.7.4s-.5.5-.5 1c0 .4.1.6.3.8s.6.3 1 .3z" class="st3"/>
  <path d="M-33 250.5h.5s.3-.1.4-.1v.7c-.2.1-.3.1-.5.1h-.6c-1.2 0-1.9-.7-1.9-2v-3.8h-.9v-.5l.9-.4.4-1.4h.6v1.5h1.9v.8h-1.9v3.8c0 .4.1.7.3.9s.5.4.8.4z" class="st3"/>
  <path d="M-28.1 251.3c-.9 0-1.7-.3-2.2-.9-.5-.6-.8-1.4-.8-2.4s.3-1.9.8-2.5 1.2-.9 2.1-.9c.8 0 1.4.3 1.9.8s.7 1.2.7 2.1v.6H-30c0 .8.2 1.3.6 1.7.4.4.9.6 1.5.6.7 0 1.4-.1 2.1-.4v.9c-.3.1-.7.3-1 .3s-.9.1-1.3.1zm-.3-5.9c-.5 0-.9.2-1.2.5-.3.3-.5.8-.5 1.4h3.4c0-.6-.1-1.1-.4-1.4-.3-.3-.8-.5-1.3-.5z" class="st3"/>
  <path d="M-12.8 251.2V247c0-.5-.1-.9-.3-1.2-.2-.3-.6-.4-1-.4-.6 0-1.1.2-1.3.5s-.4.9-.4 1.6v3.7h-1V247c0-.5-.1-.9-.3-1.2-.2-.3-.6-.4-1-.4-.6 0-1.1.2-1.3.5s-.4 1-.4 1.8v3.5h-1v-6.4h.8l.2.9c.2-.3.4-.6.8-.7.4-.1.7-.3 1.1-.3 1 0 1.7.4 2 1.1.2-.3.5-.6.8-.8s.8-.3 1.2-.3c.7 0 1.3.2 1.6.6.3.4.5 1 .5 1.8v4.1h-1z" class="st3"/>
  <path d="M-4.3 247.9c0 1-.3 1.9-.8 2.5-.5.6-1.3.9-2.2.9-.6 0-1.1-.1-1.5-.4-.4-.3-.8-.7-1-1.2s-.4-1.1-.4-1.8c0-1 .3-1.9.8-2.4s1.2-.9 2.2-.9c.9 0 1.6.3 2.1.9s.8 1.4.8 2.4zm-4.9 0c0 .8.2 1.4.5 1.9s.8.6 1.4.6 1.1-.2 1.5-.6c.4-.4.5-1.1.5-1.9 0-.8-.2-1.4-.5-1.9s-.8-.6-1.5-.6c-.6 0-1.1.2-1.4.6s-.5 1.1-.5 1.9z" class="st3"/>
  <path d="M.3 244.6c.3 0 .5 0 .8.1l-.1.9c-.3-.1-.5-.1-.7-.1-.5 0-1 .2-1.3.6-.3.4-.6.9-.6 1.6v3.5h-1v-6.4h.8l.1 1.2c.2-.4.5-.7.9-1s.7-.4 1.1-.4z" class="st3"/>
  <path d="M5 251.3c-.9 0-1.7-.3-2.2-.9-.5-.6-.8-1.4-.8-2.4s.3-1.9.8-2.5 1.2-.9 2.1-.9c.8 0 1.4.3 1.9.8s.7 1.2.7 2.1v.6H3.1c0 .8.2 1.3.6 1.7.4.4.9.6 1.5.6.7 0 1.4-.1 2.1-.4v.9c-.3.1-.7.3-1 .3s-.9.1-1.3.1zm-.3-5.9c-.5 0-.9.2-1.2.5-.3.3-.5.8-.5 1.4h3.4c0-.6-.1-1.1-.4-1.4-.3-.3-.7-.5-1.3-.5z" class="st3"/>
  <path d="M16.5 251.2V247c0-.5-.1-.9-.4-1.2-.3-.3-.6-.4-1.1-.4-.7 0-1.2.2-1.5.5s-.5 1-.5 1.8v3.5h-1v-6.4h.8l.2.9c.2-.3.5-.6.8-.7.3-.1.8-.3 1.2-.3.8 0 1.4.2 1.7.6.3.4.6 1 .6 1.8v4.1h-.8z" class="st3"/>
  <path d="M25.1 247.9c0 1-.3 1.9-.8 2.5-.5.6-1.3.9-2.2.9-.6 0-1.1-.1-1.5-.4-.4-.3-.8-.7-1-1.2s-.4-1.1-.4-1.8c0-1 .3-1.9.8-2.4s1.2-.9 2.2-.9c.9 0 1.6.3 2.1.9s.8 1.4.8 2.4zm-4.9 0c0 .8.2 1.4.5 1.9s.8.6 1.4.6 1.1-.2 1.5-.6c.4-.4.5-1.1.5-1.9 0-.8-.2-1.4-.5-1.9s-.8-.6-1.5-.6c-.6 0-1.1.2-1.4.6s-.5 1.1-.5 1.9z" class="st3"/>
  <path d="M31.2 251.2V247c0-.5-.1-.9-.4-1.2-.3-.3-.6-.4-1.1-.4-.7 0-1.2.2-1.5.5s-.5 1-.5 1.8v3.5h-1v-6.4h.8l.2.9c.2-.3.5-.6.8-.7.3-.1.8-.3 1.2-.3.8 0 1.4.2 1.7.6.3.4.6 1 .6 1.8v4.1h-.8z" class="st3"/>
  <path d="M33.6 248.4v-.9h2.9v.9h-2.9z" class="st3"/>
  <path d="M39.4 251.2l-2.4-6.4h1l1.4 3.8c.3.9.5 1.5.6 1.7 0-.2.2-.6.4-1.3s.7-2.1 1.5-4.3h1l-2.4 6.4h-1.1v.1z" class="st3"/>
  <path d="M46.7 251.3c-.9 0-1.7-.3-2.2-.9-.5-.6-.8-1.4-.8-2.4s.3-1.9.8-2.5 1.2-.9 2.1-.9c.8 0 1.4.3 1.9.8s.7 1.2.7 2.1v.6h-4.4c0 .8.2 1.3.6 1.7.4.4.9.6 1.5.6.7 0 1.4-.1 2.1-.4v.9c-.3.1-.7.3-1 .3s-.9.1-1.3.1zm-.3-5.9c-.5 0-.9.2-1.2.5-.3.3-.5.8-.5 1.4h3.4c0-.6-.1-1.1-.4-1.4-.3-.3-.7-.5-1.3-.5z" class="st3"/>
  <path d="M53.7 244.6c.3 0 .5 0 .8.1l-.1.9c-.3-.1-.5-.1-.7-.1-.5 0-1 .2-1.3.6-.3.4-.6.9-.6 1.6v3.5h-1v-6.4h.8l.1 1.2c.2-.4.5-.7.9-1s.7-.4 1.1-.4z" class="st3"/>
  <path d="M58.6 244.6c.8 0 1.5.3 2 .9.5.6.7 1.4.7 2.4s-.2 1.9-.7 2.5-1.1.9-2 .9c-.4 0-.8-.1-1.1-.2-.3-.1-.6-.4-.9-.7h-.1l-.2.8h-.7v-9.1h1v3.5c.5-.6 1.1-1 2-1zm-.1.8c-.7 0-1.1.2-1.4.6s-.4 1-.4 1.9c0 .9.2 1.5.5 1.9.3.4.8.6 1.4.6.6 0 1-.2 1.3-.7s.4-1.1.4-1.9c0-.8-.1-1.5-.4-1.9-.3-.4-.8-.5-1.4-.5z" class="st3"/>
  <path d="M66.9 251.2l-.2-.9c-.3.4-.6.7-1 .8-.4.1-.7.2-1.2.2-.6 0-1.1-.2-1.5-.5-.4-.3-.5-.8-.5-1.4 0-1.3 1-2 3.1-2h1.1v-.4c0-.5-.1-.9-.3-1.1-.2-.2-.6-.4-1-.4-.5 0-1.1.2-1.8.5l-.3-.7c.3-.2.7-.3 1-.4.3-.1.8-.1 1.1-.1.8 0 1.3.2 1.7.5.4.3.6.9.6 1.6v4.3h-.8zm-2.2-.7c.6 0 1.1-.2 1.4-.5.3-.3.5-.8.5-1.4v-.6h-1c-.8 0-1.3.1-1.7.4s-.5.5-.5 1c0 .4.1.6.3.8s.7.3 1 .3z" class="st3"/>
  <path d="M70.6 251.2h-1v-9.1h1v9.1z" class="st3"/>
  <path d="M73.7 251.2h-1v-9.1h1v9.1z" class="st3"/>
  <path d="M74.7 244.7h1l1.4 3.7c.3.8.5 1.4.6 1.8.1-.2.2-.5.3-1s.7-2 1.6-4.5h1l-2.8 7.3c-.3.7-.6 1.2-1 1.5-.4.3-.8.5-1.3.5-.3 0-.6 0-.9-.1v-.7c.2 0 .5.1.7.1.7 0 1.1-.4 1.4-1.1l.4-.9-2.4-6.6z" class="st3"/>
  <path d="M-95.3 265.6l-1.2-3.8c-.1-.2-.2-.8-.4-1.6-.2.7-.3 1.2-.4 1.6l-1.2 3.8h-1.2l-1.8-6.4h1c.4 1.6.7 2.8.9 3.7.2.9.3 1.4.4 1.7 0-.2.1-.5.2-.9s.2-.6.2-.8l1.2-3.7h1.1l1.1 3.7c.2.7.4 1.2.4 1.7 0-.1.1-.4.1-.7 0-.3.5-1.9 1.2-4.7h1l-1.8 6.4h-.8z" class="st3"/>
  <path d="M-91.3 257.4c0-.2.1-.4.2-.5s.2-.2.4-.2.3.1.4.2c.1.1.2.3.2.5s-.1.4-.2.5c-.1.1-.2.2-.4.2s-.3-.1-.4-.2-.2-.3-.2-.5zm1.1 8.2h-1v-6.4h1v6.4z" class="st3"/>
  <path d="M-86.1 264.9h.5c.2 0 .3-.1.4-.1v.7c-.1.1-.3.1-.5.1h-.6c-1.2 0-1.9-.7-1.9-2v-3.8h-.8v-.5l.9-.4.4-1.4h.6v1.5h1.9v.8h-1.9v3.8c0 .4.1.7.3.9s.4.4.7.4z" class="st3"/>
  <path d="M-79.5 265.6v-4.2c0-.5-.1-.9-.4-1.2-.3-.3-.6-.4-1.1-.4-.7 0-1.2.2-1.5.6s-.5 1-.5 1.8v3.4h-1v-9.1h1v3.5h.1c.2-.3.5-.6.8-.7.3-.1.8-.3 1.2-.3.8 0 1.4.2 1.8.6s.6 1 .6 1.8v4.2h-1z" class="st3"/>
  <path d="M-69.1 265.6v-4.2c0-.5-.1-.9-.4-1.2-.3-.3-.6-.4-1.1-.4-.7 0-1.2.2-1.5.6s-.5 1-.5 1.8v3.4h-1v-9.1h1v3.5h.1c.2-.3.5-.6.8-.7.3-.1.8-.3 1.2-.3.8 0 1.4.2 1.8.6.4.4.6 1 .6 1.8v4.2h-1z" class="st3"/>
  <path d="M-62.1 265.6l-.2-.9c-.3.4-.6.7-1 .8s-.7.2-1.2.2c-.6 0-1.1-.2-1.5-.5-.4-.3-.5-.8-.5-1.4 0-1.3 1-2 3.1-2h1.1v-.4c0-.5-.1-.9-.3-1.1-.2-.2-.6-.4-1-.4-.5 0-1.1.2-1.8.5l-.3-.7c.3-.2.7-.3 1-.4.3-.1.8-.1 1.1-.1.8 0 1.3.2 1.7.5.4.3.6.9.6 1.6v4.4l-.8-.1zm-2.2-.7c.6 0 1.1-.2 1.4-.5.3-.3.5-.8.5-1.4v-.6h-1c-.8 0-1.3.1-1.7.4-.4.3-.5.5-.5 1 0 .4.1.6.3.8.2.2.6.3 1 .3z" class="st3"/>
  <path d="M-55 265.6v-4.2c0-.5-.1-.9-.4-1.2-.3-.3-.6-.4-1.1-.4-.7 0-1.2.2-1.5.5-.3.3-.5 1-.5 1.8v3.4h-1v-6.4h.8l.2.9c.2-.3.5-.6.8-.7s.8-.3 1.2-.3c.8 0 1.4.2 1.7.6s.6 1 .6 1.8v4.2h-.8z" class="st3"/>
  <path d="M-47.7 264.7c-.5.7-1.2 1-2.1 1-.8 0-1.5-.3-2-.9s-.7-1.4-.7-2.4.2-1.9.7-2.5 1.1-.9 2-.9 1.5.3 2 .9h.1v-3.6h1v9.1h-.8l-.2-.7zm-1.9.2c.7 0 1.1-.2 1.4-.5.3-.3.4-.9.4-1.7v-.2c0-.9-.2-1.6-.5-1.9-.3-.3-.8-.6-1.5-.6-.6 0-1 .2-1.3.7s-.5 1.1-.5 1.9c0 .8.2 1.4.5 1.9s.9.4 1.5.4z" class="st3"/>
  <path d="M-36.3 259.1v.6l-1.2.1c.1.1.2.3.3.5.1.2.1.5.1.7 0 .6-.2 1.1-.6 1.5s-1 .6-1.8.6h-.5c-.4.2-.6.5-.6.8 0 .2.1.3.2.4s.4.1.7.1h1.1c.7 0 1.2.1 1.6.4.4.3.6.7.6 1.3 0 .7-.3 1.3-.9 1.6-.6.3-1.4.6-2.5.6-.8 0-1.5-.2-1.9-.5s-.7-.8-.7-1.3c0-.4.1-.7.4-1 .3-.3.6-.5 1.1-.6-.2-.1-.3-.2-.4-.3-.1-.1-.2-.3-.2-.5s.1-.4.2-.6c.1-.2.3-.3.6-.5-.3-.1-.6-.4-.8-.7-.2-.3-.3-.7-.3-1.1 0-.7.2-1.2.6-1.6s1-.6 1.8-.6c.3 0 .6 0 .9.1h2.2zm-5.1 7.5c0 .3.1.6.4.8.3.2.7.3 1.3.3.8 0 1.4-.1 1.8-.4.4-.3.6-.6.6-1 0-.3-.1-.6-.3-.7s-.6-.2-1.2-.2H-40c-.4 0-.8.1-1 .3-.2.2-.4.5-.4.9zm.5-5.4c0 .4.1.8.4 1 .3.2.6.3 1.1.3.9 0 1.4-.5 1.4-1.4 0-1-.5-1.4-1.4-1.4-.5 0-.8.1-1.1.4-.3.3-.4.6-.4 1.1z" class="st3"/>
  <path d="M-32.3 265.7c-.9 0-1.7-.3-2.2-.9s-.8-1.4-.8-2.4.3-1.9.8-2.5 1.2-.9 2.1-.9c.8 0 1.4.3 1.9.8s.7 1.2.7 2.1v.6h-4.4c0 .8.2 1.3.6 1.7s.9.6 1.5.6c.7 0 1.4-.1 2.1-.4v.9c-.3.1-.7.3-1 .3s-.9.1-1.3.1zm-.2-5.9c-.5 0-.9.2-1.2.5-.3.3-.5.8-.5 1.4h3.2c0-.6-.1-1.1-.4-1.4-.3-.3-.6-.5-1.1-.5z" class="st3"/>
  <path d="M-24.1 263.8c0 .6-.2 1.1-.7 1.4-.5.3-1.1.5-1.9.5-.9 0-1.5-.1-2-.4v-.9c.3.2.6.3 1 .4s.7.1 1 .1c.5 0 .9-.1 1.2-.2s.4-.4.4-.7c0-.2-.1-.5-.3-.6s-.6-.4-1.3-.6c-.6-.2-1-.4-1.3-.6-.3-.2-.4-.4-.6-.6-.2-.2-.2-.5-.2-.8 0-.5.2-.9.6-1.2.4-.3 1-.5 1.8-.5.7 0 1.4.1 2 .4l-.2.7c-.6-.3-1.2-.4-1.8-.4-.5 0-.8.1-1 .2s-.4.3-.4.6c0 .2 0 .3.1.4s.2.2.4.3c.2.1.6.3 1.1.5.8.3 1.3.6 1.5.8.2.2.6.8.6 1.2z" class="st3"/>
  <path d="M-20.5 264.9h.5s.3-.1.4-.1v.7c-.1.1-.3.1-.5.1h-.6c-1.2 0-1.9-.7-1.9-2v-3.8h-.9v-.5l.9-.4.4-1.4h.6v1.5h1.9v.8h-1.9v3.8c0 .4.1.7.3.9s.5.4.8.4z" class="st3"/>
  <path d="M-17.4 259.1v4.2c0 .5.1.9.4 1.2s.6.4 1.1.4c.7 0 1.2-.2 1.5-.6.3-.4.5-1 .5-1.8v-3.4h1v6.4h-.8l-.1-.9h-.2c-.2.3-.5.6-.8.7-.3.1-.8.3-1.2.3-.8 0-1.4-.2-1.8-.6s-.6-1-.6-1.8V259h1v.1z" class="st3"/>
  <path d="M-8 259c.3 0 .5 0 .8.1l-.1.9c-.3-.1-.5-.1-.7-.1-.5 0-1 .2-1.3.6s-.7 1-.7 1.6v3.4h-1v-6.4h.8l.1 1.2c.2-.4.5-.7.9-1 .4-.3.8-.3 1.2-.3z" class="st3"/>
  <path d="M-3.3 265.7c-.9 0-1.7-.3-2.2-.9s-.8-1.4-.8-2.4.3-1.9.8-2.5 1.2-.9 2.1-.9c.8 0 1.4.3 1.9.8s.7 1.2.7 2.1v.6h-4.4c0 .8.2 1.3.6 1.7s.9.6 1.5.6c.7 0 1.4-.1 2.1-.4v.9c-.3.1-.7.3-1 .3s-.9.1-1.3.1zm-.3-5.9c-.5 0-.9.2-1.2.5-.3.3-.5.8-.5 1.4h3.4c0-.6-.1-1.1-.4-1.4-.3-.3-.8-.5-1.3-.5z" class="st3"/>
  <path d="M4.8 263.8c0 .6-.2 1.1-.7 1.4-.5.3-1.1.5-1.9.5-.9 0-1.5-.1-2-.4v-.9c.3.2.6.3 1 .4s.7.1 1 .1c.5 0 .9-.1 1.2-.2s.4-.4.4-.7c0-.2-.1-.5-.3-.6s-.6-.4-1.3-.6c-.6-.2-1-.4-1.3-.6-.3-.2-.4-.4-.6-.6-.2-.2-.2-.5-.2-.8 0-.5.2-.9.6-1.2.4-.3 1-.5 1.8-.5.7 0 1.4.1 2 .4l-.3.8c-.6-.3-1.2-.4-1.8-.4-.5 0-.8.1-1 .2s-.4.3-.4.6c0 .2 0 .3.1.4s.2.2.4.3.6.3 1.1.5c.8.3 1.3.6 1.5.8.2.2.7.7.7 1.1z" class="st3"/>
  <path d="M13.5 265.6l-.2-.9c-.3.4-.6.7-1 .8s-.7.2-1.2.2c-.6 0-1.1-.2-1.5-.5-.4-.3-.5-.8-.5-1.4 0-1.3 1-2 3.1-2h1.1v-.4c0-.5-.1-.9-.3-1.1-.2-.2-.6-.4-1-.4-.5 0-1.1.2-1.8.5l-.3-.7c.3-.2.7-.3 1-.4s.8-.1 1.1-.1c.8 0 1.3.2 1.7.5.4.3.6.9.6 1.6v4.4l-.8-.1zm-2.2-.7c.6 0 1.1-.2 1.4-.5.3-.3.5-.8.5-1.4v-.6h-1c-.8 0-1.3.1-1.7.4-.4.3-.5.5-.5 1 0 .4.1.6.3.8.2.2.6.3 1 .3z" class="st3"/>
  <path d="M20.6 265.6v-4.2c0-.5-.1-.9-.4-1.2-.3-.3-.6-.4-1.1-.4-.7 0-1.2.2-1.5.5-.3.3-.5 1-.5 1.8v3.4h-1v-6.4h.8l.2.9c.2-.3.5-.6.8-.7s.8-.3 1.2-.3c.8 0 1.4.2 1.7.6s.6 1 .6 1.8v4.2h-.8z" class="st3"/>
  <path d="M27.9 264.7c-.5.7-1.2 1-2.1 1-.8 0-1.5-.3-2-.9s-.7-1.4-.7-2.4.2-1.9.7-2.5 1.1-.9 2-.9 1.5.3 2 .9h.1v-3.6h1v9.1h-.8l-.2-.7zm-1.9.2c.7 0 1.1-.2 1.4-.5.3-.3.4-.9.4-1.7v-.2c0-.9-.2-1.6-.5-1.9-.3-.3-.8-.6-1.5-.6-.6 0-1 .2-1.3.7s-.5 1.1-.5 1.9c0 .8.2 1.4.5 1.9s.9.4 1.5.4z" class="st3"/>
  <path d="M38.4 264.7c-.5.7-1.2 1-2.1 1-.8 0-1.5-.3-2-.9s-.7-1.4-.7-2.4.2-1.9.7-2.5 1.1-.9 2-.9 1.5.3 2 .9h.1v-3.6h1v9.1h-.8l-.2-.7zm-1.9.2c.7 0 1.1-.2 1.4-.5.3-.3.4-.9.4-1.7v-.2c0-.9-.2-1.6-.5-1.9-.3-.3-.8-.6-1.5-.6-.6 0-1 .2-1.3.7s-.5 1.1-.5 1.9c0 .8.2 1.4.5 1.9s.9.4 1.5.4z" class="st3"/>
  <path d="M44.3 259c.3 0 .5 0 .8.1l-.1.9c-.3-.1-.5-.1-.7-.1-.5 0-1 .2-1.3.6s-.6.9-.6 1.6v3.4h-1v-6.4h.8l.1 1.2c.2-.4.5-.7.9-1 .4-.3.7-.3 1.1-.3z" class="st3"/>
  <path d="M50.2 265.6l-.2-.9c-.3.4-.6.7-1 .8s-.7.2-1.2.2c-.6 0-1.1-.2-1.5-.5-.4-.3-.5-.8-.5-1.4 0-1.3 1-2 3.1-2H50v-.4c0-.5-.1-.9-.3-1.1-.2-.2-.6-.4-1-.4-.5 0-1.1.2-1.8.5l-.3-.7c.3-.2.7-.3 1-.4s.8-.1 1.1-.1c.8 0 1.3.2 1.7.5.4.3.6.9.6 1.6v4.4l-.8-.1zm-2.2-.7c.6 0 1.1-.2 1.4-.5.3-.3.5-.8.5-1.4v-.6h-1c-.8 0-1.3.1-1.7.4-.4.3-.5.5-.5 1 0 .4.1.6.3.8.2.2.7.3 1 .3z" class="st3"/>
  <path d="M58.2 265.6l-1.2-3.8c-.1-.2-.2-.8-.4-1.6-.2.7-.3 1.2-.4 1.6l-1.2 3.8h-1.1l-1.8-6.4h1c.4 1.6.7 2.8.9 3.7s.3 1.4.4 1.7c0-.2.1-.5.2-.9s.2-.6.2-.8l1.2-3.7h1.1l1.1 3.7c.2.7.4 1.2.4 1.7 0-.1.1-.4.1-.7 0-.3.5-1.9 1.2-4.7h1l-1.8 6.4h-.9z" class="st3"/>
  <path d="M62.2 257.4c0-.2.1-.4.2-.5s.2-.2.4-.2.3.1.4.2.2.3.2.5-.1.4-.2.5-.2.2-.4.2-.3-.1-.4-.2-.2-.3-.2-.5zm1.1 8.2h-1v-6.4h1v6.4z" class="st3"/>
  <path d="M69.7 265.6v-4.2c0-.5-.1-.9-.4-1.2-.3-.3-.6-.4-1.1-.4-.7 0-1.2.2-1.5.5-.3.3-.5 1-.5 1.8v3.4h-1v-6.4h.8l.2.9c.2-.3.5-.6.8-.7s.8-.3 1.2-.3c.8 0 1.4.2 1.7.6s.6 1 .6 1.8v4.2h-.8z" class="st3"/>
  <path d="M78 259.1v.6l-1.2.1c.1.1.2.3.3.5.1.2.1.5.1.7 0 .6-.2 1.1-.6 1.5s-1 .6-1.8.6h-.5c-.4.2-.6.5-.6.8 0 .2.1.3.2.4s.4.1.7.1h1.1c.7 0 1.2.1 1.6.4.4.3.6.7.6 1.3 0 .7-.3 1.3-.9 1.6-.6.3-1.4.6-2.5.6-.8 0-1.5-.2-1.9-.5s-.7-.8-.7-1.3c0-.4.1-.7.4-1 .3-.3.6-.5 1.1-.6-.2-.1-.3-.2-.4-.3-.1-.1-.2-.3-.2-.5s.1-.4.2-.6c.1-.2.3-.3.6-.5-.3-.1-.6-.4-.8-.7-.2-.3-.3-.7-.3-1.1 0-.7.2-1.2.6-1.6s1-.6 1.8-.6c.3 0 .6 0 .9.1H78zm-5.2 7.5c0 .3.1.6.4.8.3.2.7.3 1.3.3.8 0 1.4-.1 1.8-.4.4-.3.6-.6.6-1 0-.3-.1-.6-.3-.7s-.6-.2-1.2-.2h-1.2c-.4 0-.8.1-1 .3-.2.2-.4.5-.4.9zm.6-5.4c0 .4.1.8.4 1 .3.2.6.3 1.1.3.9 0 1.4-.5 1.4-1.4 0-1-.5-1.4-1.4-1.4-.5 0-.8.1-1.1.4-.3.3-.4.6-.4 1.1z" class="st3"/>
  <path d="M83.4 263.8c0 .6-.2 1.1-.7 1.4-.5.3-1.1.5-1.9.5-.9 0-1.5-.1-2-.4v-.9c.3.2.6.3 1 .4s.7.1 1 .1c.5 0 .9-.1 1.2-.2s.4-.4.4-.7c0-.2-.1-.5-.3-.6s-.6-.4-1.3-.6c-.6-.2-1-.4-1.3-.6-.3-.2-.4-.4-.6-.6-.2-.2-.2-.5-.2-.8 0-.5.2-.9.6-1.2.4-.3 1-.5 1.8-.5.7 0 1.4.1 2 .4l-.3.8c-.6-.3-1.2-.4-1.8-.4-.5 0-.8.1-1 .2s-.4.3-.4.6c0 .2 0 .3.1.4s.2.2.4.3.6.3 1.1.5c.8.3 1.3.6 1.5.8.2.2.7.7.7 1.1z" class="st3"/>
  <path d="M84.9 264.9c0-.3.1-.5.2-.6.1-.1.3-.2.5-.2s.4.1.5.2c.1.1.2.3.2.6s-.1.4-.2.6c-.1.2-.3.2-.5.2s-.4-.1-.5-.2-.2-.3-.2-.6z" class="st3"/>
</svg>
