<?xml version="1.0" encoding="utf-8"?>
<!-- Generator: Adobe Illustrator 19.1.0, SVG Export Plug-In . SVG Version: 6.00 Build 0)  -->
<svg version="1.1" id="r-chart" xmlns="http://www.w3.org/2000/svg" xmlns:xlink="http://www.w3.org/1999/xlink" x="0px" y="0px"
	 width="127.4px" height="96.5px" viewBox="-599.3 399 127.4 96.5" enable-background="new -599.3 399 127.4 96.5"
	 xml:space="preserve">
<path fill="#1A2C3E" d="M-536.3,405.8v42.6l-52.3,20.6c0,0-18.9-22,4-46C-584.6,422.9-567.4,405.5-536.3,405.8L-536.3,405.8z"/>
<path fill="#1A2C3E" d="M-536.3,402.9v42.6l-52.3,20.6c0,0-18.9-22,4-46C-584.6,420.1-567.4,402.6-536.3,402.9z"/>
<path fill="#1A2C3E" d="M-506.5,487l-25.7-38v-42.7c0,0,40,0.3,54.9,25.2C-462.5,456.4-480.5,479.5-506.5,487z"/>
<path fill="#1A2C3E" d="M-506.5,483.5l-25.7-38v-42.6c0,0,40,0.3,54.9,25.2C-462.5,452.9-480.5,476.1-506.5,483.5L-506.5,483.5z"/>
<path fill="#1A2C3E" d="M-534.3,454.1l24.3,37.2c0,0-45.7,16.9-76.6-17.1L-534.3,454.1L-534.3,454.1z"/>
<path fill="#1A2C3E" d="M-510,491.1V488l-5.5-0.4L-510,491.1z"/>
<path fill="#1A2C3E" d="M-586.6,470.9v3.2l7.2-0.2L-586.6,470.9z"/>
<path fill="#1A2C3E" d="M-534.3,450.9l24.3,37.2c0,0-45.7,16.9-76.6-17.1L-534.3,450.9L-534.3,450.9z"/>
<path fill="#B17F60" d="M-539.7,402v42.6l-52.3,20.6c0,0-18.9-22,4-46C-588,419.1-570.8,401.7-539.7,402z"/>
<path fill="#FCD4BB" d="M-539.7,399.1v42.6l-52.3,20.6c0,0-18.9-22,4-46C-588,416.3-570.8,398.9-539.7,399.1z"/>
<path fill="#90684D" d="M-509.9,483.1l-25.7-38v-42.6c0,0,40,0.3,54.9,25.2C-465.9,452.5-483.9,475.6-509.9,483.1z"/>
<path fill="#B17F60" d="M-509.9,479.6l-25.7-38V399c0,0,40,0.3,54.9,25.2C-465.9,449.1-483.9,472.3-509.9,479.6z"/>
<path fill="#90684D" d="M-511,433.1h-1.6v2.5h-1.2v-2.5h-5.2V432l5.1-7.2h1.3v7.2h1.6L-511,433.1L-511,433.1z M-513.8,432v-3.6
	c0-0.7,0-1.5,0.1-2.4h-0.1c-0.2,0.5-0.5,0.9-0.7,1.2l-3.3,4.8H-513.8z"/>
<path fill="#90684D" d="M-503.4,427.4c0,0.7-0.2,1.2-0.6,1.7c-0.4,0.4-0.9,0.7-1.6,0.9v0.1c0.9,0.1,1.5,0.4,1.9,0.8s0.6,1,0.6,1.7
	c0,1-0.4,1.8-1.1,2.4c-0.7,0.5-1.7,0.8-3,0.8c-0.6,0-1.1,0-1.6-0.1s-0.9-0.2-1.4-0.5V434c0.5,0.2,1,0.4,1.5,0.5s1,0.2,1.5,0.2
	c1.9,0,2.8-0.7,2.8-2.2c0-1.3-1-1.9-3.1-1.9h-1.1v-1h1.1c0.8,0,1.5-0.2,2-0.6s0.7-0.9,0.7-1.5c0-0.5-0.2-0.9-0.5-1.2
	c-0.4-0.3-0.8-0.4-1.5-0.4c-0.5,0-0.9,0.1-1.3,0.2s-0.9,0.4-1.4,0.7l-0.6-0.8c0.4-0.3,0.9-0.6,1.5-0.8s1.2-0.3,1.8-0.3
	c1,0,1.8,0.2,2.4,0.7C-503.6,425.9-503.4,426.5-503.4,427.4L-503.4,427.4z"/>
<path fill="#90684D" d="M-497,428.1c0,1.1-0.2,2-0.6,2.5c-0.4,0.6-0.9,0.9-1.6,0.9s-1.2-0.3-1.6-0.9s-0.6-1.4-0.6-2.5
	s0.2-1.9,0.5-2.5c0.4-0.6,0.9-0.8,1.6-0.8s1.3,0.3,1.6,0.9S-497,427-497,428.1L-497,428.1z M-500.4,428.1c0,0.8,0.1,1.5,0.3,1.9
	c0.2,0.4,0.5,0.6,0.9,0.6c0.8,0,1.2-0.8,1.2-2.5s-0.4-2.5-1.2-2.5c-0.4,0-0.7,0.2-0.9,0.6S-500.4,427.3-500.4,428.1z M-492.5,424.9
	l-5.9,10.7h-1.1l5.9-10.7H-492.5z M-490.6,432.4c0,1.1-0.2,1.9-0.6,2.5s-0.9,0.9-1.6,0.9s-1.2-0.3-1.6-0.9s-0.6-1.4-0.6-2.5
	s0.2-1.9,0.5-2.5c0.4-0.6,0.9-0.8,1.6-0.8s1.2,0.3,1.6,0.9C-490.8,430.5-490.6,431.3-490.6,432.4L-490.6,432.4z M-493.9,432.4
	c0,0.8,0.1,1.5,0.3,1.9c0.2,0.4,0.5,0.6,0.9,0.6s0.7-0.2,0.9-0.6c0.2-0.4,0.3-1,0.3-1.9c0-0.8-0.1-1.5-0.3-1.9
	c-0.2-0.4-0.5-0.6-0.9-0.6s-0.7,0.2-0.9,0.6S-493.9,431.5-493.9,432.4z"/>
<path fill="#90684D" d="M-519.2,448.5v-10.7h1.2v9.6h4.7v1.1H-519.2L-519.2,448.5z"/>
<path fill="#90684D" d="M-505.4,448.5h-6v-10.7h6v1.1h-4.7v3.4h4.4v1.1h-4.4v3.9h4.7V448.5z"/>
<path fill="#90684D" d="M-501.8,448.5h-1.2v-10.7h6v1.1h-4.7v3.9h4.4v1.1h-4.4L-501.8,448.5L-501.8,448.5L-501.8,448.5z"/>
<path fill="#90684D" d="M-492,448.5h-1.2v-9.6h-3.4v-1.1h8v1.1h-3.4V448.5L-492,448.5z"/>
<path fill="#C95145" d="M-537.7,450.3l24.3,37.2c0,0-45.7,16.9-76.6-17.1L-537.7,450.3L-537.7,450.3z"/>
<path fill="#C95145" d="M-513.4,487.5v-3.2l-5.5-0.3L-513.4,487.5z"/>
<path fill="#C95145" d="M-590,467.1v3.1l7.2-0.1L-590,467.1z"/>
<path fill="#F26F5B" d="M-537.7,447.1l24.3,37.2c0,0-45.7,16.9-76.6-17.1L-537.7,447.1z"/>
<path fill="#231F20" d="M-511.9,432.3h-1.6v2.5h-1.2v-2.5h-5.2v-1.1l5.1-7.2h1.3v7.2h1.6L-511.9,432.3L-511.9,432.3z M-514.7,431.1
	v-3.6c0-0.7,0-1.5,0.1-2.4h-0.1c-0.2,0.5-0.5,0.9-0.7,1.2l-3.3,4.8H-514.7z"/>
<path fill="#231F20" d="M-504.2,426.5c0,0.7-0.2,1.2-0.6,1.7c-0.4,0.4-0.9,0.7-1.6,0.9v0.1c0.9,0.1,1.5,0.4,1.9,0.8s0.6,1,0.6,1.7
	c0,1-0.4,1.8-1.1,2.4c-0.7,0.5-1.7,0.8-3,0.8c-0.6,0-1.1,0-1.6-0.1s-0.9-0.2-1.4-0.5v-1.2c0.5,0.2,1,0.4,1.5,0.5s1,0.2,1.5,0.2
	c1.9,0,2.8-0.7,2.8-2.2c0-1.3-1-1.9-3.1-1.9h-1.1v-1h1.1c0.8,0,1.5-0.2,2-0.6s0.7-0.9,0.7-1.5c0-0.5-0.2-0.9-0.5-1.2
	c-0.4-0.3-0.8-0.4-1.5-0.4c-0.5,0-0.9,0.1-1.3,0.2s-0.9,0.4-1.4,0.7l-0.6-0.8c0.4-0.3,0.9-0.6,1.5-0.8s1.2-0.3,1.8-0.3
	c1,0,1.8,0.2,2.4,0.7C-504.5,425-504.2,425.6-504.2,426.5L-504.2,426.5z"/>
<path fill="#231F20" d="M-497.9,427.1c0,1.1-0.2,2-0.6,2.5c-0.4,0.6-0.9,0.9-1.6,0.9s-1.2-0.3-1.6-0.9s-0.6-1.4-0.6-2.5
	s0.2-1.9,0.5-2.5c0.4-0.6,0.9-0.8,1.6-0.8s1.3,0.3,1.6,0.9S-497.9,426.1-497.9,427.1L-497.9,427.1z M-501.3,427.1
	c0,0.8,0.1,1.5,0.3,1.9c0.2,0.4,0.5,0.6,0.9,0.6c0.8,0,1.2-0.8,1.2-2.5s-0.4-2.5-1.2-2.5c-0.4,0-0.7,0.2-0.9,0.6
	S-501.3,426.4-501.3,427.1z M-493.4,424l-5.9,10.7h-1.1l5.9-10.7H-493.4z M-491.5,431.5c0,1.1-0.2,1.9-0.6,2.5s-0.9,0.9-1.6,0.9
	s-1.2-0.3-1.6-0.9s-0.6-1.4-0.6-2.5s0.2-1.9,0.5-2.5c0.4-0.6,0.9-0.8,1.6-0.8s1.2,0.3,1.6,0.9C-491.7,429.5-491.5,430.4-491.5,431.5
	L-491.5,431.5z M-494.8,431.5c0,0.8,0.1,1.5,0.3,1.9c0.2,0.4,0.5,0.6,0.9,0.6s0.7-0.2,0.9-0.6c0.2-0.4,0.3-1,0.3-1.9
	c0-0.8-0.1-1.5-0.3-1.9c-0.2-0.4-0.5-0.6-0.9-0.6s-0.7,0.2-0.9,0.6S-494.8,430.6-494.8,431.5z"/>
<path fill="#231F20" d="M-520.1,447.6v-10.7h1.2v9.6h4.7v1.1H-520.1L-520.1,447.6z"/>
<path fill="#231F20" d="M-506.3,447.6h-6v-10.7h6v1.1h-4.7v3.4h4.4v1.1h-4.4v3.9h4.7V447.6z"/>
<path fill="#231F20" d="M-502.7,447.6h-1.2v-10.7h6v1.1h-4.7v3.9h4.4v1.1h-4.4L-502.7,447.6L-502.7,447.6z"/>
<path fill="#231F20" d="M-492.9,447.6h-1.2V438h-3.4v-1.1h8v1.1h-3.4V447.6L-492.9,447.6z"/>
<path fill="#C95145" d="M-553.5,467.6h-7v-1l2.8-2.8c0.9-0.9,1.4-1.5,1.7-1.9c0.3-0.4,0.5-0.7,0.6-1.1c0.1-0.4,0.2-0.7,0.2-1.1
	c0-0.6-0.2-1-0.5-1.4c-0.3-0.3-0.8-0.5-1.4-0.5c-0.4,0-0.9,0.1-1.3,0.2c-0.4,0.1-0.8,0.4-1.3,0.8l-0.6-0.8c1-0.8,2.1-1.2,3.2-1.2
	c1,0,1.8,0.3,2.4,0.8c0.6,0.5,0.9,1.2,0.9,2.1c0,0.7-0.2,1.4-0.6,2c-0.4,0.6-1.1,1.5-2.1,2.5l-2.3,2.3v0.1h5.5v1H-553.5
	L-553.5,467.6z"/>
<path fill="#C95145" d="M-544.4,465.3h-1.6v2.5h-1.2v-2.5h-5.2v-1.1l5.1-7.2h1.3v7.2h1.6L-544.4,465.3L-544.4,465.3z M-547.2,464.1
	v-3.6c0-0.7,0-1.5,0.1-2.4h-0.1c-0.2,0.5-0.5,0.9-0.7,1.2l-3.3,4.8H-547.2z"/>
<path fill="#C95145" d="M-539,460.1c0,1.1-0.2,2-0.6,2.5c-0.4,0.6-0.9,0.9-1.6,0.9s-1.2-0.3-1.6-0.9c-0.4-0.6-0.6-1.4-0.6-2.5
	s0.2-1.9,0.5-2.5c0.4-0.6,0.9-0.8,1.6-0.8s1.3,0.3,1.6,0.9C-539.4,458.4-539,459.1-539,460.1L-539,460.1z M-542.3,460.1
	c0,0.8,0.1,1.5,0.3,1.9c0.2,0.4,0.5,0.6,0.9,0.6c0.8,0,1.2-0.8,1.2-2.5s-0.4-2.5-1.2-2.5c-0.4,0-0.7,0.2-0.9,0.6
	C-542.2,458.6-542.3,459.4-542.3,460.1z M-534.4,457l-5.9,10.7h-1.1l5.9-10.7H-534.4z M-532.5,464.5c0,1.1-0.2,1.9-0.6,2.5
	c-0.4,0.6-0.9,0.9-1.6,0.9s-1.2-0.3-1.6-0.9c-0.4-0.6-0.6-1.4-0.6-2.5s0.2-1.9,0.5-2.5c0.4-0.6,0.9-0.8,1.6-0.8s1.2,0.3,1.6,0.9
	C-532.7,462.5-532.5,463.4-532.5,464.5L-532.5,464.5z M-535.9,464.5c0,0.8,0.1,1.5,0.3,1.9c0.2,0.4,0.5,0.6,0.9,0.6
	c0.4,0,0.7-0.2,0.9-0.6c0.2-0.4,0.3-1,0.3-1.9c0-0.8-0.1-1.5-0.3-1.9c-0.2-0.4-0.5-0.6-0.9-0.6c-0.4,0-0.7,0.2-0.9,0.6
	C-535.8,463.1-535.9,463.6-535.9,464.5z"/>
<path fill="#C95145" d="M-565.7,476.3v4.5h-1.2v-10.7h2.9c1.3,0,2.3,0.3,2.9,0.8c0.6,0.5,0.9,1.3,0.9,2.3c0,1.4-0.7,2.4-2.2,2.9
	l2.9,4.8h-1.5l-2.6-4.5L-565.7,476.3L-565.7,476.3z M-565.7,475.1h1.7c0.9,0,1.5-0.2,1.9-0.5c0.4-0.3,0.6-0.9,0.6-1.6
	s-0.2-1.2-0.6-1.5c-0.4-0.3-1.1-0.5-2-0.5h-1.6V475.1L-565.7,475.1z"/>
<path fill="#C95145" d="M-557.6,480.6v-10.7h1.2v10.7H-557.6z"/>
<path fill="#C95145" d="M-548.8,475.1h3.6v5.2c-0.6,0.2-1.1,0.3-1.7,0.4c-0.6,0.1-1.3,0.1-2,0.1c-1.6,0-2.9-0.5-3.8-1.4
	c-0.9-1-1.4-2.3-1.4-4.1c0-1.1,0.2-2.1,0.7-2.9c0.4-0.8,1.1-1.5,1.9-1.9s1.8-0.7,3-0.7c1.1,0,2.2,0.2,3.2,0.6l-0.5,1.1
	c-1-0.4-1.9-0.6-2.8-0.6c-1.3,0-2.3,0.4-3.1,1.2c-0.8,0.8-1.1,1.9-1.1,3.2c0,1.4,0.4,2.5,1.1,3.3c0.7,0.7,1.7,1.1,3.1,1.1
	c0.7,0,1.5-0.1,2.2-0.3v-3.2h-2.4L-548.8,475.1L-548.8,475.1z"/>
<path fill="#C95145" d="M-534.4,480.6h-1.2v-5h-5.6v5h-1.2v-10.7h1.2v4.6h5.6v-4.6h1.2V480.6z"/>
<path fill="#C95145" d="M-528.2,480.6h-1.2V471h-3.4v-1.1h8v1.1h-3.4V480.6L-528.2,480.6z"/>
<path fill="#B17F60" d="M-570.2,418.7c0,0.7-0.2,1.2-0.6,1.7c-0.4,0.4-0.9,0.7-1.6,0.9v0.1c0.9,0.1,1.5,0.4,1.9,0.8
	c0.4,0.4,0.6,1,0.6,1.7c0,1-0.4,1.8-1.1,2.4c-0.7,0.5-1.7,0.8-3,0.8c-0.6,0-1.1,0-1.6-0.1s-0.9-0.2-1.4-0.5v-1.2
	c0.5,0.2,1,0.4,1.5,0.5s1,0.2,1.5,0.2c1.9,0,2.8-0.7,2.8-2.2c0-1.3-1-1.9-3.1-1.9h-0.9v-1h1.1c0.8,0,1.5-0.2,2-0.6s0.7-0.9,0.7-1.5
	c0-0.5-0.2-0.9-0.5-1.2c-0.4-0.3-0.8-0.4-1.5-0.4c-0.5,0-0.9,0.1-1.3,0.2c-0.4,0.1-0.9,0.4-1.4,0.7l-0.6-0.8
	c0.4-0.3,0.9-0.6,1.5-0.8c0.6-0.2,1.2-0.3,1.8-0.3c1,0,1.8,0.2,2.4,0.7C-570.4,417.2-570.2,417.9-570.2,418.7L-570.2,418.7z"/>
<path fill="#B17F60" d="M-561.6,418.7c0,0.7-0.2,1.2-0.6,1.7c-0.4,0.4-0.9,0.7-1.6,0.9v0.1c0.9,0.1,1.5,0.4,1.9,0.8
	c0.4,0.4,0.6,1,0.6,1.7c0,1-0.4,1.8-1.1,2.4c-0.7,0.5-1.7,0.8-3,0.8c-0.6,0-1.1,0-1.6-0.1s-0.9-0.2-1.4-0.5v-1.2
	c0.5,0.2,1,0.4,1.5,0.5s1,0.2,1.5,0.2c1.9,0,2.8-0.7,2.8-2.2c0-1.3-1-1.9-3.1-1.9h-1.1v-1h1.1c0.8,0,1.5-0.2,2-0.6s0.7-0.9,0.7-1.5
	c0-0.5-0.2-0.9-0.5-1.2c-0.4-0.3-0.8-0.4-1.5-0.4c-0.5,0-0.9,0.1-1.3,0.2c-0.4,0.1-0.9,0.4-1.4,0.7l-0.6-0.8
	c0.4-0.3,0.9-0.6,1.5-0.8c0.6-0.2,1.2-0.3,1.8-0.3c1,0,1.8,0.2,2.4,0.7C-561.9,417.2-561.6,417.9-561.6,418.7L-561.6,418.7z"/>
<path fill="#B17F60" d="M-555.2,419.4c0,1.1-0.2,2-0.6,2.5c-0.4,0.6-0.9,0.9-1.6,0.9s-1.2-0.3-1.6-0.9c-0.4-0.6-0.6-1.4-0.6-2.5
	s0.2-1.9,0.5-2.5c0.4-0.6,0.9-0.8,1.6-0.8s1.3,0.3,1.6,0.9C-555.6,417.6-555.2,418.3-555.2,419.4L-555.2,419.4z M-558.6,419.4
	c0,0.8,0.1,1.5,0.3,1.9c0.2,0.4,0.5,0.6,0.9,0.6c0.8,0,1.2-0.8,1.2-2.5s-0.4-2.5-1.2-2.5c-0.4,0-0.7,0.2-0.9,0.6
	C-558.5,417.9-558.6,418.6-558.6,419.4z M-550.7,416.2l-5.9,10.7h-1.1l5.9-10.7H-550.7L-550.7,416.2z M-548.8,423.6
	c0,1.1-0.2,1.9-0.6,2.5c-0.4,0.6-0.9,0.9-1.6,0.9s-1.2-0.3-1.6-0.9c-0.4-0.6-0.6-1.4-0.6-2.5s0.2-1.9,0.5-2.5
	c0.4-0.6,0.9-0.8,1.6-0.8s1.2,0.3,1.6,0.9C-549,421.8-548.8,422.6-548.8,423.6L-548.8,423.6z M-552.2,423.6c0,0.8,0.1,1.5,0.3,1.9
	c0.2,0.4,0.5,0.6,0.9,0.6c0.4,0,0.7-0.2,0.9-0.6s0.3-1,0.3-1.9c0-0.8-0.1-1.5-0.3-1.9c-0.2-0.4-0.5-0.6-0.9-0.6
	c-0.4,0-0.7,0.2-0.9,0.6C-552.1,422.2-552.2,422.8-552.2,423.6z"/>
<path fill="#B17F60" d="M-581.7,429.1h3c1.4,0,2.4,0.2,3.1,0.6c0.6,0.4,1,1.1,1,2c0,0.6-0.2,1.2-0.5,1.6c-0.4,0.4-0.9,0.7-1.5,0.8
	v0.1c1.6,0.3,2.4,1.1,2.4,2.6c0,1-0.3,1.7-1,2.2c-0.6,0.5-1.6,0.8-2.7,0.8h-3.7L-581.7,429.1L-581.7,429.1z M-580.4,433.8h2.1
	c0.9,0,1.5-0.1,1.9-0.4c0.4-0.3,0.6-0.7,0.6-1.4c0-0.6-0.2-1-0.6-1.3c-0.4-0.3-1.1-0.4-2.1-0.4h-1.8L-580.4,433.8L-580.4,433.8
	L-580.4,433.8z M-580.4,434.8v4h2.2c0.9,0,1.5-0.2,2-0.5c0.4-0.3,0.7-0.9,0.7-1.6s-0.2-1.2-0.7-1.5c-0.4-0.3-1.1-0.5-2-0.5
	L-580.4,434.8L-580.4,434.8z"/>
<path fill="#B17F60" d="M-562.7,434.5c0,1.7-0.4,3.1-1.3,4c-0.9,1-2.1,1.5-3.6,1.5c-1.6,0-2.8-0.5-3.7-1.4c-0.9-1-1.3-2.3-1.3-4.1
	c0-1.7,0.4-3.1,1.3-4.1c0.9-1,2.1-1.4,3.7-1.4c1.5,0,2.7,0.5,3.6,1.5C-563.1,431.5-562.7,432.8-562.7,434.5z M-571.2,434.5
	c0,1.5,0.3,2.6,0.9,3.3c0.6,0.8,1.5,1.1,2.7,1.1s2.1-0.4,2.7-1.1c0.6-0.7,0.9-1.8,0.9-3.3c0-1.4-0.3-2.5-0.9-3.3
	c-0.6-0.7-1.5-1.1-2.7-1.1s-2.1,0.4-2.7,1.1C-570.9,432-571.2,433.1-571.2,434.5z"/>
<path fill="#B17F60" d="M-557,439.9h-1.2v-9.6h-3.4v-1.1h8v1.1h-3.4V439.9L-557,439.9z"/>
<path fill="#B17F60" d="M-543.9,439.9h-1.2v-5h-5.6v5h-1.2v-10.7h1.2v4.6h5.6v-4.6h1.2V439.9z"/>
<path fill="#231F20" d="M-554.4,466.8h-7v-1l2.8-2.8c0.9-0.9,1.4-1.5,1.7-1.9c0.3-0.4,0.5-0.7,0.6-1.1c0.1-0.4,0.2-0.7,0.2-1.1
	c0-0.6-0.2-1-0.5-1.4c-0.3-0.3-0.8-0.5-1.4-0.5c-0.4,0-0.9,0.1-1.3,0.2c-0.4,0.1-0.8,0.4-1.3,0.8l-0.6-0.8c1-0.8,2.1-1.2,3.2-1.2
	c1,0,1.8,0.3,2.4,0.8c0.6,0.5,0.9,1.2,0.9,2.1c0,0.7-0.2,1.4-0.6,2c-0.4,0.6-1.1,1.5-2.1,2.5l-2.3,2.3v0.1h5.5v1H-554.4
	L-554.4,466.8z"/>
<path fill="#231F20" d="M-545.3,464.4h-1.6v2.5h-1.2v-2.5h-5.2v-1.1l5.1-7.2h1.3v7.2h1.6V464.4L-545.3,464.4z M-548.1,463.3v-3.6
	c0-0.7,0-1.5,0.1-2.4h-0.1c-0.2,0.5-0.5,0.9-0.7,1.2l-3.3,4.8H-548.1z"/>
<path fill="#231F20" d="M-539.9,459.3c0,1.1-0.2,2-0.6,2.5c-0.4,0.6-0.9,0.9-1.6,0.9s-1.2-0.3-1.6-0.9c-0.4-0.6-0.6-1.4-0.6-2.5
	s0.2-1.9,0.5-2.5c0.4-0.6,0.9-0.8,1.6-0.8s1.3,0.3,1.6,0.9C-540.3,457.5-539.9,458.3-539.9,459.3L-539.9,459.3z M-543.2,459.3
	c0,0.8,0.1,1.5,0.3,1.9c0.2,0.4,0.5,0.6,0.9,0.6c0.8,0,1.2-0.8,1.2-2.5s-0.4-2.5-1.2-2.5c-0.4,0-0.7,0.2-0.9,0.6
	C-543.1,457.8-543.2,458.5-543.2,459.3z M-535.3,456.1l-5.9,10.7h-1.1l5.9-10.7H-535.3z M-533.4,463.5c0,1.1-0.2,1.9-0.6,2.5
	c-0.4,0.6-0.9,0.9-1.6,0.9s-1.2-0.3-1.6-0.9c-0.4-0.6-0.6-1.4-0.6-2.5s0.2-1.9,0.5-2.5c0.4-0.6,0.9-0.8,1.6-0.8s1.2,0.3,1.6,0.9
	C-533.6,461.6-533.4,462.5-533.4,463.5L-533.4,463.5z M-536.8,463.5c0,0.8,0.1,1.5,0.3,1.9c0.2,0.4,0.5,0.6,0.9,0.6
	c0.4,0,0.7-0.2,0.9-0.6c0.2-0.4,0.3-1,0.3-1.9c0-0.8-0.1-1.5-0.3-1.9c-0.2-0.4-0.5-0.6-0.9-0.6c-0.4,0-0.7,0.2-0.9,0.6
	C-536.7,462.1-536.8,462.8-536.8,463.5z"/>
<path fill="#231F20" d="M-566.6,475.4v4.5h-1.2v-10.7h2.9c1.3,0,2.3,0.3,2.9,0.8c0.6,0.5,0.9,1.3,0.9,2.3c0,1.4-0.7,2.4-2.2,2.9
	l2.9,4.8h-1.5l-2.6-4.5L-566.6,475.4L-566.6,475.4z M-566.6,474.3h1.7c0.9,0,1.5-0.2,1.9-0.5c0.4-0.3,0.6-0.9,0.6-1.6
	s-0.2-1.2-0.6-1.5c-0.4-0.3-1.1-0.5-2-0.5h-1.6V474.3L-566.6,474.3z"/>
<path fill="#231F20" d="M-558.5,479.8v-10.7h1.2v10.7H-558.5z"/>
<path fill="#231F20" d="M-549.6,474.1h3.6v5.2c-0.6,0.2-1.1,0.3-1.7,0.4c-0.6,0.1-1.3,0.1-2,0.1c-1.6,0-2.9-0.5-3.8-1.4
	c-0.9-1-1.4-2.3-1.4-4.1c0-1.1,0.2-2.1,0.7-2.9c0.4-0.8,1.1-1.5,1.9-1.9s1.8-0.7,3-0.7c1.1,0,2.2,0.2,3.2,0.6l-0.5,1.1
	c-1-0.4-1.9-0.6-2.8-0.6c-1.3,0-2.3,0.4-3.1,1.2c-0.8,0.8-1.1,1.9-1.1,3.2c0,1.4,0.4,2.5,1.1,3.3c0.7,0.7,1.7,1.1,3.1,1.1
	c0.7,0,1.5-0.1,2.2-0.3v-3.1h-2.4L-549.6,474.1L-549.6,474.1z"/>
<path fill="#231F20" d="M-535.3,479.8h-1.2v-5h-5.7v5h-1.2v-10.7h1.2v4.6h5.6v-4.6h1.2L-535.3,479.8L-535.3,479.8z"/>
<path fill="#231F20" d="M-529.1,479.8h-1.2v-9.6h-3.4v-1.1h8v1.1h-3.4V479.8L-529.1,479.8z"/>
<path fill="#231F20" d="M-571,417.8c0,0.7-0.2,1.2-0.6,1.7c-0.4,0.4-0.9,0.7-1.6,0.9v0.1c0.9,0.1,1.5,0.4,1.9,0.8
	c0.4,0.4,0.6,1,0.6,1.7c0,1-0.4,1.8-1.1,2.4c-0.7,0.5-1.7,0.8-3,0.8c-0.6,0-1.1,0-1.6-0.1s-0.9-0.2-1.4-0.5v-1.2
	c0.5,0.2,1,0.4,1.5,0.5s1,0.2,1.5,0.2c1.9,0,2.8-0.7,2.8-2.2c0-1.3-1-1.9-3.1-1.9h-1.1v-1h1.1c0.8,0,1.5-0.2,2-0.6s0.7-0.9,0.7-1.5
	c0-0.5-0.2-0.9-0.5-1.2c-0.4-0.3-0.8-0.4-1.5-0.4c-0.5,0-0.9,0.1-1.3,0.2c-0.4,0.1-0.9,0.4-1.4,0.7l-0.6-0.8
	c0.4-0.3,0.9-0.6,1.5-0.8c0.6-0.2,1.2-0.3,1.8-0.3c1,0,1.8,0.2,2.4,0.7C-571.3,416.3-571,417-571,417.8z"/>
<path fill="#231F20" d="M-562.5,417.8c0,0.7-0.2,1.2-0.6,1.7c-0.4,0.4-0.9,0.7-1.6,0.9v0.1c0.9,0.1,1.5,0.4,1.9,0.8
	c0.4,0.4,0.6,1,0.6,1.7c0,1-0.4,1.8-1.1,2.4c-0.7,0.5-1.7,0.8-3,0.8c-0.6,0-1.1,0-1.6-0.1s-0.9-0.2-1.4-0.5v-1.2
	c0.5,0.2,1,0.4,1.5,0.5s1,0.2,1.5,0.2c1.9,0,2.8-0.7,2.8-2.2c0-1.3-1-1.9-3.1-1.9h-1.1v-1h1.1c0.8,0,1.5-0.2,2-0.6s0.7-0.9,0.7-1.5
	c0-0.5-0.2-0.9-0.5-1.2c-0.4-0.3-0.8-0.4-1.5-0.4c-0.5,0-0.9,0.1-1.3,0.2c-0.4,0.1-0.9,0.4-1.4,0.7l-0.6-0.8
	c0.4-0.3,0.9-0.6,1.5-0.8c0.6-0.2,1.2-0.3,1.8-0.3c1,0,1.8,0.2,2.4,0.7C-562.8,416.3-562.5,417-562.5,417.8L-562.5,417.8z"/>
<path fill="#231F20" d="M-556.1,418.5c0,1.1-0.2,2-0.6,2.5c-0.4,0.6-0.9,0.9-1.6,0.9s-1.2-0.3-1.6-0.9c-0.4-0.6-0.6-1.4-0.6-2.5
	s0.2-1.9,0.5-2.5c0.4-0.6,0.9-0.8,1.6-0.8s1.3,0.3,1.6,0.9S-556.1,417.4-556.1,418.5L-556.1,418.5z M-559.5,418.5
	c0,0.8,0.1,1.5,0.3,1.9c0.2,0.4,0.5,0.6,0.9,0.6c0.8,0,1.2-0.8,1.2-2.5s-0.4-2.5-1.2-2.5c-0.4,0-0.7,0.2-0.9,0.6
	C-559.4,417-559.5,417.7-559.5,418.5z M-551.6,415.3l-5.9,10.7h-1.1l5.9-10.7H-551.6z M-549.7,422.8c0,1.1-0.2,1.9-0.6,2.5
	c-0.4,0.6-0.9,0.9-1.6,0.9s-1.2-0.3-1.6-0.9c-0.4-0.6-0.6-1.4-0.6-2.5s0.2-1.9,0.5-2.5c0.4-0.6,0.9-0.8,1.6-0.8s1.2,0.3,1.6,0.9
	C-549.9,420.9-549.7,421.7-549.7,422.8L-549.7,422.8z M-553,422.8c0,0.8,0.1,1.5,0.3,1.9c0.2,0.4,0.5,0.6,0.9,0.6
	c0.4,0,0.7-0.2,0.9-0.6c0.2-0.4,0.3-1,0.3-1.9c0-0.8-0.1-1.5-0.3-1.9c-0.2-0.4-0.5-0.6-0.9-0.6c-0.4,0-0.7,0.2-0.9,0.6
	C-553,421.3-553,422-553,422.8z"/>
<path fill="#231F20" d="M-582.6,428.3h3c1.4,0,2.4,0.2,3.1,0.6c0.6,0.4,1,1.1,1,2c0,0.6-0.2,1.2-0.5,1.6c-0.4,0.4-0.9,0.7-1.5,0.8
	v0.1c1.6,0.3,2.4,1.1,2.4,2.6c0,1-0.3,1.7-1,2.2c-0.6,0.5-1.6,0.8-2.7,0.8h-3.7L-582.6,428.3L-582.6,428.3z M-581.3,432.9h2.1
	c0.9,0,1.5-0.1,1.9-0.4c0.4-0.3,0.6-0.7,0.6-1.4c0-0.6-0.2-1-0.6-1.3c-0.4-0.3-1.1-0.4-2.1-0.4h-1.8L-581.3,432.9L-581.3,432.9z
	 M-581.3,433.9v4h2.2c0.9,0,1.5-0.2,2-0.5c0.4-0.3,0.7-0.9,0.7-1.6s-0.2-1.2-0.7-1.5c-0.4-0.3-1.1-0.5-2-0.5L-581.3,433.9
	L-581.3,433.9z"/>
<path fill="#231F20" d="M-563.6,433.5c0,1.7-0.4,3.1-1.3,4c-0.9,1-2.1,1.5-3.6,1.5c-1.6,0-2.8-0.5-3.7-1.4c-0.9-1-1.3-2.3-1.3-4.1
	c0-1.7,0.4-3.1,1.3-4.1c0.9-1,2.1-1.4,3.7-1.4c1.5,0,2.7,0.5,3.6,1.5C-564,430.5-563.6,431.9-563.6,433.5z M-572.1,433.5
	c0,1.5,0.3,2.6,0.9,3.3c0.6,0.8,1.5,1.1,2.7,1.1s2.1-0.4,2.7-1.1c0.6-0.7,0.9-1.8,0.9-3.3c0-1.4-0.3-2.5-0.9-3.3
	c-0.6-0.7-1.5-1.1-2.7-1.1s-2.1,0.4-2.7,1.1C-571.8,431.1-572.1,432.1-572.1,433.5z"/>
<path fill="#231F20" d="M-557.9,439h-1.2v-9.6h-3.4v-1.1h8v1.1h-3.4V439L-557.9,439z"/>
<path fill="#231F20" d="M-544.7,439h-1.2v-5h-5.6v5h-1.2v-10.7h1.2v4.6h5.6v-4.6h1.2V439z"/>
</svg>
