<?xml version="1.0" encoding="utf-8"?>
<!-- Generator: Adobe Illustrator 19.1.0, SVG Export Plug-In . SVG Version: 6.00 Build 0)  -->
<svg version="1.1" id="l-icon-1" xmlns="http://www.w3.org/2000/svg" xmlns:xlink="http://www.w3.org/1999/xlink" x="0px" y="0px"
	 width="200px" height="200px" viewBox="-388.8 296.8 200 200" enable-background="new -388.8 296.8 200 200" xml:space="preserve">
<path fill="#1A2C3F" d="M-188.8,400c0,44.6-30.1,82-71.1,93.3c-8.3,2.3-16.8,3.5-25.7,3.5c-12.1,0-23.6-2.2-34.3-6.2
	c-36.5-13.9-62.5-49.2-62.5-90.6c0-41.4,26-76.8,62.5-90.6c10.6-4,22.2-6.2,34.3-6.2c8.9,0,17.5,1.1,25.7,3.4
	c4.2,1.1,8.3,2.6,12.2,4.3c10.2,4.3,19.4,10.3,27.5,17.7C-200.9,346.2-188.8,371.7-188.8,400z"/>
<circle fill="#F26F5B" cx="-294.5" cy="392.2" r="94.3"/>
<path fill="#FCD4BB" d="M-229.1,404.8c-0.2,35.4-28.9,64-64.3,64c-35.4,0-64.1-28.6-64.3-64H-229.1z"/>
<circle fill="#FCD4BB" cx="-254.3" cy="360.5" r="20.6"/>
<circle fill="#FCD4BB" cx="-332.2" cy="360.5" r="20.6"/>
</svg>
