<?xml version="1.0" encoding="utf-8"?>
<!-- Generator: Adobe Illustrator 19.1.0, SVG Export Plug-In . SVG Version: 6.00 Build 0)  -->
<svg version="1.1" id="right-hands" xmlns="http://www.w3.org/2000/svg" xmlns:xlink="http://www.w3.org/1999/xlink" x="0px"
	 y="0px" width="283.9px" height="140.3px" viewBox="-469 326.7 283.9 140.3" enable-background="new -469 326.7 283.9 140.3"
	 xml:space="preserve">
<path fill="#B17F60" d="M-189,333.5h-267.9c-2.2,0-3.9,1.7-3.9,3.9v125.7c0,2.2,1.7,3.9,3.9,3.9H-189c2.2,0,3.9-1.7,3.9-3.9V337.4
	C-185.1,335.2-186.9,333.5-189,333.5z"/>
<path fill="#344B62" d="M-197.2,326.7h-267.9c-2.2,0-3.9,1.7-3.9,3.9v125.7c0,2.2,1.7,3.9,3.9,3.9h267.9c2.2,0,3.9-1.7,3.9-3.9
	V330.6C-193.3,328.4-195.1,326.7-197.2,326.7z"/>
<path fill="#F26F5B" d="M-289.2,378.3c0.1-0.6,0.4-3.5,0.4-4.2c-0.1-0.7,0.4-1.8,0.4-2c0.1-0.1,0.5-0.7,1-1.6c0.6-1,1-2.8,1.3-3.1
	c0.3-0.4,1.5-2.6,1.9-4s0.8-4.5,1-5.1s0.5-1.5,0.5-2.4s0.5-2.3,0.4-2.5c0-0.2,0-2,1-3.6c0.5-0.8,0.7-1.5,0.8-2
	c0.1-0.7,0.3-1.4,0.6-2.1c0.2-0.4,0.3-0.8,0.3-0.9c0.1-0.3,1.6-3.9,0.8-4.6c-0.7-0.6-1.3-0.6-1.3-0.6c-0.1,0-0.9,0.3-1.6,2.3
	c-0.7,1.9-1,2.4-1.1,2.5c-0.1,0.2-0.6,1.8-0.8,1.9c-0.2,0.2-1.1,2-1.2,2.8c-0.1,0.7-0.6,2.1-1.4,1.7s-0.9-0.8-0.9-1.5s0-3.4,0.4-4.3
	c0.4-0.8,0.2-2.5,0.2-2.6l-0.1-3.7c0-0.2,0.1-4.5-0.4-5.1s-1.1-1.5-2.4-0.9c0,0-0.6,0.1-0.7,2.9c0,2.8,0,4.9-0.2,5.6
	c-0.3,0.7-0.4,3.9-0.4,4.1s0.2,2.7,0,2.7s-1-0.4-1-1.1v-4c0-0.3,0-2.2-0.3-3.4c-0.3-1.2-0.2-3.4-0.2-3.4s0-3.9-0.1-4.1
	c0-0.2,0.2-1.7-1.5-1.9c-1.6-0.2-1.9,1.7-1.9,1.8c0,0.1-0.2,3.2-0.2,3.8v3.4c0,0.8,0,3.8,0.2,4.7c0.2,1,0.5,3.6,0.3,3.8
	c-0.3,0.2-1.3,0-1.3-0.3s-1-6.4-1.3-7s-0.7-4-0.7-4s-0.4-4-2.2-4s-1.6,2.4-1.6,3s0.4,2.3,0.4,3.1c0,0.9,0,4,0.5,5.5s1,4.8,0.9,6.6
	c-0.1,1.8,0.2,4-1.5,5.7c-1.7,1.6-4.2-0.4-4.4-0.5c-0.2-0.2-4.2-4.8-8.4-3.7c-0.2,0.1-2.1,1.1-1,2.5c0,0,0.1,0,0.1,0.1
	c0.3,0.1,2.4,0.7,2.8,1.6c0.4,0.8,1.6,1.2,1.9,1.2h0.1c0.3,0.2,2.4,1.9,2.8,3c0.5,1.1,3,2.9,3.5,3.3s2.8,3.1,2.8,3.1
	s1.1,1.4,1.8,1.5c0.1,0,0.1,0.1,0.1,0.1c0,0.4,0.1,1.5-0.5,2.6c-0.7,1.3-0.8,2.7-1.2,3.9c-0.3,1-1.1,2.8-1.3,3.4
	c0,0.1,0,0.2,0.2,0.2h13.7C-289.3,378.4-289.2,378.4-289.2,378.3L-289.2,378.3z"/>
<path fill="#F26F5B" d="M-243.3,378.3c0.1-0.6,0.4-3.5,0.4-4.2c-0.1-0.7,0.4-1.8,0.4-2c0.1-0.1,0.5-0.7,1-1.6c0.6-1,1-2.8,1.3-3.1
	c0.3-0.4,1.5-2.6,1.9-4s0.8-4.5,1-5.1s0.5-1.5,0.5-2.4s0.5-2.3,0.4-2.5c0-0.2,0-2,1-3.6c0.5-0.8,0.7-1.5,0.8-2
	c0.1-0.7,0.3-1.4,0.6-2.1c0.2-0.4,0.3-0.8,0.3-0.9c0.1-0.3,1.6-3.9,0.8-4.6c-0.7-0.6-1.3-0.6-1.3-0.6c-0.1,0-0.9,0.3-1.6,2.3
	c-0.7,1.9-1,2.4-1.1,2.5c-0.1,0.2-0.6,1.8-0.8,1.9c-0.2,0.2-1.1,2-1.2,2.8c-0.1,0.7-0.6,2.1-1.4,1.7c-0.8-0.4-0.9-0.8-0.9-1.5
	s0-3.4,0.4-4.3c0.4-0.8,0.2-2.5,0.2-2.6l-0.1-3.7c0-0.2,0.1-4.5-0.4-5.1s-1.1-1.5-2.4-0.9c0,0-0.6,0.1-0.7,2.9c0,2.8,0,4.9-0.2,5.6
	c-0.3,0.7-0.4,3.9-0.4,4.1s0.2,2.7,0,2.7s-1-0.4-1-1.1v-4c0-0.3,0-2.2-0.3-3.4c-0.3-1.2-0.2-3.4-0.2-3.4s0-3.9-0.1-4.1
	c0-0.2,0.2-1.7-1.5-1.9c-1.6-0.2-1.9,1.7-1.9,1.8c0,0.1-0.2,3.2-0.2,3.8v3.4c0,0.8,0,3.8,0.2,4.7c0.2,1,0.5,3.6,0.3,3.8
	c-0.3,0.2-1.3,0-1.3-0.3s-1-6.4-1.3-7s-0.7-4-0.7-4s-0.4-4-2.2-4c-1.8,0-1.6,2.4-1.6,3s0.4,2.3,0.4,3.1c0,0.9,0,4,0.5,5.5
	s1,4.8,0.9,6.6c-0.1,1.8,0.2,4-1.5,5.7c-1.7,1.6-4.2-0.4-4.4-0.5c-0.2-0.2-4.2-4.8-8.4-3.7c-0.2,0.1-2.1,1.1-1,2.5
	c0,0,0.1,0,0.1,0.1c0.3,0.1,2.4,0.7,2.8,1.6c0.4,0.8,1.6,1.2,1.9,1.2h0.1c0.3,0.2,2.4,1.9,2.8,3c0.5,1.1,3,2.9,3.5,3.3
	s2.8,3.1,2.8,3.1s1.1,1.4,1.8,1.5c0.1,0,0.1,0.1,0.1,0.1c0,0.4,0.1,1.5-0.5,2.6c-0.7,1.3-0.8,2.7-1.2,3.9c-0.3,1-1.1,2.8-1.3,3.4
	c0,0.1,0,0.2,0.2,0.2h13.7C-243.4,378.4-243.3,378.4-243.3,378.3L-243.3,378.3z"/>
<path fill="#F26F5B" d="M-335.1,378.3c0.1-0.6,0.4-3.5,0.4-4.2c-0.1-0.7,0.4-1.8,0.4-2c0.1-0.1,0.5-0.7,1-1.6c0.6-1,1-2.8,1.3-3.1
	c0.3-0.4,1.5-2.6,1.9-4s0.8-4.5,1-5.1s0.5-1.5,0.5-2.4s0.5-2.3,0.4-2.5c0-0.2,0-2,1-3.6c0.5-0.8,0.7-1.5,0.8-2
	c0.1-0.7,0.3-1.4,0.6-2.1c0.2-0.4,0.3-0.8,0.3-0.9c0.1-0.3,1.6-3.9,0.8-4.6c-0.7-0.6-1.3-0.6-1.3-0.6c-0.1,0-0.9,0.3-1.6,2.3
	c-0.7,1.9-1,2.4-1.1,2.5c-0.1,0.2-0.6,1.8-0.8,1.9c-0.2,0.2-1.1,2-1.2,2.8s-0.6,2.1-1.4,1.7s-0.9-0.8-0.9-1.5s0-3.4,0.4-4.3
	c0.4-0.8,0.2-2.5,0.2-2.6l-0.1-3.7c0-0.2,0.1-4.5-0.4-5.1s-1.1-1.5-2.4-0.9c0,0-0.6,0.1-0.7,2.9s0,4.9-0.2,5.6
	c-0.3,0.7-0.4,3.9-0.4,4.1s0.2,2.7,0,2.7s-1-0.4-1-1.1v-4c0-0.3,0-2.2-0.3-3.4c-0.3-1.2-0.2-3.4-0.2-3.4s0-3.9-0.1-4.1
	c0-0.2,0.2-1.7-1.5-1.9c-1.6-0.2-1.9,1.7-1.9,1.8c0,0.1-0.2,3.2-0.2,3.8v3.4c0,0.8,0,3.8,0.2,4.7c0.2,0.9,0.5,3.6,0.3,3.8
	c-0.3,0.2-1.3,0-1.3-0.3s-1-6.4-1.3-7s-0.7-4-0.7-4s-0.4-4-2.2-4c-1.8,0-1.6,2.4-1.6,3s0.4,2.3,0.4,3.1c0,0.9,0,4,0.5,5.5
	s1,4.8,0.9,6.6c-0.1,1.8,0.2,4-1.5,5.7c-1.7,1.6-4.2-0.4-4.4-0.5c-0.2-0.2-4.2-4.8-8.4-3.7c-0.2,0.1-2.1,1.1-1,2.5
	c0,0,0.1,0,0.1,0.1c0.3,0.1,2.4,0.7,2.8,1.6c0.4,0.8,1.6,1.2,1.9,1.2h0.1c0.3,0.2,2.4,1.9,2.8,3c0.5,1.1,3,2.9,3.5,3.3
	s2.8,3.1,2.8,3.1s1.1,1.4,1.8,1.5c0.1,0,0.1,0.1,0.1,0.1c0,0.4,0.1,1.5-0.5,2.6c-0.7,1.3-0.8,2.7-1.2,3.9c-0.3,1-1.1,2.8-1.3,3.4
	c0,0.1,0,0.2,0.2,0.2h13.7C-335.2,378.4-335.2,378.4-335.1,378.3z"/>
<path fill="#F26F5B" d="M-381,378.3c0.1-0.6,0.4-3.5,0.4-4.2c-0.1-0.7,0.4-1.8,0.4-2c0.1-0.1,0.5-0.7,1-1.6c0.6-1,1-2.8,1.3-3.1
	c0.3-0.4,1.5-2.6,1.9-4s0.8-4.5,1-5.1s0.5-1.5,0.5-2.4s0.5-2.3,0.4-2.5c0-0.2,0-2,1-3.6c0.5-0.8,0.7-1.5,0.8-2
	c0.1-0.7,0.3-1.4,0.6-2.1c0.2-0.4,0.3-0.8,0.3-0.9c0.1-0.3,1.6-3.9,0.8-4.6c-0.7-0.6-1.3-0.6-1.3-0.6c-0.1,0-0.9,0.3-1.6,2.3
	c-0.7,1.9-1,2.4-1.1,2.5c-0.1,0.2-0.6,1.8-0.8,1.9c-0.2,0.2-1.1,2-1.2,2.8c-0.1,0.7-0.6,2.1-1.4,1.7s-0.9-0.8-0.9-1.5s0-3.4,0.4-4.3
	c0.4-0.8,0.2-2.5,0.2-2.6l-0.2-3.7c0-0.2,0.1-4.5-0.4-5.1s-1.1-1.6-2.4-0.9c0,0-0.6,0.1-0.7,2.9s0,4.9-0.2,5.6
	c-0.3,0.7-0.4,3.9-0.4,4.1s0.2,2.7,0,2.7c-0.3,0-1-0.4-1-1.1v-4c0-0.3,0-2.2-0.3-3.4c-0.3-1.2-0.1-3.4-0.1-3.4s0-3.9-0.1-4.1
	c0-0.2,0.2-1.7-1.5-1.9c-1.6-0.2-1.9,1.7-1.9,1.8c0,0.1-0.2,3.2-0.2,3.8v3.4c0,0.8,0,3.8,0.2,4.7s0.5,3.6,0.3,3.8
	c-0.3,0.2-1.3,0-1.3-0.3s-1-6.4-1.3-7s-0.7-4-0.7-4s-0.4-4-2.2-4c-1.8,0-1.6,2.4-1.6,3s0.4,2.3,0.4,3.1c0,0.9,0,4,0.5,5.5
	s1,4.8,0.9,6.6c-0.1,1.8,0.2,4-1.5,5.7c-1.7,1.6-4.2-0.4-4.4-0.5c-0.2-0.2-4.2-4.8-8.4-3.7c-0.2,0.1-2.1,1.1-1,2.5
	c0,0,0.1,0,0.1,0.1c0.3,0.1,2.4,0.7,2.8,1.6c0.4,0.8,1.6,1.2,1.9,1.2h0.1c0.3,0.2,2.4,1.9,2.8,3c0.5,1.1,3,2.9,3.5,3.3
	c0.3,0.2,2.6,3,2.6,3s1.1,1.4,1.8,1.5c0.1,0,0.1,0.1,0.1,0.1c0,0.4,0.1,1.5-0.5,2.6c-0.7,1.3-0.8,2.7-1.2,3.9
	c-0.3,1-1.1,2.8-1.3,3.4c0,0.1,0,0.2,0.2,0.2h13.7C-381.1,378.4-381.1,378.4-381,378.3z"/>
<path fill="#F26F5B" d="M-426.9,378.3c0.1-0.6,0.4-3.5,0.4-4.2c-0.1-0.7,0.4-1.8,0.4-2c0.1-0.1,0.5-0.7,1-1.6c0.6-1,1-2.8,1.3-3.1
	c0.3-0.4,1.5-2.6,1.9-4s0.8-4.5,1-5.1s0.5-1.5,0.5-2.4s0.5-2.3,0.4-2.5c0-0.2,0-2,1-3.6c0.5-0.8,0.7-1.5,0.8-2
	c0.1-0.7,0.3-1.4,0.6-2.1c0.2-0.4,0.3-0.8,0.3-0.9c0.1-0.3,1.6-3.9,0.8-4.6c-0.7-0.6-1.3-0.6-1.3-0.6c-0.1,0-0.9,0.3-1.6,2.3
	c-0.7,1.9-1,2.4-1.1,2.5c-0.1,0.2-0.6,1.8-0.8,1.9c-0.2,0.2-1.1,2-1.2,2.8c-0.1,0.7-0.6,2.1-1.4,1.7s-0.9-0.8-0.9-1.5s0-3.4,0.4-4.3
	c0.4-0.8,0.2-2.5,0.2-2.6l-0.2-3.7c0-0.2,0.1-4.5-0.4-5.1s-1.1-1.5-2.4-0.9c0,0-0.6,0.1-0.7,2.9c0,2.8,0,4.9-0.2,5.6
	c-0.3,0.7-0.4,3.9-0.4,4.1s0.2,2.7,0,2.7s-1-0.4-1-1.1v-4c0-0.3,0-2.2-0.3-3.4c-0.3-1.2-0.2-3.4-0.2-3.4s0-3.9-0.1-4.1
	c0-0.2,0.2-1.7-1.5-1.9c-1.6-0.2-1.9,1.7-1.9,1.8c0,0.1-0.2,3.2-0.2,3.8v3.4c0,0.8,0,3.8,0.2,4.7c0.2,1,0.5,3.6,0.3,3.8
	c-0.3,0.2-1.3,0-1.3-0.3s-1-6.4-1.3-7s-0.7-4-0.7-4s-0.4-4-2.2-4c-1.8,0-1.6,2.4-1.6,3s0.4,2.3,0.4,3.1c0,0.9,0,4,0.5,5.5
	s1,4.8,0.9,6.6c-0.1,1.8,0.2,4-1.5,5.7c-1.7,1.6-4.2-0.4-4.4-0.5c-0.2-0.2-4.2-4.8-8.4-3.7c-0.2,0.1-2.1,1.1-1,2.5
	c0,0,0.1,0,0.1,0.1c0.3,0.1,2.4,0.7,2.8,1.6c0.4,0.8,1.6,1.2,1.9,1.2h0.1c0.3,0.2,2.4,1.9,2.8,3c0.5,1.1,3,2.9,3.5,3.3
	s2.8,3.1,2.8,3.1s1.1,1.4,1.8,1.5c0.1,0,0.1,0.1,0.1,0.1c0,0.4,0.1,1.5-0.5,2.6c-0.7,1.3-0.8,2.7-1.2,3.9c-0.3,1-1.1,2.8-1.3,3.4
	c0,0.1,0,0.2,0.2,0.2h13.7C-427,378.4-427,378.4-426.9,378.3z"/>
<path fill="#F26F5B" d="M-289.2,435.6C-289.2,435.6-289.2,435.5-289.2,435.6c0.1-0.6,0.4-3.5,0.4-4.2c-0.1-0.7,0.4-1.8,0.4-2
	c0.1-0.1,0.5-0.7,1-1.6c0.6-1,1-2.8,1.3-3.1c0.3-0.4,1.5-2.6,1.9-4s0.8-4.5,1-5.1s0.5-1.5,0.5-2.4s0.5-2.3,0.4-2.5c0-0.2,0-2,1-3.6
	c0.5-0.8,0.7-1.5,0.8-2c0.1-0.7,0.3-1.4,0.6-2.1c0.2-0.4,0.3-0.8,0.3-0.9c0.1-0.3,1.6-3.9,0.8-4.6c-0.7-0.6-1.3-0.6-1.3-0.6
	c-0.1,0-0.9,0.3-1.6,2.3c-0.7,1.9-1,2.4-1.1,2.5c-0.1,0.2-0.6,1.8-0.8,1.9c-0.2,0.2-1.1,2-1.2,2.8c-0.1,0.7-0.6,2.1-1.4,1.7
	s-0.9-0.8-0.9-1.5s0-3.4,0.4-4.3c0.4-0.8,0.2-2.5,0.2-2.6l-0.1-3.7c0-0.2,0.1-4.5-0.4-5.1s-1.1-1.5-2.4-0.9c0,0-0.6,0.1-0.7,2.9
	c0,2.8,0,4.9-0.2,5.6c-0.3,0.7-0.4,3.9-0.4,4.1c0,0.3,0.2,2.7,0,2.7s-1-0.4-1-1.1v-4c0-0.3,0-2.2-0.3-3.4c-0.3-1.2-0.2-3.4-0.2-3.4
	s0-3.9-0.1-4.1c0-0.2,0.2-1.7-1.5-1.9c-1.6-0.2-1.9,1.7-1.9,1.8c0,0.1-0.2,3.2-0.2,3.8v3.4c0,0.8,0,3.8,0.2,4.7
	c0.2,1,0.5,3.6,0.3,3.8c-0.3,0.2-1.3,0-1.3-0.3s-1-6.4-1.3-7s-0.7-4-0.7-4s-0.4-4-2.2-4s-1.6,2.4-1.6,3s0.4,2.3,0.4,3.1s0,4,0.5,5.5
	s1,4.8,0.9,6.6s0.2,4-1.5,5.7c-1.7,1.6-4.2-0.4-4.4-0.5c-0.2-0.2-4.2-4.8-8.4-3.7c-0.2,0.1-2.1,1.1-1,2.5c0,0,0.1,0,0.1,0.1
	c0.3,0.1,2.4,0.7,2.8,1.6c0.4,0.8,1.6,1.2,1.9,1.2h0.1c0.3,0.2,2.4,1.9,2.8,3c0.5,1.1,3,2.9,3.5,3.3s2.8,3.1,2.8,3.1
	s1.1,1.4,1.8,1.5c0.1,0,0.1,0.1,0.1,0.1c0,0.4,0.1,1.5-0.5,2.6c-0.7,1.3-0.8,2.7-1.2,3.9c-0.3,1-1.1,2.8-1.3,3.4
	c0,0.1,0,0.2,0.2,0.2h13.7C-289.3,435.6-289.2,435.6-289.2,435.6L-289.2,435.6z"/>
<path fill="#FCD4BB" d="M-243.3,435.6C-243.3,435.6-243.3,435.5-243.3,435.6c0.1-0.6,0.4-3.5,0.4-4.2c-0.1-0.7,0.4-1.8,0.4-2
	c0.1-0.1,0.5-0.7,1-1.6c0.6-1,1-2.8,1.3-3.1s1.5-2.6,1.9-4s0.8-4.5,1-5.1s0.5-1.5,0.5-2.4s0.5-2.3,0.4-2.5c0-0.2,0-2,1-3.6
	c0.5-0.8,0.7-1.5,0.8-2c0.1-0.7,0.3-1.4,0.6-2.1c0.2-0.4,0.3-0.8,0.3-0.9c0.1-0.3,1.6-3.9,0.8-4.6c-0.7-0.6-1.3-0.6-1.3-0.6
	c-0.1,0-0.9,0.3-1.6,2.3c-0.7,1.9-1,2.4-1.1,2.5c-0.1,0.2-0.6,1.8-0.8,1.9c-0.2,0.2-1.1,2-1.2,2.8c-0.1,0.7-0.6,2.1-1.4,1.7
	c-0.8-0.4-0.9-0.8-0.9-1.5s0-3.4,0.4-4.3c0.4-0.8,0.2-2.5,0.2-2.6l-0.1-3.7c0-0.2,0.1-4.5-0.4-5.1s-1.1-1.5-2.4-0.9
	c0,0-0.6,0.1-0.7,2.9c0,2.8,0,4.9-0.2,5.6c-0.3,0.7-0.4,3.9-0.4,4.1c0,0.3,0.2,2.7,0,2.7c-0.3,0-1-0.4-1-1.1v-4c0-0.3,0-2.2-0.3-3.4
	c-0.3-1.2-0.2-3.4-0.2-3.4s0-3.9-0.1-4.1s0.2-1.7-1.5-1.9c-1.6-0.2-1.9,1.7-1.9,1.8c0,0.1-0.2,3.2-0.2,3.8v3.4c0,0.8,0,3.8,0.2,4.7
	c0.2,1,0.5,3.6,0.3,3.8c-0.3,0.2-1.3,0-1.3-0.3s-1-6.4-1.3-7s-0.7-4-0.7-4s-0.4-4-2.2-4c-1.8,0-1.6,2.4-1.6,3s0.4,2.3,0.4,3.1
	s0,4,0.5,5.5s1,4.8,0.9,6.6s0.2,4-1.5,5.7c-1.7,1.6-4.2-0.4-4.4-0.5c-0.2-0.2-4.2-4.8-8.4-3.7c-0.2,0.1-2.1,1.1-1,2.5
	c0,0,0.1,0,0.1,0.1c0.3,0.1,2.4,0.7,2.8,1.6c0.4,0.8,1.6,1.2,1.9,1.2h0.1c0.3,0.2,2.4,1.9,2.8,3c0.5,1.1,3,2.9,3.5,3.3
	s2.8,3.1,2.8,3.1s1.1,1.4,1.8,1.5c0.1,0,0.1,0.1,0.1,0.1c0,0.4,0.1,1.5-0.5,2.6c-0.7,1.3-0.8,2.7-1.2,3.9c-0.3,1-1.1,2.8-1.3,3.4
	c0,0.1,0,0.2,0.2,0.2h13.7C-243.4,435.6-243.3,435.6-243.3,435.6L-243.3,435.6z"/>
<path fill="#F26F5B" d="M-335.1,435.6C-335.1,435.6-335.1,435.5-335.1,435.6c0.1-0.6,0.4-3.5,0.4-4.2c-0.1-0.7,0.4-1.8,0.4-2
	c0.1-0.1,0.5-0.7,1-1.6c0.6-1,1-2.8,1.3-3.1c0.3-0.4,1.5-2.6,1.9-4s0.8-4.5,1-5.1s0.5-1.5,0.5-2.4s0.5-2.3,0.4-2.5c0-0.2,0-2,1-3.6
	c0.5-0.8,0.7-1.5,0.8-2c0.1-0.7,0.3-1.4,0.6-2.1c0.2-0.4,0.3-0.8,0.3-0.9c0.1-0.3,1.6-3.9,0.8-4.6c-0.7-0.6-1.3-0.6-1.3-0.6
	c-0.1,0-0.9,0.3-1.6,2.3c-0.7,1.9-1,2.4-1.1,2.5c-0.1,0.2-0.6,1.8-0.8,1.9c-0.2,0.2-1.1,2-1.2,2.8s-0.6,2.1-1.4,1.7
	s-0.9-0.8-0.9-1.5s0-3.4,0.4-4.3c0.4-0.8,0.2-2.5,0.2-2.6l-0.1-3.7c0-0.2,0.1-4.5-0.4-5.1s-1.1-1.5-2.4-0.9c0,0-0.6,0.1-0.7,2.9
	s0,4.9-0.2,5.6c-0.3,0.7-0.4,3.9-0.4,4.1c0,0.3,0.2,2.7,0,2.7s-1-0.4-1-1.1v-4c0-0.3,0-2.2-0.3-3.4c-0.3-1.2-0.2-3.4-0.2-3.4
	s0-3.9-0.1-4.1c0-0.2,0.2-1.7-1.5-1.9c-1.6-0.2-1.9,1.7-1.9,1.8c0,0.1-0.2,3.2-0.2,3.8v3.4c0,0.8,0,3.8,0.2,4.7
	c0.2,1,0.5,3.6,0.3,3.8c-0.2,0.2-1.3,0-1.3-0.3s-1-6.4-1.3-7s-0.7-4-0.7-4s-0.4-4-2.2-4c-1.8,0-1.6,2.4-1.6,3s0.4,2.3,0.4,3.1
	s0,4,0.5,5.5s1,4.8,0.9,6.6c-0.1,1.8,0.2,4-1.5,5.7c-1.7,1.6-4.2-0.4-4.4-0.5c-0.2-0.2-4.2-4.8-8.4-3.7c-0.2,0.1-2.1,1.1-1,2.5
	c0,0,0.1,0,0.1,0.1c0.3,0.1,2.4,0.7,2.8,1.6c0.4,0.8,1.6,1.2,1.9,1.2h0.1c0.3,0.2,2.4,1.9,2.8,3c0.5,1.1,3,2.9,3.5,3.3
	s2.8,3.1,2.8,3.1s1.1,1.4,1.8,1.5c0.1,0,0.1,0.1,0.1,0.1c0,0.4,0.1,1.5-0.5,2.6c-0.7,1.3-0.8,2.7-1.2,3.9c-0.3,1-1.1,2.8-1.3,3.4
	c0,0.1,0,0.2,0.2,0.2h13.7C-335.2,435.6-335.2,435.6-335.1,435.6z"/>
<path fill="#F26F5B" d="M-381,435.6C-381,435.6-381,435.5-381,435.6c0.1-0.6,0.4-3.5,0.4-4.2c-0.1-0.7,0.4-1.8,0.4-2
	c0.1-0.1,0.5-0.7,1-1.6c0.6-1,1-2.8,1.3-3.1s1.5-2.6,1.9-4s0.8-4.5,1-5.1s0.5-1.5,0.5-2.4s0.5-2.3,0.4-2.5s0-2,1-3.6
	c0.5-0.8,0.7-1.5,0.8-2c0.1-0.7,0.3-1.4,0.6-2.1c0.2-0.4,0.3-0.8,0.3-0.9c0.1-0.3,1.6-3.9,0.8-4.6c-0.7-0.6-1.3-0.6-1.3-0.6
	c-0.1,0-0.9,0.3-1.6,2.3c-0.7,1.9-1,2.4-1.1,2.5c-0.1,0.2-0.6,1.8-0.8,1.9c-0.2,0.2-1.1,2-1.2,2.8s-0.6,2.1-1.4,1.7s-1-0.8-1-1.5
	s0-3.4,0.4-4.3c0.4-0.8,0.2-2.5,0.2-2.6l-0.1-3.7c0-0.2,0.1-4.5-0.4-5.1s-1.1-1.5-2.4-0.9c0,0-0.6,0.1-0.7,2.9c0,2.8,0,4.9-0.2,5.6
	c-0.3,0.7-0.4,3.9-0.4,4.1c0,0.3,0.2,2.7,0,2.7c-0.3,0-1-0.4-1-1.1v-4c0-0.3,0-2.2-0.3-3.4c-0.3-1.2-0.2-3.4-0.2-3.4s0-3.9-0.1-4.1
	s0.2-1.7-1.5-1.9c-1.6-0.2-1.9,1.7-1.9,1.8c0,0.1-0.2,3.2-0.2,3.8v3.4c0,0.8,0,3.8,0.2,4.7c0.2,1,0.5,3.6,0.3,3.8
	c-0.3,0.2-1.3,0-1.3-0.3s-1-6.4-1.3-7s-0.7-4-0.7-4s-0.4-4-2.2-4s-1.6,2.4-1.6,3s0.4,2.3,0.4,3.1s0,4,0.5,5.5s1,4.8,0.9,6.6
	c-0.1,1.8,0.2,4-1.5,5.7c-1.7,1.6-4.2-0.4-4.4-0.5c-0.2-0.2-4.2-4.8-8.4-3.7c-0.2,0.1-2.1,1.1-1,2.5c0,0,0.1,0,0.1,0.1
	c0.3,0.1,2.4,0.7,2.8,1.6c0.4,0.8,1.6,1.2,1.9,1.2h0.1c0.3,0.2,2.4,1.9,2.8,3c0.5,1.1,3,2.9,3.5,3.3s2.8,3.1,2.8,3.1
	s1.1,1.4,1.8,1.5c0.1,0,0.1,0.1,0.1,0.1c0,0.4,0.1,1.5-0.5,2.6c-0.7,1.3-0.8,2.7-1.2,3.9c-0.3,1-1.1,2.8-1.3,3.4
	c0,0.1,0,0.2,0.2,0.2h13.7C-381.1,435.6-381.1,435.6-381,435.6L-381,435.6z"/>
<path fill="#F26F5B" d="M-426.9,435.6C-426.9,435.6-426.9,435.5-426.9,435.6c0.1-0.6,0.4-3.5,0.4-4.2c-0.1-0.7,0.4-1.8,0.4-2
	c0.1-0.1,0.5-0.7,1-1.6c0.6-1,1-2.8,1.3-3.1c0.3-0.4,1.5-2.6,1.9-4s0.8-4.5,1-5.1s0.5-1.5,0.5-2.4s0.5-2.3,0.4-2.5c0-0.2,0-2,1-3.6
	c0.5-0.8,0.7-1.5,0.8-2c0.1-0.7,0.3-1.4,0.6-2.1c0.2-0.4,0.3-0.8,0.3-0.9c0.1-0.3,1.6-3.9,0.8-4.6c-0.7-0.6-1.3-0.6-1.3-0.6
	c-0.1,0-0.9,0.3-1.6,2.3c-0.7,1.9-1,2.4-1.1,2.5c-0.1,0.2-0.6,1.8-0.8,1.9c-0.2,0.2-1.1,2-1.2,2.8c-0.1,0.7-0.6,2.1-1.4,1.7
	s-0.9-0.8-0.9-1.5s0-3.4,0.4-4.3c0.4-0.8,0.2-2.5,0.2-2.6l-0.1-3.7c0-0.2,0.1-4.5-0.4-5.1s-1.1-1.5-2.4-0.9c0,0-0.6,0.1-0.7,2.9
	c0,2.8,0,4.9-0.2,5.6c-0.3,0.7-0.4,3.9-0.4,4.1c0,0.3,0.2,2.7,0,2.7s-1-0.4-1-1.1v-4c0-0.3,0-2.2-0.3-3.4c-0.3-1.2-0.2-3.4-0.2-3.4
	s0-3.9-0.1-4.1c0-0.2,0.2-1.7-1.5-1.9c-1.6-0.2-1.9,1.7-1.9,1.8c0,0.1-0.2,3.2-0.2,3.8v3.4c0,0.8,0,3.8,0.2,4.7
	c0.2,1,0.5,3.6,0.3,3.8c-0.3,0.2-1.3,0-1.3-0.3s-1-6.4-1.3-7s-0.7-4-0.7-4s-0.4-4-2.2-4c-1.8,0-1.6,2.4-1.6,3s0.4,2.3,0.4,3.1
	s0,4,0.5,5.5s1,4.8,0.9,6.6c-0.1,1.8,0.2,4-1.5,5.7c-1.7,1.6-4.2-0.4-4.4-0.5c-0.2-0.2-4.2-4.8-8.4-3.7c-0.2,0.1-2.1,1.1-1,2.5
	c0,0,0.1,0,0.1,0.1c0.3,0.1,2.4,0.7,2.8,1.6c0.4,0.8,1.6,1.2,1.9,1.2h0.1c0.3,0.2,2.4,1.9,2.8,3c0.5,1.1,3,2.9,3.5,3.3
	s2.8,3.1,2.8,3.1s1.1,1.4,1.8,1.5c0.1,0,0.1,0.1,0.1,0.1c0,0.4,0.1,1.5-0.5,2.6c-0.7,1.3-0.8,2.7-1.2,3.9c-0.3,1-1.1,2.8-1.3,3.4
	c0,0.1,0,0.2,0.2,0.2h13.7C-427,435.6-427,435.6-426.9,435.6z"/>
<path fill="#FCD4BB" d="M-442.4,445.8c0,3.5-1.3,5.2-4,5.2c-0.5,0-0.8,0-1.1-0.1V450c0.3,0.1,0.7,0.2,1.1,0.2c1,0,1.7-0.3,2.2-0.9
	s0.8-1.5,0.8-2.7h-0.1c-0.2,0.3-0.5,0.6-0.9,0.8c-0.4,0.2-0.8,0.3-1.2,0.3c-0.8,0-1.4-0.2-1.9-0.7s-0.7-1.1-0.7-2s0.3-1.6,0.8-2.2
	c0.5-0.5,1.2-0.8,2-0.8c0.6,0,1.1,0.2,1.6,0.5c0.4,0.3,0.8,0.8,1,1.3C-442.6,444.3-442.4,445-442.4,445.8z M-445.4,442.8
	c-0.6,0-1,0.2-1.3,0.6s-0.5,0.9-0.5,1.5s0.1,1,0.4,1.4c0.3,0.3,0.7,0.5,1.3,0.5c0.4,0,0.7-0.1,1-0.2s0.5-0.4,0.7-0.6
	c0.2-0.3,0.3-0.5,0.3-0.8c0-0.4-0.1-0.8-0.2-1.2c-0.2-0.4-0.4-0.6-0.7-0.8C-444.6,442.9-445,442.8-445.4,442.8z"/>
<path fill="#FCD4BB" d="M-435.3,446.5c0,1.5-0.2,2.7-0.7,3.4c-0.5,0.8-1.2,1.1-2.2,1.1c-0.9,0-1.7-0.4-2.2-1.2
	c-0.5-0.8-0.7-1.9-0.7-3.4s0.2-2.7,0.7-3.4c0.5-0.7,1.2-1.1,2.2-1.1s1.7,0.4,2.2,1.2C-435.5,443.9-435.3,445-435.3,446.5z
	 M-440.1,446.5c0,1.3,0.2,2.2,0.5,2.8c0.3,0.6,0.8,0.9,1.4,0.9c0.7,0,1.2-0.3,1.5-0.9s0.4-1.5,0.4-2.8s-0.1-2.2-0.4-2.8
	c-0.3-0.6-0.8-0.9-1.5-0.9s-1.1,0.3-1.4,0.9C-439.9,444.3-440.1,445.2-440.1,446.5z"/>
<path fill="#FCD4BB" d="M-430.4,444.7c0,0.9-0.2,1.6-0.5,2.1s-0.8,0.7-1.4,0.7s-1-0.2-1.3-0.7s-0.5-1.2-0.5-2.1s0.1-1.6,0.4-2.1
	s0.7-0.7,1.3-0.7s1,0.2,1.3,0.7C-430.6,443.1-430.4,443.8-430.4,444.7z M-433.2,444.7c0,0.7,0.1,1.2,0.2,1.5s0.4,0.5,0.7,0.5
	c0.7,0,1-0.7,1-2.1s-0.3-2-1-2c-0.3,0-0.6,0.2-0.7,0.5C-433.1,443.5-433.2,444-433.2,444.7z M-426.7,442.1l-4.9,8.8h-0.9l4.9-8.8
	H-426.7z M-425.1,448.2c0,0.9-0.2,1.6-0.5,2.1s-0.8,0.7-1.4,0.7s-1-0.2-1.3-0.7s-0.5-1.2-0.5-2.1s0.1-1.6,0.4-2.1s0.7-0.7,1.3-0.7
	s1,0.2,1.3,0.7C-425.5,446.6-425.1,447.3-425.1,448.2z M-427.9,448.2c0,0.7,0.1,1.2,0.2,1.5s0.4,0.5,0.7,0.5s0.6-0.2,0.7-0.5
	c0.2-0.3,0.2-0.9,0.2-1.5c0-0.7-0.1-1.2-0.2-1.5c-0.2-0.3-0.4-0.5-0.7-0.5s-0.6,0.2-0.7,0.5S-427.9,447.5-427.9,448.2z"/>
<path fill="#FCD4BB" d="M-412.4,446.5c0,1.4-0.4,2.5-1.1,3.3s-1.7,1.2-3,1.2s-2.3-0.4-3-1.2c-0.7-0.8-1.1-1.9-1.1-3.4
	c0-1.4,0.4-2.5,1.1-3.3s1.7-1.2,3-1.2s2.3,0.4,3,1.2C-412.8,443.9-412.4,445-412.4,446.5z M-419.4,446.5c0,1.2,0.3,2.1,0.8,2.7
	s1.2,0.9,2.2,0.9s1.7-0.3,2.2-0.9s0.7-1.5,0.7-2.7s-0.2-2.1-0.7-2.7s-1.2-0.9-2.2-0.9s-1.7,0.3-2.2,0.9S-419.4,445.3-419.4,446.5z"
	/>
<path fill="#FCD4BB" d="M-409.4,450.9h-1v-8.8h4.9v0.9h-3.9v3.2h3.7v0.9h-3.7V450.9z"/>
<path fill="#FCD4BB" d="M-395.3,444.6c0,0.9-0.3,1.6-0.9,2.1s-1.5,0.7-2.6,0.7h-1v3.5h-1v-8.8h2.3
	C-396.4,442.1-395.3,442.9-395.3,444.6z M-399.8,446.5h0.9c0.9,0,1.6-0.1,2-0.4s0.6-0.8,0.6-1.4s-0.2-1-0.6-1.3s-1-0.4-1.8-0.4h-1.1
	C-399.8,443-399.8,446.5-399.8,446.5z"/>
<path fill="#FCD4BB" d="M-388.5,450.9h-4.9v-8.8h4.9v0.9h-3.9v2.8h3.7v0.9h-3.7v3.2h3.9V450.9z"/>
<path fill="#FCD4BB" d="M-378.9,446.5c0,1.4-0.4,2.5-1.1,3.3s-1.7,1.2-3,1.2s-2.3-0.4-3-1.2c-0.7-0.8-1.1-1.9-1.1-3.4
	c0-1.4,0.4-2.5,1.1-3.3s1.7-1.2,3-1.2s2.3,0.4,3,1.2C-379.3,443.9-378.9,445-378.9,446.5z M-385.9,446.5c0,1.2,0.3,2.1,0.8,2.7
	s1.2,0.9,2.2,0.9s1.7-0.3,2.2-0.9s0.7-1.5,0.7-2.7s-0.2-2.1-0.7-2.7s-1.2-0.9-2.2-0.9s-1.7,0.3-2.2,0.9S-385.9,445.3-385.9,446.5z"
	/>
<path fill="#FCD4BB" d="M-371.3,444.6c0,0.9-0.3,1.6-0.9,2.1s-1.5,0.7-2.6,0.7h-1v3.5h-1v-8.8h2.3
	C-372.4,442.1-371.3,442.9-371.3,444.6z M-375.9,446.5h0.9c0.9,0,1.6-0.1,2-0.4s0.6-0.8,0.6-1.4s-0.2-1-0.6-1.3s-1-0.4-1.8-0.4h-1.1
	C-375.9,443-375.9,446.5-375.9,446.5z"/>
<path fill="#FCD4BB" d="M-369.5,450.9v-8.8h1v7.9h3.9v0.9H-369.5z"/>
<path fill="#FCD4BB" d="M-358.2,450.9h-4.9v-8.8h4.9v0.9h-3.9v2.8h3.7v0.9h-3.7v3.2h3.9V450.9z"/>
<path fill="#FCD4BB" d="M-347.5,450.9l-1.1-2.8h-3.5l-1.1,2.8h-1l3.5-8.9h0.9l3.5,8.9C-346.3,450.9-347.5,450.9-347.5,450.9z
	 M-348.9,447.2l-1-2.7c-0.1-0.3-0.3-0.8-0.4-1.3c-0.1,0.4-0.2,0.8-0.4,1.3l-1,2.7H-348.9z"/>
<path fill="#FCD4BB" d="M-344.2,447.2v3.7h-1v-8.8h2.4c1.1,0,1.9,0.2,2.4,0.6s0.8,1,0.8,1.9c0,1.2-0.6,2-1.8,2.4l2.4,4h-1.2
	l-2.1-3.7h-1.9L-344.2,447.2L-344.2,447.2z M-344.2,446.3h1.4c0.7,0,1.3-0.1,1.6-0.4c0.3-0.3,0.5-0.7,0.5-1.3s-0.2-1-0.5-1.3
	s-0.9-0.4-1.7-0.4h-1.3C-344.2,442.9-344.2,446.3-344.2,446.3z"/>
<path fill="#FCD4BB" d="M-332.6,450.9h-4.9v-8.8h4.9v0.9h-3.9v2.8h3.7v0.9h-3.7v3.2h3.9V450.9z"/>
<path fill="#FCD4BB" d="M-326.4,447.2v3.7h-1v-8.8h2.4c1.1,0,1.9,0.2,2.4,0.6s0.8,1,0.8,1.9c0,1.2-0.6,2-1.8,2.4l2.4,4h-1.2
	l-2.1-3.7h-1.9L-326.4,447.2z M-326.4,446.3h1.4c0.7,0,1.3-0.1,1.6-0.4c0.3-0.3,0.5-0.7,0.5-1.3s-0.2-1-0.5-1.3s-0.9-0.4-1.7-0.4
	h-1.3C-326.4,442.9-326.4,446.3-326.4,446.3z"/>
<path fill="#FCD4BB" d="M-319.8,450.9v-8.8h1v8.8H-319.8z"/>
<path fill="#FCD4BB" d="M-312.5,446.3h3v4.3c-0.5,0.1-0.9,0.3-1.4,0.3c-0.5,0.1-1,0.1-1.7,0.1c-1.3,0-2.4-0.4-3.1-1.2
	c-0.7-0.8-1.1-1.9-1.1-3.3c0-0.9,0.2-1.7,0.6-2.4c0.4-0.7,0.9-1.2,1.6-1.6s1.5-0.5,2.4-0.5s1.8,0.2,2.6,0.5l-0.4,0.9
	c-0.8-0.3-1.6-0.5-2.3-0.5c-1.1,0-1.9,0.3-2.5,1c-0.6,0.6-0.9,1.5-0.9,2.7s0.3,2.1,0.9,2.7s1.4,0.9,2.6,0.9c0.6,0,1.2-0.1,1.8-0.2
	v-2.7h-2v-1L-312.5,446.3L-312.5,446.3z"/>
<path fill="#FCD4BB" d="M-300.7,450.9h-1v-4.2h-4.6v4.2h-1v-8.8h1v3.8h4.6v-3.8h1V450.9z"/>
<path fill="#FCD4BB" d="M-295.5,450.9h-1V443h-2.8v-0.9h6.6v0.9h-2.8L-295.5,450.9L-295.5,450.9z"/>
<path fill="#FCD4BB" d="M-281.5,450.9h-1v-4.2h-4.6v4.2h-1v-8.8h1v3.8h4.6v-3.8h1V450.9z"/>
<path fill="#FCD4BB" d="M-273.6,450.9l-1.1-2.8h-3.5l-1.1,2.8h-1l3.5-8.9h0.9l3.5,8.9H-273.6L-273.6,450.9z M-275,447.2l-1-2.7
	c-0.1-0.3-0.3-0.8-0.4-1.3c-0.1,0.4-0.2,0.8-0.4,1.3l-1,2.7H-275L-275,447.2z"/>
<path fill="#FCD4BB" d="M-264.4,450.9h-1.2l-4.8-7.4c0.1,0.9,0.1,1.7,0.1,2.4v5h-0.9v-8.8h1.2l4.8,7.4c0-0.1,0-0.5-0.1-1v-6.4h1v8.8
	H-264.4z"/>
<path fill="#FCD4BB" d="M-254.9,446.4c0,1.5-0.4,2.6-1.2,3.3c-0.8,0.8-1.9,1.2-3.4,1.2h-2.5v-8.8h2.7c1.4,0,2.4,0.4,3.2,1.1
	C-255.3,444-254.9,445-254.9,446.4L-254.9,446.4z M-256,446.4c0-1.2-0.3-2-0.9-2.6s-1.4-0.9-2.6-0.9h-1.5v7h1.2
	c1.2,0,2.1-0.3,2.8-0.9C-256.3,448.4-256,447.6-256,446.4z"/>
<path fill="#FCD4BB" d="M-248,450.9h-5v-8.8h4.9v0.9h-3.9v2.8h3.7v0.9h-3.7v3.2h3.9v1H-248z"/>
<path fill="#FCD4BB" d="M-239,446.4c0,1.5-0.4,2.6-1.2,3.3c-0.8,0.8-1.9,1.2-3.4,1.2h-2.4v-8.8h2.7c1.4,0,2.4,0.4,3.2,1.1
	C-239.4,444-239,445-239,446.4z M-240.1,446.4c0-1.2-0.3-2-0.9-2.6c-0.6-0.6-1.4-0.9-2.6-0.9h-1.5v7h1.2c1.2,0,2.1-0.3,2.8-0.9
	C-240.4,448.4-240.1,447.6-240.1,446.4z"/>
</svg>
