<?xml version="1.0" encoding="utf-8"?>
<!-- Generator: Adobe Illustrator 19.1.0, SVG Export Plug-In . SVG Version: 6.00 Build 0)  -->
<svg version="1.1" id="r-brain" xmlns="http://www.w3.org/2000/svg" xmlns:xlink="http://www.w3.org/1999/xlink" x="0px" y="0px"
	 width="128.4px" height="304.5px" viewBox="-611.2 396.8 128.4 304.5" enable-background="new -611.2 396.8 128.4 304.5"
	 xml:space="preserve">
<path fill="#1A2C3F" d="M-594.5,409.6c0,0-0.5-3.2,7.3-5c7.8-1.8,16.5-3.2,23.4,4.1c6.9,7.3,18.8,17,18.8,17s6.9-0.9,12.4,9.2
	s7.8,12.4,10.6,13.8c2.8,1.4,6,8.3,6,9.6c0,1.4,16.1,11.9,17.4,19.7s1.8,11,1.8,11s8.7,6.4,7.3,14.2c0,0,5.5,7.3,6.4,17.9
	c0.9,10.6,0,18.8-4.6,18.8c0,0,1.8,23.4-3.2,28.4c0,0,0,28.4-15.6,42.7c0,0,3.2,6.9,1.8,9.6s-4.1,6-4.6,8.7s0,17.4-7.8,21.1
	c0,0-6.4,9.6-6.4,11.5c0,1.9-1.4,15.6-17.4,18.3c0,0-1.4,6.4-10.6,8.3c0,0-5.5,12.8-25.7,13.3c-11.7,0.3-19.1-0.9-23.6-3.8
	c-4.5-3-5.7-9.1-2.8-13.6c1.2-1.9,2.4-4,2.6-5.5c0.5-3.2-5-19.3-2.3-22.9c2.7-3.6,4.1-12.4,3.7-14.7c-0.5-2.3,0-16.1,1.8-16.5
	c1.8-0.4-2.3-9.2,2.8-17.4c0,0-8.7-15.1-4.1-32.6c0,0-3.7-9.2-2.3-14.7s-3.7-13.3,0.9-28.4c4.6-15.1,0-18.3,0-22.5
	c0-4.2,3.7-17.4,3.7-17.4s-8.7-6.9-5.5-27.1s4.6-17.9,4.6-17.9s-1.4-4.6-0.5-6.9s1.4-4.1,0.9-6.9
	C-597.7,430.2-594.5,409.6-594.5,409.6L-594.5,409.6z"/>
<path fill="#F26F5B" d="M-600.6,403.8c0,0-0.5-3.2,7.3-5c7.8-1.8,16.5-3.2,23.4,4.1c6.9,7.3,18.8,17,18.8,17s6.9-0.9,12.4,9.2
	s7.8,12.4,10.6,13.8c2.8,1.4,6,8.3,6,9.6c0,1.4,16.1,11.9,17.4,19.7s1.8,11,1.8,11s8.7,6.4,7.3,14.2c0,0,5.5,7.3,6.4,17.9
	c0.9,10.6,0,18.8-4.6,18.8c0,0,1.8,23.4-3.2,28.4c0,0,0,28.4-15.6,42.7c0,0,3.2,6.9,1.8,9.6s-4.1,6-4.6,8.7s0,17.4-7.8,21.1
	c0,0-6.4,9.6-6.4,11.5c0,1.9-1.4,15.6-17.4,18.3c0,0-1.4,6.4-10.6,8.3c0,0-5.5,12.8-25.7,13.3c-11.6,0.3-19-0.8-23.5-3.8
	s-5.7-9.1-2.8-13.6c1.2-1.9,2.4-4,2.6-5.5c0.5-3.2-5-19.3-2.3-22.9c2.7-3.6,4.1-12.4,3.7-14.7c-0.5-2.3,0-16.1,1.8-16.5
	c1.8-0.4-2.3-9.2,2.8-17.4c0,0-8.7-15.1-4.1-32.6c0,0-3.7-9.2-2.3-14.7s-3.7-13.3,0.9-28.4c4.6-15.1,0-18.3,0-22.5
	s3.7-17.4,3.7-17.4s-8.7-6.9-5.5-27.1s4.6-17.9,4.6-17.9s-1.4-4.6-0.5-6.9s1.4-4.1,0.9-6.9C-603.8,424.4-600.6,403.8-600.6,403.8
	L-600.6,403.8z"/>
<path fill="#C95145" d="M-551.1,419.9c0,0-4.5,0.8-6.1,7.1c-1.6,6.3,0.3,10.6,2.1,11.9c1.8,1.3,6.1,3.7,6.3,6.3
	c0.2,2.6,5.3,9.5,5.3,9.5s-8.2-5.8-8.2-9.2s-8.7-5-8.7-7.4S-564.8,420.4-551.1,419.9z"/>
<path fill="#C95145" d="M-522.2,452.4c0,0-0.4,6-5.7,7.8c-5.3,1.8-9,0.3-9,0.3s1.1,2.6,11.9,0.3
	C-514.1,458.4-522.2,452.4-522.2,452.4z"/>
<path fill="#C95145" d="M-502.9,483.2c0,0-7.8-4.7-10.9-0.8c-3.2,4-9,10.3-5,13.5s14,6.9,14.5,10.3s-0.5,13.5-0.8,14.8
	c0,0-2.1-16.9-13.2-20.6c-11.1-3.7-1.3-20.3,1.8-20.9C-513.3,479-504.1,477.3-502.9,483.2z"/>
<path fill="#C95145" d="M-493.7,534.1c0,0-10.1-2.1-10.6-6.8C-504.4,527.3-508.2,534.3-493.7,534.1z"/>
<path fill="#C95145" d="M-602.9,485.9c0,0,13.6,3.4,15.2-8.8c1.6-12.1-2.9-14.8-2.9-14.8s11.3,11.1,2.4,22.4
	C-597.3,496.2-602.9,485.9-602.9,485.9L-602.9,485.9z"/>
<path fill="#C95145" d="M-603.8,441c0,0,0.8-10.3,7.9-6.6c5.5,4.5,4.8,12.7,4.8,12.7s2.1-12.7-3.4-16.1s-8.7,0.5-8.7,0.5
	S-605.4,436.2-603.8,441z"/>
<path fill="#C95145" d="M-605.2,569c0,0,0.5-12.2,15.2-8.5s17.5,20,17.5,21.2s-2.2,12.9,0.3,15.7c2.5,2.8,0.3,13.2,0.3,13.2
	s6.2-11.1,3.1-16c-3.1-4.9-2.2-10.8-1.2-12.3s-5.2-27.1-19.7-28c-14.5-0.9-9.8,3.1-12.6,4.3c-2.8,1.2-5.5-0.6-5.5-0.6
	S-606.9,567.6-605.2,569L-605.2,569z"/>
<path fill="#C95145" d="M-603.4,618.4c0,0,4.8,13.7,17.5,7.6c8-4.9,10.2-7.7,10.2-7.7s-7.4,14.8-17.9,13.5c-10.5-1.2-12.1-3-12.1-3
	s0-4.5,0.8-7.7C-604.6,619.9-603.9,619-603.4,618.4L-603.4,618.4z"/>
<path fill="#C95145" d="M-606.9,673.1c0,0-1-6.7,12.1-5.4s17.6,5.1,21.9,0.8c4.3-4.3,10.9,1.6,10.9,1.6s-6.7-8.8-13.3-5.9
	c-6.7,2.9-7.2,4-9.3,2.9C-586.9,666.1-608.2,659-606.9,673.1z"/>
<path fill="#C95145" d="M-557.5,682.7c0,0,0.2-6-1.7-7.8C-559.2,674.9-554.7,677.8-557.5,682.7z"/>
<path fill="#C95145" d="M-512.6,605.2c0,0-6.9-10.8-14.9-8.2s-12.8,17.6-12,22.7c0,0,0-24.3,13.3-26.9c13.3-2.6,11.2,2.7,15.2,1.3
	c4-1.3,8.5-4.3,8.5-4.3S-506.1,600.3-512.6,605.2z"/>
<path fill="#C95145" d="M-547,674.5c0,0-17.1-12.1-9.3-20.4c7.7-8.3,10.1-12.8,10.1-12.8s-10.6,9.9-13,11.2
	c-2.4,1.3-6.7,9.3,0.5,15.5s8,11.7,8,11.7S-548.8,678.8-547,674.5L-547,674.5z"/>
<path fill="#C95145" d="M-547.1,516.8c0,0,3.6-14.7,14.7-16c0,0-6.5-5.5-13.7,1.3s-4.9,29.7-2.6,35.9c2.3,6.2,5.9,13,2.6,18.3
	c-3.3,5.2-10.1,16.9-4.6,21.2c0,0-5.5-5.5,5.2-15.6c10.8-10.1-0.7-24.8-1.3-27.1C-547.3,532.5-547.1,516.8-547.1,516.8z"/>
<path fill="#C95145" d="M-503.1,542.9c0,0-2,24.8-17.3,35.2s-24.4,4.9-24.4,4.9s10.1,9.5,26.1-2.3
	C-502.7,568.9-503.1,542.9-503.1,542.9L-503.1,542.9z"/>
<path fill="#C95145" d="M-549.7,485.6c0,0,3.3,10.8-13.7,14.7c-17,3.9-19.2,10.1-13.7,11.7s16.3-4.2,18.9,1
	c1.9,6.2,1.5,12.5-1.3,18.9c0,0,9.1-15.3,4.9-22.8s2.3-8.1,4.9-12.4C-547.1,492.4-549.7,485.6-549.7,485.6L-549.7,485.6z"/>
<path fill="#C95145" d="M-577.8,477.3c0,0,14.5-5.9,22.6-0.8C-555.2,476.5-565.1,466.8-577.8,477.3z"/>
<path fill="#C95145" d="M-566.5,538.4c0,0-17.2,7.8-30.1,0.8s-10-13.4-10-13.4s-3,13.9,6.2,16.1S-572.7,547.6-566.5,538.4
	L-566.5,538.4z"/>
<path fill="#C95145" d="M-564.9,593.6c0,0,3-7.3,14.8-6.5s12.9,5.9,12.9,5.9s-1.3-8.1-14.8-8.6s-14.3-4-14.3-4
	S-562.2,586.1-564.9,593.6z"/>
<path fill="#C95145" d="M-538.3,602c0,0-6,18.9-6,23.3c0,4.4-8.8,18.2-13.2,20.8c-4.4,2.6-8.5,12.9-8.5,12.9s0-15.7,8.5-19.8
	s10.4-13.8,11-18.9C-545.9,615.2-538.3,602-538.3,602z"/>
<path fill="#C95145" d="M-586.7,635c0,0-6,8.2-2.5,14.8s12.6,8.8,12.6,8.8s-14.5,1.3-17-3.5S-592.9,638.5-586.7,635L-586.7,635z"/>
<path fill="#C95145" d="M-529.6,466.4c0,0,8.8,9.1,2.9,19.7c-5.9,10.6-17.7,6.5-17.7,6.5s10.6,8,19.1-3.8
	C-516.7,477-529.6,466.4-529.6,466.4z"/>
<path fill="#C95145" d="M-585.6,440.5c0,0-1.8,8.2,3.2,14.1s13.3,12.1,19.7,13.5s10.3,7.4,10.3,7.4s-11.2-7.7-18.6-8.2
	C-578.2,466.7-592.1,451.4-585.6,440.5z"/>
<path fill="#C95145" d="M-562,438.2c0,0-15.3-4.3-19.2-2.3C-581.2,436-576,427.8-562,438.2z"/>
<path fill="#C95145" d="M-598.4,493.9c0,0-4.5,9.6-4.9,13.4C-603.3,507.3-607.5,498.6-598.4,493.9z"/>
<path fill="#C95145" d="M-596.5,428.2c0,0,14.5,0.8,11.7-8.5c0,0-5.5-5.3-5.1-7.2s7.9-8.9,9.4-1.5c3,6.8,4,10,6.6,10
	c0,0-7.9-0.8-8.5-5.7s-3.4,1.1-1.7,1.7C-582.4,417.7-577.7,432.8-596.5,428.2z"/>
<path fill="#C95145" d="M-560.8,411.7c0,0,1.7,2.7,1.3,4.1c-0.6,2.8-3.9,5.3-7.1,5.4c0,0,5.8-0.6,8.3-2.3s4.5-1.3,4.5-1.3
	L-560.8,411.7z"/>
</svg>
