<svg xmlns="http://www.w3.org/2000/svg" id="Layer_1" viewBox="0 0 414.7 431.4">
  <style>
    .st0{fill:#B17F60;} .st1{fill:#F26F5B;} .st2{fill:#1A2C3E;} .st3{fill:#FCD4BB;} .st4{fill:none;} .st5{fill:none;stroke:#F26F5B;stroke-miterlimit:10;} .st6{fill:none;stroke:#F26F5B;stroke-width:1.7737;stroke-miterlimit:10;} .st7{fill:#C95145;}
  </style>
  <path d="M169.6 313.7c0 10.2-8.3 18.5-18.5 18.5s-18.5-8.3-18.5-18.5c0-1.8.3-3.5.7-5.2 2.2-7.7 9.3-13.3 17.8-13.3s15.6 5.6 17.8 13.3c.5 1.6.7 3.4.7 5.2z" class="st0"/>
  <circle cx="100.1" cy="21.6" r="18.5" class="st0"/>
  <circle cx="200.1" cy="169.4" r="18.5" class="st0"/>
  <circle cx="200.1" cy="242" r="18.5" class="st0"/>
  <circle cx="100.1" cy="383.5" r="18.5" class="st0"/>
  <circle cx="160.1" cy="94.9" r="18.5" class="st0"/>
  <path d="M166 310.6c0 10.2-8.3 18.5-18.5 18.5s-18.5-8.3-18.5-18.5c0-1.8.3-3.5.7-5.2 2.2-7.7 9.3-13.3 17.8-13.3s15.6 5.6 17.8 13.3c.4 1.7.7 3.4.7 5.2z" class="st1"/>
  <path d="M150.5 302.8h-6.6c-.7 0-1.2.5-1.2 1.2v2.3c0 .7.5 1.2 1.2 1.2h6.6c.7 0 1.2-.5 1.2-1.2V304c0-.6-.5-1.2-1.2-1.2z" class="st2"/>
  <path d="M140 302.8h-6.6c-.7 0-1.2.5-1.2 1.2v2.3c0 .7.5 1.2 1.2 1.2h6.6c.7 0 1.2-.5 1.2-1.2V304c0-.6-.5-1.2-1.2-1.2z" class="st3"/>
  <path d="M161.1 302.8h-6.6c-.7 0-1.2.5-1.2 1.2v2.3c0 .7.5 1.2 1.2 1.2h6.6c.7 0 1.2-.5 1.2-1.2V304c0-.6-.5-1.2-1.2-1.2z" class="st0"/>
  <path d="M164.7 310.4c0 9.8-7.7 17.8-17.2 17.8s-17.2-7.9-17.2-17.8c0-1.7.2-3.4.7-5h33c.4 1.6.7 3.2.7 5z" class="st3"/>
  <path d="M137.6 316.5h-.8v-7.1h4v.7h-3.1v2.6h3v.7h-3v3.1z" class="st1"/>
  <path d="M141.9 316.5v-7.1h.8v7.1h-.8z" class="st1"/>
  <path d="M144.7 316.5v-7.1h.8v6.4h3.1v.8h-3.9z" class="st1"/>
  <path d="M153.9 316.5h-4v-7.1h4v.7h-3.1v2.3h3v.7h-3v2.6h3.1v.8z" class="st1"/>
  <path d="M159.5 314.6c0 .6-.2 1.1-.7 1.5s-1.1.5-1.9.5c-.8 0-1.5-.1-2-.3v-.8c.3.1.6.2 1 .3s.7.1 1 .1c.6 0 1-.1 1.2-.3.3-.2.4-.5.4-.9 0-.2 0-.5-.1-.6-.1-.2-.3-.3-.5-.4-.2-.1-.6-.3-1.1-.5-.7-.2-1.1-.5-1.4-.8-.3-.3-.4-.8-.4-1.3s.2-1 .6-1.3 1-.5 1.6-.5c.7 0 1.4.1 2 .4l-.3.7c-.6-.2-1.2-.4-1.7-.4-.4 0-.8.1-1 .3s-.4.5-.4.8c0 .2 0 .5.1.6.1.2.2.3.5.4.2.1.5.3 1 .4.7.3 1.3.6 1.5.9.5.3.6.7.6 1.2z" class="st1"/>
  <path d="M307.5 38.2H69.2c-4 0-7.2 3.2-7.2 7.2v16.1c0 4 3.2 7.2 7.2 7.2h238.3c4 0 7.2-3.2 7.2-7.2V45.4c0-3.9-3.3-7.2-7.2-7.2z" class="st0"/>
  <path d="M302.5 34.8H64.2c-4 0-7.2 3.2-7.2 7.2v16.1c0 4 3.2 7.2 7.2 7.2h238.3c4 0 7.2-3.2 7.2-7.2V42c0-3.9-3.3-7.2-7.2-7.2z" class="st1"/>
  <circle cx="96.4" cy="18.5" r="18.5" class="st1"/>
  <path d="M407.5 186.4H169.2c-4 0-7.2 3.2-7.2 7.2v16.1c0 4 3.2 7.2 7.2 7.2h238.3c4 0 7.2-3.2 7.2-7.2v-16.1c0-3.9-3.3-7.2-7.2-7.2z" class="st0"/>
  <path d="M402.5 182.2H164.2c-4 0-7.2 3.2-7.2 7.2v16.1c0 4 3.2 7.2 7.2 7.2h238.3c4 0 7.2-3.2 7.2-7.2v-16.1c0-4-3.3-7.2-7.2-7.2z" class="st1"/>
  <circle cx="196.4" cy="166.3" r="18.5" class="st1"/>
  <path d="M407.5 259.8H169.2c-4 0-7.2 3.2-7.2 7.2v16.1c0 4 3.2 7.2 7.2 7.2h238.3c4 0 7.2-3.2 7.2-7.2V267c0-4-3.3-7.2-7.2-7.2z" class="st0"/>
  <path d="M401.5 255H163.2c-4 0-7.2 3.2-7.2 7.2v16.1c0 4 3.2 7.2 7.2 7.2h238.3c4 0 7.2-3.2 7.2-7.2v-16.1c0-3.9-3.3-7.2-7.2-7.2z" class="st1"/>
  <circle cx="196.4" cy="238.9" r="18.5" class="st1"/>
  <path d="M357.5 332.2H119.2c-4 0-7.2 3.2-7.2 7.2v16.1c0 4 3.2 7.2 7.2 7.2h238.3c4 0 7.2-3.2 7.2-7.2v-16.1c0-3.9-3.3-7.2-7.2-7.2z" class="st0"/>
  <path d="M352.5 326.9H114.2c-4 0-7.2 3.2-7.2 7.2v16.1c0 4 3.2 7.2 7.2 7.2h238.3c4 0 7.2-3.2 7.2-7.2v-16.1c0-4-3.3-7.2-7.2-7.2z" class="st1"/>
  <path d="M307.5 400.9H69.2c-4 0-7.2 3.2-7.2 7.2v16.1c0 4 3.2 7.2 7.2 7.2h238.3c4 0 7.2-3.2 7.2-7.2v-16.1c0-4-3.3-7.2-7.2-7.2z" class="st0"/>
  <path d="M302.5 396.3H64.2c-4 0-7.2 3.2-7.2 7.2v16.1c0 4 3.2 7.2 7.2 7.2h238.3c4 0 7.2-3.2 7.2-7.2v-16.1c0-4-3.3-7.2-7.2-7.2z" class="st1"/>
  <circle cx="96.4" cy="380.4" r="18.5" class="st1"/>
  <path d="M367.5 112.2H129.2c-4 0-7.2 3.2-7.2 7.2v16.1c0 4 3.2 7.2 7.2 7.2h238.3c4 0 7.2-3.2 7.2-7.2v-16.1c0-4-3.3-7.2-7.2-7.2z" class="st0"/>
  <path d="M362.5 108.3H124.2c-4 0-7.2 3.2-7.2 7.2v16.1c0 4 3.2 7.2 7.2 7.2h238.3c4 0 7.2-3.2 7.2-7.2v-16.1c0-4-3.3-7.2-7.2-7.2z" class="st1"/>
  <circle cx="156.4" cy="91.8" r="18.5" class="st1"/>
  <path d="M65.2 39.1h246.9v26.1H65.2z" class="st4"/>
  <path d="M67 43.7v3h-.8v-7.1h2c.9 0 1.5.2 1.9.5s.6.8.6 1.5c0 .9-.5 1.6-1.4 1.9l1.9 3.2h-1l-1.7-3H67zm0-.7h1.1c.6 0 1-.1 1.3-.3s.4-.6.4-1c0-.5-.1-.8-.4-1s-.7-.3-1.3-.3H67V43z" class="st2"/>
  <path d="M74.5 46.8c-.8 0-1.4-.2-1.9-.7S72 44.9 72 44c0-.9.2-1.5.6-2.1s1-.8 1.7-.8 1.2.2 1.6.7.6 1 .6 1.7v.5h-3.7c0 .6.2 1.1.5 1.4s.7.5 1.3.5c.6 0 1.1-.1 1.7-.4v.7c-.3.1-.6.2-.8.3s-.6.3-1 .3zm-.2-4.9c-.4 0-.8.1-1 .4s-.4.7-.5 1.2h2.8c0-.5-.1-.9-.3-1.2s-.6-.4-1-.4z" class="st2"/>
  <path d="M84.7 46.7v-3.5c0-.4-.1-.7-.3-1s-.5-.3-.8-.3c-.5 0-.9.1-1.1.4s-.4.7-.4 1.3v3h-.8v-3.5c0-.4-.1-.7-.3-1s-.5-.3-.9-.3c-.5 0-.9.2-1.1.5s-.4.8-.4 1.5v2.8h-.8v-5.4h.7l.1.7c.2-.3.4-.5.6-.6s.6-.2.9-.2c.8 0 1.4.3 1.6.9.2-.3.4-.5.7-.7s.6-.2 1-.2c.6 0 1.1.2 1.4.5s.5.8.5 1.5v3.5h-.6z" class="st2"/>
  <path d="M89.4 46.8c-.8 0-1.4-.2-1.9-.7s-.7-1.2-.7-2c0-.9.2-1.5.6-2.1s1-.8 1.7-.8 1.2.2 1.6.7.6 1 .6 1.7v.5h-3.7c0 .6.2 1.1.5 1.4s.7.5 1.3.5c.6 0 1.1-.1 1.7-.4v.7c-.3.1-.6.2-.8.3s-.5.2-.9.2zm-.2-4.9c-.4 0-.8.1-1 .4s-.4.7-.5 1.2h2.8c0-.5-.1-.9-.3-1.2s-.5-.4-1-.4z" class="st2"/>
  <path d="M99.6 46.7v-3.5c0-.4-.1-.7-.3-1s-.5-.3-.8-.3c-.5 0-.9.1-1.1.4s-.4.8-.4 1.4v3h-.8v-3.5c0-.4-.1-.7-.3-1s-.5-.3-.9-.3c-.5 0-.9.2-1.1.5s-.4.8-.4 1.5v2.8h-.8v-5.4h.7l.1.7c.2-.3.4-.5.6-.6s.6-.2.9-.2c.8 0 1.4.3 1.6.9.2-.3.4-.5.7-.7s.6-.2 1-.2c.6 0 1.1.2 1.4.5s.5.8.5 1.5v3.5h-.6z" class="st2"/>
  <path d="M104.6 41.2c.7 0 1.2.2 1.6.7s.6 1.2.6 2-.2 1.6-.6 2-.9.7-1.6.7c-.3 0-.7-.1-1-.2s-.5-.3-.7-.6h-.1l-.2.7h-.6v-7.6h.8v2.9c.5-.3 1-.6 1.8-.6zm-.1.7c-.6 0-1 .2-1.2.5s-.4.9-.4 1.6.1 1.3.4 1.6.7.5 1.2.5.9-.2 1.1-.5.4-.9.4-1.6c0-.7-.1-1.2-.4-1.6s-.6-.5-1.1-.5z" class="st2"/>
  <path d="M110.5 46.8c-.8 0-1.4-.2-1.9-.7s-.7-1.2-.7-2c0-.9.2-1.5.6-2.1s1-.8 1.7-.8 1.2.2 1.6.7.6 1 .6 1.7v.5h-3.7c0 .6.2 1.1.5 1.4s.7.5 1.3.5c.6 0 1.1-.1 1.7-.4v.7c-.3.1-.6.2-.8.3s-.6.2-.9.2zm-.2-4.9c-.4 0-.8.1-1 .4s-.4.7-.5 1.2h2.8c0-.5-.1-.9-.3-1.2s-.6-.4-1-.4z" class="st2"/>
  <path d="M116.3 41.2c.2 0 .5 0 .6.1l-.1.8c-.2 0-.4-.1-.6-.1-.4 0-.8.2-1.1.5s-.5.8-.5 1.3v2.9h-.8v-5.4h.7l.1 1c.2-.3.4-.6.7-.8s.6-.3 1-.3z" class="st2"/>
  <path d="M122.2 46.1h.4s.2 0 .3-.1v.6c-.1 0-.2.1-.4.1h-.5c-1 0-1.6-.5-1.6-1.6v-3.2h-.8v-.4l.8-.3.3-1.1h.5v1.2h1.6v.6h-1.6V45c0 .3.1.6.2.7s.6.4.8.4z" class="st2"/>
  <path d="M128.7 44c0 .9-.2 1.6-.7 2-.4.5-1 .7-1.8.7-.5 0-.9-.1-1.3-.3s-.7-.5-.9-1-.3-.9-.3-1.5c0-.9.2-1.6.7-2s1-.7 1.8-.7c.7 0 1.3.2 1.8.7.4.6.7 1.2.7 2.1zm-4.1 0c0 .7.1 1.2.4 1.6s.7.5 1.2.5.9-.2 1.2-.5.4-.9.4-1.6c0-.7-.1-1.2-.4-1.6s-.7-.5-1.2-.5-.9.2-1.2.5-.4.9-.4 1.6z" class="st2"/>
  <path d="M136 46.7l-.2-.8c-.3.3-.5.6-.8.7s-.6.2-1 .2c-.5 0-.9-.1-1.2-.4s-.5-.7-.5-1.2c0-1.1.9-1.6 2.6-1.7h.9v-.3c0-.4-.1-.7-.3-.9s-.5-.3-.9-.3-1 .1-1.5.4l-.2-.6c.3-.1.6-.3.9-.3s.6-.1.9-.1c.6 0 1.1.1 1.4.4s.5.7.5 1.4v3.7h-.6zm-1.9-.6c.5 0 .9-.1 1.2-.4s.4-.7.4-1.2V44h-.8c-.6 0-1.1.1-1.4.3s-.4.5-.4.8c0 .3.1.5.3.7s.4.3.7.3z" class="st2"/>
  <path d="M139.1 46.7h-.8v-7.6h.8v7.6z" class="st2"/>
  <path d="M145.1 46.7l-1-3.1c-.1-.2-.2-.6-.3-1.3-.1.6-.2 1-.3 1.3l-1 3.1h-.9l-1.5-5.4h.8c.3 1.3.6 2.4.8 3.1s.3 1.2.3 1.4c0-.2.1-.4.2-.7s.1-.5.2-.7l1-3.1h.9l1 3.1c.2.6.3 1 .4 1.4 0-.1 0-.3.1-.5s.4-1.6 1-3.9h.8l-1.5 5.4h-1z" class="st2"/>
  <path d="M151.8 46.7l-.2-.8c-.3.3-.5.6-.8.7s-.6.2-1 .2c-.5 0-.9-.1-1.2-.4s-.5-.7-.5-1.2c0-1.1.9-1.6 2.6-1.7h.9v-.3c0-.4-.1-.7-.3-.9s-.5-.3-.9-.3-1 .1-1.5.4l-.2-.6c.3-.1.6-.3.9-.3s.6-.1.9-.1c.6 0 1.1.1 1.4.4s.5.7.5 1.4v3.7h-.6zm-1.8-.6c.5 0 .9-.1 1.2-.4s.4-.7.4-1.2V44h-.8c-.6 0-1.1.1-1.4.3s-.4.5-.4.8c0 .3.1.5.3.7s.4.3.7.3z" class="st2"/>
  <path d="M153.3 41.3h.9l1.2 3.1c.3.7.4 1.2.5 1.5 0-.2.1-.5.3-.9s.6-1.6 1.3-3.7h.9l-2.3 6.1c-.2.6-.5 1-.8 1.3s-.7.4-1.1.4c-.2 0-.5 0-.7-.1v-.6c.2 0 .4.1.6.1.6 0 1-.3 1.2-.9l.3-.8-2.3-5.5z" class="st2"/>
  <path d="M162.6 45.2c0 .5-.2.9-.6 1.2s-.9.4-1.6.4c-.7 0-1.3-.1-1.7-.3v-.8c.3.1.5.2.8.3s.6.1.9.1c.4 0 .7-.1 1-.2s.3-.3.3-.6c0-.2-.1-.4-.3-.5s-.5-.3-1.1-.5c-.5-.2-.9-.3-1.1-.5s-.4-.3-.5-.5-.2-.4-.2-.6c0-.4.2-.8.5-1s.8-.4 1.5-.4c.6 0 1.1.1 1.7.4l-.3.7c-.5-.2-1-.3-1.5-.3-.4 0-.7.1-.9.2s-.3.3-.3.5c0 .1 0 .3.1.4s.2.2.4.3.5.2.9.4c.6.2 1.1.5 1.3.7s.7.3.7.6z" class="st2"/>
  <path d="M169 46.8c-.3 0-.7-.1-1-.2s-.5-.3-.7-.6h-.1c0 .3.1.6.1.9v2.2h-.8v-7.8h.7l.1.7c.2-.3.5-.5.7-.6s.6-.2 1-.2c.7 0 1.3.2 1.6.7s.6 1.2.6 2c0 .9-.2 1.6-.6 2s-.9.9-1.6.9zm-.1-4.9c-.5 0-.9.2-1.2.5s-.4.8-.4 1.4v.2c0 .8.1 1.3.4 1.6s.7.5 1.2.5.8-.2 1.1-.6.4-.9.4-1.5c0-.7-.1-1.2-.4-1.5s-.6-.6-1.1-.6z" class="st2"/>
  <path d="M175.1 41.2c.2 0 .5 0 .6.1l-.1.8c-.2 0-.4-.1-.6-.1-.4 0-.8.2-1.1.5s-.5.8-.5 1.3v2.9h-.8v-5.4h.7l.1 1c.2-.3.4-.6.7-.8s.7-.3 1-.3z" class="st2"/>
  <path d="M176.7 39.9c0-.2 0-.3.1-.4s.2-.1.3-.1c.1 0 .2 0 .3.1s.1.2.1.4 0 .3-.1.4-.2.1-.3.1c-.1 0-.3 0-.3-.1s-.1-.2-.1-.4zm.8 6.8h-.8v-5.4h.8v5.4z" class="st2"/>
  <path d="M183.9 44c0 .9-.2 1.6-.7 2s-1 .7-1.8.7c-.5 0-.9-.1-1.3-.3s-.7-.5-.9-1-.2-.8-.2-1.4c0-.9.2-1.6.7-2s1-.7 1.8-.7c.7 0 1.3.2 1.8.7s.6 1.1.6 2zm-4.1 0c0 .7.1 1.2.4 1.6s.7.5 1.2.5.9-.2 1.2-.5.4-.9.4-1.6c0-.7-.1-1.2-.4-1.6s-.7-.5-1.2-.5-.9.2-1.2.5-.4.9-.4 1.6z" class="st2"/>
  <path d="M187.7 41.2c.2 0 .5 0 .6.1l-.1.8c-.2 0-.4-.1-.6-.1-.4 0-.8.2-1.1.5s-.5.8-.5 1.3v2.9h-.8v-5.4h.7l.1 1c.2-.3.4-.6.7-.8s.7-.3 1-.3z" class="st2"/>
  <path d="M189.3 39.9c0-.2 0-.3.1-.4s.2-.1.3-.1c.1 0 .2 0 .3.1s.1.2.1.4 0 .3-.1.4-.2.1-.3.1c-.1 0-.3 0-.3-.1s-.1-.2-.1-.4zm.9 6.8h-.8v-5.4h.8v5.4z" class="st2"/>
  <path d="M193.6 46.1h.4s.2 0 .3-.1v.6c-.1 0-.2.1-.4.1h-.5c-1 0-1.6-.5-1.6-1.6v-3.2h-.8v-.4l.8-.3.3-1.1h.5v1.2h1.6v.6h-1.6V45c0 .3.1.6.2.7s.6.4.8.4z" class="st2"/>
  <path d="M195.4 39.9c0-.2 0-.3.1-.4s.2-.1.3-.1c.1 0 .2 0 .3.1s.1.2.1.4 0 .3-.1.4-.2.1-.3.1c-.1 0-.3 0-.3-.1s-.1-.2-.1-.4zm.9 6.8h-.8v-5.4h.8v5.4z" class="st2"/>
  <path d="M201.4 46.7h-3.9v-.6l2.9-4.2h-2.7v-.6h3.6v.6l-2.9 4.1h3v.7z" class="st2"/>
  <path d="M204.9 46.8c-.8 0-1.4-.2-1.9-.7s-.7-1.2-.7-2c0-.9.2-1.5.6-2.1s1-.8 1.7-.8 1.2.2 1.6.7.6 1 .6 1.7v.5h-3.7c0 .6.2 1.1.5 1.4s.7.5 1.3.5c.6 0 1.1-.1 1.7-.4v.7c-.3.1-.6.2-.8.3s-.5.2-.9.2zm-.2-4.9c-.4 0-.8.1-1 .4s-.4.7-.5 1.2h2.8c0-.5-.1-.9-.3-1.2s-.6-.4-1-.4z" class="st2"/>
  <path d="M213.3 41.9h-1.4v4.7h-.8v-4.7h-1v-.4l1-.3V41c0-1.3.6-2 1.7-2 .3 0 .6.1 1 .2l-.2.6c-.3-.1-.6-.2-.8-.2-.3 0-.5.1-.7.3s-.2.5-.2 1v.3h1.4v.7zm.9-2c0-.2 0-.3.1-.4s.2-.1.3-.1c.1 0 .2 0 .3.1s.1.2.1.4 0 .3-.1.4-.2.1-.3.1c-.1 0-.3 0-.3-.1s-.1-.2-.1-.4zm.9 6.8h-.8v-5.4h.8v5.4z" class="st2"/>
  <path d="M220.4 46.7v-3.5c0-.4-.1-.8-.3-1s-.5-.3-.9-.3c-.6 0-1 .2-1.2.5s-.4.8-.4 1.5v2.8h-.8v-5.4h.7l.1.7c.2-.3.4-.5.7-.6s.6-.2 1-.2c.6 0 1.1.2 1.5.5s.5.8.5 1.5v3.5h-.9z" class="st2"/>
  <path d="M222.8 39.9c0-.2 0-.3.1-.4s.2-.1.3-.1c.1 0 .2 0 .3.1s.1.2.1.4 0 .3-.1.4-.2.1-.3.1c-.1 0-.3 0-.3-.1s-.1-.2-.1-.4zm.9 6.8h-.8v-5.4h.8v5.4z" class="st2"/>
  <path d="M228.9 45.2c0 .5-.2.9-.6 1.2s-.9.4-1.6.4c-.7 0-1.3-.1-1.7-.3v-.8c.3.1.5.2.8.3s.6.1.9.1c.4 0 .7-.1 1-.2s.3-.3.3-.6c0-.2-.1-.4-.3-.5s-.5-.3-1.1-.5c-.5-.2-.9-.3-1.1-.5s-.4-.3-.5-.5-.2-.4-.2-.6c0-.4.2-.8.5-1s.8-.4 1.5-.4c.6 0 1.1.1 1.7.4l-.3.7c-.5-.2-1-.3-1.5-.3-.4 0-.7.1-.9.2s-.3.3-.3.5c0 .1 0 .3.1.4s.2.2.4.3.5.2.9.4c.6.2 1.1.5 1.3.7s.7.3.7.6z" class="st2"/>
  <path d="M233.9 46.7v-3.5c0-.4-.1-.8-.3-1s-.5-.3-.9-.3c-.6 0-1 .2-1.2.5s-.4.8-.4 1.5v2.8h-.8v-7.6h.8v3c.2-.3.4-.5.7-.6s.6-.2 1-.2c.7 0 1.1.2 1.5.5s.5.8.5 1.5v3.5h-.9z" class="st2"/>
  <path d="M236.3 39.9c0-.2 0-.3.1-.4s.2-.1.3-.1c.1 0 .2 0 .3.1s.1.2.1.4 0 .3-.1.4-.2.1-.3.1c-.1 0-.3 0-.3-.1s-.1-.2-.1-.4zm.9 6.8h-.8v-5.4h.8v5.4z" class="st2"/>
  <path d="M242.5 46.7v-3.5c0-.4-.1-.8-.3-1s-.5-.3-.9-.3c-.6 0-1 .2-1.2.5s-.4.8-.4 1.5v2.8h-.8v-5.4h.7l.1.7c.2-.3.4-.5.7-.6s.6-.2 1-.2c.6 0 1.1.2 1.5.5s.5.8.5 1.5v3.5h-.9z" class="st2"/>
  <path d="M249.4 41.3v.5l-1 .1c.1.1.2.3.2.4s.1.4.1.6c0 .5-.2.9-.5 1.3s-.8.5-1.5.5h-.4c-.3.2-.5.4-.5.7 0 .1.1.3.2.3s.3.1.6.1h.9c.6 0 1 .1 1.3.4s.5.6.5 1.1c0 .6-.2 1-.7 1.4s-1.2.5-2.1.5c-.7 0-1.2-.1-1.6-.4s-.6-.6-.6-1.1c0-.3.1-.6.3-.8s.5-.4.9-.5c-.1-.1-.3-.2-.3-.3s-.1-.3-.1-.5.1-.4.2-.5.3-.3.5-.4c-.3-.1-.5-.3-.7-.6s-.3-.6-.3-.9c0-.6.2-1 .5-1.4s.8-.5 1.5-.5c.3 0 .5 0 .8.1h1.8zm-4.3 6.3c0 .3.1.5.4.7s.6.2 1 .2c.7 0 1.2-.1 1.5-.3s.5-.5.5-.8c0-.3-.1-.5-.3-.6s-.5-.2-1-.2h-1c-.4 0-.7.1-.9.3s-.2.3-.2.7zm.5-4.6c0 .4.1.7.3.8s.5.3.9.3c.8 0 1.2-.4 1.2-1.2 0-.8-.4-1.2-1.2-1.2-.4 0-.7.1-.9.3s-.3.6-.3 1z" class="st2"/>
  <path d="M256.4 46.7l-.2-.8c-.3.3-.5.6-.8.7s-.6.2-1 .2c-.5 0-.9-.1-1.2-.4s-.5-.7-.5-1.2c0-1.1.9-1.6 2.6-1.7h.9v-.3c0-.4-.1-.7-.3-.9-.2-.2-.5-.3-.9-.3s-1 .1-1.5.4l-.2-.6c.3-.1.6-.3.9-.3s.6-.1.9-.1c.6 0 1.1.1 1.4.4s.5.7.5 1.4v3.7h-.6zm-1.8-.6c.5 0 .9-.1 1.2-.4.3-.3.4-.7.4-1.2V44h-.8c-.6 0-1.1.1-1.4.3s-.4.5-.4.8c0 .3.1.5.3.7s.3.3.7.3z" class="st2"/>
  <path d="M263.7 46.8c-.3 0-.7-.1-1-.2s-.5-.3-.7-.6c0 .3.1.6.1.9v2.2h-.8v-7.8h.7l.1.7c.2-.3.5-.5.7-.6s.6-.2 1-.2c.7 0 1.3.2 1.6.7s.6 1.2.6 2c0 .9-.2 1.6-.6 2s-1 .9-1.7.9zm-.1-4.9c-.5 0-.9.2-1.2.5s-.4.8-.4 1.4v.2c0 .8.1 1.3.4 1.6s.7.5 1.2.5.8-.2 1.1-.6.4-.9.4-1.5c0-.7-.1-1.2-.4-1.5s-.6-.6-1.1-.6z" class="st2"/>
  <path d="M269.8 41.2c.2 0 .5 0 .6.1l-.1.8c-.2 0-.4-.1-.6-.1-.4 0-.8.2-1.1.5s-.5.8-.5 1.3v2.9h-.8v-5.4h.7l.1 1c.2-.3.4-.6.7-.8s.7-.3 1-.3z" class="st2"/>
  <path d="M276.1 44c0 .9-.2 1.6-.7 2s-1 .7-1.8.7c-.5 0-.9-.1-1.3-.3s-.7-.5-.9-1-.3-.9-.3-1.5c0-.9.2-1.6.7-2s1-.7 1.8-.7c.7 0 1.3.2 1.8.7s.7 1.2.7 2.1zm-4.1 0c0 .7.1 1.2.4 1.6s.7.5 1.2.5.9-.2 1.2-.5.4-.9.4-1.6c0-.7-.1-1.2-.4-1.6s-.7-.5-1.2-.5-.9.2-1.2.5-.4.9-.4 1.6z" class="st2"/>
  <path d="M276.9 49.1c-.3 0-.6 0-.8-.1v-.7c.2.1.4.1.7.1.3 0 .4-.1.6-.2s.2-.3.2-.6v-6.2h.8v6.2c-.1.9-.6 1.5-1.5 1.5zm.5-9.2c0-.2 0-.3.1-.4s.2-.1.3-.1c.1 0 .2 0 .3.1s.1.2.1.4 0 .3-.1.4-.2.1-.3.1c-.1 0-.3 0-.3-.1s-.1-.2-.1-.4z" class="st2"/>
  <path d="M282.3 46.8c-.8 0-1.4-.2-1.9-.7s-.7-1.2-.7-2c0-.9.2-1.5.6-2.1s1-.8 1.7-.8 1.2.2 1.6.7.6 1 .6 1.7v.5h-3.7c0 .6.2 1.1.5 1.4s.7.5 1.3.5c.6 0 1.1-.1 1.7-.4v.7c-.3.1-.6.2-.8.3s-.5.2-.9.2zm-.2-4.9c-.4 0-.8.1-1 .4s-.4.7-.5 1.2h2.8c0-.5-.1-.9-.3-1.2s-.6-.4-1-.4z" class="st2"/>
  <path d="M287.8 46.8c-.8 0-1.4-.2-1.8-.7s-.6-1.2-.6-2c0-.9.2-1.6.6-2.1s1-.7 1.8-.7c.3 0 .5 0 .8.1s.5.1.6.2l-.2.7c-.2-.1-.4-.1-.6-.2s-.4-.1-.6-.1c-1.1 0-1.6.7-1.6 2.1 0 .7.1 1.2.4 1.5s.7.5 1.2.5c.4 0 .9-.1 1.4-.3v.7c-.4.2-.9.3-1.4.3z" class="st2"/>
  <path d="M292.1 46.1h.4s.2 0 .3-.1v.6c-.1 0-.2.1-.4.1h-.5c-1 0-1.6-.5-1.6-1.6v-3.2h-.8v-.4l.8-.3.3-1.1h.5v1.2h1.6v.6h-1.6V45c0 .3.1.6.2.7s.6.4.8.4z" class="st2"/>
  <path d="M293.8 46.2c0-.2 0-.4.1-.5s.2-.2.4-.2.3.1.4.2.2.3.2.5-.1.4-.2.5-.3.2-.4.2c-.2 0-.3-.1-.4-.2s-.1-.3-.1-.5z" class="st2"/>
  <path d="M123.2 113.2h246.9v26.1H123.2z" class="st4"/>
  <path d="M124.2 113.7h2c.9 0 1.6.1 2.1.4.4.3.6.7.6 1.3 0 .4-.1.8-.4 1s-.6.5-1 .5c1.1.2 1.6.8 1.6 1.7 0 .6-.2 1.1-.6 1.5s-1 .5-1.8.5h-2.5v-6.9zm.8 3h1.4c.6 0 1-.1 1.3-.3s.4-.5.4-.9-.1-.7-.4-.9-.7-.3-1.4-.3H125v2.4zm0 .7v2.7h1.5c.6 0 1-.1 1.3-.3.3-.2.4-.6.4-1s-.1-.8-.4-1c-.3-.2-.8-.3-1.4-.3H125z" class="st2"/>
  <path d="M132.8 120.9c-.8 0-1.4-.2-1.9-.7s-.7-1.2-.7-2c0-.9.2-1.5.6-2.1s1-.8 1.7-.8 1.2.2 1.6.7.6 1 .6 1.7v.5H131c0 .6.2 1.1.5 1.4s.7.5 1.3.5c.6 0 1.1-.1 1.7-.4v.7c-.3.1-.6.2-.8.3s-.5.2-.9.2zm-.2-4.9c-.4 0-.8.1-1 .4s-.4.7-.5 1.2h2.8c0-.5-.1-.9-.3-1.2s-.6-.4-1-.4z" class="st2"/>
  <path d="M140.9 120.9c-.8 0-1.4-.2-1.8-.7s-.6-1.2-.6-2c0-.9.2-1.6.6-2.1s1-.7 1.8-.7c.3 0 .5 0 .8.1s.5.1.6.2l-.2.7c-.2-.1-.4-.1-.6-.2s-.4-.1-.6-.1c-1.1 0-1.6.7-1.6 2.1 0 .7.1 1.2.4 1.5s.7.5 1.2.5c.4 0 .9-.1 1.4-.3v.7c-.4.2-.8.3-1.4.3z" class="st2"/>
  <path d="M146 115.4c.2 0 .5 0 .6.1l-.1.8c-.2 0-.4-.1-.6-.1-.4 0-.8.2-1.1.5s-.5.8-.5 1.3v2.9h-.8v-5.4h.7l.1 1c.2-.3.4-.6.7-.8s.6-.3 1-.3z" class="st2"/>
  <path d="M149.9 120.9c-.8 0-1.4-.2-1.9-.7s-.7-1.2-.7-2c0-.9.2-1.5.6-2.1s1-.8 1.7-.8 1.2.2 1.6.7.6 1 .6 1.7v.5h-3.7c0 .6.2 1.1.5 1.4s.7.5 1.3.5c.6 0 1.1-.1 1.7-.4v.7c-.3.1-.6.2-.8.3s-.6.2-.9.2zm-.2-4.9c-.4 0-.8.1-1 .4s-.4.7-.5 1.2h2.8c0-.5-.1-.9-.3-1.2s-.6-.4-1-.4z" class="st2"/>
  <path d="M156.5 120.8l-.2-.8c-.3.3-.5.6-.8.7s-.6.2-1 .2c-.5 0-.9-.1-1.2-.4s-.5-.7-.5-1.2c0-1.1.9-1.6 2.6-1.7h.9v-.3c0-.4-.1-.7-.3-.9s-.5-.3-.9-.3-1 .1-1.5.4l-.2-.6c.3-.1.6-.3.9-.3s.6-.1.9-.1c.6 0 1.1.1 1.4.4s.5.7.5 1.4v3.7h-.6zm-1.8-.6c.5 0 .9-.1 1.2-.4s.4-.7.4-1.2v-.5h-.8c-.6 0-1.1.1-1.4.3s-.4.5-.4.8c0 .3.1.5.3.7s.4.3.7.3z" class="st2"/>
  <path d="M160.5 120.2h.4s.2 0 .3-.1v.6c-.1 0-.2.1-.4.1h-.5c-1 0-1.6-.5-1.6-1.6V116h-.8v-.4l.8-.3.3-1.1h.5v1.2h1.6v.6h-1.6v3.1c0 .3.1.6.2.7s.6.4.8.4z" class="st2"/>
  <path d="M162.3 114c0-.2 0-.3.1-.4s.2-.1.3-.1c.1 0 .2 0 .3.1s.1.2.1.4 0 .3-.1.4-.2.1-.3.1c-.1 0-.3 0-.3-.1s-.1-.2-.1-.4zm.8 6.8h-.8v-5.4h.8v5.4z" class="st2"/>
  <path d="M166 120.8l-2-5.4h.9l1.2 3.2c.3.7.4 1.2.5 1.4 0-.2.1-.5.3-1.1s.6-1.7 1.3-3.5h.9l-2 5.4H166z" class="st2"/>
  <path d="M172.1 120.9c-.8 0-1.4-.2-1.9-.7s-.7-1.2-.7-2c0-.9.2-1.5.6-2.1s1-.8 1.7-.8 1.2.2 1.6.7.6 1 .6 1.7v.5h-3.7c0 .6.2 1.1.5 1.4s.7.5 1.3.5c.6 0 1.1-.1 1.7-.4v.7c-.3.1-.6.2-.8.3s-.5.2-.9.2zm-.2-4.9c-.4 0-.8.1-1 .4s-.4.7-.5 1.2h2.8c0-.5-.1-.9-.3-1.2s-.6-.4-1-.4z" class="st2"/>
  <path d="M178 114c0-.2 0-.3.1-.4s.2-.1.3-.1c.1 0 .2 0 .3.1s.1.2.1.4 0 .3-.1.4-.2.1-.3.1c-.1 0-.3 0-.3-.1s-.1-.2-.1-.4zm.9 6.8h-.8v-5.4h.8v5.4z" class="st2"/>
  <path d="M184.3 120.8v-3.5c0-.4-.1-.8-.3-1s-.5-.3-.9-.3c-.6 0-1 .2-1.2.5s-.4.8-.4 1.5v2.8h-.8v-5.4h.7l.1.7c.2-.3.4-.5.7-.6s.6-.2 1-.2c.6 0 1.1.2 1.5.5s.5.8.5 1.5v3.5h-.9z" class="st2"/>
  <path d="M191.6 120.9c-.8 0-1.4-.2-1.9-.7s-.7-1.2-.7-2c0-.9.2-1.5.6-2.1s1-.8 1.7-.8 1.2.2 1.6.7.6 1 .6 1.7v.5h-3.7c0 .6.2 1.1.5 1.4s.7.5 1.3.5c.6 0 1.1-.1 1.7-.4v.7c-.3.1-.6.2-.8.3s-.5.2-.9.2zm-.2-4.9c-.4 0-.8.1-1 .4s-.4.7-.5 1.2h2.8c0-.5-.1-.9-.3-1.2s-.6-.4-1-.4z" class="st2"/>
  <path d="M198.4 119.3c0 .5-.2.9-.6 1.2s-.9.4-1.6.4c-.7 0-1.3-.1-1.7-.3v-.8c.3.1.5.2.8.3s.6.1.9.1c.4 0 .7-.1 1-.2s.3-.3.3-.6c0-.2-.1-.4-.3-.5s-.5-.3-1.1-.5c-.5-.2-.9-.3-1.1-.5s-.4-.3-.5-.5-.2-.4-.2-.6c0-.4.2-.8.5-1s.8-.4 1.5-.4c.6 0 1.1.1 1.7.4l-.3.7c-.5-.2-1-.3-1.5-.3-.4 0-.7.1-.9.2s-.3.3-.3.5c0 .1 0 .3.1.4s.2.2.4.3.5.2.9.4c.6.2 1.1.5 1.3.7s.7.3.7.6z" class="st2"/>
  <path d="M203.2 119.3c0 .5-.2.9-.6 1.2s-.9.4-1.6.4c-.7 0-1.3-.1-1.7-.3v-.8c.3.1.5.2.8.3s.6.1.9.1c.4 0 .7-.1 1-.2s.3-.3.3-.6c0-.2-.1-.4-.3-.5s-.5-.3-1.1-.5c-.5-.2-.9-.3-1.1-.5s-.4-.3-.5-.5-.2-.4-.2-.6c0-.4.2-.8.5-1s.8-.4 1.5-.4c.6 0 1.1.1 1.7.4l-.3.7c-.5-.2-1-.3-1.5-.3-.4 0-.7.1-.9.2s-.3.3-.3.5c0 .1 0 .3.1.4s.2.2.4.3.5.2.9.4c.6.2 1.1.5 1.3.7s.7.3.7.6z" class="st2"/>
  <path d="M207.8 120.8l-.2-.8c-.3.3-.5.6-.8.7s-.6.2-1 .2c-.5 0-.9-.1-1.2-.4s-.5-.7-.5-1.2c0-1.1.9-1.6 2.6-1.7h.9v-.3c0-.4-.1-.7-.3-.9s-.5-.3-.9-.3-1 .1-1.5.4l-.2-.6c.3-.1.6-.3.9-.3s.6-.1.9-.1c.6 0 1.1.1 1.4.4s.5.7.5 1.4v3.7h-.6zm-1.9-.6c.5 0 .9-.1 1.2-.4s.4-.7.4-1.2v-.5h-.8c-.6 0-1.1.1-1.4.3s-.4.5-.4.8c0 .3.1.5.3.7s.4.3.7.3z" class="st2"/>
  <path d="M209.2 115.5h.9l1.2 3.1c.3.7.4 1.2.5 1.5 0-.2.1-.5.3-.9s.6-1.6 1.3-3.7h.9l-2.3 6.1c-.2.6-.5 1-.8 1.3s-.7.4-1.1.4c-.2 0-.5 0-.7-.1v-.6c.2 0 .4.1.6.1.6 0 1-.3 1.2-.9l.3-.8-2.3-5.5z" class="st2"/>
  <path d="M218.5 119.3c0 .5-.2.9-.6 1.2s-.9.4-1.6.4c-.7 0-1.3-.1-1.7-.3v-.8c.3.1.5.2.8.3s.6.1.9.1c.4 0 .7-.1 1-.2s.3-.3.3-.6c0-.2-.1-.4-.3-.5s-.5-.3-1.1-.5c-.5-.2-.9-.3-1.1-.5s-.4-.3-.5-.5-.2-.4-.2-.6c0-.4.2-.8.5-1s.8-.4 1.5-.4c.6 0 1.1.1 1.7.4l-.3.7c-.5-.2-1-.3-1.5-.3-.4 0-.7.1-.9.2s-.3.3-.3.5c0 .1 0 .3.1.4s.2.2.4.3.5.2.9.4c.6.2 1.1.5 1.3.7s.7.3.7.6z" class="st2"/>
  <path d="M224.9 115.4c.7 0 1.2.2 1.6.7s.6 1.2.6 2-.2 1.6-.6 2-.9.7-1.6.7c-.3 0-.7-.1-1-.2s-.5-.3-.7-.6h-.1l-.2.7h-.6v-7.6h.8v2.9c.5-.4 1.1-.6 1.8-.6zm-.1.6c-.6 0-1 .2-1.2.5s-.4.9-.4 1.6.1 1.3.4 1.6.7.5 1.2.5.9-.2 1.1-.5.4-.9.4-1.6c0-.7-.1-1.2-.4-1.6s-.6-.5-1.1-.5z" class="st2"/>
  <path d="M227.7 115.5h.9l1.2 3.1c.3.7.4 1.2.5 1.5 0-.2.1-.5.3-.9s.6-1.6 1.3-3.7h.9l-2.3 6.1c-.2.6-.5 1-.8 1.3s-.7.4-1.1.4c-.2 0-.5 0-.7-.1v-.6c.2 0 .4.1.6.1.6 0 1-.3 1.2-.9l.3-.8-2.3-5.5z" class="st2"/>
  <path d="M236.2 114c0-.2 0-.3.1-.4s.2-.1.3-.1c.1 0 .2 0 .3.1s.1.2.1.4 0 .3-.1.4-.2.1-.3.1c-.1 0-.3 0-.3-.1s-.1-.2-.1-.4zm.8 6.8h-.8v-5.4h.8v5.4z" class="st2"/>
  <path d="M242.2 119.3c0 .5-.2.9-.6 1.2s-.9.4-1.6.4c-.7 0-1.3-.1-1.7-.3v-.8c.3.1.5.2.8.3s.6.1.9.1c.4 0 .7-.1 1-.2s.3-.3.3-.6c0-.2-.1-.4-.3-.5s-.5-.3-1.1-.5c-.5-.2-.9-.3-1.1-.5s-.4-.3-.5-.5-.2-.4-.2-.6c0-.4.2-.8.5-1s.8-.4 1.5-.4c.6 0 1.1.1 1.7.4l-.3.7c-.5-.2-1-.3-1.5-.3-.4 0-.7.1-.9.2s-.3.3-.3.5c0 .1 0 .3.1.4s.2.2.4.3.5.2.9.4c.6.2 1.1.5 1.3.7s.7.3.7.6z" class="st2"/>
  <path d="M243.5 114c0-.2 0-.3.1-.4s.2-.1.3-.1c.1 0 .2 0 .3.1s.1.2.1.4 0 .3-.1.4-.2.1-.3.1c-.1 0-.3 0-.3-.1s-.1-.2-.1-.4zm.8 6.8h-.8v-5.4h.8v5.4z" class="st2"/>
  <path d="M249.7 120.8v-3.5c0-.4-.1-.8-.3-1s-.5-.3-.9-.3c-.6 0-1 .2-1.2.5s-.4.8-.4 1.5v2.8h-.9v-5.4h.7l.1.7c.2-.3.4-.5.7-.6s.6-.2 1-.2c.6 0 1.1.2 1.5.5s.5.8.5 1.5v3.5h-.8z" class="st2"/>
  <path d="M256.6 115.5v.5l-1 .1c.1.1.2.3.2.4s.1.4.1.6c0 .5-.2.9-.5 1.3s-.8.5-1.5.5h-.4c-.3.2-.5.4-.5.7 0 .1.1.3.2.3s.3.1.6.1h.9c.6 0 1 .1 1.3.4.3.2.5.6.5 1.1 0 .6-.2 1-.7 1.4-.5.3-1.2.5-2.1.5-.7 0-1.2-.1-1.6-.4s-.6-.6-.6-1.1c0-.3.1-.6.3-.8s.5-.4.9-.5c-.1-.1-.3-.2-.3-.3s-.1-.3-.1-.5.1-.4.2-.5.3-.3.5-.4c-.3-.1-.5-.3-.7-.6s-.3-.6-.3-.9c0-.6.2-1 .5-1.4s.8-.5 1.5-.5c.3 0 .5 0 .8.1h1.8zm-4.3 6.2c0 .3.1.5.4.7s.6.2 1 .2c.7 0 1.2-.1 1.5-.3s.5-.5.5-.8c0-.3-.1-.5-.3-.6s-.5-.2-1-.2h-1c-.4 0-.7.1-.9.3s-.2.4-.2.7zm.4-4.5c0 .4.1.7.3.8s.5.3.9.3c.8 0 1.2-.4 1.2-1.2 0-.8-.4-1.2-1.2-1.2-.4 0-.7.1-.9.3s-.3.6-.3 1z" class="st2"/>
  <path d="M262.4 120.9c-.8 0-1.4-.2-1.8-.7s-.6-1.2-.6-2c0-.9.2-1.6.6-2.1s1-.7 1.8-.7c.3 0 .5 0 .8.1s.5.1.6.2l-.2.7c-.2-.1-.4-.1-.6-.2s-.4-.1-.6-.1c-1.1 0-1.6.7-1.6 2.1 0 .7.1 1.2.4 1.5s.7.5 1.2.5c.4 0 .9-.1 1.4-.3v.7c-.4.2-.9.3-1.4.3z" class="st2"/>
  <path d="M269.6 118.1c0 .9-.2 1.6-.7 2s-1 .7-1.8.7c-.5 0-.9-.1-1.3-.3s-.7-.5-.9-1-.3-.9-.3-1.5c0-.9.2-1.6.7-2s1-.7 1.8-.7c.7 0 1.3.2 1.8.7s.7 1.3.7 2.1zm-4 0c0 .7.1 1.2.4 1.6s.7.5 1.2.5.9-.2 1.2-.5.4-.9.4-1.6c0-.7-.1-1.2-.4-1.6s-.7-.5-1.2-.5-.9.2-1.2.5-.4.9-.4 1.6z" class="st2"/>
  <path d="M271.9 120.8h-.8v-7.6h.8v7.6z" class="st2"/>
  <path d="M278.2 118.1c0 .9-.2 1.6-.7 2s-1 .7-1.8.7c-.5 0-.9-.1-1.3-.3s-.7-.5-.9-1-.3-.9-.3-1.5c0-.9.2-1.6.7-2s1-.7 1.8-.7c.7 0 1.3.2 1.8.7s.7 1.3.7 2.1zm-4.1 0c0 .7.1 1.2.4 1.6s.7.5 1.2.5.9-.2 1.2-.5.4-.9.4-1.6c0-.7-.1-1.2-.4-1.6s-.7-.5-1.2-.5-.9.2-1.2.5-.4.9-.4 1.6z" class="st2"/>
  <path d="M280.4 115.5v3.5c0 .4.1.8.3 1s.5.3.9.3c.6 0 1-.2 1.2-.5s.4-.8.4-1.5v-2.8h.8v5.4h-.7l-.1-.7c-.2.3-.4.5-.7.6s-.6.2-1 .2c-.7 0-1.1-.2-1.5-.5s-.5-.8-.5-1.5v-3.5h.9z" class="st2"/>
  <path d="M288.2 115.4c.2 0 .5 0 .6.1l-.1.8c-.2 0-.4-.1-.6-.1-.4 0-.8.2-1.1.5s-.5.8-.5 1.3v2.9h-.8v-5.4h.7l.1 1c.2-.3.4-.6.7-.8s.7-.3 1-.3z" class="st2"/>
  <path d="M292.3 116.1h-1.4v4.7h-.8v-4.7h-1v-.4l1-.3v-.3c0-1.3.6-2 1.7-2 .3 0 .6.1 1 .2l-.2.6c-.3-.1-.6-.2-.8-.2-.3 0-.5.1-.7.3s-.2.5-.2 1v.3h1.4v.8z" class="st2"/>
  <path d="M294 115.5v3.5c0 .4.1.8.3 1s.5.3.9.3c.6 0 1-.2 1.2-.5s.4-.8.4-1.5v-2.8h.8v5.4h-.6l-.1-.7c-.2.3-.4.5-.7.6s-.6.2-1 .2c-.7 0-1.1-.2-1.5-.5s-.5-.8-.5-1.5v-3.5h.8z" class="st2"/>
  <path d="M300.2 120.8h-.8v-7.6h.8v7.6z" class="st2"/>
  <path d="M305.3 120.8h-.8v-7.6h.8v7.6z" class="st2"/>
  <path d="M310.3 120.8l-.2-.8c-.3.3-.5.6-.8.7s-.6.2-1 .2c-.5 0-.9-.1-1.2-.4s-.5-.7-.5-1.2c0-1.1.9-1.6 2.6-1.7h.9v-.3c0-.4-.1-.7-.3-.9s-.5-.3-.9-.3-1 .1-1.5.4l-.2-.6c.3-.1.6-.3.9-.3s.6-.1.9-.1c.6 0 1.1.1 1.4.4s.5.7.5 1.4v3.7h-.6zm-1.8-.6c.5 0 .9-.1 1.2-.4s.4-.7.4-1.2v-.5h-.8c-.6 0-1.1.1-1.4.3s-.4.5-.4.8c0 .3.1.5.3.7s.4.3.7.3z" class="st2"/>
  <path d="M316.3 120.8v-3.5c0-.4-.1-.8-.3-1s-.5-.3-.9-.3c-.6 0-1 .2-1.2.5s-.4.8-.4 1.5v2.8h-.8v-5.4h.7l.1.7c.2-.3.4-.5.7-.6s.6-.2 1-.2c.6 0 1.1.2 1.5.5s.5.8.5 1.5v3.5h-.9z" class="st2"/>
  <path d="M323.1 115.5v.5l-1 .1c.1.1.2.3.2.4s.1.4.1.6c0 .5-.2.9-.5 1.3s-.8.5-1.5.5h-.4c-.3.2-.5.4-.5.7 0 .1.1.3.2.3s.3.1.6.1h.9c.6 0 1 .1 1.3.4s.5.6.5 1.1c0 .6-.2 1-.7 1.4s-1.2.5-2.1.5c-.7 0-1.2-.1-1.6-.4s-.6-.6-.6-1.1c0-.3.1-.6.3-.8s.5-.4.9-.5c-.1-.1-.3-.2-.3-.3s-.1-.3-.1-.5.1-.4.2-.5.3-.3.5-.4c-.3-.1-.5-.3-.7-.6s-.3-.6-.3-.9c0-.6.2-1 .5-1.4s.8-.5 1.5-.5c.3 0 .5 0 .8.1h1.8zm-4.3 6.2c0 .3.1.5.4.7s.6.2 1 .2c.7 0 1.2-.1 1.5-.3s.5-.5.5-.8c0-.3-.1-.5-.3-.6s-.5-.2-1-.2h-1c-.4 0-.7.1-.9.3s-.2.4-.2.7zm.5-4.5c0 .4.1.7.3.8s.5.3.9.3c.8 0 1.2-.4 1.2-1.2 0-.8-.4-1.2-1.2-1.2-.4 0-.7.1-.9.3s-.3.6-.3 1z" class="st2"/>
  <path d="M325 115.5v3.5c0 .4.1.8.3 1s.5.3.9.3c.6 0 1-.2 1.2-.5s.4-.8.4-1.5v-2.8h.8v5.4h-.6l-.1-.7c-.2.3-.4.5-.7.6s-.6.2-1 .2c-.7 0-1.1-.2-1.5-.5s-.5-.8-.5-1.5v-3.5h.8z" class="st2"/>
  <path d="M333.6 120.8l-.2-.8c-.3.3-.5.6-.8.7s-.6.2-1 .2c-.5 0-.9-.1-1.2-.4s-.5-.7-.5-1.2c0-1.1.9-1.6 2.6-1.7h.9v-.3c0-.4-.1-.7-.3-.9s-.5-.3-.9-.3-1 .1-1.5.4l-.2-.6c.3-.1.6-.3.9-.3s.6-.1.9-.1c.6 0 1.1.1 1.4.4s.5.7.5 1.4v3.7h-.6zm-1.8-.6c.5 0 .9-.1 1.2-.4s.4-.7.4-1.2v-.5h-.8c-.6 0-1.1.1-1.4.3s-.4.5-.4.8c0 .3.1.5.3.7s.4.3.7.3z" class="st2"/>
  <path d="M340.3 115.5v.5l-1 .1c.1.1.2.3.2.4s.1.4.1.6c0 .5-.2.9-.5 1.3s-.8.5-1.5.5h-.4c-.3.2-.5.4-.5.7 0 .1.1.3.2.3s.3.1.6.1h.9c.6 0 1 .1 1.3.4s.5.6.5 1.1c0 .6-.2 1-.7 1.4s-1.2.5-2.1.5c-.7 0-1.2-.1-1.6-.4s-.6-.6-.6-1.1c0-.3.1-.6.3-.8s.5-.4.9-.5c-.1-.1-.3-.2-.3-.3s-.1-.3-.1-.5.1-.4.2-.5.3-.3.5-.4c-.3-.1-.5-.3-.7-.6s-.3-.6-.3-.9c0-.6.2-1 .5-1.4s.8-.5 1.5-.5c.3 0 .5 0 .8.1h1.8zm-4.3 6.2c0 .3.1.5.4.7s.6.2 1 .2c.7 0 1.2-.1 1.5-.3s.5-.5.5-.8c0-.3-.1-.5-.3-.6s-.5-.2-1-.2h-1c-.4 0-.7.1-.9.3s-.2.4-.2.7zm.5-4.5c0 .4.1.7.3.8s.5.3.9.3c.8 0 1.2-.4 1.2-1.2 0-.8-.4-1.2-1.2-1.2-.4 0-.7.1-.9.3s-.3.6-.3 1z" class="st2"/>
  <path d="M343.7 120.9c-.8 0-1.4-.2-1.9-.7s-.7-1.2-.7-2c0-.9.2-1.5.6-2.1s1-.8 1.7-.8 1.2.2 1.6.7.6 1 .6 1.7v.5h-3.7c0 .6.2 1.1.5 1.4s.7.5 1.3.5c.6 0 1.1-.1 1.7-.4v.7c-.3.1-.6.2-.8.3s-.6.2-.9.2zm-.3-4.9c-.4 0-.8.1-1 .4s-.4.7-.5 1.2h2.8c0-.5-.1-.9-.3-1.2s-.5-.4-1-.4z" class="st2"/>
  <path d="M346.9 120.3c0-.2 0-.4.1-.5s.2-.2.4-.2.3.1.4.2.2.3.2.5-.1.4-.2.5-.3.2-.4.2c-.2 0-.3-.1-.4-.2s-.1-.3-.1-.5z" class="st2"/>
  <path d="M165.4 193.2h246.9v26.1H165.4z" class="st4"/>
  <path d="M170.4 198.9c0 .6-.2 1.1-.7 1.5s-1.1.5-1.9.5c-.8 0-1.5-.1-2-.3v-.8c.3.1.6.2 1 .3s.7.1 1 .1c.6 0 1-.1 1.2-.3s.4-.5.4-.9c0-.2 0-.5-.1-.6s-.3-.3-.5-.4-.6-.3-1.1-.5c-.7-.2-1.1-.5-1.4-.8s-.4-.8-.4-1.3c0-.6.2-1 .6-1.3s1-.5 1.6-.5c.7 0 1.4.1 2 .4l-.3.7c-.6-.2-1.2-.4-1.7-.4-.4 0-.8.1-1 .3s-.4.5-.4.8c0 .2 0 .5.1.6s.2.3.5.4.5.3 1 .4c.7.3 1.3.6 1.5.9s.6.7.6 1.2z" class="st2"/>
  <path d="M173.5 200.3h.4s.2 0 .3-.1v.6c-.1 0-.2.1-.4.1h-.5c-1 0-1.6-.5-1.6-1.6v-3.2h-.8v-.4l.8-.3.3-1.1h.5v1.2h1.6v.6h-1.6v3.1c0 .3.1.6.2.7s.5.4.8.4z" class="st2"/>
  <path d="M178.6 200.8l-.2-.8c-.3.3-.5.6-.8.7s-.6.2-1 .2c-.5 0-.9-.1-1.2-.4s-.5-.7-.5-1.2c0-1.1.9-1.6 2.6-1.7h.9v-.3c0-.4-.1-.7-.3-.9s-.5-.3-.9-.3-1 .1-1.5.4l-.2-.6c.3-.1.6-.3.9-.3s.6-.1.9-.1c.6 0 1.1.1 1.4.4s.5.7.5 1.4v3.7h-.6zm-1.8-.5c.5 0 .9-.1 1.2-.4s.4-.7.4-1.2v-.5h-.8c-.6 0-1.1.1-1.4.3s-.4.5-.4.8c0 .3.1.5.3.7s.3.3.7.3z" class="st2"/>
  <path d="M180 195.5h.9l1.2 3.1c.3.7.4 1.2.5 1.5 0-.2.1-.5.3-.9s.6-1.6 1.3-3.7h.9l-2.3 6.1c-.2.6-.5 1-.8 1.3s-.7.4-1.1.4c-.2 0-.5 0-.7-.1v-.6c.2 0 .4.1.6.1.6 0 1-.3 1.2-.9l.3-.8-2.3-5.5z" class="st2"/>
  <path d="M193.1 198.1c0 .9-.2 1.6-.7 2s-1 .7-1.8.7c-.5 0-.9-.1-1.3-.3s-.7-.5-.9-1-.3-.9-.3-1.5c0-.9.2-1.6.7-2s1-.7 1.8-.7c.7 0 1.3.2 1.8.7s.7 1.3.7 2.1zm-4.1 0c0 .7.1 1.2.4 1.6s.7.5 1.2.5.9-.2 1.2-.5.4-.9.4-1.6c0-.7-.1-1.2-.4-1.6s-.7-.5-1.2-.5-.9.2-1.2.5-.4 1-.4 1.6z" class="st2"/>
  <path d="M198.2 200.8v-3.5c0-.4-.1-.8-.3-1s-.5-.3-.9-.3c-.6 0-1 .2-1.2.5s-.4.8-.4 1.5v2.8h-.8v-5.4h.7l.1.7c.2-.3.4-.5.7-.6s.6-.2 1-.2c.6 0 1.1.2 1.5.5s.5.8.5 1.5v3.5h-.9z" class="st2"/>
  <path d="M205 200.3h.4s.2 0 .3-.1v.6c-.1 0-.2.1-.4.1h-.5c-1 0-1.6-.5-1.6-1.6v-3.2h-.8v-.4l.8-.3.3-1.1h.5v1.2h1.6v.6H204v3.1c0 .3.1.6.2.7s.5.4.8.4z" class="st2"/>
  <path d="M209.2 195.4c.2 0 .5 0 .6.1l-.1.8c-.2 0-.4-.1-.6-.1-.4 0-.8.2-1.1.5s-.5.8-.5 1.3v2.9h-.8v-5.4h.7l.1 1c.2-.3.4-.6.7-.8s.7-.3 1-.3z" class="st2"/>
  <path d="M214.2 200.8l-.2-.8c-.3.3-.5.6-.8.7s-.6.2-1 .2c-.5 0-.9-.1-1.2-.4s-.5-.7-.5-1.2c0-1.1.9-1.6 2.6-1.7h.9v-.3c0-.4-.1-.7-.3-.9s-.5-.3-.9-.3-1 .1-1.5.4l-.2-.6c.3-.1.6-.3.9-.3s.6-.1.9-.1c.6 0 1.1.1 1.4.4s.5.7.5 1.4v3.7h-.6zm-1.9-.5c.5 0 .9-.1 1.2-.4s.4-.7.4-1.2v-.5h-.8c-.6 0-1.1.1-1.4.3s-.4.5-.4.8c0 .3.1.5.3.7s.4.3.7.3z" class="st2"/>
  <path d="M218.6 200.9c-.8 0-1.4-.2-1.8-.7s-.6-1.2-.6-2c0-.9.2-1.6.6-2.1s1-.7 1.8-.7c.3 0 .5 0 .8.1s.5.1.6.2l-.2.7c-.2-.1-.4-.1-.6-.2s-.4-.1-.6-.1c-1.1 0-1.6.7-1.6 2.1 0 .7.1 1.2.4 1.5s.7.5 1.2.5c.4 0 .9-.1 1.4-.3v.7c-.4.2-.9.3-1.4.3z" class="st2"/>
  <path d="M222 198.1c.1-.2.4-.5.6-.8l1.7-1.8h1l-2.2 2.3 2.3 3.1h-1l-1.9-2.5-.6.5v2h-.8v-7.6h.8v4c.1.1.1.4.1.8z" class="st2"/>
  <path d="M231.5 195.4c.7 0 1.2.2 1.6.7s.6 1.2.6 2-.2 1.6-.6 2-.9.7-1.6.7c-.3 0-.7-.1-1-.2s-.5-.3-.7-.6h-.1l-.2.7h-.6v-7.6h.8v2.9c.5-.4 1.1-.6 1.8-.6zm-.1.7c-.6 0-1 .2-1.2.5s-.4.9-.4 1.6.1 1.3.4 1.6.7.5 1.2.5.9-.2 1.1-.5.4-.9.4-1.6c0-.7-.1-1.2-.4-1.6s-.6-.5-1.1-.5z" class="st2"/>
  <path d="M234.3 195.5h.9l1.2 3.1c.3.7.4 1.2.5 1.5 0-.2.1-.5.3-.9s.6-1.6 1.3-3.7h.9l-2.3 6.1c-.2.6-.5 1-.8 1.3s-.7.4-1.1.4c-.2 0-.5 0-.7-.1v-.6c.2 0 .4.1.6.1.6 0 1-.3 1.2-.9l.3-.8-2.3-5.5z" class="st2"/>
  <path d="M247.2 200.8l-1-3.1c-.1-.2-.2-.6-.3-1.3-.1.6-.2 1-.3 1.3l-1 3.1h-.9l-1.5-5.4h.8c.3 1.3.6 2.4.8 3.1s.3 1.2.3 1.4c0-.2.1-.4.2-.7s.1-.5.2-.7l1-3.1h.9l1 3.1c.2.6.3 1 .4 1.4 0-.1 0-.3.1-.5s.4-1.6 1-3.9h.8l-1.5 5.4h-1z" class="st2"/>
  <path d="M253 195.4c.2 0 .5 0 .6.1l-.1.8c-.2 0-.4-.1-.6-.1-.4 0-.8.2-1.1.5s-.5.8-.5 1.3v2.9h-.8v-5.4h.7l.1 1c.2-.3.4-.6.7-.8s.7-.3 1-.3z" class="st2"/>
  <path d="M254.6 194c0-.2 0-.3.1-.4s.2-.1.3-.1c.1 0 .2 0 .3.1s.1.2.1.4 0 .3-.1.4-.2.1-.3.1c-.1 0-.3 0-.3-.1s-.1-.2-.1-.4zm.9 6.8h-.8v-5.4h.8v5.4z" class="st2"/>
  <path d="M258.9 200.3h.4s.2 0 .3-.1v.6c-.1 0-.2.1-.4.1h-.5c-1 0-1.6-.5-1.6-1.6v-3.2h-.8v-.4l.8-.3.3-1.1h.5v1.2h1.6v.6h-1.6v3.1c0 .3.1.6.2.7s.6.4.8.4z" class="st2"/>
  <path d="M260.7 194c0-.2 0-.3.1-.4s.2-.1.3-.1c.1 0 .2 0 .3.1s.1.2.1.4 0 .3-.1.4-.2.1-.3.1c-.1 0-.3 0-.3-.1s-.1-.2-.1-.4zm.8 6.8h-.8v-5.4h.8v5.4z" class="st2"/>
  <path d="M266.9 200.8v-3.5c0-.4-.1-.8-.3-1s-.5-.3-.9-.3c-.6 0-1 .2-1.2.5s-.4.8-.4 1.5v2.8h-.8v-5.4h.7l.1.7c.2-.3.4-.5.7-.6s.6-.2 1-.2c.6 0 1.1.2 1.5.5s.5.8.5 1.5v3.5h-.9z" class="st2"/>
  <path d="M273.8 195.5v.5l-1 .1c.1.1.2.3.2.4s.1.4.1.6c0 .5-.2.9-.5 1.3s-.8.5-1.5.5h-.4c-.3.2-.5.4-.5.7 0 .1.1.3.2.3s.3.1.6.1h.9c.6 0 1 .1 1.3.4s.5.6.5 1.1c0 .6-.2 1-.7 1.4s-1.2.5-2.1.5c-.7 0-1.2-.1-1.6-.4s-.6-.6-.6-1.1c0-.3.1-.6.3-.8s.5-.4.9-.5c-.1-.1-.3-.2-.3-.3s-.1-.3-.1-.5.1-.4.2-.5.3-.3.5-.4c-.3-.1-.5-.3-.7-.6s-.3-.6-.3-.9c0-.6.2-1 .5-1.4s.8-.5 1.5-.5c.3 0 .5 0 .8.1h1.8zm-4.3 6.2c0 .3.1.5.4.7s.6.2 1 .2c.7 0 1.2-.1 1.5-.3s.5-.5.5-.8c0-.3-.1-.5-.3-.6s-.5-.2-1-.2h-1c-.4 0-.7.1-.9.3s-.2.4-.2.7zm.5-4.5c0 .4.1.7.3.8s.5.3.9.3c.8 0 1.2-.4 1.2-1.2 0-.8-.4-1.2-1.2-1.2-.4 0-.7.1-.9.3s-.3.6-.3 1z" class="st2"/>
  <path d="M281.1 200.1c-.4.5-1 .8-1.7.8s-1.2-.2-1.6-.7-.6-1.2-.6-2 .2-1.6.6-2.1.9-.7 1.6-.7c.7 0 1.3.3 1.7.8h.1v-3h.8v7.6h-.7l-.2-.7zm-1.6.1c.6 0 1-.2 1.2-.5s.4-.8.4-1.5v-.2c0-.8-.1-1.3-.4-1.6s-.7-.5-1.2-.5-.8.2-1.1.6-.4.9-.4 1.6c0 .7.1 1.2.4 1.5s.6.6 1.1.6z" class="st2"/>
  <path d="M288.2 198.1c0 .9-.2 1.6-.7 2s-1 .7-1.8.7c-.5 0-.9-.1-1.3-.3s-.7-.5-.9-1-.3-.9-.3-1.5c0-.9.2-1.6.7-2s1-.7 1.8-.7c.7 0 1.3.2 1.8.7s.7 1.3.7 2.1zm-4 0c0 .7.1 1.2.4 1.6s.7.5 1.2.5.9-.2 1.2-.5.4-.9.4-1.6c0-.7-.1-1.2-.4-1.6s-.7-.5-1.2-.5-.9.2-1.2.5-.4 1-.4 1.6z" class="st2"/>
  <path d="M294 200.8l-1-3.1c-.1-.2-.2-.6-.3-1.3-.1.6-.2 1-.3 1.3l-1 3.1h-.9l-1.5-5.4h.8c.3 1.3.6 2.4.8 3.1s.3 1.2.3 1.4c0-.2.1-.4.2-.7s.1-.5.2-.7l1-3.1h.9l1 3.1c.2.6.3 1 .4 1.4 0-.1 0-.3.1-.5s.4-1.6 1-3.9h.8l-1.5 5.4h-1z" class="st2"/>
  <path d="M301.1 200.8v-3.5c0-.4-.1-.8-.3-1s-.5-.3-.9-.3c-.6 0-1 .2-1.2.5s-.4.8-.4 1.5v2.8h-.8v-5.4h.7l.1.7c.2-.3.4-.5.7-.6s.6-.2 1-.2c.6 0 1.1.2 1.5.5s.5.8.5 1.5v3.5h-.9z" class="st2"/>
  <path d="M309.8 200.1c-.4.5-1 .8-1.7.8s-1.2-.2-1.6-.7-.6-1.2-.6-2 .2-1.6.6-2.1.9-.7 1.6-.7c.7 0 1.3.3 1.7.8h.1v-3h.8v7.6h-.7l-.2-.7zm-1.6.1c.6 0 1-.2 1.2-.5s.4-.8.4-1.5v-.2c0-.8-.1-1.3-.4-1.6s-.7-.5-1.2-.5-.8.2-1.1.6-.4.9-.4 1.6c0 .7.1 1.2.4 1.5s.6.6 1.1.6z" class="st2"/>
  <path d="M312.2 194c0-.2 0-.3.1-.4s.2-.1.3-.1c.1 0 .2 0 .3.1s.1.2.1.4 0 .3-.1.4-.2.1-.3.1c-.1 0-.3 0-.3-.1s-.1-.2-.1-.4zm.9 6.8h-.8v-5.4h.8v5.4z" class="st2"/>
  <path d="M317.3 195.4c.2 0 .5 0 .6.1l-.1.8c-.2 0-.4-.1-.6-.1-.4 0-.8.2-1.1.5s-.5.8-.5 1.3v2.9h-.8v-5.4h.7l.1 1c.2-.3.4-.6.7-.8s.6-.3 1-.3z" class="st2"/>
  <path d="M321.2 200.9c-.8 0-1.4-.2-1.9-.7s-.7-1.2-.7-2c0-.9.2-1.5.6-2.1s1-.8 1.7-.8 1.2.2 1.6.7.6 1 .6 1.7v.5h-3.7c0 .6.2 1.1.5 1.4s.7.5 1.3.5c.6 0 1.1-.1 1.7-.4v.7c-.3.1-.6.2-.8.3s-.6.2-.9.2zm-.3-4.8c-.4 0-.8.1-1 .4s-.4.7-.5 1.2h2.8c0-.5-.1-.9-.3-1.2s-.5-.4-1-.4z" class="st2"/>
  <path d="M326.7 200.9c-.8 0-1.4-.2-1.8-.7s-.6-1.2-.6-2c0-.9.2-1.6.6-2.1s1-.7 1.8-.7c.3 0 .5 0 .8.1s.5.1.6.2l-.2.7c-.2-.1-.4-.1-.6-.2s-.4-.1-.6-.1c-1.1 0-1.6.7-1.6 2.1 0 .7.1 1.2.4 1.5s.7.5 1.2.5c.4 0 .9-.1 1.4-.3v.7c-.5.2-.9.3-1.4.3z" class="st2"/>
  <path d="M331 200.3h.4s.2 0 .3-.1v.6c-.1 0-.2.1-.4.1h-.5c-1 0-1.6-.5-1.6-1.6v-3.2h-.8v-.4l.8-.3.3-1.1h.5v1.2h1.6v.6H330v3.1c0 .3.1.6.2.7s.5.4.8.4z" class="st2"/>
  <path d="M332.7 194c0-.2 0-.3.1-.4s.2-.1.3-.1c.1 0 .2 0 .3.1s.1.2.1.4 0 .3-.1.4-.2.1-.3.1c-.1 0-.3 0-.3-.1s-.1-.2-.1-.4zm.9 6.8h-.8v-5.4h.8v5.4z" class="st2"/>
  <path d="M340 198.1c0 .9-.2 1.6-.7 2s-1 .7-1.8.7c-.5 0-.9-.1-1.3-.3s-.7-.5-.9-1-.3-.9-.3-1.5c0-.9.2-1.6.7-2s1-.7 1.8-.7c.7 0 1.3.2 1.8.7s.7 1.3.7 2.1zm-4.1 0c0 .7.1 1.2.4 1.6s.7.5 1.2.5.9-.2 1.2-.5.4-.9.4-1.6c0-.7-.1-1.2-.4-1.6s-.7-.5-1.2-.5-.9.2-1.2.5-.4 1-.4 1.6z" class="st2"/>
  <path d="M345 200.8v-3.5c0-.4-.1-.8-.3-1s-.5-.3-.9-.3c-.6 0-1 .2-1.2.5s-.4.8-.4 1.5v2.8h-.8v-5.4h.7l.1.7c.2-.3.4-.5.7-.6s.6-.2 1-.2c.6 0 1.1.2 1.5.5s.5.8.5 1.5v3.5h-.9z" class="st2"/>
  <path d="M351 199.4c0 .5-.2.9-.6 1.2s-.9.4-1.6.4c-.7 0-1.3-.1-1.7-.3v-.8c.3.1.5.2.8.3s.6.1.9.1c.4 0 .7-.1 1-.2s.3-.3.3-.6c0-.2-.1-.4-.3-.5s-.5-.3-1.1-.5c-.5-.2-.9-.3-1.1-.5s-.4-.3-.5-.5-.2-.4-.2-.6c0-.4.2-.8.5-1s.8-.4 1.5-.4c.6 0 1.1.1 1.7.4l-.3.7c-.5-.2-1-.3-1.5-.3-.4 0-.7.1-.9.2s-.3.3-.3.5c0 .1 0 .3.1.4s.2.2.4.3.5.2.9.4c.6.2 1.1.5 1.3.7s.7.2.7.6z" class="st2"/>
  <path d="M352.2 200.3c0-.2 0-.4.1-.5s.2-.2.4-.2.3.1.4.2.2.3.2.5-.1.4-.2.5-.3.2-.4.2c-.2 0-.3-.1-.4-.2s-.1-.3-.1-.5z" class="st2"/>
  <path d="M161.2 259.8h246.9v26.1H161.2z" class="st4"/>
  <path d="M166.6 267.4l-.9-2.3h-2.9l-.9 2.3h-.8l2.8-7.2h.7l2.8 7.2h-.8zm-1.1-3l-.8-2.2c-.1-.3-.2-.6-.3-1-.1.3-.2.7-.3 1l-.8 2.2h2.2z" class="st2"/>
  <path d="M169.5 267.4l-2-5.4h.9l1.2 3.2c.3.7.4 1.2.5 1.4 0-.2.1-.5.3-1.1s.6-1.7 1.3-3.5h.9l-2 5.4h-1.1z" class="st2"/>
  <path d="M178 264.8c0 .9-.2 1.6-.7 2s-1 .7-1.8.7c-.5 0-.9-.1-1.3-.3s-.7-.5-.9-1-.3-.9-.3-1.5c0-.9.2-1.6.7-2s1-.7 1.8-.7c.7 0 1.3.2 1.8.7s.7 1.2.7 2.1zm-4.1 0c0 .7.1 1.2.4 1.6s.7.5 1.2.5.9-.2 1.2-.5.4-.9.4-1.6c0-.7-.1-1.2-.4-1.6s-.7-.5-1.2-.5-.9.2-1.2.5-.4.9-.4 1.6z" class="st2"/>
  <path d="M179.3 260.6c0-.2 0-.3.1-.4s.2-.1.3-.1c.1 0 .2 0 .3.1s.1.2.1.4 0 .3-.1.4-.2.1-.3.1c-.1 0-.3 0-.3-.1s-.1-.2-.1-.4zm.9 6.8h-.8V262h.8v5.4z" class="st2"/>
  <path d="M185.6 266.7c-.4.5-1 .8-1.7.8s-1.2-.2-1.6-.7-.6-1.2-.6-2 .2-1.6.6-2.1.9-.7 1.6-.7c.7 0 1.3.3 1.7.8h.1v-3h.8v7.6h-.7l-.2-.7zm-1.6.2c.6 0 1-.2 1.2-.5s.4-.8.4-1.5v-.2c0-.8-.1-1.3-.4-1.6s-.7-.5-1.2-.5-.8.2-1.1.6-.4.9-.4 1.6c0 .7.1 1.2.4 1.5s.6.6 1.1.6z" class="st2"/>
  <path d="M195 262.1v.5l-1 .1c.1.1.2.3.2.4s.1.4.1.6c0 .5-.2.9-.5 1.3s-.8.5-1.5.5h-.4c-.3.2-.5.4-.5.7 0 .1.1.3.2.3s.3.1.6.1h.9c.6 0 1 .1 1.3.4s.5.6.5 1.1c0 .6-.2 1-.7 1.4s-1.2.5-2.1.5c-.7 0-1.2-.1-1.6-.4s-.6-.6-.6-1.1c0-.3.1-.6.3-.8s.5-.4.9-.5c-.1-.1-.3-.2-.3-.3s-.1-.3-.1-.5.1-.4.2-.5.3-.3.5-.4c-.3-.1-.5-.3-.7-.6s-.3-.6-.3-.9c0-.6.2-1 .5-1.4s.8-.5 1.5-.5c.3 0 .5 0 .8.1h1.8zm-4.2 6.2c0 .3.1.5.4.7s.6.2 1 .2c.7 0 1.2-.1 1.5-.3s.5-.5.5-.8c0-.3-.1-.5-.3-.6s-.5-.2-1-.2h-1c-.4 0-.7.1-.9.3s-.2.4-.2.7zm.4-4.5c0 .4.1.7.3.8s.5.3.9.3c.8 0 1.2-.4 1.2-1.2 0-.8-.4-1.2-1.2-1.2-.4 0-.7.1-.9.3s-.3.6-.3 1z" class="st2"/>
  <path d="M198.4 267.5c-.8 0-1.4-.2-1.9-.7s-.7-1.2-.7-2c0-.9.2-1.5.6-2.1s1-.8 1.7-.8 1.2.2 1.6.7.6 1 .6 1.7v.5h-3.7c0 .6.2 1.1.5 1.4s.7.5 1.3.5c.6 0 1.1-.1 1.7-.4v.7c-.3.1-.6.2-.8.3s-.5.2-.9.2zm-.2-4.8c-.4 0-.8.1-1 .4s-.4.7-.5 1.2h2.8c0-.5-.1-.9-.3-1.2s-.6-.4-1-.4z" class="st2"/>
  <path d="M203.5 266.9h.4s.2 0 .3-.1v.6c-.1 0-.2.1-.4.1h-.5c-1 0-1.6-.5-1.6-1.6v-3.2h-.7v-.4l.8-.3.3-1.1h.5v1.2h1.6v.6h-1.6v3.1c0 .3.1.6.2.7s.4.4.7.4z" class="st2"/>
  <path d="M207 266.9h.4s.2 0 .3-.1v.6c-.1 0-.2.1-.4.1h-.5c-1 0-1.6-.5-1.6-1.6v-3.2h-.8v-.4l.8-.3.3-1.1h.5v1.2h1.6v.6H206v3.1c0 .3.1.6.2.7s.5.4.8.4z" class="st2"/>
  <path d="M208.8 260.6c0-.2 0-.3.1-.4s.2-.1.3-.1c.1 0 .2 0 .3.1s.1.2.1.4 0 .3-.1.4-.2.1-.3.1c-.1 0-.3 0-.3-.1s-.1-.2-.1-.4zm.8 6.8h-.8V262h.8v5.4z" class="st2"/>
  <path d="M215 267.4V264c0-.4-.1-.8-.3-1s-.5-.3-.9-.3c-.6 0-1 .2-1.2.5s-.4.8-.4 1.5v2.8h-.8v-5.4h.7l.1.7c.2-.3.4-.5.7-.6s.6-.2 1-.2c.6 0 1.1.2 1.5.5s.5.8.5 1.5v3.5h-.9z" class="st2"/>
  <path d="M221.9 262.1v.5l-1 .1c.1.1.2.3.2.4s.1.4.1.6c0 .5-.2.9-.5 1.3s-.8.5-1.5.5h-.4c-.3.2-.5.4-.5.7 0 .1.1.3.2.3s.3.1.6.1h.9c.6 0 1 .1 1.3.4s.5.6.5 1.1c0 .6-.2 1-.7 1.4s-1.2.5-2.1.5c-.7 0-1.2-.1-1.6-.4s-.6-.6-.6-1.1c0-.3.1-.6.3-.8s.5-.4.9-.5c-.1-.1-.3-.2-.3-.3s-.1-.3-.1-.5.1-.4.2-.5.3-.3.5-.4c-.3-.1-.5-.3-.7-.6s-.3-.6-.3-.9c0-.6.2-1 .5-1.4s.8-.5 1.5-.5c.3 0 .5 0 .8.1h1.8zm-4.3 6.2c0 .3.1.5.4.7s.6.2 1 .2c.7 0 1.2-.1 1.5-.3s.5-.5.5-.8c0-.3-.1-.5-.3-.6s-.5-.2-1-.2h-1c-.4 0-.7.1-.9.3s-.2.4-.2.7zm.4-4.5c0 .4.1.7.3.8s.5.3.9.3c.8 0 1.2-.4 1.2-1.2 0-.8-.4-1.2-1.2-1.2-.4 0-.7.1-.9.3s-.3.6-.3 1z" class="st2"/>
  <path d="M228.1 262c.7 0 1.2.2 1.6.7s.6 1.2.6 2-.2 1.6-.6 2-.9.7-1.6.7c-.3 0-.7-.1-1-.2s-.5-.3-.7-.6h-.1l-.2.7h-.6v-7.6h.8v2.9c.4-.3 1-.6 1.8-.6zm-.2.7c-.6 0-1 .2-1.2.5s-.4.9-.4 1.6.1 1.3.4 1.6.7.5 1.2.5.9-.2 1.1-.5.4-.9.4-1.6c0-.7-.1-1.2-.4-1.6s-.6-.5-1.1-.5z" class="st2"/>
  <path d="M236.3 264.8c0 .9-.2 1.6-.7 2s-1 .7-1.8.7c-.5 0-.9-.1-1.3-.3s-.7-.5-.9-1-.3-.9-.3-1.5c0-.9.2-1.6.7-2s1-.7 1.8-.7c.7 0 1.3.2 1.8.7s.7 1.2.7 2.1zm-4.1 0c0 .7.1 1.2.4 1.6s.7.5 1.2.5.9-.2 1.2-.5.4-.9.4-1.6c0-.7-.1-1.2-.4-1.6s-.7-.5-1.2-.5-.9.2-1.2.5-.4.9-.4 1.6z" class="st2"/>
  <path d="M242.1 262.1v.5l-1 .1c.1.1.2.3.2.4s.1.4.1.6c0 .5-.2.9-.5 1.3s-.8.5-1.5.5h-.4c-.3.2-.5.4-.5.7 0 .1.1.3.2.3s.3.1.6.1h.9c.6 0 1 .1 1.3.4s.5.6.5 1.1c0 .6-.2 1-.7 1.4s-1.2.5-2.1.5c-.7 0-1.2-.1-1.6-.4s-.6-.6-.6-1.1c0-.3.1-.6.3-.8s.5-.4.9-.5c-.1-.1-.3-.2-.3-.3s-.1-.3-.1-.5.1-.4.2-.5.3-.3.5-.4c-.3-.1-.5-.3-.7-.6s-.3-.6-.3-.9c0-.6.2-1 .5-1.4s.8-.5 1.5-.5c.3 0 .5 0 .8.1h1.8zm-4.3 6.2c0 .3.1.5.4.7s.6.2 1 .2c.7 0 1.2-.1 1.5-.3s.5-.5.5-.8c0-.3-.1-.5-.3-.6s-.5-.2-1-.2h-1c-.4 0-.7.1-.9.3s-.2.4-.2.7zm.5-4.5c0 .4.1.7.3.8s.5.3.9.3c.8 0 1.2-.4 1.2-1.2 0-.8-.4-1.2-1.2-1.2-.4 0-.7.1-.9.3s-.3.6-.3 1z" class="st2"/>
  <path d="M247.6 262.1v.5l-1 .1c.1.1.2.3.2.4s.1.4.1.6c0 .5-.2.9-.5 1.3s-.8.5-1.5.5h-.4c-.3.2-.5.4-.5.7 0 .1.1.3.2.3s.3.1.6.1h.9c.6 0 1 .1 1.3.4s.5.6.5 1.1c0 .6-.2 1-.7 1.4s-1.2.5-2.1.5c-.7 0-1.2-.1-1.6-.4s-.6-.6-.6-1.1c0-.3.1-.6.3-.8s.5-.4.9-.5c-.1-.1-.3-.2-.3-.3s-.1-.3-.1-.5.1-.4.2-.5.3-.3.5-.4c-.3-.1-.5-.3-.7-.6s-.3-.6-.3-.9c0-.6.2-1 .5-1.4s.8-.5 1.5-.5c.3 0 .5 0 .8.1h1.8zm-4.3 6.2c0 .3.1.5.4.7s.6.2 1 .2c.7 0 1.2-.1 1.5-.3s.5-.5.5-.8c0-.3-.1-.5-.3-.6s-.5-.2-1-.2h-1c-.4 0-.7.1-.9.3s-.2.4-.2.7zm.5-4.5c0 .4.1.7.3.8s.5.3.9.3c.8 0 1.2-.4 1.2-1.2 0-.8-.4-1.2-1.2-1.2-.4 0-.7.1-.9.3s-.3.6-.3 1z" class="st2"/>
  <path d="M250.9 267.5c-.8 0-1.4-.2-1.9-.7s-.7-1.2-.7-2c0-.9.2-1.5.6-2.1s1-.8 1.7-.8 1.2.2 1.6.7.6 1 .6 1.7v.5h-3.7c0 .6.2 1.1.5 1.4s.7.5 1.3.5c.6 0 1.1-.1 1.7-.4v.7c-.3.1-.6.2-.8.3s-.5.2-.9.2zm-.2-4.8c-.4 0-.8.1-1 .4s-.4.7-.5 1.2h2.8c0-.5-.1-.9-.3-1.2s-.5-.4-1-.4z" class="st2"/>
  <path d="M257.9 266.7c-.4.5-1 .8-1.7.8s-1.2-.2-1.6-.7-.6-1.2-.6-2 .2-1.6.6-2.1.9-.7 1.6-.7c.7 0 1.3.3 1.7.8h.1v-3h.8v7.6h-.8l-.1-.7zm-1.6.2c.6 0 1-.2 1.2-.5s.4-.8.4-1.5v-.2c0-.8-.1-1.3-.4-1.6s-.7-.5-1.2-.5-.8.2-1.1.6-.4.9-.4 1.6c0 .7.1 1.2.4 1.5s.6.6 1.1.6z" class="st2"/>
  <path d="M266.7 266.7c-.4.5-1 .8-1.7.8s-1.2-.2-1.6-.7-.6-1.2-.6-2 .2-1.6.6-2.1.9-.7 1.6-.7c.7 0 1.3.3 1.7.8h.1v-3h.8v7.6h-.7l-.2-.7zm-1.7.2c.6 0 1-.2 1.2-.5s.4-.8.4-1.5v-.2c0-.8-.1-1.3-.4-1.6s-.7-.5-1.2-.5-.8.2-1.1.6-.4.9-.4 1.6c0 .7.1 1.2.4 1.5s.7.6 1.1.6z" class="st2"/>
  <path d="M273.8 264.8c0 .9-.2 1.6-.7 2s-1 .7-1.8.7c-.5 0-.9-.1-1.3-.3s-.7-.5-.9-1-.3-.9-.3-1.5c0-.9.2-1.6.7-2s1-.7 1.8-.7c.7 0 1.3.2 1.8.7s.7 1.2.7 2.1zm-4.1 0c0 .7.1 1.2.4 1.6s.7.5 1.2.5.9-.2 1.2-.5.4-.9.4-1.6c0-.7-.1-1.2-.4-1.6s-.7-.5-1.2-.5-.9.2-1.2.5-.4.9-.4 1.6z" class="st2"/>
  <path d="M279.6 267.4l-1-3.1c-.1-.2-.2-.6-.3-1.3-.1.6-.2 1-.3 1.3l-1 3.1h-.9l-1.5-5.4h.8c.3 1.3.6 2.4.8 3.1s.3 1.2.3 1.4c0-.2.1-.4.2-.7s.1-.5.2-.7l1-3.1h.9l1 3.1c.2.6.3 1 .4 1.4 0-.1 0-.3.1-.5s.4-1.6 1-3.9h.8l-1.5 5.4h-1z" class="st2"/>
  <path d="M286.6 267.4V264c0-.4-.1-.8-.3-1s-.5-.3-.9-.3c-.6 0-1 .2-1.2.5s-.4.8-.4 1.5v2.8h-.8v-5.4h.7l.1.7c.2-.3.4-.5.7-.6s.6-.2 1-.2c.6 0 1.1.2 1.5.5s.5.8.5 1.5v3.5h-.9z" class="st2"/>
  <path d="M294.2 262c.7 0 1.2.2 1.6.7s.6 1.2.6 2-.2 1.6-.6 2-.9.7-1.6.7c-.3 0-.7-.1-1-.2s-.5-.3-.7-.6h-.1l-.2.7h-.6v-7.6h.8v2.9c.5-.3 1.1-.6 1.8-.6zm-.1.7c-.6 0-1 .2-1.2.5s-.4.9-.4 1.6.1 1.3.4 1.6.7.5 1.2.5.9-.2 1.1-.5.4-.9.4-1.6c0-.7-.1-1.2-.4-1.6s-.6-.5-1.1-.5z" class="st2"/>
  <path d="M297 262.1h.9l1.2 3.1c.3.7.4 1.2.5 1.5 0-.2.1-.5.3-.9s.6-1.6 1.3-3.7h.9l-2.3 6.1c-.2.6-.5 1-.8 1.3s-.7.4-1.1.4c-.2 0-.5 0-.7-.1v-.6c.2 0 .4.1.6.1.6 0 1-.3 1.2-.9l.3-.8-2.3-5.5z" class="st2"/>
  <path d="M307.2 266.9h.4s.2 0 .3-.1v.6c-.1 0-.2.1-.4.1h-.5c-1 0-1.6-.5-1.6-1.6v-3.2h-.8v-.4l.8-.3.3-1.1h.5v1.2h1.6v.6h-1.6v3.1c0 .3.1.6.2.7s.5.4.8.4z" class="st2"/>
  <path d="M312.7 267.4V264c0-.4-.1-.8-.3-1s-.5-.3-.9-.3c-.6 0-1 .2-1.2.5s-.4.8-.4 1.5v2.8h-.9v-7.6h.8v3c.2-.3.4-.5.7-.6s.6-.2 1-.2c.7 0 1.1.2 1.5.5s.5.8.5 1.5v3.5h-.8z" class="st2"/>
  <path d="M315.1 260.6c0-.2 0-.3.1-.4s.2-.1.3-.1c.1 0 .2 0 .3.1s.1.2.1.4 0 .3-.1.4-.2.1-.3.1c-.1 0-.3 0-.3-.1s-.1-.2-.1-.4zm.8 6.8h-.8V262h.8v5.4z" class="st2"/>
  <path d="M321.3 267.4V264c0-.4-.1-.8-.3-1s-.5-.3-.9-.3c-.6 0-1 .2-1.2.5s-.4.8-.4 1.5v2.8h-.8v-5.4h.7l.1.7c.2-.3.4-.5.7-.6s.6-.2 1-.2c.6 0 1.1.2 1.5.5s.5.8.5 1.5v3.5h-.9z" class="st2"/>
  <path d="M324.6 264.7c.1-.2.4-.5.6-.8l1.7-1.8h1l-2.2 2.3 2.3 3.1h-1l-1.9-2.5-.6.5v2h-.8v-7.6h.8v4c.1.2.1.4.1.8z" class="st2"/>
  <path d="M329 260.6c0-.2 0-.3.1-.4s.2-.1.3-.1c.1 0 .2 0 .3.1s.1.2.1.4 0 .3-.1.4-.2.1-.3.1c-.1 0-.3 0-.3-.1s-.1-.2-.1-.4zm.9 6.8h-.8V262h.8v5.4z" class="st2"/>
  <path d="M335.2 267.4V264c0-.4-.1-.8-.3-1s-.5-.3-.9-.3c-.6 0-1 .2-1.2.5s-.4.8-.4 1.5v2.8h-.8v-5.4h.7l.1.7c.2-.3.4-.5.7-.6s.6-.2 1-.2c.6 0 1.1.2 1.5.5s.5.8.5 1.5v3.5h-.9z" class="st2"/>
  <path d="M342.1 262.1v.5l-1 .1c.1.1.2.3.2.4s.1.4.1.6c0 .5-.2.9-.5 1.3s-.8.5-1.5.5h-.4c-.3.2-.5.4-.5.7 0 .1.1.3.2.3s.3.1.6.1h.9c.6 0 1 .1 1.3.4s.5.6.5 1.1c0 .6-.2 1-.7 1.4s-1.2.5-2.1.5c-.7 0-1.2-.1-1.6-.4s-.6-.6-.6-1.1c0-.3.1-.6.3-.8s.5-.4.9-.5c-.1-.1-.3-.2-.3-.3s-.1-.3-.1-.5.1-.4.2-.5.3-.3.5-.4c-.3-.1-.5-.3-.7-.6s-.3-.6-.3-.9c0-.6.2-1 .5-1.4s.8-.5 1.5-.5c.3 0 .5 0 .8.1h1.8zm-4.3 6.2c0 .3.1.5.4.7s.6.2 1 .2c.7 0 1.2-.1 1.5-.3s.5-.5.5-.8c0-.3-.1-.5-.3-.6s-.5-.2-1-.2h-1c-.4 0-.7.1-.9.3s-.2.4-.2.7zm.5-4.5c0 .4.1.7.3.8s.5.3.9.3c.8 0 1.2-.4 1.2-1.2 0-.8-.4-1.2-1.2-1.2-.4 0-.7.1-.9.3s-.3.6-.3 1z" class="st2"/>
  <path d="M350.4 264.8c0 .9-.2 1.6-.7 2s-1 .7-1.8.7c-.5 0-.9-.1-1.3-.3s-.7-.5-.9-1-.3-.9-.3-1.5c0-.9.2-1.6.7-2s1-.7 1.8-.7c.7 0 1.3.2 1.8.7s.7 1.2.7 2.1zm-4.1 0c0 .7.1 1.2.4 1.6s.7.5 1.2.5.9-.2 1.2-.5.4-.9.4-1.6c0-.7-.1-1.2-.4-1.6s-.7-.5-1.2-.5-.9.2-1.2.5-.4.9-.4 1.6z" class="st2"/>
  <path d="M354.2 262.7h-1.4v4.7h-.8v-4.7h-1v-.4l1-.3v-.3c0-1.3.6-2 1.7-2 .3 0 .6.1 1 .2l-.2.6c-.3-.1-.6-.2-.8-.2-.3 0-.5.1-.7.3s-.2.5-.2 1v.3h1.4v.8z" class="st2"/>
  <path d="M361.1 267.4l-.2-.8c-.3.3-.5.6-.8.7s-.6.2-1 .2c-.5 0-.9-.1-1.2-.4s-.5-.7-.5-1.2c0-1.1.9-1.6 2.6-1.7h.9v-.3c0-.4-.1-.7-.3-.9s-.5-.3-.9-.3-1 .1-1.5.4l-.2-.6c.3-.1.6-.3.9-.3s.6-.1.9-.1c.6 0 1.1.1 1.4.4s.5.7.5 1.4v3.7h-.6zm-1.8-.5c.5 0 .9-.1 1.2-.4s.4-.7.4-1.2v-.5h-.8c-.6 0-1.1.1-1.4.3s-.4.5-.4.8c0 .3.1.5.3.7s.4.3.7.3z" class="st2"/>
  <path d="M364.2 267.4h-.8v-7.6h.8v7.6z" class="st2"/>
  <path d="M366.7 267.4h-.8v-7.6h.8v7.6z" class="st2"/>
  <path d="M372.8 266.9h.4s.2 0 .3-.1v.6c-.1 0-.2.1-.4.1h-.5c-1 0-1.6-.5-1.6-1.6v-3.2h-.8v-.4l.8-.3.3-1.1h.5v1.2h1.6v.6h-1.6v3.1c0 .3.1.6.2.7s.5.4.8.4z" class="st2"/>
  <path d="M378.2 267.4V264c0-.4-.1-.8-.3-1s-.5-.3-.9-.3c-.6 0-1 .2-1.2.5s-.4.8-.4 1.5v2.8h-.8v-7.6h.8v3c.2-.3.4-.5.7-.6s.6-.2 1-.2c.7 0 1.1.2 1.5.5s.5.8.5 1.5v3.5h-.9z" class="st2"/>
  <path d="M383 267.5c-.8 0-1.4-.2-1.9-.7s-.7-1.2-.7-2c0-.9.2-1.5.6-2.1s1-.8 1.7-.8 1.2.2 1.6.7.6 1 .6 1.7v.5h-3.7c0 .6.2 1.1.5 1.4s.7.5 1.3.5c.6 0 1.1-.1 1.7-.4v.7c-.3.1-.6.2-.8.3s-.6.2-.9.2zm-.3-4.8c-.4 0-.8.1-1 .4s-.4.7-.5 1.2h2.8c0-.5-.1-.9-.3-1.2s-.5-.4-1-.4z" class="st2"/>
  <path d="M164.5 279.5c-.3 0-.7-.1-1-.2-.3-.1-.5-.3-.7-.6h-.1c0 .3.1.6.1.9v2.2h-.8V274h.7l.1.7c.2-.3.5-.5.7-.6s.6-.2 1-.2c.7 0 1.3.2 1.6.7s.6 1.2.6 2c0 .9-.2 1.6-.6 2-.3.7-.9.9-1.6.9zm-.1-4.8c-.5 0-.9.2-1.2.5s-.4.8-.4 1.4v.2c0 .8.1 1.3.4 1.6.3.3.7.5 1.2.5s.8-.2 1.1-.6c.3-.4.4-.9.4-1.5 0-.7-.1-1.2-.4-1.5s-.6-.6-1.1-.6z" class="st2"/>
  <path d="M172.8 276.8c0 .9-.2 1.6-.7 2-.4.5-1 .7-1.8.7-.5 0-.9-.1-1.3-.3s-.7-.5-.9-1-.3-.9-.3-1.5c0-.9.2-1.6.7-2s1-.7 1.8-.7c.7 0 1.3.2 1.8.7s.7 1.2.7 2.1zm-4.1 0c0 .7.1 1.2.4 1.6s.7.5 1.2.5.9-.2 1.2-.5c.3-.4.4-.9.4-1.6 0-.7-.1-1.2-.4-1.6s-.7-.5-1.2-.5-.9.2-1.2.5-.4.9-.4 1.6z" class="st2"/>
  <path d="M177.7 278c0 .5-.2.9-.6 1.2s-.9.4-1.6.4c-.7 0-1.3-.1-1.7-.3v-.8c.3.1.5.2.8.3s.6.1.9.1c.4 0 .7-.1 1-.2.2-.1.3-.3.3-.6 0-.2-.1-.4-.3-.5s-.5-.3-1.1-.5c-.5-.2-.9-.3-1.1-.5s-.4-.3-.5-.5-.2-.4-.2-.6c0-.4.2-.8.5-1s.8-.4 1.5-.4c.6 0 1.1.1 1.7.4l-.3.7c-.5-.2-1-.3-1.5-.3-.4 0-.7.1-.9.2s-.3.3-.3.5c0 .1 0 .3.1.4s.2.2.4.3.5.2.9.4c.6.2 1.1.5 1.3.7s.7.2.7.6z" class="st2"/>
  <path d="M182.4 278c0 .5-.2.9-.6 1.2s-.9.4-1.6.4c-.7 0-1.3-.1-1.7-.3v-.8c.3.1.5.2.8.3s.6.1.9.1c.4 0 .7-.1 1-.2.2-.1.3-.3.3-.6 0-.2-.1-.4-.3-.5s-.5-.3-1.1-.5c-.5-.2-.9-.3-1.1-.5s-.4-.3-.5-.5-.2-.4-.2-.6c0-.4.2-.8.5-1s.8-.4 1.5-.4c.6 0 1.1.1 1.7.4v.5c-.5-.2-1-.3-1.5-.3-.4 0-.7.1-.9.2s-.3.3-.3.5c0 .1 0 .3.1.4s.2.2.4.3.5.2.9.4c.6.2 1.1.5 1.3.7s.4.4.4.8z" class="st2"/>
  <path d="M183.7 272.6c0-.2 0-.3.1-.4s.2-.1.3-.1c.1 0 .2 0 .3.1s.1.2.1.4 0 .3-.1.4-.2.1-.3.1c-.1 0-.3 0-.3-.1s-.1-.2-.1-.4zm.9 6.8h-.8V274h.8v5.4z" class="st2"/>
  <path d="M188.8 274c.7 0 1.2.2 1.6.7s.6 1.2.6 2-.2 1.6-.6 2c-.4.5-.9.7-1.6.7-.3 0-.7-.1-1-.2-.3-.1-.5-.3-.7-.6h-.1l-.2.7h-.6v-7.6h.8v2.9c.5-.3 1-.6 1.8-.6zm-.2.7c-.6 0-1 .2-1.2.5s-.4.9-.4 1.6.1 1.3.4 1.6c.3.3.7.5 1.2.5s.9-.2 1.1-.5c.2-.4.4-.9.4-1.6 0-.7-.1-1.2-.4-1.6s-.5-.5-1.1-.5z" class="st2"/>
  <path d="M192.3 272.6c0-.2 0-.3.1-.4s.2-.1.3-.1c.1 0 .2 0 .3.1s.1.2.1.4 0 .3-.1.4-.2.1-.3.1c-.1 0-.3 0-.3-.1s-.1-.2-.1-.4zm.9 6.8h-.8V274h.8v5.4z" class="st2"/>
  <path d="M195.7 279.4h-.8v-7.6h.8v7.6z" class="st2"/>
  <path d="M197.4 272.6c0-.2 0-.3.1-.4s.2-.1.3-.1c.1 0 .2 0 .3.1s.1.2.1.4 0 .3-.1.4-.2.1-.3.1c-.1 0-.3 0-.3-.1s-.1-.2-.1-.4zm.9 6.8h-.8V274h.8v5.4z" class="st2"/>
  <path d="M201.7 278.9h.4c.1 0 .2 0 .3-.1v.6c-.1 0-.2.1-.4.1h-.5c-1 0-1.6-.5-1.6-1.6v-3.2h-.8v-.4l.8-.3.3-1.1h.5v1.2h1.6v.6h-1.6v3.1c0 .3.1.6.2.7.3.3.6.4.8.4z" class="st2"/>
  <path d="M205.8 279.5c-.8 0-1.4-.2-1.9-.7-.5-.5-.7-1.2-.7-2 0-.9.2-1.5.6-2.1s1-.8 1.7-.8 1.2.2 1.6.7.6 1 .6 1.7v.5H204c0 .6.2 1.1.5 1.4s.7.5 1.3.5c.6 0 1.1-.1 1.7-.4v.7c-.3.1-.6.2-.8.3-.2.2-.6.2-.9.2zm-.2-4.8c-.4 0-.8.1-1 .4s-.4.7-.5 1.2h2.8c0-.5-.1-.9-.3-1.2s-.6-.4-1-.4z" class="st2"/>
  <path d="M212.6 278c0 .5-.2.9-.6 1.2s-.9.4-1.6.4c-.7 0-1.3-.1-1.7-.3v-.8c.3.1.5.2.8.3s.6.1.9.1c.4 0 .7-.1 1-.2.2-.1.3-.3.3-.6 0-.2-.1-.4-.3-.5s-.5-.3-1.1-.5c-.5-.2-.9-.3-1.1-.5s-.4-.3-.5-.5-.2-.4-.2-.6c0-.4.2-.8.5-1s.8-.4 1.5-.4c.6 0 1.1.1 1.7.4l-.3.7c-.5-.2-1-.3-1.5-.3-.4 0-.7.1-.9.2s-.3.3-.3.5c0 .1 0 .3.1.4s.2.2.4.3.5.2.9.4c.6.2 1.1.5 1.3.7s.7.2.7.6z" class="st2"/>
  <path d="M220.9 279.4l-1-3.1c-.1-.2-.2-.6-.3-1.3-.1.6-.2 1-.3 1.3l-1 3.1h-.9l-1.5-5.4h.8c.3 1.3.6 2.4.8 3.1s.3 1.2.3 1.4c0-.2.1-.4.2-.7.1-.3.1-.5.2-.7l1-3.1h.9l1 3.1c.2.6.3 1 .4 1.4 0-.1 0-.3.1-.5s.4-1.6 1-3.9h.8l-1.5 5.4h-1z" class="st2"/>
  <path d="M227.9 279.4V276c0-.4-.1-.8-.3-1s-.5-.3-.9-.3c-.6 0-1 .2-1.2.5s-.4.8-.4 1.5v2.8h-.8v-7.6h.8v3c.2-.3.4-.5.7-.6s.6-.2 1-.2c.7 0 1.1.2 1.5.5s.5.8.5 1.5v3.5h-.9z" class="st2"/>
  <path d="M232.7 279.5c-.8 0-1.4-.2-1.9-.7-.5-.5-.7-1.2-.7-2 0-.9.2-1.5.6-2.1s1-.8 1.7-.8 1.2.2 1.6.7.6 1 .6 1.7v.5H231c0 .6.2 1.1.5 1.4s.7.5 1.3.5c.6 0 1.1-.1 1.7-.4v.7c-.3.1-.6.2-.8.3-.4.2-.7.2-1 .2zm-.2-4.8c-.4 0-.8.1-1 .4s-.4.7-.5 1.2h2.8c0-.5-.1-.9-.3-1.2s-.6-.4-1-.4z" class="st2"/>
  <path d="M239.7 279.4V276c0-.4-.1-.8-.3-1s-.5-.3-.9-.3c-.6 0-1 .2-1.2.5s-.4.8-.4 1.5v2.8h-.9v-5.4h.7l.1.7c.2-.3.4-.5.7-.6s.6-.2 1-.2c.6 0 1.1.2 1.5.5s.5.8.5 1.5v3.5h-.8z" class="st2"/>
  <path d="M248.1 279.4l-.2-.8c-.3.3-.5.6-.8.7-.3.1-.6.2-1 .2-.5 0-.9-.1-1.2-.4s-.5-.7-.5-1.2c0-1.1.9-1.6 2.6-1.7h.9v-.3c0-.4-.1-.7-.3-.9s-.5-.3-.9-.3-1 .1-1.5.4l-.2-.6c.3-.1.6-.3.9-.3s.6-.1.9-.1c.6 0 1.1.1 1.4.4s.5.7.5 1.4v3.7h-.6zm-1.9-.5c.5 0 .9-.1 1.2-.4.3-.3.4-.7.4-1.2v-.5h-.8c-.6 0-1.1.1-1.4.3s-.4.5-.4.8c0 .3.1.5.3.7s.4.3.7.3z" class="st2"/>
  <path d="M254 279.4V276c0-.4-.1-.8-.3-1s-.5-.3-.9-.3c-.6 0-1 .2-1.2.5s-.4.8-.4 1.5v2.8h-.8v-5.4h.7l.1.7c.2-.3.4-.5.7-.6s.6-.2 1-.2c.6 0 1.1.2 1.5.5s.5.8.5 1.5v3.5h-.9z" class="st2"/>
  <path d="M259.9 278c0 .5-.2.9-.6 1.2s-.9.4-1.6.4c-.7 0-1.3-.1-1.7-.3v-.8c.3.1.5.2.8.3s.6.1.9.1c.4 0 .7-.1 1-.2.2-.1.3-.3.3-.6 0-.2-.1-.4-.3-.5s-.5-.3-1.1-.5c-.5-.2-.9-.3-1.1-.5s-.4-.3-.5-.5-.2-.4-.2-.6c0-.4.2-.8.5-1s.8-.4 1.5-.4c.6 0 1.1.1 1.7.4l-.3.7c-.5-.2-1-.3-1.5-.3-.4 0-.7.1-.9.2s-.3.3-.3.5c0 .1 0 .3.1.4s.2.2.4.3.5.2.9.4c.6.2 1.1.5 1.3.7s.7.2.7.6z" class="st2"/>
  <path d="M265.6 279.4l-1-3.1c-.1-.2-.2-.6-.3-1.3-.1.6-.2 1-.3 1.3l-1 3.1h-.9l-1.5-5.4h.8c.3 1.3.6 2.4.8 3.1s.3 1.2.3 1.4c0-.2.1-.4.2-.7.1-.3.1-.5.2-.7l1-3.1h.9l1 3.1c.2.6.3 1 .4 1.4 0-.1 0-.3.1-.5s.4-1.6 1-3.9h.8l-1.5 5.4h-1z" class="st2"/>
  <path d="M271.3 279.5c-.8 0-1.4-.2-1.9-.7-.5-.5-.7-1.2-.7-2 0-.9.2-1.5.6-2.1s1-.8 1.7-.8 1.2.2 1.6.7.6 1 .6 1.7v.5h-3.7c0 .6.2 1.1.5 1.4s.7.5 1.3.5c.6 0 1.1-.1 1.7-.4v.7c-.3.1-.6.2-.8.3-.3.2-.6.2-.9.2zm-.3-4.8c-.4 0-.8.1-1 .4s-.4.7-.5 1.2h2.8c0-.5-.1-.9-.3-1.2s-.5-.4-1-.4z" class="st2"/>
  <path d="M277.1 274c.2 0 .5 0 .6.1l-.1.8c-.2 0-.4-.1-.6-.1-.4 0-.8.2-1.1.5s-.5.8-.5 1.3v2.9h-.8v-5.4h.7l.1 1c.2-.3.4-.6.7-.8s.6-.3 1-.3z" class="st2"/>
  <path d="M278.6 272.6c0-.2 0-.3.1-.4s.2-.1.3-.1c.1 0 .2 0 .3.1s.1.2.1.4 0 .3-.1.4-.2.1-.3.1c-.1 0-.3 0-.3-.1s-.1-.2-.1-.4zm.9 6.8h-.8V274h.8v5.4z" class="st2"/>
  <path d="M284.9 279.4V276c0-.4-.1-.8-.3-1s-.5-.3-.9-.3c-.6 0-1 .2-1.2.5s-.4.8-.4 1.5v2.8h-.8v-5.4h.7l.1.7c.2-.3.4-.5.7-.6s.6-.2 1-.2c.6 0 1.1.2 1.5.5s.5.8.5 1.5v3.5h-.9z" class="st2"/>
  <path d="M291.7 274.1v.5l-1 .1c.1.1.2.3.2.4s.1.4.1.6c0 .5-.2.9-.5 1.3s-.8.5-1.5.5h-.4c-.3.2-.5.4-.5.7 0 .1.1.3.2.3.1.1.3.1.6.1h.9c.6 0 1 .1 1.3.4s.5.6.5 1.1c0 .6-.2 1-.7 1.4-.5.3-1.2.5-2.1.5-.7 0-1.2-.1-1.6-.4s-.6-.6-.6-1.1c0-.3.1-.6.3-.8s.5-.4.9-.5c-.1-.1-.3-.2-.3-.3s-.1-.3-.1-.5.1-.4.2-.5.3-.3.5-.4c-.3-.1-.5-.3-.7-.6s-.3-.6-.3-.9c0-.6.2-1 .5-1.4s.8-.5 1.5-.5c.3 0 .5 0 .8.1h1.8zm-4.2 6.2c0 .3.1.5.4.7s.6.2 1 .2c.7 0 1.2-.1 1.5-.3.3-.2.5-.5.5-.8 0-.3-.1-.5-.3-.6-.2-.1-.5-.2-1-.2h-1c-.4 0-.7.1-.9.3s-.2.4-.2.7zm.4-4.5c0 .4.1.7.3.8s.5.3.9.3c.8 0 1.2-.4 1.2-1.2 0-.8-.4-1.2-1.2-1.2-.4 0-.7.1-.9.3s-.3.6-.3 1z" class="st2"/>
  <path d="M297.3 279.5c-.7 0-1.2-.2-1.6-.7s-.6-1.2-.6-2c0-.9.2-1.6.6-2.1s.9-.7 1.6-.7c.7 0 1.3.3 1.7.8l.1-.7h.6v7.8h-.7v-2.3c0-.3 0-.6.1-.8h-.1c-.3.5-.9.7-1.7.7zm.2-.6c.5 0 .9-.1 1.2-.4.2-.3.4-.8.4-1.5v-.2c0-.7-.1-1.3-.4-1.6s-.7-.5-1.2-.5-.8.2-1.1.6-.4.9-.4 1.6.1 1.2.4 1.5c.2.3.6.5 1.1.5z" class="st2"/>
  <path d="M302.3 274.1v3.5c0 .4.1.8.3 1s.5.3.9.3c.6 0 1-.2 1.2-.5s.4-.8.4-1.5v-2.8h.8v5.4h-.7l-.1-.7c-.2.3-.4.5-.7.6s-.6.2-1 .2c-.7 0-1.1-.2-1.5-.5s-.5-.8-.5-1.5v-3.5h.9z" class="st2"/>
  <path d="M310 279.5c-.8 0-1.4-.2-1.9-.7-.5-.5-.7-1.2-.7-2 0-.9.2-1.5.6-2.1s1-.8 1.7-.8 1.2.2 1.6.7.6 1 .6 1.7v.5h-3.7c0 .6.2 1.1.5 1.4s.7.5 1.3.5c.6 0 1.1-.1 1.7-.4v.7c-.3.1-.6.2-.8.3-.3.2-.6.2-.9.2zm-.2-4.8c-.4 0-.8.1-1 .4s-.4.7-.5 1.2h2.8c0-.5-.1-.9-.3-1.2s-.6-.4-1-.4z" class="st2"/>
  <path d="M316.8 278c0 .5-.2.9-.6 1.2s-.9.4-1.6.4c-.7 0-1.3-.1-1.7-.3v-.8c.3.1.5.2.8.3s.6.1.9.1c.4 0 .7-.1 1-.2.2-.1.3-.3.3-.6 0-.2-.1-.4-.3-.5s-.5-.3-1.1-.5c-.5-.2-.9-.3-1.1-.5s-.4-.3-.5-.5-.2-.4-.2-.6c0-.4.2-.8.5-1s.8-.4 1.5-.4c.6 0 1.1.1 1.7.4l-.3.7c-.5-.2-1-.3-1.5-.3-.4 0-.7.1-.9.2s-.3.3-.3.5c0 .1 0 .3.1.4s.2.2.4.3.5.2.9.4c.6.2 1.1.5 1.3.7s.7.2.7.6z" class="st2"/>
  <path d="M319.8 278.9h.4c.1 0 .2 0 .3-.1v.6c-.1 0-.2.1-.4.1h-.5c-1 0-1.6-.5-1.6-1.6v-3.2h-.8v-.4l.8-.3.3-1.1h.5v1.2h1.6v.6H319v3.1c0 .3.1.6.2.7.1.3.4.4.6.4z" class="st2"/>
  <path d="M321.6 272.6c0-.2 0-.3.1-.4s.2-.1.3-.1c.1 0 .2 0 .3.1s.1.2.1.4 0 .3-.1.4-.2.1-.3.1c-.1 0-.3 0-.3-.1s-.1-.2-.1-.4zm.8 6.8h-.8V274h.8v5.4z" class="st2"/>
  <path d="M328.8 276.8c0 .9-.2 1.6-.7 2-.4.5-1 .7-1.8.7-.5 0-.9-.1-1.3-.3s-.7-.5-.9-1-.3-.9-.3-1.5c0-.9.2-1.6.7-2s1-.7 1.8-.7c.7 0 1.3.2 1.8.7s.7 1.2.7 2.1zm-4.1 0c0 .7.1 1.2.4 1.6s.7.5 1.2.5.9-.2 1.2-.5c.3-.4.4-.9.4-1.6 0-.7-.1-1.2-.4-1.6s-.7-.5-1.2-.5-.9.2-1.2.5-.4.9-.4 1.6z" class="st2"/>
  <path d="M333.9 279.4V276c0-.4-.1-.8-.3-1s-.5-.3-.9-.3c-.6 0-1 .2-1.2.5s-.4.8-.4 1.5v2.8h-.8v-5.4h.7l.1.7c.2-.3.4-.5.7-.6s.6-.2 1-.2c.6 0 1.1.2 1.5.5s.5.8.5 1.5v3.5h-.9z" class="st2"/>
  <path d="M339.8 278c0 .5-.2.9-.6 1.2s-.9.4-1.6.4c-.7 0-1.3-.1-1.7-.3v-.8c.3.1.5.2.8.3s.6.1.9.1c.4 0 .7-.1 1-.2.2-.1.3-.3.3-.6 0-.2-.1-.4-.3-.5s-.5-.3-1.1-.5c-.5-.2-.9-.3-1.1-.5s-.4-.3-.5-.5-.2-.4-.2-.6c0-.4.2-.8.5-1s.8-.4 1.5-.4c.6 0 1.1.1 1.7.4l-.3.7c-.5-.2-1-.3-1.5-.3-.4 0-.7.1-.9.2s-.3.3-.3.5c0 .1 0 .3.1.4s.2.2.4.3.5.2.9.4c.6.2 1.1.5 1.3.7s.7.2.7.6z" class="st2"/>
  <path d="M341 278.9c0-.2 0-.4.1-.5.1-.1.2-.2.4-.2s.3.1.4.2c.1.1.2.3.2.5s-.1.4-.2.5-.3.2-.4.2c-.2 0-.3-.1-.4-.2-.1-.1-.1-.2-.1-.5z" class="st2"/>
  <path d="M112.9 331.5h246.9v26.1H112.9z" class="st4"/>
  <path d="M116.1 339.1h-.8v-6.4H113v-.7h5.4v.7h-2.3v6.4z" class="st2"/>
  <path d="M121.8 333.6c.2 0 .5 0 .6.1l-.1.8c-.2 0-.4-.1-.6-.1-.4 0-.8.2-1.1.5s-.5.8-.5 1.3v2.9h-.8v-5.4h.7l.1 1c.2-.3.4-.6.7-.8.3-.2.6-.3 1-.3z" class="st2"/>
  <path d="M122.6 333.7h.9l1.2 3.1c.3.7.4 1.2.5 1.5 0-.2.1-.5.3-.9.1-.4.6-1.6 1.3-3.7h.9l-2.3 6.1c-.2.6-.5 1-.8 1.3-.3.3-.7.4-1.1.4-.2 0-.5 0-.7-.1v-.6c.2 0 .4.1.6.1.6 0 1-.3 1.2-.9l.3-.8-2.3-5.5z" class="st2"/>
  <path d="M132.8 338.5h.4c.1 0 .2 0 .3-.1v.6c-.1 0-.2.1-.4.1h-.5c-1 0-1.6-.5-1.6-1.6v-3.2h-.8v-.3l.8-.3.3-1.1h.5v1.2h1.6v.6h-1.6v3.1c0 .3.1.6.2.7.3.2.5.3.8.3z" class="st2"/>
  <path d="M139.2 336.4c0 .9-.2 1.6-.7 2-.4.5-1 .7-1.8.7-.5 0-.9-.1-1.3-.3s-.7-.5-.9-1-.3-.9-.3-1.5c0-.9.2-1.6.7-2 .4-.5 1-.7 1.8-.7.7 0 1.3.2 1.8.7s.7 1.2.7 2.1zm-4.1 0c0 .7.1 1.2.4 1.6.3.4.7.5 1.2.5s.9-.2 1.2-.5.4-.9.4-1.6c0-.7-.1-1.2-.4-1.6-.3-.4-.7-.5-1.2-.5s-.9.2-1.2.5c-.2.4-.4.9-.4 1.6z" class="st2"/>
  <path d="M145.7 333.6c.7 0 1.2.2 1.6.7.4.5.6 1.2.6 2s-.2 1.6-.6 2c-.4.5-.9.7-1.6.7-.3 0-.7-.1-1-.2-.3-.1-.5-.3-.7-.6l-.2.7h-.6v-7.6h.8v2.9c.4-.3 1-.6 1.7-.6zm-.1.7c-.6 0-1 .2-1.2.5s-.4.9-.4 1.6.1 1.3.4 1.6c.3.3.7.5 1.2.5s.9-.2 1.1-.5c.2-.4.4-.9.4-1.6 0-.7-.1-1.2-.4-1.6s-.6-.5-1.1-.5z" class="st2"/>
  <path d="M151.6 339.2c-.8 0-1.4-.2-1.9-.7-.5-.5-.7-1.2-.7-2 0-.9.2-1.5.6-2.1s1-.8 1.7-.8 1.2.2 1.6.7c.4.4.6 1 .6 1.7v.5h-3.7c0 .6.2 1.1.5 1.4.3.3.7.5 1.3.5.6 0 1.1-.1 1.7-.4v.7c-.3.1-.6.2-.8.3s-.5.2-.9.2zm-.2-4.9c-.4 0-.8.1-1 .4-.3.3-.4.7-.5 1.2h2.8c0-.5-.1-.9-.3-1.2-.3-.3-.6-.4-1-.4z" class="st2"/>
  <path d="M164.4 339.1v-3.5c0-.4-.1-.7-.3-1-.2-.2-.5-.3-.8-.3-.5 0-.9.1-1.1.4-.2.3-.4.7-.4 1.3v3h-.8v-3.5c0-.4-.1-.7-.3-1-.2-.2-.5-.3-.9-.3-.5 0-.9.2-1.1.5-.2.3-.4.8-.4 1.5v2.8h-.8v-5.4h.7l.1.7c.2-.3.4-.5.6-.6s.6-.2.9-.2c.8 0 1.4.3 1.6.9.2-.3.4-.5.7-.7.3-.2.6-.2 1-.2.6 0 1.1.2 1.4.5.3.3.5.8.5 1.5v3.5h-.6z" class="st2"/>
  <path d="M171.5 336.4c0 .9-.2 1.6-.7 2-.4.5-1 .7-1.8.7-.5 0-.9-.1-1.3-.3s-.7-.5-.9-1-.3-.9-.3-1.5c0-.9.2-1.6.7-2 .4-.5 1-.7 1.8-.7.7 0 1.3.2 1.8.7s.7 1.2.7 2.1zm-4.1 0c0 .7.1 1.2.4 1.6.3.4.7.5 1.2.5s.9-.2 1.2-.5.4-.9.4-1.6c0-.7-.1-1.2-.4-1.6-.3-.4-.7-.5-1.2-.5s-.9.2-1.2.5c-.3.4-.4.9-.4 1.6z" class="st2"/>
  <path d="M175.3 333.6c.2 0 .5 0 .6.1l-.1.8c-.2 0-.4-.1-.6-.1-.4 0-.8.2-1.1.5s-.5.8-.5 1.3v2.9h-.8v-5.4h.7l.1 1c.2-.3.4-.6.7-.8.4-.2.7-.3 1-.3z" class="st2"/>
  <path d="M179.2 339.2c-.8 0-1.4-.2-1.9-.7-.5-.5-.7-1.2-.7-2 0-.9.2-1.5.6-2.1s1-.8 1.7-.8 1.2.2 1.6.7c.4.4.6 1 .6 1.7v.5h-3.7c0 .6.2 1.1.5 1.4.3.3.7.5 1.3.5.6 0 1.1-.1 1.7-.4v.7c-.3.1-.6.2-.8.3s-.5.2-.9.2zm-.2-4.9c-.4 0-.8.1-1 .4-.3.3-.4.7-.5 1.2h2.8c0-.5-.1-.9-.3-1.2-.2-.3-.6-.4-1-.4z" class="st2"/>
  <path d="M189.8 336.4c0 .9-.2 1.6-.7 2-.4.5-1 .7-1.8.7-.5 0-.9-.1-1.3-.3s-.7-.5-.9-1-.3-.9-.3-1.5c0-.9.2-1.6.7-2 .4-.5 1-.7 1.8-.7.7 0 1.3.2 1.8.7s.7 1.2.7 2.1zm-4.1 0c0 .7.1 1.2.4 1.6.3.4.7.5 1.2.5s.9-.2 1.2-.5.4-.9.4-1.6c0-.7-.1-1.2-.4-1.6-.3-.4-.7-.5-1.2-.5s-.9.2-1.2.5c-.2.4-.4.9-.4 1.6z" class="st2"/>
  <path d="M193.7 333.6c.2 0 .5 0 .6.1l-.1.8c-.2 0-.4-.1-.6-.1-.4 0-.8.2-1.1.5s-.5.8-.5 1.3v2.9h-.8v-5.4h.7l.1 1c.2-.3.4-.6.7-.8.3-.2.6-.3 1-.3z" class="st2"/>
  <path d="M199.7 333.7v.5l-1 .1c.1.1.2.3.2.4.1.2.1.4.1.6 0 .5-.2.9-.5 1.3s-.8.5-1.5.5h-.4c-.3.2-.5.4-.5.7 0 .1.1.3.2.3.1.1.3.1.6.1h.9c.6 0 1 .1 1.3.4s.5.6.5 1.1c0 .6-.2 1-.7 1.4-.5.3-1.2.5-2.1.5-.7 0-1.2-.1-1.6-.4-.4-.3-.6-.6-.6-1.1 0-.3.1-.6.3-.8.2-.2.5-.4.9-.5-.1-.1-.3-.2-.3-.3-.1-.1-.1-.3-.1-.5s.1-.4.2-.5.3-.3.5-.4c-.3-.1-.5-.3-.7-.6s-.3-.6-.3-.9c0-.6.2-1 .5-1.4s.8-.5 1.5-.5c.3 0 .5 0 .8.1h1.8zm-4.3 6.3c0 .3.1.5.4.7.2.1.6.2 1 .2.7 0 1.2-.1 1.5-.3.3-.2.5-.5.5-.8 0-.3-.1-.5-.3-.6s-.5-.2-1-.2h-1c-.4 0-.7.1-.9.3s-.2.3-.2.7zm.5-4.6c0 .4.1.7.3.8.2.2.5.3.9.3.8 0 1.2-.4 1.2-1.2 0-.8-.4-1.2-1.2-1.2-.4 0-.7.1-.9.3s-.3.6-.3 1z" class="st2"/>
  <path d="M204.1 339.1l-.2-.8c-.3.3-.5.6-.8.7-.3.1-.6.2-1 .2-.5 0-.9-.1-1.2-.4s-.5-.7-.5-1.2c0-1.1.9-1.6 2.6-1.7h.9v-.3c0-.4-.1-.7-.3-.9s-.5-.3-.9-.3-1 .1-1.5.4l-.2-.6c.3-.1.6-.3.9-.3.3-.1.6-.1.9-.1.6 0 1.1.1 1.4.4s.5.7.5 1.4v3.7h-.6zm-1.9-.6c.5 0 .9-.1 1.2-.4.3-.3.4-.7.4-1.2v-.5h-.8c-.6 0-1.1.1-1.4.3-.3.2-.4.5-.4.8 0 .3.1.5.3.7.2.2.4.3.7.3z" class="st2"/>
  <path d="M210 339.1v-3.5c0-.4-.1-.8-.3-1s-.5-.3-.9-.3c-.6 0-1 .2-1.2.5s-.4.8-.4 1.5v2.8h-.8v-5.4h.7l.1.7c.2-.3.4-.5.7-.6.3-.1.6-.2 1-.2.6 0 1.1.2 1.5.5.3.3.5.8.5 1.5v3.5h-.9z" class="st2"/>
  <path d="M212.4 332.3c0-.2 0-.3.1-.4.1-.1.2-.1.3-.1.1 0 .2 0 .3.1s.1.2.1.4 0 .3-.1.4c-.1.1-.2.1-.3.1-.1 0-.3 0-.3-.1s-.1-.2-.1-.4zm.9 6.8h-.8v-5.4h.8v5.4z" class="st2"/>
  <path d="M218.4 339.1h-3.9v-.6l2.9-4.2h-2.7v-.6h3.6v.6l-2.9 4.1h3v.7z" class="st2"/>
  <path d="M221.9 339.2c-.8 0-1.4-.2-1.9-.7-.5-.5-.7-1.2-.7-2 0-.9.2-1.5.6-2.1s1-.8 1.7-.8 1.2.2 1.6.7c.4.4.6 1 .6 1.7v.5h-3.7c0 .6.2 1.1.5 1.4.3.3.7.5 1.3.5.6 0 1.1-.1 1.7-.4v.7c-.3.1-.6.2-.8.3s-.5.2-.9.2zm-.2-4.9c-.4 0-.8.1-1 .4-.3.3-.4.7-.5 1.2h2.8c0-.5-.1-.9-.3-1.2-.2-.3-.5-.4-1-.4z" class="st2"/>
  <path d="M228.9 338.4c-.4.5-1 .8-1.7.8s-1.2-.2-1.6-.7-.6-1.2-.6-2c0-.9.2-1.6.6-2.1s.9-.7 1.6-.7c.7 0 1.3.3 1.7.8h.1v-3h.8v7.6h-.8l-.1-.7zm-1.6.1c.6 0 1-.2 1.2-.5.2-.3.4-.8.4-1.5v-.2c0-.8-.1-1.3-.4-1.6-.3-.3-.7-.5-1.2-.5s-.8.2-1.1.6c-.3.4-.4.9-.4 1.6 0 .7.1 1.2.4 1.5.3.4.6.6 1.1.6z" class="st2"/>
  <path d="M236.5 333.6c.7 0 1.2.2 1.6.7.4.5.6 1.2.6 2s-.2 1.6-.6 2c-.4.5-.9.7-1.6.7-.3 0-.7-.1-1-.2-.3-.1-.5-.3-.7-.6h-.1l-.2.7h-.5v-7.6h.8v2.9c.4-.3 1-.6 1.7-.6zm-.1.7c-.6 0-1 .2-1.2.5s-.4.9-.4 1.6.1 1.3.4 1.6c.3.3.7.5 1.2.5s.9-.2 1.1-.5c.2-.4.4-.9.4-1.6 0-.7-.1-1.2-.4-1.6s-.6-.5-1.1-.5z" class="st2"/>
  <path d="M239.3 333.7h.9l1.2 3.1c.3.7.4 1.2.5 1.5 0-.2.1-.5.3-.9.1-.4.6-1.6 1.3-3.7h.9l-2.3 6.1c-.2.6-.5 1-.8 1.3-.3.3-.7.4-1.1.4-.2 0-.5 0-.7-.1v-.6c.2 0 .4.1.6.1.6 0 1-.3 1.2-.9l.3-.8-2.3-5.5z" class="st2"/>
  <path d="M252.4 336.4c0 .9-.2 1.6-.7 2-.4.5-1 .7-1.8.7-.5 0-.9-.1-1.3-.3s-.7-.5-.9-1-.3-.9-.3-1.5c0-.9.2-1.6.7-2 .4-.5 1-.7 1.8-.7.7 0 1.3.2 1.8.7s.7 1.2.7 2.1zm-4.1 0c0 .7.1 1.2.4 1.6.3.4.7.5 1.2.5s.9-.2 1.2-.5.4-.9.4-1.6c0-.7-.1-1.2-.4-1.6-.3-.4-.7-.5-1.2-.5s-.9.2-1.2.5c-.2.4-.4.9-.4 1.6z" class="st2"/>
  <path d="M256.3 333.6c.2 0 .5 0 .6.1l-.1.8c-.2 0-.4-.1-.6-.1-.4 0-.8.2-1.1.5s-.5.8-.5 1.3v2.9h-.8v-5.4h.7l.1 1c.2-.3.4-.6.7-.8.3-.2.6-.3 1-.3z" class="st2"/>
  <path d="M262.3 333.7v.5l-1 .1c.1.1.2.3.2.4.1.2.1.4.1.6 0 .5-.2.9-.5 1.3s-.8.5-1.5.5h-.4c-.3.2-.5.4-.5.7 0 .1.1.3.2.3.1.1.3.1.6.1h.9c.6 0 1 .1 1.3.4s.5.6.5 1.1c0 .6-.2 1-.7 1.4-.5.3-1.2.5-2.1.5-.7 0-1.2-.1-1.6-.4-.4-.3-.6-.6-.6-1.1 0-.3.1-.6.3-.8.2-.2.5-.4.9-.5-.1-.1-.3-.2-.3-.3-.1-.1-.1-.3-.1-.5s.1-.4.2-.5.3-.3.5-.4c-.3-.1-.5-.3-.7-.6s-.3-.6-.3-.9c0-.6.2-1 .5-1.4s.8-.5 1.5-.5c.3 0 .5 0 .8.1h1.8zM258 340c0 .3.1.5.4.7.2.1.6.2 1 .2.7 0 1.2-.1 1.5-.3.3-.2.5-.5.5-.8 0-.3-.1-.5-.3-.6s-.5-.2-1-.2h-1c-.4 0-.7.1-.9.3s-.2.3-.2.7zm.5-4.6c0 .4.1.7.3.8.2.2.5.3.9.3.8 0 1.2-.4 1.2-1.2 0-.8-.4-1.2-1.2-1.2-.4 0-.7.1-.9.3s-.3.6-.3 1z" class="st2"/>
  <path d="M266.7 339.1l-.2-.8c-.3.3-.5.6-.8.7-.3.1-.6.2-1 .2-.5 0-.9-.1-1.2-.4s-.5-.7-.5-1.2c0-1.1.9-1.6 2.6-1.7h.9v-.3c0-.4-.1-.7-.3-.9s-.5-.3-.9-.3-1 .1-1.5.4l-.2-.6c.3-.1.6-.3.9-.3.3-.1.6-.1.9-.1.6 0 1.1.1 1.4.4s.5.7.5 1.4v3.7h-.6zm-1.9-.6c.5 0 .9-.1 1.2-.4.3-.3.4-.7.4-1.2v-.5h-.8c-.6 0-1.1.1-1.4.3-.3.2-.4.5-.4.8 0 .3.1.5.3.7.2.2.4.3.7.3z" class="st2"/>
  <path d="M272.6 339.1v-3.5c0-.4-.1-.8-.3-1s-.5-.3-.9-.3c-.6 0-1 .2-1.2.5s-.4.8-.4 1.5v2.8h-.8v-5.4h.7l.1.7c.2-.3.4-.5.7-.6.3-.1.6-.2 1-.2.6 0 1.1.2 1.5.5.3.3.5.8.5 1.5v3.5h-.9z" class="st2"/>
  <path d="M275 332.3c0-.2 0-.3.1-.4.1-.1.2-.1.3-.1.1 0 .2 0 .3.1s.1.2.1.4 0 .3-.1.4c-.1.1-.2.1-.3.1-.1 0-.3 0-.3-.1s-.1-.2-.1-.4zm.9 6.8h-.8v-5.4h.8v5.4z" class="st2"/>
  <path d="M281 339.1h-3.9v-.6l2.9-4.2h-2.7v-.6h3.6v.6l-2.9 4.1h3v.7z" class="st2"/>
  <path d="M282.2 332.3c0-.2 0-.3.1-.4.1-.1.2-.1.3-.1.1 0 .2 0 .3.1s.1.2.1.4 0 .3-.1.4c-.1.1-.2.1-.3.1-.1 0-.3 0-.3-.1s-.1-.2-.1-.4zm.9 6.8h-.8v-5.4h.8v5.4z" class="st2"/>
  <path d="M288.5 339.1v-3.5c0-.4-.1-.8-.3-1s-.5-.3-.9-.3c-.6 0-1 .2-1.2.5s-.4.8-.4 1.5v2.8h-.8v-5.4h.7l.1.7c.2-.3.4-.5.7-.6.3-.1.6-.2 1-.2.6 0 1.1.2 1.5.5.3.3.5.8.5 1.5v3.5h-.9z" class="st2"/>
  <path d="M295.3 333.7v.5l-1 .1c.1.1.2.3.2.4.1.2.1.4.1.6 0 .5-.2.9-.5 1.3s-.8.5-1.5.5h-.4c-.3.2-.5.4-.5.7 0 .1.1.3.2.3.1.1.3.1.6.1h.9c.6 0 1 .1 1.3.4s.5.6.5 1.1c0 .6-.2 1-.7 1.4-.5.3-1.2.5-2.1.5-.7 0-1.2-.1-1.6-.4-.4-.3-.6-.6-.6-1.1 0-.3.1-.6.3-.8.2-.2.5-.4.9-.5-.1-.1-.3-.2-.3-.3-.1-.1-.1-.3-.1-.5s.1-.4.2-.5.3-.3.5-.4c-.3-.1-.5-.3-.7-.6s-.3-.6-.3-.9c0-.6.2-1 .5-1.4s.8-.5 1.5-.5c.3 0 .5 0 .8.1h1.8zm-4.2 6.3c0 .3.1.5.4.7.2.1.6.2 1 .2.7 0 1.2-.1 1.5-.3.3-.2.5-.5.5-.8 0-.3-.1-.5-.3-.6s-.5-.2-1-.2h-1c-.4 0-.7.1-.9.3s-.2.3-.2.7zm.4-4.6c0 .4.1.7.3.8.2.2.5.3.9.3.8 0 1.2-.4 1.2-1.2 0-.8-.4-1.2-1.2-1.2-.4 0-.7.1-.9.3s-.3.6-.3 1z" class="st2"/>
  <path d="M301.5 339.2c-.3 0-.7-.1-1-.2-.3-.1-.5-.3-.7-.6h-.1c0 .3.1.6.1.9v2.2h-.8v-7.8h.7l.1.7c.2-.3.5-.5.7-.6.3-.1.6-.2 1-.2.7 0 1.3.2 1.6.7.4.5.6 1.2.6 2 0 .9-.2 1.6-.6 2-.3.6-.9.9-1.6.9zm-.1-4.9c-.5 0-.9.2-1.2.5s-.4.8-.4 1.4v.2c0 .8.1 1.3.4 1.6.3.3.7.5 1.2.5s.8-.2 1.1-.6c.3-.4.4-.9.4-1.5 0-.7-.1-1.2-.4-1.5s-.6-.6-1.1-.6z" class="st2"/>
  <path d="M306 339.1h-.8v-7.6h.8v7.6z" class="st2"/>
  <path d="M311 339.1l-.2-.8c-.3.3-.5.6-.8.7-.3.1-.6.2-1 .2-.5 0-.9-.1-1.2-.4s-.5-.7-.5-1.2c0-1.1.9-1.6 2.6-1.7h.9v-.3c0-.4-.1-.7-.3-.9s-.5-.3-.9-.3-1 .1-1.5.4l-.2-.6c.3-.1.6-.3.9-.3.3-.1.6-.1.9-.1.6 0 1.1.1 1.4.4s.5.7.5 1.4v3.7h-.6zm-1.8-.6c.5 0 .9-.1 1.2-.4.3-.3.4-.7.4-1.2v-.5h-.8c-.6 0-1.1.1-1.4.3-.3.2-.4.5-.4.8 0 .3.1.5.3.7.1.2.3.3.7.3z" class="st2"/>
  <path d="M316.9 339.1v-3.5c0-.4-.1-.8-.3-1s-.5-.3-.9-.3c-.6 0-1 .2-1.2.5s-.4.8-.4 1.5v2.8h-.8v-5.4h.7l.1.7c.2-.3.4-.5.7-.6.3-.1.6-.2 1-.2.6 0 1.1.2 1.5.5.3.3.5.8.5 1.5v3.5h-.9z" class="st2"/>
  <path d="M322.8 337.6c0 .5-.2.9-.6 1.2-.4.3-.9.4-1.6.4-.7 0-1.3-.1-1.7-.3v-.8c.3.1.5.2.8.3.3.1.6.1.9.1.4 0 .7-.1 1-.2.2-.1.3-.3.3-.6 0-.2-.1-.4-.3-.5-.2-.1-.5-.3-1.1-.5-.5-.2-.9-.3-1.1-.5-.2-.1-.4-.3-.5-.5s-.2-.4-.2-.6c0-.4.2-.8.5-1 .4-.3.8-.4 1.5-.4.6 0 1.1.1 1.7.4l-.3.7c-.5-.2-1-.3-1.5-.3-.4 0-.7.1-.9.2-.2.1-.3.3-.3.5 0 .1 0 .3.1.4.1.1.2.2.4.3.2.1.5.2.9.4.6.2 1.1.5 1.3.7s.7.3.7.6z" class="st2"/>
  <path d="M330.1 339.1l-.2-.8c-.3.3-.5.6-.8.7-.3.1-.6.2-1 .2-.5 0-.9-.1-1.2-.4s-.5-.7-.5-1.2c0-1.1.9-1.6 2.6-1.7h.9v-.3c0-.4-.1-.7-.3-.9s-.5-.3-.9-.3-1 .1-1.5.4l-.2-.6c.3-.1.6-.3.9-.3.3-.1.6-.1.9-.1.6 0 1.1.1 1.4.4s.5.7.5 1.4v3.7h-.6zm-1.9-.6c.5 0 .9-.1 1.2-.4.3-.3.4-.7.4-1.2v-.5h-.8c-.6 0-1.1.1-1.4.3-.3.2-.4.5-.4.8 0 .3.1.5.3.7.2.2.4.3.7.3z" class="st2"/>
  <path d="M336 339.1v-3.5c0-.4-.1-.8-.3-1s-.5-.3-.9-.3c-.6 0-1 .2-1.2.5s-.4.8-.4 1.5v2.8h-.8v-5.4h.7l.1.7c.2-.3.4-.5.7-.6.3-.1.6-.2 1-.2.6 0 1.1.2 1.5.5.3.3.5.8.5 1.5v3.5h-.9z" class="st2"/>
  <path d="M342.1 338.4c-.4.5-1 .8-1.7.8s-1.2-.2-1.6-.7-.6-1.2-.6-2c0-.9.2-1.6.6-2.1s.9-.7 1.6-.7c.7 0 1.3.3 1.7.8h.1v-3h.8v7.6h-.7l-.2-.7zm-1.6.1c.6 0 1-.2 1.2-.5.2-.3.4-.8.4-1.5v-.2c0-.8-.1-1.3-.4-1.6-.3-.3-.7-.5-1.2-.5s-.8.2-1.1.6c-.3.4-.4.9-.4 1.6 0 .7.1 1.2.4 1.5.2.4.6.6 1.1.6z" class="st2"/>
  <path d="M115.5 350.5h.4c.1 0 .2 0 .3-.1v.6c-.1 0-.2.1-.4.1h-.5c-1 0-1.6-.5-1.6-1.6v-3.2h-.8v-.3l.8-.3.3-1.1h.5v1.2h1.6v.6h-1.6v3.1c0 .3.1.6.2.7.3.2.6.3.8.3z" class="st2"/>
  <path d="M121 351.1v-3.5c0-.4-.1-.8-.3-1s-.5-.3-.9-.3c-.6 0-1 .2-1.2.5-.3.3-.4.8-.4 1.5v2.8h-.8v-7.6h.8v3c.2-.3.4-.5.7-.6.3-.1.6-.2 1-.2.7 0 1.1.2 1.5.5.3.3.5.8.5 1.5v3.5h-.9z" class="st2"/>
  <path d="M128.1 348.4c0 .9-.2 1.6-.7 2-.4.5-1 .7-1.8.7-.5 0-.9-.1-1.3-.3s-.7-.5-.9-1-.3-.9-.3-1.5c0-.9.2-1.6.7-2 .4-.5 1-.7 1.8-.7.7 0 1.3.2 1.8.7s.7 1.2.7 2.1zm-4.1 0c0 .7.1 1.2.4 1.6s.7.5 1.2.5.9-.2 1.2-.5c.3-.4.4-.9.4-1.6 0-.7-.1-1.2-.4-1.6-.3-.4-.7-.5-1.2-.5s-.9.2-1.2.5c-.3.4-.4.9-.4 1.6z" class="st2"/>
  <path d="M130.3 345.7v3.5c0 .4.1.8.3 1s.5.3.9.3c.6 0 1-.2 1.2-.5s.4-.8.4-1.5v-2.8h.8v5.4h-.7l-.1-.7c-.2.3-.4.5-.7.6s-.6.2-1 .2c-.7 0-1.1-.2-1.5-.5s-.5-.8-.5-1.5v-3.5h.9z" class="st2"/>
  <path d="M140 345.7v.5l-1 .1c.1.1.2.3.2.4.1.2.1.4.1.6 0 .5-.2.9-.5 1.3s-.8.5-1.5.5h-.4c-.3.2-.5.4-.5.7 0 .1.1.3.2.3.1.1.3.1.6.1h.9c.6 0 1 .1 1.3.4s.5.6.5 1.1c0 .6-.2 1-.7 1.4-.5.3-1.2.5-2.1.5-.7 0-1.2-.1-1.6-.4s-.6-.6-.6-1.1c0-.3.1-.6.3-.8s.5-.4.9-.5c-.1-.1-.3-.2-.3-.3s-.1-.3-.1-.5.1-.4.2-.5.3-.3.5-.4c-.3-.1-.5-.3-.7-.6s-.3-.6-.3-.9c0-.6.2-1 .5-1.4s.8-.5 1.5-.5c.3 0 .5 0 .8.1h1.8zm-4.2 6.3c0 .3.1.5.4.7s.6.2 1 .2c.7 0 1.2-.1 1.5-.3.3-.2.5-.5.5-.8 0-.3-.1-.5-.3-.6-.2-.1-.5-.2-1-.2h-1c-.4 0-.7.1-.9.3s-.2.3-.2.7zm.4-4.6c0 .4.1.7.3.8.2.2.5.3.9.3.8 0 1.2-.4 1.2-1.2 0-.8-.4-1.2-1.2-1.2-.4 0-.7.1-.9.3s-.3.6-.3 1z" class="st2"/>
  <path d="M144.8 351.1v-3.5c0-.4-.1-.8-.3-1s-.5-.3-.9-.3c-.6 0-1 .2-1.2.5-.3.3-.4.8-.4 1.5v2.8h-.8v-7.6h.8v3c.2-.3.4-.5.7-.6.3-.1.6-.2 1-.2.7 0 1.1.2 1.5.5.3.3.5.8.5 1.5v3.5h-.9z" class="st2"/>
  <path d="M149 350.5h.4c.1 0 .2 0 .3-.1v.6c-.1 0-.2.1-.4.1h-.5c-1 0-1.6-.5-1.6-1.6v-3.2h-.8v-.3l.8-.3.3-1.1h.5v1.2h1.6v.6H148v3.1c0 .3.1.6.2.7.3.2.5.3.8.3z" class="st2"/>
  <path d="M154.2 349.6c0 .5-.2.9-.6 1.2s-.9.4-1.6.4c-.7 0-1.3-.1-1.7-.3v-.8c.3.1.5.2.8.3s.6.1.9.1c.4 0 .7-.1 1-.2.2-.1.3-.3.3-.6 0-.2-.1-.4-.3-.5-.2-.1-.5-.3-1.1-.5-.5-.2-.9-.3-1.1-.5-.2-.1-.4-.3-.5-.5s-.2-.4-.2-.6c0-.4.2-.8.5-1 .4-.3.8-.4 1.5-.4.6 0 1.1.1 1.7.4l-.3.7c-.5-.2-1-.3-1.5-.3-.4 0-.7.1-.9.2-.2.1-.3.3-.3.5 0 .1 0 .3.1.4.1.1.2.2.4.3.2.1.5.2.9.4.6.2 1.1.5 1.3.7s.7.3.7.6z" class="st2"/>
  <path d="M155.4 350.6c0-.2 0-.4.1-.5.1-.1.2-.2.4-.2s.3.1.4.2c.1.1.2.3.2.5s-.1.4-.2.5-.3.2-.4.2c-.2 0-.3-.1-.4-.2 0-.1-.1-.3-.1-.5z" class="st2"/>
  <path d="M64.8 407.1h246.9v26.1H64.8z" class="st4"/>
  <path d="M68 414.7h-.8v-6.4h-2.3v-.7h5.4v.7H68v6.4z" class="st2"/>
  <path d="M73.7 409.3c.2 0 .5 0 .6.1l-.1.8c-.2 0-.4-.1-.6-.1-.4 0-.8.2-1.1.5s-.5.8-.5 1.3v2.9h-.8v-5.4h.7l.1 1c.2-.3.4-.6.7-.8s.6-.3 1-.3z" class="st2"/>
  <path d="M74.5 409.4h.9l1.2 3.1c.3.7.4 1.2.5 1.5 0-.2.1-.5.3-.9s.6-1.6 1.3-3.7h.9l-2.3 6.1c-.2.6-.5 1-.8 1.3s-.7.4-1.1.4c-.2 0-.5 0-.7-.1v-.6c.2 0 .4.1.6.1.6 0 1-.3 1.2-.9l.3-.8-2.3-5.5z" class="st2"/>
  <path d="M84.7 414.1h.4s.2 0 .3-.1v.6c-.1 0-.2.1-.4.1h-.5c-1 0-1.6-.5-1.6-1.6V410h-.8v-.4l.8-.3.3-1.1h.5v1.2h1.6v.6h-1.6v3.1c0 .3.1.6.2.7s.5.3.8.3z" class="st2"/>
  <path d="M91.1 412c0 .9-.2 1.6-.7 2s-1 .7-1.8.7c-.5 0-.9-.1-1.3-.3s-.7-.5-.9-1-.3-.9-.3-1.5c0-.9.2-1.6.7-2s1-.7 1.8-.7c.7 0 1.3.2 1.8.7s.7 1.3.7 2.1zm-4.1 0c0 .7.1 1.2.4 1.6s.7.5 1.2.5.9-.2 1.2-.5.4-.9.4-1.6c0-.7-.1-1.2-.4-1.6s-.7-.5-1.2-.5-.9.2-1.2.5-.4.9-.4 1.6z" class="st2"/>
  <path d="M98.4 414.7l-.2-.8c-.3.3-.5.6-.8.7s-.6.2-1 .2c-.5 0-.9-.1-1.2-.4s-.5-.7-.5-1.2c0-1.1.9-1.6 2.6-1.7h.9v-.3c0-.4-.1-.7-.3-.9s-.5-.3-.9-.3-1 .1-1.5.4l-.2-.6c.3-.1.6-.3.9-.3s.6-.1.9-.1c.6 0 1.1.1 1.4.4s.5.7.5 1.4v3.7h-.6zm-1.8-.6c.5 0 .9-.1 1.2-.4s.4-.7.4-1.2v-.5h-.8c-.6 0-1.1.1-1.4.3s-.4.5-.4.8c0 .3.1.5.3.7s.4.3.7.3z" class="st2"/>
  <path d="M101.9 414.7l-2-5.4h.9l1.2 3.2c.3.7.4 1.2.5 1.4 0-.2.1-.5.3-1.1s.6-1.7 1.3-3.5h.9l-2 5.4h-1.1z" class="st2"/>
  <path d="M110.3 412c0 .9-.2 1.6-.7 2s-1 .7-1.8.7c-.5 0-.9-.1-1.3-.3s-.7-.5-.9-1-.3-.9-.3-1.5c0-.9.2-1.6.7-2s1-.7 1.8-.7c.7 0 1.3.2 1.8.7s.7 1.3.7 2.1zm-4.1 0c0 .7.1 1.2.4 1.6s.7.5 1.2.5.9-.2 1.2-.5.4-.9.4-1.6c0-.7-.1-1.2-.4-1.6s-.7-.5-1.2-.5-.9.2-1.2.5-.4.9-.4 1.6z" class="st2"/>
  <path d="M111.7 407.9c0-.2 0-.3.1-.4s.2-.1.3-.1c.1 0 .2 0 .3.1s.1.2.1.4 0 .3-.1.4-.2.1-.3.1c-.1 0-.3 0-.3-.1s-.1-.2-.1-.4zm.8 6.8h-.8v-5.4h.8v5.4z" class="st2"/>
  <path d="M117.9 414c-.4.5-1 .8-1.7.8s-1.2-.2-1.6-.7-.6-1.2-.6-2 .2-1.6.6-2.1.9-.7 1.6-.7c.7 0 1.3.3 1.7.8h.1v-3h.8v7.6h-.8l-.1-.7zm-1.6.1c.6 0 1-.2 1.2-.5s.4-.8.4-1.5v-.2c0-.8-.1-1.3-.4-1.6s-.7-.5-1.2-.5-.8.2-1.1.6-.4.9-.4 1.6c0 .7.1 1.2.4 1.5s.6.6 1.1.6z" class="st2"/>
  <path d="M124.7 414.1h.4s.2 0 .3-.1v.6c-.1 0-.2.1-.4.1h-.5c-1 0-1.6-.5-1.6-1.6V410h-.8v-.4l.8-.3.3-1.1h.5v1.2h1.6v.6h-1.6v3.1c0 .3.1.6.2.7s.6.3.8.3z" class="st2"/>
  <path d="M128.8 414.8c-.8 0-1.4-.2-1.9-.7s-.7-1.2-.7-2c0-.9.2-1.5.6-2.1s1-.8 1.7-.8 1.2.2 1.6.7.6 1 .6 1.7v.5H127c0 .6.2 1.1.5 1.4s.7.5 1.3.5c.6 0 1.1-.1 1.7-.4v.7c-.3.1-.6.2-.8.3s-.6.2-.9.2zm-.2-4.9c-.4 0-.8.1-1 .4s-.4.7-.5 1.2h2.8c0-.5-.1-.9-.3-1.2s-.6-.4-1-.4z" class="st2"/>
  <path d="M135.4 414.7l-.2-.8c-.3.3-.5.6-.8.7s-.6.2-1 .2c-.5 0-.9-.1-1.2-.4s-.5-.7-.5-1.2c0-1.1.9-1.6 2.6-1.7h.9v-.3c0-.4-.1-.7-.3-.9s-.5-.3-.9-.3-1 .1-1.5.4l-.2-.6c.3-.1.6-.3.9-.3s.6-.1.9-.1c.6 0 1.1.1 1.4.4s.5.7.5 1.4v3.7h-.6zm-1.8-.6c.5 0 .9-.1 1.2-.4s.4-.7.4-1.2v-.5h-.8c-.6 0-1.1.1-1.4.3s-.4.5-.4.8c0 .3.1.5.3.7s.4.3.7.3z" class="st2"/>
  <path d="M139.8 414.8c-.8 0-1.4-.2-1.8-.7s-.6-1.2-.6-2c0-.9.2-1.6.6-2.1s1-.7 1.8-.7c.3 0 .5 0 .8.1s.5.1.6.2l-.2.7c-.2-.1-.4-.1-.6-.2s-.4-.1-.6-.1c-1.1 0-1.6.7-1.6 2.1 0 .7.1 1.2.4 1.5s.7.5 1.2.5c.4 0 .9-.1 1.4-.3v.7c-.4.2-.8.3-1.4.3z" class="st2"/>
  <path d="M146.1 414.7v-3.5c0-.4-.1-.8-.3-1s-.5-.3-.9-.3c-.6 0-1 .2-1.2.5s-.4.8-.4 1.5v2.8h-.8v-7.6h.8v3c.2-.3.4-.5.7-.6s.6-.2 1-.2c.7 0 1.1.2 1.5.5s.5.8.5 1.5v3.5h-.9z" class="st2"/>
  <path d="M150.9 414.8c-.8 0-1.4-.2-1.9-.7s-.7-1.2-.7-2c0-.9.2-1.5.6-2.1s1-.8 1.7-.8 1.2.2 1.6.7.6 1 .6 1.7v.5h-3.7c0 .6.2 1.1.5 1.4s.7.5 1.3.5c.6 0 1.1-.1 1.7-.4v.7c-.3.1-.6.2-.8.3s-.6.2-.9.2zm-.3-4.9c-.4 0-.8.1-1 .4s-.4.7-.5 1.2h2.8c0-.5-.1-.9-.3-1.2s-.5-.4-1-.4z" class="st2"/>
  <path d="M156.6 409.3c.2 0 .5 0 .6.1l-.1.8c-.2 0-.4-.1-.6-.1-.4 0-.8.2-1.1.5s-.5.8-.5 1.3v2.9h-.8v-5.4h.7l.1 1c.2-.3.4-.6.7-.8s.7-.3 1-.3z" class="st2"/>
  <path d="M161.7 413.3c0 .5-.2.9-.6 1.2s-.9.4-1.6.4c-.7 0-1.3-.1-1.7-.3v-.8c.3.1.5.2.8.3s.6.1.9.1c.4 0 .7-.1 1-.2s.3-.3.3-.6c0-.2-.1-.4-.3-.5s-.5-.3-1.1-.5c-.5-.2-.9-.3-1.1-.5s-.4-.3-.5-.5-.2-.4-.2-.6c0-.4.2-.8.5-1s.8-.4 1.5-.4c.6 0 1.1.1 1.7.4l-.3.7c-.5-.2-1-.3-1.5-.3-.4 0-.7.1-.9.2s-.3.3-.3.5c0 .1 0 .3.1.4s.2.2.4.3.5.2.9.4c.6.2 1.1.5 1.3.7s.7.2.7.6z" class="st2"/>
  <path d="M170 414.7l-1-3.1c-.1-.2-.2-.6-.3-1.3-.1.6-.2 1-.3 1.3l-1 3.1h-.9l-1.5-5.4h.8c.3 1.3.6 2.4.8 3.1s.3 1.2.3 1.4c0-.2.1-.4.2-.7s.1-.5.2-.7l1-3.1h.9l1 3.1c.2.6.3 1 .4 1.4 0-.1 0-.3.1-.5s.4-1.6 1-3.9h.8l-1.5 5.4h-1z" class="st2"/>
  <path d="M177.1 414.7v-3.5c0-.4-.1-.8-.3-1s-.5-.3-.9-.3c-.6 0-1 .2-1.2.5s-.4.8-.4 1.5v2.8h-.8v-7.6h.8v3c.2-.3.4-.5.7-.6s.6-.2 1-.2c.7 0 1.1.2 1.5.5s.5.8.5 1.5v3.5h-.9z" class="st2"/>
  <path d="M184.2 412c0 .9-.2 1.6-.7 2s-1 .7-1.8.7c-.5 0-.9-.1-1.3-.3s-.7-.5-.9-1-.3-.9-.3-1.5c0-.9.2-1.6.7-2s1-.7 1.8-.7c.7 0 1.3.2 1.8.7s.7 1.3.7 2.1zm-4.1 0c0 .7.1 1.2.4 1.6s.7.5 1.2.5.9-.2 1.2-.5.4-.9.4-1.6c0-.7-.1-1.2-.4-1.6s-.7-.5-1.2-.5-.9.2-1.2.5-.4.9-.4 1.6z" class="st2"/>
  <path d="M189 414.7h-.8v-7.6h.8v7.6z" class="st2"/>
  <path d="M193 414.8c-.8 0-1.4-.2-1.9-.7s-.7-1.2-.7-2c0-.9.2-1.5.6-2.1s1-.8 1.7-.8 1.2.2 1.6.7.6 1 .6 1.7v.5h-3.7c0 .6.2 1.1.5 1.4s.7.5 1.3.5c.6 0 1.1-.1 1.7-.4v.7c-.3.1-.6.2-.8.3s-.5.2-.9.2zm-.2-4.9c-.4 0-.8.1-1 .4s-.4.7-.5 1.2h2.8c0-.5-.1-.9-.3-1.2s-.6-.4-1-.4z" class="st2"/>
  <path d="M198.5 414.8c-.8 0-1.4-.2-1.8-.7s-.6-1.2-.6-2c0-.9.2-1.6.6-2.1s1-.7 1.8-.7c.3 0 .5 0 .8.1s.5.1.6.2l-.2.7c-.2-.1-.4-.1-.6-.2s-.4-.1-.6-.1c-1.1 0-1.6.7-1.6 2.1 0 .7.1 1.2.4 1.5s.7.5 1.2.5c.4 0 .9-.1 1.4-.3v.7c-.4.2-.9.3-1.4.3z" class="st2"/>
  <path d="M202.8 414.1h.4s.2 0 .3-.1v.6c-.1 0-.2.1-.4.1h-.5c-1 0-1.6-.5-1.6-1.6V410h-.8v-.4l.8-.3.3-1.1h.5v1.2h1.6v.6H202v3.1c0 .3.1.6.2.7s.4.3.6.3z" class="st2"/>
  <path d="M205.4 409.4v3.5c0 .4.1.8.3 1s.5.3.9.3c.6 0 1-.2 1.2-.5s.4-.8.4-1.5v-2.8h.8v5.4h-.7l-.1-.7c-.2.3-.4.5-.7.6s-.6.2-1 .2c-.7 0-1.1-.2-1.5-.5s-.5-.8-.5-1.5v-3.5h.9z" class="st2"/>
  <path d="M213.2 409.3c.2 0 .5 0 .6.1l-.1.8c-.2 0-.4-.1-.6-.1-.4 0-.8.2-1.1.5s-.5.8-.5 1.3v2.9h-.8v-5.4h.7l.1 1c.2-.3.4-.6.7-.8s.7-.3 1-.3z" class="st2"/>
  <path d="M217.1 414.8c-.8 0-1.4-.2-1.9-.7s-.7-1.2-.7-2c0-.9.2-1.5.6-2.1s1-.8 1.7-.8 1.2.2 1.6.7.6 1 .6 1.7v.5h-3.7c0 .6.2 1.1.5 1.4s.7.5 1.3.5c.6 0 1.1-.1 1.7-.4v.7c-.3.1-.6.2-.8.3s-.5.2-.9.2zm-.2-4.9c-.4 0-.8.1-1 .4s-.4.7-.5 1.2h2.8c0-.5-.1-.9-.3-1.2s-.6-.4-1-.4z" class="st2"/>
  <path d="M226.4 414.7l-.2-.8c-.3.3-.5.6-.8.7s-.6.2-1 .2c-.5 0-.9-.1-1.2-.4s-.5-.7-.5-1.2c0-1.1.9-1.6 2.6-1.7h.9v-.3c0-.4-.1-.7-.3-.9s-.5-.3-.9-.3-1 .1-1.5.4l-.2-.6c.3-.1.6-.3.9-.3s.6-.1.9-.1c.6 0 1.1.1 1.4.4s.5.7.5 1.4v3.7h-.6zm-1.9-.6c.5 0 .9-.1 1.2-.4s.4-.7.4-1.2v-.5h-.8c-.6 0-1.1.1-1.4.3s-.4.5-.4.8c0 .3.1.5.3.7s.4.3.7.3z" class="st2"/>
  <path d="M232 414.7h-.8v-7.6h.8v7.6z" class="st2"/>
  <path d="M238.4 412c0 .9-.2 1.6-.7 2s-1 .7-1.8.7c-.5 0-.9-.1-1.3-.3s-.7-.5-.9-1-.3-.9-.3-1.5c0-.9.2-1.6.7-2s1-.7 1.8-.7c.7 0 1.3.2 1.8.7s.7 1.3.7 2.1zm-4.1 0c0 .7.1 1.2.4 1.6s.7.5 1.2.5.9-.2 1.2-.5.4-.9.4-1.6c0-.7-.1-1.2-.4-1.6s-.7-.5-1.2-.5-.9.2-1.2.5-.4.9-.4 1.6z" class="st2"/>
  <path d="M241.5 414.1h.4s.2 0 .3-.1v.6c-.1 0-.2.1-.4.1h-.5c-1 0-1.6-.5-1.6-1.6V410h-.8v-.4l.8-.3.3-1.1h.5v1.2h1.6v.6h-1.6v3.1c0 .3.1.6.2.7s.6.3.8.3z" class="st2"/>
  <path d="M243.2 414.2c0-.2 0-.4.1-.5s.2-.2.4-.2.3.1.4.2.2.3.2.5-.1.4-.2.5-.3.2-.4.2c-.2 0-.3-.1-.4-.2s-.1-.3-.1-.5z" class="st2"/>
  <path d="M146.7 80.1h19.5v23.6h-19.5z" class="st3"/>
  <path d="M148.2 82.1h16.5" class="st5"/>
  <path d="M148.2 84.8h16.5" class="st5"/>
  <path d="M148.2 87.5h16.5" class="st5"/>
  <path d="M148.2 90.2h16.5" class="st5"/>
  <path d="M148.2 92.9h16.5" class="st5"/>
  <path d="M148.2 95.6h16.5" class="st5"/>
  <path d="M148.2 98.4h16.5" class="st5"/>
  <path d="M148.2 101.1h16.5" class="st5"/>
  <path d="M230.3 229.9h56.1v38h-56.1z" class="st4"/>
  <path d="M210 239.2c.1.7-.8 1.4-1.2 1.6-.3.1-.7.5-.7.7 0 .2 0 1.1-.4 1.6-.2.2-.2.5-.2.8.1.5.2 1-.1 1.2-.5.2-.7.4-.9.7-.2.3.7 1.8-.7 2.9-1.4 1-2.3 1.2-3.2 1-.8-.2-1.5-.3-1.8-.1-.3.2-1.3 2.6-1.8 2.9-.2.1-.8 1.1-1.5 2.3h-1c-4.5 0-8.5-1.7-11.6-4.5 1.3-2.3 3.1-6.5 1.8-9.9-1.9-5-3.3-9.4-1.4-12.3s6.5-6.6 11.6-5.1c5.2 1.5 8.2 3.8 9.3 7.6.7 2.4 1 2.9 1 3l-.1.5c0 .1-.1.3-.2.4-.2.3-.5.8-.1 1.2 1 .3 3.1 2.9 3.2 3.5z" class="st3"/>
  <path d="M193.4 233.7v-.5c0-.7.1-1.3.3-1.7s.6-.9 1.2-1.4c.8-.7 1.3-1.2 1.5-1.6.2-.3.3-.8.3-1.3 0-.6-.2-1.1-.6-1.4-.4-.3-1-.5-1.7-.5-.5 0-.9.1-1.4.2-.4.1-1 .3-1.5.6l-.5-1.2c1.1-.6 2.3-.9 3.6-.9 1.1 0 2 .3 2.7.8.6.6 1 1.4 1 2.4 0 .4-.1.8-.2 1.2s-.3.6-.5.9c-.2.3-.7.8-1.5 1.4-.6.5-1 .9-1.2 1.3-.2.3-.3.8-.3 1.4v.3h-1.2zm-.5 2.7c0-.8.4-1.2 1.1-1.2.3 0 .6.1.8.3.2.2.3.5.3.9s-.1.7-.3.9c-.2.2-.5.3-.8.3-.3 0-.6-.1-.8-.3s-.3-.5-.3-.9z" class="st1"/>
  <path d="M200.6 242.7v-.5c0-.7.1-1.3.3-1.7s.6-.9 1.2-1.4c.8-.7 1.3-1.2 1.5-1.6.2-.3.3-.8.3-1.3 0-.6-.2-1.1-.6-1.4-.4-.3-1-.5-1.7-.5-.5 0-.9.1-1.4.2-.4.1-1 .3-1.5.6l-.5-1.2c1.1-.6 2.3-.9 3.6-.9 1.1 0 2 .3 2.7.8.6.6 1 1.4 1 2.4 0 .4-.1.8-.2 1.2s-.3.6-.5.9c-.2.3-.7.8-1.5 1.4-.6.5-1 .9-1.2 1.3-.2.3-.3.8-.3 1.4v.3h-1.2zm-.5 2.6c0-.8.4-1.2 1.1-1.2.3 0 .6.1.8.3.2.2.3.5.3.9s-.1.7-.3.9c-.2.2-.5.3-.8.3-.3 0-.6-.1-.8-.3s-.3-.4-.3-.9z" class="st1"/>
  <path d="M190.7 247.8v-.5c0-.7.1-1.3.3-1.7s.6-.9 1.2-1.4c.8-.7 1.3-1.2 1.5-1.6.2-.3.3-.8.3-1.3 0-.6-.2-1.1-.6-1.4-.4-.3-1-.5-1.7-.5-.5 0-.9.1-1.4.2-.4.1-1 .3-1.5.6l-.5-1.2c1.1-.6 2.3-.9 3.6-.9 1.1 0 2 .3 2.7.8.6.6 1 1.4 1 2.4 0 .4-.1.8-.2 1.2s-.3.6-.5.9c-.2.3-.7.8-1.5 1.4-.6.5-1 .9-1.2 1.3-.2.3-.3.8-.3 1.4v.3h-1.2zm-.4 2.7c0-.8.4-1.2 1.1-1.2.3 0 .6.1.8.3.2.2.3.5.3.9s-.1.7-.3.9c-.2.2-.5.3-.8.3-.3 0-.6-.1-.8-.3s-.3-.5-.3-.9z" class="st1"/>
  <path d="M84.6 392.3s5.4-.2 6.6-2.4c1.1-2.2-5.7.5-5.9-3.8-.2-4.3-.7-14.7-.7-14.7s-1.1-2.3 5.4-2.3c5.6 0 13.7-.7 17.9.3 1.2.3 1.2 1.5 1.4 2.2 1 3.8.9 14.5.9 14.5s.5 3.5-14.7 3.2c-.1-.1-2.5 3.4-10.9 3z" class="st3"/>
  <path d="M87.3 368h19.8" class="st6"/>
  <path d="M87.3 371.6h19.8" class="st6"/>
  <path d="M87.3 375.1h19.8" class="st6"/>
  <path d="M87.3 378.6h19.8" class="st6"/>
  <path d="M87.3 382.2h19.8" class="st6"/>
  <path d="M87.3 385.7h19.8" class="st6"/>
  <path d="M84.3 21.3l9.5 7.1L108 6.6l3.2 5.8-16.9 18.4-10.2-4.7z" class="st3"/>
  <path d="M202.1 170.8v-4.7h-2c-2.3 0-4.3 1.9-4.3 4.3v10.1h-10.3V160c0-2.3 1.9-4.3 4.3-4.3h12.4v-3.9c0-.5.6-.7.9-.4l9.8 9.8-9.8 9.8c-.4.5-1 .3-1-.2z" class="st3"/>
  <path d="M16.7 84.4s-.5-3.2 7.3-5 16.5-3.2 23.4 4.1c6.9 7.3 18.8 17 18.8 17s6.9-.9 12.4 9.2 7.8 12.4 10.6 13.8c2.8 1.4 6 8.3 6 9.6 0 1.4 16.1 11.9 17.4 19.7s1.8 11 1.8 11 8.7 6.4 7.3 14.2c0 0 5.5 7.3 6.4 17.9.9 10.6 0 18.8-4.6 18.8 0 0 1.8 23.4-3.2 28.4 0 0 0 28.4-15.6 42.7 0 0 3.2 6.9 1.8 9.6s-4.1 6-4.6 8.7 0 17.4-7.8 21.1c0 0-6.4 9.6-6.4 11.5s-1.4 15.6-17.4 18.3c0 0-1.4 6.4-10.6 8.3 0 0-5.5 12.8-25.7 13.3-11.7.3-19.1-.9-23.6-3.8-4.5-3-5.7-9.1-2.8-13.6 1.2-1.9 2.4-4 2.6-5.5.5-3.2-5-19.3-2.3-22.9s4.1-12.4 3.7-14.7c-.5-2.3 0-16.1 1.8-16.5s-2.3-9.2 2.8-17.4c0 0-8.7-15.1-4.1-32.6 0 0-3.7-9.2-2.3-14.7 1.4-5.5-3.7-13.3.9-28.4 4.6-15.1 0-18.3 0-22.5s3.7-17.4 3.7-17.4-8.7-6.9-5.5-27.1 4.6-17.9 4.6-17.9-1.4-4.6-.5-6.9 1.4-4.1.9-6.9c-.4-2.8 2.8-23.4 2.8-23.4z" class="st0"/>
  <path d="M10.6 78.6s-.5-3.2 7.3-5c7.8-1.8 16.5-3.2 23.4 4.1 6.9 7.3 18.8 17 18.8 17s6.9-.9 12.4 9.2 7.8 12.4 10.6 13.8 6 8.3 6 9.6c0 1.4 16.1 11.9 17.4 19.7s1.8 11 1.8 11 8.7 6.4 7.3 14.2c0 0 5.5 7.3 6.4 17.9.9 10.6 0 18.8-4.6 18.8 0 0 1.8 23.4-3.2 28.4 0 0 0 28.4-15.6 42.7 0 0 3.2 6.9 1.8 9.6s-4.1 6-4.6 8.7 0 17.4-7.8 21.1c0 0-6.4 9.6-6.4 11.5s-1.4 15.6-17.4 18.3c0 0-1.4 6.4-10.6 8.3 0 0-5.5 12.8-25.7 13.3-11.6.3-19-.8-23.5-3.8s-5.7-9.1-2.8-13.6c1.2-1.9 2.4-4 2.6-5.5.5-3.2-5-19.3-2.3-22.9s4.1-12.4 3.7-14.7c-.5-2.3 0-16.1 1.8-16.5s-2.3-9.2 2.8-17.4c0 0-8.7-15.1-4.1-32.6 0 0-3.7-9.2-2.3-14.7 1.4-5.5-3.7-13.3.9-28.4 4.6-15.1 0-18.3 0-22.5s3.7-17.4 3.7-17.4-8.7-6.9-5.5-27.1 4.6-17.9 4.6-17.9-1.4-4.6-.5-6.9c.9-2.3 1.4-4.1.9-6.9s2.7-23.4 2.7-23.4z" class="st1"/>
  <path d="M60.1 94.7s-4.5.8-6.1 7.1c-1.6 6.3.3 10.6 2.1 11.9s6.1 3.7 6.3 6.3 5.3 9.5 5.3 9.5-8.2-5.8-8.2-9.2-8.7-5-8.7-7.4-4.4-17.7 9.3-18.2z" class="st7"/>
  <path d="M89 127.2s-.4 6-5.7 7.8c-5.3 1.8-9 .3-9 .3s1.1 2.6 11.9.3c10.9-2.4 2.8-8.4 2.8-8.4z" class="st7"/>
  <path d="M108.3 158s-7.8-4.7-10.9-.8c-3.2 4-9 10.3-5 13.5 4 3.2 14 6.9 14.5 10.3.5 3.4-.5 13.5-.8 14.8 0 0-2.1-16.9-13.2-20.6s-1.3-20.3 1.8-20.9c3.2-.5 12.4-2.2 13.6 3.7z" class="st7"/>
  <path d="M117.5 208.9s-10.1-2.1-10.6-6.8c-.1 0-3.9 7 10.6 6.8z" class="st7"/>
  <path d="M8.3 160.7s13.6 3.4 15.2-8.8c1.6-12.1-2.9-14.8-2.9-14.8s11.3 11.1 2.4 22.4c-9.1 11.5-14.7 1.2-14.7 1.2z" class="st7"/>
  <path d="M7.4 115.8s.8-10.3 7.9-6.6c5.5 4.5 4.8 12.7 4.8 12.7s2.1-12.7-3.4-16.1c-5.5-3.4-8.7.5-8.7.5s-2.2 4.7-.6 9.5z" class="st7"/>
  <path d="M6 243.8s.5-12.2 15.2-8.5 17.5 20 17.5 21.2c0 1.2-2.2 12.9.3 15.7s.3 13.2.3 13.2 6.2-11.1 3.1-16-2.2-10.8-1.2-12.3-5.2-27.1-19.7-28c-14.5-.9-9.8 3.1-12.6 4.3-2.8 1.2-5.5-.6-5.5-.6s.9 9.6 2.6 11z" class="st7"/>
  <path d="M7.8 293.2s4.8 13.7 17.5 7.6c8-4.9 10.2-7.7 10.2-7.7s-7.4 14.8-17.9 13.5c-10.5-1.2-12.1-3-12.1-3s0-4.5.8-7.7c.3-1.2.9-2.1 1.5-2.7z" class="st7"/>
  <path d="M4.2 347.9s-1-6.7 12.1-5.4 17.6 5.1 21.9.8c4.3-4.3 10.9 1.6 10.9 1.6s-6.7-8.8-13.3-5.9c-6.7 2.9-7.2 4-9.3 2.9-2.2-1-23.5-8.1-22.3 6z" class="st7"/>
  <path d="M53.7 357.5s.2-6-1.7-7.8c0 0 4.5 2.9 1.7 7.8z" class="st7"/>
  <path d="M98.6 280s-6.9-10.8-14.9-8.2-12.8 17.6-12 22.7c0 0 0-24.3 13.3-26.9s11.2 2.7 15.2 1.3c4-1.3 8.5-4.3 8.5-4.3s-3.6 10.5-10.1 15.4z" class="st7"/>
  <path d="M64.2 349.3s-17.1-12.1-9.3-20.4c7.7-8.3 10.1-12.8 10.1-12.8s-10.6 9.9-13 11.2-6.7 9.3.5 15.5 8 11.7 8 11.7 1.9-.9 3.7-5.2z" class="st7"/>
  <path d="M64.1 191.6s3.6-14.7 14.7-16c0 0-6.5-5.5-13.7 1.3s-4.9 29.7-2.6 35.9c2.3 6.2 5.9 13 2.6 18.3-3.3 5.2-10.1 16.9-4.6 21.2 0 0-5.5-5.5 5.2-15.6 10.8-10.1-.7-24.8-1.3-27.1-.6-2.3-.3-18-.3-18z" class="st7"/>
  <path d="M108.1 217.7s-2 24.8-17.3 35.2c-15.3 10.4-24.4 4.9-24.4 4.9s10.1 9.5 26.1-2.3 15.6-37.8 15.6-37.8z" class="st7"/>
  <path d="M61.5 160.4s3.3 10.8-13.7 14.7-19.2 10.1-13.7 11.7 16.3-4.2 18.9 1c1.9 6.2 1.5 12.5-1.3 18.9 0 0 9.1-15.3 4.9-22.8-4.2-7.5 2.3-8.1 4.9-12.4 2.6-4.3 0-11.1 0-11.1z" class="st7"/>
  <path d="M33.4 152.1s14.5-5.9 22.6-.8c0 0-9.9-9.7-22.6.8z" class="st7"/>
  <path d="M44.7 213.2s-17.2 7.8-30.1.8c-12.9-7-10-13.4-10-13.4s-3 13.9 6.2 16.1c9.2 2.2 27.7 5.7 33.9-3.5z" class="st7"/>
  <path d="M46.3 268.4s3-7.3 14.8-6.5 12.9 5.9 12.9 5.9-1.3-8.1-14.8-8.6-14.3-4-14.3-4 4.1 5.7 1.4 13.2z" class="st7"/>
  <path d="M72.9 276.8s-6 18.9-6 23.3-8.8 18.2-13.2 20.8-8.5 12.9-8.5 12.9 0-15.7 8.5-19.8c8.5-4.1 10.4-13.8 11-18.9s8.2-18.3 8.2-18.3z" class="st7"/>
  <path d="M24.5 309.8s-6 8.2-2.5 14.8 12.6 8.8 12.6 8.8-14.5 1.3-17-3.5.6-16.6 6.9-20.1z" class="st7"/>
  <path d="M81.6 141.2s8.8 9.1 2.9 19.7-17.7 6.5-17.7 6.5 10.6 8 19.1-3.8c8.6-11.8-4.3-22.4-4.3-22.4z" class="st7"/>
  <path d="M25.6 115.3s-1.8 8.2 3.2 14.1 13.3 12.1 19.7 13.5 10.3 7.4 10.3 7.4-11.2-7.7-18.6-8.2c-7.2-.6-21.1-15.9-14.6-26.8z" class="st7"/>
  <path d="M49.2 113s-15.3-4.3-19.2-2.3c0 .1 5.2-8.1 19.2 2.3z" class="st7"/>
  <path d="M12.8 168.7s-4.5 9.6-4.9 13.4c0 0-4.2-8.7 4.9-13.4z" class="st7"/>
  <path d="M14.7 103s14.5.8 11.7-8.5c0 0-5.5-5.3-5.1-7.2.4-1.9 7.9-8.9 9.4-1.5 3 6.8 4 10 6.6 10 0 0-7.9-.8-8.5-5.7-.6-4.9-3.4 1.1-1.7 1.7 1.7.7 6.4 15.8-12.4 11.2z" class="st7"/>
  <path d="M50.4 86.5s1.7 2.7 1.3 4.1c-.6 2.8-3.9 5.3-7.1 5.4 0 0 5.8-.6 8.3-2.3 2.5-1.7 4.5-1.3 4.5-1.3l-7-5.9z" class="st7"/>
</svg>
