<?xml version="1.0" encoding="utf-8"?>
<!-- Generator: Adobe Illustrator 19.1.0, SVG Export Plug-In . SVG Version: 6.00 Build 0)  -->
<svg version="1.1" id="Layer_1" xmlns="http://www.w3.org/2000/svg" xmlns:xlink="http://www.w3.org/1999/xlink" x="0px" y="0px"
	 width="283.9px" height="140.3px" viewBox="0 0 283.9 140.3" style="enable-background:new 0 0 283.9 140.3;" xml:space="preserve"
	>
<style type="text/css">
	.st0{fill:#B17F60;}
	.st1{fill:#344B62;}
	.st2{fill:#F26F5B;}
	.st3{fill:#FCD4BB;}
</style>
<path class="st0" d="M280,6.8H12.1c-2.2,0-3.9,1.7-3.9,3.9v125.7c0,2.2,1.7,3.9,3.9,3.9H280c2.2,0,3.9-1.7,3.9-3.9V10.7
	C283.9,8.5,282.1,6.8,280,6.8z"/>
<path class="st1" d="M271.8,0H3.9C1.7,0,0,1.7,0,3.9v125.7c0,2.2,1.7,3.9,3.9,3.9h267.9c2.2,0,3.9-1.7,3.9-3.9V3.9
	C275.7,1.7,273.9,0,271.8,0z"/>
<path class="st2" d="M179.8,51.6C179.8,51.6,179.8,51.6,179.8,51.6c0.1-0.6,0.4-3.5,0.4-4.2c-0.1-0.7,0.4-1.8,0.4-2c0,0,0,0,0,0
	c0.1-0.1,0.5-0.7,1-1.6c0.6-1,1-2.8,1.3-3.1c0.3-0.4,1.5-2.6,1.9-4s0.8-4.5,1-5.1c0.2-0.6,0.5-1.5,0.5-2.4s0.5-2.3,0.4-2.5
	c0-0.2,0-2,1-3.6c0.5-0.8,0.7-1.5,0.8-2c0.1-0.7,0.3-1.4,0.6-2.1c0.2-0.4,0.3-0.8,0.3-0.9c0.1-0.3,1.6-3.9,0.8-4.6
	c-0.7-0.6-1.3-0.6-1.3-0.6c0,0,0,0,0,0c-0.1,0-0.9,0.3-1.6,2.3c-0.7,1.9-1,2.4-1.1,2.5c0,0,0,0,0,0c-0.1,0.2-0.6,1.8-0.8,1.9
	c-0.2,0.2-1.1,2-1.2,2.8c-0.1,0.7-0.6,2.1-1.4,1.7c-0.8-0.4-0.9-0.8-0.9-1.5c0-0.7,0-3.4,0.4-4.3c0.4-0.8,0.2-2.5,0.2-2.6
	c0,0,0,0,0,0l-0.1-3.7c0,0,0,0,0,0c0-0.2,0.1-4.5-0.4-5.1c-0.5-0.6-1.1-1.5-2.4-0.9c0,0-0.6,0.1-0.7,2.9c0,2.8,0,4.9-0.2,5.6
	c-0.3,0.7-0.4,3.9-0.4,4.1s0.2,2.7,0,2.7s-1-0.4-1-1.1c0-0.7,0-3.8,0-4c0-0.3,0-2.2-0.3-3.4c-0.3-1.2-0.2-3.4-0.2-3.4s0-3.9-0.1-4.1
	c0-0.2,0.2-1.7-1.5-1.9c-1.6-0.2-1.9,1.7-1.9,1.8c0,0,0,0,0,0c0,0.1-0.2,3.2-0.2,3.8c0,0.7,0,2.6,0,3.4c0,0.8,0,3.8,0.2,4.7
	c0.2,1,0.5,3.6,0.3,3.8c-0.3,0.2-1.3,0-1.3-0.3s-1-6.4-1.3-7c-0.3-0.6-0.7-4-0.7-4s-0.4-4-2.2-4c-1.8,0-1.6,2.4-1.6,3
	s0.4,2.3,0.4,3.1c0,0.9,0,4,0.5,5.5c0.5,1.5,1,4.8,0.9,6.6c-0.1,1.8,0.2,4-1.5,5.7c-1.7,1.6-4.2-0.4-4.4-0.5c0,0,0,0,0,0
	c-0.2-0.2-4.2-4.8-8.4-3.7c0,0,0,0,0,0c-0.2,0.1-2.1,1.1-1,2.5c0,0,0.1,0,0.1,0.1c0.3,0.1,2.4,0.7,2.8,1.6c0.4,0.8,1.6,1.2,1.9,1.2
	c0,0,0,0,0.1,0c0.3,0.2,2.4,1.9,2.8,3c0.5,1.1,3,2.9,3.5,3.3s2.8,3.1,2.8,3.1s1.1,1.4,1.8,1.5c0.1,0,0.1,0.1,0.1,0.1
	c0,0.4,0.1,1.5-0.5,2.6c-0.7,1.3-0.8,2.7-1.2,3.9c-0.3,1-1.1,2.8-1.3,3.4c0,0.1,0,0.2,0.2,0.2h13.7
	C179.7,51.7,179.8,51.7,179.8,51.6L179.8,51.6z"/>
<path class="st2" d="M225.7,51.6C225.7,51.6,225.7,51.6,225.7,51.6c0.1-0.6,0.4-3.5,0.4-4.2c-0.1-0.7,0.4-1.8,0.4-2c0,0,0,0,0,0
	c0.1-0.1,0.5-0.7,1-1.6c0.6-1,1-2.8,1.3-3.1c0.3-0.4,1.5-2.6,1.9-4s0.8-4.5,1-5.1c0.2-0.6,0.5-1.5,0.5-2.4s0.5-2.3,0.4-2.5
	c0-0.2,0-2,1-3.6c0.5-0.8,0.7-1.5,0.8-2c0.1-0.7,0.3-1.4,0.6-2.1c0.2-0.4,0.3-0.8,0.3-0.9c0.1-0.3,1.6-3.9,0.8-4.6
	c-0.7-0.6-1.3-0.6-1.3-0.6c0,0,0,0,0,0c-0.1,0-0.9,0.3-1.6,2.3c-0.7,1.9-1,2.4-1.1,2.5c0,0,0,0,0,0c-0.1,0.2-0.6,1.8-0.8,1.9
	c-0.2,0.2-1.1,2-1.2,2.8c-0.1,0.7-0.6,2.1-1.4,1.7c-0.8-0.4-0.9-0.8-0.9-1.5c0-0.7,0-3.4,0.4-4.3c0.4-0.8,0.2-2.5,0.2-2.6
	c0,0,0,0,0,0l-0.1-3.7c0,0,0,0,0,0c0-0.2,0.1-4.5-0.4-5.1c-0.5-0.6-1.1-1.5-2.4-0.9c0,0-0.6,0.1-0.7,2.9c0,2.8,0,4.9-0.2,5.6
	c-0.3,0.7-0.4,3.9-0.4,4.1s0.2,2.7,0,2.7s-1-0.4-1-1.1c0-0.7,0-3.8,0-4c0-0.3,0-2.2-0.3-3.4c-0.3-1.2-0.2-3.4-0.2-3.4s0-3.9-0.1-4.1
	c0-0.2,0.2-1.7-1.5-1.9c-1.6-0.2-1.9,1.7-1.9,1.8c0,0,0,0,0,0c0,0.1-0.2,3.2-0.2,3.8c0,0.7,0,2.6,0,3.4c0,0.8,0,3.8,0.2,4.7
	c0.2,1,0.5,3.6,0.3,3.8c-0.3,0.2-1.3,0-1.3-0.3s-1-6.4-1.3-7c-0.3-0.6-0.7-4-0.7-4s-0.4-4-2.2-4c-1.8,0-1.6,2.4-1.6,3
	s0.4,2.3,0.4,3.1c0,0.9,0,4,0.5,5.5c0.5,1.5,1,4.8,0.9,6.6c-0.1,1.8,0.2,4-1.5,5.7c-1.7,1.6-4.2-0.4-4.4-0.5c0,0,0,0,0,0
	c-0.2-0.2-4.2-4.8-8.4-3.7c0,0,0,0,0,0c-0.2,0.1-2.1,1.1-1,2.5c0,0,0.1,0,0.1,0.1c0.3,0.1,2.4,0.7,2.8,1.6c0.4,0.8,1.6,1.2,1.9,1.2
	c0,0,0,0,0.1,0c0.3,0.2,2.4,1.9,2.8,3c0.5,1.1,3,2.9,3.5,3.3s2.8,3.1,2.8,3.1s1.1,1.4,1.8,1.5c0.1,0,0.1,0.1,0.1,0.1
	c0,0.4,0.1,1.5-0.5,2.6c-0.7,1.3-0.8,2.7-1.2,3.9c-0.3,1-1.1,2.8-1.3,3.4c0,0.1,0,0.2,0.2,0.2h13.7
	C225.6,51.7,225.7,51.7,225.7,51.6L225.7,51.6z"/>
<path class="st2" d="M133.9,51.6C133.9,51.6,133.9,51.6,133.9,51.6c0.1-0.6,0.4-3.5,0.4-4.2c-0.1-0.7,0.4-1.8,0.4-2c0,0,0,0,0,0
	c0.1-0.1,0.5-0.7,1-1.6c0.6-1,1-2.8,1.3-3.1c0.3-0.4,1.5-2.6,1.9-4c0.4-1.4,0.8-4.5,1-5.1s0.5-1.5,0.5-2.4s0.5-2.3,0.4-2.5
	c0-0.2,0-2,1-3.6c0.5-0.8,0.7-1.5,0.8-2c0.1-0.7,0.3-1.4,0.6-2.1c0.2-0.4,0.3-0.8,0.3-0.9c0.1-0.3,1.6-3.9,0.8-4.6
	c-0.7-0.6-1.3-0.6-1.3-0.6c0,0,0,0,0,0c-0.1,0-0.9,0.3-1.6,2.3c-0.7,1.9-1,2.4-1.1,2.5c0,0,0,0,0,0c-0.1,0.2-0.6,1.8-0.8,1.9
	c-0.2,0.2-1.1,2-1.2,2.8s-0.6,2.1-1.4,1.7c-0.8-0.4-0.9-0.8-0.9-1.5c0-0.7,0-3.4,0.4-4.3c0.4-0.8,0.2-2.5,0.2-2.6c0,0,0,0,0,0
	l-0.1-3.7c0,0,0,0,0,0c0-0.2,0.1-4.5-0.4-5.1c-0.5-0.6-1.1-1.5-2.4-0.9c0,0-0.6,0.1-0.7,2.9s0,4.9-0.2,5.6c-0.3,0.7-0.4,3.9-0.4,4.1
	s0.2,2.7,0,2.7s-1-0.4-1-1.1s0-3.8,0-4c0-0.3,0-2.2-0.3-3.4c-0.3-1.2-0.2-3.4-0.2-3.4s0-3.9-0.1-4.1c0-0.2,0.2-1.7-1.5-1.9
	c-1.6-0.2-1.9,1.7-1.9,1.8c0,0,0,0,0,0c0,0.1-0.2,3.2-0.2,3.8c0,0.7,0,2.6,0,3.4c0,0.8,0,3.8,0.2,4.7s0.5,3.6,0.3,3.8
	c-0.3,0.2-1.3,0-1.3-0.3c0-0.3-1-6.4-1.3-7c-0.3-0.6-0.7-4-0.7-4s-0.4-4-2.2-4s-1.6,2.4-1.6,3s0.4,2.3,0.4,3.1c0,0.9,0,4,0.5,5.5
	c0.5,1.5,1,4.8,0.9,6.6c-0.1,1.8,0.2,4-1.5,5.7c-1.7,1.6-4.2-0.4-4.4-0.5c0,0,0,0,0,0c-0.2-0.2-4.2-4.8-8.4-3.7c0,0,0,0,0,0
	c-0.2,0.1-2.1,1.1-1,2.5c0,0,0.1,0,0.1,0.1c0.3,0.1,2.4,0.7,2.8,1.6c0.4,0.8,1.6,1.2,1.9,1.2c0,0,0,0,0.1,0c0.3,0.2,2.4,1.9,2.8,3
	c0.5,1.1,3,2.9,3.5,3.3c0.5,0.4,2.8,3.1,2.8,3.1s1.1,1.4,1.8,1.5c0.1,0,0.1,0.1,0.1,0.1c0,0.4,0.1,1.5-0.5,2.6
	c-0.7,1.3-0.8,2.7-1.2,3.9c-0.3,1-1.1,2.8-1.3,3.4c0,0.1,0,0.2,0.2,0.2h13.7C133.8,51.7,133.8,51.7,133.9,51.6L133.9,51.6z"/>
<path class="st2" d="M88,51.6C88,51.6,88,51.6,88,51.6c0.1-0.6,0.4-3.5,0.4-4.2c-0.1-0.7,0.4-1.8,0.4-2c0,0,0,0,0,0
	c0.1-0.1,0.5-0.7,1-1.6c0.6-1,1-2.8,1.3-3.1c0.3-0.4,1.5-2.6,1.9-4c0.4-1.4,0.8-4.5,1-5.1s0.5-1.5,0.5-2.4s0.5-2.3,0.4-2.5
	c0-0.2,0-2,1-3.6c0.5-0.8,0.7-1.5,0.8-2c0.1-0.7,0.3-1.4,0.6-2.1c0.2-0.4,0.3-0.8,0.3-0.9c0.1-0.3,1.6-3.9,0.8-4.6
	c-0.7-0.6-1.3-0.6-1.3-0.6c0,0,0,0,0,0c-0.1,0-0.9,0.3-1.6,2.3c-0.7,1.9-1,2.4-1.1,2.5c0,0,0,0,0,0c-0.1,0.2-0.6,1.8-0.8,1.9
	c-0.2,0.2-1.1,2-1.2,2.8c-0.1,0.7-0.6,2.1-1.4,1.7c-0.8-0.4-0.9-0.8-0.9-1.5c0-0.7,0-3.4,0.4-4.3c0.4-0.8,0.2-2.5,0.2-2.6
	c0,0,0,0,0,0L90.5,12c0,0,0,0,0,0c0-0.2,0.1-4.5-0.4-5.1C89.6,6.3,89,5.3,87.7,6c0,0-0.6,0.1-0.7,2.9s0,4.9-0.2,5.6
	c-0.3,0.7-0.4,3.9-0.4,4.1s0.2,2.7,0,2.7c-0.3,0-1-0.4-1-1.1s0-3.8,0-4c0-0.3,0-2.2-0.3-3.4S85,9.4,85,9.4s0-3.9-0.1-4.1
	c0-0.2,0.2-1.7-1.5-1.9c-1.6-0.2-1.9,1.7-1.9,1.8c0,0,0,0,0,0c0,0.1-0.2,3.2-0.2,3.8c0,0.7,0,2.6,0,3.4c0,0.8,0,3.8,0.2,4.7
	s0.5,3.6,0.3,3.8c-0.3,0.2-1.3,0-1.3-0.3c0-0.3-1-6.4-1.3-7c-0.3-0.6-0.7-4-0.7-4s-0.4-4-2.2-4s-1.6,2.4-1.6,3s0.4,2.3,0.4,3.1
	c0,0.9,0,4,0.5,5.5c0.5,1.5,1,4.8,0.9,6.6c-0.1,1.8,0.2,4-1.5,5.7c-1.7,1.6-4.2-0.4-4.4-0.5c0,0,0,0,0,0c-0.2-0.2-4.2-4.8-8.4-3.7
	c0,0,0,0,0,0c-0.2,0.1-2.1,1.1-1,2.5c0,0,0.1,0,0.1,0.1c0.3,0.1,2.4,0.7,2.8,1.6c0.4,0.8,1.6,1.2,1.9,1.2c0,0,0,0,0.1,0
	c0.3,0.2,2.4,1.9,2.8,3c0.5,1.1,3,2.9,3.5,3.3C72.7,37.2,75,40,75,40s1.1,1.4,1.8,1.5c0.1,0,0.1,0.1,0.1,0.1c0,0.4,0.1,1.5-0.5,2.6
	c-0.7,1.3-0.8,2.7-1.2,3.9c-0.3,1-1.1,2.8-1.3,3.4c0,0.1,0,0.2,0.2,0.2h13.7C87.9,51.7,87.9,51.7,88,51.6L88,51.6z"/>
<path class="st2" d="M42.1,51.6C42.1,51.6,42.1,51.6,42.1,51.6c0.1-0.6,0.4-3.5,0.4-4.2c-0.1-0.7,0.4-1.8,0.4-2c0,0,0,0,0,0
	c0.1-0.1,0.5-0.7,1-1.6c0.6-1,1-2.8,1.3-3.1c0.3-0.4,1.5-2.6,1.9-4c0.4-1.4,0.8-4.5,1-5.1s0.5-1.5,0.5-2.4s0.5-2.3,0.4-2.5
	c0-0.2,0-2,1-3.6c0.5-0.8,0.7-1.5,0.8-2c0.1-0.7,0.3-1.4,0.6-2.1c0.2-0.4,0.3-0.8,0.3-0.9c0.1-0.3,1.6-3.9,0.8-4.6
	c-0.7-0.6-1.3-0.6-1.3-0.6c0,0,0,0,0,0c-0.1,0-0.9,0.3-1.6,2.3c-0.7,1.9-1,2.4-1.1,2.5c0,0,0,0,0,0c-0.1,0.2-0.6,1.8-0.8,1.9
	c-0.2,0.2-1.1,2-1.2,2.8c-0.1,0.7-0.6,2.1-1.4,1.7c-0.8-0.4-0.9-0.8-0.9-1.5c0-0.7,0-3.4,0.4-4.3c0.4-0.8,0.2-2.5,0.2-2.6
	c0,0,0,0,0,0L44.6,12c0,0,0,0,0,0c0-0.2,0.1-4.5-0.4-5.1c-0.5-0.6-1.1-1.5-2.4-0.9c0,0-0.6,0.1-0.7,2.9c0,2.8,0,4.9-0.2,5.6
	c-0.3,0.7-0.4,3.9-0.4,4.1s0.2,2.7,0,2.7s-1-0.4-1-1.1s0-3.8,0-4c0-0.3,0-2.2-0.3-3.4s-0.2-3.4-0.2-3.4s0-3.9-0.1-4.1
	c0-0.2,0.2-1.7-1.5-1.9c-1.6-0.2-1.9,1.7-1.9,1.8c0,0,0,0,0,0c0,0.1-0.2,3.2-0.2,3.8c0,0.7,0,2.6,0,3.4c0,0.8,0,3.8,0.2,4.7
	c0.2,1,0.5,3.6,0.3,3.8c-0.3,0.2-1.3,0-1.3-0.3c0-0.3-1-6.4-1.3-7c-0.3-0.6-0.7-4-0.7-4s-0.4-4-2.2-4c-1.8,0-1.6,2.4-1.6,3
	s0.4,2.3,0.4,3.1c0,0.9,0,4,0.5,5.5c0.5,1.5,1,4.8,0.9,6.6c-0.1,1.8,0.2,4-1.5,5.7c-1.7,1.6-4.2-0.4-4.4-0.5c0,0,0,0,0,0
	c-0.2-0.2-4.2-4.8-8.4-3.7c0,0,0,0,0,0c-0.2,0.1-2.1,1.1-1,2.5c0,0,0.1,0,0.1,0.1c0.3,0.1,2.4,0.7,2.8,1.6c0.4,0.8,1.6,1.2,1.9,1.2
	c0,0,0,0,0.1,0c0.3,0.2,2.4,1.9,2.8,3c0.5,1.1,3,2.9,3.5,3.3c0.5,0.4,2.8,3.1,2.8,3.1s1.1,1.4,1.8,1.5c0.1,0,0.1,0.1,0.1,0.1
	c0,0.4,0.1,1.5-0.5,2.6c-0.7,1.3-0.8,2.7-1.2,3.9c-0.3,1-1.1,2.8-1.3,3.4c0,0.1,0,0.2,0.2,0.2h13.7C42,51.7,42,51.7,42.1,51.6
	L42.1,51.6z"/>
<path class="st2" d="M179.8,108.9C179.8,108.9,179.8,108.8,179.8,108.9c0.1-0.6,0.4-3.5,0.4-4.2c-0.1-0.7,0.4-1.8,0.4-2c0,0,0,0,0,0
	c0.1-0.1,0.5-0.7,1-1.6c0.6-1,1-2.8,1.3-3.1c0.3-0.4,1.5-2.6,1.9-4s0.8-4.5,1-5.1c0.2-0.6,0.5-1.5,0.5-2.4s0.5-2.3,0.4-2.5
	c0-0.2,0-2,1-3.6c0.5-0.8,0.7-1.5,0.8-2c0.1-0.7,0.3-1.4,0.6-2.1c0.2-0.4,0.3-0.8,0.3-0.9c0.1-0.3,1.6-3.9,0.8-4.6
	c-0.7-0.6-1.3-0.6-1.3-0.6c0,0,0,0,0,0c-0.1,0-0.9,0.3-1.6,2.3c-0.7,1.9-1,2.4-1.1,2.5c0,0,0,0,0,0c-0.1,0.2-0.6,1.8-0.8,1.9
	c-0.2,0.2-1.1,2-1.2,2.8c-0.1,0.7-0.6,2.1-1.4,1.7c-0.8-0.4-0.9-0.8-0.9-1.5s0-3.4,0.4-4.3c0.4-0.8,0.2-2.5,0.2-2.6c0,0,0,0,0,0
	l-0.1-3.7c0,0,0,0,0,0c0-0.2,0.1-4.5-0.4-5.1c-0.5-0.6-1.1-1.5-2.4-0.9c0,0-0.6,0.1-0.7,2.9c0,2.8,0,4.9-0.2,5.6
	c-0.3,0.7-0.4,3.9-0.4,4.1c0,0.3,0.2,2.7,0,2.7s-1-0.4-1-1.1s0-3.8,0-4c0-0.3,0-2.2-0.3-3.4c-0.3-1.2-0.2-3.4-0.2-3.4s0-3.9-0.1-4.1
	c0-0.2,0.2-1.7-1.5-1.9c-1.6-0.2-1.9,1.7-1.9,1.8c0,0,0,0,0,0c0,0.1-0.2,3.2-0.2,3.8c0,0.7,0,2.6,0,3.4c0,0.8,0,3.8,0.2,4.7
	c0.2,1,0.5,3.6,0.3,3.8c-0.3,0.2-1.3,0-1.3-0.3c0-0.3-1-6.4-1.3-7c-0.3-0.6-0.7-4-0.7-4s-0.4-4-2.2-4c-1.8,0-1.6,2.4-1.6,3
	s0.4,2.3,0.4,3.1s0,4,0.5,5.5c0.5,1.5,1,4.8,0.9,6.6s0.2,4-1.5,5.7c-1.7,1.6-4.2-0.4-4.4-0.5c0,0,0,0,0,0c-0.2-0.2-4.2-4.8-8.4-3.7
	c0,0,0,0,0,0c-0.2,0.1-2.1,1.1-1,2.5c0,0,0.1,0,0.1,0.1c0.3,0.1,2.4,0.7,2.8,1.6c0.4,0.8,1.6,1.2,1.9,1.2c0,0,0,0,0.1,0
	c0.3,0.2,2.4,1.9,2.8,3c0.5,1.1,3,2.9,3.5,3.3c0.5,0.4,2.8,3.1,2.8,3.1s1.1,1.4,1.8,1.5c0.1,0,0.1,0.1,0.1,0.1
	c0,0.4,0.1,1.5-0.5,2.6c-0.7,1.3-0.8,2.7-1.2,3.9c-0.3,1-1.1,2.8-1.3,3.4c0,0.1,0,0.2,0.2,0.2h13.7
	C179.7,108.9,179.8,108.9,179.8,108.9L179.8,108.9z"/>
<path class="st3" d="M225.7,108.9C225.7,108.9,225.7,108.8,225.7,108.9c0.1-0.6,0.4-3.5,0.4-4.2c-0.1-0.7,0.4-1.8,0.4-2c0,0,0,0,0,0
	c0.1-0.1,0.5-0.7,1-1.6c0.6-1,1-2.8,1.3-3.1s1.5-2.6,1.9-4s0.8-4.5,1-5.1c0.2-0.6,0.5-1.5,0.5-2.4s0.5-2.3,0.4-2.5c0-0.2,0-2,1-3.6
	c0.5-0.8,0.7-1.5,0.8-2c0.1-0.7,0.3-1.4,0.6-2.1c0.2-0.4,0.3-0.8,0.3-0.9c0.1-0.3,1.6-3.9,0.8-4.6c-0.7-0.6-1.3-0.6-1.3-0.6
	c0,0,0,0,0,0c-0.1,0-0.9,0.3-1.6,2.3c-0.7,1.9-1,2.4-1.1,2.5c0,0,0,0,0,0c-0.1,0.2-0.6,1.8-0.8,1.9c-0.2,0.2-1.1,2-1.2,2.8
	c-0.1,0.7-0.6,2.1-1.4,1.7c-0.8-0.4-0.9-0.8-0.9-1.5s0-3.4,0.4-4.3c0.4-0.8,0.2-2.5,0.2-2.6c0,0,0,0,0,0l-0.1-3.7c0,0,0,0,0,0
	c0-0.2,0.1-4.5-0.4-5.1c-0.5-0.6-1.1-1.5-2.4-0.9c0,0-0.6,0.1-0.7,2.9c0,2.8,0,4.9-0.2,5.6c-0.3,0.7-0.4,3.9-0.4,4.1
	c0,0.3,0.2,2.7,0,2.7c-0.3,0-1-0.4-1-1.1s0-3.8,0-4c0-0.3,0-2.2-0.3-3.4c-0.3-1.2-0.2-3.4-0.2-3.4s0-3.9-0.1-4.1s0.2-1.7-1.5-1.9
	c-1.6-0.2-1.9,1.7-1.9,1.8c0,0,0,0,0,0c0,0.1-0.2,3.2-0.2,3.8c0,0.7,0,2.6,0,3.4c0,0.8,0,3.8,0.2,4.7c0.2,1,0.5,3.6,0.3,3.8
	c-0.3,0.2-1.3,0-1.3-0.3c0-0.3-1-6.4-1.3-7c-0.3-0.6-0.7-4-0.7-4s-0.4-4-2.2-4c-1.8,0-1.6,2.4-1.6,3s0.4,2.3,0.4,3.1s0,4,0.5,5.5
	c0.5,1.5,1,4.8,0.9,6.6s0.2,4-1.5,5.7c-1.7,1.6-4.2-0.4-4.4-0.5c0,0,0,0,0,0c-0.2-0.2-4.2-4.8-8.4-3.7c0,0,0,0,0,0
	c-0.2,0.1-2.1,1.1-1,2.5c0,0,0.1,0,0.1,0.1c0.3,0.1,2.4,0.7,2.8,1.6c0.4,0.8,1.6,1.2,1.9,1.2c0,0,0,0,0.1,0c0.3,0.2,2.4,1.9,2.8,3
	c0.5,1.1,3,2.9,3.5,3.3c0.5,0.4,2.8,3.1,2.8,3.1s1.1,1.4,1.8,1.5c0.1,0,0.1,0.1,0.1,0.1c0,0.4,0.1,1.5-0.5,2.6
	c-0.7,1.3-0.8,2.7-1.2,3.9c-0.3,1-1.1,2.8-1.3,3.4c0,0.1,0,0.2,0.2,0.2h13.7C225.6,108.9,225.7,108.9,225.7,108.9L225.7,108.9z"/>
<path class="st2" d="M133.9,108.9C133.9,108.9,133.9,108.8,133.9,108.9c0.1-0.6,0.4-3.5,0.4-4.2c-0.1-0.7,0.4-1.8,0.4-2c0,0,0,0,0,0
	c0.1-0.1,0.5-0.7,1-1.6c0.6-1,1-2.8,1.3-3.1c0.3-0.4,1.5-2.6,1.9-4s0.8-4.5,1-5.1c0.2-0.6,0.5-1.5,0.5-2.4s0.5-2.3,0.4-2.5
	c0-0.2,0-2,1-3.6c0.5-0.8,0.7-1.5,0.8-2c0.1-0.7,0.3-1.4,0.6-2.1c0.2-0.4,0.3-0.8,0.3-0.9c0.1-0.3,1.6-3.9,0.8-4.6
	c-0.7-0.6-1.3-0.6-1.3-0.6c0,0,0,0,0,0c-0.1,0-0.9,0.3-1.6,2.3c-0.7,1.9-1,2.4-1.1,2.5c0,0,0,0,0,0c-0.1,0.2-0.6,1.8-0.8,1.9
	c-0.2,0.2-1.1,2-1.2,2.8s-0.6,2.1-1.4,1.7s-0.9-0.8-0.9-1.5c0-0.7,0-3.4,0.4-4.3c0.4-0.8,0.2-2.5,0.2-2.6c0,0,0,0,0,0l-0.1-3.7
	c0,0,0,0,0,0c0-0.2,0.1-4.5-0.4-5.1c-0.5-0.6-1.1-1.5-2.4-0.9c0,0-0.6,0.1-0.7,2.9s0,4.9-0.2,5.6c-0.3,0.7-0.4,3.9-0.4,4.1
	c0,0.3,0.2,2.7,0,2.7s-1-0.4-1-1.1c0-0.7,0-3.8,0-4c0-0.3,0-2.2-0.3-3.4c-0.3-1.2-0.2-3.4-0.2-3.4s0-3.9-0.1-4.1
	c0-0.2,0.2-1.7-1.5-1.9c-1.6-0.2-1.9,1.7-1.9,1.8c0,0,0,0,0,0c0,0.1-0.2,3.2-0.2,3.8c0,0.7,0,2.6,0,3.4c0,0.8,0,3.8,0.2,4.7
	c0.2,1,0.5,3.6,0.3,3.8s-1.3,0-1.3-0.3c0-0.3-1-6.4-1.3-7s-0.7-4-0.7-4s-0.4-4-2.2-4s-1.6,2.4-1.6,3c0,0.6,0.4,2.3,0.4,3.1
	s0,4,0.5,5.5c0.5,1.5,1,4.8,0.9,6.6c-0.1,1.8,0.2,4-1.5,5.7c-1.7,1.6-4.2-0.4-4.4-0.5c0,0,0,0,0,0c-0.2-0.2-4.2-4.8-8.4-3.7
	c0,0,0,0,0,0c-0.2,0.1-2.1,1.1-1,2.5c0,0,0.1,0,0.1,0.1c0.3,0.1,2.4,0.7,2.8,1.6c0.4,0.8,1.6,1.2,1.9,1.2c0,0,0,0,0.1,0
	c0.3,0.2,2.4,1.9,2.8,3c0.5,1.1,3,2.9,3.5,3.3c0.5,0.4,2.8,3.1,2.8,3.1s1.1,1.4,1.8,1.5c0.1,0,0.1,0.1,0.1,0.1
	c0,0.4,0.1,1.5-0.5,2.6c-0.7,1.3-0.8,2.7-1.2,3.9c-0.3,1-1.1,2.8-1.3,3.4c0,0.1,0,0.2,0.2,0.2h13.7
	C133.8,108.9,133.8,108.9,133.9,108.9L133.9,108.9z"/>
<path class="st2" d="M88,108.9C88,108.9,88,108.8,88,108.9c0.1-0.6,0.4-3.5,0.4-4.2c-0.1-0.7,0.4-1.8,0.4-2c0,0,0,0,0,0
	c0.1-0.1,0.5-0.7,1-1.6c0.6-1,1-2.8,1.3-3.1s1.5-2.6,1.9-4s0.8-4.5,1-5.1c0.2-0.6,0.5-1.5,0.5-2.4s0.5-2.3,0.4-2.5s0-2,1-3.6
	c0.5-0.8,0.7-1.5,0.8-2c0.1-0.7,0.3-1.4,0.6-2.1c0.2-0.4,0.3-0.8,0.3-0.9c0.1-0.3,1.6-3.9,0.8-4.6c-0.7-0.6-1.3-0.6-1.3-0.6
	c0,0,0,0,0,0c-0.1,0-0.9,0.3-1.6,2.3c-0.7,1.9-1,2.4-1.1,2.5c0,0,0,0,0,0c-0.1,0.2-0.6,1.8-0.8,1.9c-0.2,0.2-1.1,2-1.2,2.8
	s-0.6,2.1-1.4,1.7C90.2,81,90,80.6,90,79.9c0-0.7,0-3.4,0.4-4.3c0.4-0.8,0.2-2.5,0.2-2.6c0,0,0,0,0,0l-0.1-3.7c0,0,0,0,0,0
	c0-0.2,0.1-4.5-0.4-5.1c-0.5-0.6-1.1-1.5-2.4-0.9c0,0-0.6,0.1-0.7,2.9c0,2.8,0,4.9-0.2,5.6c-0.3,0.7-0.4,3.9-0.4,4.1
	c0,0.3,0.2,2.7,0,2.7c-0.3,0-1-0.4-1-1.1c0-0.7,0-3.8,0-4c0-0.3,0-2.2-0.3-3.4c-0.3-1.2-0.2-3.4-0.2-3.4s0-3.9-0.1-4.1
	s0.2-1.7-1.5-1.9c-1.6-0.2-1.9,1.7-1.9,1.8c0,0,0,0,0,0c0,0.1-0.2,3.2-0.2,3.8c0,0.7,0,2.6,0,3.4c0,0.8,0,3.8,0.2,4.7
	c0.2,1,0.5,3.6,0.3,3.8c-0.3,0.2-1.3,0-1.3-0.3c0-0.3-1-6.4-1.3-7c-0.3-0.6-0.7-4-0.7-4s-0.4-4-2.2-4s-1.6,2.4-1.6,3
	c0,0.6,0.4,2.3,0.4,3.1s0,4,0.5,5.5c0.5,1.5,1,4.8,0.9,6.6c-0.1,1.8,0.2,4-1.5,5.7c-1.7,1.6-4.2-0.4-4.4-0.5c0,0,0,0,0,0
	c-0.2-0.2-4.2-4.8-8.4-3.7c0,0,0,0,0,0c-0.2,0.1-2.1,1.1-1,2.5c0,0,0.1,0,0.1,0.1c0.3,0.1,2.4,0.7,2.8,1.6c0.4,0.8,1.6,1.2,1.9,1.2
	c0,0,0,0,0.1,0c0.3,0.2,2.4,1.9,2.8,3c0.5,1.1,3,2.9,3.5,3.3c0.5,0.4,2.8,3.1,2.8,3.1s1.1,1.4,1.8,1.5c0.1,0,0.1,0.1,0.1,0.1
	c0,0.4,0.1,1.5-0.5,2.6c-0.7,1.3-0.8,2.7-1.2,3.9c-0.3,1-1.1,2.8-1.3,3.4c0,0.1,0,0.2,0.2,0.2h13.7C87.9,108.9,87.9,108.9,88,108.9
	L88,108.9z"/>
<path class="st2" d="M42.1,108.9C42.1,108.9,42.1,108.8,42.1,108.9c0.1-0.6,0.4-3.5,0.4-4.2c-0.1-0.7,0.4-1.8,0.4-2c0,0,0,0,0,0
	c0.1-0.1,0.5-0.7,1-1.6c0.6-1,1-2.8,1.3-3.1c0.3-0.4,1.5-2.6,1.9-4s0.8-4.5,1-5.1c0.2-0.6,0.5-1.5,0.5-2.4s0.5-2.3,0.4-2.5
	c0-0.2,0-2,1-3.6c0.5-0.8,0.7-1.5,0.8-2c0.1-0.7,0.3-1.4,0.6-2.1c0.2-0.4,0.3-0.8,0.3-0.9c0.1-0.3,1.6-3.9,0.8-4.6
	c-0.7-0.6-1.3-0.6-1.3-0.6c0,0,0,0,0,0c-0.1,0-0.9,0.3-1.6,2.3c-0.7,1.9-1,2.4-1.1,2.5c0,0,0,0,0,0c-0.1,0.2-0.6,1.8-0.8,1.9
	c-0.2,0.2-1.1,2-1.2,2.8c-0.1,0.7-0.6,2.1-1.4,1.7c-0.8-0.4-0.9-0.8-0.9-1.5c0-0.7,0-3.4,0.4-4.3c0.4-0.8,0.2-2.5,0.2-2.6
	c0,0,0,0,0,0l-0.1-3.7c0,0,0,0,0,0c0-0.2,0.1-4.5-0.4-5.1c-0.5-0.6-1.1-1.5-2.4-0.9c0,0-0.6,0.1-0.7,2.9c0,2.8,0,4.9-0.2,5.6
	c-0.3,0.7-0.4,3.9-0.4,4.1c0,0.3,0.2,2.7,0,2.7s-1-0.4-1-1.1c0-0.7,0-3.8,0-4c0-0.3,0-2.2-0.3-3.4c-0.3-1.2-0.2-3.4-0.2-3.4
	s0-3.9-0.1-4.1c0-0.2,0.2-1.7-1.5-1.9c-1.6-0.2-1.9,1.7-1.9,1.8c0,0,0,0,0,0c0,0.1-0.2,3.2-0.2,3.8c0,0.7,0,2.6,0,3.4
	c0,0.8,0,3.8,0.2,4.7c0.2,1,0.5,3.6,0.3,3.8c-0.3,0.2-1.3,0-1.3-0.3c0-0.3-1-6.4-1.3-7c-0.3-0.6-0.7-4-0.7-4s-0.4-4-2.2-4
	c-1.8,0-1.6,2.4-1.6,3c0,0.6,0.4,2.3,0.4,3.1s0,4,0.5,5.5c0.5,1.5,1,4.8,0.9,6.6c-0.1,1.8,0.2,4-1.5,5.7c-1.7,1.6-4.2-0.4-4.4-0.5
	c0,0,0,0,0,0c-0.2-0.2-4.2-4.8-8.4-3.7c0,0,0,0,0,0c-0.2,0.1-2.1,1.1-1,2.5c0,0,0.1,0,0.1,0.1c0.3,0.1,2.4,0.7,2.8,1.6
	c0.4,0.8,1.6,1.2,1.9,1.2c0,0,0,0,0.1,0c0.3,0.2,2.4,1.9,2.8,3c0.5,1.1,3,2.9,3.5,3.3c0.5,0.4,2.8,3.1,2.8,3.1s1.1,1.4,1.8,1.5
	c0.1,0,0.1,0.1,0.1,0.1c0,0.4,0.1,1.5-0.5,2.6c-0.7,1.3-0.8,2.7-1.2,3.9c-0.3,1-1.1,2.8-1.3,3.4c0,0.1,0,0.2,0.2,0.2h13.7
	C42,108.9,42,108.9,42.1,108.9L42.1,108.9z"/>
<g>
	<path class="st3" d="M26.6,119.1c0,3.5-1.3,5.2-4,5.2c-0.5,0-0.8,0-1.1-0.1v-0.9c0.3,0.1,0.7,0.2,1.1,0.2c1,0,1.7-0.3,2.2-0.9
		c0.5-0.6,0.8-1.5,0.8-2.7h-0.1c-0.2,0.3-0.5,0.6-0.9,0.8c-0.4,0.2-0.8,0.3-1.2,0.3c-0.8,0-1.4-0.2-1.9-0.7c-0.5-0.5-0.7-1.1-0.7-2
		c0-0.9,0.3-1.6,0.8-2.2c0.5-0.5,1.2-0.8,2-0.8c0.6,0,1.1,0.2,1.6,0.5c0.4,0.3,0.8,0.8,1,1.3S26.6,118.3,26.6,119.1z M23.6,116.1
		c-0.6,0-1,0.2-1.3,0.6c-0.3,0.4-0.5,0.9-0.5,1.5c0,0.6,0.1,1,0.4,1.4c0.3,0.3,0.7,0.5,1.3,0.5c0.4,0,0.7-0.1,1-0.2
		c0.3-0.1,0.5-0.4,0.7-0.6c0.2-0.3,0.3-0.5,0.3-0.8c0-0.4-0.1-0.8-0.2-1.2c-0.2-0.4-0.4-0.6-0.7-0.8C24.4,116.2,24,116.1,23.6,116.1
		z"/>
	<path class="st3" d="M33.7,119.8c0,1.5-0.2,2.7-0.7,3.4c-0.5,0.8-1.2,1.1-2.2,1.1c-0.9,0-1.7-0.4-2.2-1.2c-0.5-0.8-0.7-1.9-0.7-3.4
		c0-1.5,0.2-2.7,0.7-3.4c0.5-0.7,1.2-1.1,2.2-1.1c1,0,1.7,0.4,2.2,1.2S33.7,118.3,33.7,119.8z M28.9,119.8c0,1.3,0.2,2.2,0.5,2.8
		s0.8,0.9,1.4,0.9c0.7,0,1.2-0.3,1.5-0.9c0.3-0.6,0.4-1.5,0.4-2.8c0-1.3-0.1-2.2-0.4-2.8c-0.3-0.6-0.8-0.9-1.5-0.9
		c-0.7,0-1.1,0.3-1.4,0.9S28.9,118.5,28.9,119.8z"/>
	<path class="st3" d="M38.6,118c0,0.9-0.2,1.6-0.5,2.1c-0.3,0.5-0.8,0.7-1.4,0.7c-0.6,0-1-0.2-1.3-0.7c-0.3-0.5-0.5-1.2-0.5-2.1
		c0-0.9,0.1-1.6,0.4-2.1c0.3-0.5,0.7-0.7,1.3-0.7c0.6,0,1,0.2,1.3,0.7C38.4,116.4,38.6,117.1,38.6,118z M35.8,118
		c0,0.7,0.1,1.2,0.2,1.5c0.1,0.3,0.4,0.5,0.7,0.5c0.7,0,1-0.7,1-2.1c0-1.4-0.3-2-1-2c-0.3,0-0.6,0.2-0.7,0.5
		C35.9,116.8,35.8,117.3,35.8,118z M42.3,115.4l-4.9,8.8h-0.9l4.9-8.8H42.3z M43.9,121.5c0,0.9-0.2,1.6-0.5,2.1
		c-0.3,0.5-0.8,0.7-1.4,0.7c-0.6,0-1-0.2-1.3-0.7c-0.3-0.5-0.5-1.2-0.5-2.1c0-0.9,0.1-1.6,0.4-2.1c0.3-0.5,0.7-0.7,1.3-0.7
		c0.6,0,1,0.2,1.3,0.7S43.9,120.6,43.9,121.5z M41.1,121.5c0,0.7,0.1,1.2,0.2,1.5s0.4,0.5,0.7,0.5s0.6-0.2,0.7-0.5
		c0.2-0.3,0.2-0.9,0.2-1.5c0-0.7-0.1-1.2-0.2-1.5c-0.2-0.3-0.4-0.5-0.7-0.5s-0.6,0.2-0.7,0.5C41.2,120.3,41.1,120.8,41.1,121.5z"/>
	<path class="st3" d="M56.6,119.8c0,1.4-0.4,2.5-1.1,3.3s-1.7,1.2-3,1.2c-1.3,0-2.3-0.4-3-1.2c-0.7-0.8-1.1-1.9-1.1-3.4
		c0-1.4,0.4-2.5,1.1-3.3c0.7-0.8,1.7-1.2,3-1.2c1.3,0,2.3,0.4,3,1.2S56.6,118.3,56.6,119.8z M49.6,119.8c0,1.2,0.3,2.1,0.8,2.7
		c0.5,0.6,1.2,0.9,2.2,0.9c1,0,1.7-0.3,2.2-0.9c0.5-0.6,0.7-1.5,0.7-2.7c0-1.2-0.2-2.1-0.7-2.7c-0.5-0.6-1.2-0.9-2.2-0.9
		c-1,0-1.7,0.3-2.2,0.9S49.6,118.6,49.6,119.8z"/>
	<path class="st3" d="M59.6,124.2h-1v-8.8h4.9v0.9h-3.9v3.2h3.7v0.9h-3.7V124.2z"/>
	<path class="st3" d="M73.7,117.9c0,0.9-0.3,1.6-0.9,2.1s-1.5,0.7-2.6,0.7h-1v3.5h-1v-8.8h2.3C72.6,115.4,73.7,116.2,73.7,117.9z
		 M69.2,119.8h0.9c0.9,0,1.6-0.1,2-0.4c0.4-0.3,0.6-0.8,0.6-1.4c0-0.6-0.2-1-0.6-1.3c-0.4-0.3-1-0.4-1.8-0.4h-1.1V119.8z"/>
	<path class="st3" d="M80.5,124.2h-4.9v-8.8h4.9v0.9h-3.9v2.8h3.7v0.9h-3.7v3.2h3.9V124.2z"/>
	<path class="st3" d="M90.1,119.8c0,1.4-0.4,2.5-1.1,3.3s-1.7,1.2-3,1.2c-1.3,0-2.3-0.4-3-1.2c-0.7-0.8-1.1-1.9-1.1-3.4
		c0-1.4,0.4-2.5,1.1-3.3c0.7-0.8,1.7-1.2,3-1.2c1.3,0,2.3,0.4,3,1.2S90.1,118.3,90.1,119.8z M83.1,119.8c0,1.2,0.3,2.1,0.8,2.7
		c0.5,0.6,1.2,0.9,2.2,0.9c1,0,1.7-0.3,2.2-0.9c0.5-0.6,0.7-1.5,0.7-2.7c0-1.2-0.2-2.1-0.7-2.7c-0.5-0.6-1.2-0.9-2.2-0.9
		c-1,0-1.7,0.3-2.2,0.9S83.1,118.6,83.1,119.8z"/>
	<path class="st3" d="M97.7,117.9c0,0.9-0.3,1.6-0.9,2.1s-1.5,0.7-2.6,0.7h-1v3.5h-1v-8.8h2.3C96.6,115.4,97.7,116.2,97.7,117.9z
		 M93.1,119.8H94c0.9,0,1.6-0.1,2-0.4c0.4-0.3,0.6-0.8,0.6-1.4c0-0.6-0.2-1-0.6-1.3c-0.4-0.3-1-0.4-1.8-0.4h-1.1V119.8z"/>
	<path class="st3" d="M99.5,124.2v-8.8h1v7.9h3.9v0.9H99.5z"/>
	<path class="st3" d="M110.8,124.2h-4.9v-8.8h4.9v0.9h-3.9v2.8h3.7v0.9h-3.7v3.2h3.9V124.2z"/>
	<path class="st3" d="M121.5,124.2l-1.1-2.8h-3.5l-1.1,2.8h-1l3.5-8.9h0.9l3.5,8.9H121.5z M120.1,120.5l-1-2.7
		c-0.1-0.3-0.3-0.8-0.4-1.3c-0.1,0.4-0.2,0.8-0.4,1.3l-1,2.7H120.1z"/>
	<path class="st3" d="M124.8,120.5v3.7h-1v-8.8h2.4c1.1,0,1.9,0.2,2.4,0.6c0.5,0.4,0.8,1,0.8,1.9c0,1.2-0.6,2-1.8,2.4l2.4,4h-1.2
		l-2.1-3.7H124.8z M124.8,119.6h1.4c0.7,0,1.3-0.1,1.6-0.4c0.3-0.3,0.5-0.7,0.5-1.3c0-0.6-0.2-1-0.5-1.3c-0.3-0.3-0.9-0.4-1.7-0.4
		h-1.3V119.6z"/>
	<path class="st3" d="M136.4,124.2h-4.9v-8.8h4.9v0.9h-3.9v2.8h3.7v0.9h-3.7v3.2h3.9V124.2z"/>
	<path class="st3" d="M142.6,120.5v3.7h-1v-8.8h2.4c1.1,0,1.9,0.2,2.4,0.6c0.5,0.4,0.8,1,0.8,1.9c0,1.2-0.6,2-1.8,2.4l2.4,4h-1.2
		l-2.1-3.7H142.6z M142.6,119.6h1.4c0.7,0,1.3-0.1,1.6-0.4c0.3-0.3,0.5-0.7,0.5-1.3c0-0.6-0.2-1-0.5-1.3c-0.3-0.3-0.9-0.4-1.7-0.4
		h-1.3V119.6z"/>
	<path class="st3" d="M149.2,124.2v-8.8h1v8.8H149.2z"/>
	<path class="st3" d="M156.5,119.6h3v4.3c-0.5,0.1-0.9,0.3-1.4,0.3c-0.5,0.1-1,0.1-1.7,0.1c-1.3,0-2.4-0.4-3.1-1.2
		c-0.7-0.8-1.1-1.9-1.1-3.3c0-0.9,0.2-1.7,0.6-2.4c0.4-0.7,0.9-1.2,1.6-1.6s1.5-0.5,2.4-0.5c0.9,0,1.8,0.2,2.6,0.5l-0.4,0.9
		c-0.8-0.3-1.6-0.5-2.3-0.5c-1.1,0-1.9,0.3-2.5,1c-0.6,0.6-0.9,1.5-0.9,2.7c0,1.2,0.3,2.1,0.9,2.7c0.6,0.6,1.4,0.9,2.6,0.9
		c0.6,0,1.2-0.1,1.8-0.2v-2.7h-2V119.6z"/>
	<path class="st3" d="M168.3,124.2h-1V120h-4.6v4.2h-1v-8.8h1v3.8h4.6v-3.8h1V124.2z"/>
	<path class="st3" d="M173.5,124.2h-1v-7.9h-2.8v-0.9h6.6v0.9h-2.8V124.2z"/>
	<path class="st3" d="M187.5,124.2h-1V120h-4.6v4.2h-1v-8.8h1v3.8h4.6v-3.8h1V124.2z"/>
	<path class="st3" d="M195.4,124.2l-1.1-2.8h-3.5l-1.1,2.8h-1l3.5-8.9h0.9l3.5,8.9H195.4z M194,120.5l-1-2.7
		c-0.1-0.3-0.3-0.8-0.4-1.3c-0.1,0.4-0.2,0.8-0.4,1.3l-1,2.7H194z"/>
	<path class="st3" d="M204.6,124.2h-1.2l-4.8-7.4h0c0.1,0.9,0.1,1.7,0.1,2.4v5h-0.9v-8.8h1.2l4.8,7.4h0c0-0.1,0-0.5-0.1-1
		c0-0.6,0-1,0-1.3v-5.1h1V124.2z"/>
	<path class="st3" d="M214.1,119.7c0,1.5-0.4,2.6-1.2,3.3c-0.8,0.8-1.9,1.2-3.4,1.2H207v-8.8h2.7c1.4,0,2.4,0.4,3.2,1.1
		C213.7,117.3,214.1,118.3,214.1,119.7z M213,119.7c0-1.2-0.3-2-0.9-2.6c-0.6-0.6-1.4-0.9-2.6-0.9h-1.5v7h1.2c1.2,0,2.1-0.3,2.8-0.9
		S213,120.9,213,119.7z"/>
	<path class="st3" d="M221,124.2H216v-8.8h4.9v0.9h-3.9v2.8h3.7v0.9h-3.7v3.2h3.9V124.2z"/>
	<path class="st3" d="M230,119.7c0,1.5-0.4,2.6-1.2,3.3c-0.8,0.8-1.9,1.2-3.4,1.2h-2.4v-8.8h2.7c1.4,0,2.4,0.4,3.2,1.1
		C229.6,117.3,230,118.3,230,119.7z M228.9,119.7c0-1.2-0.3-2-0.9-2.6c-0.6-0.6-1.4-0.9-2.6-0.9h-1.5v7h1.2c1.2,0,2.1-0.3,2.8-0.9
		S228.9,120.9,228.9,119.7z"/>
</g>
<g>
</g>
<g>
</g>
<g>
</g>
<g>
</g>
<g>
</g>
<g>
</g>
</svg>
